G04*
G04 #@! TF.GenerationSoftware,Altium Limited,Altium Designer,23.6.0 (18)*
G04*
G04 Layer_Color=32896*
%FSAX44Y44*%
%MOMM*%
G71*
G04*
G04 #@! TF.SameCoordinates,B6B15AAD-09C2-4985-A1E0-6DBEE0027C76*
G04*
G04*
G04 #@! TF.FilePolarity,Positive*
G04*
G01*
G75*
%ADD15C,0.2032*%
%ADD16C,0.2540*%
%ADD114C,0.3810*%
%ADD127C,0.0254*%
G54D15*
X00322326Y00171579D02*
Y00179196D01*
X00324865Y00176657D01*
X00327404Y00179196D01*
Y00171579D01*
X00329944D02*
X00332483D01*
X00331213D01*
Y00179196D01*
X00329944Y00177927D01*
X00341370Y00171579D02*
X00336292D01*
X00341370Y00176657D01*
Y00177927D01*
X00340100Y00179196D01*
X00337561D01*
X00336292Y00177927D01*
X00356605D02*
X00355335Y00179196D01*
X00352796D01*
X00351527Y00177927D01*
Y00176657D01*
X00352796Y00175387D01*
X00355335D01*
X00356605Y00174118D01*
Y00172848D01*
X00355335Y00171579D01*
X00352796D01*
X00351527Y00172848D01*
X00360414Y00177927D02*
Y00176657D01*
X00359144D01*
X00361683D01*
X00360414D01*
Y00172848D01*
X00361683Y00171579D01*
X00366762Y00176657D02*
X00369301D01*
X00370570Y00175387D01*
Y00171579D01*
X00366762D01*
X00365492Y00172848D01*
X00366762Y00174118D01*
X00370570D01*
X00378188Y00176657D02*
X00374379D01*
X00373110Y00175387D01*
Y00172848D01*
X00374379Y00171579D01*
X00378188D01*
X00380727D02*
Y00179196D01*
Y00174118D02*
X00384536Y00176657D01*
X00380727Y00174118D02*
X00384536Y00171579D01*
X00388345Y00176657D02*
Y00172848D01*
X00389614Y00171579D01*
X00393423D01*
Y00176657D01*
X00395962Y00169039D02*
Y00176657D01*
X00399771D01*
X00401040Y00175387D01*
Y00172848D01*
X00399771Y00171579D01*
X00395962D01*
X00885317Y00171450D02*
Y00179067D01*
X00890395Y00171450D01*
Y00179067D01*
X00892934Y00171450D02*
X00898013Y00176528D01*
X00900552Y00171450D02*
Y00176528D01*
X00903091Y00179067D01*
X00905630Y00176528D01*
Y00171450D01*
Y00175259D01*
X00900552D01*
X00746760Y00179067D02*
X00751838D01*
X00749299D01*
Y00171450D01*
X00754378Y00179067D02*
X00756917D01*
X00755647D01*
Y00171450D01*
X00754378D01*
X00756917D01*
X00760725Y00179067D02*
Y00171450D01*
X00764534D01*
X00765804Y00172720D01*
Y00177798D01*
X00764534Y00179067D01*
X00760725D01*
X00777230Y00171450D02*
Y00179067D01*
X00779769D02*
Y00171450D01*
X00775961Y00176528D02*
X00779769D01*
X00781039D01*
X00775961Y00173989D02*
X00781039D01*
X00783578Y00176528D02*
X00784848D01*
Y00175259D01*
X00783578D01*
Y00176528D01*
Y00172720D02*
X00784848D01*
Y00171450D01*
X00783578D01*
Y00172720D01*
X01474470Y00126912D02*
X01479548D01*
X01477009D01*
Y00119295D01*
X01487166Y00126912D02*
X01482088D01*
Y00119295D01*
X01487166D01*
X01482088Y00123104D02*
X01484627D01*
X01489705Y00126912D02*
X01494783Y00119295D01*
Y00126912D02*
X01489705Y00119295D01*
X01497323D02*
Y00124373D01*
X01499862Y00126912D01*
X01502401Y00124373D01*
Y00119295D01*
Y00123104D01*
X01497323D01*
X01510018Y00125643D02*
X01508749Y00126912D01*
X01506210D01*
X01504940Y00125643D01*
Y00124373D01*
X01506210Y00123104D01*
X01508749D01*
X01510018Y00121834D01*
Y00120564D01*
X01508749Y00119295D01*
X01506210D01*
X01504940Y00120564D01*
X01520175Y00126912D02*
X01522714D01*
X01521445D01*
Y00119295D01*
X01520175D01*
X01522714D01*
X01526523D02*
Y00126912D01*
X01531602Y00119295D01*
Y00126912D01*
X01539219Y00125643D02*
X01537950Y00126912D01*
X01535410D01*
X01534141Y00125643D01*
Y00124373D01*
X01535410Y00123104D01*
X01537950D01*
X01539219Y00121834D01*
Y00120564D01*
X01537950Y00119295D01*
X01535410D01*
X01534141Y00120564D01*
X01541758Y00126912D02*
X01546837D01*
X01544297D01*
Y00119295D01*
X01549376D02*
Y00126912D01*
X01553185D01*
X01554454Y00125643D01*
Y00123104D01*
X01553185Y00121834D01*
X01549376D01*
X01551915D02*
X01554454Y00119295D01*
X01556993Y00126912D02*
Y00120564D01*
X01558263Y00119295D01*
X01560802D01*
X01562072Y00120564D01*
Y00126912D01*
X01564611Y00119295D02*
Y00126912D01*
X01567150Y00124373D01*
X01569689Y00126912D01*
Y00119295D01*
X01577307Y00126912D02*
X01572228D01*
Y00119295D01*
X01577307D01*
X01572228Y00123104D02*
X01574768D01*
X01579846Y00119295D02*
Y00126912D01*
X01584924Y00119295D01*
Y00126912D01*
X01587463D02*
X01592542D01*
X01590003D01*
Y00119295D01*
X01600159Y00125643D02*
X01598890Y00126912D01*
X01596351D01*
X01595081Y00125643D01*
Y00124373D01*
X01596351Y00123104D01*
X01598890D01*
X01600159Y00121834D01*
Y00120564D01*
X01598890Y00119295D01*
X01596351D01*
X01595081Y00120564D01*
X01153287Y00125643D02*
X01154557Y00126912D01*
X01157096D01*
X01158365Y00125643D01*
Y00124373D01*
X01157096Y00123104D01*
X01158365Y00121834D01*
Y00120564D01*
X01157096Y00119295D01*
X01154557D01*
X01153287Y00120564D01*
Y00121834D01*
X01154557Y00123104D01*
X01153287Y00124373D01*
Y00125643D01*
X01154557Y00123104D02*
X01157096D01*
X01160904Y00124373D02*
X01162174D01*
Y00123104D01*
X01160904D01*
Y00124373D01*
Y00120564D02*
X01162174D01*
Y00119295D01*
X01160904D01*
Y00120564D01*
X01172331Y00126912D02*
X01167253D01*
Y00123104D01*
X01169792Y00124373D01*
X01171061D01*
X01172331Y00123104D01*
Y00120564D01*
X01171061Y00119295D01*
X01168522D01*
X01167253Y00120564D01*
X01174870Y00126912D02*
X01179948D01*
Y00125643D01*
X01174870Y00120564D01*
Y00119295D01*
X01182488Y00124373D02*
X01183757D01*
Y00123104D01*
X01182488D01*
Y00124373D01*
Y00120564D02*
X01183757D01*
Y00119295D01*
X01182488D01*
Y00120564D01*
X01188836Y00119295D02*
X01191375D01*
X01190105D01*
Y00126912D01*
X01188836Y00125643D01*
X01200262Y00126912D02*
X01195183D01*
Y00123104D01*
X01197723Y00124373D01*
X01198992D01*
X01200262Y00123104D01*
Y00120564D01*
X01198992Y00119295D01*
X01196453D01*
X01195183Y00120564D01*
X01210418Y00119295D02*
Y00124373D01*
X01212958Y00126912D01*
X01215497Y00124373D01*
Y00119295D01*
Y00123104D01*
X01210418D01*
X01218036Y00119295D02*
Y00126912D01*
X01220575Y00124373D01*
X01223114Y00126912D01*
Y00119295D01*
X00117729D02*
Y00126912D01*
X00121538D01*
X00122807Y00125643D01*
Y00123104D01*
X00121538Y00121834D01*
X00117729D01*
X00125346Y00126912D02*
Y00119295D01*
X00130425D01*
X00136773Y00126912D02*
X00134234D01*
X00132964Y00125643D01*
Y00120564D01*
X00134234Y00119295D01*
X00136773D01*
X00138042Y00120564D01*
Y00125643D01*
X00136773Y00126912D01*
X00140582D02*
X00145660D01*
X00143121D01*
Y00119295D01*
X00155817D02*
Y00126912D01*
X00160895Y00119295D01*
Y00126912D01*
X00163434Y00119295D02*
Y00124373D01*
X00165973Y00126912D01*
X00168513Y00124373D01*
Y00119295D01*
Y00123104D01*
X00163434D01*
X00171052Y00119295D02*
Y00126912D01*
X00173591Y00124373D01*
X00176130Y00126912D01*
Y00119295D01*
X00183748Y00126912D02*
X00178669D01*
Y00119295D01*
X00183748D01*
X00178669Y00123104D02*
X00181208D01*
X00193904Y00121834D02*
X00198983D01*
X00193904Y00124373D02*
X00198983D01*
X00117729Y00179196D02*
Y00171579D01*
X00122807D01*
X00125346D02*
Y00176657D01*
X00127886Y00179196D01*
X00130425Y00176657D01*
Y00171579D01*
Y00175387D01*
X00125346D01*
X00132964Y00179196D02*
Y00177927D01*
X00135503Y00175387D01*
X00138042Y00177927D01*
Y00179196D01*
X00135503Y00175387D02*
Y00171579D01*
X00145660Y00179196D02*
X00140582D01*
Y00171579D01*
X00145660D01*
X00140582Y00175387D02*
X00143121D01*
X00148199Y00171579D02*
Y00179196D01*
X00152008D01*
X00153278Y00177927D01*
Y00175387D01*
X00152008Y00174118D01*
X00148199D01*
X00150738D02*
X00153278Y00171579D01*
X00163434D02*
Y00179196D01*
X00168513Y00171579D01*
Y00179196D01*
X00171052Y00171579D02*
Y00176657D01*
X00173591Y00179196D01*
X00176130Y00176657D01*
Y00171579D01*
Y00175387D01*
X00171052D01*
X00178669Y00171579D02*
Y00179196D01*
X00181208Y00176657D01*
X00183748Y00179196D01*
Y00171579D01*
X00191365Y00179196D02*
X00186287D01*
Y00171579D01*
X00191365D01*
X00186287Y00175387D02*
X00188826D01*
X00201522Y00174118D02*
X00206600D01*
X00201522Y00176657D02*
X00206600D01*
X00746760Y00230714D02*
Y00223097D01*
X00750569D01*
X00751838Y00224366D01*
Y00225636D01*
X00750569Y00226905D01*
X00746760D01*
X00750569D01*
X00751838Y00228175D01*
Y00229445D01*
X00750569Y00230714D01*
X00746760D01*
X00758186D02*
X00755647D01*
X00754378Y00229445D01*
Y00224366D01*
X00755647Y00223097D01*
X00758186D01*
X00759456Y00224366D01*
Y00229445D01*
X00758186Y00230714D01*
X00761995Y00223097D02*
Y00228175D01*
X00764534Y00230714D01*
X00767073Y00228175D01*
Y00223097D01*
Y00226905D01*
X00761995D01*
X00769613Y00223097D02*
Y00230714D01*
X00773421D01*
X00774691Y00229445D01*
Y00226905D01*
X00773421Y00225636D01*
X00769613D01*
X00772152D02*
X00774691Y00223097D01*
X00777230Y00230714D02*
Y00223097D01*
X00781039D01*
X00782309Y00224366D01*
Y00229445D01*
X00781039Y00230714D01*
X00777230D01*
X00793735Y00223097D02*
Y00230714D01*
X00796274D02*
Y00223097D01*
X00792465Y00228175D02*
X00796274D01*
X00797544D01*
X00792465Y00225636D02*
X00797544D01*
X00800083Y00228175D02*
X00801352D01*
Y00226905D01*
X00800083D01*
Y00228175D01*
Y00224366D02*
X00801352D01*
Y00223097D01*
X00800083D01*
Y00224366D01*
X00885317Y00223097D02*
Y00230714D01*
X00889126D01*
X00890395Y00229445D01*
Y00226905D01*
X00889126Y00225636D01*
X00885317D01*
X00892934Y00223097D02*
Y00230714D01*
X00895474Y00228175D01*
X00898013Y00230714D01*
Y00223097D01*
X00900552D02*
Y00230714D01*
X00904361D01*
X00905630Y00229445D01*
Y00226905D01*
X00904361Y00225636D01*
X00900552D01*
X00908170Y00229445D02*
X00909439Y00230714D01*
X00911978D01*
X00913248Y00229445D01*
Y00228175D01*
X00911978Y00226905D01*
X00910709D01*
X00911978D01*
X00913248Y00225636D01*
Y00224366D01*
X00911978Y00223097D01*
X00909439D01*
X00908170Y00224366D01*
X00915787Y00223097D02*
X00918326D01*
X00917057D01*
Y00230714D01*
X00915787Y00229445D01*
X00927213Y00223097D02*
X00922135D01*
X00927213Y00228175D01*
Y00229445D01*
X00925944Y00230714D01*
X00923405D01*
X00922135Y00229445D01*
X00929753D02*
X00931022Y00230714D01*
X00933561D01*
X00934831Y00229445D01*
Y00228175D01*
X00933561Y00226905D01*
X00932292D01*
X00933561D01*
X00934831Y00225636D01*
Y00224366D01*
X00933561Y00223097D01*
X00931022D01*
X00929753Y00224366D01*
X00942449Y00230714D02*
X00939909Y00229445D01*
X00937370Y00226905D01*
Y00224366D01*
X00938640Y00223097D01*
X00941179D01*
X00942449Y00224366D01*
Y00225636D01*
X00941179Y00226905D01*
X00937370D01*
X01173861Y00223097D02*
Y00224366D01*
X01175131D01*
Y00223097D01*
X01173861D01*
X01180209D02*
Y00230714D01*
X01184018D01*
X01185287Y00229445D01*
Y00226905D01*
X01184018Y00225636D01*
X01180209D01*
X01192905Y00229445D02*
X01191635Y00230714D01*
X01189096D01*
X01187827Y00229445D01*
Y00224366D01*
X01189096Y00223097D01*
X01191635D01*
X01192905Y00224366D01*
X01195444Y00230714D02*
Y00223097D01*
X01199253D01*
X01200522Y00224366D01*
Y00225636D01*
X01199253Y00226905D01*
X01195444D01*
X01199253D01*
X01200522Y00228175D01*
Y00229445D01*
X01199253Y00230714D01*
X01195444D01*
X01203062Y00221827D02*
X01208140D01*
X01210679Y00223097D02*
Y00230714D01*
X01214488D01*
X01215757Y00229445D01*
Y00226905D01*
X01214488Y00225636D01*
X01210679D01*
X01213218D02*
X01215757Y00223097D01*
X01222105D02*
X01219566D01*
X01218297Y00224366D01*
Y00226905D01*
X01219566Y00228175D01*
X01222105D01*
X01223375Y00226905D01*
Y00225636D01*
X01218297D01*
X01225914Y00228175D02*
X01228453Y00223097D01*
X01230993Y00228175D01*
X00117729Y00223097D02*
Y00228175D01*
X00120268Y00230714D01*
X00122807Y00228175D01*
Y00223097D01*
Y00226905D01*
X00117729D01*
X00125346Y00230714D02*
Y00223097D01*
X00130425D01*
X00132964Y00230714D02*
Y00223097D01*
X00138042D01*
X00148199D02*
Y00228175D01*
X00150738Y00230714D01*
X00153278Y00228175D01*
Y00223097D01*
Y00226905D01*
X00148199D01*
X00155817Y00223097D02*
Y00230714D01*
X00159626D01*
X00160895Y00229445D01*
Y00226905D01*
X00159626Y00225636D01*
X00155817D01*
X00158356D02*
X00160895Y00223097D01*
X00163434Y00230714D02*
X00168513D01*
X00165973D01*
Y00223097D01*
X00171052Y00230714D02*
Y00223097D01*
X00173591Y00225636D01*
X00176130Y00223097D01*
Y00230714D01*
X00182478D02*
X00179939D01*
X00178669Y00229445D01*
Y00224366D01*
X00179939Y00223097D01*
X00182478D01*
X00183748Y00224366D01*
Y00229445D01*
X00182478Y00230714D01*
X00186287Y00223097D02*
Y00230714D01*
X00190096D01*
X00191365Y00229445D01*
Y00226905D01*
X00190096Y00225636D01*
X00186287D01*
X00188826D02*
X00191365Y00223097D01*
X00193904Y00230714D02*
Y00223097D01*
Y00225636D01*
X00198983Y00230714D01*
X00195174Y00226905D01*
X00198983Y00223097D01*
X00209139Y00230714D02*
Y00225636D01*
X00211679Y00223097D01*
X00214218Y00225636D01*
Y00230714D01*
X00216757D02*
X00219296D01*
X00218027D01*
Y00223097D01*
X00216757D01*
X00219296D01*
X00228183Y00230714D02*
X00223105D01*
Y00223097D01*
X00228183D01*
X00223105Y00226905D02*
X00225644D01*
X00230722Y00230714D02*
Y00223097D01*
X00233262Y00225636D01*
X00235801Y00223097D01*
Y00230714D01*
X00243418D02*
X00238340D01*
Y00223097D01*
X00243418D01*
X00238340Y00226905D02*
X00240879D01*
X00245958Y00230714D02*
Y00223097D01*
X00249766D01*
X00251036Y00224366D01*
Y00229445D01*
X00249766Y00230714D01*
X00245958D01*
X00266271D02*
X00261193D01*
Y00226905D01*
X00263732D01*
X00261193D01*
Y00223097D01*
X00268810D02*
Y00230714D01*
X00272619D01*
X00273888Y00229445D01*
Y00226905D01*
X00272619Y00225636D01*
X00268810D01*
X00271349D02*
X00273888Y00223097D01*
X00280236Y00230714D02*
X00277697D01*
X00276428Y00229445D01*
Y00224366D01*
X00277697Y00223097D01*
X00280236D01*
X00281506Y00224366D01*
Y00229445D01*
X00280236Y00230714D01*
X00284045Y00223097D02*
Y00230714D01*
X00286584Y00228175D01*
X00289124Y00230714D01*
Y00223097D01*
X00299280Y00230714D02*
X00304359D01*
X00301819D01*
Y00223097D01*
X00310707Y00230714D02*
X00308167D01*
X00306898Y00229445D01*
Y00224366D01*
X00308167Y00223097D01*
X00310707D01*
X00311976Y00224366D01*
Y00229445D01*
X00310707Y00230714D01*
X00314515Y00223097D02*
Y00230714D01*
X00318324D01*
X00319594Y00229445D01*
Y00226905D01*
X00318324Y00225636D01*
X00314515D01*
X00334829Y00229445D02*
X00333559Y00230714D01*
X00331020D01*
X00329750Y00229445D01*
Y00228175D01*
X00331020Y00226905D01*
X00333559D01*
X00334829Y00225636D01*
Y00224366D01*
X00333559Y00223097D01*
X00331020D01*
X00329750Y00224366D01*
X00337368Y00230714D02*
X00339907D01*
X00338638D01*
Y00223097D01*
X00337368D01*
X00339907D01*
X00343716Y00230714D02*
Y00223097D01*
X00347525D01*
X00348794Y00224366D01*
Y00229445D01*
X00347525Y00230714D01*
X00343716D01*
X00356412D02*
X00351333D01*
Y00223097D01*
X00356412D01*
X00351333Y00226905D02*
X00353873D01*
X00752346Y00125643D02*
X00751077Y00126912D01*
X00748538D01*
X00747268Y00125643D01*
Y00120564D01*
X00748538Y00119295D01*
X00751077D01*
X00752346Y00120564D01*
Y00123104D01*
X00749807D01*
X00759964Y00126912D02*
X00754885D01*
Y00119295D01*
X00759964D01*
X00754885Y00123104D02*
X00757425D01*
X00762503Y00119295D02*
Y00126912D01*
X00767581Y00119295D01*
Y00126912D01*
X00775199D02*
X00770121D01*
Y00119295D01*
X00775199D01*
X00770121Y00123104D02*
X00772660D01*
X00777738Y00119295D02*
Y00126912D01*
X00781547D01*
X00782816Y00125643D01*
Y00123104D01*
X00781547Y00121834D01*
X00777738D01*
X00780277D02*
X00782816Y00119295D01*
X00785356D02*
Y00124373D01*
X00787895Y00126912D01*
X00790434Y00124373D01*
Y00119295D01*
Y00123104D01*
X00785356D01*
X00792973Y00126912D02*
X00798052D01*
X00795512D01*
Y00119295D01*
X00805669Y00126912D02*
X00800591D01*
Y00119295D01*
X00805669D01*
X00800591Y00123104D02*
X00803130D01*
X00808208Y00126912D02*
Y00119295D01*
X00812017D01*
X00813287Y00120564D01*
Y00125643D01*
X00812017Y00126912D01*
X00808208D01*
X00846296Y00124373D02*
X00847566D01*
Y00123104D01*
X00846296D01*
Y00124373D01*
Y00120564D02*
X00847566D01*
Y00119295D01*
X00846296D01*
Y00120564D01*
X00968121Y00126912D02*
X00973199D01*
Y00125643D01*
X00968121Y00120564D01*
Y00119295D01*
X00975739D02*
X00980817Y00124373D01*
X00988434Y00119295D02*
X00983356D01*
X00988434Y00124373D01*
Y00125643D01*
X00987165Y00126912D01*
X00984626D01*
X00983356Y00125643D01*
X00990974Y00119295D02*
X00993513D01*
X00992243D01*
Y00126912D01*
X00990974Y00125643D01*
X00997322Y00119295D02*
X01002400Y00124373D01*
X01010017Y00119295D02*
X01004939D01*
X01010017Y00124373D01*
Y00125643D01*
X01008748Y00126912D01*
X01006209D01*
X01004939Y00125643D01*
X01012557D02*
X01013826Y00126912D01*
X01016365D01*
X01017635Y00125643D01*
Y00120564D01*
X01016365Y00119295D01*
X01013826D01*
X01012557Y00120564D01*
Y00125643D01*
X01025253Y00119295D02*
X01020174D01*
X01025253Y00124373D01*
Y00125643D01*
X01023983Y00126912D01*
X01021444D01*
X01020174Y00125643D01*
X01027792D02*
X01029061Y00126912D01*
X01031600D01*
X01032870Y00125643D01*
Y00124373D01*
X01031600Y00123104D01*
X01030331D01*
X01031600D01*
X01032870Y00121834D01*
Y00120564D01*
X01031600Y00119295D01*
X01029061D01*
X01027792Y00120564D01*
X00322326Y00119295D02*
Y00126912D01*
X00326135D01*
X00327404Y00125643D01*
Y00123104D01*
X00326135Y00121834D01*
X00322326D01*
X00329944Y00119295D02*
Y00126912D01*
X00332483Y00124373D01*
X00335022Y00126912D01*
Y00119295D01*
X00337561D02*
Y00126912D01*
X00341370D01*
X00342639Y00125643D01*
Y00123104D01*
X00341370Y00121834D01*
X00337561D01*
X00345179Y00125643D02*
X00346448Y00126912D01*
X00348987D01*
X00350257Y00125643D01*
Y00124373D01*
X00348987Y00123104D01*
X00347718D01*
X00348987D01*
X00350257Y00121834D01*
Y00120564D01*
X00348987Y00119295D01*
X00346448D01*
X00345179Y00120564D01*
X00352796Y00119295D02*
X00355335D01*
X00354066D01*
Y00126912D01*
X00352796Y00125643D01*
X00364222Y00119295D02*
X00359144D01*
X00364222Y00124373D01*
Y00125643D01*
X00362953Y00126912D01*
X00360414D01*
X00359144Y00125643D01*
X00366762D02*
X00368031Y00126912D01*
X00370570D01*
X00371840Y00125643D01*
Y00124373D01*
X00370570Y00123104D01*
X00369301D01*
X00370570D01*
X00371840Y00121834D01*
Y00120564D01*
X00370570Y00119295D01*
X00368031D01*
X00366762Y00120564D01*
X00379458Y00126912D02*
X00376918Y00125643D01*
X00374379Y00123104D01*
Y00120564D01*
X00375649Y00119295D01*
X00378188D01*
X00379458Y00120564D01*
Y00121834D01*
X00378188Y00123104D01*
X00374379D01*
X00381997Y00119295D02*
Y00126912D01*
X00385806D01*
X00387075Y00125643D01*
Y00123104D01*
X00385806Y00121834D01*
X00381997D01*
X00394693Y00125643D02*
X00393423Y00126912D01*
X00390884D01*
X00389614Y00125643D01*
Y00120564D01*
X00390884Y00119295D01*
X00393423D01*
X00394693Y00120564D01*
X00397232Y00126912D02*
Y00119295D01*
X00401040D01*
X00402310Y00120564D01*
Y00121834D01*
X00401040Y00123104D01*
X00397232D01*
X00401040D01*
X00402310Y00124373D01*
Y00125643D01*
X00401040Y00126912D01*
X00397232D01*
X00404849Y00118025D02*
X00409928D01*
X00412467Y00119295D02*
Y00126912D01*
X00416276D01*
X00417545Y00125643D01*
Y00123104D01*
X00416276Y00121834D01*
X00412467D01*
X00415006D02*
X00417545Y00119295D01*
X00423893D02*
X00421354D01*
X00420084Y00120564D01*
Y00123104D01*
X00421354Y00124373D01*
X00423893D01*
X00425163Y00123104D01*
Y00121834D01*
X00420084D01*
X00427702Y00124373D02*
X00430241Y00119295D01*
X00432780Y00124373D01*
X00435319Y00119295D02*
Y00120564D01*
X00436589D01*
Y00119295D01*
X00435319D01*
X00446746Y00125643D02*
X00445476Y00126912D01*
X00442937D01*
X00441667Y00125643D01*
Y00120564D01*
X00442937Y00119295D01*
X00445476D01*
X00446746Y00120564D01*
Y00123104D01*
X00444207D01*
X00449285Y00119295D02*
Y00126912D01*
X00451824Y00124373D01*
X00454363Y00126912D01*
Y00119295D01*
X00456903D02*
X00459442D01*
X00458172D01*
Y00126912D01*
X00456903Y00125643D01*
X00468329Y00119295D02*
X00463250D01*
X00468329Y00124373D01*
Y00125643D01*
X00467059Y00126912D01*
X00464520D01*
X00463250Y00125643D01*
X01099820Y00223097D02*
Y00230714D01*
X01103629D01*
X01104898Y00229445D01*
Y00226905D01*
X01103629Y00225636D01*
X01099820D01*
X01102359D02*
X01104898Y00223097D01*
X01112516Y00230714D02*
X01107438D01*
Y00223097D01*
X01112516D01*
X01107438Y00226905D02*
X01109977D01*
X01115055Y00230714D02*
Y00225636D01*
X01117594Y00223097D01*
X01120133Y00225636D01*
Y00230714D01*
X01122673Y00228175D02*
X01123942D01*
Y00226905D01*
X01122673D01*
Y00228175D01*
Y00224366D02*
X01123942D01*
Y00223097D01*
X01122673D01*
Y00224366D01*
X01317750Y00229445D02*
X01316481Y00230714D01*
X01313942D01*
X01312672Y00229445D01*
Y00228175D01*
X01313942Y00226905D01*
X01316481D01*
X01317750Y00225636D01*
Y00224366D01*
X01316481Y00223097D01*
X01313942D01*
X01312672Y00224366D01*
X01320289Y00230714D02*
Y00225636D01*
X01322829Y00223097D01*
X01325368Y00225636D01*
Y00230714D01*
X01327907Y00223097D02*
Y00230714D01*
X01332985Y00223097D01*
Y00230714D01*
X01343142Y00223097D02*
Y00230714D01*
X01346951D01*
X01348221Y00229445D01*
Y00226905D01*
X01346951Y00225636D01*
X01343142D01*
X01345681D02*
X01348221Y00223097D01*
X01355838Y00230714D02*
X01350760D01*
Y00223097D01*
X01355838D01*
X01350760Y00226905D02*
X01353299D01*
X01358377Y00230714D02*
Y00225636D01*
X01360916Y00223097D01*
X01363456Y00225636D01*
Y00230714D01*
X01365995Y00228175D02*
X01367264D01*
Y00226905D01*
X01365995D01*
Y00228175D01*
Y00224366D02*
X01367264D01*
Y00223097D01*
X01365995D01*
Y00224366D01*
X01441196Y00223097D02*
Y00230714D01*
X01446274Y00223097D01*
Y00230714D01*
X01450083Y00223097D02*
X01452622D01*
X01453892Y00224366D01*
Y00226905D01*
X01452622Y00228175D01*
X01450083D01*
X01448813Y00226905D01*
Y00224366D01*
X01450083Y00223097D01*
X01457701Y00229445D02*
Y00228175D01*
X01456431D01*
X01458970D01*
X01457701D01*
Y00224366D01*
X01458970Y00223097D01*
X01470397D02*
X01472936D01*
X01471666D01*
Y00228175D01*
X01470397D01*
X01476745Y00223097D02*
Y00228175D01*
X01480553D01*
X01481823Y00226905D01*
Y00223097D01*
X01491980Y00228175D02*
X01494519Y00223097D01*
X01497058Y00228175D01*
X01503406Y00223097D02*
X01500867D01*
X01499597Y00224366D01*
Y00226905D01*
X01500867Y00228175D01*
X01503406D01*
X01504675Y00226905D01*
Y00225636D01*
X01499597D01*
X01507215Y00228175D02*
Y00223097D01*
Y00225636D01*
X01508484Y00226905D01*
X01509754Y00228175D01*
X01511023D01*
X01514832Y00223097D02*
X01518641D01*
X01519910Y00224366D01*
X01518641Y00225636D01*
X01516102D01*
X01514832Y00226905D01*
X01516102Y00228175D01*
X01519910D01*
X01522450Y00223097D02*
X01524989D01*
X01523719D01*
Y00228175D01*
X01522450D01*
X01530067Y00223097D02*
X01532606D01*
X01533876Y00224366D01*
Y00226905D01*
X01532606Y00228175D01*
X01530067D01*
X01528798Y00226905D01*
Y00224366D01*
X01530067Y00223097D01*
X01536415D02*
Y00228175D01*
X01540224D01*
X01541494Y00226905D01*
Y00223097D01*
X01556729Y00228175D02*
X01552920D01*
X01551650Y00226905D01*
Y00224366D01*
X01552920Y00223097D01*
X01556729D01*
X01560537D02*
X01563077D01*
X01564346Y00224366D01*
Y00226905D01*
X01563077Y00228175D01*
X01560537D01*
X01559268Y00226905D01*
Y00224366D01*
X01560537Y00223097D01*
X01566885D02*
Y00228175D01*
X01570694D01*
X01571964Y00226905D01*
Y00223097D01*
X01575773Y00229445D02*
Y00228175D01*
X01574503D01*
X01577042D01*
X01575773D01*
Y00224366D01*
X01577042Y00223097D01*
X01580851Y00228175D02*
Y00223097D01*
Y00225636D01*
X01582120Y00226905D01*
X01583390Y00228175D01*
X01584660D01*
X01589738Y00223097D02*
X01592277D01*
X01593547Y00224366D01*
Y00226905D01*
X01592277Y00228175D01*
X01589738D01*
X01588468Y00226905D01*
Y00224366D01*
X01589738Y00223097D01*
X01596086D02*
X01598625D01*
X01597355D01*
Y00230714D01*
X01596086D01*
G54D16*
X02659399Y02368929D02*
Y02361311D01*
X02664478D01*
X02668286Y02366389D02*
X02670826D01*
X02672095Y02365120D01*
Y02361311D01*
X02668286D01*
X02667017Y02362581D01*
X02668286Y02363850D01*
X02672095D01*
X02674634Y02366389D02*
Y02362581D01*
X02675904Y02361311D01*
X02679713D01*
Y02360041D01*
X02678443Y02358772D01*
X02677173D01*
X02679713Y02361311D02*
Y02366389D01*
X02686060Y02361311D02*
X02683521D01*
X02682252Y02362581D01*
Y02365120D01*
X02683521Y02366389D01*
X02686060D01*
X02687330Y02365120D01*
Y02363850D01*
X02682252D01*
X02689869Y02366389D02*
Y02361311D01*
Y02363850D01*
X02691139Y02365120D01*
X02692409Y02366389D01*
X02693678D01*
X02664478Y02170809D02*
X02661938Y02169539D01*
X02659399Y02167000D01*
Y02164461D01*
X02660669Y02163191D01*
X02663208D01*
X02664478Y02164461D01*
Y02165730D01*
X02663208Y02167000D01*
X02659399D01*
X02664478Y02201288D02*
X02659399D01*
Y02197480D01*
X02661938Y02198749D01*
X02663208D01*
X02664478Y02197480D01*
Y02194941D01*
X02663208Y02193671D01*
X02660669D01*
X02659399Y02194941D01*
X02663208Y02224151D02*
Y02231768D01*
X02659399Y02227960D01*
X02664478D01*
X02659399Y02260979D02*
X02660669Y02262249D01*
X02663208D01*
X02664478Y02260979D01*
Y02259709D01*
X02663208Y02258440D01*
X02661938D01*
X02663208D01*
X02664478Y02257170D01*
Y02255901D01*
X02663208Y02254631D01*
X02660669D01*
X02659399Y02255901D01*
X02664478Y02285111D02*
X02659399D01*
X02664478Y02290189D01*
Y02291459D01*
X02663208Y02292728D01*
X02660669D01*
X02659399Y02291459D01*
Y02315591D02*
X02661938D01*
X02660669D01*
Y02323208D01*
X02659399Y02321939D01*
X02713998Y02361311D02*
Y02368929D01*
X02719077Y02361311D01*
Y02368929D01*
X02722885Y02366389D02*
X02725424D01*
X02726694Y02365120D01*
Y02361311D01*
X02722885D01*
X02721616Y02362581D01*
X02722885Y02363850D01*
X02726694D01*
X02729233Y02361311D02*
Y02366389D01*
X02730503D01*
X02731772Y02365120D01*
Y02361311D01*
Y02365120D01*
X02733042Y02366389D01*
X02734312Y02365120D01*
Y02361311D01*
X02740659D02*
X02738120D01*
X02736851Y02362581D01*
Y02365120D01*
X02738120Y02366389D01*
X02740659D01*
X02741929Y02365120D01*
Y02363850D01*
X02736851D01*
X02713998Y02140329D02*
Y02132711D01*
X02717807D01*
X02719077Y02133981D01*
Y02135250D01*
X02717807Y02136520D01*
X02713998D01*
X02717807D01*
X02719077Y02137789D01*
Y02139059D01*
X02717807Y02140329D01*
X02713998D01*
X02722885Y02132711D02*
X02725424D01*
X02726694Y02133981D01*
Y02136520D01*
X02725424Y02137789D01*
X02722885D01*
X02721616Y02136520D01*
Y02133981D01*
X02722885Y02132711D01*
X02730503Y02139059D02*
Y02137789D01*
X02729233D01*
X02731772D01*
X02730503D01*
Y02133981D01*
X02731772Y02132711D01*
X02736851Y02139059D02*
Y02137789D01*
X02735581D01*
X02738120D01*
X02736851D01*
Y02133981D01*
X02738120Y02132711D01*
X02743199D02*
X02745738D01*
X02747007Y02133981D01*
Y02136520D01*
X02745738Y02137789D01*
X02743199D01*
X02741929Y02136520D01*
Y02133981D01*
X02743199Y02132711D01*
X02749547D02*
Y02137789D01*
X02750816D01*
X02752086Y02136520D01*
Y02132711D01*
Y02136520D01*
X02753355Y02137789D01*
X02754625Y02136520D01*
Y02132711D01*
X02768590Y02140329D02*
X02766051D01*
X02764782Y02139059D01*
Y02133981D01*
X02766051Y02132711D01*
X02768590D01*
X02769860Y02133981D01*
Y02139059D01*
X02768590Y02140329D01*
X02772399Y02137789D02*
X02774938Y02132711D01*
X02777478Y02137789D01*
X02783826Y02132711D02*
X02781286D01*
X02780017Y02133981D01*
Y02136520D01*
X02781286Y02137789D01*
X02783826D01*
X02785095Y02136520D01*
Y02135250D01*
X02780017D01*
X02787634Y02137789D02*
Y02132711D01*
Y02135250D01*
X02788904Y02136520D01*
X02790174Y02137789D01*
X02791443D01*
X02795252Y02132711D02*
X02797791D01*
X02796522D01*
Y02140329D01*
X02795252D01*
X02802869Y02137789D02*
X02805409D01*
X02806678Y02136520D01*
Y02132711D01*
X02802869D01*
X02801600Y02133981D01*
X02802869Y02135250D01*
X02806678D01*
X02809217Y02137789D02*
Y02133981D01*
X02810487Y02132711D01*
X02814296D01*
Y02131441D01*
X02813026Y02130172D01*
X02811757D01*
X02814296Y02132711D02*
Y02137789D01*
X02713998Y02155569D02*
Y02147951D01*
X02717807D01*
X02719077Y02149221D01*
Y02150490D01*
X02717807Y02151760D01*
X02713998D01*
X02717807D01*
X02719077Y02153029D01*
Y02154299D01*
X02717807Y02155569D01*
X02713998D01*
X02722885Y02147951D02*
X02725424D01*
X02726694Y02149221D01*
Y02151760D01*
X02725424Y02153029D01*
X02722885D01*
X02721616Y02151760D01*
Y02149221D01*
X02722885Y02147951D01*
X02730503Y02154299D02*
Y02153029D01*
X02729233D01*
X02731772D01*
X02730503D01*
Y02149221D01*
X02731772Y02147951D01*
X02736851Y02154299D02*
Y02153029D01*
X02735581D01*
X02738120D01*
X02736851D01*
Y02149221D01*
X02738120Y02147951D01*
X02743199D02*
X02745738D01*
X02747007Y02149221D01*
Y02151760D01*
X02745738Y02153029D01*
X02743199D01*
X02741929Y02151760D01*
Y02149221D01*
X02743199Y02147951D01*
X02749547D02*
Y02153029D01*
X02750816D01*
X02752086Y02151760D01*
Y02147951D01*
Y02151760D01*
X02753355Y02153029D01*
X02754625Y02151760D01*
Y02147951D01*
X02769860Y02154299D02*
X02768590Y02155569D01*
X02766051D01*
X02764782Y02154299D01*
Y02153029D01*
X02766051Y02151760D01*
X02768590D01*
X02769860Y02150490D01*
Y02149221D01*
X02768590Y02147951D01*
X02766051D01*
X02764782Y02149221D01*
X02773669Y02147951D02*
X02776208D01*
X02777478Y02149221D01*
Y02151760D01*
X02776208Y02153029D01*
X02773669D01*
X02772399Y02151760D01*
Y02149221D01*
X02773669Y02147951D01*
X02780017D02*
X02782556D01*
X02781286D01*
Y02155569D01*
X02780017D01*
X02791443D02*
Y02147951D01*
X02787634D01*
X02786365Y02149221D01*
Y02151760D01*
X02787634Y02153029D01*
X02791443D01*
X02797791Y02147951D02*
X02795252D01*
X02793982Y02149221D01*
Y02151760D01*
X02795252Y02153029D01*
X02797791D01*
X02799061Y02151760D01*
Y02150490D01*
X02793982D01*
X02801600Y02153029D02*
Y02147951D01*
Y02150490D01*
X02802869Y02151760D01*
X02804139Y02153029D01*
X02805409D01*
X02713998Y02170809D02*
Y02163191D01*
X02717807D01*
X02719077Y02164461D01*
Y02165730D01*
X02717807Y02167000D01*
X02713998D01*
X02717807D01*
X02719077Y02168269D01*
Y02169539D01*
X02717807Y02170809D01*
X02713998D01*
X02722885Y02163191D02*
X02725424D01*
X02726694Y02164461D01*
Y02167000D01*
X02725424Y02168269D01*
X02722885D01*
X02721616Y02167000D01*
Y02164461D01*
X02722885Y02163191D01*
X02730503Y02169539D02*
Y02168269D01*
X02729233D01*
X02731772D01*
X02730503D01*
Y02164461D01*
X02731772Y02163191D01*
X02736851Y02169539D02*
Y02168269D01*
X02735581D01*
X02738120D01*
X02736851D01*
Y02164461D01*
X02738120Y02163191D01*
X02743199D02*
X02745738D01*
X02747007Y02164461D01*
Y02167000D01*
X02745738Y02168269D01*
X02743199D01*
X02741929Y02167000D01*
Y02164461D01*
X02743199Y02163191D01*
X02749547D02*
Y02168269D01*
X02750816D01*
X02752086Y02167000D01*
Y02163191D01*
Y02167000D01*
X02753355Y02168269D01*
X02754625Y02167000D01*
Y02163191D01*
X02764782Y02170809D02*
Y02163191D01*
X02769860D01*
X02773669Y02168269D02*
X02776208D01*
X02777478Y02167000D01*
Y02163191D01*
X02773669D01*
X02772399Y02164461D01*
X02773669Y02165730D01*
X02777478D01*
X02780017Y02168269D02*
Y02164461D01*
X02781286Y02163191D01*
X02785095D01*
Y02161921D01*
X02783826Y02160652D01*
X02782556D01*
X02785095Y02163191D02*
Y02168269D01*
X02791443Y02163191D02*
X02788904D01*
X02787634Y02164461D01*
Y02167000D01*
X02788904Y02168269D01*
X02791443D01*
X02792713Y02167000D01*
Y02165730D01*
X02787634D01*
X02795252Y02168269D02*
Y02163191D01*
Y02165730D01*
X02796522Y02167000D01*
X02797791Y02168269D01*
X02799061D01*
X02713998Y02186048D02*
Y02178431D01*
X02717807D01*
X02719077Y02179701D01*
Y02184779D01*
X02717807Y02186048D01*
X02713998D01*
X02721616Y02178431D02*
X02724155D01*
X02722885D01*
Y02183509D01*
X02721616D01*
X02731772Y02178431D02*
X02729233D01*
X02727964Y02179701D01*
Y02182240D01*
X02729233Y02183509D01*
X02731772D01*
X02733042Y02182240D01*
Y02180970D01*
X02727964D01*
X02735581Y02178431D02*
X02738120D01*
X02736851D01*
Y02186048D01*
X02735581D01*
X02745738Y02178431D02*
X02743199D01*
X02741929Y02179701D01*
Y02182240D01*
X02743199Y02183509D01*
X02745738D01*
X02747007Y02182240D01*
Y02180970D01*
X02741929D01*
X02754625Y02183509D02*
X02750816D01*
X02749547Y02182240D01*
Y02179701D01*
X02750816Y02178431D01*
X02754625D01*
X02758434Y02184779D02*
Y02183509D01*
X02757164D01*
X02759703D01*
X02758434D01*
Y02179701D01*
X02759703Y02178431D01*
X02763512Y02183509D02*
Y02178431D01*
Y02180970D01*
X02764782Y02182240D01*
X02766051Y02183509D01*
X02767321D01*
X02771130Y02178431D02*
X02773669D01*
X02772399D01*
Y02183509D01*
X02771130D01*
X02782556D02*
X02778747D01*
X02777478Y02182240D01*
Y02179701D01*
X02778747Y02178431D01*
X02782556D01*
X02797791D02*
X02792713D01*
X02797791Y02183509D01*
Y02184779D01*
X02796522Y02186048D01*
X02793982D01*
X02792713Y02184779D01*
X02713998Y02193671D02*
Y02201288D01*
X02717807D01*
X02719077Y02200019D01*
Y02197480D01*
X02717807Y02196210D01*
X02713998D01*
X02722885Y02193671D02*
X02725424D01*
X02726694Y02194941D01*
Y02197480D01*
X02725424Y02198749D01*
X02722885D01*
X02721616Y02197480D01*
Y02194941D01*
X02722885Y02193671D01*
X02729233Y02198749D02*
Y02194941D01*
X02730503Y02193671D01*
X02731772Y02194941D01*
X02733042Y02193671D01*
X02734312Y02194941D01*
Y02198749D01*
X02740659Y02193671D02*
X02738120D01*
X02736851Y02194941D01*
Y02197480D01*
X02738120Y02198749D01*
X02740659D01*
X02741929Y02197480D01*
Y02196210D01*
X02736851D01*
X02744468Y02198749D02*
Y02193671D01*
Y02196210D01*
X02745738Y02197480D01*
X02747007Y02198749D01*
X02748277D01*
X02759703Y02193671D02*
X02764782Y02198749D01*
X02780017Y02200019D02*
X02778747Y02201288D01*
X02776208D01*
X02774938Y02200019D01*
Y02194941D01*
X02776208Y02193671D01*
X02778747D01*
X02780017Y02194941D01*
Y02197480D01*
X02777478D01*
X02782556Y02193671D02*
Y02201288D01*
X02787634Y02193671D01*
Y02201288D01*
X02790174D02*
Y02193671D01*
X02793982D01*
X02795252Y02194941D01*
Y02200019D01*
X02793982Y02201288D01*
X02790174D01*
X02810487Y02193671D02*
X02805409D01*
X02810487Y02198749D01*
Y02200019D01*
X02809218Y02201288D01*
X02806678D01*
X02805409Y02200019D01*
X02713998Y02216528D02*
Y02208911D01*
X02717807D01*
X02719077Y02210181D01*
Y02215259D01*
X02717807Y02216528D01*
X02713998D01*
X02721616Y02208911D02*
X02724155D01*
X02722885D01*
Y02213989D01*
X02721616D01*
X02731772Y02208911D02*
X02729233D01*
X02727964Y02210181D01*
Y02212720D01*
X02729233Y02213989D01*
X02731772D01*
X02733042Y02212720D01*
Y02211450D01*
X02727964D01*
X02735581Y02208911D02*
X02738120D01*
X02736851D01*
Y02216528D01*
X02735581D01*
X02745738Y02208911D02*
X02743199D01*
X02741929Y02210181D01*
Y02212720D01*
X02743199Y02213989D01*
X02745738D01*
X02747007Y02212720D01*
Y02211450D01*
X02741929D01*
X02754625Y02213989D02*
X02750816D01*
X02749547Y02212720D01*
Y02210181D01*
X02750816Y02208911D01*
X02754625D01*
X02758434Y02215259D02*
Y02213989D01*
X02757164D01*
X02759703D01*
X02758434D01*
Y02210181D01*
X02759703Y02208911D01*
X02763512Y02213989D02*
Y02208911D01*
Y02211450D01*
X02764782Y02212720D01*
X02766051Y02213989D01*
X02767321D01*
X02771130Y02208911D02*
X02773669D01*
X02772399D01*
Y02213989D01*
X02771130D01*
X02782556D02*
X02778747D01*
X02777478Y02212720D01*
Y02210181D01*
X02778747Y02208911D01*
X02782556D01*
X02796522D02*
Y02216528D01*
X02792713Y02212720D01*
X02797791D01*
X02719077Y02230499D02*
X02717807Y02231768D01*
X02715268D01*
X02713998Y02230499D01*
Y02229229D01*
X02715268Y02227960D01*
X02717807D01*
X02719077Y02226690D01*
Y02225421D01*
X02717807Y02224151D01*
X02715268D01*
X02713998Y02225421D01*
X02721616Y02224151D02*
X02724155D01*
X02722885D01*
Y02229229D01*
X02721616D01*
X02730503Y02221612D02*
X02731772D01*
X02733042Y02222881D01*
Y02229229D01*
X02729233D01*
X02727964Y02227960D01*
Y02225421D01*
X02729233Y02224151D01*
X02733042D01*
X02735581D02*
Y02229229D01*
X02739390D01*
X02740659Y02227960D01*
Y02224151D01*
X02744468Y02229229D02*
X02747007D01*
X02748277Y02227960D01*
Y02224151D01*
X02744468D01*
X02743199Y02225421D01*
X02744468Y02226690D01*
X02748277D01*
X02750816Y02224151D02*
X02753355D01*
X02752086D01*
Y02231768D01*
X02750816D01*
X02764782D02*
Y02224151D01*
X02769860D01*
X02773669Y02229229D02*
X02776208D01*
X02777478Y02227960D01*
Y02224151D01*
X02773669D01*
X02772399Y02225421D01*
X02773669Y02226690D01*
X02777478D01*
X02780017Y02229229D02*
Y02225421D01*
X02781286Y02224151D01*
X02785095D01*
Y02222881D01*
X02783826Y02221612D01*
X02782556D01*
X02785095Y02224151D02*
Y02229229D01*
X02791443Y02224151D02*
X02788904D01*
X02787634Y02225421D01*
Y02227960D01*
X02788904Y02229229D01*
X02791443D01*
X02792713Y02227960D01*
Y02226690D01*
X02787634D01*
X02795252Y02229229D02*
Y02224151D01*
Y02226690D01*
X02796522Y02227960D01*
X02797791Y02229229D01*
X02799061D01*
X02815565Y02224151D02*
X02810487D01*
X02815565Y02229229D01*
Y02230499D01*
X02814296Y02231768D01*
X02811757D01*
X02810487Y02230499D01*
X02713998Y02247009D02*
Y02239391D01*
X02717807D01*
X02719077Y02240661D01*
Y02245739D01*
X02717807Y02247009D01*
X02713998D01*
X02721616Y02239391D02*
X02724155D01*
X02722885D01*
Y02244469D01*
X02721616D01*
X02731772Y02239391D02*
X02729233D01*
X02727964Y02240661D01*
Y02243200D01*
X02729233Y02244469D01*
X02731772D01*
X02733042Y02243200D01*
Y02241930D01*
X02727964D01*
X02735581Y02239391D02*
X02738120D01*
X02736851D01*
Y02247009D01*
X02735581D01*
X02745738Y02239391D02*
X02743199D01*
X02741929Y02240661D01*
Y02243200D01*
X02743199Y02244469D01*
X02745738D01*
X02747007Y02243200D01*
Y02241930D01*
X02741929D01*
X02754625Y02244469D02*
X02750816D01*
X02749547Y02243200D01*
Y02240661D01*
X02750816Y02239391D01*
X02754625D01*
X02758434Y02245739D02*
Y02244469D01*
X02757164D01*
X02759703D01*
X02758434D01*
Y02240661D01*
X02759703Y02239391D01*
X02763512Y02244469D02*
Y02239391D01*
Y02241930D01*
X02764782Y02243200D01*
X02766051Y02244469D01*
X02767321D01*
X02771130Y02239391D02*
X02773669D01*
X02772399D01*
Y02244469D01*
X02771130D01*
X02782556D02*
X02778747D01*
X02777478Y02243200D01*
Y02240661D01*
X02778747Y02239391D01*
X02782556D01*
X02785095D02*
X02787634D01*
X02786365D01*
Y02247009D01*
X02785095Y02245739D01*
X02719077Y02260979D02*
X02717807Y02262249D01*
X02715268D01*
X02713998Y02260979D01*
Y02259709D01*
X02715268Y02258440D01*
X02717807D01*
X02719077Y02257170D01*
Y02255901D01*
X02717807Y02254631D01*
X02715268D01*
X02713998Y02255901D01*
X02721616Y02254631D02*
X02724155D01*
X02722885D01*
Y02259709D01*
X02721616D01*
X02730503Y02252092D02*
X02731772D01*
X02733042Y02253361D01*
Y02259709D01*
X02729233D01*
X02727964Y02258440D01*
Y02255901D01*
X02729233Y02254631D01*
X02733042D01*
X02735581D02*
Y02259709D01*
X02739390D01*
X02740659Y02258440D01*
Y02254631D01*
X02744468Y02259709D02*
X02747007D01*
X02748277Y02258440D01*
Y02254631D01*
X02744468D01*
X02743199Y02255901D01*
X02744468Y02257170D01*
X02748277D01*
X02750816Y02254631D02*
X02753355D01*
X02752086D01*
Y02262249D01*
X02750816D01*
X02764782D02*
Y02254631D01*
X02769860D01*
X02773669Y02259709D02*
X02776208D01*
X02777478Y02258440D01*
Y02254631D01*
X02773669D01*
X02772399Y02255901D01*
X02773669Y02257170D01*
X02777478D01*
X02780017Y02259709D02*
Y02255901D01*
X02781286Y02254631D01*
X02785095D01*
Y02253361D01*
X02783826Y02252092D01*
X02782556D01*
X02785095Y02254631D02*
Y02259709D01*
X02791443Y02254631D02*
X02788904D01*
X02787634Y02255901D01*
Y02258440D01*
X02788904Y02259709D01*
X02791443D01*
X02792713Y02258440D01*
Y02257170D01*
X02787634D01*
X02795252Y02259709D02*
Y02254631D01*
Y02257170D01*
X02796522Y02258440D01*
X02797791Y02259709D01*
X02799061D01*
X02810487Y02254631D02*
X02813026D01*
X02811757D01*
Y02262249D01*
X02810487Y02260979D01*
X02713998Y02277489D02*
Y02269871D01*
X02717807D01*
X02719077Y02271141D01*
Y02276219D01*
X02717807Y02277489D01*
X02713998D01*
X02721616Y02269871D02*
X02724155D01*
X02722885D01*
Y02274949D01*
X02721616D01*
X02731772Y02269871D02*
X02729233D01*
X02727964Y02271141D01*
Y02273680D01*
X02729233Y02274949D01*
X02731772D01*
X02733042Y02273680D01*
Y02272410D01*
X02727964D01*
X02735581Y02269871D02*
X02738120D01*
X02736851D01*
Y02277489D01*
X02735581D01*
X02745738Y02269871D02*
X02743199D01*
X02741929Y02271141D01*
Y02273680D01*
X02743199Y02274949D01*
X02745738D01*
X02747007Y02273680D01*
Y02272410D01*
X02741929D01*
X02754625Y02274949D02*
X02750816D01*
X02749547Y02273680D01*
Y02271141D01*
X02750816Y02269871D01*
X02754625D01*
X02758434Y02276219D02*
Y02274949D01*
X02757164D01*
X02759703D01*
X02758434D01*
Y02271141D01*
X02759703Y02269871D01*
X02763512Y02274949D02*
Y02269871D01*
Y02272410D01*
X02764782Y02273680D01*
X02766051Y02274949D01*
X02767321D01*
X02771130Y02269871D02*
X02773669D01*
X02772399D01*
Y02274949D01*
X02771130D01*
X02782556D02*
X02778747D01*
X02777478Y02273680D01*
Y02271141D01*
X02778747Y02269871D01*
X02782556D01*
X02792713Y02276219D02*
X02793982Y02277489D01*
X02796522D01*
X02797791Y02276219D01*
Y02274949D01*
X02796522Y02273680D01*
X02795252D01*
X02796522D01*
X02797791Y02272410D01*
Y02271141D01*
X02796522Y02269871D01*
X02793982D01*
X02792713Y02271141D01*
X02713998Y02285111D02*
Y02292728D01*
X02717807D01*
X02719077Y02291459D01*
Y02288920D01*
X02717807Y02287650D01*
X02713998D01*
X02722885Y02285111D02*
X02725424D01*
X02726694Y02286381D01*
Y02288920D01*
X02725424Y02290189D01*
X02722885D01*
X02721616Y02288920D01*
Y02286381D01*
X02722885Y02285111D01*
X02729233Y02290189D02*
Y02286381D01*
X02730503Y02285111D01*
X02731772Y02286381D01*
X02733042Y02285111D01*
X02734312Y02286381D01*
Y02290189D01*
X02740659Y02285111D02*
X02738120D01*
X02736851Y02286381D01*
Y02288920D01*
X02738120Y02290189D01*
X02740659D01*
X02741929Y02288920D01*
Y02287650D01*
X02736851D01*
X02744468Y02290189D02*
Y02285111D01*
Y02287650D01*
X02745738Y02288920D01*
X02747007Y02290189D01*
X02748277D01*
X02759703Y02285111D02*
X02764782Y02290189D01*
X02780017Y02291459D02*
X02778747Y02292728D01*
X02776208D01*
X02774938Y02291459D01*
Y02286381D01*
X02776208Y02285111D01*
X02778747D01*
X02780017Y02286381D01*
Y02288920D01*
X02777478D01*
X02782556Y02285111D02*
Y02292728D01*
X02787634Y02285111D01*
Y02292728D01*
X02790174D02*
Y02285111D01*
X02793982D01*
X02795252Y02286381D01*
Y02291459D01*
X02793982Y02292728D01*
X02790174D01*
X02805409Y02285111D02*
X02807948D01*
X02806678D01*
Y02292728D01*
X02805409Y02291459D01*
X02713998Y02307968D02*
Y02300351D01*
X02717807D01*
X02719077Y02301621D01*
Y02306699D01*
X02717807Y02307968D01*
X02713998D01*
X02721616Y02300351D02*
X02724155D01*
X02722885D01*
Y02305429D01*
X02721616D01*
X02731772Y02300351D02*
X02729233D01*
X02727964Y02301621D01*
Y02304160D01*
X02729233Y02305429D01*
X02731772D01*
X02733042Y02304160D01*
Y02302890D01*
X02727964D01*
X02735581Y02300351D02*
X02738120D01*
X02736851D01*
Y02307968D01*
X02735581D01*
X02745738Y02300351D02*
X02743199D01*
X02741929Y02301621D01*
Y02304160D01*
X02743199Y02305429D01*
X02745738D01*
X02747007Y02304160D01*
Y02302890D01*
X02741929D01*
X02754625Y02305429D02*
X02750816D01*
X02749547Y02304160D01*
Y02301621D01*
X02750816Y02300351D01*
X02754625D01*
X02758434Y02306699D02*
Y02305429D01*
X02757164D01*
X02759703D01*
X02758434D01*
Y02301621D01*
X02759703Y02300351D01*
X02763512Y02305429D02*
Y02300351D01*
Y02302890D01*
X02764782Y02304160D01*
X02766051Y02305429D01*
X02767321D01*
X02771130Y02300351D02*
X02773669D01*
X02772399D01*
Y02305429D01*
X02771130D01*
X02782556D02*
X02778747D01*
X02777478Y02304160D01*
Y02301621D01*
X02778747Y02300351D01*
X02782556D01*
X02792713D02*
X02795252D01*
X02793982D01*
Y02307968D01*
X02792713Y02306699D01*
X02713998Y02323208D02*
X02719077D01*
X02716537D01*
Y02315591D01*
X02722885D02*
X02725424D01*
X02726694Y02316861D01*
Y02319400D01*
X02725424Y02320669D01*
X02722885D01*
X02721616Y02319400D01*
Y02316861D01*
X02722885Y02315591D01*
X02729233Y02313052D02*
Y02320669D01*
X02733042D01*
X02734312Y02319400D01*
Y02316861D01*
X02733042Y02315591D01*
X02729233D01*
X02744468Y02323208D02*
Y02315591D01*
X02749547D01*
X02753355Y02320669D02*
X02755894D01*
X02757164Y02319400D01*
Y02315591D01*
X02753355D01*
X02752086Y02316861D01*
X02753355Y02318130D01*
X02757164D01*
X02759703Y02320669D02*
Y02316861D01*
X02760973Y02315591D01*
X02764782D01*
Y02314321D01*
X02763512Y02313052D01*
X02762243D01*
X02764782Y02315591D02*
Y02320669D01*
X02771130Y02315591D02*
X02768590D01*
X02767321Y02316861D01*
Y02319400D01*
X02768590Y02320669D01*
X02771130D01*
X02772399Y02319400D01*
Y02318130D01*
X02767321D01*
X02774938Y02320669D02*
Y02315591D01*
Y02318130D01*
X02776208Y02319400D01*
X02777478Y02320669D01*
X02778747D01*
X02713998Y02338448D02*
X02719077D01*
X02716537D01*
Y02330831D01*
X02722885D02*
X02725424D01*
X02726694Y02332101D01*
Y02334640D01*
X02725424Y02335909D01*
X02722885D01*
X02721616Y02334640D01*
Y02332101D01*
X02722885Y02330831D01*
X02729233Y02328292D02*
Y02335909D01*
X02733042D01*
X02734312Y02334640D01*
Y02332101D01*
X02733042Y02330831D01*
X02729233D01*
X02749547Y02337179D02*
X02748277Y02338448D01*
X02745738D01*
X02744468Y02337179D01*
Y02335909D01*
X02745738Y02334640D01*
X02748277D01*
X02749547Y02333370D01*
Y02332101D01*
X02748277Y02330831D01*
X02745738D01*
X02744468Y02332101D01*
X02753355Y02330831D02*
X02755894D01*
X02757164Y02332101D01*
Y02334640D01*
X02755894Y02335909D01*
X02753355D01*
X02752086Y02334640D01*
Y02332101D01*
X02753355Y02330831D01*
X02759703D02*
X02762243D01*
X02760973D01*
Y02338448D01*
X02759703D01*
X02771130D02*
Y02330831D01*
X02767321D01*
X02766051Y02332101D01*
Y02334640D01*
X02767321Y02335909D01*
X02771130D01*
X02777478Y02330831D02*
X02774938D01*
X02773669Y02332101D01*
Y02334640D01*
X02774938Y02335909D01*
X02777478D01*
X02778747Y02334640D01*
Y02333370D01*
X02773669D01*
X02781286Y02335909D02*
Y02330831D01*
Y02333370D01*
X02782556Y02334640D01*
X02783826Y02335909D01*
X02785095D01*
X02713998Y02353689D02*
X02719077D01*
X02716537D01*
Y02346071D01*
X02722885D02*
X02725424D01*
X02726694Y02347341D01*
Y02349880D01*
X02725424Y02351149D01*
X02722885D01*
X02721616Y02349880D01*
Y02347341D01*
X02722885Y02346071D01*
X02729233Y02343532D02*
Y02351149D01*
X02733042D01*
X02734312Y02349880D01*
Y02347341D01*
X02733042Y02346071D01*
X02729233D01*
X02748277Y02353689D02*
X02745738D01*
X02744468Y02352419D01*
Y02347341D01*
X02745738Y02346071D01*
X02748277D01*
X02749547Y02347341D01*
Y02352419D01*
X02748277Y02353689D01*
X02752086Y02351149D02*
X02754625Y02346071D01*
X02757164Y02351149D01*
X02763512Y02346071D02*
X02760973D01*
X02759703Y02347341D01*
Y02349880D01*
X02760973Y02351149D01*
X02763512D01*
X02764782Y02349880D01*
Y02348610D01*
X02759703D01*
X02767321Y02351149D02*
Y02346071D01*
Y02348610D01*
X02768590Y02349880D01*
X02769860Y02351149D01*
X02771130D01*
X02774938Y02346071D02*
X02777478D01*
X02776208D01*
Y02353689D01*
X02774938D01*
X02782556Y02351149D02*
X02785095D01*
X02786365Y02349880D01*
Y02346071D01*
X02782556D01*
X02781286Y02347341D01*
X02782556Y02348610D01*
X02786365D01*
X02788904Y02351149D02*
Y02347341D01*
X02790174Y02346071D01*
X02793982D01*
Y02344801D01*
X02792713Y02343532D01*
X02791443D01*
X02793982Y02346071D02*
Y02351149D01*
X02835885Y02361311D02*
Y02368929D01*
X02838424Y02366389D01*
X02840964Y02368929D01*
Y02361311D01*
X02844772Y02366389D02*
X02847312D01*
X02848581Y02365120D01*
Y02361311D01*
X02844772D01*
X02843503Y02362581D01*
X02844772Y02363850D01*
X02848581D01*
X02852390Y02367659D02*
Y02366389D01*
X02851120D01*
X02853659D01*
X02852390D01*
Y02362581D01*
X02853659Y02361311D01*
X02861277D02*
X02858738D01*
X02857468Y02362581D01*
Y02365120D01*
X02858738Y02366389D01*
X02861277D01*
X02862547Y02365120D01*
Y02363850D01*
X02857468D01*
X02865086Y02366389D02*
Y02361311D01*
Y02363850D01*
X02866355Y02365120D01*
X02867625Y02366389D01*
X02868895D01*
X02872704Y02361311D02*
X02875243D01*
X02873973D01*
Y02366389D01*
X02872704D01*
X02880321D02*
X02882860D01*
X02884130Y02365120D01*
Y02361311D01*
X02880321D01*
X02879051Y02362581D01*
X02880321Y02363850D01*
X02884130D01*
X02886669Y02361311D02*
X02889208D01*
X02887939D01*
Y02368929D01*
X02886669D01*
X02840964Y02154299D02*
X02839694Y02155569D01*
X02837155D01*
X02835885Y02154299D01*
Y02153029D01*
X02837155Y02151760D01*
X02839694D01*
X02840964Y02150490D01*
Y02149221D01*
X02839694Y02147951D01*
X02837155D01*
X02835885Y02149221D01*
X02844772Y02147951D02*
X02847312D01*
X02848581Y02149221D01*
Y02151760D01*
X02847312Y02153029D01*
X02844772D01*
X02843503Y02151760D01*
Y02149221D01*
X02844772Y02147951D01*
X02851120D02*
X02853659D01*
X02852390D01*
Y02155569D01*
X02851120D01*
X02862547D02*
Y02147951D01*
X02858738D01*
X02857468Y02149221D01*
Y02151760D01*
X02858738Y02153029D01*
X02862547D01*
X02868895Y02147951D02*
X02866355D01*
X02865086Y02149221D01*
Y02151760D01*
X02866355Y02153029D01*
X02868895D01*
X02870164Y02151760D01*
Y02150490D01*
X02865086D01*
X02872704Y02153029D02*
Y02147951D01*
Y02150490D01*
X02873973Y02151760D01*
X02875243Y02153029D01*
X02876512D01*
X02887939Y02147951D02*
Y02155569D01*
X02891747D01*
X02893017Y02154299D01*
Y02151760D01*
X02891747Y02150490D01*
X02887939D01*
X02890478D02*
X02893017Y02147951D01*
X02899365D02*
X02896826D01*
X02895556Y02149221D01*
Y02151760D01*
X02896826Y02153029D01*
X02899365D01*
X02900634Y02151760D01*
Y02150490D01*
X02895556D01*
X02903174Y02147951D02*
X02906982D01*
X02908252Y02149221D01*
X02906982Y02150490D01*
X02904443D01*
X02903174Y02151760D01*
X02904443Y02153029D01*
X02908252D01*
X02910791Y02147951D02*
X02913330D01*
X02912061D01*
Y02153029D01*
X02910791D01*
X02917139Y02147951D02*
X02920948D01*
X02922217Y02149221D01*
X02920948Y02150490D01*
X02918409D01*
X02917139Y02151760D01*
X02918409Y02153029D01*
X02922217D01*
X02926026Y02154299D02*
Y02153029D01*
X02924756D01*
X02927296D01*
X02926026D01*
Y02149221D01*
X02927296Y02147951D01*
X02835885Y02178431D02*
Y02186048D01*
X02839694D01*
X02840964Y02184779D01*
Y02182240D01*
X02839694Y02180970D01*
X02835885D01*
X02843503Y02178431D02*
Y02186048D01*
X02847312D01*
X02848581Y02184779D01*
Y02182240D01*
X02847312Y02180970D01*
X02843503D01*
X02851120Y02182240D02*
X02856199D01*
X02858738Y02184779D02*
X02860008Y02186048D01*
X02862547D01*
X02863816Y02184779D01*
Y02179701D01*
X02862547Y02178431D01*
X02860008D01*
X02858738Y02179701D01*
Y02184779D01*
X02866355D02*
X02867625Y02186048D01*
X02870164D01*
X02871434Y02184779D01*
Y02179701D01*
X02870164Y02178431D01*
X02867625D01*
X02866355Y02179701D01*
Y02184779D01*
X02879051Y02186048D02*
X02876512Y02184779D01*
X02873973Y02182240D01*
Y02179701D01*
X02875243Y02178431D01*
X02877782D01*
X02879051Y02179701D01*
Y02180970D01*
X02877782Y02182240D01*
X02873973D01*
X02840964Y02200019D02*
X02839694Y02201288D01*
X02837155D01*
X02835885Y02200019D01*
Y02194941D01*
X02837155Y02193671D01*
X02839694D01*
X02840964Y02194941D01*
X02848581Y02201288D02*
X02843503D01*
Y02197480D01*
X02846042D01*
X02843503D01*
Y02193671D01*
X02851120Y02197480D02*
X02856199D01*
X02858738Y02200019D02*
X02860008Y02201288D01*
X02862547D01*
X02863816Y02200019D01*
Y02194941D01*
X02862547Y02193671D01*
X02860008D01*
X02858738Y02194941D01*
Y02200019D01*
X02866355D02*
X02867625Y02201288D01*
X02870164D01*
X02871434Y02200019D01*
Y02194941D01*
X02870164Y02193671D01*
X02867625D01*
X02866355Y02194941D01*
Y02200019D01*
X02877782Y02193671D02*
Y02201288D01*
X02873973Y02197480D01*
X02879051D01*
X02835885Y02208911D02*
Y02216528D01*
X02839694D01*
X02840964Y02215259D01*
Y02212720D01*
X02839694Y02211450D01*
X02835885D01*
X02843503Y02208911D02*
Y02216528D01*
X02847312D01*
X02848581Y02215259D01*
Y02212720D01*
X02847312Y02211450D01*
X02843503D01*
X02851120Y02212720D02*
X02856199D01*
X02858738Y02215259D02*
X02860008Y02216528D01*
X02862547D01*
X02863816Y02215259D01*
Y02210181D01*
X02862547Y02208911D01*
X02860008D01*
X02858738Y02210181D01*
Y02215259D01*
X02866355D02*
X02867625Y02216528D01*
X02870164D01*
X02871434Y02215259D01*
Y02210181D01*
X02870164Y02208911D01*
X02867625D01*
X02866355Y02210181D01*
Y02215259D01*
X02879051Y02216528D02*
X02876512Y02215259D01*
X02873973Y02212720D01*
Y02210181D01*
X02875243Y02208911D01*
X02877782D01*
X02879051Y02210181D01*
Y02211450D01*
X02877782Y02212720D01*
X02873973D01*
X02840964Y02230499D02*
X02839694Y02231768D01*
X02837155D01*
X02835885Y02230499D01*
Y02225421D01*
X02837155Y02224151D01*
X02839694D01*
X02840964Y02225421D01*
X02848581Y02231768D02*
X02843503D01*
Y02227960D01*
X02846042D01*
X02843503D01*
Y02224151D01*
X02851120Y02227960D02*
X02856199D01*
X02858738Y02230499D02*
X02860008Y02231768D01*
X02862547D01*
X02863816Y02230499D01*
Y02225421D01*
X02862547Y02224151D01*
X02860008D01*
X02858738Y02225421D01*
Y02230499D01*
X02866355D02*
X02867625Y02231768D01*
X02870164D01*
X02871434Y02230499D01*
Y02225421D01*
X02870164Y02224151D01*
X02867625D01*
X02866355Y02225421D01*
Y02230499D01*
X02877782Y02224151D02*
Y02231768D01*
X02873973Y02227960D01*
X02879051D01*
X02840964Y02247009D02*
X02835885D01*
Y02243200D01*
X02838424D01*
X02835885D01*
Y02239391D01*
X02843503D02*
Y02247009D01*
X02847312D01*
X02848581Y02245739D01*
Y02243200D01*
X02847312Y02241930D01*
X02843503D01*
X02846042D02*
X02848581Y02239391D01*
X02851120Y02243200D02*
X02856199D01*
X02862547Y02239391D02*
Y02247009D01*
X02858738Y02243200D01*
X02863816D01*
X02840964Y02260979D02*
X02839694Y02262249D01*
X02837155D01*
X02835885Y02260979D01*
Y02255901D01*
X02837155Y02254631D01*
X02839694D01*
X02840964Y02255901D01*
X02848581Y02262249D02*
X02843503D01*
Y02258440D01*
X02846042D01*
X02843503D01*
Y02254631D01*
X02851120Y02258440D02*
X02856199D01*
X02858738Y02260979D02*
X02860008Y02262249D01*
X02862547D01*
X02863816Y02260979D01*
Y02255901D01*
X02862547Y02254631D01*
X02860008D01*
X02858738Y02255901D01*
Y02260979D01*
X02866355D02*
X02867625Y02262249D01*
X02870164D01*
X02871434Y02260979D01*
Y02255901D01*
X02870164Y02254631D01*
X02867625D01*
X02866355Y02255901D01*
Y02260979D01*
X02877782Y02254631D02*
Y02262249D01*
X02873973Y02258440D01*
X02879051D01*
X02835885Y02269871D02*
Y02277489D01*
X02839694D01*
X02840964Y02276219D01*
Y02273680D01*
X02839694Y02272410D01*
X02835885D01*
X02843503Y02269871D02*
Y02277489D01*
X02847312D01*
X02848581Y02276219D01*
Y02273680D01*
X02847312Y02272410D01*
X02843503D01*
X02851120Y02273680D02*
X02856199D01*
X02858738Y02276219D02*
X02860008Y02277489D01*
X02862547D01*
X02863816Y02276219D01*
Y02271141D01*
X02862547Y02269871D01*
X02860008D01*
X02858738Y02271141D01*
Y02276219D01*
X02866355D02*
X02867625Y02277489D01*
X02870164D01*
X02871434Y02276219D01*
Y02271141D01*
X02870164Y02269871D01*
X02867625D01*
X02866355Y02271141D01*
Y02276219D01*
X02879051Y02277489D02*
X02876512Y02276219D01*
X02873973Y02273680D01*
Y02271141D01*
X02875243Y02269871D01*
X02877782D01*
X02879051Y02271141D01*
Y02272410D01*
X02877782Y02273680D01*
X02873973D01*
X02840964Y02291459D02*
X02839694Y02292728D01*
X02837155D01*
X02835885Y02291459D01*
Y02286381D01*
X02837155Y02285111D01*
X02839694D01*
X02840964Y02286381D01*
X02848581Y02292728D02*
X02843503D01*
Y02288920D01*
X02846042D01*
X02843503D01*
Y02285111D01*
X02851120Y02288920D02*
X02856199D01*
X02858738Y02291459D02*
X02860008Y02292728D01*
X02862547D01*
X02863816Y02291459D01*
Y02286381D01*
X02862547Y02285111D01*
X02860008D01*
X02858738Y02286381D01*
Y02291459D01*
X02866355D02*
X02867625Y02292728D01*
X02870164D01*
X02871434Y02291459D01*
Y02286381D01*
X02870164Y02285111D01*
X02867625D01*
X02866355Y02286381D01*
Y02291459D01*
X02877782Y02285111D02*
Y02292728D01*
X02873973Y02288920D01*
X02879051D01*
X02835885Y02300351D02*
Y02307968D01*
X02839694D01*
X02840964Y02306699D01*
Y02304160D01*
X02839694Y02302890D01*
X02835885D01*
X02843503Y02300351D02*
Y02307968D01*
X02847312D01*
X02848581Y02306699D01*
Y02304160D01*
X02847312Y02302890D01*
X02843503D01*
X02851120Y02304160D02*
X02856199D01*
X02858738Y02306699D02*
X02860008Y02307968D01*
X02862547D01*
X02863816Y02306699D01*
Y02301621D01*
X02862547Y02300351D01*
X02860008D01*
X02858738Y02301621D01*
Y02306699D01*
X02866355D02*
X02867625Y02307968D01*
X02870164D01*
X02871434Y02306699D01*
Y02301621D01*
X02870164Y02300351D01*
X02867625D01*
X02866355Y02301621D01*
Y02306699D01*
X02879051Y02307968D02*
X02876512Y02306699D01*
X02873973Y02304160D01*
Y02301621D01*
X02875243Y02300351D01*
X02877782D01*
X02879051Y02301621D01*
Y02302890D01*
X02877782Y02304160D01*
X02873973D01*
X02840964Y02337179D02*
X02839694Y02338448D01*
X02837155D01*
X02835885Y02337179D01*
Y02335909D01*
X02837155Y02334640D01*
X02839694D01*
X02840964Y02333370D01*
Y02332101D01*
X02839694Y02330831D01*
X02837155D01*
X02835885Y02332101D01*
X02844772Y02330831D02*
X02847312D01*
X02848581Y02332101D01*
Y02334640D01*
X02847312Y02335909D01*
X02844772D01*
X02843503Y02334640D01*
Y02332101D01*
X02844772Y02330831D01*
X02851120D02*
X02853659D01*
X02852390D01*
Y02338448D01*
X02851120D01*
X02862547D02*
Y02330831D01*
X02858738D01*
X02857468Y02332101D01*
Y02334640D01*
X02858738Y02335909D01*
X02862547D01*
X02868895Y02330831D02*
X02866355D01*
X02865086Y02332101D01*
Y02334640D01*
X02866355Y02335909D01*
X02868895D01*
X02870164Y02334640D01*
Y02333370D01*
X02865086D01*
X02872704Y02335909D02*
Y02330831D01*
Y02333370D01*
X02873973Y02334640D01*
X02875243Y02335909D01*
X02876512D01*
X02887939Y02330831D02*
Y02338448D01*
X02891747D01*
X02893017Y02337179D01*
Y02334640D01*
X02891747Y02333370D01*
X02887939D01*
X02890478D02*
X02893017Y02330831D01*
X02899365D02*
X02896826D01*
X02895556Y02332101D01*
Y02334640D01*
X02896826Y02335909D01*
X02899365D01*
X02900634Y02334640D01*
Y02333370D01*
X02895556D01*
X02903174Y02330831D02*
X02906982D01*
X02908252Y02332101D01*
X02906982Y02333370D01*
X02904443D01*
X02903174Y02334640D01*
X02904443Y02335909D01*
X02908252D01*
X02910791Y02330831D02*
X02913330D01*
X02912061D01*
Y02335909D01*
X02910791D01*
X02917139Y02330831D02*
X02920948D01*
X02922217Y02332101D01*
X02920948Y02333370D01*
X02918409D01*
X02917139Y02334640D01*
X02918409Y02335909D01*
X02922217D01*
X02926026Y02337179D02*
Y02335909D01*
X02924756D01*
X02927296D01*
X02926026D01*
Y02332101D01*
X02927296Y02330831D01*
X02947616Y02368929D02*
X02952694D01*
X02950155D01*
Y02361311D01*
X02955233Y02368929D02*
Y02361311D01*
Y02365120D01*
X02956503Y02366389D01*
X02959042D01*
X02960312Y02365120D01*
Y02361311D01*
X02962851D02*
X02965390D01*
X02964120D01*
Y02366389D01*
X02962851D01*
X02974277D02*
X02970468D01*
X02969199Y02365120D01*
Y02362581D01*
X02970468Y02361311D01*
X02974277D01*
X02976816D02*
Y02368929D01*
Y02363850D02*
X02980625Y02366389D01*
X02976816Y02363850D02*
X02980625Y02361311D01*
X02984434D02*
Y02366389D01*
X02988242D01*
X02989512Y02365120D01*
Y02361311D01*
X02995860D02*
X02993321D01*
X02992051Y02362581D01*
Y02365120D01*
X02993321Y02366389D01*
X02995860D01*
X02997130Y02365120D01*
Y02363850D01*
X02992051D01*
X02999669Y02361311D02*
X03003478D01*
X03004747Y02362581D01*
X03003478Y02363850D01*
X03000938D01*
X02999669Y02365120D01*
X03000938Y02366389D01*
X03004747D01*
X03007286Y02361311D02*
X03011095D01*
X03012365Y02362581D01*
X03011095Y02363850D01*
X03008556D01*
X03007286Y02365120D01*
X03008556Y02366389D01*
X03012365D01*
X02947616Y02154299D02*
X02948885Y02155569D01*
X02951425D01*
X02952694Y02154299D01*
Y02149221D01*
X02951425Y02147951D01*
X02948885D01*
X02947616Y02149221D01*
Y02154299D01*
X02955233Y02147951D02*
Y02149221D01*
X02956503D01*
Y02147951D01*
X02955233D01*
X02965390D02*
Y02155569D01*
X02961581Y02151760D01*
X02966660D01*
X02969199Y02154299D02*
X02970468Y02155569D01*
X02973008D01*
X02974277Y02154299D01*
Y02149221D01*
X02973008Y02147951D01*
X02970468D01*
X02969199Y02149221D01*
Y02154299D01*
X02976816Y02147951D02*
Y02153029D01*
X02978086D01*
X02979355Y02151760D01*
Y02147951D01*
Y02151760D01*
X02980625Y02153029D01*
X02981895Y02151760D01*
Y02147951D01*
X02984434D02*
X02986973D01*
X02985703D01*
Y02153029D01*
X02984434D01*
X02990782Y02147951D02*
X02993321D01*
X02992051D01*
Y02155569D01*
X02990782D01*
X02947616Y02163191D02*
X02950155D01*
X02948885D01*
Y02170809D01*
X02947616Y02169539D01*
X02953964Y02163191D02*
Y02164461D01*
X02955233D01*
Y02163191D01*
X02953964D01*
X02964120D02*
Y02170809D01*
X02960312Y02167000D01*
X02965390D01*
X02967929Y02169539D02*
X02969199Y02170809D01*
X02971738D01*
X02973008Y02169539D01*
Y02164461D01*
X02971738Y02163191D01*
X02969199D01*
X02967929Y02164461D01*
Y02169539D01*
X02975547Y02163191D02*
Y02168269D01*
X02976816D01*
X02978086Y02167000D01*
Y02163191D01*
Y02167000D01*
X02979355Y02168269D01*
X02980625Y02167000D01*
Y02163191D01*
X02983164D02*
X02985703D01*
X02984434D01*
Y02168269D01*
X02983164D01*
X02989512Y02163191D02*
X02992051D01*
X02990782D01*
Y02170809D01*
X02989512D01*
X02952694Y02178431D02*
X02947616D01*
X02952694Y02183509D01*
Y02184779D01*
X02951425Y02186048D01*
X02948885D01*
X02947616Y02184779D01*
X02955233Y02178431D02*
Y02179701D01*
X02956503D01*
Y02178431D01*
X02955233D01*
X02961581Y02184779D02*
X02962851Y02186048D01*
X02965390D01*
X02966660Y02184779D01*
Y02183509D01*
X02965390Y02182240D01*
X02966660Y02180970D01*
Y02179701D01*
X02965390Y02178431D01*
X02962851D01*
X02961581Y02179701D01*
Y02180970D01*
X02962851Y02182240D01*
X02961581Y02183509D01*
Y02184779D01*
X02962851Y02182240D02*
X02965390D01*
X02969199Y02184779D02*
X02970468Y02186048D01*
X02973008D01*
X02974277Y02184779D01*
Y02179701D01*
X02973008Y02178431D01*
X02970468D01*
X02969199Y02179701D01*
Y02184779D01*
X02976816Y02178431D02*
Y02183509D01*
X02978086D01*
X02979355Y02182240D01*
Y02178431D01*
Y02182240D01*
X02980625Y02183509D01*
X02981895Y02182240D01*
Y02178431D01*
X02984434D02*
X02986973D01*
X02985703D01*
Y02183509D01*
X02984434D01*
X02990782Y02178431D02*
X02993321D01*
X02992051D01*
Y02186048D01*
X02990782D01*
X02947616Y02193671D02*
X02950155D01*
X02948885D01*
Y02201288D01*
X02947616Y02200019D01*
X02953964Y02193671D02*
Y02194941D01*
X02955233D01*
Y02193671D01*
X02953964D01*
X02960312Y02200019D02*
X02961581Y02201288D01*
X02964120D01*
X02965390Y02200019D01*
Y02198749D01*
X02964120Y02197480D01*
X02962851D01*
X02964120D01*
X02965390Y02196210D01*
Y02194941D01*
X02964120Y02193671D01*
X02961581D01*
X02960312Y02194941D01*
X02967929Y02200019D02*
X02969199Y02201288D01*
X02971738D01*
X02973008Y02200019D01*
Y02198749D01*
X02971738Y02197480D01*
X02973008Y02196210D01*
Y02194941D01*
X02971738Y02193671D01*
X02969199D01*
X02967929Y02194941D01*
Y02196210D01*
X02969199Y02197480D01*
X02967929Y02198749D01*
Y02200019D01*
X02969199Y02197480D02*
X02971738D01*
X02975547Y02193671D02*
Y02198749D01*
X02976816D01*
X02978086Y02197480D01*
Y02193671D01*
Y02197480D01*
X02979355Y02198749D01*
X02980625Y02197480D01*
Y02193671D01*
X02983164D02*
X02985703D01*
X02984434D01*
Y02198749D01*
X02983164D01*
X02989512Y02193671D02*
X02992051D01*
X02990782D01*
Y02201288D01*
X02989512D01*
X02952694Y02208911D02*
X02947616D01*
X02952694Y02213989D01*
Y02215259D01*
X02951425Y02216528D01*
X02948885D01*
X02947616Y02215259D01*
X02955233Y02208911D02*
Y02210181D01*
X02956503D01*
Y02208911D01*
X02955233D01*
X02961581Y02215259D02*
X02962851Y02216528D01*
X02965390D01*
X02966660Y02215259D01*
Y02213989D01*
X02965390Y02212720D01*
X02966660Y02211450D01*
Y02210181D01*
X02965390Y02208911D01*
X02962851D01*
X02961581Y02210181D01*
Y02211450D01*
X02962851Y02212720D01*
X02961581Y02213989D01*
Y02215259D01*
X02962851Y02212720D02*
X02965390D01*
X02969199Y02215259D02*
X02970468Y02216528D01*
X02973008D01*
X02974277Y02215259D01*
Y02210181D01*
X02973008Y02208911D01*
X02970468D01*
X02969199Y02210181D01*
Y02215259D01*
X02976816Y02208911D02*
Y02213989D01*
X02978086D01*
X02979355Y02212720D01*
Y02208911D01*
Y02212720D01*
X02980625Y02213989D01*
X02981895Y02212720D01*
Y02208911D01*
X02984434D02*
X02986973D01*
X02985703D01*
Y02213989D01*
X02984434D01*
X02990782Y02208911D02*
X02993321D01*
X02992051D01*
Y02216528D01*
X02990782D01*
X02947616Y02224151D02*
X02950155D01*
X02948885D01*
Y02231768D01*
X02947616Y02230499D01*
X02953964Y02224151D02*
Y02225421D01*
X02955233D01*
Y02224151D01*
X02953964D01*
X02960312Y02230499D02*
X02961581Y02231768D01*
X02964120D01*
X02965390Y02230499D01*
Y02229229D01*
X02964120Y02227960D01*
X02962851D01*
X02964120D01*
X02965390Y02226690D01*
Y02225421D01*
X02964120Y02224151D01*
X02961581D01*
X02960312Y02225421D01*
X02967929Y02230499D02*
X02969199Y02231768D01*
X02971738D01*
X02973008Y02230499D01*
Y02229229D01*
X02971738Y02227960D01*
X02973008Y02226690D01*
Y02225421D01*
X02971738Y02224151D01*
X02969199D01*
X02967929Y02225421D01*
Y02226690D01*
X02969199Y02227960D01*
X02967929Y02229229D01*
Y02230499D01*
X02969199Y02227960D02*
X02971738D01*
X02975547Y02224151D02*
Y02229229D01*
X02976816D01*
X02978086Y02227960D01*
Y02224151D01*
Y02227960D01*
X02979355Y02229229D01*
X02980625Y02227960D01*
Y02224151D01*
X02983164D02*
X02985703D01*
X02984434D01*
Y02229229D01*
X02983164D01*
X02989512Y02224151D02*
X02992051D01*
X02990782D01*
Y02231768D01*
X02989512D01*
X02952694Y02247009D02*
X02947616D01*
Y02243200D01*
X02950155Y02244469D01*
X02951425D01*
X02952694Y02243200D01*
Y02240661D01*
X02951425Y02239391D01*
X02948885D01*
X02947616Y02240661D01*
X02955233D02*
X02956503Y02239391D01*
X02959042D01*
X02960312Y02240661D01*
Y02245739D01*
X02959042Y02247009D01*
X02956503D01*
X02955233Y02245739D01*
Y02244469D01*
X02956503Y02243200D01*
X02960312D01*
X02962851Y02239391D02*
Y02240661D01*
X02964120D01*
Y02239391D01*
X02962851D01*
X02974277D02*
X02969199D01*
X02974277Y02244469D01*
Y02245739D01*
X02973008Y02247009D01*
X02970468D01*
X02969199Y02245739D01*
X02976816D02*
X02978086Y02247009D01*
X02980625D01*
X02981895Y02245739D01*
Y02240661D01*
X02980625Y02239391D01*
X02978086D01*
X02976816Y02240661D01*
Y02245739D01*
X02984434Y02239391D02*
Y02244469D01*
X02985703D01*
X02986973Y02243200D01*
Y02239391D01*
Y02243200D01*
X02988242Y02244469D01*
X02989512Y02243200D01*
Y02239391D01*
X02992051D02*
X02994590D01*
X02993321D01*
Y02244469D01*
X02992051D01*
X02998399Y02239391D02*
X03000938D01*
X02999669D01*
Y02247009D01*
X02998399D01*
X02947616Y02254631D02*
X02950155D01*
X02948885D01*
Y02262249D01*
X02947616Y02260979D01*
X02953964Y02254631D02*
Y02255901D01*
X02955233D01*
Y02254631D01*
X02953964D01*
X02960312Y02260979D02*
X02961581Y02262249D01*
X02964120D01*
X02965390Y02260979D01*
Y02259709D01*
X02964120Y02258440D01*
X02962851D01*
X02964120D01*
X02965390Y02257170D01*
Y02255901D01*
X02964120Y02254631D01*
X02961581D01*
X02960312Y02255901D01*
X02967929Y02260979D02*
X02969199Y02262249D01*
X02971738D01*
X02973008Y02260979D01*
Y02259709D01*
X02971738Y02258440D01*
X02973008Y02257170D01*
Y02255901D01*
X02971738Y02254631D01*
X02969199D01*
X02967929Y02255901D01*
Y02257170D01*
X02969199Y02258440D01*
X02967929Y02259709D01*
Y02260979D01*
X02969199Y02258440D02*
X02971738D01*
X02975547Y02254631D02*
Y02259709D01*
X02976816D01*
X02978086Y02258440D01*
Y02254631D01*
Y02258440D01*
X02979355Y02259709D01*
X02980625Y02258440D01*
Y02254631D01*
X02983164D02*
X02985703D01*
X02984434D01*
Y02259709D01*
X02983164D01*
X02989512Y02254631D02*
X02992051D01*
X02990782D01*
Y02262249D01*
X02989512D01*
X02952694Y02269871D02*
X02947616D01*
X02952694Y02274949D01*
Y02276219D01*
X02951425Y02277489D01*
X02948885D01*
X02947616Y02276219D01*
X02955233Y02269871D02*
Y02271141D01*
X02956503D01*
Y02269871D01*
X02955233D01*
X02961581Y02276219D02*
X02962851Y02277489D01*
X02965390D01*
X02966660Y02276219D01*
Y02274949D01*
X02965390Y02273680D01*
X02966660Y02272410D01*
Y02271141D01*
X02965390Y02269871D01*
X02962851D01*
X02961581Y02271141D01*
Y02272410D01*
X02962851Y02273680D01*
X02961581Y02274949D01*
Y02276219D01*
X02962851Y02273680D02*
X02965390D01*
X02969199Y02276219D02*
X02970468Y02277489D01*
X02973008D01*
X02974277Y02276219D01*
Y02271141D01*
X02973008Y02269871D01*
X02970468D01*
X02969199Y02271141D01*
Y02276219D01*
X02976816Y02269871D02*
Y02274949D01*
X02978086D01*
X02979355Y02273680D01*
Y02269871D01*
Y02273680D01*
X02980625Y02274949D01*
X02981895Y02273680D01*
Y02269871D01*
X02984434D02*
X02986973D01*
X02985703D01*
Y02274949D01*
X02984434D01*
X02990782Y02269871D02*
X02993321D01*
X02992051D01*
Y02277489D01*
X02990782D01*
X02947616Y02285111D02*
X02950155D01*
X02948885D01*
Y02292728D01*
X02947616Y02291459D01*
X02953964Y02285111D02*
Y02286381D01*
X02955233D01*
Y02285111D01*
X02953964D01*
X02960312Y02291459D02*
X02961581Y02292728D01*
X02964120D01*
X02965390Y02291459D01*
Y02290189D01*
X02964120Y02288920D01*
X02962851D01*
X02964120D01*
X02965390Y02287650D01*
Y02286381D01*
X02964120Y02285111D01*
X02961581D01*
X02960312Y02286381D01*
X02967929Y02291459D02*
X02969199Y02292728D01*
X02971738D01*
X02973008Y02291459D01*
Y02290189D01*
X02971738Y02288920D01*
X02973008Y02287650D01*
Y02286381D01*
X02971738Y02285111D01*
X02969199D01*
X02967929Y02286381D01*
Y02287650D01*
X02969199Y02288920D01*
X02967929Y02290189D01*
Y02291459D01*
X02969199Y02288920D02*
X02971738D01*
X02975547Y02285111D02*
Y02290189D01*
X02976816D01*
X02978086Y02288920D01*
Y02285111D01*
Y02288920D01*
X02979355Y02290189D01*
X02980625Y02288920D01*
Y02285111D01*
X02983164D02*
X02985703D01*
X02984434D01*
Y02290189D01*
X02983164D01*
X02989512Y02285111D02*
X02992051D01*
X02990782D01*
Y02292728D01*
X02989512D01*
X02952694Y02300351D02*
X02947616D01*
X02952694Y02305429D01*
Y02306699D01*
X02951425Y02307968D01*
X02948885D01*
X02947616Y02306699D01*
X02955233Y02300351D02*
Y02301621D01*
X02956503D01*
Y02300351D01*
X02955233D01*
X02961581Y02306699D02*
X02962851Y02307968D01*
X02965390D01*
X02966660Y02306699D01*
Y02305429D01*
X02965390Y02304160D01*
X02966660Y02302890D01*
Y02301621D01*
X02965390Y02300351D01*
X02962851D01*
X02961581Y02301621D01*
Y02302890D01*
X02962851Y02304160D01*
X02961581Y02305429D01*
Y02306699D01*
X02962851Y02304160D02*
X02965390D01*
X02969199Y02306699D02*
X02970468Y02307968D01*
X02973008D01*
X02974277Y02306699D01*
Y02301621D01*
X02973008Y02300351D01*
X02970468D01*
X02969199Y02301621D01*
Y02306699D01*
X02976816Y02300351D02*
Y02305429D01*
X02978086D01*
X02979355Y02304160D01*
Y02300351D01*
Y02304160D01*
X02980625Y02305429D01*
X02981895Y02304160D01*
Y02300351D01*
X02984434D02*
X02986973D01*
X02985703D01*
Y02305429D01*
X02984434D01*
X02990782Y02300351D02*
X02993321D01*
X02992051D01*
Y02307968D01*
X02990782D01*
X02947616Y02315591D02*
X02950155D01*
X02948885D01*
Y02323208D01*
X02947616Y02321939D01*
X02953964Y02315591D02*
Y02316861D01*
X02955233D01*
Y02315591D01*
X02953964D01*
X02964120D02*
Y02323208D01*
X02960312Y02319400D01*
X02965390D01*
X02967929Y02321939D02*
X02969199Y02323208D01*
X02971738D01*
X02973008Y02321939D01*
Y02316861D01*
X02971738Y02315591D01*
X02969199D01*
X02967929Y02316861D01*
Y02321939D01*
X02975547Y02315591D02*
Y02320669D01*
X02976816D01*
X02978086Y02319400D01*
Y02315591D01*
Y02319400D01*
X02979355Y02320669D01*
X02980625Y02319400D01*
Y02315591D01*
X02983164D02*
X02985703D01*
X02984434D01*
Y02320669D01*
X02983164D01*
X02989512Y02315591D02*
X02992051D01*
X02990782D01*
Y02323208D01*
X02989512D01*
X02947616Y02337179D02*
X02948885Y02338448D01*
X02951425D01*
X02952694Y02337179D01*
Y02332101D01*
X02951425Y02330831D01*
X02948885D01*
X02947616Y02332101D01*
Y02337179D01*
X02955233Y02330831D02*
Y02332101D01*
X02956503D01*
Y02330831D01*
X02955233D01*
X02965390D02*
Y02338448D01*
X02961581Y02334640D01*
X02966660D01*
X02969199Y02337179D02*
X02970468Y02338448D01*
X02973008D01*
X02974277Y02337179D01*
Y02332101D01*
X02973008Y02330831D01*
X02970468D01*
X02969199Y02332101D01*
Y02337179D01*
X02976816Y02330831D02*
Y02335909D01*
X02978086D01*
X02979355Y02334640D01*
Y02330831D01*
Y02334640D01*
X02980625Y02335909D01*
X02981895Y02334640D01*
Y02330831D01*
X02984434D02*
X02986973D01*
X02985703D01*
Y02335909D01*
X02984434D01*
X02990782Y02330831D02*
X02993321D01*
X02992051D01*
Y02338448D01*
X02990782D01*
X03037763Y02367659D02*
X03036494Y02368929D01*
X03033954D01*
X03032685Y02367659D01*
Y02362581D01*
X03033954Y02361311D01*
X03036494D01*
X03037763Y02362581D01*
X03041572Y02361311D02*
X03044111D01*
X03045381Y02362581D01*
Y02365120D01*
X03044111Y02366389D01*
X03041572D01*
X03040302Y02365120D01*
Y02362581D01*
X03041572Y02361311D01*
X03047920D02*
Y02366389D01*
X03051729D01*
X03052998Y02365120D01*
Y02361311D01*
X03055537D02*
X03059346D01*
X03060616Y02362581D01*
X03059346Y02363850D01*
X03056807D01*
X03055537Y02365120D01*
X03056807Y02366389D01*
X03060616D01*
X03064424Y02367659D02*
Y02366389D01*
X03063155D01*
X03065694D01*
X03064424D01*
Y02362581D01*
X03065694Y02361311D01*
X03070772Y02366389D02*
X03073311D01*
X03074581Y02365120D01*
Y02361311D01*
X03070772D01*
X03069503Y02362581D01*
X03070772Y02363850D01*
X03074581D01*
X03077120Y02361311D02*
Y02366389D01*
X03080929D01*
X03082199Y02365120D01*
Y02361311D01*
X03086007Y02367659D02*
Y02366389D01*
X03084738D01*
X03087277D01*
X03086007D01*
Y02362581D01*
X03087277Y02361311D01*
X03032685Y02154299D02*
X03033954Y02155569D01*
X03036494D01*
X03037763Y02154299D01*
Y02153029D01*
X03036494Y02151760D01*
X03035224D01*
X03036494D01*
X03037763Y02150490D01*
Y02149221D01*
X03036494Y02147951D01*
X03033954D01*
X03032685Y02149221D01*
X03040302Y02147951D02*
Y02149221D01*
X03041572D01*
Y02147951D01*
X03040302D01*
X03051729Y02155569D02*
X03046650D01*
Y02151760D01*
X03049189Y02153029D01*
X03050459D01*
X03051729Y02151760D01*
Y02149221D01*
X03050459Y02147951D01*
X03047920D01*
X03046650Y02149221D01*
X03036494Y02178431D02*
Y02186048D01*
X03032685Y02182240D01*
X03037763D01*
X03040302Y02178431D02*
Y02179701D01*
X03041572D01*
Y02178431D01*
X03040302D01*
X03046650D02*
X03049189D01*
X03047920D01*
Y02186048D01*
X03046650Y02184779D01*
X03036494Y02208911D02*
Y02216528D01*
X03032685Y02212720D01*
X03037763D01*
X03040302Y02208911D02*
Y02210181D01*
X03041572D01*
Y02208911D01*
X03040302D01*
X03046650D02*
X03049189D01*
X03047920D01*
Y02216528D01*
X03046650Y02215259D01*
X03036494Y02239391D02*
Y02247009D01*
X03032685Y02243200D01*
X03037763D01*
X03040302Y02239391D02*
Y02240661D01*
X03041572D01*
Y02239391D01*
X03040302D01*
X03046650Y02245739D02*
X03047920Y02247009D01*
X03050459D01*
X03051729Y02245739D01*
Y02244469D01*
X03050459Y02243200D01*
X03051729Y02241930D01*
Y02240661D01*
X03050459Y02239391D01*
X03047920D01*
X03046650Y02240661D01*
Y02241930D01*
X03047920Y02243200D01*
X03046650Y02244469D01*
Y02245739D01*
X03047920Y02243200D02*
X03050459D01*
X03036494Y02269871D02*
Y02277489D01*
X03032685Y02273680D01*
X03037763D01*
X03040302Y02269871D02*
Y02271141D01*
X03041572D01*
Y02269871D01*
X03040302D01*
X03046650D02*
X03049189D01*
X03047920D01*
Y02277489D01*
X03046650Y02276219D01*
X03036494Y02300351D02*
Y02307968D01*
X03032685Y02304160D01*
X03037763D01*
X03040302Y02300351D02*
Y02301621D01*
X03041572D01*
Y02300351D01*
X03040302D01*
X03046650D02*
X03049189D01*
X03047920D01*
Y02307968D01*
X03046650Y02306699D01*
X03032685Y02337179D02*
X03033954Y02338448D01*
X03036494D01*
X03037763Y02337179D01*
Y02335909D01*
X03036494Y02334640D01*
X03035224D01*
X03036494D01*
X03037763Y02333370D01*
Y02332101D01*
X03036494Y02330831D01*
X03033954D01*
X03032685Y02332101D01*
X03040302Y02330831D02*
Y02332101D01*
X03041572D01*
Y02330831D01*
X03040302D01*
X03051729Y02338448D02*
X03046650D01*
Y02334640D01*
X03049189Y02335909D01*
X03050459D01*
X03051729Y02334640D01*
Y02332101D01*
X03050459Y02330831D01*
X03047920D01*
X03046650Y02332101D01*
X03107597Y02368929D02*
Y02361311D01*
X03111406D01*
X03112675Y02362581D01*
Y02363850D01*
X03111406Y02365120D01*
X03107597D01*
X03111406D01*
X03112675Y02366389D01*
Y02367659D01*
X03111406Y02368929D01*
X03107597D01*
X03116484Y02361311D02*
X03119023D01*
X03120293Y02362581D01*
Y02365120D01*
X03119023Y02366389D01*
X03116484D01*
X03115215Y02365120D01*
Y02362581D01*
X03116484Y02361311D01*
X03124102Y02366389D02*
X03126641D01*
X03127910Y02365120D01*
Y02361311D01*
X03124102D01*
X03122832Y02362581D01*
X03124102Y02363850D01*
X03127910D01*
X03130450Y02366389D02*
Y02361311D01*
Y02363850D01*
X03131719Y02365120D01*
X03132989Y02366389D01*
X03134258D01*
X03143146Y02368929D02*
Y02361311D01*
X03139337D01*
X03138067Y02362581D01*
Y02365120D01*
X03139337Y02366389D01*
X03143146D01*
X03153302Y02368929D02*
Y02361311D01*
X03158381D01*
X03162190Y02366389D02*
X03164729D01*
X03165998Y02365120D01*
Y02361311D01*
X03162190D01*
X03160920Y02362581D01*
X03162190Y02363850D01*
X03165998D01*
X03168537Y02366389D02*
Y02362581D01*
X03169807Y02361311D01*
X03173616D01*
Y02360041D01*
X03172346Y02358772D01*
X03171077D01*
X03173616Y02361311D02*
Y02366389D01*
X03179964Y02361311D02*
X03177425D01*
X03176155Y02362581D01*
Y02365120D01*
X03177425Y02366389D01*
X03179964D01*
X03181233Y02365120D01*
Y02363850D01*
X03176155D01*
X03183773Y02366389D02*
Y02361311D01*
Y02363850D01*
X03185042Y02365120D01*
X03186312Y02366389D01*
X03187581D01*
X03204086Y02367659D02*
X03202816Y02368929D01*
X03200277D01*
X03199008Y02367659D01*
Y02366389D01*
X03200277Y02365120D01*
X03202816D01*
X03204086Y02363850D01*
Y02362581D01*
X03202816Y02361311D01*
X03200277D01*
X03199008Y02362581D01*
X03207895Y02367659D02*
Y02366389D01*
X03206625D01*
X03209164D01*
X03207895D01*
Y02362581D01*
X03209164Y02361311D01*
X03214243Y02366389D02*
X03216782D01*
X03218051Y02365120D01*
Y02361311D01*
X03214243D01*
X03212973Y02362581D01*
X03214243Y02363850D01*
X03218051D01*
X03225669Y02366389D02*
X03221860D01*
X03220591Y02365120D01*
Y02362581D01*
X03221860Y02361311D01*
X03225669D01*
X03228208D02*
Y02368929D01*
Y02363850D02*
X03232017Y02366389D01*
X03228208Y02363850D02*
X03232017Y02361311D01*
X01420876Y00100076D02*
Y00151596D01*
X01118870Y00101727D02*
X01778508D01*
Y00256667D01*
X00727710Y00101727D02*
Y00256667D01*
X00101600Y00101727D02*
Y00256667D01*
X00101727Y00101727D02*
X00501904D01*
X00101727D02*
Y00256667D01*
Y00256667D02*
X01778508D01*
X00101600Y00101727D02*
X01118870D01*
X00101600Y00153374D02*
X01778000D01*
X00101600Y00205020D02*
X01778508D01*
X01049528D02*
Y00256667D01*
X01262888Y00205020D02*
Y00256667D01*
G54D114*
X02649239Y02357501D02*
X03242177D01*
X02649239Y02372741D02*
X03242177D01*
X02649239Y02128901D02*
Y02372741D01*
Y02128901D02*
X02703838D01*
X02649239Y02144141D02*
X02703838D01*
X02649239Y02159381D02*
X02703838D01*
X02649239Y02174621D02*
X02703838D01*
X02649239Y02189861D02*
X02703838D01*
X02649239Y02205101D02*
X02703838D01*
X02649239Y02220341D02*
X02703838D01*
X02649239Y02235581D02*
X02703838D01*
X02649239Y02250821D02*
X02703838D01*
X02649239Y02266061D02*
X02703838D01*
X02649239Y02281301D02*
X02703838D01*
X02649239Y02296541D02*
X02703838D01*
X02649239Y02311781D02*
X02703838D01*
X02649239Y02327021D02*
X02703838D01*
X02649239Y02342261D02*
X02703838D01*
Y02128901D02*
Y02372741D01*
Y02128901D02*
X02825725D01*
X02703838Y02144141D02*
X02825725D01*
X02703838Y02159381D02*
X02825725D01*
X02703838Y02174621D02*
X02825725D01*
X02703838Y02189861D02*
X02825725D01*
X02703838Y02205101D02*
X02825725D01*
X02703838Y02220341D02*
X02825725D01*
X02703838Y02235581D02*
X02825725D01*
X02703838Y02250821D02*
X02825725D01*
X02703838Y02266061D02*
X02825725D01*
X02703838Y02281301D02*
X02825725D01*
X02703838Y02296541D02*
X02825725D01*
X02703838Y02311781D02*
X02825725D01*
X02703838Y02327021D02*
X02825725D01*
X02703838Y02342261D02*
X02825725D01*
Y02128901D02*
Y02372741D01*
Y02128901D02*
X02937456D01*
X02825725Y02144141D02*
X02937456D01*
X02825725Y02159381D02*
X02937456D01*
X02825725Y02174621D02*
X02937456D01*
X02825725Y02189861D02*
X02937456D01*
X02825725Y02205101D02*
X02937456D01*
X02825725Y02220341D02*
X02937456D01*
X02825725Y02235581D02*
X02937456D01*
X02825725Y02250821D02*
X02937456D01*
X02825725Y02266061D02*
X02937456D01*
X02825725Y02281301D02*
X02937456D01*
X02825725Y02296541D02*
X02937456D01*
X02825725Y02311781D02*
X02937456D01*
X02825725Y02327021D02*
X02937456D01*
X02825725Y02342261D02*
X02937456D01*
Y02128901D02*
Y02372741D01*
Y02128901D02*
X03022525D01*
X02937456Y02144141D02*
X03022525D01*
X02937456Y02159381D02*
X03022525D01*
X02937456Y02174621D02*
X03022525D01*
X02937456Y02189861D02*
X03022525D01*
X02937456Y02205101D02*
X03022525D01*
X02937456Y02220341D02*
X03022525D01*
X02937456Y02235581D02*
X03022525D01*
X02937456Y02250821D02*
X03022525D01*
X02937456Y02266061D02*
X03022525D01*
X02937456Y02281301D02*
X03022525D01*
X02937456Y02296541D02*
X03022525D01*
X02937456Y02311781D02*
X03022525D01*
X02937456Y02327021D02*
X03022525D01*
X02937456Y02342261D02*
X03022525D01*
Y02128901D02*
Y02372741D01*
Y02128901D02*
X03097437D01*
X03022525Y02144141D02*
X03097437D01*
X03022525Y02159381D02*
X03097437D01*
X03022525Y02174621D02*
X03097437D01*
X03022525Y02189861D02*
X03097437D01*
X03022525Y02205101D02*
X03097437D01*
X03022525Y02220341D02*
X03097437D01*
X03022525Y02235581D02*
X03097437D01*
X03022525Y02250821D02*
X03097437D01*
X03022525Y02266061D02*
X03097437D01*
X03022525Y02281301D02*
X03097437D01*
X03022525Y02296541D02*
X03097437D01*
X03022525Y02311781D02*
X03097437D01*
X03022525Y02327021D02*
X03097437D01*
X03022525Y02342261D02*
X03097437D01*
Y02128901D02*
Y02372741D01*
Y02128901D02*
X03242177D01*
X03097437Y02144141D02*
X03242177D01*
X03097437Y02159381D02*
X03242177D01*
X03097437Y02174621D02*
X03242177D01*
X03097437Y02189861D02*
X03242177D01*
X03097437Y02205101D02*
X03242177D01*
X03097437Y02220341D02*
X03242177D01*
X03097437Y02235581D02*
X03242177D01*
X03097437Y02250821D02*
X03242177D01*
X03097437Y02266061D02*
X03242177D01*
X03097437Y02281301D02*
X03242177D01*
X03097437Y02296541D02*
X03242177D01*
X03097437Y02311781D02*
X03242177D01*
X03097437Y02327021D02*
X03242177D01*
X03097437Y02342261D02*
X03242177D01*
Y02128901D02*
Y02372741D01*
G54D127*
X03234557Y02128901D02*
X03242177Y02136521D01*
X03226937Y02128901D02*
X03242177Y02144141D01*
X03219317Y02128901D02*
X03234557Y02144141D01*
X03211697Y02128901D02*
X03226937Y02144141D01*
X03204077Y02128901D02*
X03219317Y02144141D01*
X03196457Y02128901D02*
X03211697Y02144141D01*
X03188837Y02128901D02*
X03204077Y02144141D01*
X03181217Y02128901D02*
X03196457Y02144141D01*
X03173597Y02128901D02*
X03188837Y02144141D01*
X03165977Y02128901D02*
X03181217Y02144141D01*
X03158357Y02128901D02*
X03173597Y02144141D01*
X03150737Y02128901D02*
X03165977Y02144141D01*
X03143117Y02128901D02*
X03158357Y02144141D01*
X03135497Y02128901D02*
X03150737Y02144141D01*
X03127877Y02128901D02*
X03143117Y02144141D01*
X03120257Y02128901D02*
X03135497Y02144141D01*
X03112637Y02128901D02*
X03127877Y02144141D01*
X03105017Y02128901D02*
X03120257Y02144141D01*
X03097437Y02128941D02*
X03112637Y02144141D01*
X03097437Y02136561D02*
X03105017Y02144141D01*
X03234557D02*
X03242177Y02151761D01*
X03226937Y02144141D02*
X03242177Y02159381D01*
X03219317Y02144141D02*
X03234557Y02159381D01*
X03211697Y02144141D02*
X03226937Y02159381D01*
X03204077Y02144141D02*
X03219317Y02159381D01*
X03196457Y02144141D02*
X03211697Y02159381D01*
X03188837Y02144141D02*
X03204077Y02159381D01*
X03181217Y02144141D02*
X03196457Y02159381D01*
X03173597Y02144141D02*
X03188837Y02159381D01*
X03165977Y02144141D02*
X03181217Y02159381D01*
X03158357Y02144141D02*
X03173597Y02159381D01*
X03150737Y02144141D02*
X03165977Y02159381D01*
X03143117Y02144141D02*
X03158357Y02159381D01*
X03135497Y02144141D02*
X03150737Y02159381D01*
X03127877Y02144141D02*
X03143117Y02159381D01*
X03120257Y02144141D02*
X03135497Y02159381D01*
X03112637Y02144141D02*
X03127877Y02159381D01*
X03105017Y02144141D02*
X03120257Y02159381D01*
X03097437Y02144181D02*
X03112637Y02159381D01*
X03097437Y02151801D02*
X03105017Y02159381D01*
X03234557D02*
X03242177Y02167001D01*
X03226937Y02159381D02*
X03242177Y02174621D01*
X03219317Y02159381D02*
X03234557Y02174621D01*
X03211697Y02159381D02*
X03226937Y02174621D01*
X03204077Y02159381D02*
X03219317Y02174621D01*
X03196457Y02159381D02*
X03211697Y02174621D01*
X03188837Y02159381D02*
X03204077Y02174621D01*
X03181217Y02159381D02*
X03196457Y02174621D01*
X03173597Y02159381D02*
X03188837Y02174621D01*
X03165977Y02159381D02*
X03181217Y02174621D01*
X03158357Y02159381D02*
X03173597Y02174621D01*
X03150737Y02159381D02*
X03165977Y02174621D01*
X03143117Y02159381D02*
X03158357Y02174621D01*
X03135497Y02159381D02*
X03150737Y02174621D01*
X03127877Y02159381D02*
X03143117Y02174621D01*
X03120257Y02159381D02*
X03135497Y02174621D01*
X03112637Y02159381D02*
X03127877Y02174621D01*
X03105017Y02159381D02*
X03120257Y02174621D01*
X03097437Y02159421D02*
X03112637Y02174621D01*
X03097437Y02167041D02*
X03105017Y02174621D01*
X03234557D02*
X03242177Y02182241D01*
X03226937Y02174621D02*
X03242177Y02189861D01*
X03219317Y02174621D02*
X03234557Y02189861D01*
X03211697Y02174621D02*
X03226937Y02189861D01*
X03204077Y02174621D02*
X03219317Y02189861D01*
X03196457Y02174621D02*
X03211697Y02189861D01*
X03188837Y02174621D02*
X03204077Y02189861D01*
X03181217Y02174621D02*
X03196457Y02189861D01*
X03173597Y02174621D02*
X03188837Y02189861D01*
X03165977Y02174621D02*
X03181217Y02189861D01*
X03158357Y02174621D02*
X03173597Y02189861D01*
X03150737Y02174621D02*
X03165977Y02189861D01*
X03143117Y02174621D02*
X03158357Y02189861D01*
X03135497Y02174621D02*
X03150737Y02189861D01*
X03127877Y02174621D02*
X03143117Y02189861D01*
X03120257Y02174621D02*
X03135497Y02189861D01*
X03112637Y02174621D02*
X03127877Y02189861D01*
X03105017Y02174621D02*
X03120257Y02189861D01*
X03097437Y02174661D02*
X03112637Y02189861D01*
X03097437Y02182281D02*
X03105017Y02189861D01*
X03234557D02*
X03242177Y02197481D01*
X03226937Y02189861D02*
X03242177Y02205101D01*
X03219317Y02189861D02*
X03234557Y02205101D01*
X03211697Y02189861D02*
X03226937Y02205101D01*
X03204077Y02189861D02*
X03219317Y02205101D01*
X03196457Y02189861D02*
X03211697Y02205101D01*
X03188837Y02189861D02*
X03204077Y02205101D01*
X03181217Y02189861D02*
X03196457Y02205101D01*
X03173597Y02189861D02*
X03188837Y02205101D01*
X03165977Y02189861D02*
X03181217Y02205101D01*
X03158357Y02189861D02*
X03173597Y02205101D01*
X03150737Y02189861D02*
X03165977Y02205101D01*
X03143117Y02189861D02*
X03158357Y02205101D01*
X03135497Y02189861D02*
X03150737Y02205101D01*
X03127877Y02189861D02*
X03143117Y02205101D01*
X03120257Y02189861D02*
X03135497Y02205101D01*
X03112637Y02189861D02*
X03127877Y02205101D01*
X03105017Y02189861D02*
X03120257Y02205101D01*
X03097437Y02189901D02*
X03112637Y02205101D01*
X03097437Y02197521D02*
X03105017Y02205101D01*
X03234557D02*
X03242177Y02212721D01*
X03226937Y02205101D02*
X03242177Y02220341D01*
X03219317Y02205101D02*
X03234557Y02220341D01*
X03211697Y02205101D02*
X03226937Y02220341D01*
X03204077Y02205101D02*
X03219317Y02220341D01*
X03196457Y02205101D02*
X03211697Y02220341D01*
X03188837Y02205101D02*
X03204077Y02220341D01*
X03181217Y02205101D02*
X03196457Y02220341D01*
X03173597Y02205101D02*
X03188837Y02220341D01*
X03165977Y02205101D02*
X03181217Y02220341D01*
X03158357Y02205101D02*
X03173597Y02220341D01*
X03150737Y02205101D02*
X03165977Y02220341D01*
X03143117Y02205101D02*
X03158357Y02220341D01*
X03135497Y02205101D02*
X03150737Y02220341D01*
X03127877Y02205101D02*
X03143117Y02220341D01*
X03120257Y02205101D02*
X03135497Y02220341D01*
X03112637Y02205101D02*
X03127877Y02220341D01*
X03105017Y02205101D02*
X03120257Y02220341D01*
X03097437Y02205141D02*
X03112637Y02220341D01*
X03097437Y02212761D02*
X03105017Y02220341D01*
X03234557D02*
X03242177Y02227961D01*
X03226937Y02220341D02*
X03242177Y02235581D01*
X03219317Y02220341D02*
X03234557Y02235581D01*
X03211697Y02220341D02*
X03226937Y02235581D01*
X03204077Y02220341D02*
X03219317Y02235581D01*
X03196457Y02220341D02*
X03211697Y02235581D01*
X03188837Y02220341D02*
X03204077Y02235581D01*
X03181217Y02220341D02*
X03196457Y02235581D01*
X03173597Y02220341D02*
X03188837Y02235581D01*
X03165977Y02220341D02*
X03181217Y02235581D01*
X03158357Y02220341D02*
X03173597Y02235581D01*
X03150737Y02220341D02*
X03165977Y02235581D01*
X03143117Y02220341D02*
X03158357Y02235581D01*
X03135497Y02220341D02*
X03150737Y02235581D01*
X03127877Y02220341D02*
X03143117Y02235581D01*
X03120257Y02220341D02*
X03135497Y02235581D01*
X03112637Y02220341D02*
X03127877Y02235581D01*
X03105017Y02220341D02*
X03120257Y02235581D01*
X03097437Y02220381D02*
X03112637Y02235581D01*
X03097437Y02228001D02*
X03105017Y02235581D01*
X03234557D02*
X03242177Y02243201D01*
X03226937Y02235581D02*
X03242177Y02250821D01*
X03219317Y02235581D02*
X03234557Y02250821D01*
X03211697Y02235581D02*
X03226937Y02250821D01*
X03204077Y02235581D02*
X03219317Y02250821D01*
X03196457Y02235581D02*
X03211697Y02250821D01*
X03188837Y02235581D02*
X03204077Y02250821D01*
X03181217Y02235581D02*
X03196457Y02250821D01*
X03173597Y02235581D02*
X03188837Y02250821D01*
X03165977Y02235581D02*
X03181217Y02250821D01*
X03158357Y02235581D02*
X03173597Y02250821D01*
X03150737Y02235581D02*
X03165977Y02250821D01*
X03143117Y02235581D02*
X03158357Y02250821D01*
X03135497Y02235581D02*
X03150737Y02250821D01*
X03127877Y02235581D02*
X03143117Y02250821D01*
X03120257Y02235581D02*
X03135497Y02250821D01*
X03112637Y02235581D02*
X03127877Y02250821D01*
X03105017Y02235581D02*
X03120257Y02250821D01*
X03097437Y02235621D02*
X03112637Y02250821D01*
X03097437Y02243241D02*
X03105017Y02250821D01*
X03234557D02*
X03242177Y02258441D01*
X03226937Y02250821D02*
X03242177Y02266061D01*
X03219317Y02250821D02*
X03234557Y02266061D01*
X03211697Y02250821D02*
X03226937Y02266061D01*
X03204077Y02250821D02*
X03219317Y02266061D01*
X03196457Y02250821D02*
X03211697Y02266061D01*
X03188837Y02250821D02*
X03204077Y02266061D01*
X03181217Y02250821D02*
X03196457Y02266061D01*
X03173597Y02250821D02*
X03188837Y02266061D01*
X03165977Y02250821D02*
X03181217Y02266061D01*
X03158357Y02250821D02*
X03173597Y02266061D01*
X03150737Y02250821D02*
X03165977Y02266061D01*
X03143117Y02250821D02*
X03158357Y02266061D01*
X03135497Y02250821D02*
X03150737Y02266061D01*
X03127877Y02250821D02*
X03143117Y02266061D01*
X03120257Y02250821D02*
X03135497Y02266061D01*
X03112637Y02250821D02*
X03127877Y02266061D01*
X03105017Y02250821D02*
X03120257Y02266061D01*
X03097437Y02250861D02*
X03112637Y02266061D01*
X03097437Y02258481D02*
X03105017Y02266061D01*
X03234557D02*
X03242177Y02273681D01*
X03226937Y02266061D02*
X03242177Y02281301D01*
X03219317Y02266061D02*
X03234557Y02281301D01*
X03211697Y02266061D02*
X03226937Y02281301D01*
X03204077Y02266061D02*
X03219317Y02281301D01*
X03196457Y02266061D02*
X03211697Y02281301D01*
X03188837Y02266061D02*
X03204077Y02281301D01*
X03181217Y02266061D02*
X03196457Y02281301D01*
X03173597Y02266061D02*
X03188837Y02281301D01*
X03165977Y02266061D02*
X03181217Y02281301D01*
X03158357Y02266061D02*
X03173597Y02281301D01*
X03150737Y02266061D02*
X03165977Y02281301D01*
X03143117Y02266061D02*
X03158357Y02281301D01*
X03135497Y02266061D02*
X03150737Y02281301D01*
X03127877Y02266061D02*
X03143117Y02281301D01*
X03120257Y02266061D02*
X03135497Y02281301D01*
X03112637Y02266061D02*
X03127877Y02281301D01*
X03105017Y02266061D02*
X03120257Y02281301D01*
X03097437Y02266101D02*
X03112637Y02281301D01*
X03097437Y02273721D02*
X03105017Y02281301D01*
X03234557D02*
X03242177Y02288921D01*
X03226937Y02281301D02*
X03242177Y02296541D01*
X03219317Y02281301D02*
X03234557Y02296541D01*
X03211697Y02281301D02*
X03226937Y02296541D01*
X03204077Y02281301D02*
X03219317Y02296541D01*
X03196457Y02281301D02*
X03211697Y02296541D01*
X03188837Y02281301D02*
X03204077Y02296541D01*
X03181217Y02281301D02*
X03196457Y02296541D01*
X03173597Y02281301D02*
X03188837Y02296541D01*
X03165977Y02281301D02*
X03181217Y02296541D01*
X03158357Y02281301D02*
X03173597Y02296541D01*
X03150737Y02281301D02*
X03165977Y02296541D01*
X03143117Y02281301D02*
X03158357Y02296541D01*
X03135497Y02281301D02*
X03150737Y02296541D01*
X03127877Y02281301D02*
X03143117Y02296541D01*
X03120257Y02281301D02*
X03135497Y02296541D01*
X03112637Y02281301D02*
X03127877Y02296541D01*
X03105017Y02281301D02*
X03120257Y02296541D01*
X03097437Y02281341D02*
X03112637Y02296541D01*
X03097437Y02288961D02*
X03105017Y02296541D01*
X03234557D02*
X03242177Y02304161D01*
X03226937Y02296541D02*
X03242177Y02311781D01*
X03219317Y02296541D02*
X03234557Y02311781D01*
X03211697Y02296541D02*
X03226937Y02311781D01*
X03204077Y02296541D02*
X03219317Y02311781D01*
X03196457Y02296541D02*
X03211697Y02311781D01*
X03188837Y02296541D02*
X03204077Y02311781D01*
X03181217Y02296541D02*
X03196457Y02311781D01*
X03173597Y02296541D02*
X03188837Y02311781D01*
X03165977Y02296541D02*
X03181217Y02311781D01*
X03158357Y02296541D02*
X03173597Y02311781D01*
X03150737Y02296541D02*
X03165977Y02311781D01*
X03143117Y02296541D02*
X03158357Y02311781D01*
X03135497Y02296541D02*
X03150737Y02311781D01*
X03127877Y02296541D02*
X03143117Y02311781D01*
X03120257Y02296541D02*
X03135497Y02311781D01*
X03112637Y02296541D02*
X03127877Y02311781D01*
X03105017Y02296541D02*
X03120257Y02311781D01*
X03097437Y02296581D02*
X03112637Y02311781D01*
X03097437Y02304201D02*
X03105017Y02311781D01*
X03234557D02*
X03242177Y02319401D01*
X03226937Y02311781D02*
X03242177Y02327021D01*
X03219317Y02311781D02*
X03234557Y02327021D01*
X03211697Y02311781D02*
X03226937Y02327021D01*
X03204077Y02311781D02*
X03219317Y02327021D01*
X03196457Y02311781D02*
X03211697Y02327021D01*
X03188837Y02311781D02*
X03204077Y02327021D01*
X03181217Y02311781D02*
X03196457Y02327021D01*
X03173597Y02311781D02*
X03188837Y02327021D01*
X03165977Y02311781D02*
X03181217Y02327021D01*
X03158357Y02311781D02*
X03173597Y02327021D01*
X03150737Y02311781D02*
X03165977Y02327021D01*
X03143117Y02311781D02*
X03158357Y02327021D01*
X03135497Y02311781D02*
X03150737Y02327021D01*
X03127877Y02311781D02*
X03143117Y02327021D01*
X03120257Y02311781D02*
X03135497Y02327021D01*
X03112637Y02311781D02*
X03127877Y02327021D01*
X03105017Y02311781D02*
X03120257Y02327021D01*
X03097437Y02311821D02*
X03112637Y02327021D01*
X03097437Y02319441D02*
X03105017Y02327021D01*
X03234557D02*
X03242177Y02334641D01*
X03226937Y02327021D02*
X03242177Y02342261D01*
X03219317Y02327021D02*
X03234557Y02342261D01*
X03211697Y02327021D02*
X03226937Y02342261D01*
X03204077Y02327021D02*
X03219317Y02342261D01*
X03196457Y02327021D02*
X03211697Y02342261D01*
X03188837Y02327021D02*
X03204077Y02342261D01*
X03181217Y02327021D02*
X03196457Y02342261D01*
X03173597Y02327021D02*
X03188837Y02342261D01*
X03165977Y02327021D02*
X03181217Y02342261D01*
X03158357Y02327021D02*
X03173597Y02342261D01*
X03150737Y02327021D02*
X03165977Y02342261D01*
X03143117Y02327021D02*
X03158357Y02342261D01*
X03135497Y02327021D02*
X03150737Y02342261D01*
X03127877Y02327021D02*
X03143117Y02342261D01*
X03120257Y02327021D02*
X03135497Y02342261D01*
X03112637Y02327021D02*
X03127877Y02342261D01*
X03105017Y02327021D02*
X03120257Y02342261D01*
X03097437Y02327061D02*
X03112637Y02342261D01*
X03097437Y02334681D02*
X03105017Y02342261D01*
X03234557D02*
X03242177Y02349881D01*
X03226937Y02342261D02*
X03242177Y02357501D01*
X03219317Y02342261D02*
X03234557Y02357501D01*
X03211697Y02342261D02*
X03226937Y02357501D01*
X03204077Y02342261D02*
X03219317Y02357501D01*
X03196457Y02342261D02*
X03211697Y02357501D01*
X03188837Y02342261D02*
X03204077Y02357501D01*
X03181217Y02342261D02*
X03196457Y02357501D01*
X03173597Y02342261D02*
X03188837Y02357501D01*
X03165977Y02342261D02*
X03181217Y02357501D01*
X03158357Y02342261D02*
X03173597Y02357501D01*
X03150737Y02342261D02*
X03165977Y02357501D01*
X03143117Y02342261D02*
X03158357Y02357501D01*
X03135497Y02342261D02*
X03150737Y02357501D01*
X03127877Y02342261D02*
X03143117Y02357501D01*
X03120257Y02342261D02*
X03135497Y02357501D01*
X03112637Y02342261D02*
X03127877Y02357501D01*
X03105017Y02342261D02*
X03120257Y02357501D01*
X03097437Y02342301D02*
X03112637Y02357501D01*
X03097437Y02349921D02*
X03105017Y02357501D01*
M02*
