G04*
G04 #@! TF.GenerationSoftware,Altium Limited,Altium Designer,23.6.0 (18)*
G04*
G04 Layer_Color=128*
%FSAX44Y44*%
%MOMM*%
G71*
G04*
G04 #@! TF.SameCoordinates,B6B15AAD-09C2-4985-A1E0-6DBEE0027C76*
G04*
G04*
G04 #@! TF.FilePolarity,Positive*
G04*
G01*
G75*
%ADD15C,0.2032*%
%ADD16C,0.2540*%
%ADD129C,0.0508*%
G54D15*
X00885317Y00171450D02*
Y00179067D01*
X00890395Y00171450D01*
Y00179067D01*
X00892934Y00171450D02*
X00898013Y00176528D01*
X00900552Y00171450D02*
Y00176528D01*
X00903091Y00179067D01*
X00905630Y00176528D01*
Y00171450D01*
Y00175259D01*
X00900552D01*
X00746760Y00179067D02*
X00751838D01*
X00749299D01*
Y00171450D01*
X00754378Y00179067D02*
X00756917D01*
X00755647D01*
Y00171450D01*
X00754378D01*
X00756917D01*
X00760725Y00179067D02*
Y00171450D01*
X00764534D01*
X00765804Y00172720D01*
Y00177798D01*
X00764534Y00179067D01*
X00760725D01*
X00777230Y00171450D02*
Y00179067D01*
X00779769D02*
Y00171450D01*
X00775961Y00176528D02*
X00779769D01*
X00781039D01*
X00775961Y00173989D02*
X00781039D01*
X00783578Y00176528D02*
X00784848D01*
Y00175259D01*
X00783578D01*
Y00176528D01*
Y00172720D02*
X00784848D01*
Y00171450D01*
X00783578D01*
Y00172720D01*
X01474470Y00126912D02*
X01479548D01*
X01477009D01*
Y00119295D01*
X01487166Y00126912D02*
X01482088D01*
Y00119295D01*
X01487166D01*
X01482088Y00123104D02*
X01484627D01*
X01489705Y00126912D02*
X01494783Y00119295D01*
Y00126912D02*
X01489705Y00119295D01*
X01497323D02*
Y00124373D01*
X01499862Y00126912D01*
X01502401Y00124373D01*
Y00119295D01*
Y00123104D01*
X01497323D01*
X01510018Y00125643D02*
X01508749Y00126912D01*
X01506210D01*
X01504940Y00125643D01*
Y00124373D01*
X01506210Y00123104D01*
X01508749D01*
X01510018Y00121834D01*
Y00120564D01*
X01508749Y00119295D01*
X01506210D01*
X01504940Y00120564D01*
X01520175Y00126912D02*
X01522714D01*
X01521445D01*
Y00119295D01*
X01520175D01*
X01522714D01*
X01526523D02*
Y00126912D01*
X01531602Y00119295D01*
Y00126912D01*
X01539219Y00125643D02*
X01537950Y00126912D01*
X01535410D01*
X01534141Y00125643D01*
Y00124373D01*
X01535410Y00123104D01*
X01537950D01*
X01539219Y00121834D01*
Y00120564D01*
X01537950Y00119295D01*
X01535410D01*
X01534141Y00120564D01*
X01541758Y00126912D02*
X01546837D01*
X01544297D01*
Y00119295D01*
X01549376D02*
Y00126912D01*
X01553185D01*
X01554454Y00125643D01*
Y00123104D01*
X01553185Y00121834D01*
X01549376D01*
X01551915D02*
X01554454Y00119295D01*
X01556993Y00126912D02*
Y00120564D01*
X01558263Y00119295D01*
X01560802D01*
X01562072Y00120564D01*
Y00126912D01*
X01564611Y00119295D02*
Y00126912D01*
X01567150Y00124373D01*
X01569689Y00126912D01*
Y00119295D01*
X01577307Y00126912D02*
X01572228D01*
Y00119295D01*
X01577307D01*
X01572228Y00123104D02*
X01574768D01*
X01579846Y00119295D02*
Y00126912D01*
X01584924Y00119295D01*
Y00126912D01*
X01587463D02*
X01592542D01*
X01590003D01*
Y00119295D01*
X01600159Y00125643D02*
X01598890Y00126912D01*
X01596351D01*
X01595081Y00125643D01*
Y00124373D01*
X01596351Y00123104D01*
X01598890D01*
X01600159Y00121834D01*
Y00120564D01*
X01598890Y00119295D01*
X01596351D01*
X01595081Y00120564D01*
X01153287Y00125643D02*
X01154557Y00126912D01*
X01157096D01*
X01158365Y00125643D01*
Y00124373D01*
X01157096Y00123104D01*
X01158365Y00121834D01*
Y00120564D01*
X01157096Y00119295D01*
X01154557D01*
X01153287Y00120564D01*
Y00121834D01*
X01154557Y00123104D01*
X01153287Y00124373D01*
Y00125643D01*
X01154557Y00123104D02*
X01157096D01*
X01160904Y00124373D02*
X01162174D01*
Y00123104D01*
X01160904D01*
Y00124373D01*
Y00120564D02*
X01162174D01*
Y00119295D01*
X01160904D01*
Y00120564D01*
X01172331Y00126912D02*
X01167253D01*
Y00123104D01*
X01169792Y00124373D01*
X01171061D01*
X01172331Y00123104D01*
Y00120564D01*
X01171061Y00119295D01*
X01168522D01*
X01167253Y00120564D01*
X01174870Y00126912D02*
X01179948D01*
Y00125643D01*
X01174870Y00120564D01*
Y00119295D01*
X01182488Y00124373D02*
X01183757D01*
Y00123104D01*
X01182488D01*
Y00124373D01*
Y00120564D02*
X01183757D01*
Y00119295D01*
X01182488D01*
Y00120564D01*
X01188836Y00119295D02*
X01191375D01*
X01190105D01*
Y00126912D01*
X01188836Y00125643D01*
X01200262Y00126912D02*
X01197723Y00125643D01*
X01195183Y00123104D01*
Y00120564D01*
X01196453Y00119295D01*
X01198992D01*
X01200262Y00120564D01*
Y00121834D01*
X01198992Y00123104D01*
X01195183D01*
X01210418Y00119295D02*
Y00124373D01*
X01212958Y00126912D01*
X01215497Y00124373D01*
Y00119295D01*
Y00123104D01*
X01210418D01*
X01218036Y00119295D02*
Y00126912D01*
X01220575Y00124373D01*
X01223114Y00126912D01*
Y00119295D01*
X00117729D02*
Y00126912D01*
X00121538D01*
X00122807Y00125643D01*
Y00123104D01*
X00121538Y00121834D01*
X00117729D01*
X00125346Y00126912D02*
Y00119295D01*
X00130425D01*
X00136773Y00126912D02*
X00134234D01*
X00132964Y00125643D01*
Y00120564D01*
X00134234Y00119295D01*
X00136773D01*
X00138042Y00120564D01*
Y00125643D01*
X00136773Y00126912D01*
X00140582D02*
X00145660D01*
X00143121D01*
Y00119295D01*
X00155817D02*
Y00126912D01*
X00160895Y00119295D01*
Y00126912D01*
X00163434Y00119295D02*
Y00124373D01*
X00165973Y00126912D01*
X00168513Y00124373D01*
Y00119295D01*
Y00123104D01*
X00163434D01*
X00171052Y00119295D02*
Y00126912D01*
X00173591Y00124373D01*
X00176130Y00126912D01*
Y00119295D01*
X00183748Y00126912D02*
X00178669D01*
Y00119295D01*
X00183748D01*
X00178669Y00123104D02*
X00181208D01*
X00193904Y00121834D02*
X00198983D01*
X00193904Y00124373D02*
X00198983D01*
X00117729Y00179196D02*
Y00171579D01*
X00122807D01*
X00125346D02*
Y00176657D01*
X00127886Y00179196D01*
X00130425Y00176657D01*
Y00171579D01*
Y00175387D01*
X00125346D01*
X00132964Y00179196D02*
Y00177927D01*
X00135503Y00175387D01*
X00138042Y00177927D01*
Y00179196D01*
X00135503Y00175387D02*
Y00171579D01*
X00145660Y00179196D02*
X00140582D01*
Y00171579D01*
X00145660D01*
X00140582Y00175387D02*
X00143121D01*
X00148199Y00171579D02*
Y00179196D01*
X00152008D01*
X00153278Y00177927D01*
Y00175387D01*
X00152008Y00174118D01*
X00148199D01*
X00150738D02*
X00153278Y00171579D01*
X00163434D02*
Y00179196D01*
X00168513Y00171579D01*
Y00179196D01*
X00171052Y00171579D02*
Y00176657D01*
X00173591Y00179196D01*
X00176130Y00176657D01*
Y00171579D01*
Y00175387D01*
X00171052D01*
X00178669Y00171579D02*
Y00179196D01*
X00181208Y00176657D01*
X00183748Y00179196D01*
Y00171579D01*
X00191365Y00179196D02*
X00186287D01*
Y00171579D01*
X00191365D01*
X00186287Y00175387D02*
X00188826D01*
X00201522Y00174118D02*
X00206600D01*
X00201522Y00176657D02*
X00206600D01*
X00746760Y00230714D02*
Y00223097D01*
X00750569D01*
X00751838Y00224366D01*
Y00225636D01*
X00750569Y00226905D01*
X00746760D01*
X00750569D01*
X00751838Y00228175D01*
Y00229445D01*
X00750569Y00230714D01*
X00746760D01*
X00758186D02*
X00755647D01*
X00754378Y00229445D01*
Y00224366D01*
X00755647Y00223097D01*
X00758186D01*
X00759456Y00224366D01*
Y00229445D01*
X00758186Y00230714D01*
X00761995Y00223097D02*
Y00228175D01*
X00764534Y00230714D01*
X00767073Y00228175D01*
Y00223097D01*
Y00226905D01*
X00761995D01*
X00769613Y00223097D02*
Y00230714D01*
X00773421D01*
X00774691Y00229445D01*
Y00226905D01*
X00773421Y00225636D01*
X00769613D01*
X00772152D02*
X00774691Y00223097D01*
X00777230Y00230714D02*
Y00223097D01*
X00781039D01*
X00782309Y00224366D01*
Y00229445D01*
X00781039Y00230714D01*
X00777230D01*
X00793735Y00223097D02*
Y00230714D01*
X00796274D02*
Y00223097D01*
X00792465Y00228175D02*
X00796274D01*
X00797544D01*
X00792465Y00225636D02*
X00797544D01*
X00800083Y00228175D02*
X00801352D01*
Y00226905D01*
X00800083D01*
Y00228175D01*
Y00224366D02*
X00801352D01*
Y00223097D01*
X00800083D01*
Y00224366D01*
X00885317Y00223097D02*
Y00230714D01*
X00889126D01*
X00890395Y00229445D01*
Y00226905D01*
X00889126Y00225636D01*
X00885317D01*
X00892934Y00223097D02*
Y00230714D01*
X00895474Y00228175D01*
X00898013Y00230714D01*
Y00223097D01*
X00900552D02*
Y00230714D01*
X00904361D01*
X00905630Y00229445D01*
Y00226905D01*
X00904361Y00225636D01*
X00900552D01*
X00908170Y00229445D02*
X00909439Y00230714D01*
X00911978D01*
X00913248Y00229445D01*
Y00228175D01*
X00911978Y00226905D01*
X00910709D01*
X00911978D01*
X00913248Y00225636D01*
Y00224366D01*
X00911978Y00223097D01*
X00909439D01*
X00908170Y00224366D01*
X00915787Y00223097D02*
X00918326D01*
X00917057D01*
Y00230714D01*
X00915787Y00229445D01*
X00927213Y00223097D02*
X00922135D01*
X00927213Y00228175D01*
Y00229445D01*
X00925944Y00230714D01*
X00923405D01*
X00922135Y00229445D01*
X00929753D02*
X00931022Y00230714D01*
X00933561D01*
X00934831Y00229445D01*
Y00228175D01*
X00933561Y00226905D01*
X00932292D01*
X00933561D01*
X00934831Y00225636D01*
Y00224366D01*
X00933561Y00223097D01*
X00931022D01*
X00929753Y00224366D01*
X00942449Y00230714D02*
X00939909Y00229445D01*
X00937370Y00226905D01*
Y00224366D01*
X00938640Y00223097D01*
X00941179D01*
X00942449Y00224366D01*
Y00225636D01*
X00941179Y00226905D01*
X00937370D01*
X01173861Y00223097D02*
Y00224366D01*
X01175131D01*
Y00223097D01*
X01173861D01*
X01180209D02*
Y00230714D01*
X01184018D01*
X01185287Y00229445D01*
Y00226905D01*
X01184018Y00225636D01*
X01180209D01*
X01192905Y00229445D02*
X01191635Y00230714D01*
X01189096D01*
X01187827Y00229445D01*
Y00224366D01*
X01189096Y00223097D01*
X01191635D01*
X01192905Y00224366D01*
X01195444Y00230714D02*
Y00223097D01*
X01199253D01*
X01200522Y00224366D01*
Y00225636D01*
X01199253Y00226905D01*
X01195444D01*
X01199253D01*
X01200522Y00228175D01*
Y00229445D01*
X01199253Y00230714D01*
X01195444D01*
X01203062Y00221827D02*
X01208140D01*
X01210679Y00223097D02*
Y00230714D01*
X01214488D01*
X01215757Y00229445D01*
Y00226905D01*
X01214488Y00225636D01*
X01210679D01*
X01213218D02*
X01215757Y00223097D01*
X01222105D02*
X01219566D01*
X01218297Y00224366D01*
Y00226905D01*
X01219566Y00228175D01*
X01222105D01*
X01223375Y00226905D01*
Y00225636D01*
X01218297D01*
X01225914Y00228175D02*
X01228453Y00223097D01*
X01230993Y00228175D01*
X00117729Y00223097D02*
Y00228175D01*
X00120268Y00230714D01*
X00122807Y00228175D01*
Y00223097D01*
Y00226905D01*
X00117729D01*
X00125346Y00230714D02*
Y00223097D01*
X00130425D01*
X00132964Y00230714D02*
Y00223097D01*
X00138042D01*
X00148199D02*
Y00228175D01*
X00150738Y00230714D01*
X00153278Y00228175D01*
Y00223097D01*
Y00226905D01*
X00148199D01*
X00155817Y00223097D02*
Y00230714D01*
X00159626D01*
X00160895Y00229445D01*
Y00226905D01*
X00159626Y00225636D01*
X00155817D01*
X00158356D02*
X00160895Y00223097D01*
X00163434Y00230714D02*
X00168513D01*
X00165973D01*
Y00223097D01*
X00171052Y00230714D02*
Y00223097D01*
X00173591Y00225636D01*
X00176130Y00223097D01*
Y00230714D01*
X00182478D02*
X00179939D01*
X00178669Y00229445D01*
Y00224366D01*
X00179939Y00223097D01*
X00182478D01*
X00183748Y00224366D01*
Y00229445D01*
X00182478Y00230714D01*
X00186287Y00223097D02*
Y00230714D01*
X00190096D01*
X00191365Y00229445D01*
Y00226905D01*
X00190096Y00225636D01*
X00186287D01*
X00188826D02*
X00191365Y00223097D01*
X00193904Y00230714D02*
Y00223097D01*
Y00225636D01*
X00198983Y00230714D01*
X00195174Y00226905D01*
X00198983Y00223097D01*
X00209139Y00230714D02*
Y00225636D01*
X00211679Y00223097D01*
X00214218Y00225636D01*
Y00230714D01*
X00216757D02*
X00219296D01*
X00218027D01*
Y00223097D01*
X00216757D01*
X00219296D01*
X00228183Y00230714D02*
X00223105D01*
Y00223097D01*
X00228183D01*
X00223105Y00226905D02*
X00225644D01*
X00230722Y00230714D02*
Y00223097D01*
X00233262Y00225636D01*
X00235801Y00223097D01*
Y00230714D01*
X00243418D02*
X00238340D01*
Y00223097D01*
X00243418D01*
X00238340Y00226905D02*
X00240879D01*
X00245958Y00230714D02*
Y00223097D01*
X00249766D01*
X00251036Y00224366D01*
Y00229445D01*
X00249766Y00230714D01*
X00245958D01*
X00266271D02*
X00261193D01*
Y00226905D01*
X00263732D01*
X00261193D01*
Y00223097D01*
X00268810D02*
Y00230714D01*
X00272619D01*
X00273888Y00229445D01*
Y00226905D01*
X00272619Y00225636D01*
X00268810D01*
X00271349D02*
X00273888Y00223097D01*
X00280236Y00230714D02*
X00277697D01*
X00276428Y00229445D01*
Y00224366D01*
X00277697Y00223097D01*
X00280236D01*
X00281506Y00224366D01*
Y00229445D01*
X00280236Y00230714D01*
X00284045Y00223097D02*
Y00230714D01*
X00286584Y00228175D01*
X00289124Y00230714D01*
Y00223097D01*
X00299280Y00230714D02*
X00304359D01*
X00301819D01*
Y00223097D01*
X00310707Y00230714D02*
X00308167D01*
X00306898Y00229445D01*
Y00224366D01*
X00308167Y00223097D01*
X00310707D01*
X00311976Y00224366D01*
Y00229445D01*
X00310707Y00230714D01*
X00314515Y00223097D02*
Y00230714D01*
X00318324D01*
X00319594Y00229445D01*
Y00226905D01*
X00318324Y00225636D01*
X00314515D01*
X00334829Y00229445D02*
X00333559Y00230714D01*
X00331020D01*
X00329750Y00229445D01*
Y00228175D01*
X00331020Y00226905D01*
X00333559D01*
X00334829Y00225636D01*
Y00224366D01*
X00333559Y00223097D01*
X00331020D01*
X00329750Y00224366D01*
X00337368Y00230714D02*
X00339907D01*
X00338638D01*
Y00223097D01*
X00337368D01*
X00339907D01*
X00343716Y00230714D02*
Y00223097D01*
X00347525D01*
X00348794Y00224366D01*
Y00229445D01*
X00347525Y00230714D01*
X00343716D01*
X00356412D02*
X00351333D01*
Y00223097D01*
X00356412D01*
X00351333Y00226905D02*
X00353873D01*
X00752346Y00125643D02*
X00751077Y00126912D01*
X00748538D01*
X00747268Y00125643D01*
Y00120564D01*
X00748538Y00119295D01*
X00751077D01*
X00752346Y00120564D01*
Y00123104D01*
X00749807D01*
X00759964Y00126912D02*
X00754885D01*
Y00119295D01*
X00759964D01*
X00754885Y00123104D02*
X00757425D01*
X00762503Y00119295D02*
Y00126912D01*
X00767581Y00119295D01*
Y00126912D01*
X00775199D02*
X00770121D01*
Y00119295D01*
X00775199D01*
X00770121Y00123104D02*
X00772660D01*
X00777738Y00119295D02*
Y00126912D01*
X00781547D01*
X00782816Y00125643D01*
Y00123104D01*
X00781547Y00121834D01*
X00777738D01*
X00780277D02*
X00782816Y00119295D01*
X00785356D02*
Y00124373D01*
X00787895Y00126912D01*
X00790434Y00124373D01*
Y00119295D01*
Y00123104D01*
X00785356D01*
X00792973Y00126912D02*
X00798052D01*
X00795512D01*
Y00119295D01*
X00805669Y00126912D02*
X00800591D01*
Y00119295D01*
X00805669D01*
X00800591Y00123104D02*
X00803130D01*
X00808208Y00126912D02*
Y00119295D01*
X00812017D01*
X00813287Y00120564D01*
Y00125643D01*
X00812017Y00126912D01*
X00808208D01*
X00846296Y00124373D02*
X00847566D01*
Y00123104D01*
X00846296D01*
Y00124373D01*
Y00120564D02*
X00847566D01*
Y00119295D01*
X00846296D01*
Y00120564D01*
X00968121Y00126912D02*
X00973199D01*
Y00125643D01*
X00968121Y00120564D01*
Y00119295D01*
X00975739D02*
X00980817Y00124373D01*
X00988434Y00119295D02*
X00983356D01*
X00988434Y00124373D01*
Y00125643D01*
X00987165Y00126912D01*
X00984626D01*
X00983356Y00125643D01*
X00990974Y00119295D02*
X00993513D01*
X00992243D01*
Y00126912D01*
X00990974Y00125643D01*
X00997322Y00119295D02*
X01002400Y00124373D01*
X01010017Y00119295D02*
X01004939D01*
X01010017Y00124373D01*
Y00125643D01*
X01008748Y00126912D01*
X01006209D01*
X01004939Y00125643D01*
X01012557D02*
X01013826Y00126912D01*
X01016365D01*
X01017635Y00125643D01*
Y00120564D01*
X01016365Y00119295D01*
X01013826D01*
X01012557Y00120564D01*
Y00125643D01*
X01025253Y00119295D02*
X01020174D01*
X01025253Y00124373D01*
Y00125643D01*
X01023983Y00126912D01*
X01021444D01*
X01020174Y00125643D01*
X01027792D02*
X01029061Y00126912D01*
X01031600D01*
X01032870Y00125643D01*
Y00124373D01*
X01031600Y00123104D01*
X01030331D01*
X01031600D01*
X01032870Y00121834D01*
Y00120564D01*
X01031600Y00119295D01*
X01029061D01*
X01027792Y00120564D01*
X00322326Y00119295D02*
Y00126912D01*
X00326135D01*
X00327404Y00125643D01*
Y00123104D01*
X00326135Y00121834D01*
X00322326D01*
X00329944Y00119295D02*
Y00126912D01*
X00332483Y00124373D01*
X00335022Y00126912D01*
Y00119295D01*
X00337561D02*
Y00126912D01*
X00341370D01*
X00342639Y00125643D01*
Y00123104D01*
X00341370Y00121834D01*
X00337561D01*
X00345179Y00125643D02*
X00346448Y00126912D01*
X00348987D01*
X00350257Y00125643D01*
Y00124373D01*
X00348987Y00123104D01*
X00347718D01*
X00348987D01*
X00350257Y00121834D01*
Y00120564D01*
X00348987Y00119295D01*
X00346448D01*
X00345179Y00120564D01*
X00352796Y00119295D02*
X00355335D01*
X00354066D01*
Y00126912D01*
X00352796Y00125643D01*
X00364222Y00119295D02*
X00359144D01*
X00364222Y00124373D01*
Y00125643D01*
X00362953Y00126912D01*
X00360414D01*
X00359144Y00125643D01*
X00366762D02*
X00368031Y00126912D01*
X00370570D01*
X00371840Y00125643D01*
Y00124373D01*
X00370570Y00123104D01*
X00369301D01*
X00370570D01*
X00371840Y00121834D01*
Y00120564D01*
X00370570Y00119295D01*
X00368031D01*
X00366762Y00120564D01*
X00379458Y00126912D02*
X00376918Y00125643D01*
X00374379Y00123104D01*
Y00120564D01*
X00375649Y00119295D01*
X00378188D01*
X00379458Y00120564D01*
Y00121834D01*
X00378188Y00123104D01*
X00374379D01*
X00381997Y00119295D02*
Y00126912D01*
X00385806D01*
X00387075Y00125643D01*
Y00123104D01*
X00385806Y00121834D01*
X00381997D01*
X00394693Y00125643D02*
X00393423Y00126912D01*
X00390884D01*
X00389614Y00125643D01*
Y00120564D01*
X00390884Y00119295D01*
X00393423D01*
X00394693Y00120564D01*
X00397232Y00126912D02*
Y00119295D01*
X00401040D01*
X00402310Y00120564D01*
Y00121834D01*
X00401040Y00123104D01*
X00397232D01*
X00401040D01*
X00402310Y00124373D01*
Y00125643D01*
X00401040Y00126912D01*
X00397232D01*
X00404849Y00118025D02*
X00409928D01*
X00412467Y00119295D02*
Y00126912D01*
X00416276D01*
X00417545Y00125643D01*
Y00123104D01*
X00416276Y00121834D01*
X00412467D01*
X00415006D02*
X00417545Y00119295D01*
X00423893D02*
X00421354D01*
X00420084Y00120564D01*
Y00123104D01*
X00421354Y00124373D01*
X00423893D01*
X00425163Y00123104D01*
Y00121834D01*
X00420084D01*
X00427702Y00124373D02*
X00430241Y00119295D01*
X00432780Y00124373D01*
X00435319Y00119295D02*
Y00120564D01*
X00436589D01*
Y00119295D01*
X00435319D01*
X00446746Y00125643D02*
X00445476Y00126912D01*
X00442937D01*
X00441667Y00125643D01*
Y00120564D01*
X00442937Y00119295D01*
X00445476D01*
X00446746Y00120564D01*
Y00123104D01*
X00444207D01*
X00454363Y00125643D02*
X00453094Y00126912D01*
X00450555D01*
X00449285Y00125643D01*
Y00120564D01*
X00450555Y00119295D01*
X00453094D01*
X00454363Y00120564D01*
Y00123104D01*
X00451824D01*
X00456903Y00119295D02*
X00459442D01*
X00458172D01*
Y00126912D01*
X00456903Y00125643D01*
X01099820Y00223097D02*
Y00230714D01*
X01103629D01*
X01104898Y00229445D01*
Y00226905D01*
X01103629Y00225636D01*
X01099820D01*
X01102359D02*
X01104898Y00223097D01*
X01112516Y00230714D02*
X01107438D01*
Y00223097D01*
X01112516D01*
X01107438Y00226905D02*
X01109977D01*
X01115055Y00230714D02*
Y00225636D01*
X01117594Y00223097D01*
X01120133Y00225636D01*
Y00230714D01*
X01122673Y00228175D02*
X01123942D01*
Y00226905D01*
X01122673D01*
Y00228175D01*
Y00224366D02*
X01123942D01*
Y00223097D01*
X01122673D01*
Y00224366D01*
X01317750Y00229445D02*
X01316481Y00230714D01*
X01313942D01*
X01312672Y00229445D01*
Y00228175D01*
X01313942Y00226905D01*
X01316481D01*
X01317750Y00225636D01*
Y00224366D01*
X01316481Y00223097D01*
X01313942D01*
X01312672Y00224366D01*
X01320289Y00230714D02*
Y00225636D01*
X01322829Y00223097D01*
X01325368Y00225636D01*
Y00230714D01*
X01327907Y00223097D02*
Y00230714D01*
X01332985Y00223097D01*
Y00230714D01*
X01343142Y00223097D02*
Y00230714D01*
X01346951D01*
X01348221Y00229445D01*
Y00226905D01*
X01346951Y00225636D01*
X01343142D01*
X01345681D02*
X01348221Y00223097D01*
X01355838Y00230714D02*
X01350760D01*
Y00223097D01*
X01355838D01*
X01350760Y00226905D02*
X01353299D01*
X01358377Y00230714D02*
Y00225636D01*
X01360916Y00223097D01*
X01363456Y00225636D01*
Y00230714D01*
X01365995Y00228175D02*
X01367264D01*
Y00226905D01*
X01365995D01*
Y00228175D01*
Y00224366D02*
X01367264D01*
Y00223097D01*
X01365995D01*
Y00224366D01*
X01441196Y00223097D02*
Y00230714D01*
X01446274Y00223097D01*
Y00230714D01*
X01450083Y00223097D02*
X01452622D01*
X01453892Y00224366D01*
Y00226905D01*
X01452622Y00228175D01*
X01450083D01*
X01448813Y00226905D01*
Y00224366D01*
X01450083Y00223097D01*
X01457701Y00229445D02*
Y00228175D01*
X01456431D01*
X01458970D01*
X01457701D01*
Y00224366D01*
X01458970Y00223097D01*
X01470397D02*
X01472936D01*
X01471666D01*
Y00228175D01*
X01470397D01*
X01476745Y00223097D02*
Y00228175D01*
X01480553D01*
X01481823Y00226905D01*
Y00223097D01*
X01491980Y00228175D02*
X01494519Y00223097D01*
X01497058Y00228175D01*
X01503406Y00223097D02*
X01500867D01*
X01499597Y00224366D01*
Y00226905D01*
X01500867Y00228175D01*
X01503406D01*
X01504675Y00226905D01*
Y00225636D01*
X01499597D01*
X01507215Y00228175D02*
Y00223097D01*
Y00225636D01*
X01508484Y00226905D01*
X01509754Y00228175D01*
X01511023D01*
X01514832Y00223097D02*
X01518641D01*
X01519910Y00224366D01*
X01518641Y00225636D01*
X01516102D01*
X01514832Y00226905D01*
X01516102Y00228175D01*
X01519910D01*
X01522450Y00223097D02*
X01524989D01*
X01523719D01*
Y00228175D01*
X01522450D01*
X01530067Y00223097D02*
X01532606D01*
X01533876Y00224366D01*
Y00226905D01*
X01532606Y00228175D01*
X01530067D01*
X01528798Y00226905D01*
Y00224366D01*
X01530067Y00223097D01*
X01536415D02*
Y00228175D01*
X01540224D01*
X01541494Y00226905D01*
Y00223097D01*
X01556729Y00228175D02*
X01552920D01*
X01551650Y00226905D01*
Y00224366D01*
X01552920Y00223097D01*
X01556729D01*
X01560537D02*
X01563077D01*
X01564346Y00224366D01*
Y00226905D01*
X01563077Y00228175D01*
X01560537D01*
X01559268Y00226905D01*
Y00224366D01*
X01560537Y00223097D01*
X01566885D02*
Y00228175D01*
X01570694D01*
X01571964Y00226905D01*
Y00223097D01*
X01575773Y00229445D02*
Y00228175D01*
X01574503D01*
X01577042D01*
X01575773D01*
Y00224366D01*
X01577042Y00223097D01*
X01580851Y00228175D02*
Y00223097D01*
Y00225636D01*
X01582120Y00226905D01*
X01583390Y00228175D01*
X01584660D01*
X01589738Y00223097D02*
X01592277D01*
X01593547Y00224366D01*
Y00226905D01*
X01592277Y00228175D01*
X01589738D01*
X01588468Y00226905D01*
Y00224366D01*
X01589738Y00223097D01*
X01596086D02*
X01598625D01*
X01597355D01*
Y00230714D01*
X01596086D01*
X00322326Y00179196D02*
Y00171579D01*
X00326135D01*
X00327404Y00172848D01*
Y00177927D01*
X00326135Y00179196D01*
X00322326D01*
X00329944Y00176657D02*
Y00171579D01*
Y00174118D01*
X00331213Y00175387D01*
X00332483Y00176657D01*
X00333752D01*
X00337561Y00171579D02*
X00340100D01*
X00338831D01*
Y00176657D01*
X00337561D01*
X00343909Y00171579D02*
X00346448D01*
X00345179D01*
Y00179196D01*
X00343909D01*
X00350257Y00171579D02*
X00352796D01*
X00351527D01*
Y00179196D01*
X00350257D01*
X00369301Y00177927D02*
X00368031Y00179196D01*
X00365492D01*
X00364222Y00177927D01*
Y00172848D01*
X00365492Y00171579D01*
X00368031D01*
X00369301Y00172848D01*
Y00175387D01*
X00366762D01*
X00371840Y00176657D02*
Y00172848D01*
X00373110Y00171579D01*
X00376918D01*
Y00176657D01*
X00379458Y00171579D02*
X00381997D01*
X00380727D01*
Y00176657D01*
X00379458D01*
X00390884Y00179196D02*
Y00171579D01*
X00387075D01*
X00385806Y00172848D01*
Y00175387D01*
X00387075Y00176657D01*
X00390884D01*
X00397232Y00171579D02*
X00394693D01*
X00393423Y00172848D01*
Y00175387D01*
X00394693Y00176657D01*
X00397232D01*
X00398501Y00175387D01*
Y00174118D01*
X00393423D01*
G54D16*
X01420876Y00100076D02*
Y00151596D01*
X01118870Y00101727D02*
X01778508D01*
Y00256667D01*
X00727710Y00101727D02*
Y00256667D01*
X00101600Y00101727D02*
Y00256667D01*
X00101727Y00101727D02*
X00501904D01*
X00101727D02*
Y00256667D01*
Y00256667D02*
X01778508D01*
X00101600Y00101727D02*
X01118870D01*
X00101600Y00153374D02*
X01778000D01*
X00101600Y00205020D02*
X01778508D01*
X01049528D02*
Y00256667D01*
X01262888Y00205020D02*
Y00256667D01*
G54D129*
X00812038Y01132586D02*
X00822198D01*
X00817118Y01127506D02*
Y01137666D01*
X00354196Y01343686D02*
X00363340D01*
X00358768Y01339114D02*
Y01348258D01*
X01649696Y00938686D02*
X01658840D01*
X01654268Y00934114D02*
Y00943258D01*
X01179696Y00938686D02*
X01188840D01*
X01184268Y00934114D02*
Y00943258D01*
X00709696Y01013686D02*
X00718840D01*
X00714268Y01009114D02*
Y01018258D01*
X01026696Y01343686D02*
X01035840D01*
X01031268Y01339114D02*
Y01348258D01*
X00414196Y00860686D02*
X00423340D01*
X00418768Y00856114D02*
Y00865258D01*
X01294196Y01343686D02*
X01303340D01*
X01298768Y01339114D02*
Y01348258D01*
X01313696Y00860686D02*
X01322840D01*
X01318268Y00856114D02*
Y00865258D01*
X00709696Y00938686D02*
X00718840D01*
X00714268Y00934114D02*
Y00943258D01*
X01179696Y01013686D02*
X01188840D01*
X01184268Y01009114D02*
Y01018258D01*
X00986196Y01343686D02*
X00995340D01*
X00990768Y01339114D02*
Y01348258D01*
X00373696Y00860686D02*
X00382840D01*
X00378268Y00856114D02*
Y00865258D01*
X00884196Y00860686D02*
X00893340D01*
X00888768Y00856114D02*
Y00865258D01*
X00695696Y00833686D02*
X00704840D01*
X00700268Y00829114D02*
Y00838258D01*
X01635696Y00833686D02*
X01644840D01*
X01640268Y00829114D02*
Y00838258D01*
X01456196Y01343686D02*
X01465340D01*
X01460768Y01339114D02*
Y01348258D01*
X01649696Y01013686D02*
X01658840D01*
X01654268Y01009114D02*
Y01018258D01*
X00556696Y01343686D02*
X00565840D01*
X00561268Y01339114D02*
Y01348258D01*
X00843696Y00860686D02*
X00852840D01*
X00848268Y00856114D02*
Y00865258D01*
X00824196Y01343686D02*
X00833340D01*
X00828768Y01339114D02*
Y01348258D01*
X01496696Y01343686D02*
X01505840D01*
X01501268Y01339114D02*
Y01348258D01*
X01354196Y00860686D02*
X01363340D01*
X01358768Y00856114D02*
Y00865258D01*
X00516196Y01343686D02*
X00525340D01*
X00520768Y01339114D02*
Y01348258D01*
X01165696Y00833686D02*
X01174840D01*
X01170268Y00829114D02*
Y00838258D01*
X00538988Y00552196D02*
X00549148D01*
X00544068Y00547116D02*
Y00557276D01*
X00607568Y01192647D02*
X00617728D01*
X00612648Y01187567D02*
Y01197727D01*
X00694968Y00833686D02*
X00705568D01*
X00700268Y00828386D02*
Y00838986D01*
X01164968Y00833686D02*
X01175568D01*
X01170268Y00828386D02*
Y00838986D01*
X01634968Y00833686D02*
X01645568D01*
X01640268Y00828386D02*
Y00838986D01*
X00372968Y00860686D02*
X00383568D01*
X00378268Y00855386D02*
Y00865986D01*
X00413468Y00860686D02*
X00424068D01*
X00418768Y00855386D02*
Y00865986D01*
X00842968Y00860686D02*
X00853568D01*
X00848268Y00855386D02*
Y00865986D01*
X00883468Y00860686D02*
X00894068D01*
X00888768Y00855386D02*
Y00865986D01*
X01312968Y00860686D02*
X01323568D01*
X01318268Y00855386D02*
Y00865986D01*
X01353468Y00860686D02*
X01364068D01*
X01358768Y00855386D02*
Y00865986D01*
X00708968Y00938686D02*
X00719568D01*
X00714268Y00933386D02*
Y00943986D01*
X01178968Y00938686D02*
X01189568D01*
X01184268Y00933386D02*
Y00943986D01*
X01648968Y00938686D02*
X01659568D01*
X01654268Y00933386D02*
Y00943986D01*
X00708968Y01013686D02*
X00719568D01*
X00714268Y01008386D02*
Y01018986D01*
X01178968Y01013686D02*
X01189568D01*
X01184268Y01008386D02*
Y01018986D01*
X01648968Y01013686D02*
X01659568D01*
X01654268Y01008386D02*
Y01018986D01*
X00353468Y01343686D02*
X00364068D01*
X00358768Y01338386D02*
Y01348986D01*
X00515468Y01343686D02*
X00526068D01*
X00520768Y01338386D02*
Y01348986D01*
X00555968Y01343686D02*
X00566568D01*
X00561268Y01338386D02*
Y01348986D01*
X00823468Y01343686D02*
X00834068D01*
X00828768Y01338386D02*
Y01348986D01*
X00985468Y01343686D02*
X00996068D01*
X00990768Y01338386D02*
Y01348986D01*
X01025968Y01343686D02*
X01036568D01*
X01031268Y01338386D02*
Y01348986D01*
X01293468Y01343686D02*
X01304068D01*
X01298768Y01338386D02*
Y01348986D01*
X01455468Y01343686D02*
X01466068D01*
X01460768Y01338386D02*
Y01348986D01*
X01495968Y01343686D02*
X01506568D01*
X01501268Y01338386D02*
Y01348986D01*
X00258268Y01532186D02*
X00303268D01*
X00280768Y01509686D02*
Y01554686D01*
X00258268Y00712186D02*
X00303268D01*
X00280768Y00689686D02*
Y00734686D01*
X00731568Y01532186D02*
X00776568D01*
X00754068Y01509686D02*
Y01554686D01*
X00731568Y00712186D02*
X00776568D01*
X00754068Y00689686D02*
Y00734686D01*
X01204968Y01532186D02*
X01249968D01*
X01227468Y01509686D02*
Y01554686D01*
X01204968Y00712186D02*
X01249968D01*
X01227468Y00689686D02*
Y00734686D01*
X01678268Y01532186D02*
X01723268D01*
X01700768Y01509686D02*
Y01554686D01*
X01678268Y00712186D02*
X01723268D01*
X01700768Y00689686D02*
Y00734686D01*
X00454268Y01532186D02*
X00507268D01*
X00480768Y01505686D02*
Y01558686D01*
X01329268Y00712186D02*
X01372268D01*
X01350768Y00690686D02*
Y00733686D01*
X00917448Y01297686D02*
X00927608D01*
X00922528Y01292606D02*
Y01302766D01*
X00795528Y01392936D02*
X00805688D01*
X00800608Y01387856D02*
Y01398016D01*
X00564585Y00960875D02*
X00574745D01*
X00569665Y00955795D02*
Y00965955D01*
X01591818Y00796036D02*
X01601978D01*
X01596898Y00790956D02*
Y00801116D01*
X00629158Y01243506D02*
X00639318D01*
X00634238Y01238426D02*
Y01248586D01*
X01562908Y01182116D02*
X01573068D01*
X01567988Y01177036D02*
Y01187196D01*
X01562908Y01124636D02*
X01573068D01*
X01567988Y01119556D02*
Y01129716D01*
X00989838Y00432816D02*
X00999998D01*
X00994918Y00427736D02*
Y00437896D01*
X00204978Y00923036D02*
X00215138D01*
X00210058Y00917956D02*
Y00928116D01*
X01434338Y01631696D02*
X01444498D01*
X01439418Y01626616D02*
Y01636776D01*
X01217168Y01600676D02*
X01227328D01*
X01222248Y01595596D02*
Y01605756D01*
X01670558Y01695196D02*
X01680718D01*
X01675638Y01690116D02*
Y01700276D01*
X00219328Y01674436D02*
X00235328D01*
X00227328Y01666436D02*
Y01682436D01*
X00454028Y01674436D02*
X00470028D01*
X00462028Y01666436D02*
Y01682436D01*
X00653288Y01706626D02*
X00663448D01*
X00658368Y01701546D02*
Y01711706D01*
X00597408Y01706626D02*
X00607568D01*
X00602488Y01701546D02*
Y01711706D01*
X00749788Y01707896D02*
X00759988D01*
X00754888Y01702796D02*
Y01712996D01*
X00775188Y01707896D02*
X00785388D01*
X00780288Y01702796D02*
Y01712996D01*
X00724388Y01707896D02*
X00734588D01*
X00729488Y01702796D02*
Y01712996D01*
X01217168Y01705356D02*
X01227328D01*
X01222248Y01700276D02*
Y01710436D01*
X01058447Y00789686D02*
X01068607D01*
X01063527Y00784606D02*
Y00794766D01*
X00277368Y00895096D02*
X00287528D01*
X00282448Y00890016D02*
Y00900176D01*
X00305308Y01588516D02*
X00315468D01*
X00310388Y01583436D02*
Y01593596D01*
X00546608Y00425196D02*
X00556768D01*
X00551688Y00420116D02*
Y00430276D01*
X00249428Y01588516D02*
X00259588D01*
X00254508Y01583436D02*
Y01593596D01*
X00359918Y01570736D02*
X00370078D01*
X00364998Y01565656D02*
Y01575816D01*
X01580688Y01283716D02*
X01590848D01*
X01585768Y01278636D02*
Y01288796D01*
X00526288Y00910336D02*
X00536448D01*
X00531368Y00905256D02*
Y00915416D01*
X01313188Y00954756D02*
X01323348D01*
X01318268Y00949676D02*
Y00959836D01*
X01133348Y01102106D02*
X01143508D01*
X01138428Y01097026D02*
Y01107186D01*
X00826008Y00973836D02*
X00836168D01*
X00831088Y00968756D02*
Y00978916D01*
X00822198Y01050776D02*
X00832358D01*
X00827278Y01045696D02*
Y01055856D01*
X00989838Y00537595D02*
X00999998D01*
X00994918Y00532515D02*
Y00542675D01*
X01636268Y01283716D02*
X01646428D01*
X01641348Y01278636D02*
Y01288796D01*
X01213358Y01366266D02*
X01223518D01*
X01218438Y01361186D02*
Y01371346D01*
X01363973Y01283716D02*
X01374133D01*
X01369053Y01278636D02*
Y01288796D01*
X01524808Y01283716D02*
X01534968D01*
X01529888Y01278636D02*
Y01288796D01*
X01746758Y00977646D02*
X01756918D01*
X01751838Y00972566D02*
Y00982726D01*
X01419098Y01283716D02*
X01429258D01*
X01424178Y01278636D02*
Y01288796D01*
X01133348Y01196066D02*
X01143508D01*
X01138428Y01190986D02*
Y01201146D01*
X01142238Y01286256D02*
X01152398D01*
X01147318Y01281176D02*
Y01291336D01*
X01048258Y01259586D02*
X01058418D01*
X01053338Y01254506D02*
Y01264666D01*
X01095248Y00953516D02*
X01105408D01*
X01100328Y00948436D02*
Y00958596D01*
X00961908Y01259586D02*
X00972068D01*
X00966988Y01254506D02*
Y01264666D01*
X00748988Y01283946D02*
X00759148D01*
X00754068Y01278866D02*
Y01289026D01*
X00687578Y01392936D02*
X00697738D01*
X00692658Y01387856D02*
Y01398016D01*
X00577088Y01417066D02*
X00587248D01*
X00582168Y01411986D02*
Y01422146D01*
X00512318Y01417066D02*
X00522478D01*
X00517398Y01411986D02*
Y01422146D01*
X01701038Y00938686D02*
X01711198D01*
X01706118Y00933606D02*
Y00943766D01*
X01702308Y00850646D02*
X01712468D01*
X01707388Y00845566D02*
Y00855726D01*
X01737868Y00896366D02*
X01748028D01*
X01742948Y00891286D02*
Y00901446D01*
X01701038Y01013686D02*
X01711198D01*
X01706118Y01008606D02*
Y01018766D01*
X01313188Y01009946D02*
X01323348D01*
X01318268Y01004866D02*
Y01015026D01*
X00991108Y00928116D02*
X01001268D01*
X00996188Y00923036D02*
Y00933196D01*
X00991108Y01005586D02*
X01001268D01*
X00996188Y01000506D02*
Y01010666D01*
X00937514Y01065508D02*
X00947674D01*
X00942594Y01060428D02*
Y01070588D01*
X00932688Y01005586D02*
X00942848D01*
X00937768Y01000506D02*
Y01010666D01*
X00359918Y01514856D02*
X00370078D01*
X00364998Y01509776D02*
Y01519936D01*
X00932688Y00928116D02*
X00942848D01*
X00937768Y00923036D02*
Y00933196D01*
X00603758Y00910336D02*
X00613918D01*
X00608838Y00905256D02*
Y00915416D01*
X00880938Y00973836D02*
X00891098D01*
X00886018Y00968756D02*
Y00978916D01*
X00652018Y00938276D02*
X00662178D01*
X00657098Y00933196D02*
Y00943356D01*
X00519938Y01600406D02*
X00530098D01*
X00525018Y01595326D02*
Y01605486D01*
X00501130Y00722226D02*
X00503130D01*
X00502130Y00721226D02*
Y00723226D01*
X00970858Y00653113D02*
X00972858D01*
X00971858Y00652113D02*
Y00654113D01*
X00970858Y00658583D02*
X00972858D01*
X00971858Y00657582D02*
Y00659583D01*
X00970858Y00646816D02*
X00972858D01*
X00971858Y00645816D02*
Y00647816D01*
X01456960Y00704596D02*
X01458960D01*
X01457960Y00703596D02*
Y00705596D01*
X01456960Y00712216D02*
X01458960D01*
X01457960Y00711216D02*
Y00713216D01*
X01492867Y00630866D02*
X01494867D01*
X01493867Y00629866D02*
Y00631866D01*
X01486788Y00630866D02*
X01488788D01*
X01487788Y00629866D02*
Y00631866D01*
X00891013Y00628326D02*
X00893013D01*
X00892013Y00627326D02*
Y00629326D01*
X00909013Y00628326D02*
X00911013D01*
X00910013Y00627326D02*
Y00629326D01*
X00897248Y00625856D02*
X00899248D01*
X00898248Y00624856D02*
Y00626856D01*
X00903288Y00625856D02*
X00905288D01*
X00904288Y00624856D02*
Y00626856D01*
X00449983Y00639916D02*
X00451983D01*
X00450983Y00638916D02*
Y00640916D01*
X00443983Y00639916D02*
X00445983D01*
X00444983Y00638916D02*
Y00640916D01*
X00455819Y00639916D02*
X00457819D01*
X00456819Y00638916D02*
Y00640916D01*
X00498949Y00769796D02*
X00500948D01*
X00499949Y00768796D02*
Y00770796D01*
X00431208Y01173298D02*
X00433208D01*
X00432208Y01172298D02*
Y01174298D01*
X00430384Y01166770D02*
X00432384D01*
X00431384Y01165770D02*
Y01167770D01*
X00468011Y01170622D02*
X00470011D01*
X00469011Y01169622D02*
Y01171622D01*
X01559738Y01478621D02*
X01562738D01*
X01561238Y01477121D02*
Y01480121D01*
X01543518Y01486106D02*
X01545518D01*
X01544518Y01485106D02*
Y01487106D01*
X01536274Y01507336D02*
X01538274D01*
X01537274Y01506336D02*
Y01508336D01*
X01488330Y01399286D02*
X01490330D01*
X01489330Y01398286D02*
Y01400286D01*
X00909948Y01507336D02*
X00911948D01*
X00910948Y01506335D02*
Y01508336D01*
X00915988Y01507336D02*
X00917988D01*
X00916988Y01506336D02*
Y01508336D01*
X00903988Y01507336D02*
X00905988D01*
X00904988Y01506336D02*
Y01508336D01*
X00842733Y01404961D02*
X00844733D01*
X00843733Y01403961D02*
Y01405961D01*
X01470668Y01149046D02*
X01472668D01*
X01471668Y01148046D02*
Y01150046D01*
X01445668Y01149046D02*
X01447668D01*
X01446668Y01148046D02*
Y01150046D01*
X01458168Y01156446D02*
X01460168D01*
X01459168Y01155446D02*
Y01157446D01*
X01458168Y01141646D02*
X01460168D01*
X01459168Y01140646D02*
Y01142646D01*
X00645613Y00487696D02*
X00647613D01*
X00646613Y00486696D02*
Y00488696D01*
X00645613Y00472896D02*
X00647613D01*
X00646613Y00471896D02*
Y00473896D01*
X00658113Y00480296D02*
X00660113D01*
X00659113Y00479296D02*
Y00481296D01*
X00633113Y00480296D02*
X00635113D01*
X00634113Y00479296D02*
Y00481296D01*
X01085398Y00469376D02*
X01087398D01*
X01086398Y00468376D02*
Y00470376D01*
X01110398Y00469376D02*
X01112398D01*
X01111398Y00468376D02*
Y00470376D01*
X01097898Y00461976D02*
X01099898D01*
X01098898Y00460976D02*
Y00462976D01*
X01097898Y00476776D02*
X01099898D01*
X01098898Y00475776D02*
Y00477776D01*
X00273828Y01001226D02*
X00275828D01*
X00274828Y01000226D02*
Y01002226D01*
X00273828Y00976226D02*
X00275828D01*
X00274828Y00975226D02*
Y00977226D01*
X00266428Y00988726D02*
X00268428D01*
X00267428Y00987726D02*
Y00989726D01*
X00281228Y00988726D02*
X00283228D01*
X00282228Y00987726D02*
Y00989726D01*
X01345578Y01668526D02*
X01347578D01*
X01346578Y01667526D02*
Y01669526D01*
X01320578Y01668526D02*
X01322578D01*
X01321578Y01667526D02*
Y01669526D01*
X01333078Y01675926D02*
X01335078D01*
X01334078Y01674926D02*
Y01676926D01*
X01333078Y01661126D02*
X01335078D01*
X01334078Y01660126D02*
Y01662126D01*
X01094048Y01668526D02*
X01096048D01*
X01095048Y01667526D02*
Y01669526D01*
X01069048Y01668526D02*
X01071048D01*
X01070048Y01667526D02*
Y01669526D01*
X01081548Y01675926D02*
X01083548D01*
X01082548Y01674926D02*
Y01676926D01*
X01081548Y01661126D02*
X01083548D01*
X01082548Y01660126D02*
Y01662126D01*
X00636978Y01559386D02*
X00638978D01*
X00637978Y01558386D02*
Y01560386D01*
X00636978Y01569386D02*
X00638978D01*
X00637978Y01568386D02*
Y01570386D01*
X00584908Y01559386D02*
X00586908D01*
X00585908Y01558386D02*
Y01560386D01*
X00584908Y01569386D02*
X00586908D01*
X00585908Y01568386D02*
Y01570386D01*
X01533668Y01438013D02*
X01535668D01*
X01534668Y01437013D02*
Y01439013D01*
X01539084Y01450659D02*
X01541084D01*
X01540085Y01449659D02*
Y01451659D01*
X01543901Y01456369D02*
X01545901D01*
X01544901Y01455370D02*
Y01457369D01*
X01453624Y00747776D02*
X01455624D01*
X01454624Y00746776D02*
Y00748776D01*
X01394121Y00654094D02*
X01396121D01*
X01395121Y00653094D02*
Y00655094D01*
X01394121Y00661469D02*
X01396121D01*
X01395121Y00660469D02*
Y00662469D01*
X01482570Y00681806D02*
X01484570D01*
X01483571Y00680806D02*
Y00682806D01*
X01491687Y00687906D02*
X01493687D01*
X01492687Y00686906D02*
Y00688906D01*
X01486985Y00684696D02*
X01488985D01*
X01487985Y00683696D02*
Y00685696D01*
X01508477Y01495806D02*
X01510477D01*
X01509476Y01494806D02*
Y01496806D01*
X01508477Y01501806D02*
X01510477D01*
X01509476Y01500806D02*
Y01502806D01*
X00862120Y01493840D02*
X00864120D01*
X00863120Y01492840D02*
Y01494840D01*
X00862120Y01500340D02*
X00864120D01*
X00863120Y01499340D02*
Y01501340D01*
X00897398Y01451267D02*
X00899398D01*
X00898398Y01450267D02*
Y01452267D01*
X00939988Y01460942D02*
X00941988D01*
X00940988Y01459942D02*
Y01461942D01*
X01578271Y01459630D02*
X01580271D01*
X01579271Y01458630D02*
Y01460630D01*
X01578118Y01438052D02*
X01580118D01*
X01579118Y01437052D02*
Y01439052D01*
X01616413Y01454989D02*
X01618413D01*
X01617413Y01453990D02*
Y01455990D01*
X01551215Y01460970D02*
X01553215D01*
X01552215Y01459970D02*
Y01461970D01*
X01548679Y01456145D02*
X01550679D01*
X01549679Y01455145D02*
Y01457145D01*
X01532793Y00639138D02*
X01534793D01*
X01533793Y00638138D02*
Y00640138D01*
X01532793Y00645769D02*
X01534793D01*
X01533793Y00644769D02*
Y00646769D01*
X00942013Y00635343D02*
X00944013D01*
X00943013Y00634343D02*
Y00636343D01*
X00942253Y00641736D02*
X00944253D01*
X00943253Y00640736D02*
Y00642736D01*
X00489199Y00646699D02*
X00491199D01*
X00490200Y00645698D02*
Y00647699D01*
X00489199Y00653251D02*
X00491199D01*
X00490199Y00652251D02*
Y00654251D01*
X00440761Y01128167D02*
X00442761D01*
X00441761Y01127167D02*
Y01129167D01*
X00447197Y01128167D02*
X00449197D01*
X00448197Y01127167D02*
Y01129167D01*
X00463737Y01172591D02*
X00465737D01*
X00464737Y01171591D02*
Y01173591D01*
X00432750Y00671094D02*
X00435750D01*
X00434250Y00669594D02*
Y00672594D01*
X00443983Y00685266D02*
X00445983D01*
X00444983Y00684267D02*
Y00686266D01*
X00443983Y00690066D02*
X00445983D01*
X00444983Y00689066D02*
Y00691066D01*
X00448326Y00690066D02*
X00450326D01*
X00449326Y00689066D02*
Y00691066D01*
X00897057Y00679520D02*
X00899057D01*
X00898057Y00678520D02*
Y00680520D01*
X00891959Y00679520D02*
X00893959D01*
X00892959Y00678520D02*
Y00680520D01*
X00844181Y00739389D02*
X00846181D01*
X00845181Y00738389D02*
Y00740389D01*
X00886215Y00657299D02*
X00889215D01*
X00887715Y00655799D02*
Y00658799D01*
X00897057Y00675184D02*
X00899057D01*
X00898057Y00674184D02*
Y00676184D01*
X00872778Y00661696D02*
X00875778D01*
X00874278Y00660196D02*
Y00663196D01*
X00842802Y00683218D02*
X00844802D01*
X00843802Y00682218D02*
Y00684218D01*
X00880975Y00653706D02*
X00883975D01*
X00882475Y00652206D02*
Y00655206D01*
X00843946Y00657151D02*
X00846946D01*
X00845446Y00655651D02*
Y00658651D01*
X00851540Y00654311D02*
X00854540D01*
X00853040Y00652811D02*
Y00655811D01*
X00859593Y00660516D02*
X00862593D01*
X00861093Y00659016D02*
Y00662016D01*
X00428268Y00666187D02*
X00431268D01*
X00429768Y00664687D02*
Y00667686D01*
X00448326Y00685266D02*
X00450326D01*
X00449326Y00684267D02*
Y00686266D01*
X00422118Y00672929D02*
X00425118D01*
X00423618Y00671429D02*
Y00674429D01*
X00405782Y00673306D02*
X00408782D01*
X00407281Y00671806D02*
Y00674806D01*
X00391370Y00672677D02*
X00394370D01*
X00392870Y00671177D02*
Y00674177D01*
X00498072Y01206929D02*
X00500072D01*
X00499072Y01205929D02*
Y01207929D01*
X00973248Y01459786D02*
X00975248D01*
X00974248Y01458786D02*
Y01460786D01*
X01475460Y00664974D02*
X01478460D01*
X01476960Y00663474D02*
Y00666474D01*
X01463282Y00666788D02*
X01466282D01*
X01464782Y00665288D02*
Y00668288D01*
X01434836Y00664327D02*
X01437836D01*
X01436336Y00662828D02*
Y00665827D01*
X01449368Y00666956D02*
X01452368D01*
X01450867Y00665456D02*
Y00668456D01*
X01456915Y00681856D02*
X01458915D01*
X01457915Y00680856D02*
Y00682856D01*
X01564918Y01481856D02*
X01567918D01*
X01566418Y01480356D02*
Y01483356D01*
X01573034Y01480439D02*
X01576034D01*
X01574534Y01478939D02*
Y01481939D01*
X01585082Y01480439D02*
X01588082D01*
X01586582Y01478939D02*
Y01481939D01*
X01549558Y01507336D02*
X01551558D01*
X01550558Y01506336D02*
Y01508336D01*
X01601723Y01477901D02*
X01604723D01*
X01603223Y01476402D02*
Y01479402D01*
X01585979Y01473629D02*
X01588978D01*
X01587478Y01472129D02*
Y01475129D01*
X01571315Y01474093D02*
X01574315D01*
X01572815Y01472593D02*
Y01475593D01*
X01578424Y01465826D02*
X01580424D01*
X01579424Y01464826D02*
Y01466826D01*
X01535943Y01447197D02*
X01537943D01*
X01536943Y01446197D02*
Y01448197D01*
X00458748Y01209315D02*
X00461748D01*
X00460248Y01207815D02*
Y01210815D01*
X00456018Y01224906D02*
X00459018D01*
X00457518Y01223406D02*
Y01226406D01*
X00946854Y01472096D02*
X00949854D01*
X00948354Y01470596D02*
Y01473596D01*
X00945687Y01479244D02*
X00948687D01*
X00947187Y01477744D02*
Y01480744D01*
X00955416Y01479244D02*
X00958416D01*
X00956916Y01477744D02*
Y01480744D01*
X00925270Y01480496D02*
X00928270D01*
X00926770Y01478996D02*
Y01481996D01*
X00919832Y01476872D02*
X00922832D01*
X00921332Y01475372D02*
Y01478372D01*
X00962518Y01478836D02*
X00965518D01*
X00964018Y01477336D02*
Y01480336D01*
X00932568Y01472434D02*
X00935567D01*
X00934068Y01470934D02*
Y01473934D01*
X00457060Y01189975D02*
X00460060D01*
X00458560Y01188475D02*
Y01191475D01*
X00458471Y01197341D02*
X00461471D01*
X00459971Y01195841D02*
Y01198841D01*
X00463237Y01188466D02*
X00466237D01*
X00464737Y01186966D02*
Y01189966D01*
X00465062Y01196748D02*
X00468062D01*
X00466562Y01195248D02*
Y01198248D01*
X00458368Y01217676D02*
X00461368D01*
X00459868Y01216176D02*
Y01219176D01*
X00465558Y01210036D02*
X00468558D01*
X00467058Y01208537D02*
Y01211536D01*
X01495600Y00773116D02*
X01497600D01*
X01496600Y00772116D02*
Y00774116D01*
X00924068Y00776143D02*
X00926068D01*
X00925068Y00775143D02*
Y00777143D01*
X00482223Y00727456D02*
X00484223D01*
X00483223Y00726456D02*
Y00728456D01*
X00397653Y00696574D02*
X00399653D01*
X00398653Y00695574D02*
Y00697574D01*
X00512159Y01221771D02*
X00514159D01*
X00513159Y01220771D02*
Y01222771D01*
X00374928Y01633686D02*
X00377928D01*
X00376428Y01632186D02*
Y01635186D01*
X00362342Y01633686D02*
X00365342D01*
X00363842Y01632186D02*
Y01635186D01*
X01002808Y01618520D02*
X01004808D01*
X01003808Y01617520D02*
Y01619520D01*
X01007580Y01629186D02*
X01009580D01*
X01008580Y01628186D02*
Y01630186D01*
X00542368Y01102826D02*
X00544368D01*
X00543368Y01101826D02*
Y01103826D01*
X00551597Y01120107D02*
X00553597D01*
X00552597Y01119107D02*
Y01121107D01*
X00618125Y01131235D02*
X00620125D01*
X00619125Y01130235D02*
Y01132235D01*
X00393026Y00514674D02*
X00395026D01*
X00394026Y00513674D02*
Y00515674D01*
X00822468Y00517366D02*
X00824468D01*
X00823468Y00516366D02*
Y00518366D01*
X00534671Y00709765D02*
X00536671D01*
X00535671Y00708765D02*
Y00710765D01*
X00500833Y00674986D02*
X00502833D01*
X00501833Y00673986D02*
Y00675986D01*
X00485918Y00664065D02*
X00487918D01*
X00486918Y00663065D02*
Y00665065D01*
X00562681Y00705683D02*
X00564681D01*
X00563681Y00704683D02*
Y00706683D01*
X01458531Y01488828D02*
X01460531D01*
X01459532Y01487828D02*
Y01489828D01*
X01464032Y01468259D02*
X01466031D01*
X01465031Y01467259D02*
Y01469259D01*
X01497980Y01486259D02*
X01499980D01*
X01498980Y01485259D02*
Y01487259D01*
X01501056Y01469375D02*
X01503056D01*
X01502056Y01468374D02*
Y01470374D01*
X01453624Y00740907D02*
X01455624D01*
X01454624Y00739907D02*
Y00741907D01*
X00937939Y00540456D02*
X00939939D01*
X00938939Y00539456D02*
Y00541456D01*
X00937939Y00547432D02*
X00939939D01*
X00938939Y00546432D02*
Y00548432D01*
X00833956Y00544576D02*
X00835956D01*
X00834956Y00543576D02*
Y00545576D01*
X00837862Y00540456D02*
X00839863D01*
X00838863Y00539456D02*
Y00541456D01*
X00837704Y00548620D02*
X00839704D01*
X00838704Y00547620D02*
Y00549620D01*
X00942262Y00543667D02*
X00944262D01*
X00943262Y00542667D02*
Y00544667D01*
X00485918Y00547116D02*
X00487918D01*
X00486918Y00546116D02*
Y00548116D01*
X00384298Y00547116D02*
X00386298D01*
X00385298Y00546116D02*
Y00548116D01*
X00384298Y00552793D02*
X00386298D01*
X00385298Y00551793D02*
Y00553793D01*
X00485918Y00552793D02*
X00487918D01*
X00486918Y00551793D02*
Y00553793D01*
X00485918Y00559131D02*
X00487918D01*
X00486918Y00558131D02*
Y00560131D01*
X00384298Y00559131D02*
X00386298D01*
X00385298Y00558131D02*
Y00560131D01*
X00811038Y00508986D02*
X00813038D01*
X00812038Y00507986D02*
Y00509986D01*
X00365495Y00803656D02*
X00367495D01*
X00366495Y00802656D02*
Y00804656D01*
X00357552Y00696812D02*
X00359552D01*
X00358552Y00695812D02*
Y00697812D01*
X01383808Y00502030D02*
X01385808D01*
X01384808Y00501030D02*
Y00503030D01*
X01425718Y00548753D02*
X01427718D01*
X01426718Y00547753D02*
Y00549753D01*
X00280358Y01224386D02*
X00282358D01*
X00281358Y01223386D02*
Y01225386D01*
X00363998Y01467866D02*
X00365998D01*
X00364998Y01466866D02*
Y01468866D01*
X00383048Y01489456D02*
X00385048D01*
X00384048Y01488456D02*
Y01490456D01*
X00372888Y01479296D02*
X00374888D01*
X00373888Y01478296D02*
Y01480296D01*
X00409718Y01467866D02*
X00411718D01*
X00410718Y01466866D02*
Y01468866D01*
X00409718Y01489456D02*
X00411718D01*
X00410718Y01488456D02*
Y01490456D01*
X00409718Y01479296D02*
X00411718D01*
X00410718Y01478296D02*
Y01480296D01*
X00605440Y01564386D02*
X00607440D01*
X00606440Y01563386D02*
Y01565386D01*
X00313198Y01263396D02*
X00315198D01*
X00314198Y01262396D02*
Y01264396D01*
X00304058Y01263396D02*
X00306058D01*
X00305058Y01262396D02*
Y01264396D01*
X00320818Y01257576D02*
X00322818D01*
X00321818Y01256576D02*
Y01258576D01*
X00267478Y00583356D02*
X00269478D01*
X00268478Y00582356D02*
Y00584356D01*
X00261128Y00583356D02*
X00263128D01*
X00262128Y00582356D02*
Y00584356D01*
X00252167Y00597898D02*
X00254167D01*
X00253167Y00596898D02*
Y00598899D01*
X00241815Y00597898D02*
X00243815D01*
X00242815Y00596898D02*
Y00598899D01*
X00359028Y00525087D02*
X00361028D01*
X00360028Y00524087D02*
Y00526087D01*
X00374832Y00495300D02*
X00376832D01*
X00375832Y00494300D02*
Y00496300D01*
X00359028Y00517696D02*
X00361028D01*
X00360028Y00516696D02*
Y00518696D01*
X00359028Y00509759D02*
X00361028D01*
X00360028Y00508759D02*
Y00510759D01*
X00340784Y00533177D02*
X00342784D01*
X00341783Y00532177D02*
Y00534177D01*
X00433315Y00453325D02*
X00435315D01*
X00434315Y00452325D02*
Y00454325D01*
X00280358Y01191116D02*
X00282358D01*
X00281358Y01190116D02*
Y01192116D01*
X00345498Y01132096D02*
X00347498D01*
X00346498Y01131096D02*
Y01133096D01*
X00339688Y01132096D02*
X00341688D01*
X00340688Y01131096D02*
Y01133096D01*
X00247468Y01046226D02*
X00249468D01*
X00248468Y01045226D02*
Y01047226D01*
X00247468Y01036066D02*
X00249468D01*
X00248468Y01035066D02*
Y01037066D01*
X00247468Y01056386D02*
X00249468D01*
X00248468Y01055386D02*
Y01057386D01*
X00248484Y01239266D02*
X00250484D01*
X00249484Y01238266D02*
Y01240266D01*
X00248484Y01215486D02*
X00250484D01*
X00249484Y01214486D02*
Y01216486D01*
X00248484Y01227596D02*
X00250484D01*
X00249484Y01226596D02*
Y01228596D01*
X00248484Y01203499D02*
X00250484D01*
X00249484Y01202499D02*
Y01204499D01*
X00248484Y01191576D02*
X00250484D01*
X00249484Y01190576D02*
Y01192576D01*
X00652368Y00438679D02*
X00654368D01*
X00653368Y00437679D02*
Y00439679D01*
X00640137Y00438679D02*
X00642137D01*
X00641137Y00437679D02*
Y00439679D01*
X00927878Y01704086D02*
X00929878D01*
X00928878Y01703086D02*
Y01705086D01*
X01320578Y01708856D02*
X01322578D01*
X01321578Y01707856D02*
Y01709856D01*
X01379618Y01695128D02*
X01381618D01*
X01380618Y01694129D02*
Y01696129D01*
X01389778Y01695128D02*
X01391778D01*
X01390778Y01694129D02*
Y01696129D01*
X01399938Y01695128D02*
X01401938D01*
X01400938Y01694129D02*
Y01696129D01*
X01518428Y01674876D02*
X01520428D01*
X01519428Y01673876D02*
Y01675876D01*
X01151398Y01693924D02*
X01153398D01*
X01152398Y01692924D02*
Y01694924D01*
X01131078Y01693924D02*
X01133078D01*
X01132078Y01692924D02*
Y01694924D01*
X01141238Y01693924D02*
X01143238D01*
X01142238Y01692924D02*
Y01694924D01*
X01379618Y01666150D02*
X01381618D01*
X01380618Y01665150D02*
Y01667150D01*
X01389778Y01666150D02*
X01391778D01*
X01390778Y01665150D02*
Y01667150D01*
X01399938Y01666150D02*
X01401938D01*
X01400938Y01665150D02*
Y01667150D01*
X00446898Y00467106D02*
X00448898D01*
X00447898Y00466106D02*
Y00468106D01*
X00854993Y00458566D02*
X00856993D01*
X00855993Y00457566D02*
Y00459566D01*
X00821198Y00458506D02*
X00823198D01*
X00822198Y00457506D02*
Y00459506D01*
X00877817Y00458566D02*
X00879817D01*
X00878817Y00457566D02*
Y00459566D01*
X00813228Y01464176D02*
X00815228D01*
X00814228Y01463176D02*
Y01465176D01*
X00813228Y01495316D02*
X00815228D01*
X00814228Y01494316D02*
Y01496316D01*
X00863235Y00756876D02*
X00865235D01*
X00864235Y00755876D02*
Y00757876D01*
X00856758Y00751066D02*
X00858758D01*
X00857758Y00750066D02*
Y00752066D01*
X00828158Y00808354D02*
X00830158D01*
X00829158Y00807355D02*
Y00809354D01*
X00879208Y01357756D02*
X00881208D01*
X00880208Y01356756D02*
Y01358756D01*
X00874538Y01362076D02*
X00876538D01*
X00875538Y01361076D02*
Y01363076D01*
X01010428Y01155446D02*
X01012428D01*
X01011428Y01154446D02*
Y01156446D01*
X00860568Y01351026D02*
X00862568D01*
X00861568Y01350026D02*
Y01352026D01*
X01308378Y01075426D02*
X01311378D01*
X01309878Y01073926D02*
Y01076926D01*
X01308378Y01269746D02*
X01311378D01*
X01309878Y01268246D02*
Y01271246D01*
X00649248Y00983481D02*
X00652248D01*
X00650748Y00981981D02*
Y00984981D01*
X00400288Y01633686D02*
X00403288D01*
X00401788Y01632186D02*
Y01635186D01*
X00400828Y01596136D02*
X00402828D01*
X00401828Y01595136D02*
Y01597136D01*
X01410294Y00470352D02*
X01412294D01*
X01411294Y00469352D02*
Y00471352D01*
X00292828Y01005586D02*
X00294828D01*
X00293828Y01004586D02*
Y01006586D01*
X00866918Y01599946D02*
X00868918D01*
X00867918Y01598946D02*
Y01600946D01*
X00866918Y01594086D02*
X00868918D01*
X00867918Y01593086D02*
Y01595086D01*
X00866918Y01587956D02*
X00868918D01*
X00867918Y01586956D02*
Y01588956D01*
X01247918Y01631696D02*
X01249918D01*
X01248918Y01630696D02*
Y01632696D01*
X00277638Y01056386D02*
X00279638D01*
X00278638Y01055386D02*
Y01057386D01*
X00277638Y01046226D02*
X00279638D01*
X00278638Y01045226D02*
Y01047226D01*
X01237758Y01631696D02*
X01239758D01*
X01238758Y01630696D02*
Y01632696D01*
X00797957Y01660756D02*
X00799957D01*
X00798957Y01659756D02*
Y01661756D01*
X01383808Y00509016D02*
X01385808D01*
X01384808Y00508016D02*
Y00510016D01*
X00813578Y01677528D02*
X00815578D01*
X00814578Y01676528D02*
Y01678528D01*
X00962168Y01674876D02*
X00964168D01*
X00963168Y01673876D02*
Y01675876D01*
X00374928Y01671066D02*
X00377928D01*
X00376428Y01669566D02*
Y01672566D01*
X01067778Y01002533D02*
X01070778D01*
X01069278Y01001033D02*
Y01004034D01*
X00500789Y00987171D02*
X00502789D01*
X00501789Y00986171D02*
Y00988171D01*
X00500789Y00994876D02*
X00502789D01*
X00501789Y00993876D02*
Y00995876D01*
X01401228Y01333246D02*
X01403228D01*
X01402228Y01332246D02*
Y01334246D01*
X01435323Y01337056D02*
X01437323D01*
X01436323Y01336056D02*
Y01338056D01*
X00215408Y01502156D02*
X00217408D01*
X00216408Y01501156D02*
Y01503156D01*
X00789448Y00772796D02*
X00791448D01*
X00790448Y00771796D02*
Y00773796D01*
X00857458Y01672980D02*
X00859458D01*
X00858458Y01671980D02*
Y01673980D01*
X00846128Y01672980D02*
X00848128D01*
X00847128Y01671980D02*
Y01673980D01*
X00892612Y01672980D02*
X00894612D01*
X00893612Y01671980D02*
Y01673980D01*
X00868959Y01672980D02*
X00870959D01*
X00869959Y01671980D02*
Y01673980D01*
X00639938Y01601216D02*
X00641938D01*
X00640938Y01600216D02*
Y01602216D01*
X00651938Y01601216D02*
X00653938D01*
X00652938Y01600216D02*
Y01602216D01*
X00413028Y01712976D02*
X00416028D01*
X00414528Y01711476D02*
Y01714476D01*
X00387628Y01712976D02*
X00390628D01*
X00389128Y01711476D02*
Y01714476D01*
X00311428Y01712976D02*
X00314428D01*
X00312928Y01711476D02*
Y01714476D01*
X01077128Y00426807D02*
X01079128D01*
X01078128Y00425807D02*
Y00427807D01*
X01026938Y00449326D02*
X01028938D01*
X01027938Y00448326D02*
Y00450326D01*
X01099178Y00426593D02*
X01101178D01*
X01100178Y00425593D02*
Y00427593D01*
X00802148Y00479706D02*
X00804148D01*
X00803148Y00478706D02*
Y00480706D01*
X00226328Y01570736D02*
X00228328D01*
X00227328Y01569736D02*
Y01571736D01*
X00349528Y01687576D02*
X00352528D01*
X00351028Y01686076D02*
Y01689076D01*
X00880888Y01672980D02*
X00882888D01*
X00881888Y01671980D02*
Y01673980D01*
X00601488Y01682552D02*
X00603488D01*
X00602488Y01681552D02*
Y01683552D01*
X00438428Y01658366D02*
X00441428D01*
X00439928Y01656866D02*
Y01659866D01*
X00387628Y01662176D02*
X00390628D01*
X00389128Y01660676D02*
Y01663676D01*
X00344458Y01233046D02*
X00346458D01*
X00345458Y01232046D02*
Y01234046D01*
X00413028Y01633686D02*
X00416028D01*
X00414528Y01632186D02*
Y01635186D01*
X00950738Y01674876D02*
X00952738D01*
X00951738Y01673876D02*
Y01675876D01*
X00939308Y01674876D02*
X00941308D01*
X00940308Y01673876D02*
Y01675876D01*
X00927878Y01674876D02*
X00929878D01*
X00928878Y01673876D02*
Y01675876D01*
X00904161Y01672980D02*
X00906161D01*
X00905161Y01671980D02*
Y01673980D01*
X00772938Y00888746D02*
X00774938D01*
X00773938Y00887746D02*
Y00889746D01*
X00874538Y01334386D02*
X00876538D01*
X00875538Y01333386D02*
Y01335386D01*
X01059958Y01302766D02*
X01061958D01*
X01060958Y01301766D02*
Y01303766D01*
X01247178Y01283186D02*
X01249178D01*
X01248178Y01282186D02*
Y01284186D01*
X01498254Y01462383D02*
X01500254D01*
X01499254Y01461383D02*
Y01463383D01*
X00479572Y01144244D02*
X00481572D01*
X00480573Y01143244D02*
Y01145244D01*
X00450358Y01131316D02*
X00452358D01*
X00451358Y01130316D02*
Y01132316D01*
X00522850Y01125671D02*
X00524851D01*
X00523851Y01124671D02*
Y01126671D01*
X00459418Y01172590D02*
X00461418D01*
X00460418Y01171590D02*
Y01173590D01*
X00498618Y01155116D02*
X00500618D01*
X00499618Y01154116D02*
Y01156116D01*
X00525288Y01155116D02*
X00527288D01*
X00526288Y01154116D02*
Y01156116D01*
X00516398Y01155116D02*
X00518398D01*
X00517398Y01154116D02*
Y01156116D01*
X00507508Y01155116D02*
X00509508D01*
X00508508Y01154116D02*
Y01156116D01*
X00395983Y00639916D02*
X00397983D01*
X00396983Y00638916D02*
Y00640916D01*
X00500789Y00944316D02*
X00502789D01*
X00501789Y00943316D02*
Y00945316D01*
X00530368Y00835406D02*
X00532368D01*
X00531368Y00834406D02*
Y00836406D01*
X00867693Y00444246D02*
X00869693D01*
X00868693Y00443246D02*
Y00445246D01*
X01456960Y00460756D02*
X01458960D01*
X01457960Y00459756D02*
Y00461756D01*
X00292828Y01264666D02*
X00294828D01*
X00293828Y01263666D02*
Y01265666D01*
X00241268Y01199736D02*
X00243268D01*
X00242268Y01198736D02*
Y01200736D01*
X01405398Y01438013D02*
X01407398D01*
X01406398Y01437013D02*
Y01439013D01*
X01415178Y01438013D02*
X01417178D01*
X01416178Y01437013D02*
Y01439013D01*
X01395238Y01438013D02*
X01397238D01*
X01396238Y01437013D02*
Y01439013D01*
X01503460Y01498727D02*
X01505460D01*
X01504460Y01497727D02*
Y01499727D01*
X01503460Y01504726D02*
X01505460D01*
X01504460Y01503726D02*
Y01505726D01*
X01503460Y01492876D02*
X01505460D01*
X01504460Y01491876D02*
Y01493876D01*
X01533668Y01442836D02*
X01535668D01*
X01534668Y01441836D02*
Y01443836D01*
X01385078Y01438013D02*
X01387078D01*
X01386078Y01437013D02*
Y01439013D01*
X01372498Y01438013D02*
X01374498D01*
X01373498Y01437013D02*
Y01439013D01*
X01409783Y00730886D02*
X01411783D01*
X01410783Y00729886D02*
Y00731886D01*
X01335548Y00782066D02*
X01337548D01*
X01336548Y00781066D02*
Y00783066D01*
X01357768Y00814461D02*
X01359768D01*
X01358768Y00813461D02*
Y00815461D01*
X01498788Y00652439D02*
X01500788D01*
X01499788Y00651439D02*
Y00653439D01*
X01575578Y01674876D02*
X01577578D01*
X01576578Y01673876D02*
Y01675876D01*
X01564148Y01674876D02*
X01566148D01*
X01565148Y01673876D02*
Y01675876D01*
X01345578Y01709166D02*
X01347578D01*
X01346578Y01708166D02*
Y01710166D01*
X01064838Y01709396D02*
X01066838D01*
X01065838Y01708396D02*
Y01710396D01*
X00973598Y01674876D02*
X00975598D01*
X00974598Y01673876D02*
Y01675876D01*
X00864378Y01644096D02*
X00866378D01*
X00865378Y01643096D02*
Y01645096D01*
X01246678Y00956866D02*
X01249678D01*
X01248178Y00955366D02*
Y00958366D01*
X00653558Y01269746D02*
X00655558D01*
X00654558Y01268746D02*
Y01270746D01*
X01597018Y01507336D02*
X01599018D01*
X01598018Y01506336D02*
Y01508336D01*
X01620328Y01448743D02*
X01622328D01*
X01621328Y01447743D02*
Y01449743D01*
X01608324Y01462716D02*
X01610324D01*
X01609324Y01461716D02*
Y01463716D01*
X01603598Y01507336D02*
X01605598D01*
X01604598Y01506336D02*
Y01508336D01*
X01353328Y01345056D02*
X01355328D01*
X01354328Y01344056D02*
Y01346056D01*
X01330118Y01222756D02*
X01332118D01*
X01331118Y01221756D02*
Y01223756D01*
X00757698Y01172591D02*
X00759698D01*
X00758698Y01171591D02*
Y01173591D01*
X00355728Y00675466D02*
X00357728D01*
X00356728Y00674466D02*
Y00676466D01*
X00915988Y01512316D02*
X00917988D01*
X00916988Y01511316D02*
Y01513316D01*
X01113348Y01371499D02*
X01116348D01*
X01114848Y01369999D02*
Y01372999D01*
X00799608Y00680685D02*
X00801608D01*
X00800608Y00679685D02*
Y00681684D01*
X00807228Y00664983D02*
X00809228D01*
X00808228Y00663983D02*
Y00665983D01*
X00822468Y00659366D02*
X00824468D01*
X00823468Y00658366D02*
Y00660366D01*
X00202708Y01561846D02*
X00204708D01*
X00203708Y01560846D02*
Y01562846D01*
X00432578Y01605026D02*
X00434578D01*
X00433578Y01604026D02*
Y01606026D01*
X00221304Y00987171D02*
X00223304D01*
X00222304Y00986171D02*
Y00988171D01*
X00221304Y00999236D02*
X00223304D01*
X00222304Y00998236D02*
Y01000236D01*
X00336828Y01712976D02*
X00339828D01*
X00338328Y01711476D02*
Y01714476D01*
X00374928Y01712976D02*
X00377928D01*
X00376428Y01711476D02*
Y01714476D01*
X00362228Y01712976D02*
X00365228D01*
X00363728Y01711476D02*
Y01714476D01*
X00349528Y01712976D02*
X00352528D01*
X00351028Y01711476D02*
Y01714476D01*
X00400288Y01712976D02*
X00403288D01*
X00401788Y01711476D02*
Y01714476D01*
X00438428Y01712976D02*
X00441428D01*
X00439928Y01711476D02*
Y01714476D01*
X00425728Y01712976D02*
X00428728D01*
X00427228Y01711476D02*
Y01714476D01*
X00616728Y01574386D02*
X00618728D01*
X00617728Y01573386D02*
Y01575386D01*
X00599518Y01601216D02*
X00601518D01*
X00600518Y01600216D02*
Y01602216D01*
X00587518Y01601216D02*
X00589518D01*
X00588518Y01600216D02*
Y01602216D01*
X00567198Y01578386D02*
X00569198D01*
X00568198Y01577386D02*
Y01579386D01*
X00596408Y01579886D02*
X00598408D01*
X00597408Y01578886D02*
Y01580886D01*
X00573408Y01548886D02*
X00575408D01*
X00574408Y01547886D02*
Y01549886D01*
X00567198Y01559386D02*
X00569198D01*
X00568198Y01558386D02*
Y01560386D01*
X00567198Y01569386D02*
X00569198D01*
X00568198Y01568386D02*
Y01570386D01*
X00639478Y01540256D02*
X00641478D01*
X00640478Y01539256D02*
Y01541256D01*
X00616728Y01566926D02*
X00618728D01*
X00617728Y01565926D02*
Y01567926D01*
X00950738Y01684981D02*
X00952738D01*
X00951738Y01683981D02*
Y01685981D01*
X01587253Y01685036D02*
X01589253D01*
X01588253Y01684036D02*
Y01686036D01*
X01010428Y01608486D02*
X01012428D01*
X01011428Y01607486D02*
Y01609486D01*
X01633998Y01616026D02*
X01635998D01*
X01634998Y01615026D02*
Y01617026D01*
X01647010Y01615733D02*
X01649010D01*
X01648010Y01614733D02*
Y01616733D01*
X00366623Y00653778D02*
X00368623D01*
X00367623Y00652778D02*
Y00654778D01*
X00799798Y00694228D02*
X00801798D01*
X00800798Y00693228D02*
Y00695228D01*
X00600218Y01327546D02*
X00602218D01*
X00601218Y01326546D02*
Y01328546D01*
X00422776Y00467106D02*
X00424776D01*
X00423776Y00466106D02*
Y00468106D01*
X00481973Y00467106D02*
X00483973D01*
X00482973Y00466106D02*
Y00468106D01*
X00434486Y00467106D02*
X00436486D01*
X00435486Y00466106D02*
Y00468106D01*
X00411626Y00467106D02*
X00413626D01*
X00412626Y00466106D02*
Y00468106D01*
X00578493Y00454756D02*
X00580493D01*
X00579493Y00453756D02*
Y00455756D01*
X00527693Y00467314D02*
X00529693D01*
X00528693Y00466314D02*
Y00468314D01*
X00516263Y00467314D02*
X00518263D01*
X00517263Y00466314D02*
Y00468314D01*
X00948973Y00458566D02*
X00950973D01*
X00949973Y00457566D02*
Y00459566D01*
X00972383Y00458566D02*
X00974383D01*
X00973383Y00457566D02*
Y00459566D01*
X00843563Y00458566D02*
X00845563D01*
X00844563Y00457566D02*
Y00459566D01*
X00866423Y00458566D02*
X00868423D01*
X00867423Y00457566D02*
Y00459566D01*
X00925338Y00458566D02*
X00927338D01*
X00926338Y00457566D02*
Y00459566D01*
X00960383Y00458566D02*
X00962383D01*
X00961383Y00457566D02*
Y00459566D01*
X01098188Y01649826D02*
X01100188D01*
X01099188Y01648826D02*
Y01650826D01*
X01141238Y01664016D02*
X01143238D01*
X01142238Y01663016D02*
Y01665016D01*
X01131078Y01664016D02*
X01133078D01*
X01132078Y01663016D02*
Y01665016D01*
X01151398Y01664016D02*
X01153398D01*
X01152398Y01663016D02*
Y01665016D01*
X01349518Y01649526D02*
X01351518D01*
X01350518Y01648526D02*
Y01650526D01*
X01506998Y01674876D02*
X01508998D01*
X01507998Y01673876D02*
Y01675876D01*
X01495568Y01642515D02*
X01497568D01*
X01496568Y01641515D02*
Y01643515D01*
X01484138Y01642515D02*
X01486138D01*
X01485138Y01641515D02*
Y01643515D01*
X01506998Y01642515D02*
X01508998D01*
X01507998Y01641515D02*
Y01643515D01*
X01471173Y01193126D02*
X01473173D01*
X01472173Y01192126D02*
Y01194126D01*
X01089488Y01709354D02*
X01091488D01*
X01090488Y01708354D02*
Y01710354D01*
X01559147Y00678441D02*
X01561147D01*
X01560147Y00677441D02*
Y00679441D01*
X00933013Y00723411D02*
X00935013D01*
X00934013Y00722411D02*
Y00724411D01*
X01595169Y01326186D02*
X01597169D01*
X01596169Y01325186D02*
Y01327186D01*
X01390158Y00640256D02*
X01392158D01*
X01391158Y00639256D02*
Y00641256D01*
X01406747Y00859996D02*
X01408747D01*
X01407747Y00858996D02*
Y00860996D01*
X00946293Y00883666D02*
X00948293D01*
X00947293Y00882666D02*
Y00884666D01*
X00430038Y01221116D02*
X00432038D01*
X00431038Y01220116D02*
Y01222116D01*
X00430038Y01227306D02*
X00432038D01*
X00431038Y01226306D02*
Y01228306D01*
X01609868Y01599946D02*
X01611868D01*
X01610868Y01598946D02*
Y01600946D01*
X01452668Y01193419D02*
X01454668D01*
X01453668Y01192419D02*
Y01194419D01*
X00588653Y00454756D02*
X00590653D01*
X00589653Y00453756D02*
Y00455756D01*
X00598813Y00454756D02*
X00600813D01*
X00599813Y00453756D02*
Y00455756D01*
X01037098Y00449326D02*
X01039098D01*
X01038098Y00448326D02*
Y00450326D01*
X01047258Y00449326D02*
X01049258D01*
X01048258Y00448326D02*
Y00450326D01*
X01505728Y01171839D02*
X01507728D01*
X01506728Y01170838D02*
Y01172839D01*
X01515888Y01171839D02*
X01517888D01*
X01516888Y01170838D02*
Y01172839D01*
X01526048Y01171839D02*
X01528048D01*
X01527048Y01170838D02*
Y01172839D01*
X00627303Y00499296D02*
X00629303D01*
X00628303Y00498296D02*
Y00500296D01*
X00588713Y00483886D02*
X00590713D01*
X00589713Y00482886D02*
Y00484886D01*
X00598873Y00483886D02*
X00600873D01*
X00599873Y00482886D02*
Y00484886D01*
X00578553Y00483886D02*
X00580553D01*
X00579553Y00482886D02*
Y00484886D01*
X00854018Y01482960D02*
X00856018D01*
X00855018Y01481960D02*
Y01483960D01*
X00854018Y01472922D02*
X00856018D01*
X00855018Y01471922D02*
Y01473922D01*
X00853710Y01454852D02*
X00855710D01*
X00854710Y01453852D02*
Y01455852D01*
X01633148Y01652366D02*
X01636148D01*
X01634648Y01650866D02*
Y01653866D01*
X01007068Y01646632D02*
X01010068D01*
X01008568Y01645132D02*
Y01648132D01*
X01007580Y01636776D02*
X01009580D01*
X01008580Y01635776D02*
Y01637776D01*
X01639151Y01633686D02*
X01641151D01*
X01640151Y01632686D02*
Y01634686D01*
X01639151Y01627294D02*
X01641151D01*
X01640151Y01626294D02*
Y01628294D01*
X01390158Y00519176D02*
X01392158D01*
X01391158Y00518176D02*
Y00520176D01*
X00811038Y00500387D02*
X00813038D01*
X00812038Y00499387D02*
Y00501387D01*
X00937543Y00458566D02*
X00939543D01*
X00938543Y00457566D02*
Y00459566D01*
X01421488Y00474726D02*
X01423488D01*
X01422488Y00473726D02*
Y00475726D01*
X01541288Y01674876D02*
X01543288D01*
X01542288Y01673876D02*
Y01675876D01*
X01609868Y01674876D02*
X01611868D01*
X01610868Y01673876D02*
Y01675876D01*
X01598438Y01674876D02*
X01600438D01*
X01599438Y01673876D02*
Y01675876D01*
X01587008Y01674876D02*
X01589008D01*
X01588008Y01673876D02*
Y01675876D01*
X01529858Y01674876D02*
X01531858D01*
X01530858Y01673876D02*
Y01675876D01*
X01495568Y01674876D02*
X01497568D01*
X01496568Y01673876D02*
Y01675876D01*
X01484138Y01674876D02*
X01486138D01*
X01485138Y01673876D02*
Y01675876D01*
X00249698Y01110996D02*
X00251698D01*
X00250698Y01109996D02*
Y01111996D01*
X00249698Y01122426D02*
X00251698D01*
X00250698Y01121426D02*
Y01123426D01*
X00249698Y01133856D02*
X00251698D01*
X00250698Y01132856D02*
Y01134856D01*
X00249698Y01145286D02*
X00251698D01*
X00250698Y01144286D02*
Y01146286D01*
X00249698Y01156716D02*
X00251698D01*
X00250698Y01155716D02*
Y01157716D01*
X00505022Y00467106D02*
X00507022D01*
X00506022Y00466106D02*
Y00468106D01*
X00493403Y00467106D02*
X00495403D01*
X00494403Y00466106D02*
Y00468106D01*
X01547638Y00474726D02*
X01549638D01*
X01548638Y00473726D02*
Y00475726D01*
X01536208Y00474726D02*
X01538208D01*
X01537208Y00473726D02*
Y00475726D01*
X01524778Y00474726D02*
X01526778D01*
X01525778Y00473726D02*
Y00475726D01*
X01513348Y00474726D02*
X01515348D01*
X01514348Y00473726D02*
Y00475726D01*
X01501918Y00474726D02*
X01503918D01*
X01502918Y00473726D02*
Y00475726D01*
X01467978Y00474726D02*
X01469978D01*
X01468978Y00473726D02*
Y00475726D01*
X01456198Y00474726D02*
X01458198D01*
X01457198Y00473726D02*
Y00475726D01*
X01444768Y00474726D02*
X01446768D01*
X01445768Y00473726D02*
Y00475726D01*
X01433338Y00474726D02*
X01435338D01*
X01434338Y00473726D02*
Y00475726D01*
X00247928Y01633686D02*
X00250928D01*
X00249428Y01632186D02*
Y01635186D01*
X00425728Y01633686D02*
X00428728D01*
X00427228Y01632186D02*
Y01635186D01*
X00336788Y01633686D02*
X00339788D01*
X00338288Y01632186D02*
Y01635186D01*
X00324128Y01658366D02*
X00327128D01*
X00325628Y01656866D02*
Y01659866D01*
X00311428Y01633686D02*
X00314428D01*
X00312928Y01632186D02*
Y01635186D01*
X00260628Y01712976D02*
X00263628D01*
X00262128Y01711476D02*
Y01714476D01*
X00273328Y01712976D02*
X00276328D01*
X00274828Y01711476D02*
Y01714476D01*
X00324128Y01690116D02*
X00327128D01*
X00325628Y01688616D02*
Y01691616D01*
X00298728Y01690116D02*
X00301728D01*
X00300228Y01688616D02*
Y01691616D01*
X00286028Y01712976D02*
X00289028D01*
X00287528Y01711476D02*
Y01714476D01*
X00286028Y01622806D02*
X00289028D01*
X00287528Y01621306D02*
Y01624306D01*
X00273328Y01622806D02*
X00276328D01*
X00274828Y01621306D02*
Y01624306D01*
X00260628Y01622806D02*
X00263628D01*
X00262128Y01621306D02*
Y01624306D01*
X00286028Y01633686D02*
X00289028D01*
X00287528Y01632186D02*
Y01635186D01*
X00273328Y01633686D02*
X00276328D01*
X00274828Y01632186D02*
Y01635186D01*
X00260628Y01633686D02*
X00263628D01*
X00262128Y01632186D02*
Y01635186D01*
X01027502Y01396734D02*
X01030502D01*
X01029002Y01395234D02*
Y01398234D01*
X01545719Y01460970D02*
X01547719D01*
X01546719Y01459970D02*
Y01461970D01*
X01603598Y01467992D02*
X01605598D01*
X01604598Y01466992D02*
Y01468992D01*
X00487188Y01277686D02*
X00489188D01*
X00488188Y01276686D02*
Y01278686D01*
X00803418Y00639181D02*
X00805418D01*
X00804418Y00638181D02*
Y00640181D01*
X00485918Y00867156D02*
X00487918D01*
X00486918Y00866156D02*
Y00868156D01*
X00484648Y00649986D02*
X00486648D01*
X00485648Y00648986D02*
Y00650986D01*
X00484648Y00656336D02*
X00486648D01*
X00485648Y00655336D02*
Y00657336D01*
X00919828Y01360546D02*
X00921828D01*
X00920828Y01359546D02*
Y01361546D01*
X00884068Y01353566D02*
X00886068D01*
X00885068Y01352566D02*
Y01354566D01*
X00939988Y01453896D02*
X00941988D01*
X00940988Y01452896D02*
Y01454896D01*
X00939988Y01447546D02*
X00941988D01*
X00940988Y01446546D02*
Y01448546D01*
X00939988Y01441196D02*
X00941988D01*
X00940988Y01440196D02*
Y01442196D01*
X00876443Y01466141D02*
X00878443D01*
X00877443Y01465141D02*
Y01467141D01*
X01468763Y01418336D02*
X01470763D01*
X01469763Y01417336D02*
Y01419336D01*
X01468763Y01428256D02*
X01470763D01*
X01469763Y01427256D02*
Y01429256D01*
X01620328Y01441473D02*
X01622328D01*
X01621328Y01440473D02*
Y01442473D01*
X01068278Y01213866D02*
X01070278D01*
X01069278Y01212866D02*
Y01214866D01*
X00906976Y01461729D02*
X00908976D01*
X00907976Y01460728D02*
Y01462728D01*
X00897398Y01439926D02*
X00899398D01*
X00898398Y01438926D02*
Y01440926D01*
X00897398Y01445376D02*
X00899398D01*
X00898398Y01444376D02*
Y01446376D01*
X00558816Y01207516D02*
X00560816D01*
X00559816Y01206516D02*
Y01208516D01*
X00545462Y01192647D02*
X00547462D01*
X00546462Y01191647D02*
Y01193647D01*
X00559578Y01230887D02*
X00561578D01*
X00560578Y01229887D02*
Y01231887D01*
X01102638Y00765186D02*
X01105638D01*
X01104138Y00763686D02*
Y00766686D01*
X01453624Y00734325D02*
X01455624D01*
X01454624Y00733325D02*
Y00735325D01*
X01390158Y00665226D02*
X01392158D01*
X01391158Y00664226D02*
Y00666226D01*
X00277638Y01036066D02*
X00279638D01*
X00278638Y01035066D02*
Y01037066D01*
X01505728Y01141476D02*
X01507728D01*
X01506728Y01140476D02*
Y01142476D01*
X01515888Y01141476D02*
X01517888D01*
X01516888Y01140476D02*
Y01142476D01*
X01526048Y01141476D02*
X01528048D01*
X01527048Y01140476D02*
Y01142476D01*
X01047258Y00476776D02*
X01049258D01*
X01048258Y00475776D02*
Y00477776D01*
X01037098Y00476776D02*
X01039098D01*
X01038098Y00475776D02*
Y00477776D01*
X01026938Y00476776D02*
X01028938D01*
X01027938Y00475776D02*
Y00477776D01*
X00933464Y01479244D02*
X00936464D01*
X00934964Y01477744D02*
Y01480744D01*
X00865353Y00489846D02*
X00867353D01*
X00866353Y00488846D02*
Y00490846D01*
X00877105Y00490927D02*
X00879105D01*
X00878105Y00489927D02*
Y00491927D01*
X00891013Y00490866D02*
X00893013D01*
X00892013Y00489866D02*
Y00491866D01*
X00884862Y00490927D02*
X00886862D01*
X00885862Y00489927D02*
Y00491927D01*
X00807228Y00490866D02*
X00809228D01*
X00808228Y00489866D02*
Y00491866D01*
X00414179Y00780796D02*
X00416179D01*
X00415179Y00779796D02*
Y00781796D01*
X01390158Y00649986D02*
X01392158D01*
X01391158Y00648986D02*
Y00650986D01*
X01390158Y00657606D02*
X01392158D01*
X01391158Y00656606D02*
Y00658606D01*
X00280358Y01215576D02*
X00282358D01*
X00281358Y01214576D02*
Y01216576D01*
X00280358Y01153633D02*
X00282358D01*
X00281358Y01152633D02*
Y01154633D01*
X00280358Y01119416D02*
X00282358D01*
X00281358Y01118416D02*
Y01120416D01*
X00280358Y01130846D02*
X00282358D01*
X00281358Y01129846D02*
Y01131846D01*
X00280358Y01142276D02*
X00282358D01*
X00281358Y01141276D02*
Y01143276D01*
X00280358Y01165136D02*
X00282358D01*
X00281358Y01164136D02*
Y01166136D01*
X00280358Y01173116D02*
X00282358D01*
X00281358Y01172116D02*
Y01174116D01*
X00280358Y01179346D02*
X00282358D01*
X00281358Y01178346D02*
Y01180346D01*
X00280358Y01203576D02*
X00282358D01*
X00281358Y01202576D02*
Y01204576D01*
X00280358Y01236346D02*
X00282358D01*
X00281358Y01235346D02*
Y01237346D01*
X00852948Y01644096D02*
X00854948D01*
X00853948Y01643096D02*
Y01645096D01*
X00877078Y01644096D02*
X00879078D01*
X00878078Y01643096D02*
Y01645096D01*
X00887588Y01644096D02*
X00889588D01*
X00888588Y01643096D02*
Y01645096D01*
X00966328Y01644096D02*
X00968328D01*
X00967328Y01643096D02*
Y01645096D01*
X00954898Y01644096D02*
X00956898D01*
X00955898Y01643096D02*
Y01645096D01*
X00943468Y01644096D02*
X00945468D01*
X00944468Y01643096D02*
Y01645096D01*
X00931038Y01644096D02*
X00933038D01*
X00932038Y01643096D02*
Y01645096D01*
X00921988Y01644096D02*
X00923988D01*
X00922988Y01643096D02*
Y01645096D01*
X00915933Y01644096D02*
X00917933D01*
X00916933Y01643096D02*
Y01645096D01*
X00909988Y01644096D02*
X00911988D01*
X00910988Y01643096D02*
Y01645096D01*
X00899588Y01644096D02*
X00901588D01*
X00900588Y01643096D02*
Y01645096D01*
X01606170Y01641906D02*
X01608170D01*
X01607170Y01640906D02*
Y01642906D01*
X01594170Y01641906D02*
X01596170D01*
X01595170Y01640906D02*
Y01642906D01*
X01583798Y01641906D02*
X01585798D01*
X01584798Y01640906D02*
Y01642906D01*
X01572608Y01641906D02*
X01574608D01*
X01573608Y01640906D02*
Y01642906D01*
X01564148Y01641906D02*
X01566148D01*
X01565148Y01640906D02*
Y01642906D01*
X01552718Y01642156D02*
X01554718D01*
X01553718Y01641156D02*
Y01643156D01*
X01543032Y01642382D02*
X01545032D01*
X01544032Y01641382D02*
Y01643382D01*
X01531558Y01642382D02*
X01533558D01*
X01532558Y01641382D02*
Y01643382D01*
X01518428Y01642382D02*
X01520428D01*
X01519428Y01641382D02*
Y01643382D01*
X00350028Y01233046D02*
X00352028D01*
X00351028Y01232046D02*
Y01234046D01*
X00338598Y01233046D02*
X00340598D01*
X00339598Y01232046D02*
Y01234046D01*
X00351298Y01132096D02*
X00353298D01*
X00352298Y01131096D02*
Y01133096D01*
X01425718Y00538226D02*
X01427718D01*
X01426718Y00537226D02*
Y00539226D01*
X01425718Y00544116D02*
X01427718D01*
X01426718Y00543116D02*
Y00545116D01*
X01527968Y00538226D02*
X01529968D01*
X01528968Y00537226D02*
Y00539226D01*
X01527968Y00544116D02*
X01529968D01*
X01528968Y00543116D02*
Y00545116D01*
X01527968Y00549656D02*
X01529968D01*
X01528968Y00548656D02*
Y00550656D01*
X01609868Y01587956D02*
X01611868D01*
X01610868Y01586956D02*
Y01588956D01*
X01609868Y01594086D02*
X01611868D01*
X01610868Y01593086D02*
Y01595086D01*
X01507643Y01587956D02*
X01509643D01*
X01508643Y01586956D02*
Y01588956D01*
X01507643Y01594086D02*
X01509643D01*
X01508643Y01593086D02*
Y01595086D01*
X01507643Y01599946D02*
X01509643D01*
X01508643Y01598946D02*
Y01600946D01*
X00969788Y01587956D02*
X00971788D01*
X00970788Y01586956D02*
Y01588956D01*
X00969788Y01594086D02*
X00971788D01*
X00970788Y01593086D02*
Y01595086D01*
X00969788Y01599946D02*
X00971788D01*
X00970788Y01598946D02*
Y01600946D01*
X00957988Y01507336D02*
X00959988D01*
X00958988Y01506336D02*
Y01508336D01*
X00866918Y01490726D02*
X00868918D01*
X00867918Y01489726D02*
Y01491726D01*
X00866918Y01497076D02*
X00868918D01*
X00867918Y01496076D02*
Y01498076D01*
X00866918Y01503426D02*
X00868918D01*
X00867918Y01502426D02*
Y01504426D01*
X01364378Y01438013D02*
X01366378D01*
X01365378Y01437013D02*
Y01439013D01*
X01356323Y01438013D02*
X01358323D01*
X01357323Y01437013D02*
Y01439013D01*
X01346978Y01438013D02*
X01348978D01*
X01347978Y01437013D02*
Y01439013D01*
X01338588Y01438013D02*
X01340588D01*
X01339588Y01437013D02*
Y01439013D01*
X01330118Y01438013D02*
X01332118D01*
X01331118Y01437013D02*
Y01439013D01*
X01315486Y01438013D02*
X01317486D01*
X01316485Y01437013D02*
Y01439013D01*
X01306338Y01438013D02*
X01308338D01*
X01307338Y01437013D02*
Y01439013D01*
X01296178Y01438013D02*
X01298178D01*
X01297178Y01437013D02*
Y01439013D01*
X01286907Y01438013D02*
X01288907D01*
X01287907Y01437013D02*
Y01439013D01*
X01160103Y01443736D02*
X01162103D01*
X01161103Y01442736D02*
Y01444736D01*
X01151398Y01443736D02*
X01153398D01*
X01152398Y01442736D02*
Y01444736D01*
X01142508Y01443736D02*
X01144508D01*
X01143508Y01442736D02*
Y01444736D01*
X01133268Y01443736D02*
X01135268D01*
X01134268Y01442736D02*
Y01444736D01*
X01039638Y01443736D02*
X01041638D01*
X01040638Y01442736D02*
Y01444736D01*
X01048528Y01443736D02*
X01050528D01*
X01049528Y01442736D02*
Y01444736D01*
X01057903Y01443736D02*
X01059903D01*
X01058903Y01442736D02*
Y01444736D01*
X01066818Y01443736D02*
X01068818D01*
X01067818Y01442736D02*
Y01444736D01*
X01095498Y01443736D02*
X01097498D01*
X01096498Y01442736D02*
Y01444736D01*
X01106123Y01443736D02*
X01108123D01*
X01107123Y01442736D02*
Y01444736D01*
X01113848Y01443736D02*
X01115848D01*
X01114848Y01442736D02*
Y01444736D01*
X01121438Y01443736D02*
X01123438D01*
X01122438Y01442736D02*
Y01444736D01*
X01087208Y01443736D02*
X01089208D01*
X01088208Y01442736D02*
Y01444736D01*
X01078818Y01443736D02*
X01080818D01*
X01079818Y01442736D02*
Y01444736D01*
X00500789Y00953516D02*
X00502789D01*
X00501789Y00952516D02*
Y00954516D01*
X00500789Y00964731D02*
X00502789D01*
X00501789Y00963731D02*
Y00965731D01*
X00500789Y00975106D02*
X00502789D01*
X00501789Y00974106D02*
Y00976106D01*
X00500789Y01073327D02*
X00502789D01*
X00501789Y01072327D02*
Y01074327D01*
X00500789Y01064006D02*
X00502789D01*
X00501789Y01063006D02*
Y01065006D01*
X00500789Y01053846D02*
X00502789D01*
X00501789Y01052846D02*
Y01054846D01*
X00500789Y01044748D02*
X00502789D01*
X00501789Y01043748D02*
Y01045748D01*
X00500789Y01003171D02*
X00502789D01*
X00501789Y01002171D02*
Y01004171D01*
X00500789Y01014178D02*
X00502789D01*
X00501789Y01013178D02*
Y01015179D01*
X00500789Y01022096D02*
X00502789D01*
X00501789Y01021096D02*
Y01023096D01*
X00500789Y01029783D02*
X00502789D01*
X00501789Y01028783D02*
Y01030783D01*
X01540528Y00923036D02*
X01542528D01*
X01541528Y00922036D02*
Y00924036D01*
X01530922Y00923036D02*
X01532922D01*
X01531922Y00922036D02*
Y00924036D01*
X01521858Y00923036D02*
X01523858D01*
X01522858Y00922036D02*
Y00924036D01*
X01512588Y00923036D02*
X01514588D01*
X01513588Y00922036D02*
Y00924036D01*
X01442738Y00923036D02*
X01444738D01*
X01443738Y00922036D02*
Y00924036D01*
X01434238Y00923036D02*
X01436238D01*
X01435238Y00922036D02*
Y00924036D01*
X01423788Y00923036D02*
X01425788D01*
X01424788Y00922036D02*
Y00924036D01*
X01414288Y00923036D02*
X01416288D01*
X01415288Y00922036D02*
Y00924036D01*
X01140003Y00697026D02*
X01142003D01*
X01141003Y00696025D02*
Y00698026D01*
X01131078Y00697026D02*
X01133078D01*
X01132078Y00696025D02*
Y00698026D01*
X01122828Y00697026D02*
X01124828D01*
X01123828Y00696025D02*
Y00698026D01*
X01113889Y00697026D02*
X01115889D01*
X01114889Y00696025D02*
Y00698026D01*
X01018025Y00697026D02*
X01020025D01*
X01019025Y00696025D02*
Y00698026D01*
X01025668Y00697026D02*
X01027668D01*
X01026668Y00696025D02*
Y00698026D01*
X01033445Y00697026D02*
X01035445D01*
X01034445Y00696025D02*
Y00698026D01*
X01040803Y00696976D02*
X01042803D01*
X01041803Y00695976D02*
Y00697976D01*
X00686791Y00704596D02*
X00688791D01*
X00687791Y00703596D02*
Y00705596D01*
X00678958Y00704266D02*
X00680958D01*
X00679958Y00703266D02*
Y00705266D01*
X00671338Y00704266D02*
X00673338D01*
X00672338Y00703266D02*
Y00705266D01*
X00663039Y00704266D02*
X00665039D01*
X00664039Y00703266D02*
Y00705266D01*
X00587688Y00705866D02*
X00589688D01*
X00588688Y00704866D02*
Y00706866D01*
X00579898Y00705866D02*
X00581898D01*
X00580898Y00704866D02*
Y00706866D01*
X00571008Y00705866D02*
X00573008D01*
X00572008Y00704866D02*
Y00706866D01*
X00620538Y00704266D02*
X00622538D01*
X00621538Y00703266D02*
Y00705266D01*
X00627643Y00704266D02*
X00629643D01*
X00628643Y00703266D02*
Y00705266D01*
X00635398Y00704266D02*
X00637398D01*
X00636398Y00703266D02*
Y00705266D01*
X00642003Y00704266D02*
X00644003D01*
X00643003Y00703266D02*
Y00705266D01*
X00648598Y00704266D02*
X00650598D01*
X00649598Y00703266D02*
Y00705266D01*
X00613033Y00704266D02*
X00615033D01*
X00614033Y00703266D02*
Y00705266D01*
X00605343Y00704266D02*
X00607343D01*
X00606343Y00703266D02*
Y00705266D01*
X01099448Y00696976D02*
X01101448D01*
X01100448Y00695976D02*
Y00697976D01*
X01091003Y00696976D02*
X01093003D01*
X01092003Y00695976D02*
Y00697976D01*
X01082818Y00696976D02*
X01084818D01*
X01083818Y00695976D02*
Y00697976D01*
X01073771Y00696976D02*
X01075770D01*
X01074771Y00695976D02*
Y00697976D01*
X01064733Y00696976D02*
X01066733D01*
X01065733Y00695976D02*
Y00697976D01*
X01055638Y00696976D02*
X01057638D01*
X01056638Y00695976D02*
Y00697976D01*
X01495600Y00923036D02*
X01497600D01*
X01496600Y00922036D02*
Y00924036D01*
X01488958Y00923036D02*
X01490958D01*
X01489958Y00922036D02*
Y00924036D01*
X01482570Y00923036D02*
X01484570D01*
X01483571Y00922036D02*
Y00924036D01*
X01476088Y00923036D02*
X01478088D01*
X01477088Y00922036D02*
Y00924036D01*
X01469248Y00923036D02*
X01471248D01*
X01470248Y00922036D02*
Y00924036D01*
X01462570Y00923036D02*
X01464570D01*
X01463571Y00922036D02*
Y00924036D01*
X01455848Y00923036D02*
X01457848D01*
X01456848Y00922036D02*
Y00924036D01*
X00799608Y00710946D02*
X00801608D01*
X00800608Y00709946D02*
Y00711946D01*
X00411785Y00772279D02*
X00413785D01*
X00412785Y00771279D02*
Y00773279D01*
X00474999Y01230887D02*
X00476999D01*
X00475999Y01229887D02*
Y01231887D01*
X00367808Y00669036D02*
X00369808D01*
X00368808Y00668036D02*
Y00670036D01*
X00396753Y00666496D02*
X00399753D01*
X00398253Y00664996D02*
Y00667996D01*
X00444008Y01131316D02*
X00446008D01*
X00445008Y01130316D02*
Y01132316D01*
X00437658Y01131316D02*
X00439658D01*
X00438658Y01130316D02*
Y01132316D01*
X00484648Y00643636D02*
X00486648D01*
X00485648Y00642636D02*
Y00644636D01*
X00938193Y00632053D02*
X00940193D01*
X00939193Y00631053D02*
Y00633053D01*
X00938038Y00638556D02*
X00940038D01*
X00939038Y00637556D02*
Y00639556D01*
X00938038Y00644906D02*
X00940038D01*
X00939038Y00643906D02*
Y00645906D01*
X01527788Y00648716D02*
X01529788D01*
X01528788Y00647716D02*
Y00649716D01*
X01527788Y00642142D02*
X01529788D01*
X01528788Y00641142D02*
Y00643142D01*
X01527968Y00636016D02*
X01529968D01*
X01528968Y00635016D02*
Y00637016D01*
X01453624Y00727456D02*
X01455624D01*
X01454624Y00726456D02*
Y00728456D01*
X01495600Y00754808D02*
X01497600D01*
X01496600Y00753808D02*
Y00755808D01*
X01495600Y00746597D02*
X01497600D01*
X01496600Y00745597D02*
Y00747597D01*
X01495625Y00763016D02*
X01497625D01*
X01496625Y00762016D02*
Y00764016D01*
X00476353Y00720094D02*
X00478353D01*
X00477353Y00719094D02*
Y00721094D01*
X00397653Y00719836D02*
X00399653D01*
X00398653Y00718836D02*
Y00720836D01*
X00397653Y00712216D02*
X00399653D01*
X00398653Y00711216D02*
Y00713216D01*
X00397653Y00703943D02*
X00399653D01*
X00398653Y00702943D02*
Y00704943D01*
X00464328Y00707136D02*
X00466328D01*
X00465328Y00706136D02*
Y00708136D01*
X00470543Y00714076D02*
X00472543D01*
X00471543Y00713076D02*
Y00715076D01*
X00850781Y00745201D02*
X00852782D01*
X00851781Y00744201D02*
Y00746201D01*
X00891013Y00623316D02*
X00893013D01*
X00892013Y00622316D02*
Y00624316D01*
X00457569Y01177036D02*
X00459569D01*
X00458569Y01176036D02*
Y01178036D01*
X00507234Y01216252D02*
X00509234D01*
X00508234Y01215251D02*
Y01217252D01*
X00502428Y01211326D02*
X00504428D01*
X00503428Y01210326D02*
Y01212326D01*
X00891959Y00675236D02*
X00893959D01*
X00892959Y00674236D02*
Y00676236D01*
X01486921Y00689738D02*
X01488921D01*
X01487921Y00688738D02*
Y00690738D01*
X00924068Y00766826D02*
X00926068D01*
X00925068Y00765826D02*
Y00767826D01*
X00924068Y00756876D02*
X00926068D01*
X00925068Y00755876D02*
Y00757876D01*
X00924068Y00747776D02*
X00926068D01*
X00925068Y00746776D02*
Y00748776D01*
X00842788Y00707136D02*
X00844788D01*
X00843788Y00706136D02*
Y00708136D01*
X00842788Y00691896D02*
X00844788D01*
X00843788Y00690896D02*
Y00692896D01*
X00842788Y00699516D02*
X00844788D01*
X00843788Y00698516D02*
Y00700516D01*
X00815738Y00665228D02*
X00817738D01*
X00816738Y00664228D02*
Y00666228D01*
X01543828Y00704596D02*
X01545828D01*
X01544828Y00703596D02*
Y00705596D01*
X01543828Y00735076D02*
X01545828D01*
X01544828Y00734076D02*
Y00736076D01*
X01543828Y00712216D02*
X01545828D01*
X01544828Y00711216D02*
Y00713216D01*
X01543828Y00727456D02*
X01545828D01*
X01544828Y00726456D02*
Y00728456D01*
X01543828Y00719836D02*
X01545828D01*
X01544828Y00718836D02*
Y00720836D01*
X01456960Y00696976D02*
X01458960D01*
X01457960Y00695976D02*
Y00697976D01*
X01456960Y00689356D02*
X01458960D01*
X01457960Y00688356D02*
Y00690356D01*
X01471858Y00660146D02*
X01474858D01*
X01473358Y00658646D02*
Y00661646D01*
X01462312Y00660146D02*
X01465312D01*
X01463812Y00658646D02*
Y00661646D01*
X01450264Y00660146D02*
X01453264D01*
X01451764Y00658646D02*
Y00661646D01*
X01595058Y01480439D02*
X01598058D01*
X01596558Y01478939D02*
Y01481939D01*
X01440285Y00660146D02*
X01443286D01*
X01441785Y00658646D02*
Y00661646D01*
X00872537Y00653949D02*
X00875537D01*
X00874037Y00652449D02*
Y00655449D01*
X00860489Y00653706D02*
X00863489D01*
X00861989Y00652206D02*
Y00655206D01*
X00419749Y00666496D02*
X00422749D01*
X00421250Y00664996D02*
Y00667996D01*
X00406678Y00666496D02*
X00409678D01*
X00408178Y00664996D02*
Y00667996D01*
X01475498Y01130046D02*
X01477498D01*
X01476498Y01129046D02*
Y01131046D01*
X01080278Y00487896D02*
X01082278D01*
X01081278Y00486896D02*
Y00488896D01*
X01539398Y00505206D02*
X01541398D01*
X01540398Y00504206D02*
Y00506206D01*
X01527968Y00505206D02*
X01529968D01*
X01528968Y00504206D02*
Y00506206D01*
X01516538Y00505206D02*
X01518538D01*
X01517538Y00504206D02*
Y00506206D01*
X01508927Y00505206D02*
X01510927D01*
X01509927Y00504206D02*
Y00506206D01*
X01498870Y00505206D02*
X01500870D01*
X01499870Y00504206D02*
Y00506206D01*
X01480328Y00505206D02*
X01482328D01*
X01481328Y00504206D02*
Y00506206D01*
X01487248Y00505206D02*
X01489248D01*
X01488248Y00504206D02*
Y00506206D01*
X01469058Y00505206D02*
X01471058D01*
X01470058Y00504206D02*
Y00506206D01*
X01462129Y00505206D02*
X01464129D01*
X01463129Y00504206D02*
Y00506206D01*
X01453008Y00505206D02*
X01455008D01*
X01454008Y00504206D02*
Y00506206D01*
X01441578Y00505206D02*
X01443578D01*
X01442578Y00504206D02*
Y00506206D01*
X01429528Y00505206D02*
X01431528D01*
X01430528Y00504206D02*
Y00506206D01*
X00411626Y00497759D02*
X00413626D01*
X00412626Y00496759D02*
Y00498759D01*
X00518629Y00497759D02*
X00520630D01*
X00519630Y00496759D02*
Y00498759D01*
X00509310Y00497759D02*
X00511310D01*
X00510309Y00496759D02*
Y00498759D01*
X00497879Y00497759D02*
X00499879D01*
X00498880Y00496759D02*
Y00498759D01*
X00486450Y00497759D02*
X00488450D01*
X00487449Y00496759D02*
Y00498759D01*
X00475020Y00497759D02*
X00477020D01*
X00476020Y00496759D02*
Y00498759D01*
X00463590Y00497759D02*
X00465590D01*
X00464590Y00496759D02*
Y00498759D01*
X00449983Y00497759D02*
X00451983D01*
X00450983Y00496759D02*
Y00498759D01*
X00440198Y00497759D02*
X00442198D01*
X00441198Y00496759D02*
Y00498759D01*
X00432160Y00497759D02*
X00434160D01*
X00433160Y00496759D02*
Y00498759D01*
X00421520Y00497759D02*
X00423520D01*
X00422519Y00496759D02*
Y00498759D01*
X00964178Y00488661D02*
X00966178D01*
X00965178Y00487661D02*
Y00489661D01*
X00940768Y00488661D02*
X00942768D01*
X00941768Y00487661D02*
Y00489661D01*
X00929338Y00488661D02*
X00931338D01*
X00930338Y00487661D02*
Y00489661D01*
X00952178Y00488661D02*
X00954178D01*
X00953178Y00487661D02*
Y00489661D01*
X00898863Y00491446D02*
X00900863D01*
X00899863Y00490446D02*
Y00492446D01*
X00853703Y00489596D02*
X00855703D01*
X00854703Y00488596D02*
Y00490596D01*
M02*
