G04*
G04 #@! TF.GenerationSoftware,Altium Limited,Altium Designer,23.6.0 (18)*
G04*
G04 Layer_Physical_Order=3*
G04 Layer_Color=36540*
%FSAX44Y44*%
%MOMM*%
G71*
G04*
G04 #@! TF.SameCoordinates,B6B15AAD-09C2-4985-A1E0-6DBEE0027C76*
G04*
G04*
G04 #@! TF.FilePolarity,Positive*
G04*
G01*
G75*
%ADD15C,0.2032*%
%ADD16C,0.2540*%
%ADD95C,2.5400*%
%ADD97C,1.6600*%
%ADD104C,0.3048*%
%ADD112C,0.5080*%
%ADD113C,0.6350*%
%ADD115C,1.2700*%
%ADD117C,2.0320*%
%ADD120C,0.4000*%
%ADD121C,0.6000*%
G36*
X01635892Y01486022D02*
Y01389129D01*
X01610488Y01363726D01*
X01402334Y01363726D01*
X01379248Y01386812D01*
X01379248Y01432242D01*
X01379248Y01436712D01*
X01379308Y01436857D01*
Y01439169D01*
X01379248Y01439313D01*
X01379248Y01484836D01*
X01401748Y01507336D01*
X01401748D01*
X01401748Y01507336D01*
X01401748Y01507336D01*
X01498109Y01507336D01*
X01498815Y01506280D01*
X01498650Y01505882D01*
Y01503570D01*
X01499414Y01501727D01*
X01498650Y01499883D01*
Y01497572D01*
X01499383Y01495802D01*
X01498997Y01494870D01*
X01498368Y01494030D01*
X01497380Y01494023D01*
X01496154Y01494267D01*
X01461584D01*
X01460687Y01494638D01*
X01458376D01*
X01456240Y01493754D01*
X01454606Y01492119D01*
X01453721Y01489984D01*
Y01487672D01*
X01454606Y01485537D01*
X01456240Y01483902D01*
X01458376Y01483018D01*
X01460687D01*
X01461584Y01483389D01*
X01493880D01*
X01494055Y01482968D01*
X01495689Y01481334D01*
X01497824Y01480449D01*
X01500136D01*
X01502271Y01481334D01*
X01503905Y01482968D01*
X01504790Y01485104D01*
Y01487066D01*
X01505616D01*
X01507751Y01487950D01*
X01509385Y01489585D01*
X01509556Y01489996D01*
X01510632D01*
X01512768Y01490880D01*
X01514402Y01492515D01*
X01515287Y01494650D01*
Y01496962D01*
X01514523Y01498806D01*
X01515287Y01500650D01*
Y01502962D01*
X01514402Y01505097D01*
X01513433Y01506066D01*
X01513959Y01507336D01*
X01531464D01*
Y01506180D01*
X01532348Y01504045D01*
X01533983Y01502410D01*
X01536118Y01501526D01*
X01538430D01*
X01540565Y01502410D01*
X01542199Y01504045D01*
X01543084Y01506180D01*
Y01507336D01*
X01544748D01*
Y01506180D01*
X01545632Y01504045D01*
X01547267Y01502410D01*
X01549402Y01501526D01*
X01551714D01*
X01553849Y01502410D01*
X01555484Y01504045D01*
X01556368Y01506180D01*
Y01507336D01*
X01574113Y01507336D01*
X01592208D01*
Y01506180D01*
X01593092Y01504045D01*
X01594727Y01502410D01*
X01596862Y01501526D01*
X01599174D01*
X01601308Y01502410D01*
X01603442Y01501526D01*
X01605754D01*
X01607889Y01502410D01*
X01609523Y01504045D01*
X01610408Y01506180D01*
Y01507336D01*
X01614578D01*
X01635892Y01486022D01*
D02*
G37*
G36*
X01174546Y01485921D02*
Y01389029D01*
X01136543Y01351026D01*
X01046098Y01351026D01*
X01045899Y01351506D01*
X01044092Y01354211D01*
X01041793Y01356510D01*
X01039088Y01358317D01*
X01036084Y01359561D01*
X01032894Y01360196D01*
X01029642D01*
X01026452Y01359561D01*
X01023448Y01358317D01*
X01020743Y01356510D01*
X01018444Y01354211D01*
X01016637Y01351506D01*
X01016438Y01351026D01*
X01005598Y01351026D01*
X01005399Y01351506D01*
X01003592Y01354211D01*
X01001292Y01356510D01*
X00998588Y01358317D01*
X00995584Y01359561D01*
X00992394Y01360196D01*
X00989142D01*
X00985952Y01359561D01*
X00982948Y01358317D01*
X00980244Y01356510D01*
X00977944Y01354211D01*
X00976137Y01351506D01*
X00975938Y01351026D01*
X00880773Y01351026D01*
X00869959Y01361839D01*
X00869959Y01481592D01*
X00895602Y01507235D01*
X00895602D01*
X00895602Y01507235D01*
X00895602Y01507235D01*
X00899178D01*
Y01506180D01*
X00900062Y01504045D01*
X00901697Y01502410D01*
X00903832Y01501526D01*
X00906144D01*
X00907968Y01502281D01*
X00909793Y01501526D01*
X00912104D01*
X00914240Y01502410D01*
X00915874Y01504044D01*
X00916758Y01506180D01*
Y01507235D01*
X00953178Y01507235D01*
Y01506180D01*
X00954062Y01504045D01*
X00955697Y01502410D01*
X00957832Y01501526D01*
X00960144D01*
X00962279Y01502410D01*
X00963913Y01504045D01*
X00964798Y01506180D01*
Y01507235D01*
X01153232Y01507235D01*
X01174546Y01485921D01*
D02*
G37*
G36*
X00554687Y01243506D02*
X00565658Y01232535D01*
Y01057838D01*
X00546066Y01038246D01*
X00444236Y01038246D01*
X00432918Y01049564D01*
Y01127043D01*
X00434188Y01127569D01*
X00435367Y01126391D01*
X00436382Y01125970D01*
X00436836Y01124876D01*
X00438470Y01123241D01*
X00440606Y01122357D01*
X00442917D01*
X00444979Y01123211D01*
X00447041Y01122357D01*
X00449352D01*
X00451488Y01123241D01*
X00453122Y01124876D01*
X00453563Y01125941D01*
X00454649Y01126391D01*
X00456283Y01128025D01*
X00457168Y01130160D01*
Y01132472D01*
X00456283Y01134607D01*
X00454649Y01136242D01*
X00452514Y01137126D01*
X00450202D01*
X00448183Y01136290D01*
X00446164Y01137126D01*
X00443852D01*
X00441833Y01136290D01*
X00439814Y01137126D01*
X00437502D01*
X00435367Y01136242D01*
X00434188Y01135063D01*
X00432918Y01135589D01*
Y01161117D01*
X00434675Y01161845D01*
X00436309Y01163479D01*
X00437194Y01165614D01*
Y01167926D01*
X00436567Y01169440D01*
X00437133Y01170007D01*
X00438018Y01172143D01*
Y01174454D01*
X00437133Y01176589D01*
X00435499Y01178224D01*
X00433364Y01179108D01*
X00432918D01*
Y01215606D01*
X00434329Y01216190D01*
X00435964Y01217825D01*
X00436848Y01219960D01*
Y01222272D01*
X00436045Y01224211D01*
X00436848Y01226150D01*
Y01228462D01*
X00436477Y01229359D01*
Y01236614D01*
X00443368Y01243506D01*
X00554687Y01243506D01*
D02*
G37*
G36*
X00473507Y00736346D02*
X00574684D01*
X00596080Y00714950D01*
Y00661086D01*
X00577080Y00642086D01*
X00495463D01*
X00494977Y00643259D01*
X00495125Y00643407D01*
X00496009Y00645543D01*
Y00647854D01*
X00495131Y00649975D01*
X00496009Y00652095D01*
Y00654407D01*
X00495125Y00656542D01*
X00493490Y00658176D01*
X00491759Y00658893D01*
X00491379Y00660012D01*
X00491387Y00660318D01*
X00491843Y00660774D01*
X00492728Y00662909D01*
Y00665221D01*
X00491843Y00667356D01*
X00490209Y00668990D01*
X00488074Y00669875D01*
X00485762D01*
X00483627Y00668990D01*
X00481992Y00667356D01*
X00481108Y00665221D01*
Y00662909D01*
X00481956Y00660861D01*
X00480723Y00659627D01*
X00479838Y00657492D01*
Y00655180D01*
X00480675Y00653161D01*
X00479838Y00651142D01*
Y00648830D01*
X00480675Y00646811D01*
X00479838Y00644792D01*
Y00642480D01*
X00479575Y00642086D01*
X00462209D01*
X00461744Y00643207D01*
X00460110Y00644841D01*
X00457975Y00645726D01*
X00455663D01*
X00453901Y00644996D01*
X00452139Y00645726D01*
X00449827D01*
X00447983Y00644962D01*
X00446139Y00645726D01*
X00443827D01*
X00441692Y00644841D01*
X00440057Y00643207D01*
X00439593Y00642086D01*
X00403800D01*
X00373857Y00672029D01*
X00373733Y00672327D01*
X00372099Y00673961D01*
X00371801Y00674085D01*
X00370005Y00675881D01*
Y00760946D01*
X00395188Y00786130D01*
X00423723D01*
X00473507Y00736346D01*
D02*
G37*
G36*
X00929552Y00727167D02*
X00929088Y00726702D01*
X00928203Y00724567D01*
Y00722255D01*
X00929088Y00720120D01*
X00930722Y00718485D01*
X00932858Y00717601D01*
X00935169D01*
X00937304Y00718485D01*
X00938939Y00720120D01*
X00939107Y00720526D01*
X01037370D01*
X01052979Y00704917D01*
Y00701534D01*
X01051712Y00700267D01*
X01050828Y00698132D01*
Y00695820D01*
X01051712Y00693685D01*
X01052979Y00692418D01*
Y00651052D01*
X01033979Y00632053D01*
X00949082D01*
X00948376Y00633109D01*
X00948823Y00634188D01*
Y00636499D01*
X00948064Y00638331D01*
X00948178Y00638445D01*
X00949063Y00640580D01*
Y00642892D01*
X00948178Y00645027D01*
X00946544Y00646661D01*
X00944408Y00647546D01*
X00944233D01*
X00943963Y00648197D01*
X00942329Y00649831D01*
X00940194Y00650716D01*
X00937882D01*
X00935747Y00649831D01*
X00934112Y00648197D01*
X00933228Y00646062D01*
Y00643750D01*
X00934064Y00641731D01*
X00933228Y00639712D01*
Y00637400D01*
X00934112Y00635265D01*
X00934199Y00635178D01*
X00933383Y00633208D01*
Y00632053D01*
X00914503D01*
X00913304Y00633251D01*
X00911169Y00634136D01*
X00908858D01*
X00906722Y00633251D01*
X00905523Y00632053D01*
X00860699D01*
X00843424Y00649328D01*
X00844081Y00650467D01*
X00844549Y00650341D01*
X00846342D01*
X00847317Y00650603D01*
X00847590Y00650129D01*
X00848858Y00648861D01*
X00850411Y00647965D01*
X00852143Y00647501D01*
X00853936D01*
X00855668Y00647965D01*
X00857210Y00648855D01*
X00857808Y00648257D01*
X00859361Y00647360D01*
X00861093Y00646896D01*
X00862886D01*
X00864618Y00647360D01*
X00866171Y00648257D01*
X00867326Y00649412D01*
X00867695Y00649516D01*
X00868878Y00649477D01*
X00869856Y00648500D01*
X00871409Y00647603D01*
X00873141Y00647139D01*
X00874934D01*
X00876666Y00647603D01*
X00878112Y00648438D01*
X00878294Y00648257D01*
X00879847Y00647360D01*
X00881579Y00646896D01*
X00883372D01*
X00885104Y00647360D01*
X00886657Y00648257D01*
X00887925Y00649525D01*
X00888481Y00650489D01*
X00888612D01*
X00890344Y00650953D01*
X00891897Y00651850D01*
X00893165Y00653117D01*
X00894061Y00654670D01*
X00894525Y00656402D01*
Y00658195D01*
X00894061Y00659928D01*
X00893165Y00661480D01*
X00891897Y00662748D01*
X00890344Y00663645D01*
X00888612Y00664109D01*
X00886819D01*
X00885087Y00663645D01*
X00883534Y00662748D01*
X00882358Y00661573D01*
X00881949Y00661615D01*
X00881088Y00661981D01*
Y00662592D01*
X00880624Y00664324D01*
X00879728Y00665877D01*
X00878460Y00667145D01*
X00876907Y00668042D01*
X00875175Y00668506D01*
X00873382D01*
X00871650Y00668042D01*
X00870097Y00667145D01*
X00868829Y00665877D01*
X00868078Y00664577D01*
X00867206Y00664419D01*
X00866662Y00664490D01*
X00866542Y00664697D01*
X00865274Y00665965D01*
X00863721Y00666862D01*
X00861989Y00667326D01*
X00860196D01*
X00858464Y00666862D01*
X00856911Y00665965D01*
X00855643Y00664697D01*
X00854747Y00663145D01*
X00854515Y00662280D01*
X00853936Y00661121D01*
X00852143D01*
X00851168Y00660859D01*
X00850895Y00661333D01*
X00849627Y00662601D01*
X00848074Y00663497D01*
X00846342Y00663961D01*
X00844549D01*
X00842817Y00663497D01*
X00841264Y00662601D01*
X00839996Y00661333D01*
X00839100Y00659780D01*
X00838636Y00658048D01*
Y00656255D01*
X00838761Y00655787D01*
X00837622Y00655130D01*
X00826904Y00665848D01*
Y00733768D01*
X00860375Y00767239D01*
X00889480D01*
X00929552Y00727167D01*
D02*
G37*
G36*
X01573380Y00940584D02*
Y00660672D01*
X01543575Y00630866D01*
X01533831D01*
X01533305Y00632136D01*
X01533893Y00632725D01*
X01534143Y00633328D01*
X01534949D01*
X01537084Y00634212D01*
X01538718Y00635847D01*
X01539603Y00637982D01*
Y00640294D01*
X01538718Y00642429D01*
X01538694Y00642453D01*
X01538719Y00642478D01*
X01539603Y00644613D01*
Y00646925D01*
X01538719Y00649060D01*
X01537084Y00650694D01*
X01534949Y00651579D01*
X01533891D01*
X01533714Y00652007D01*
X01532079Y00653642D01*
X01529944Y00654526D01*
X01527632D01*
X01525497Y00653642D01*
X01523862Y00652007D01*
X01522978Y00649872D01*
Y00647560D01*
X01523861Y00645429D01*
X01522978Y00643298D01*
Y00640986D01*
X01523858Y00638862D01*
X01523158Y00637172D01*
Y00634860D01*
X01524043Y00632725D01*
X01524631Y00632136D01*
X01524105Y00630866D01*
X01499677D01*
Y00632022D01*
X01498793Y00634157D01*
X01497159Y00635792D01*
X01495023Y00636676D01*
X01492712D01*
X01490828Y00635896D01*
X01488944Y00636676D01*
X01486632D01*
X01484497Y00635792D01*
X01482863Y00634157D01*
X01481978Y00632022D01*
Y00630866D01*
X01391158D01*
X01388210Y00633814D01*
X01388930Y00634890D01*
X01390002Y00634446D01*
X01392314D01*
X01394449Y00635331D01*
X01396084Y00636965D01*
X01396968Y00639100D01*
Y00641412D01*
X01396084Y00643547D01*
X01394510Y00645121D01*
X01396084Y00646695D01*
X01396838Y00648517D01*
X01398412Y00649169D01*
X01400046Y00650803D01*
X01400931Y00652939D01*
Y00655250D01*
X01400046Y00657385D01*
X01399650Y00657782D01*
X01400046Y00658178D01*
X01400931Y00660313D01*
Y00662624D01*
X01400046Y00664760D01*
X01398412Y00666394D01*
X01396663Y00667119D01*
X01396084Y00668517D01*
X01394449Y00670152D01*
X01392314Y00671036D01*
X01390002D01*
X01387867Y00670152D01*
X01386232Y00668517D01*
X01385348Y00666382D01*
Y00664070D01*
X01386232Y00661935D01*
X01386751Y00661416D01*
X01386232Y00660897D01*
X01385348Y00658762D01*
Y00656450D01*
X01386232Y00654315D01*
X01386751Y00653796D01*
X01386232Y00653277D01*
X01385348Y00651142D01*
Y00648830D01*
X01386232Y00646695D01*
X01387806Y00645121D01*
X01386232Y00643547D01*
X01385348Y00641412D01*
Y00639100D01*
X01385792Y00638028D01*
X01384716Y00637308D01*
X01377188Y00644836D01*
Y00940816D01*
X01410208Y00973836D01*
X01540128D01*
X01573380Y00940584D01*
D02*
G37*
%LPC*%
G36*
X01545674Y01491916D02*
X01543362D01*
X01541227Y01491031D01*
X01539592Y01489397D01*
X01538708Y01487262D01*
Y01484950D01*
X01539592Y01482815D01*
X01541227Y01481181D01*
X01543362Y01480296D01*
X01545674D01*
X01547809Y01481181D01*
X01549444Y01482815D01*
X01550328Y01484950D01*
Y01487262D01*
X01549444Y01489397D01*
X01547809Y01491031D01*
X01545674Y01491916D01*
D02*
G37*
G36*
X01503212Y01475184D02*
X01500901D01*
X01498765Y01474300D01*
X01498163Y01473698D01*
X01467084D01*
X01466187Y01474069D01*
X01463876D01*
X01461740Y01473185D01*
X01460106Y01471550D01*
X01459221Y01469415D01*
Y01467104D01*
X01460106Y01464968D01*
X01461740Y01463334D01*
X01463876Y01462449D01*
X01466187D01*
X01467084Y01462821D01*
X01493444D01*
Y01461227D01*
X01494329Y01459092D01*
X01495963Y01457457D01*
X01498099Y01456573D01*
X01500410D01*
X01502545Y01457457D01*
X01504180Y01459092D01*
X01505064Y01461227D01*
Y01463538D01*
X01504784Y01464216D01*
X01505347Y01464449D01*
X01506982Y01466083D01*
X01507866Y01468219D01*
Y01470530D01*
X01506982Y01472666D01*
X01505347Y01474300D01*
X01503212Y01475184D01*
D02*
G37*
G36*
X01567314Y01488666D02*
X01565522D01*
X01563789Y01488202D01*
X01562237Y01487306D01*
X01560969Y01486038D01*
X01560618Y01485431D01*
X01560341D01*
X01558609Y01484967D01*
X01557056Y01484070D01*
X01555788Y01482802D01*
X01554892Y01481249D01*
X01554428Y01479517D01*
Y01477724D01*
X01554892Y01475992D01*
X01555788Y01474439D01*
X01557056Y01473171D01*
X01558609Y01472275D01*
X01560341Y01471811D01*
X01562134D01*
X01563866Y01472275D01*
X01564794Y01472810D01*
X01566179Y01472336D01*
X01566259Y01472249D01*
X01566469Y01471465D01*
X01567366Y01469912D01*
X01568634Y01468644D01*
X01570186Y01467747D01*
X01571918Y01467283D01*
X01572441D01*
X01573614Y01466982D01*
X01573614Y01466113D01*
Y01464671D01*
X01574342Y01462913D01*
X01573461Y01460786D01*
Y01458474D01*
X01574346Y01456339D01*
X01575980Y01454704D01*
X01578116Y01453820D01*
X01580427D01*
X01582562Y01454704D01*
X01584197Y01456339D01*
X01585081Y01458474D01*
Y01460786D01*
X01584353Y01462543D01*
X01585234Y01464671D01*
Y01465865D01*
X01586504Y01466840D01*
X01586582Y01466819D01*
X01588375D01*
X01590107Y01467283D01*
X01591660Y01468180D01*
X01592928Y01469448D01*
X01593824Y01471001D01*
X01594276Y01472686D01*
X01594409Y01473047D01*
X01595296Y01473727D01*
X01595661Y01473629D01*
X01597455D01*
X01597778Y01473716D01*
X01599041Y01472452D01*
X01599558Y01472154D01*
X01599673Y01471283D01*
X01598788Y01469147D01*
Y01466836D01*
X01599673Y01464701D01*
X01601307Y01463066D01*
X01603442Y01462182D01*
X01603514D01*
Y01461561D01*
X01604398Y01459425D01*
X01606033Y01457791D01*
X01608168Y01456906D01*
X01610480D01*
X01612615Y01457791D01*
X01614250Y01459425D01*
X01615134Y01461561D01*
Y01463872D01*
X01614250Y01466007D01*
X01612615Y01467642D01*
X01610480Y01468526D01*
X01610408D01*
Y01469147D01*
X01609523Y01471283D01*
X01607889Y01472917D01*
X01608297Y01473346D01*
X01608672Y01473720D01*
X01609568Y01475273D01*
X01610033Y01477005D01*
Y01478798D01*
X01609568Y01480530D01*
X01608672Y01482083D01*
X01607404Y01483351D01*
X01605851Y01484247D01*
X01604119Y01484711D01*
X01602326D01*
X01602003Y01484625D01*
X01600739Y01485888D01*
X01599187Y01486785D01*
X01597455Y01487249D01*
X01595661D01*
X01593929Y01486785D01*
X01592377Y01485888D01*
X01591570Y01485082D01*
X01590763Y01485888D01*
X01589211Y01486785D01*
X01587478Y01487249D01*
X01585685D01*
X01583953Y01486785D01*
X01582401Y01485888D01*
X01581334Y01484822D01*
X01580558Y01484706D01*
X01579782Y01484822D01*
X01578716Y01485888D01*
X01577163Y01486785D01*
X01575431Y01487249D01*
X01573638D01*
X01571905Y01486785D01*
X01571408Y01486498D01*
X01570599Y01487306D01*
X01569047Y01488202D01*
X01567314Y01488666D01*
D02*
G37*
G36*
X01580274Y01443862D02*
X01577962D01*
X01575827Y01442978D01*
X01574193Y01441344D01*
X01573308Y01439208D01*
Y01436897D01*
X01574193Y01434761D01*
X01575827Y01433127D01*
X01577962Y01432242D01*
X01580274D01*
X01582409Y01433127D01*
X01584043Y01434761D01*
X01584928Y01436897D01*
Y01439208D01*
X01584043Y01441344D01*
X01582409Y01442978D01*
X01580274Y01443862D01*
D02*
G37*
G36*
X01541240Y01456469D02*
X01538929D01*
X01536793Y01455585D01*
X01535159Y01453951D01*
X01534557Y01452498D01*
X01533652Y01452123D01*
X01532018Y01450488D01*
X01531133Y01448353D01*
Y01447518D01*
X01529742Y01446127D01*
X01528858Y01443992D01*
Y01441680D01*
X01529378Y01440424D01*
X01528858Y01439169D01*
Y01436857D01*
X01529742Y01434722D01*
X01531377Y01433087D01*
X01533512Y01432203D01*
X01535824D01*
X01537959Y01433087D01*
X01539594Y01434722D01*
X01540478Y01436857D01*
Y01439169D01*
X01539958Y01440424D01*
X01540478Y01441680D01*
Y01442516D01*
X01541868Y01443906D01*
X01542470Y01445359D01*
X01543376Y01445734D01*
X01545010Y01447368D01*
X01545894Y01449504D01*
Y01451815D01*
X01545010Y01453951D01*
X01543376Y01455585D01*
X01541240Y01456469D01*
D02*
G37*
G36*
X01490485Y01405096D02*
X01488174D01*
X01486039Y01404211D01*
X01484404Y01402577D01*
X01483520Y01400442D01*
Y01398130D01*
X01484404Y01395995D01*
X01486039Y01394361D01*
X01488174Y01393476D01*
X01490485D01*
X01492621Y01394361D01*
X01494255Y01395995D01*
X01495140Y01398130D01*
Y01400442D01*
X01494255Y01402577D01*
X01492621Y01404211D01*
X01490485Y01405096D01*
D02*
G37*
G36*
X00927666Y01487306D02*
X00925873D01*
X00924141Y01486842D01*
X00922589Y01485946D01*
X00921320Y01484678D01*
X00920746Y01483682D01*
X00920435D01*
X00918703Y01483218D01*
X00917150Y01482322D01*
X00915882Y01481054D01*
X00914986Y01479501D01*
X00914522Y01477769D01*
Y01475976D01*
X00914986Y01474244D01*
X00915882Y01472691D01*
X00917150Y01471423D01*
X00918703Y01470526D01*
X00920435Y01470062D01*
X00922228D01*
X00923960Y01470526D01*
X00925513Y01471423D01*
X00925987Y01471897D01*
X00926856Y01471651D01*
X00927293Y01471406D01*
X00927722Y01469805D01*
X00928618Y01468253D01*
X00929886Y01466985D01*
X00931439Y01466088D01*
X00933171Y01465624D01*
X00934964D01*
X00935912Y01465878D01*
X00936569Y01464739D01*
X00936062Y01464233D01*
X00935178Y01462097D01*
Y01459786D01*
X00936062Y01457651D01*
X00936294Y01457419D01*
X00936062Y01457187D01*
X00935178Y01455052D01*
Y01452740D01*
X00936014Y01450721D01*
X00935178Y01448702D01*
Y01446390D01*
X00936014Y01444371D01*
X00935178Y01442352D01*
Y01440040D01*
X00936062Y01437905D01*
X00937697Y01436270D01*
X00939832Y01435386D01*
X00942144D01*
X00944279Y01436270D01*
X00945913Y01437905D01*
X00946798Y01440040D01*
Y01442352D01*
X00945962Y01444371D01*
X00946798Y01446390D01*
Y01448702D01*
X00945962Y01450721D01*
X00946798Y01452740D01*
Y01455052D01*
X00945913Y01457187D01*
X00945682Y01457419D01*
X00945913Y01457651D01*
X00946798Y01459786D01*
Y01462097D01*
X00945913Y01464233D01*
X00945706Y01464440D01*
X00946363Y01465579D01*
X00947457Y01465286D01*
X00949250D01*
X00950982Y01465750D01*
X00952535Y01466647D01*
X00953803Y01467914D01*
X00954699Y01469467D01*
X00955164Y01471199D01*
Y01471777D01*
X00956020Y01472434D01*
X00957813D01*
X00959545Y01472898D01*
X00960114Y01473227D01*
X00961390Y01472490D01*
X00963122Y01472026D01*
X00964915D01*
X00966647Y01472490D01*
X00968200Y01473387D01*
X00969467Y01474655D01*
X00970364Y01476207D01*
X00970828Y01477939D01*
Y01479733D01*
X00970364Y01481465D01*
X00969467Y01483017D01*
X00968200Y01484285D01*
X00966647Y01485182D01*
X00964915Y01485646D01*
X00963122D01*
X00961390Y01485182D01*
X00960821Y01484853D01*
X00959545Y01485590D01*
X00957813Y01486054D01*
X00956020D01*
X00954288Y01485590D01*
X00952735Y01484693D01*
X00952052Y01484010D01*
X00951368Y01484693D01*
X00949816Y01485590D01*
X00948083Y01486054D01*
X00946291D01*
X00944558Y01485590D01*
X00943006Y01484693D01*
X00941828Y01483516D01*
X00941431Y01483378D01*
X00940720D01*
X00940323Y01483516D01*
X00939146Y01484693D01*
X00937593Y01485590D01*
X00935861Y01486054D01*
X00934068D01*
X00932335Y01485590D01*
X00931684Y01485213D01*
X00930951Y01485946D01*
X00929398Y01486842D01*
X00927666Y01487306D01*
D02*
G37*
G36*
X00878599Y01471951D02*
X00876287D01*
X00874152Y01471066D01*
X00872517Y01469432D01*
X00871633Y01467296D01*
Y01464985D01*
X00872517Y01462849D01*
X00874152Y01461215D01*
X00876287Y01460331D01*
X00878599D01*
X00880734Y01461215D01*
X00882368Y01462849D01*
X00883253Y01464985D01*
Y01467296D01*
X00882368Y01469432D01*
X00880734Y01471066D01*
X00878599Y01471951D01*
D02*
G37*
G36*
X00975404Y01465596D02*
X00973092D01*
X00970957Y01464711D01*
X00969323Y01463077D01*
X00968438Y01460942D01*
Y01458630D01*
X00969323Y01456495D01*
X00970957Y01454861D01*
X00973092Y01453976D01*
X00975404D01*
X00977539Y01454861D01*
X00979174Y01456495D01*
X00980058Y01458630D01*
Y01460942D01*
X00979174Y01463077D01*
X00977539Y01464711D01*
X00975404Y01465596D01*
D02*
G37*
G36*
X01123594Y01449546D02*
X01121283D01*
X01119147Y01448661D01*
X01118643Y01448158D01*
X01118139Y01448661D01*
X01116004Y01449546D01*
X01113692D01*
X01111557Y01448661D01*
X01110985Y01448090D01*
X01110414Y01448661D01*
X01108278Y01449546D01*
X01105967D01*
X01103831Y01448661D01*
X01102622Y01447452D01*
X01101810Y01447164D01*
X01100999Y01447452D01*
X01099789Y01448661D01*
X01097654Y01449546D01*
X01095342D01*
X01093207Y01448661D01*
X01092353Y01447807D01*
X01091499Y01448661D01*
X01089364Y01449546D01*
X01087052D01*
X01084917Y01448661D01*
X01084013Y01447758D01*
X01083109Y01448661D01*
X01080974Y01449546D01*
X01078662D01*
X01076527Y01448661D01*
X01074893Y01447027D01*
X01074505Y01446092D01*
X01073131D01*
X01072743Y01447027D01*
X01071109Y01448661D01*
X01068974Y01449546D01*
X01066662D01*
X01064527Y01448661D01*
X01063361Y01447495D01*
X01062194Y01448661D01*
X01060059Y01449546D01*
X01057747D01*
X01055612Y01448661D01*
X01054215Y01447265D01*
X01052819Y01448661D01*
X01050684Y01449546D01*
X01048372D01*
X01046237Y01448661D01*
X01045083Y01447507D01*
X01043929Y01448661D01*
X01041794Y01449546D01*
X01039482D01*
X01037347Y01448661D01*
X01035713Y01447027D01*
X01034828Y01444892D01*
Y01442580D01*
X01035713Y01440445D01*
X01037347Y01438810D01*
X01039482Y01437926D01*
X01041794D01*
X01043929Y01438810D01*
X01045083Y01439964D01*
X01046237Y01438810D01*
X01048372Y01437926D01*
X01050684D01*
X01052819Y01438810D01*
X01054215Y01440207D01*
X01055612Y01438810D01*
X01057747Y01437926D01*
X01060059D01*
X01062194Y01438810D01*
X01063361Y01439977D01*
X01064527Y01438810D01*
X01066662Y01437926D01*
X01068974D01*
X01071109Y01438810D01*
X01072743Y01440445D01*
X01073131Y01441380D01*
X01074505D01*
X01074893Y01440445D01*
X01076527Y01438810D01*
X01078662Y01437926D01*
X01080974D01*
X01083109Y01438810D01*
X01084013Y01439714D01*
X01084917Y01438810D01*
X01087052Y01437926D01*
X01089364D01*
X01091499Y01438810D01*
X01092353Y01439664D01*
X01093207Y01438810D01*
X01095342Y01437926D01*
X01097654D01*
X01099789Y01438810D01*
X01100999Y01440020D01*
X01101810Y01440308D01*
X01102622Y01440020D01*
X01103831Y01438810D01*
X01105967Y01437926D01*
X01108278D01*
X01110414Y01438810D01*
X01110985Y01439382D01*
X01111557Y01438810D01*
X01113692Y01437926D01*
X01116004D01*
X01118139Y01438810D01*
X01118643Y01439315D01*
X01119147Y01438810D01*
X01121283Y01437926D01*
X01123594D01*
X01125729Y01438810D01*
X01127364Y01440445D01*
X01128248Y01442580D01*
Y01444892D01*
X01127364Y01447027D01*
X01125729Y01448661D01*
X01123594Y01449546D01*
D02*
G37*
G36*
X00899554Y01457077D02*
X00897242D01*
X00895107Y01456193D01*
X00893473Y01454559D01*
X00892588Y01452423D01*
Y01450112D01*
X00893329Y01448322D01*
X00892588Y01446532D01*
Y01444220D01*
X00893238Y01442651D01*
X00892588Y01441082D01*
Y01438770D01*
X00893473Y01436635D01*
X00895107Y01435000D01*
X00897242Y01434116D01*
X00899554D01*
X00901689Y01435000D01*
X00903324Y01436635D01*
X00904208Y01438770D01*
Y01441082D01*
X00903558Y01442651D01*
X00904208Y01444220D01*
Y01446532D01*
X00903466Y01448322D01*
X00904208Y01450112D01*
Y01452423D01*
X00903324Y01454559D01*
X00901689Y01456193D01*
X00899554Y01457077D01*
D02*
G37*
G36*
X01029899Y01403544D02*
X01028106D01*
X01026374Y01403080D01*
X01024821Y01402183D01*
X01023553Y01400916D01*
X01022656Y01399363D01*
X01022192Y01397631D01*
Y01395838D01*
X01022656Y01394105D01*
X01023553Y01392553D01*
X01024821Y01391285D01*
X01026374Y01390388D01*
X01028106Y01389924D01*
X01029899D01*
X01031631Y01390388D01*
X01033184Y01391285D01*
X01034452Y01392553D01*
X01035348Y01394105D01*
X01035812Y01395838D01*
Y01397631D01*
X01035348Y01399363D01*
X01034452Y01400916D01*
X01033184Y01402183D01*
X01031631Y01403080D01*
X01029899Y01403544D01*
D02*
G37*
G36*
X01115745Y01378309D02*
X01113951D01*
X01112219Y01377845D01*
X01110667Y01376949D01*
X01109399Y01375681D01*
X01108502Y01374128D01*
X01108038Y01372396D01*
Y01370603D01*
X01108502Y01368871D01*
X01109399Y01367318D01*
X01110667Y01366050D01*
X01112219Y01365154D01*
X01113951Y01364689D01*
X01115745D01*
X01117477Y01365154D01*
X01119029Y01366050D01*
X01120297Y01367318D01*
X01121194Y01368871D01*
X01121658Y01370603D01*
Y01372396D01*
X01121194Y01374128D01*
X01120297Y01375681D01*
X01119029Y01376949D01*
X01117477Y01377845D01*
X01115745Y01378309D01*
D02*
G37*
G36*
X00921984Y01366356D02*
X00919672D01*
X00917537Y01365471D01*
X00915903Y01363837D01*
X00915018Y01361702D01*
Y01359390D01*
X00915903Y01357255D01*
X00917537Y01355621D01*
X00919672Y01354736D01*
X00921984D01*
X00924119Y01355621D01*
X00925753Y01357255D01*
X00926638Y01359390D01*
Y01361702D01*
X00925753Y01363837D01*
X00924119Y01365471D01*
X00921984Y01366356D01*
D02*
G37*
G36*
X00477155Y01236697D02*
X00474843D01*
X00472708Y01235813D01*
X00471074Y01234178D01*
X00470189Y01232043D01*
Y01229732D01*
X00471074Y01227596D01*
X00472708Y01225962D01*
X00474843Y01225077D01*
X00477155D01*
X00479290Y01225962D01*
X00480925Y01227596D01*
X00481809Y01229732D01*
Y01232043D01*
X00480925Y01234178D01*
X00479290Y01235813D01*
X00477155Y01236697D01*
D02*
G37*
G36*
X00514315Y01227581D02*
X00512003D01*
X00509868Y01226696D01*
X00508234Y01225062D01*
X00507349Y01222927D01*
Y01222061D01*
X00507078D01*
X00504942Y01221177D01*
X00503308Y01219543D01*
X00502424Y01217407D01*
Y01217136D01*
X00502272D01*
X00500137Y01216252D01*
X00498503Y01214617D01*
X00497685Y01212643D01*
X00495781Y01211855D01*
X00494146Y01210220D01*
X00493262Y01208085D01*
Y01205773D01*
X00494146Y01203638D01*
X00495781Y01202004D01*
X00497916Y01201119D01*
X00500228D01*
X00502363Y01202004D01*
X00503997Y01203638D01*
X00504815Y01205612D01*
X00506719Y01206401D01*
X00508354Y01208035D01*
X00509238Y01210170D01*
Y01210442D01*
X00509389D01*
X00511525Y01211326D01*
X00513159Y01212960D01*
X00514044Y01215096D01*
Y01215961D01*
X00514315D01*
X00516450Y01216845D01*
X00518084Y01218480D01*
X00518969Y01220615D01*
Y01222927D01*
X00518084Y01225062D01*
X00516450Y01226696D01*
X00514315Y01227581D01*
D02*
G37*
G36*
X00458414Y01231716D02*
X00456621D01*
X00454889Y01231252D01*
X00453336Y01230355D01*
X00452069Y01229087D01*
X00451172Y01227534D01*
X00450708Y01225802D01*
Y01224009D01*
X00451172Y01222277D01*
X00452069Y01220724D01*
X00453304Y01219489D01*
X00453058Y01218572D01*
Y01216779D01*
X00453522Y01215047D01*
X00454419Y01213495D01*
X00454659Y01213254D01*
X00453902Y01211944D01*
X00453438Y01210211D01*
Y01208419D01*
X00453902Y01206686D01*
X00454799Y01205134D01*
X00455717Y01204215D01*
X00455777Y01203031D01*
X00455643Y01202644D01*
X00454521Y01201522D01*
X00453625Y01199969D01*
X00453161Y01198237D01*
Y01196444D01*
X00453625Y01194712D01*
X00453640Y01194685D01*
X00453111Y01194156D01*
X00452214Y01192603D01*
X00451750Y01190871D01*
Y01189078D01*
X00452214Y01187346D01*
X00453111Y01185793D01*
X00454379Y01184525D01*
X00455932Y01183629D01*
X00457664Y01183165D01*
X00459457D01*
X00460207Y01183365D01*
X00460555Y01183017D01*
X00462108Y01182120D01*
X00463840Y01181656D01*
X00465634D01*
X00467365Y01182120D01*
X00468918Y01183017D01*
X00470186Y01184285D01*
X00471083Y01185837D01*
X00471547Y01187570D01*
Y01189362D01*
X00471083Y01191095D01*
X00470884Y01191439D01*
X00472012Y01192567D01*
X00472908Y01194120D01*
X00473372Y01195852D01*
Y01197645D01*
X00472908Y01199377D01*
X00472012Y01200930D01*
X00470744Y01202197D01*
X00470130Y01202552D01*
X00470113Y01202596D01*
X00470192Y01203982D01*
X00471239Y01204587D01*
X00472507Y01205855D01*
X00473404Y01207408D01*
X00473868Y01209140D01*
Y01210933D01*
X00473404Y01212665D01*
X00472507Y01214218D01*
X00471239Y01215486D01*
X00469687Y01216383D01*
X00467954Y01216846D01*
X00466678D01*
Y01218572D01*
X00466214Y01220305D01*
X00465317Y01221857D01*
X00464082Y01223092D01*
X00464328Y01224009D01*
Y01225802D01*
X00463864Y01227534D01*
X00462967Y01229087D01*
X00461699Y01230355D01*
X00460147Y01231252D01*
X00458414Y01231716D01*
D02*
G37*
G36*
X00527444Y01160926D02*
X00525132D01*
X00522997Y01160042D01*
X00521843Y01158888D01*
X00520689Y01160042D01*
X00518554Y01160926D01*
X00516242D01*
X00514107Y01160042D01*
X00512953Y01158888D01*
X00511799Y01160042D01*
X00509664Y01160926D01*
X00507352D01*
X00505217Y01160042D01*
X00504063Y01158888D01*
X00502909Y01160042D01*
X00500774Y01160926D01*
X00498462D01*
X00496327Y01160042D01*
X00494692Y01158407D01*
X00493808Y01156272D01*
Y01153960D01*
X00494692Y01151825D01*
X00496327Y01150191D01*
X00498462Y01149306D01*
X00500774D01*
X00502909Y01150191D01*
X00504063Y01151344D01*
X00505217Y01150191D01*
X00507352Y01149306D01*
X00509664D01*
X00511799Y01150191D01*
X00512953Y01151344D01*
X00514107Y01150191D01*
X00516242Y01149306D01*
X00518554D01*
X00520689Y01150191D01*
X00521843Y01151344D01*
X00522997Y01150191D01*
X00525132Y01149306D01*
X00527444D01*
X00529579Y01150191D01*
X00531213Y01151825D01*
X00532098Y01153960D01*
Y01156272D01*
X00531213Y01158407D01*
X00529579Y01160042D01*
X00527444Y01160926D01*
D02*
G37*
G36*
X00481728Y01150054D02*
X00479417D01*
X00477281Y01149170D01*
X00475647Y01147535D01*
X00474762Y01145400D01*
Y01143089D01*
X00475647Y01140953D01*
X00477281Y01139319D01*
X00479417Y01138434D01*
X00481728D01*
X00483864Y01139319D01*
X00485498Y01140953D01*
X00486382Y01143089D01*
Y01145400D01*
X00485498Y01147535D01*
X00483864Y01149170D01*
X00481728Y01150054D01*
D02*
G37*
G36*
X00525006Y01131481D02*
X00522695D01*
X00520559Y01130596D01*
X00518925Y01128962D01*
X00518041Y01126827D01*
Y01124515D01*
X00518925Y01122380D01*
X00520559Y01120745D01*
X00522695Y01119861D01*
X00525006D01*
X00527142Y01120745D01*
X00528776Y01122380D01*
X00529660Y01124515D01*
Y01126827D01*
X00528776Y01128962D01*
X00527142Y01130596D01*
X00525006Y01131481D01*
D02*
G37*
G36*
X00553753Y01125917D02*
X00551441D01*
X00549306Y01125032D01*
X00547672Y01123398D01*
X00546787Y01121263D01*
Y01118951D01*
X00547672Y01116816D01*
X00549306Y01115182D01*
X00551441Y01114297D01*
X00553753D01*
X00555888Y01115182D01*
X00557522Y01116816D01*
X00558407Y01118951D01*
Y01121263D01*
X00557522Y01123398D01*
X00555888Y01125032D01*
X00553753Y01125917D01*
D02*
G37*
G36*
X00544524Y01108636D02*
X00542212D01*
X00540077Y01107751D01*
X00538442Y01106117D01*
X00537558Y01103982D01*
Y01101670D01*
X00538442Y01099535D01*
X00540077Y01097900D01*
X00542212Y01097016D01*
X00544524D01*
X00546659Y01097900D01*
X00548293Y01099535D01*
X00549178Y01101670D01*
Y01103982D01*
X00548293Y01106117D01*
X00546659Y01107751D01*
X00544524Y01108636D01*
D02*
G37*
G36*
X00503286Y00728036D02*
X00500975D01*
X00498839Y00727151D01*
X00497205Y00725517D01*
X00496320Y00723382D01*
Y00721070D01*
X00497205Y00718935D01*
X00498839Y00717300D01*
X00500975Y00716416D01*
X00503286D01*
X00505421Y00717300D01*
X00507056Y00718935D01*
X00507940Y00721070D01*
Y00723382D01*
X00507056Y00725517D01*
X00505421Y00727151D01*
X00503286Y00728036D01*
D02*
G37*
G36*
X00536827Y00715575D02*
X00534515D01*
X00532380Y00714690D01*
X00530745Y00713056D01*
X00529861Y00710921D01*
Y00708609D01*
X00530745Y00706474D01*
X00532380Y00704840D01*
X00534515Y00703955D01*
X00536827D01*
X00538962Y00704840D01*
X00540596Y00706474D01*
X00541481Y00708609D01*
Y00710921D01*
X00540596Y00713056D01*
X00538962Y00714690D01*
X00536827Y00715575D01*
D02*
G37*
G36*
X00484379Y00733266D02*
X00482067D01*
X00479932Y00732382D01*
X00478298Y00730747D01*
X00477413Y00728612D01*
Y00726300D01*
X00477148Y00725904D01*
X00476197D01*
X00474062Y00725019D01*
X00472427Y00723385D01*
X00471543Y00721249D01*
Y00719886D01*
X00470387D01*
X00468252Y00719001D01*
X00466618Y00717367D01*
X00465733Y00715232D01*
Y00712946D01*
X00464172D01*
X00462037Y00712061D01*
X00460402Y00710427D01*
X00459518Y00708292D01*
Y00705980D01*
X00460402Y00703845D01*
X00462037Y00702210D01*
X00464172Y00701326D01*
X00466484D01*
X00468619Y00702210D01*
X00470253Y00703845D01*
X00471138Y00705980D01*
Y00708266D01*
X00472699D01*
X00474834Y00709150D01*
X00476469Y00710785D01*
X00477353Y00712920D01*
Y00714284D01*
X00478509D01*
X00480644Y00715168D01*
X00482279Y00716803D01*
X00483163Y00718938D01*
Y00721249D01*
X00483428Y00721646D01*
X00484379D01*
X00486514Y00722531D01*
X00488148Y00724165D01*
X00489033Y00726300D01*
Y00728612D01*
X00488148Y00730747D01*
X00486514Y00732382D01*
X00484379Y00733266D01*
D02*
G37*
G36*
X00399809Y00725646D02*
X00397497D01*
X00395362Y00724762D01*
X00393727Y00723127D01*
X00392843Y00720992D01*
Y00718680D01*
X00393727Y00716545D01*
X00394246Y00716026D01*
X00393727Y00715507D01*
X00392843Y00713372D01*
Y00711060D01*
X00393727Y00708925D01*
X00394573Y00708080D01*
X00393727Y00707234D01*
X00392843Y00705099D01*
Y00702787D01*
X00393727Y00700652D01*
X00394121Y00700258D01*
X00393727Y00699865D01*
X00392843Y00697730D01*
Y00695418D01*
X00393727Y00693283D01*
X00395362Y00691648D01*
X00397497Y00690764D01*
X00399809D01*
X00401944Y00691648D01*
X00403578Y00693283D01*
X00404463Y00695418D01*
Y00697730D01*
X00403578Y00699865D01*
X00403185Y00700258D01*
X00403578Y00700652D01*
X00404463Y00702787D01*
Y00705099D01*
X00403578Y00707234D01*
X00402733Y00708080D01*
X00403578Y00708925D01*
X00404463Y00711060D01*
Y00713372D01*
X00403578Y00715507D01*
X00403060Y00716026D01*
X00403578Y00716545D01*
X00404463Y00718680D01*
Y00720992D01*
X00403578Y00723127D01*
X00401944Y00724762D01*
X00399809Y00725646D01*
D02*
G37*
G36*
X00408178Y00680116D02*
X00406385D01*
X00404653Y00679652D01*
X00403100Y00678755D01*
X00401832Y00677487D01*
X00400936Y00675935D01*
X00400649Y00674865D01*
X00399334D01*
X00399216Y00675306D01*
X00398320Y00676859D01*
X00397052Y00678127D01*
X00395499Y00679023D01*
X00393767Y00679487D01*
X00391974D01*
X00390242Y00679023D01*
X00388689Y00678127D01*
X00387421Y00676859D01*
X00386524Y00675306D01*
X00386060Y00673574D01*
Y00671781D01*
X00386524Y00670049D01*
X00387421Y00668496D01*
X00388689Y00667228D01*
X00390242Y00666331D01*
X00391443Y00666009D01*
Y00665600D01*
X00391907Y00663867D01*
X00392804Y00662315D01*
X00394072Y00661047D01*
X00395624Y00660150D01*
X00397356Y00659686D01*
X00399150D01*
X00400882Y00660150D01*
X00402435Y00661047D01*
X00403215Y00661828D01*
X00403997Y00661047D01*
X00405550Y00660150D01*
X00407281Y00659686D01*
X00409075D01*
X00410807Y00660150D01*
X00412360Y00661047D01*
X00413627Y00662315D01*
X00413980Y00662926D01*
X00415447D01*
X00415800Y00662315D01*
X00417068Y00661047D01*
X00418621Y00660150D01*
X00420353Y00659686D01*
X00422146D01*
X00423878Y00660150D01*
X00425333Y00660990D01*
X00425587Y00660737D01*
X00427139Y00659840D01*
X00428871Y00659377D01*
X00430664D01*
X00432397Y00659840D01*
X00433949Y00660737D01*
X00435217Y00662005D01*
X00436114Y00663558D01*
X00436399Y00664620D01*
X00436879Y00664749D01*
X00438431Y00665645D01*
X00439699Y00666913D01*
X00440596Y00668466D01*
X00441060Y00670198D01*
Y00671991D01*
X00440596Y00673723D01*
X00439699Y00675276D01*
X00438431Y00676544D01*
X00436879Y00677440D01*
X00435146Y00677904D01*
X00433353D01*
X00431621Y00677440D01*
X00430663Y00676887D01*
X00429067Y00677110D01*
X00427799Y00678378D01*
X00426247Y00679275D01*
X00424515Y00679739D01*
X00422721D01*
X00420989Y00679275D01*
X00419436Y00678378D01*
X00418169Y00677110D01*
X00417272Y00675557D01*
X00416808Y00673825D01*
Y00672032D01*
X00416881Y00671759D01*
X00415800Y00670677D01*
X00415728Y00670552D01*
X00414321Y00670504D01*
X00413782Y00671254D01*
X00414091Y00672410D01*
Y00674202D01*
X00413627Y00675935D01*
X00412731Y00677487D01*
X00411463Y00678755D01*
X00409910Y00679652D01*
X00408178Y00680116D01*
D02*
G37*
G36*
X00502989Y00680796D02*
X00500677D01*
X00498542Y00679912D01*
X00496908Y00678278D01*
X00496023Y00676142D01*
Y00673831D01*
X00496908Y00671695D01*
X00498542Y00670061D01*
X00500677Y00669176D01*
X00502989D01*
X00505124Y00670061D01*
X00506758Y00671695D01*
X00507643Y00673831D01*
Y00676142D01*
X00506758Y00678278D01*
X00505124Y00679912D01*
X00502989Y00680796D01*
D02*
G37*
G36*
X00844944Y00712946D02*
X00842632D01*
X00840497Y00712061D01*
X00838863Y00710427D01*
X00837978Y00708292D01*
Y00705980D01*
X00838863Y00703845D01*
X00839381Y00703326D01*
X00838863Y00702807D01*
X00837978Y00700672D01*
Y00698360D01*
X00838863Y00696225D01*
X00839381Y00695706D01*
X00838863Y00695187D01*
X00837978Y00693052D01*
Y00690740D01*
X00838863Y00688605D01*
X00839917Y00687550D01*
X00838876Y00686509D01*
X00837992Y00684374D01*
Y00682063D01*
X00838876Y00679927D01*
X00840511Y00678293D01*
X00842646Y00677408D01*
X00844957D01*
X00847093Y00678293D01*
X00848727Y00679927D01*
X00849612Y00682063D01*
Y00684374D01*
X00848727Y00686509D01*
X00847673Y00687564D01*
X00848714Y00688605D01*
X00849598Y00690740D01*
Y00693052D01*
X00848714Y00695187D01*
X00848195Y00695706D01*
X00848714Y00696225D01*
X00849598Y00698360D01*
Y00700672D01*
X00848714Y00702807D01*
X00848195Y00703326D01*
X00848714Y00703845D01*
X00849598Y00705980D01*
Y00708292D01*
X00848714Y00710427D01*
X00847079Y00712061D01*
X00844944Y00712946D01*
D02*
G37*
G36*
X00973014Y00664392D02*
X00970702D01*
X00968567Y00663508D01*
X00966933Y00661874D01*
X00966048Y00659738D01*
Y00657427D01*
X00966702Y00655848D01*
X00966048Y00654269D01*
Y00651958D01*
X00966874Y00649965D01*
X00966048Y00647972D01*
Y00645660D01*
X00966933Y00643525D01*
X00968567Y00641890D01*
X00970702Y00641006D01*
X00973014D01*
X00975149Y00641890D01*
X00976784Y00643525D01*
X00977668Y00645660D01*
Y00647972D01*
X00976842Y00649965D01*
X00977668Y00651958D01*
Y00654269D01*
X00977014Y00655848D01*
X00977668Y00657427D01*
Y00659738D01*
X00976784Y00661874D01*
X00975149Y00663508D01*
X00973014Y00664392D01*
D02*
G37*
G36*
X01497756Y00928846D02*
X01495445D01*
X01493309Y00927962D01*
X01493279Y00927931D01*
X01493249Y00927962D01*
X01491113Y00928846D01*
X01488802D01*
X01486764Y00928002D01*
X01484726Y00928846D01*
X01482415D01*
X01480329Y00927982D01*
X01478244Y00928846D01*
X01475932D01*
X01473797Y00927962D01*
X01473668Y00927833D01*
X01473539Y00927962D01*
X01471404Y00928846D01*
X01469092D01*
X01466957Y00927962D01*
X01466909Y00927914D01*
X01466862Y00927962D01*
X01464726Y00928846D01*
X01462415D01*
X01460279Y00927962D01*
X01460209Y00927891D01*
X01460139Y00927962D01*
X01458004Y00928846D01*
X01455692D01*
X01453557Y00927962D01*
X01451922Y00926327D01*
X01451038Y00924192D01*
Y00921880D01*
X01451922Y00919745D01*
X01453557Y00918111D01*
X01455692Y00917226D01*
X01458004D01*
X01460139Y00918111D01*
X01460209Y00918181D01*
X01460279Y00918111D01*
X01462415Y00917226D01*
X01464726D01*
X01466862Y00918111D01*
X01466909Y00918158D01*
X01466957Y00918111D01*
X01469092Y00917226D01*
X01471404D01*
X01473539Y00918111D01*
X01473668Y00918239D01*
X01473797Y00918111D01*
X01475932Y00917226D01*
X01478244D01*
X01480329Y00918090D01*
X01482415Y00917226D01*
X01484726D01*
X01486764Y00918070D01*
X01488802Y00917226D01*
X01491113D01*
X01493249Y00918111D01*
X01493279Y00918141D01*
X01493309Y00918111D01*
X01495445Y00917226D01*
X01497756D01*
X01499892Y00918111D01*
X01501526Y00919745D01*
X01502410Y00921880D01*
Y00924192D01*
X01501526Y00926327D01*
X01499892Y00927962D01*
X01497756Y00928846D01*
D02*
G37*
G36*
X01444894D02*
X01442582D01*
X01440447Y00927962D01*
X01439488Y00927003D01*
X01438529Y00927962D01*
X01436394Y00928846D01*
X01434082D01*
X01431947Y00927962D01*
X01430843Y00926857D01*
X01430013Y00926468D01*
X01429183Y00926857D01*
X01428079Y00927962D01*
X01425944Y00928846D01*
X01423632D01*
X01421497Y00927962D01*
X01420038Y00926503D01*
X01418579Y00927962D01*
X01416444Y00928846D01*
X01414132D01*
X01411997Y00927962D01*
X01410363Y00926327D01*
X01409478Y00924192D01*
Y00921880D01*
X01410363Y00919745D01*
X01411997Y00918111D01*
X01414132Y00917226D01*
X01416444D01*
X01418579Y00918111D01*
X01420038Y00919569D01*
X01421497Y00918111D01*
X01423632Y00917226D01*
X01425944D01*
X01428079Y00918111D01*
X01429183Y00919215D01*
X01430013Y00919604D01*
X01430843Y00919215D01*
X01431947Y00918111D01*
X01434082Y00917226D01*
X01436394D01*
X01438529Y00918111D01*
X01439488Y00919069D01*
X01440447Y00918111D01*
X01442582Y00917226D01*
X01444894D01*
X01447029Y00918111D01*
X01448663Y00919745D01*
X01449548Y00921880D01*
Y00924192D01*
X01448663Y00926327D01*
X01447029Y00927962D01*
X01444894Y00928846D01*
D02*
G37*
G36*
X01408903Y00865806D02*
X01406591D01*
X01404456Y00864921D01*
X01402822Y00863287D01*
X01401937Y00861152D01*
Y00858840D01*
X01402822Y00856705D01*
X01404456Y00855070D01*
X01406591Y00854186D01*
X01408903D01*
X01411038Y00855070D01*
X01412672Y00856705D01*
X01413557Y00858840D01*
Y00861152D01*
X01412672Y00863287D01*
X01411038Y00864921D01*
X01408903Y00865806D01*
D02*
G37*
G36*
X01497756Y00778926D02*
X01495445D01*
X01493309Y00778041D01*
X01491675Y00776407D01*
X01490790Y00774272D01*
Y00771960D01*
X01491675Y00769825D01*
X01492616Y00768884D01*
X01493229Y00768079D01*
X01492616Y00767224D01*
X01491699Y00766307D01*
X01490815Y00764172D01*
Y00761860D01*
X01491699Y00759725D01*
X01492500Y00758924D01*
X01491675Y00758099D01*
X01490790Y00755964D01*
Y00753652D01*
X01491675Y00751517D01*
X01492489Y00750703D01*
X01491675Y00749888D01*
X01490790Y00747753D01*
Y00745441D01*
X01491675Y00743306D01*
X01493309Y00741672D01*
X01495445Y00740787D01*
X01497756D01*
X01499892Y00741672D01*
X01501526Y00743306D01*
X01502410Y00745441D01*
Y00747753D01*
X01501526Y00749888D01*
X01500712Y00750703D01*
X01501526Y00751517D01*
X01502410Y00753652D01*
Y00755964D01*
X01501526Y00758099D01*
X01500725Y00758900D01*
X01501550Y00759725D01*
X01502435Y00761860D01*
Y00764172D01*
X01501550Y00766307D01*
X01500609Y00767249D01*
X01499996Y00768053D01*
X01500609Y00768908D01*
X01501526Y00769825D01*
X01502410Y00771960D01*
Y00774272D01*
X01501526Y00776407D01*
X01499892Y00778041D01*
X01497756Y00778926D01*
D02*
G37*
G36*
X01411939Y00736696D02*
X01409627D01*
X01407492Y00735811D01*
X01405858Y00734177D01*
X01404973Y00732042D01*
Y00729730D01*
X01405858Y00727595D01*
X01407492Y00725960D01*
X01409627Y00725076D01*
X01411939D01*
X01414074Y00725960D01*
X01415708Y00727595D01*
X01416593Y00729730D01*
Y00732042D01*
X01415708Y00734177D01*
X01414074Y00735811D01*
X01411939Y00736696D01*
D02*
G37*
G36*
X01545984Y00740886D02*
X01543672D01*
X01541537Y00740002D01*
X01539902Y00738367D01*
X01539018Y00736232D01*
Y00733920D01*
X01539902Y00731785D01*
X01540421Y00731266D01*
X01539902Y00730747D01*
X01539018Y00728612D01*
Y00726300D01*
X01539902Y00724165D01*
X01540421Y00723646D01*
X01539902Y00723127D01*
X01539018Y00720992D01*
Y00718680D01*
X01539902Y00716545D01*
X01540421Y00716026D01*
X01539902Y00715507D01*
X01539018Y00713372D01*
Y00711060D01*
X01539902Y00708925D01*
X01540421Y00708406D01*
X01539902Y00707887D01*
X01539018Y00705752D01*
Y00703440D01*
X01539902Y00701305D01*
X01541537Y00699670D01*
X01543672Y00698786D01*
X01545984D01*
X01548119Y00699670D01*
X01549754Y00701305D01*
X01550638Y00703440D01*
Y00705752D01*
X01549754Y00707887D01*
X01549235Y00708406D01*
X01549754Y00708925D01*
X01550638Y00711060D01*
Y00713372D01*
X01549754Y00715507D01*
X01549235Y00716026D01*
X01549754Y00716545D01*
X01550638Y00718680D01*
Y00720992D01*
X01549754Y00723127D01*
X01549235Y00723646D01*
X01549754Y00724165D01*
X01550638Y00726300D01*
Y00728612D01*
X01549754Y00730747D01*
X01549235Y00731266D01*
X01549754Y00731785D01*
X01550638Y00733920D01*
Y00736232D01*
X01549754Y00738367D01*
X01548119Y00740002D01*
X01545984Y00740886D01*
D02*
G37*
G36*
X01459116Y00718026D02*
X01456805D01*
X01454669Y00717141D01*
X01453035Y00715507D01*
X01452150Y00713372D01*
Y00711060D01*
X01453035Y00708925D01*
X01453554Y00708406D01*
X01453035Y00707887D01*
X01452150Y00705752D01*
Y00703440D01*
X01453035Y00701305D01*
X01453554Y00700786D01*
X01453035Y00700267D01*
X01452150Y00698132D01*
Y00695820D01*
X01453035Y00693685D01*
X01453554Y00693166D01*
X01453035Y00692647D01*
X01452150Y00690512D01*
Y00688200D01*
X01453035Y00686065D01*
X01453471Y00685629D01*
X01452990Y00685147D01*
X01452105Y00683012D01*
Y00680701D01*
X01452990Y00678565D01*
X01454624Y00676931D01*
X01456759Y00676046D01*
X01459071D01*
X01461206Y00676931D01*
X01462841Y00678565D01*
X01463725Y00680701D01*
Y00683012D01*
X01462841Y00685147D01*
X01462404Y00685583D01*
X01462886Y00686065D01*
X01463770Y00688200D01*
Y00690512D01*
X01462886Y00692647D01*
X01462367Y00693166D01*
X01462886Y00693685D01*
X01463770Y00695820D01*
Y00698132D01*
X01462886Y00700267D01*
X01462367Y00700786D01*
X01462886Y00701305D01*
X01463770Y00703440D01*
Y00705752D01*
X01462886Y00707887D01*
X01462367Y00708406D01*
X01462886Y00708925D01*
X01463770Y00711060D01*
Y00713372D01*
X01462886Y00715507D01*
X01461251Y00717141D01*
X01459116Y00718026D01*
D02*
G37*
G36*
X01561303Y00684251D02*
X01558991D01*
X01556856Y00683367D01*
X01555222Y00681732D01*
X01554337Y00679597D01*
Y00677286D01*
X01555222Y00675150D01*
X01556856Y00673516D01*
X01558991Y00672631D01*
X01561303D01*
X01563438Y00673516D01*
X01565072Y00675150D01*
X01565957Y00677286D01*
Y00679597D01*
X01565072Y00681732D01*
X01563438Y00683367D01*
X01561303Y00684251D01*
D02*
G37*
G36*
X01451764Y00673766D02*
X01449971D01*
X01448239Y00673302D01*
X01446686Y00672405D01*
X01445418Y00671137D01*
X01444521Y00669585D01*
X01444070Y00667899D01*
X01443937Y00667538D01*
X01443802Y00667435D01*
X01442217Y00667762D01*
X01441785Y00668509D01*
X01440518Y00669777D01*
X01438965Y00670673D01*
X01437233Y00671137D01*
X01435440D01*
X01433707Y00670673D01*
X01432155Y00669777D01*
X01430887Y00668509D01*
X01429990Y00666956D01*
X01429526Y00665224D01*
Y00663431D01*
X01429990Y00661699D01*
X01430887Y00660146D01*
X01432155Y00658878D01*
X01433707Y00657981D01*
X01435440Y00657517D01*
X01436336Y00655965D01*
X01437604Y00654697D01*
X01439157Y00653800D01*
X01440889Y00653336D01*
X01442682D01*
X01444414Y00653800D01*
X01445967Y00654697D01*
X01446775Y00655505D01*
X01447583Y00654697D01*
X01449135Y00653800D01*
X01450867Y00653336D01*
X01452661D01*
X01454393Y00653800D01*
X01455945Y00654697D01*
X01457012Y00655763D01*
X01457788Y00655879D01*
X01458564Y00655763D01*
X01459630Y00654697D01*
X01461183Y00653800D01*
X01462915Y00653336D01*
X01464709D01*
X01466441Y00653800D01*
X01467993Y00654697D01*
X01468585Y00655288D01*
X01469177Y00654697D01*
X01470729Y00653800D01*
X01472462Y00653336D01*
X01474255D01*
X01475987Y00653800D01*
X01477540Y00654697D01*
X01478807Y00655965D01*
X01479704Y00657517D01*
X01480077Y00658910D01*
X01481142Y00659525D01*
X01482409Y00660793D01*
X01483306Y00662345D01*
X01483770Y00664078D01*
Y00665871D01*
X01483306Y00667603D01*
X01482409Y00669156D01*
X01481142Y00670423D01*
X01479589Y00671320D01*
X01477857Y00671784D01*
X01476064D01*
X01474332Y00671320D01*
X01472779Y00670423D01*
X01472249Y00669893D01*
X01470706Y00670147D01*
X01470231Y00670969D01*
X01468963Y00672237D01*
X01467411Y00673134D01*
X01465679Y00673598D01*
X01463885D01*
X01462153Y00673134D01*
X01460601Y00672237D01*
X01459333Y00670969D01*
X01458530Y00669578D01*
X01457841Y00669499D01*
X01457181Y00669640D01*
X01456317Y00671137D01*
X01455049Y00672405D01*
X01453496Y00673302D01*
X01451764Y00673766D01*
D02*
G37*
G36*
X01500944Y00658249D02*
X01498632D01*
X01496497Y00657365D01*
X01494863Y00655731D01*
X01493978Y00653595D01*
Y00651284D01*
X01494863Y00649148D01*
X01496497Y00647514D01*
X01498632Y00646629D01*
X01500944D01*
X01503079Y00647514D01*
X01504713Y00649148D01*
X01505598Y00651284D01*
Y00653595D01*
X01504713Y00655731D01*
X01503079Y00657365D01*
X01500944Y00658249D01*
D02*
G37*
%LPD*%
G54D15*
X00885317Y00171450D02*
Y00179067D01*
X00890395Y00171450D01*
Y00179067D01*
X00892934Y00171450D02*
X00898013Y00176528D01*
X00900552Y00171450D02*
Y00176528D01*
X00903091Y00179067D01*
X00905630Y00176528D01*
Y00171450D01*
Y00175259D01*
X00900552D01*
X00746760Y00179067D02*
X00751838D01*
X00749299D01*
Y00171450D01*
X00754378Y00179067D02*
X00756917D01*
X00755647D01*
Y00171450D01*
X00754378D01*
X00756917D01*
X00760725Y00179067D02*
Y00171450D01*
X00764534D01*
X00765804Y00172720D01*
Y00177798D01*
X00764534Y00179067D01*
X00760725D01*
X00777230Y00171450D02*
Y00179067D01*
X00779769D02*
Y00171450D01*
X00775961Y00176528D02*
X00779769D01*
X00781039D01*
X00775961Y00173989D02*
X00781039D01*
X00783578Y00176528D02*
X00784848D01*
Y00175259D01*
X00783578D01*
Y00176528D01*
Y00172720D02*
X00784848D01*
Y00171450D01*
X00783578D01*
Y00172720D01*
X01474470Y00126912D02*
X01479548D01*
X01477009D01*
Y00119295D01*
X01487166Y00126912D02*
X01482088D01*
Y00119295D01*
X01487166D01*
X01482088Y00123104D02*
X01484627D01*
X01489705Y00126912D02*
X01494783Y00119295D01*
Y00126912D02*
X01489705Y00119295D01*
X01497323D02*
Y00124373D01*
X01499862Y00126912D01*
X01502401Y00124373D01*
Y00119295D01*
Y00123104D01*
X01497323D01*
X01510018Y00125643D02*
X01508749Y00126912D01*
X01506210D01*
X01504940Y00125643D01*
Y00124373D01*
X01506210Y00123104D01*
X01508749D01*
X01510018Y00121834D01*
Y00120564D01*
X01508749Y00119295D01*
X01506210D01*
X01504940Y00120564D01*
X01520175Y00126912D02*
X01522714D01*
X01521445D01*
Y00119295D01*
X01520175D01*
X01522714D01*
X01526523D02*
Y00126912D01*
X01531602Y00119295D01*
Y00126912D01*
X01539219Y00125643D02*
X01537950Y00126912D01*
X01535410D01*
X01534141Y00125643D01*
Y00124373D01*
X01535410Y00123104D01*
X01537950D01*
X01539219Y00121834D01*
Y00120564D01*
X01537950Y00119295D01*
X01535410D01*
X01534141Y00120564D01*
X01541758Y00126912D02*
X01546837D01*
X01544297D01*
Y00119295D01*
X01549376D02*
Y00126912D01*
X01553185D01*
X01554454Y00125643D01*
Y00123104D01*
X01553185Y00121834D01*
X01549376D01*
X01551915D02*
X01554454Y00119295D01*
X01556993Y00126912D02*
Y00120564D01*
X01558263Y00119295D01*
X01560802D01*
X01562072Y00120564D01*
Y00126912D01*
X01564611Y00119295D02*
Y00126912D01*
X01567150Y00124373D01*
X01569689Y00126912D01*
Y00119295D01*
X01577307Y00126912D02*
X01572228D01*
Y00119295D01*
X01577307D01*
X01572228Y00123104D02*
X01574768D01*
X01579846Y00119295D02*
Y00126912D01*
X01584924Y00119295D01*
Y00126912D01*
X01587463D02*
X01592542D01*
X01590003D01*
Y00119295D01*
X01600159Y00125643D02*
X01598890Y00126912D01*
X01596351D01*
X01595081Y00125643D01*
Y00124373D01*
X01596351Y00123104D01*
X01598890D01*
X01600159Y00121834D01*
Y00120564D01*
X01598890Y00119295D01*
X01596351D01*
X01595081Y00120564D01*
X01153287Y00125643D02*
X01154557Y00126912D01*
X01157096D01*
X01158365Y00125643D01*
Y00124373D01*
X01157096Y00123104D01*
X01158365Y00121834D01*
Y00120564D01*
X01157096Y00119295D01*
X01154557D01*
X01153287Y00120564D01*
Y00121834D01*
X01154557Y00123104D01*
X01153287Y00124373D01*
Y00125643D01*
X01154557Y00123104D02*
X01157096D01*
X01160904Y00124373D02*
X01162174D01*
Y00123104D01*
X01160904D01*
Y00124373D01*
Y00120564D02*
X01162174D01*
Y00119295D01*
X01160904D01*
Y00120564D01*
X01172331Y00126912D02*
X01167253D01*
Y00123104D01*
X01169792Y00124373D01*
X01171061D01*
X01172331Y00123104D01*
Y00120564D01*
X01171061Y00119295D01*
X01168522D01*
X01167253Y00120564D01*
X01174870Y00126912D02*
X01179948D01*
Y00125643D01*
X01174870Y00120564D01*
Y00119295D01*
X01182488Y00124373D02*
X01183757D01*
Y00123104D01*
X01182488D01*
Y00124373D01*
Y00120564D02*
X01183757D01*
Y00119295D01*
X01182488D01*
Y00120564D01*
X01188836Y00119295D02*
X01191375D01*
X01190105D01*
Y00126912D01*
X01188836Y00125643D01*
X01200262Y00126912D02*
X01195183D01*
Y00123104D01*
X01197723Y00124373D01*
X01198992D01*
X01200262Y00123104D01*
Y00120564D01*
X01198992Y00119295D01*
X01196453D01*
X01195183Y00120564D01*
X01210418Y00119295D02*
Y00124373D01*
X01212958Y00126912D01*
X01215497Y00124373D01*
Y00119295D01*
Y00123104D01*
X01210418D01*
X01218036Y00119295D02*
Y00126912D01*
X01220575Y00124373D01*
X01223114Y00126912D01*
Y00119295D01*
X00117729D02*
Y00126912D01*
X00121538D01*
X00122807Y00125643D01*
Y00123104D01*
X00121538Y00121834D01*
X00117729D01*
X00125346Y00126912D02*
Y00119295D01*
X00130425D01*
X00136773Y00126912D02*
X00134234D01*
X00132964Y00125643D01*
Y00120564D01*
X00134234Y00119295D01*
X00136773D01*
X00138042Y00120564D01*
Y00125643D01*
X00136773Y00126912D01*
X00140582D02*
X00145660D01*
X00143121D01*
Y00119295D01*
X00155817D02*
Y00126912D01*
X00160895Y00119295D01*
Y00126912D01*
X00163434Y00119295D02*
Y00124373D01*
X00165973Y00126912D01*
X00168513Y00124373D01*
Y00119295D01*
Y00123104D01*
X00163434D01*
X00171052Y00119295D02*
Y00126912D01*
X00173591Y00124373D01*
X00176130Y00126912D01*
Y00119295D01*
X00183748Y00126912D02*
X00178669D01*
Y00119295D01*
X00183748D01*
X00178669Y00123104D02*
X00181208D01*
X00193904Y00121834D02*
X00198983D01*
X00193904Y00124373D02*
X00198983D01*
X00117729Y00179196D02*
Y00171579D01*
X00122807D01*
X00125346D02*
Y00176657D01*
X00127886Y00179196D01*
X00130425Y00176657D01*
Y00171579D01*
Y00175387D01*
X00125346D01*
X00132964Y00179196D02*
Y00177927D01*
X00135503Y00175387D01*
X00138042Y00177927D01*
Y00179196D01*
X00135503Y00175387D02*
Y00171579D01*
X00145660Y00179196D02*
X00140582D01*
Y00171579D01*
X00145660D01*
X00140582Y00175387D02*
X00143121D01*
X00148199Y00171579D02*
Y00179196D01*
X00152008D01*
X00153278Y00177927D01*
Y00175387D01*
X00152008Y00174118D01*
X00148199D01*
X00150738D02*
X00153278Y00171579D01*
X00163434D02*
Y00179196D01*
X00168513Y00171579D01*
Y00179196D01*
X00171052Y00171579D02*
Y00176657D01*
X00173591Y00179196D01*
X00176130Y00176657D01*
Y00171579D01*
Y00175387D01*
X00171052D01*
X00178669Y00171579D02*
Y00179196D01*
X00181208Y00176657D01*
X00183748Y00179196D01*
Y00171579D01*
X00191365Y00179196D02*
X00186287D01*
Y00171579D01*
X00191365D01*
X00186287Y00175387D02*
X00188826D01*
X00201522Y00174118D02*
X00206600D01*
X00201522Y00176657D02*
X00206600D01*
X00746760Y00230714D02*
Y00223097D01*
X00750569D01*
X00751838Y00224366D01*
Y00225636D01*
X00750569Y00226905D01*
X00746760D01*
X00750569D01*
X00751838Y00228175D01*
Y00229445D01*
X00750569Y00230714D01*
X00746760D01*
X00758186D02*
X00755647D01*
X00754378Y00229445D01*
Y00224366D01*
X00755647Y00223097D01*
X00758186D01*
X00759456Y00224366D01*
Y00229445D01*
X00758186Y00230714D01*
X00761995Y00223097D02*
Y00228175D01*
X00764534Y00230714D01*
X00767073Y00228175D01*
Y00223097D01*
Y00226905D01*
X00761995D01*
X00769613Y00223097D02*
Y00230714D01*
X00773421D01*
X00774691Y00229445D01*
Y00226905D01*
X00773421Y00225636D01*
X00769613D01*
X00772152D02*
X00774691Y00223097D01*
X00777230Y00230714D02*
Y00223097D01*
X00781039D01*
X00782309Y00224366D01*
Y00229445D01*
X00781039Y00230714D01*
X00777230D01*
X00793735Y00223097D02*
Y00230714D01*
X00796274D02*
Y00223097D01*
X00792465Y00228175D02*
X00796274D01*
X00797544D01*
X00792465Y00225636D02*
X00797544D01*
X00800083Y00228175D02*
X00801352D01*
Y00226905D01*
X00800083D01*
Y00228175D01*
Y00224366D02*
X00801352D01*
Y00223097D01*
X00800083D01*
Y00224366D01*
X00885317Y00223097D02*
Y00230714D01*
X00889126D01*
X00890395Y00229445D01*
Y00226905D01*
X00889126Y00225636D01*
X00885317D01*
X00892934Y00223097D02*
Y00230714D01*
X00895474Y00228175D01*
X00898013Y00230714D01*
Y00223097D01*
X00900552D02*
Y00230714D01*
X00904361D01*
X00905630Y00229445D01*
Y00226905D01*
X00904361Y00225636D01*
X00900552D01*
X00908170Y00229445D02*
X00909439Y00230714D01*
X00911978D01*
X00913248Y00229445D01*
Y00228175D01*
X00911978Y00226905D01*
X00910709D01*
X00911978D01*
X00913248Y00225636D01*
Y00224366D01*
X00911978Y00223097D01*
X00909439D01*
X00908170Y00224366D01*
X00915787Y00223097D02*
X00918326D01*
X00917057D01*
Y00230714D01*
X00915787Y00229445D01*
X00927213Y00223097D02*
X00922135D01*
X00927213Y00228175D01*
Y00229445D01*
X00925944Y00230714D01*
X00923405D01*
X00922135Y00229445D01*
X00929753D02*
X00931022Y00230714D01*
X00933561D01*
X00934831Y00229445D01*
Y00228175D01*
X00933561Y00226905D01*
X00932292D01*
X00933561D01*
X00934831Y00225636D01*
Y00224366D01*
X00933561Y00223097D01*
X00931022D01*
X00929753Y00224366D01*
X00942449Y00230714D02*
X00939909Y00229445D01*
X00937370Y00226905D01*
Y00224366D01*
X00938640Y00223097D01*
X00941179D01*
X00942449Y00224366D01*
Y00225636D01*
X00941179Y00226905D01*
X00937370D01*
X01173861Y00223097D02*
Y00224366D01*
X01175131D01*
Y00223097D01*
X01173861D01*
X01180209D02*
Y00230714D01*
X01184018D01*
X01185287Y00229445D01*
Y00226905D01*
X01184018Y00225636D01*
X01180209D01*
X01192905Y00229445D02*
X01191635Y00230714D01*
X01189096D01*
X01187827Y00229445D01*
Y00224366D01*
X01189096Y00223097D01*
X01191635D01*
X01192905Y00224366D01*
X01195444Y00230714D02*
Y00223097D01*
X01199253D01*
X01200522Y00224366D01*
Y00225636D01*
X01199253Y00226905D01*
X01195444D01*
X01199253D01*
X01200522Y00228175D01*
Y00229445D01*
X01199253Y00230714D01*
X01195444D01*
X01203062Y00221827D02*
X01208140D01*
X01210679Y00223097D02*
Y00230714D01*
X01214488D01*
X01215757Y00229445D01*
Y00226905D01*
X01214488Y00225636D01*
X01210679D01*
X01213218D02*
X01215757Y00223097D01*
X01222105D02*
X01219566D01*
X01218297Y00224366D01*
Y00226905D01*
X01219566Y00228175D01*
X01222105D01*
X01223375Y00226905D01*
Y00225636D01*
X01218297D01*
X01225914Y00228175D02*
X01228453Y00223097D01*
X01230993Y00228175D01*
X00117729Y00223097D02*
Y00228175D01*
X00120268Y00230714D01*
X00122807Y00228175D01*
Y00223097D01*
Y00226905D01*
X00117729D01*
X00125346Y00230714D02*
Y00223097D01*
X00130425D01*
X00132964Y00230714D02*
Y00223097D01*
X00138042D01*
X00148199D02*
Y00228175D01*
X00150738Y00230714D01*
X00153278Y00228175D01*
Y00223097D01*
Y00226905D01*
X00148199D01*
X00155817Y00223097D02*
Y00230714D01*
X00159626D01*
X00160895Y00229445D01*
Y00226905D01*
X00159626Y00225636D01*
X00155817D01*
X00158356D02*
X00160895Y00223097D01*
X00163434Y00230714D02*
X00168513D01*
X00165973D01*
Y00223097D01*
X00171052Y00230714D02*
Y00223097D01*
X00173591Y00225636D01*
X00176130Y00223097D01*
Y00230714D01*
X00182478D02*
X00179939D01*
X00178669Y00229445D01*
Y00224366D01*
X00179939Y00223097D01*
X00182478D01*
X00183748Y00224366D01*
Y00229445D01*
X00182478Y00230714D01*
X00186287Y00223097D02*
Y00230714D01*
X00190096D01*
X00191365Y00229445D01*
Y00226905D01*
X00190096Y00225636D01*
X00186287D01*
X00188826D02*
X00191365Y00223097D01*
X00193904Y00230714D02*
Y00223097D01*
Y00225636D01*
X00198983Y00230714D01*
X00195174Y00226905D01*
X00198983Y00223097D01*
X00209139Y00230714D02*
Y00225636D01*
X00211679Y00223097D01*
X00214218Y00225636D01*
Y00230714D01*
X00216757D02*
X00219296D01*
X00218027D01*
Y00223097D01*
X00216757D01*
X00219296D01*
X00228183Y00230714D02*
X00223105D01*
Y00223097D01*
X00228183D01*
X00223105Y00226905D02*
X00225644D01*
X00230722Y00230714D02*
Y00223097D01*
X00233262Y00225636D01*
X00235801Y00223097D01*
Y00230714D01*
X00243418D02*
X00238340D01*
Y00223097D01*
X00243418D01*
X00238340Y00226905D02*
X00240879D01*
X00245958Y00230714D02*
Y00223097D01*
X00249766D01*
X00251036Y00224366D01*
Y00229445D01*
X00249766Y00230714D01*
X00245958D01*
X00266271D02*
X00261193D01*
Y00226905D01*
X00263732D01*
X00261193D01*
Y00223097D01*
X00268810D02*
Y00230714D01*
X00272619D01*
X00273888Y00229445D01*
Y00226905D01*
X00272619Y00225636D01*
X00268810D01*
X00271349D02*
X00273888Y00223097D01*
X00280236Y00230714D02*
X00277697D01*
X00276428Y00229445D01*
Y00224366D01*
X00277697Y00223097D01*
X00280236D01*
X00281506Y00224366D01*
Y00229445D01*
X00280236Y00230714D01*
X00284045Y00223097D02*
Y00230714D01*
X00286584Y00228175D01*
X00289124Y00230714D01*
Y00223097D01*
X00299280Y00230714D02*
X00304359D01*
X00301819D01*
Y00223097D01*
X00310707Y00230714D02*
X00308167D01*
X00306898Y00229445D01*
Y00224366D01*
X00308167Y00223097D01*
X00310707D01*
X00311976Y00224366D01*
Y00229445D01*
X00310707Y00230714D01*
X00314515Y00223097D02*
Y00230714D01*
X00318324D01*
X00319594Y00229445D01*
Y00226905D01*
X00318324Y00225636D01*
X00314515D01*
X00334829Y00229445D02*
X00333559Y00230714D01*
X00331020D01*
X00329750Y00229445D01*
Y00228175D01*
X00331020Y00226905D01*
X00333559D01*
X00334829Y00225636D01*
Y00224366D01*
X00333559Y00223097D01*
X00331020D01*
X00329750Y00224366D01*
X00337368Y00230714D02*
X00339907D01*
X00338638D01*
Y00223097D01*
X00337368D01*
X00339907D01*
X00343716Y00230714D02*
Y00223097D01*
X00347525D01*
X00348794Y00224366D01*
Y00229445D01*
X00347525Y00230714D01*
X00343716D01*
X00356412D02*
X00351333D01*
Y00223097D01*
X00356412D01*
X00351333Y00226905D02*
X00353873D01*
X00752346Y00125643D02*
X00751077Y00126912D01*
X00748538D01*
X00747268Y00125643D01*
Y00120564D01*
X00748538Y00119295D01*
X00751077D01*
X00752346Y00120564D01*
Y00123104D01*
X00749807D01*
X00759964Y00126912D02*
X00754885D01*
Y00119295D01*
X00759964D01*
X00754885Y00123104D02*
X00757425D01*
X00762503Y00119295D02*
Y00126912D01*
X00767581Y00119295D01*
Y00126912D01*
X00775199D02*
X00770121D01*
Y00119295D01*
X00775199D01*
X00770121Y00123104D02*
X00772660D01*
X00777738Y00119295D02*
Y00126912D01*
X00781547D01*
X00782816Y00125643D01*
Y00123104D01*
X00781547Y00121834D01*
X00777738D01*
X00780277D02*
X00782816Y00119295D01*
X00785356D02*
Y00124373D01*
X00787895Y00126912D01*
X00790434Y00124373D01*
Y00119295D01*
Y00123104D01*
X00785356D01*
X00792973Y00126912D02*
X00798052D01*
X00795512D01*
Y00119295D01*
X00805669Y00126912D02*
X00800591D01*
Y00119295D01*
X00805669D01*
X00800591Y00123104D02*
X00803130D01*
X00808208Y00126912D02*
Y00119295D01*
X00812017D01*
X00813287Y00120564D01*
Y00125643D01*
X00812017Y00126912D01*
X00808208D01*
X00846296Y00124373D02*
X00847566D01*
Y00123104D01*
X00846296D01*
Y00124373D01*
Y00120564D02*
X00847566D01*
Y00119295D01*
X00846296D01*
Y00120564D01*
X00968121Y00126912D02*
X00973199D01*
Y00125643D01*
X00968121Y00120564D01*
Y00119295D01*
X00975739D02*
X00980817Y00124373D01*
X00988434Y00119295D02*
X00983356D01*
X00988434Y00124373D01*
Y00125643D01*
X00987165Y00126912D01*
X00984626D01*
X00983356Y00125643D01*
X00990974Y00119295D02*
X00993513D01*
X00992243D01*
Y00126912D01*
X00990974Y00125643D01*
X00997322Y00119295D02*
X01002400Y00124373D01*
X01010017Y00119295D02*
X01004939D01*
X01010017Y00124373D01*
Y00125643D01*
X01008748Y00126912D01*
X01006209D01*
X01004939Y00125643D01*
X01012557D02*
X01013826Y00126912D01*
X01016365D01*
X01017635Y00125643D01*
Y00120564D01*
X01016365Y00119295D01*
X01013826D01*
X01012557Y00120564D01*
Y00125643D01*
X01025253Y00119295D02*
X01020174D01*
X01025253Y00124373D01*
Y00125643D01*
X01023983Y00126912D01*
X01021444D01*
X01020174Y00125643D01*
X01027792D02*
X01029061Y00126912D01*
X01031600D01*
X01032870Y00125643D01*
Y00124373D01*
X01031600Y00123104D01*
X01030331D01*
X01031600D01*
X01032870Y00121834D01*
Y00120564D01*
X01031600Y00119295D01*
X01029061D01*
X01027792Y00120564D01*
X00322326Y00119295D02*
Y00126912D01*
X00326135D01*
X00327404Y00125643D01*
Y00123104D01*
X00326135Y00121834D01*
X00322326D01*
X00329944Y00119295D02*
Y00126912D01*
X00332483Y00124373D01*
X00335022Y00126912D01*
Y00119295D01*
X00337561D02*
Y00126912D01*
X00341370D01*
X00342639Y00125643D01*
Y00123104D01*
X00341370Y00121834D01*
X00337561D01*
X00345179Y00125643D02*
X00346448Y00126912D01*
X00348987D01*
X00350257Y00125643D01*
Y00124373D01*
X00348987Y00123104D01*
X00347718D01*
X00348987D01*
X00350257Y00121834D01*
Y00120564D01*
X00348987Y00119295D01*
X00346448D01*
X00345179Y00120564D01*
X00352796Y00119295D02*
X00355335D01*
X00354066D01*
Y00126912D01*
X00352796Y00125643D01*
X00364222Y00119295D02*
X00359144D01*
X00364222Y00124373D01*
Y00125643D01*
X00362953Y00126912D01*
X00360414D01*
X00359144Y00125643D01*
X00366762D02*
X00368031Y00126912D01*
X00370570D01*
X00371840Y00125643D01*
Y00124373D01*
X00370570Y00123104D01*
X00369301D01*
X00370570D01*
X00371840Y00121834D01*
Y00120564D01*
X00370570Y00119295D01*
X00368031D01*
X00366762Y00120564D01*
X00379458Y00126912D02*
X00376918Y00125643D01*
X00374379Y00123104D01*
Y00120564D01*
X00375649Y00119295D01*
X00378188D01*
X00379458Y00120564D01*
Y00121834D01*
X00378188Y00123104D01*
X00374379D01*
X00381997Y00119295D02*
Y00126912D01*
X00385806D01*
X00387075Y00125643D01*
Y00123104D01*
X00385806Y00121834D01*
X00381997D01*
X00394693Y00125643D02*
X00393423Y00126912D01*
X00390884D01*
X00389614Y00125643D01*
Y00120564D01*
X00390884Y00119295D01*
X00393423D01*
X00394693Y00120564D01*
X00397232Y00126912D02*
Y00119295D01*
X00401040D01*
X00402310Y00120564D01*
Y00121834D01*
X00401040Y00123104D01*
X00397232D01*
X00401040D01*
X00402310Y00124373D01*
Y00125643D01*
X00401040Y00126912D01*
X00397232D01*
X00404849Y00118025D02*
X00409928D01*
X00412467Y00119295D02*
Y00126912D01*
X00416276D01*
X00417545Y00125643D01*
Y00123104D01*
X00416276Y00121834D01*
X00412467D01*
X00415006D02*
X00417545Y00119295D01*
X00423893D02*
X00421354D01*
X00420084Y00120564D01*
Y00123104D01*
X00421354Y00124373D01*
X00423893D01*
X00425163Y00123104D01*
Y00121834D01*
X00420084D01*
X00427702Y00124373D02*
X00430241Y00119295D01*
X00432780Y00124373D01*
X00435319Y00119295D02*
Y00120564D01*
X00436589D01*
Y00119295D01*
X00435319D01*
X00446746Y00125643D02*
X00445476Y00126912D01*
X00442937D01*
X00441667Y00125643D01*
Y00120564D01*
X00442937Y00119295D01*
X00445476D01*
X00446746Y00120564D01*
Y00123104D01*
X00444207D01*
X00454363Y00119295D02*
X00449285D01*
X00454363Y00124373D01*
Y00125643D01*
X00453094Y00126912D01*
X00450555D01*
X00449285Y00125643D01*
X01099820Y00223097D02*
Y00230714D01*
X01103629D01*
X01104898Y00229445D01*
Y00226905D01*
X01103629Y00225636D01*
X01099820D01*
X01102359D02*
X01104898Y00223097D01*
X01112516Y00230714D02*
X01107438D01*
Y00223097D01*
X01112516D01*
X01107438Y00226905D02*
X01109977D01*
X01115055Y00230714D02*
Y00225636D01*
X01117594Y00223097D01*
X01120133Y00225636D01*
Y00230714D01*
X01122673Y00228175D02*
X01123942D01*
Y00226905D01*
X01122673D01*
Y00228175D01*
Y00224366D02*
X01123942D01*
Y00223097D01*
X01122673D01*
Y00224366D01*
X01317750Y00229445D02*
X01316481Y00230714D01*
X01313942D01*
X01312672Y00229445D01*
Y00228175D01*
X01313942Y00226905D01*
X01316481D01*
X01317750Y00225636D01*
Y00224366D01*
X01316481Y00223097D01*
X01313942D01*
X01312672Y00224366D01*
X01320289Y00230714D02*
Y00225636D01*
X01322829Y00223097D01*
X01325368Y00225636D01*
Y00230714D01*
X01327907Y00223097D02*
Y00230714D01*
X01332985Y00223097D01*
Y00230714D01*
X01343142Y00223097D02*
Y00230714D01*
X01346951D01*
X01348221Y00229445D01*
Y00226905D01*
X01346951Y00225636D01*
X01343142D01*
X01345681D02*
X01348221Y00223097D01*
X01355838Y00230714D02*
X01350760D01*
Y00223097D01*
X01355838D01*
X01350760Y00226905D02*
X01353299D01*
X01358377Y00230714D02*
Y00225636D01*
X01360916Y00223097D01*
X01363456Y00225636D01*
Y00230714D01*
X01365995Y00228175D02*
X01367264D01*
Y00226905D01*
X01365995D01*
Y00228175D01*
Y00224366D02*
X01367264D01*
Y00223097D01*
X01365995D01*
Y00224366D01*
X01441196Y00223097D02*
Y00230714D01*
X01446274Y00223097D01*
Y00230714D01*
X01450083Y00223097D02*
X01452622D01*
X01453892Y00224366D01*
Y00226905D01*
X01452622Y00228175D01*
X01450083D01*
X01448813Y00226905D01*
Y00224366D01*
X01450083Y00223097D01*
X01457701Y00229445D02*
Y00228175D01*
X01456431D01*
X01458970D01*
X01457701D01*
Y00224366D01*
X01458970Y00223097D01*
X01470397D02*
X01472936D01*
X01471666D01*
Y00228175D01*
X01470397D01*
X01476745Y00223097D02*
Y00228175D01*
X01480553D01*
X01481823Y00226905D01*
Y00223097D01*
X01491980Y00228175D02*
X01494519Y00223097D01*
X01497058Y00228175D01*
X01503406Y00223097D02*
X01500867D01*
X01499597Y00224366D01*
Y00226905D01*
X01500867Y00228175D01*
X01503406D01*
X01504675Y00226905D01*
Y00225636D01*
X01499597D01*
X01507215Y00228175D02*
Y00223097D01*
Y00225636D01*
X01508484Y00226905D01*
X01509754Y00228175D01*
X01511023D01*
X01514832Y00223097D02*
X01518641D01*
X01519910Y00224366D01*
X01518641Y00225636D01*
X01516102D01*
X01514832Y00226905D01*
X01516102Y00228175D01*
X01519910D01*
X01522450Y00223097D02*
X01524989D01*
X01523719D01*
Y00228175D01*
X01522450D01*
X01530067Y00223097D02*
X01532606D01*
X01533876Y00224366D01*
Y00226905D01*
X01532606Y00228175D01*
X01530067D01*
X01528798Y00226905D01*
Y00224366D01*
X01530067Y00223097D01*
X01536415D02*
Y00228175D01*
X01540224D01*
X01541494Y00226905D01*
Y00223097D01*
X01556729Y00228175D02*
X01552920D01*
X01551650Y00226905D01*
Y00224366D01*
X01552920Y00223097D01*
X01556729D01*
X01560537D02*
X01563077D01*
X01564346Y00224366D01*
Y00226905D01*
X01563077Y00228175D01*
X01560537D01*
X01559268Y00226905D01*
Y00224366D01*
X01560537Y00223097D01*
X01566885D02*
Y00228175D01*
X01570694D01*
X01571964Y00226905D01*
Y00223097D01*
X01575773Y00229445D02*
Y00228175D01*
X01574503D01*
X01577042D01*
X01575773D01*
Y00224366D01*
X01577042Y00223097D01*
X01580851Y00228175D02*
Y00223097D01*
Y00225636D01*
X01582120Y00226905D01*
X01583390Y00228175D01*
X01584660D01*
X01589738Y00223097D02*
X01592277D01*
X01593547Y00224366D01*
Y00226905D01*
X01592277Y00228175D01*
X01589738D01*
X01588468Y00226905D01*
Y00224366D01*
X01589738Y00223097D01*
X01596086D02*
X01598625D01*
X01597355D01*
Y00230714D01*
X01596086D01*
G54D16*
X01184268Y00973934D02*
Y01013686D01*
X00933901Y00723567D02*
X01184268Y00973934D01*
X00343408Y01529231D02*
Y01600666D01*
X00376428Y01633686D01*
X00338328Y01608172D02*
X00363842Y01633686D01*
X00338328Y01532636D02*
Y01608172D01*
X00812172Y00519504D02*
X00832198Y00499478D01*
X00355985Y00548765D02*
X00385247Y00519504D01*
X00812172D01*
X00353733Y00538226D02*
X00382200Y00509759D01*
X00514375D01*
X00384363Y00514674D02*
X00394026D01*
X00355501Y00543536D02*
X00384363Y00514674D01*
X00514375Y00509759D02*
X00528693Y00495442D01*
X00357518Y00552946D02*
X00386031Y00524432D01*
X00829971D01*
X00845417Y00508986D01*
X00359865Y00563916D02*
X00389824Y00533957D01*
X00358615Y00557563D02*
X00386592Y00529585D01*
X00831879D02*
X00847807Y00513657D01*
X00389824Y00533957D02*
X00834355D01*
X00386592Y00529585D02*
X00831879D01*
X00834355Y00533957D02*
X00850096Y00518216D01*
X00832198Y00468506D02*
Y00499478D01*
X01329388Y00518216D02*
X01354138Y00493466D01*
X00850096Y00518216D02*
X01329388D01*
X01325678Y00513657D02*
X01352868Y00486466D01*
X00847807Y00513657D02*
X01325678D01*
X00845417Y00508986D02*
X01320068D01*
X00878817Y00410906D02*
Y00458566D01*
X00504098Y00410906D02*
X00878817D01*
X01417760D01*
X00326608Y00563916D02*
X00359865D01*
X00253238Y00637286D02*
X00326608Y00563916D01*
X00253238Y00637286D02*
Y00728726D01*
X01529898Y00493466D02*
X01548638Y00474726D01*
X01354138Y00493466D02*
X01529898D01*
X01352868Y00486466D02*
X01525468D01*
X01537208Y00474726D01*
X01320068Y00508986D02*
X01351588Y00477466D01*
X01419748D01*
X00249484Y01230887D02*
X00291869D01*
X00246193D02*
X00249484D01*
Y01227596D02*
Y01230887D01*
X00242268Y01234812D02*
X00246193Y01230887D01*
X00291869D02*
X00303608Y01219148D01*
X00242268Y01234812D02*
Y01395936D01*
X00314198Y01467866D01*
X00364998D01*
X00231648Y01221335D02*
Y01401826D01*
Y01221335D02*
X00249484Y01203499D01*
X00231648Y01401826D02*
X00319278Y01489456D01*
X00384048D01*
X00295148Y01382776D02*
X00417068Y01504696D01*
X00295148Y01312926D02*
Y01382776D01*
X00417068Y01504696D02*
Y01596136D01*
X00410718Y01467866D02*
X00434213Y01491361D01*
Y01556131D01*
X00422148Y01500886D02*
Y01559306D01*
X00410718Y01489456D02*
X00422148Y01500886D01*
X00227328Y01203256D02*
X00262438Y01168146D01*
X00227328Y01403681D02*
X00387310Y01563663D01*
X00227328Y01203256D02*
Y01403681D01*
X00222304Y01162250D02*
Y01408127D01*
X00218264Y01123570D02*
X00259030Y01082804D01*
X00214224Y01121433D02*
X00256893Y01078764D01*
X00210184Y01119760D02*
X00255220Y01074724D01*
X00222304Y01162250D02*
X00250698Y01133856D01*
X00214224Y01121433D02*
Y01414882D01*
X00218264Y01412572D02*
X00338328Y01532636D01*
X00218264Y01123570D02*
Y01412572D01*
X00210184Y01417192D02*
X00328168Y01535176D01*
X00210184Y01119760D02*
Y01417192D01*
X00214224Y01414882D02*
X00333248Y01533906D01*
X00222304Y01408127D02*
X00343408Y01529231D01*
X00434213Y01556131D02*
X00451432Y01573350D01*
X00509208D01*
X00545326Y01537232D01*
X00618721Y01540256D02*
X00640478D01*
X00615697Y01537232D02*
X00618721Y01540256D01*
X00545326Y01537232D02*
X00615697D01*
X00401788Y01611416D02*
X00417068Y01596136D01*
X00422148Y01559306D02*
X00447548Y01584706D01*
X00601895D01*
X00606440Y01564386D02*
Y01580161D01*
X00601895Y01584706D02*
X00606440Y01580161D01*
X00731293D01*
X00295148Y01312926D02*
X00333598Y01274476D01*
Y01128025D02*
Y01274476D01*
Y01128025D02*
X00341768Y01119855D01*
X00303608Y01105587D02*
Y01219148D01*
Y01105587D02*
X00337608Y01071588D01*
X00341768Y00950058D02*
Y01119855D01*
X00298958Y00907248D02*
X00341768Y00950058D01*
X00242815Y00619390D02*
Y00884673D01*
X00333568Y00975426D02*
Y01069914D01*
X00242815Y00884673D02*
X00333568Y00975426D01*
X00248158Y00620776D02*
Y00882823D01*
X00337608Y00972273D02*
Y01071588D01*
X00248158Y00882823D02*
X00337608Y00972273D01*
X00231648Y00609065D02*
X00242815Y00597898D01*
X00231648Y00609065D02*
Y00886843D01*
X00325488Y00980683D01*
X00237998Y00613067D02*
X00253167Y00597898D01*
X00237998Y00887479D02*
X00329528Y00979009D01*
X00237998Y00613067D02*
Y00887479D01*
X00242815Y00619390D02*
X00262128Y00600076D01*
X00248158Y00620776D02*
X00268478Y00600456D01*
Y00583356D02*
Y00600456D01*
X00262128Y00583356D02*
Y00600076D01*
X00225298Y00606459D02*
X00274195Y00557563D01*
X00358615D01*
X00273098Y00552946D02*
X00357518D01*
X00269449Y00538226D02*
X00353733D01*
X00270336Y00548765D02*
X00355985D01*
X00269852Y00543536D02*
X00355501D01*
X00220218Y00605826D02*
Y00887476D01*
Y00605826D02*
X00273098Y00552946D01*
X00204978Y00602697D02*
X00269449Y00538226D01*
X00204978Y00602697D02*
Y00890581D01*
X00210058Y00603330D02*
X00269852Y00543536D01*
X00215138Y00603964D02*
Y00889314D01*
X00210058Y00603330D02*
Y00889948D01*
X00215138Y00603964D02*
X00270336Y00548765D01*
X00253238Y00728726D02*
X00298958Y00774446D01*
X00266798Y00533177D02*
X00341783D01*
X00199898Y00600076D02*
Y00891214D01*
Y00600076D02*
X00266798Y00533177D01*
X00299328Y01104154D02*
X00333568Y01069914D01*
X00295662Y01210082D02*
X00299328Y01206416D01*
Y01104154D02*
Y01206416D01*
X00291033Y01099881D02*
Y01179346D01*
X00290078Y01197346D02*
X00295148Y01192276D01*
Y01102621D02*
X00329268Y01068501D01*
X00284541Y01185837D02*
X00291033Y01179346D01*
Y01099881D02*
X00325488Y01065425D01*
X00295148Y01102621D02*
Y01192276D01*
X00329268Y01067359D02*
Y01068501D01*
Y01067359D02*
X00329528Y01067099D01*
Y00979009D02*
Y01067099D01*
X00325488Y00980683D02*
Y01065425D01*
X00298958Y00774446D02*
Y00907248D01*
X00251640Y01070684D02*
X00289359D01*
X00321448Y00982356D02*
Y01062163D01*
X00294957Y01082804D02*
X00317408Y01060354D01*
X00309328Y00989218D02*
Y01056429D01*
X00317408Y00984666D02*
Y01060354D01*
X00262438Y01121173D02*
X00321448Y01062163D01*
X00291033Y01074724D02*
X00309328Y01056429D01*
X00293284Y01078764D02*
X00313368Y01058680D01*
X00301248Y00992564D02*
Y01052175D01*
X00289359Y01070684D02*
X00305288Y01054756D01*
X00286877Y01066546D02*
X00301248Y01052175D01*
X00248158Y01066546D02*
X00286877D01*
X00305288Y00990891D02*
Y01054756D01*
X00313368Y00987544D02*
Y01058680D01*
X00259030Y01082804D02*
X00294957D01*
X00255220Y01074724D02*
X00291033D01*
X00256893Y01078764D02*
X00293284D01*
X00262438Y01121173D02*
Y01168146D01*
X00225298Y00886206D02*
X00321448Y00982356D01*
X00225298Y00606459D02*
Y00886206D01*
X00220218Y00887476D02*
X00317408Y00984666D01*
X00215138Y00889314D02*
X00313368Y00987544D01*
X00210058Y00889948D02*
X00309328Y00989218D01*
X00204978Y00890581D02*
X00305288Y00990891D01*
X00199898Y00891214D02*
X00301248Y00992564D01*
X00249484Y01215486D02*
X00254887Y01210082D01*
X00295662D01*
X00249484Y01203499D02*
X00255637Y01197346D01*
X00290078D01*
X00249484Y01191576D02*
X00255223Y01185837D01*
X00284541D01*
X00412626Y00467106D02*
X00412776D01*
X00429556Y00483886D01*
X00510109D01*
X00523486Y00470509D01*
X00423776Y00467106D02*
X00433706Y00477036D01*
X00452567D02*
X00484087Y00445516D01*
X00433706Y00477036D02*
X00452567D01*
X00523486Y00464828D02*
X00530098Y00458216D01*
X00523486Y00464828D02*
Y00470509D01*
X00530098Y00458216D02*
X00564526D01*
X00520648Y00452480D02*
X00564476D01*
X00506022Y00467106D02*
X00520648Y00452480D01*
X00564476D02*
X00591760Y00425196D01*
X00592466Y00430276D02*
X00816273D01*
X00564526Y00458216D02*
X00592466Y00430276D01*
X00816273D02*
X00844563Y00458566D01*
X00591760Y00425196D02*
X00820489D01*
X00484087Y00445516D02*
X00564442D01*
X00588832Y00421126D02*
X00822767D01*
X00564442Y00445516D02*
X00588832Y00421126D01*
X00820489Y00425196D02*
X00850049Y00454756D01*
X00822767Y00421126D02*
X00855714Y00454073D01*
X00621538Y00470509D02*
X00653191Y00438856D01*
X00450621Y00472496D02*
X00484437Y00438679D01*
X00435486Y00467106D02*
X00440876Y00472496D01*
X00450621D01*
X00447898Y00467106D02*
X00504098Y00410906D01*
X00484437Y00438679D02*
X00563228D01*
X00585601Y00416306D01*
X00825163D01*
X00850049Y00454756D02*
Y00464012D01*
X00855714Y00458287D02*
X00855993Y00458566D01*
X00855714Y00454073D02*
Y00458287D01*
X00859523Y00473486D02*
X00935053D01*
X00850049Y00464012D02*
X00859523Y00473486D01*
X00884818Y00469446D02*
X00934378Y00419886D01*
X00855993Y00458566D02*
X00866873Y00469446D01*
X00884818D01*
X00867423Y00458961D02*
X00873868Y00465406D01*
X00879778D02*
X00929953Y00415231D01*
X00873868Y00465406D02*
X00879778D01*
X00935053Y00473486D02*
X00949973Y00458566D01*
X00844563D02*
Y00470486D01*
X00852923Y00478846D02*
X00902113D01*
X00844563Y00470486D02*
X00852923Y00478846D01*
X00825163Y00416306D02*
X00867423Y00458566D01*
X00929953Y00415231D02*
X01397703D01*
X00822198Y00458506D02*
X00832198Y00468506D01*
X00902113Y00478846D02*
X00918622Y00495355D01*
X01112343D01*
X01425194Y00465582D02*
X01434338Y00474726D01*
X01142116Y00465582D02*
X01425194D01*
X01112343Y00495355D02*
X01142116Y00465582D01*
X01397703Y00415231D02*
X01457198Y00474726D01*
X01390928Y00419886D02*
X01445768Y00474726D01*
X00934378Y00419886D02*
X01390928D01*
X00401788Y01611416D02*
Y01633686D01*
X00241808Y01645666D02*
X00498198D01*
X00216408Y01626976D02*
X00239392Y01649960D01*
X00498198Y01645666D02*
X00520742Y01668210D01*
X00222558Y01626416D02*
X00241808Y01645666D01*
X00239392Y01649960D02*
X00494538D01*
X00387310Y01563663D02*
Y01633689D01*
X00395248Y01641626D01*
X00494538Y01649960D02*
X00517336Y01672758D01*
X00500658Y01641626D02*
X00522478Y01663446D01*
X00395248Y01641626D02*
X00500658D01*
X01417760Y00410906D02*
X01468978Y00462124D01*
X00867423Y00458566D02*
Y00458961D01*
X01468978Y00462124D02*
Y00474726D01*
X01250908Y01633686D02*
X01392073D01*
X01248918Y01631696D02*
X01250908Y01633686D01*
X01425715Y01674876D02*
X01485138D01*
X01389634Y01638795D02*
X01425715Y01674876D01*
X01245857Y01638795D02*
X01389634D01*
X01428197Y01669810D02*
X01491502D01*
X01392073Y01633686D02*
X01428197Y01669810D01*
X01491502D02*
X01496568Y01674876D01*
X01238758Y01631696D02*
X01245857Y01638795D01*
X00522478Y01663446D02*
X00796267D01*
X00798957Y01660756D01*
X00520742Y01668210D02*
X00853688D01*
X00858458Y01672980D01*
X00823348Y01652866D02*
X00963168D01*
X00710738Y01540256D02*
X00823348Y01652866D01*
X00815302Y01664170D02*
X00929602D01*
X00731293Y01580161D02*
X00815302Y01664170D01*
X00640478Y01540256D02*
X00710738D01*
X00333248Y01533906D02*
Y01628646D01*
X00328168Y01535176D02*
Y01618446D01*
X01419748Y00477466D02*
X01422488Y00474726D01*
X00528693Y00467314D02*
Y00495442D01*
X00204978Y01117346D02*
Y01483106D01*
Y01117346D02*
X00251640Y01070684D01*
X00199898Y01114806D02*
Y01493266D01*
Y01114806D02*
X00248158Y01066546D01*
X00517336Y01672758D02*
X00816554D01*
X00816776Y01672980D01*
X00847128D01*
X01567998Y01654866D02*
X01588008Y01674876D01*
X01431262Y01654866D02*
X01567998D01*
X01400902Y01624506D02*
X01431262Y01654866D01*
X01433396Y01650376D02*
X01574938D01*
X01402747Y01619727D02*
X01433396Y01650376D01*
X01574938D02*
X01599438Y01674876D01*
X01069929Y01624506D02*
X01400902D01*
X00972315Y01667637D02*
X01026798D01*
X01069929Y01624506D01*
X01068140Y01619727D02*
X01402747D01*
X00963168Y01652866D02*
X01035001D01*
X01068140Y01619727D01*
X00964798Y01681992D02*
X00968557Y01678233D01*
Y01671396D02*
Y01678233D01*
Y01671396D02*
X00972315Y01667637D01*
X00958854Y01681992D02*
X00964798D01*
X00951738Y01674876D02*
X00958854Y01681992D01*
X00963168Y01652866D02*
Y01674876D01*
X00333248Y01628646D02*
X00338288Y01633686D01*
X00204978Y01483106D02*
X00222558Y01500686D01*
Y01626416D01*
X00199898Y01493266D02*
X00216408Y01509776D01*
Y01626976D01*
X00312928Y01633686D02*
X00328168Y01618446D01*
X00929602Y01664170D02*
X00940308Y01674876D01*
X01078398Y00448373D02*
X01100178Y00426593D01*
X01078398Y00448373D02*
Y00485016D01*
X01081278Y00487896D01*
X00621538Y00470509D02*
Y00492531D01*
X00628303Y00499296D01*
X01420876Y00100076D02*
Y00151596D01*
X01118870Y00101727D02*
X01778508D01*
Y00256667D01*
X00727710Y00101727D02*
Y00256667D01*
X00101600Y00101727D02*
Y00256667D01*
X00101727Y00101727D02*
X00501904D01*
X00101727D02*
Y00256667D01*
Y00256667D02*
X01778508D01*
X00101600Y00101727D02*
X01118870D01*
X00101600Y00153374D02*
X01778000D01*
X00101600Y00205020D02*
X01778508D01*
X01049528D02*
Y00256667D01*
X01262888Y00205020D02*
Y00256667D01*
G54D95*
X00418768Y00860686D02*
D03*
X00714268Y00938686D02*
D03*
X01184268Y01013686D02*
D03*
X00378268Y00860686D02*
D03*
X00848268D02*
D03*
G54D97*
X00378268D02*
D03*
X00418768D02*
D03*
X00848268D02*
D03*
X00714268Y00938686D02*
D03*
X01184268Y01013686D02*
D03*
G54D104*
X00892013Y00623316D02*
Y00628326D01*
X00916988Y01501961D02*
Y01507336D01*
Y01512316D01*
X00892013Y00628326D02*
Y00634619D01*
X01459532Y01488828D02*
X01496154D01*
X01498722Y01486259D01*
X01498980D01*
X01465031Y01468259D02*
X01500684D01*
X01501799Y01469375D01*
X01502056D01*
X00236728Y01228242D02*
X00249484Y01215486D01*
X00236728Y01228242D02*
Y01398016D01*
X00318008Y01479296D02*
X00373888D01*
X00236728Y01398016D02*
X00318008Y01479296D01*
X00410718D02*
X00428498Y01497076D01*
Y01556603D01*
X00547105Y01541526D02*
X00613918D01*
X00510245Y01578386D02*
X00547105Y01541526D01*
X00613918D02*
X00628523Y01556131D01*
X00450281Y01578386D02*
X00510245D01*
X00628523Y01556131D02*
X00639318Y01545336D01*
X00617728Y01566926D02*
X00628523Y01556131D01*
X00428498Y01556603D02*
X00450281Y01578386D01*
X01321578Y01708856D02*
X01357186Y01673248D01*
X01132078Y01664016D02*
Y01667763D01*
X01090488Y01709354D02*
X01132078Y01667763D01*
X01380618Y01666150D02*
Y01675126D01*
X00288748Y01010666D02*
X00293828Y01005586D01*
X00271018Y01010666D02*
X00288748D01*
X00639318Y01545336D02*
X00706705D01*
X00819735Y01658366D02*
X00935228D01*
X00706705Y01545336D02*
X00819735Y01658366D01*
X00355576Y01692124D02*
X00966456D01*
X00974598Y01674876D02*
Y01683982D01*
X00966456Y01692124D02*
X00974598Y01683982D01*
X00544068Y01702816D02*
X00561193Y01719941D01*
X01586582D01*
X01610868Y01674876D02*
Y01695655D01*
X01586582Y01719941D02*
X01610868Y01695655D01*
X00349758Y01702816D02*
X00544068D01*
X00339598Y01692656D02*
X00349758Y01702816D01*
X00339598Y01682496D02*
Y01692656D01*
X00351028Y01671066D02*
X00376428D01*
X00339598Y01682496D02*
X00351028Y01671066D01*
X01354328Y01345056D02*
X01394078Y01305306D01*
X01564178D02*
X01585768Y01283716D01*
X01394078Y01305306D02*
X01564178D01*
X00351028Y01687576D02*
X00355576Y01692124D01*
X00389128Y01662176D02*
X00414528Y01687576D01*
X00916178D02*
X00928878Y01674876D01*
X00414528Y01687576D02*
X00916178D01*
X00935228Y01658366D02*
X00951738Y01674876D01*
X01346578Y01709166D02*
X01380618Y01675126D01*
X01065838Y01709396D02*
X01075644D01*
X00431038Y01227306D02*
Y01243736D01*
X00457048Y01269746D02*
X00654558D01*
X00431038Y01243736D02*
X00457048Y01269746D01*
X00247523Y00987171D02*
X00271018Y01010666D01*
X00222304Y00987171D02*
X00247523D01*
X00222304Y00999236D02*
X00241808D01*
X00278638Y01036066D01*
X01357186Y01656194D02*
Y01673248D01*
X01350518Y01649526D02*
X01357186Y01656194D01*
X01105356Y01655993D02*
Y01679684D01*
X01075644Y01709396D02*
X01105356Y01679684D01*
X01099188Y01649826D02*
X01105356Y01655993D01*
X00364469Y01570736D02*
X00364998D01*
G54D112*
X00358552Y00840970D02*
X00378268Y00860686D01*
X00358552Y00696812D02*
Y00840970D01*
X00814228Y01464176D02*
X00846272D01*
X00855018Y01472922D01*
X00814228Y01495316D02*
X00842662D01*
X00855018Y01482960D01*
X00819206Y00735226D02*
X00947293Y00863313D01*
Y00883666D01*
X00819206Y00687136D02*
Y00735226D01*
X00418768Y00860686D02*
X00489086Y00931004D01*
X00653774Y00938276D02*
X00657098D01*
X00489086Y00931004D02*
X00646502D01*
X00653774Y00938276D01*
X00531368Y00835406D02*
Y00910336D01*
X00714063Y00938481D02*
X00714268Y00938686D01*
X00809421Y00689498D02*
Y00821839D01*
X00800608Y00680685D02*
X00809421Y00689498D01*
Y00821839D02*
X00848268Y00860686D01*
X00937768Y00987806D02*
Y01005586D01*
X00800608Y00850646D02*
X00937768Y00987806D01*
X00800608Y00710946D02*
Y00850646D01*
X00798068Y00665998D02*
X00819206Y00687136D01*
X00798068Y00657951D02*
Y00665998D01*
X00804418Y00639181D02*
Y00651601D01*
X00798068Y00657951D02*
X00804418Y00651601D01*
G54D113*
X00861568Y01305306D02*
Y01351026D01*
Y01305306D02*
X01011428Y01155446D01*
G54D115*
X01309878Y01075426D02*
Y01269746D01*
G54D117*
X00364998Y01570736D02*
D03*
X01585768Y01283716D02*
D03*
X00531368Y00910336D02*
D03*
X00937768Y01005586D02*
D03*
X00657098Y00938276D02*
D03*
G54D120*
X00892013Y00628326D02*
D03*
X00469011Y01170622D02*
D03*
X00916988Y01507336D02*
D03*
X01544901Y01456369D02*
D03*
X01454624Y00747776D02*
D03*
X01483571Y00681806D02*
D03*
X01492687Y00687906D02*
D03*
X01487985Y00684696D02*
D03*
X01617413Y01454989D02*
D03*
X01552215Y01460970D02*
D03*
X01549679Y01456145D02*
D03*
X00464737Y01172591D02*
D03*
X00444983Y00685266D02*
D03*
X00444983Y00690066D02*
D03*
X00449326Y00690066D02*
D03*
X00898057Y00679520D02*
D03*
X00892959D02*
D03*
X00845181Y00739389D02*
D03*
X00898057Y00675184D02*
D03*
X00449326Y00685266D02*
D03*
X00394026Y00514674D02*
D03*
X00563681Y00705683D02*
D03*
X01459532Y01488828D02*
D03*
X01465031Y01468259D02*
D03*
X01498980Y01486259D02*
D03*
X01502056Y01469375D02*
D03*
X01454624Y00740907D02*
D03*
X00358552Y00696812D02*
D03*
X00364998Y01467866D02*
D03*
X00384048Y01489456D02*
D03*
X00373888Y01479296D02*
D03*
X00410718Y01467866D02*
D03*
Y01489456D02*
D03*
Y01479296D02*
D03*
X00606440Y01564386D02*
D03*
X00268478Y00583356D02*
D03*
X00262128D02*
D03*
X00253167Y00597898D02*
D03*
X00242815D02*
D03*
X00341783Y00533177D02*
D03*
X00249484Y01215486D02*
D03*
Y01227596D02*
D03*
Y01203499D02*
D03*
Y01191576D02*
D03*
X00653368Y00438679D02*
D03*
X01321578Y01708856D02*
D03*
X01380618Y01666150D02*
D03*
X00447898Y00467106D02*
D03*
X00855993Y00458566D02*
D03*
X00822198Y00458506D02*
D03*
X00878817Y00458566D02*
D03*
X00814228Y01464176D02*
D03*
Y01495316D02*
D03*
X00864235Y00756876D02*
D03*
X00857758Y00751066D02*
D03*
X00880208Y01357756D02*
D03*
X00875538Y01362076D02*
D03*
X01011428Y01155446D02*
D03*
X00861568Y01351026D02*
D03*
X00293828Y01005586D02*
D03*
X01248918Y01631696D02*
D03*
X01238758D02*
D03*
X00798957Y01660756D02*
D03*
X00963168Y01674876D02*
D03*
X00858458Y01672980D02*
D03*
X00847128D02*
D03*
X01100178Y00426593D02*
D03*
X00951738Y01674876D02*
D03*
X00940308D02*
D03*
X00928878D02*
D03*
X00460418Y01172590D02*
D03*
X00531368Y00835406D02*
D03*
X01406398Y01438013D02*
D03*
X01416178D02*
D03*
X01396238D02*
D03*
X01386078D02*
D03*
X01346578Y01709166D02*
D03*
X01065838Y01709396D02*
D03*
X00974598Y01674876D02*
D03*
X00654558Y01269746D02*
D03*
X01621328Y01448743D02*
D03*
X01354328Y01345056D02*
D03*
X00916988Y01512316D02*
D03*
X00800608Y00680685D02*
D03*
X00222304Y00987171D02*
D03*
Y00999236D02*
D03*
X00640478Y01540256D02*
D03*
X00617728Y01566926D02*
D03*
X00423776Y00467106D02*
D03*
X00435486D02*
D03*
X00412626D02*
D03*
X00528693Y00467314D02*
D03*
X00949973Y00458566D02*
D03*
X00844563D02*
D03*
X00867423D02*
D03*
X01099188Y01649826D02*
D03*
X01132078Y01664016D02*
D03*
X01350518Y01649526D02*
D03*
X01090488Y01709354D02*
D03*
X00934013Y00723411D02*
D03*
X00947293Y00883666D02*
D03*
X00431038Y01227306D02*
D03*
X00628303Y00499296D02*
D03*
X00855018Y01482960D02*
D03*
Y01472922D02*
D03*
X01422488Y00474726D02*
D03*
X01610868Y01674876D02*
D03*
X01599438D02*
D03*
X01588008D02*
D03*
X01496568D02*
D03*
X01485138D02*
D03*
X00250698Y01133856D02*
D03*
X00506022Y00467106D02*
D03*
X01548638Y00474726D02*
D03*
X01537208D02*
D03*
X01468978D02*
D03*
X01457198D02*
D03*
X01445768D02*
D03*
X01434338D02*
D03*
X01546719Y01460970D02*
D03*
X00804418Y00639181D02*
D03*
X00885068Y01353566D02*
D03*
X01469763Y01418336D02*
D03*
Y01428256D02*
D03*
X01621328Y01441473D02*
D03*
X00907976Y01461729D02*
D03*
X00559816Y01207516D02*
D03*
X00546462Y01192647D02*
D03*
X00560578Y01230887D02*
D03*
X01454624Y00734325D02*
D03*
X00278638Y01036066D02*
D03*
X00415179Y00780796D02*
D03*
X01161103Y01443736D02*
D03*
X01152398D02*
D03*
X01143508D02*
D03*
X01134268Y01443736D02*
D03*
X00501789Y01073327D02*
D03*
Y01064006D02*
D03*
Y01053846D02*
D03*
Y01044748D02*
D03*
X01541528Y00923036D02*
D03*
X01531922D02*
D03*
X01522858D02*
D03*
X01513588D02*
D03*
X01019025Y00697026D02*
D03*
X01026668D02*
D03*
X01034445D02*
D03*
X01041803Y00696976D02*
D03*
X00588688Y00705866D02*
D03*
X00580898D02*
D03*
X00572008D02*
D03*
X00800608Y00710946D02*
D03*
X00412785Y00772279D02*
D03*
X01454624Y00727456D02*
D03*
X00851781Y00745201D02*
D03*
X00892013Y00623316D02*
D03*
X00458569Y01177036D02*
D03*
X00892959Y00675236D02*
D03*
X01487921Y00689738D02*
D03*
X01081278Y00487896D02*
D03*
G54D121*
X00376428Y01633686D02*
D03*
X00363842D02*
D03*
X01309878Y01075426D02*
D03*
Y01269746D02*
D03*
X00401788Y01633686D02*
D03*
X00376428Y01671066D02*
D03*
X00351028Y01687576D02*
D03*
X00389128Y01662176D02*
D03*
X00338288Y01633686D02*
D03*
X00312928D02*
D03*
M02*
