M48
;Layer_Color=9474304
;FILE_FORMAT=4:4
METRIC
;TYPE=PLATED
T1F00S00C0.2000
T2F00S00C0.3000
T3F00S00C0.9144
T4F00S00C1.0160
T5F00S00C1.0200
T6F00S00C1.0600
;TYPE=NON_PLATED
T7F00S00C1.6000
T8F00S00C4.3000
T9F00S00C4.5000
T10F00S00C5.3000
%
T01
X01411294Y00470352
X01422488Y00474726
X01434338
X01445768
X01457198
X01468978
X01457960Y00460756
X01454008Y00505206
X01463129
X01470058
X01481328
X01488248
X01499870
X01509927
X01517538
X01528968
X01540398
X01537208Y00474726
X01548638
X01525778
X01514348
X01502918
X01528968Y00538226
Y00544116
Y00549656
Y00636016
X01528788Y00642142
Y00648716
X01533793Y00645769
X01533793Y00639138
X01499788Y00652439
X01493867Y00630866
X01487788
X01487985Y00684696
X01487921Y00689738
X01492687Y00687906
X01483571Y00681806
X01457915Y00681856
X01457960Y00689356
Y00696976
Y00704596
Y00712216
X01454624Y00727456
Y00734325
Y00740907
Y00747776
X01496600Y00746597
Y00754808
X01496625Y00763016
X01496600Y00773116
X01544828Y00735076
Y00727456
Y00719836
Y00712216
Y00704596
X01560147Y00678441
X01395121Y00661469
X01395121Y00654094
X01391158Y00657606
Y00665226
Y00649986
Y00640256
X01410783Y00730886
X01336548Y00782066
X01391158Y00519176
X01384808Y00509016
Y00502030
X01430528Y00505206
X01442578
X01426718Y00538226
Y00544116
Y00548753
X01111398Y00469376
X01098898Y00461976
Y00476776
X01086398Y00469376
X01081278Y00487896
X01048258Y00476776
X01038098
X01027938
Y00449326
X01038098
X01048258
X01078128Y00426807
X01100178Y00426593
X00973383Y00458566
X00961383
X00949973
X00938543
X00926338
X00930338Y00488661
X00941768
X00953178
X00965178
X00899863Y00491446
X00892013Y00490866
X00885862Y00490927
X00878105
X00866353Y00489846
X00854703Y00489596
X00855993Y00458566
X00844563
X00822198Y00458506
X00803148Y00479706
X00808228Y00490866
X00812038Y00500387
Y00508986
X00823468Y00517366
X00838863Y00540456
X00834956Y00544576
X00838704Y00548620
X00938939Y00547432
Y00540456
X00943262Y00543667
X00943013Y00635343
X00943253Y00641736
X00939038Y00644906
Y00638556
X00939193Y00632053
X00910013Y00628326
X00904288Y00625856
X00898248
X00892013Y00628326
Y00623316
X00892959Y00675236
Y00679520
X00898057
Y00675184
X00843802Y00683218
X00843788Y00691896
Y00699516
Y00707136
X00845181Y00739389
X00851781Y00745201
X00857758Y00751066
X00864235Y00756876
X00925068
Y00747776
Y00766826
Y00776143
X00934013Y00723411
X00971858Y00658583
Y00653113
Y00646816
X01019025Y00697026
X01026668
X01034445
X01041803Y00696976
X01056638
X01065733
X01074771
X01083818
X01092003
X01100448
X01114889Y00697026
X01123828
X01132078
X01141003
X00800798Y00694228
X00800608Y00680685
X00808228Y00664983
X00816738Y00665228
X00823468Y00659366
X00804418Y00639181
X00800608Y00710946
X00867423Y00458566
X00878817
X00868693Y00444246
X00653368Y00438679
X00641137
X00646613Y00472896
Y00487696
X00659113Y00480296
X00634113
X00628303Y00499296
X00599873Y00483886
X00589713
X00579553
X00579493Y00454756
X00589653
X00599813
X00528693Y00467314
X00517263
X00506022Y00467106
X00494403
X00482973
X00447898
X00435486
X00423776
X00412626
Y00497759
X00422519
X00433160
X00441198
X00450983
X00464590
X00476020
X00487449
X00498880
X00510309
X00519630
X00486918Y00547116
Y00552793
Y00559131
X00485648Y00643636
Y00649986
Y00656336
X00490199Y00653251
X00490200Y00646699
X00486918Y00664065
X00501833Y00674986
X00502130Y00722226
X00483223Y00727456
X00477353Y00720094
X00471543Y00714076
X00465328Y00707136
X00449326Y00690066
X00444983Y00690066
X00444983Y00685266
X00449326
X00450983Y00639916
X00456819
X00444983
X00396983
X00398653Y00696574
Y00703943
Y00712216
Y00719836
X00412785Y00772279
X00415179Y00780796
X00499949Y00769796
X00535671Y00709765
X00563681Y00705683
X00572008Y00705866
X00580898
X00588688
X00606343Y00704266
X00614033
X00621538
X00628643
X00636398
X00643003
X00649598
X00664039
X00672338
X00679958
X00687791Y00704596
X00790448Y00772796
X00434315Y00453325
X00375832Y00495300
X00360028Y00509759
Y00517696
Y00525087
X00341783Y00533177
X00385298Y00547116
Y00552793
Y00559131
X00394026Y00514674
X00367623Y00653778
X00368808Y00669036
X00356728Y00675466
X00358552Y00696812
X00268478Y00583356
X00262128
X00253167Y00597898
X00242815
X00366495Y00803656
X00274828Y00976226
X00267428Y00988726
X00282228
X00274828Y01001226
X00293828Y01005586
X00278638Y01036066
Y01046226
Y01056386
X00248468
Y01046226
Y01036066
X00222304Y00999236
Y00987171
X00250698Y01110996
Y01122426
Y01133856
Y01145286
Y01156716
X00281358Y01153633
X00281358Y01142276
Y01130846
Y01119416
Y01165136
Y01173116
Y01179346
X00340688Y01132096
X00346498
X00352298
X00438658Y01131316
X00441761Y01128167
X00445008Y01131316
X00448197Y01128167
X00451358Y01131316
X00480573Y01144244
X00499618Y01155116
X00508508
X00517398
X00526288
X00523851Y01125671
X00552597Y01120107
X00543368Y01102826
X00501789Y01073327
Y01064006
Y01053846
Y01044748
Y01029783
Y01022096
Y01014178
Y01003171
Y00994876
Y00987171
Y00975106
Y00964731
Y00953516
Y00944316
X00486918Y00867156
X00531368Y00835406
X00773938Y00888746
X00758698Y01172591
X00619125Y01131235
X00469011Y01170622
X00464737Y01172591
X00460418Y01172590
X00458569Y01177036
X00432208Y01173298
X00431384Y01166770
X01011428Y01155446
X00947293Y00883666
X00829158Y00808354
X01358768Y00814461
X01407747Y00859996
X01415288Y00923036
X01424788
X01435238
X01443738
X01456848
X01463571
X01470248
X01477088
X01483571
X01489958
X01496600
X01513588
X01522858
X01531922
X01541528
X01527048Y01141476
X01516888
X01506728
Y01171839
X01516888
X01527048
X01471668Y01149046
X01459168Y01156446
Y01141646
X01446668Y01149046
X01476498Y01130046
X01596169Y01326186
X01621328Y01441473
Y01448743
X01617413Y01454989
X01609324Y01462716
X01604598Y01467992
Y01507336
X01598018
X01550558
X01537274
X01544518Y01486106
X01546719Y01460970
X01552215
X01549679Y01456145
X01544901Y01456369
X01540085Y01450659
X01536943Y01447197
X01534668Y01442836
Y01438013
X01579118Y01438052
X01579271Y01459630
X01579424Y01465826
X01502056Y01469375
X01499254Y01462383
X01498980Y01486259
X01504460Y01492876
Y01498727
Y01504726
X01509476Y01501806
Y01495806
X01459532Y01488828
X01465031Y01468259
X01469763Y01428256
Y01418336
X01489330Y01399286
X01416178Y01438013
X01406398
X01396238
X01386078
X01373498
X01365378
X01357323
X01347978
X01339588
X01331118
X01316485
X01307338
X01297178
X01287907
X01354328Y01345056
X01402228Y01333246
X01436323Y01337056
X01453668Y01193419
X01472173Y01193126
X01331118Y01222756
X01248178Y01283186
X01060958Y01302766
X01069278Y01213866
X01067818Y01443736
X01058903
X01049528
X01040638
X01079818
X01088208
X01096498
X01107123
X01114848
X01122438
X01134268
X01143508Y01443736
X01152398
X01161103
X00974248Y01459786
X00940988Y01460942
Y01453896
Y01447546
Y01441196
X00898398Y01439926
Y01445376
Y01451267
X00907976Y01461729
X00877443Y01466141
X00855018Y01472922
Y01482960
X00863120Y01493840
Y01500340
X00867918Y01503426
Y01497076
Y01490726
X00854710Y01454852
X00814228Y01464176
Y01495316
X00904988Y01507336
X00910948Y01507336
X00916988Y01507336
Y01512316
X00958988Y01507336
X00920828Y01360546
X00885068Y01353566
X00880208Y01357756
X00875538Y01362076
X00861568Y01351026
X00875538Y01334386
X00843733Y01404961
X00601218Y01327546
X00654558Y01269746
X00560578Y01230887
X00559816Y01207516
X00546462Y01192647
X00499072Y01206929
X00503428Y01211326
X00508234Y01216252
X00513159Y01221771
X00475999Y01230887
X00431038Y01227306
Y01221116
X00488188Y01277686
X00410718Y01467866
Y01479296
Y01489456
X00574408Y01548886
X00568198Y01559386
Y01569386
Y01578386
X00585908Y01569386
Y01559386
X00606440Y01564386
X00617728Y01566926
Y01574386
X00637978Y01569386
Y01559386
X00640478Y01540256
X00597408Y01579886
X00384048Y01489456
X00373888Y01479296
X00364998Y01467866
X00216408Y01502156
X00203708Y01561846
X00227328Y01570736
X00249484Y01239266
Y01227596
Y01215486
Y01203499
X00242268Y01199736
X00249484Y01191576
X00281358Y01191116
X00281358Y01203576
X00281358Y01215576
X00281358Y01224386
Y01236346
X00293828Y01264666
X00305058Y01263396
X00314198
X00321818Y01257576
X00339598Y01233046
X00345458
X00351028
X00401828Y01596136
X00433578Y01605026
X00588518Y01601216
X00600518
X00640938
X00652938
X00602488Y01682552
X00814578Y01677528
X00798957Y01660756
X00847128Y01672980
X00858458
X00869959
X00881888
X00893612
X00905161
X00928878Y01674876
X00940308
X00951738
Y01684981
X00963168Y01674876
X00974598
X00967328Y01644096
X00955898
X00944468
X00932038
X00922988
X00916933
X00910988
X00900588
X00888588
X00878078
X00865378
X00853948
X00867918Y01599946
Y01594086
Y01587956
X00970788
Y01594086
Y01599946
X01011428Y01608486
X01003808Y01618520
X01008580Y01629186
Y01636776
X01070048Y01668526
X01082548Y01675926
Y01661126
X01095048Y01668526
X01099188Y01649826
X01132078Y01664016
X01142238
X01152398
Y01693924
X01142238
X01132078
X01090488Y01709354
X01065838Y01709396
X00928878Y01704086
X01238758Y01631696
X01248918
X01321578Y01668526
X01334078Y01675926
Y01661126
X01346578Y01668526
X01350518Y01649526
X01380618Y01666150
X01390778
X01400938
Y01695128
X01390778
X01380618
X01346578Y01709166
X01321578Y01708856
X01485138Y01674876
X01496568
X01507998
X01519428
X01530858
X01542288
X01565148
X01576578
X01573608Y01641906
X01565148
X01553718Y01642156
X01544032Y01642382
X01532558
X01519428
X01507998Y01642515
X01496568
X01485138
X01508643Y01599946
Y01594086
Y01587956
X01584798Y01641906
X01595170
X01607170
X01610868Y01674876
X01599438
X01588008
X01588253Y01685036
X01640151Y01633686
Y01627294
X01634998Y01616026
X01648010Y01615733
X01610868Y01599946
Y01594086
Y01587956
T02
X01436336Y00664327
X01441785Y00660146
X01451764
X01450867Y00666956
X01464782Y00666788
X01463812Y00660146
X01473358
X01476960Y00664974
X01104138Y00765186
X00887715Y00657299
X00882475Y00653706
X00874037Y00653949
X00874278Y00661696
X00861093Y00660516
X00861989Y00653706
X00853040Y00654311
X00845446Y00657151
X00429768Y00666187
X00421250Y00666496
X00423618Y00672929
X00434250Y00671094
X00407281Y00673306
X00408178Y00666496
X00398253
X00392870Y00672677
X00650748Y00983481
X00464737Y01188466
X00458560Y01189975
X01069278Y01002533
X01248178Y00956866
X01309878Y01075426
X01596558Y01480439
X01603223Y01477901
X01586582Y01480439
X01587478Y01473629
X01572815Y01474093
X01574534Y01480439
X01566418Y01481856
X01561238Y01478621
X01309878Y01269746
X01114848Y01371499
X01029002Y01396734
X00964018Y01478836
X00956916Y01479244
X00947187
X00948354Y01472096
X00934068Y01472434
X00934964Y01479244
X00926770Y01480496
X00921332Y01476872
X00457518Y01224906
X00459868Y01217676
X00460248Y01209315
X00467058Y01210036
X00466562Y01196748
X00459971Y01197341
X00376428Y01633686
X00363842
X00338288
X00312928
X00287528
Y01622806
X00274828
Y01633686
X00262128
Y01622806
X00249428Y01633686
X00262128Y01712976
X00274828
X00287528
X00312928
X00338328
X00351028
X00363728
X00376428
X00389128
Y01662176
X00376428Y01671066
X00351028Y01687576
X00325628Y01690116
X00300228
X00325628Y01658366
X00401788Y01633686
X00414528
X00427228
X00439928Y01658366
Y01712976
X00427228
X00414528
X00401788
X01008568Y01646632
X01634648Y01652366
T03
X00378268Y00860686
X00418768
X00700268Y00833686
X00714268Y00938686
Y01013686
X00848268Y00860686
X00888768
X01170268Y00833686
X01184268Y00938686
Y01013686
X01318268Y00860686
X01358768
X01640268Y00833686
X01654268Y00938686
Y01013686
X01501268Y01343686
X01460768
X01298768
X01031268
X00990768
X00828768
X00561268
X00520768
X00358768
T04
X00994918Y00432816
Y00537595
X01063527Y00789686
X00544068Y00552196
X00551688Y00425196
X00282448Y00895096
X00210058Y00923036
X00531368Y00910336
X00608838
X00657098Y00938276
X00569665Y00960875
X00831088Y00973836
X00886018
X00937768Y01005586
X00996188
Y00928116
X00937768
X00942594Y01065508
X00827278Y01050776
X00817118Y01132586
X01138428Y01102106
X01100328Y00953516
X01318268Y00954756
Y01009946
X01567988Y01124636
Y01182116
X01706118Y01013686
Y00938686
X01742948Y00896366
X01707388Y00850646
X01596898Y00796036
X01751838Y00977646
X01641348Y01283716
X01585768
X01529888
X01424178
X01369053
X01218438Y01366266
X01147318Y01286256
X01138428Y01196066
X01053338Y01259586
X00966988
X00922528Y01297686
X00800608Y01392936
X00692658
X00582168Y01417066
X00517398
X00634238Y01243506
X00612648Y01192647
X00754068Y01283946
X00364998Y01514856
Y01570736
X00310388Y01588516
X00254508
X00525018Y01600406
X00602488Y01706626
X00658368
X01222248Y01705356
Y01600676
X01439418Y01631696
X01675638Y01695196
T05
X00729488Y01707896
X00754888
X00780288
T06
X00378268Y00860686
X00418768
X00700268Y00833686
X00714268Y00938686
Y01013686
X00848268Y00860686
X00888768
X01170268Y00833686
X01184268Y00938686
Y01013686
X01318268Y00860686
X01358768
X01640268Y00833686
X01654268Y00938686
Y01013686
X01501268Y01343686
X01460768
X01298768
X01031268
X00990768
X00828768
X00561268
X00520768
X00358768
T07
X00227328Y01674436
X00462028
T08
X01350768Y00712186
T09
X01700768Y00712186
X01227468
X00754068
X00280768
X01700768Y01532186
X01227468
X00754068
X00280768
T10
X00480768Y01532186
M30
