G04*
G04 #@! TF.GenerationSoftware,Altium Limited,Altium Designer,23.6.0 (18)*
G04*
G04 Layer_Color=32896*
%FSAX44Y44*%
%MOMM*%
G71*
G04*
G04 #@! TF.SameCoordinates,B6B15AAD-09C2-4985-A1E0-6DBEE0027C76*
G04*
G04*
G04 #@! TF.FilePolarity,Positive*
G04*
G01*
G75*
%ADD10C,0.1778*%
%ADD11C,0.2500*%
%ADD12C,0.1500*%
%ADD15C,0.2032*%
%ADD16C,0.2540*%
G54D10*
X00878078Y01399540D02*
Y01408176D01*
X00867918Y01399540D02*
X00878078D01*
X00857758D02*
X00867918D01*
X00857758D02*
Y01408176D01*
Y01428496D02*
Y01437132D01*
X00867918D01*
X00878078D01*
Y01428496D02*
Y01437132D01*
X00446846Y01175251D02*
Y01181093D01*
X00436432D02*
X00446846D01*
X00436432Y01175251D02*
Y01181093D01*
X00446846Y01156709D02*
Y01162551D01*
X00436432Y01156709D02*
X00446846D01*
X00436432D02*
Y01162551D01*
X00435706Y00651788D02*
X00441548D01*
X00435706Y00641374D02*
Y00651788D01*
Y00641374D02*
X00441548D01*
X00454248Y00651788D02*
X00460090D01*
Y00641374D02*
Y00651788D01*
X00454248Y00641374D02*
X00460090D01*
X01479146Y00641788D02*
X01484988D01*
X01479146Y00631374D02*
Y00641788D01*
Y00631374D02*
X01484988D01*
X01497688Y00641788D02*
X01503530D01*
Y00631374D02*
Y00641788D01*
X01497688Y00631374D02*
X01503530D01*
X00909294Y00631839D02*
X00915136D01*
Y00642253D01*
X00909294D02*
X00915136D01*
X00890752Y00631839D02*
X00896594D01*
X00890752D02*
Y00642253D01*
X00896594D01*
X01535131Y01501013D02*
X01540973D01*
X01535131Y01490599D02*
Y01501013D01*
Y01490599D02*
X01540973D01*
X01553673Y01501013D02*
X01559515D01*
Y01490599D02*
Y01501013D01*
X01553673Y01490599D02*
X01559515D01*
X00895784Y01504829D02*
X00901626D01*
X00895784Y01494415D02*
Y01504829D01*
Y01494415D02*
X00901626D01*
X00914326Y01504829D02*
X00920168D01*
Y01494415D02*
Y01504829D01*
X00914326Y01494415D02*
X00920168D01*
X01406087Y00477774D02*
Y00483616D01*
Y00477774D02*
X01416501D01*
Y00483616D01*
X01406087Y00496316D02*
Y00502158D01*
X01416501D01*
Y00496316D02*
Y00502158D01*
X01427695Y00496316D02*
Y00502158D01*
X01417281D02*
X01427695D01*
X01417281Y00496316D02*
Y00502158D01*
X01427695Y00477774D02*
Y00483616D01*
X01417281Y00477774D02*
X01427695D01*
X01417281D02*
Y00483616D01*
X01439545Y00496316D02*
Y00502158D01*
X01429131D02*
X01439545D01*
X01429131Y00496316D02*
Y00502158D01*
X01439545Y00477774D02*
Y00483616D01*
X01429131Y00477774D02*
X01439545D01*
X01429131D02*
Y00483616D01*
X01450975Y00496816D02*
Y00502658D01*
X01440561D02*
X01450975D01*
X01440561Y00496816D02*
Y00502658D01*
X01450975Y00478274D02*
Y00484116D01*
X01440561Y00478274D02*
X01450975D01*
X01440561D02*
Y00484116D01*
X01462405Y00496316D02*
Y00502158D01*
X01451991D02*
X01462405D01*
X01451991Y00496316D02*
Y00502158D01*
X01462405Y00477774D02*
Y00483616D01*
X01451991Y00477774D02*
X01462405D01*
X01451991D02*
Y00483616D01*
X01473835Y00496316D02*
Y00502158D01*
X01463421D02*
X01473835D01*
X01463421Y00496316D02*
Y00502158D01*
X01473835Y00477774D02*
Y00483616D01*
X01463421Y00477774D02*
X01473835D01*
X01463421D02*
Y00483616D01*
X01485265Y00496316D02*
Y00502158D01*
X01474851D02*
X01485265D01*
X01474851Y00496316D02*
Y00502158D01*
X01485265Y00477774D02*
Y00483616D01*
X01474851Y00477774D02*
X01485265D01*
X01474851D02*
Y00483616D01*
X01496695Y00496316D02*
Y00502158D01*
X01486281D02*
X01496695D01*
X01486281Y00496316D02*
Y00502158D01*
X01496695Y00477774D02*
Y00483616D01*
X01486281Y00477774D02*
X01496695D01*
X01486281D02*
Y00483616D01*
X01508125Y00496316D02*
Y00502158D01*
X01497711D02*
X01508125D01*
X01497711Y00496316D02*
Y00502158D01*
X01508125Y00477774D02*
Y00483616D01*
X01497711Y00477774D02*
X01508125D01*
X01497711D02*
Y00483616D01*
X01519555Y00496316D02*
Y00502158D01*
X01509141D02*
X01519555D01*
X01509141Y00496316D02*
Y00502158D01*
X01519555Y00477774D02*
Y00483616D01*
X01509141Y00477774D02*
X01519555D01*
X01509141D02*
Y00483616D01*
X01530985Y00496316D02*
Y00502158D01*
X01520571D02*
X01530985D01*
X01520571Y00496316D02*
Y00502158D01*
X01530985Y00477774D02*
Y00483616D01*
X01520571Y00477774D02*
X01530985D01*
X01520571D02*
Y00483616D01*
X01542415Y00496316D02*
Y00502158D01*
X01532001D02*
X01542415D01*
X01532001Y00496316D02*
Y00502158D01*
X01542415Y00477774D02*
Y00483616D01*
X01532001Y00477774D02*
X01542415D01*
X01532001D02*
Y00483616D01*
X01553845Y00496316D02*
Y00502158D01*
X01543431D02*
X01553845D01*
X01543431Y00496316D02*
Y00502158D01*
X01553845Y00477774D02*
Y00483616D01*
X01543431Y00477774D02*
X01553845D01*
X01543431D02*
Y00483616D01*
X00849770Y00479836D02*
Y00485678D01*
X00839356D02*
X00849770D01*
X00839356Y00479836D02*
Y00485678D01*
X00849770Y00461294D02*
Y00467136D01*
X00839356Y00461294D02*
X00849770D01*
X00839356D02*
Y00467136D01*
X00861200Y00479836D02*
Y00485678D01*
X00850786D02*
X00861200D01*
X00850786Y00479836D02*
Y00485678D01*
X00861200Y00461294D02*
Y00467136D01*
X00850786Y00461294D02*
X00861200D01*
X00850786D02*
Y00467136D01*
X00872630Y00479836D02*
Y00485678D01*
X00862216D02*
X00872630D01*
X00862216Y00479836D02*
Y00485678D01*
X00872630Y00461294D02*
Y00467136D01*
X00862216Y00461294D02*
X00872630D01*
X00862216D02*
Y00467136D01*
X00884060Y00479836D02*
Y00485678D01*
X00873646D02*
X00884060D01*
X00873646Y00479836D02*
Y00485678D01*
X00884060Y00461294D02*
Y00467136D01*
X00873646Y00461294D02*
X00884060D01*
X00873646D02*
Y00467136D01*
X00885076Y00461294D02*
Y00467136D01*
Y00461294D02*
X00895490D01*
Y00467136D01*
X00885076Y00479836D02*
Y00485678D01*
X00895490D01*
Y00479836D02*
Y00485678D01*
X00906920Y00479836D02*
Y00485678D01*
X00896506D02*
X00906920D01*
X00896506Y00479836D02*
Y00485678D01*
X00906920Y00461294D02*
Y00467136D01*
X00896506Y00461294D02*
X00906920D01*
X00896506D02*
Y00467136D01*
X00943750Y00479836D02*
Y00485678D01*
X00933336D02*
X00943750D01*
X00933336Y00479836D02*
Y00485678D01*
X00943750Y00461294D02*
Y00467136D01*
X00933336Y00461294D02*
X00943750D01*
X00933336D02*
Y00467136D01*
X00955180Y00479836D02*
Y00485678D01*
X00944766D02*
X00955180D01*
X00944766Y00479836D02*
Y00485678D01*
X00955180Y00461294D02*
Y00467136D01*
X00944766Y00461294D02*
X00955180D01*
X00944766D02*
Y00467136D01*
X00966590Y00479836D02*
Y00485678D01*
X00956176D02*
X00966590D01*
X00956176Y00479836D02*
Y00485678D01*
X00966590Y00461294D02*
Y00467136D01*
X00956176Y00461294D02*
X00966590D01*
X00956176D02*
Y00467136D01*
X00978590Y00479836D02*
Y00485678D01*
X00968176D02*
X00978590D01*
X00968176Y00479836D02*
Y00485678D01*
X00978590Y00461294D02*
Y00467136D01*
X00968176Y00461294D02*
X00978590D01*
X00968176D02*
Y00467136D01*
X01370838Y00783590D02*
Y00792226D01*
Y00783590D02*
X01380998D01*
X01391158D01*
Y00792226D01*
Y00812546D02*
Y00821182D01*
X01380998D02*
X01391158D01*
X01370838D02*
X01380998D01*
X01370838Y00812546D02*
Y00821182D01*
X01392428Y00783590D02*
Y00792226D01*
Y00783590D02*
X01402588D01*
X01412748D01*
Y00792226D01*
Y00812546D02*
Y00821182D01*
X01402588D02*
X01412748D01*
X01392428D02*
X01402588D01*
X01392428Y00812546D02*
Y00821182D01*
X01414018Y00783590D02*
Y00792226D01*
Y00783590D02*
X01424178D01*
X01434338D01*
Y00792226D01*
Y00812546D02*
Y00821182D01*
X01424178D02*
X01434338D01*
X01414018D02*
X01424178D01*
X01414018Y00812546D02*
Y00821182D01*
X01434338Y00783590D02*
Y00792226D01*
Y00783590D02*
X01444498D01*
X01454658D01*
Y00792226D01*
Y00812546D02*
Y00821182D01*
X01444498D02*
X01454658D01*
X01434338D02*
X01444498D01*
X01434338Y00812546D02*
Y00821182D01*
X01457198Y00783590D02*
Y00792226D01*
Y00783590D02*
X01467358D01*
X01477518D01*
Y00792226D01*
Y00812546D02*
Y00821182D01*
X01467358D02*
X01477518D01*
X01457198D02*
X01467358D01*
X01457198Y00812546D02*
Y00821182D01*
X01477518Y00783590D02*
Y00792226D01*
Y00783590D02*
X01487678D01*
X01497838D01*
Y00792226D01*
Y00812546D02*
Y00821182D01*
X01487678D02*
X01497838D01*
X01477518D02*
X01487678D01*
X01477518Y00812546D02*
Y00821182D01*
X01499108Y00783590D02*
Y00792226D01*
Y00783590D02*
X01509268D01*
X01519428D01*
Y00792226D01*
Y00812546D02*
Y00821182D01*
X01509268D02*
X01519428D01*
X01499108D02*
X01509268D01*
X01499108Y00812546D02*
Y00821182D01*
X01520698Y00783590D02*
Y00792226D01*
Y00783590D02*
X01530858D01*
X01541018D01*
Y00792226D01*
Y00812546D02*
Y00821182D01*
X01530858D02*
X01541018D01*
X01520698D02*
X01530858D01*
X01520698Y00812546D02*
Y00821182D01*
X01462786Y00465963D02*
X01468628D01*
X01462786Y00455549D02*
Y00465963D01*
Y00455549D02*
X01468628D01*
X01481328Y00465963D02*
X01487170D01*
Y00455549D02*
Y00465963D01*
X01481328Y00455549D02*
X01487170D01*
X01474216Y00477393D02*
X01480058D01*
X01474216Y00466979D02*
Y00477393D01*
Y00466979D02*
X01480058D01*
X01492758Y00477393D02*
X01498600D01*
Y00466979D02*
Y00477393D01*
X01492758Y00466979D02*
X01498600D01*
X00871333Y00449453D02*
X00877175D01*
X00871333Y00439039D02*
Y00449453D01*
Y00439039D02*
X00877175D01*
X00889875Y00449453D02*
X00895717D01*
Y00439039D02*
Y00449453D01*
X00889875Y00439039D02*
X00895717D01*
X00884936Y00460883D02*
X00890778D01*
X00884936Y00450469D02*
Y00460883D01*
Y00450469D02*
X00890778D01*
X00903478Y00460883D02*
X00909320D01*
Y00450469D02*
Y00460883D01*
X00903478Y00450469D02*
X00909320D01*
X00417833Y00488886D02*
Y00494728D01*
X00407419D02*
X00417833D01*
X00407419Y00488886D02*
Y00494728D01*
X00417833Y00470344D02*
Y00476186D01*
X00407419Y00470344D02*
X00417833D01*
X00407419D02*
Y00476186D01*
X00429263Y00488886D02*
Y00494728D01*
X00418849D02*
X00429263D01*
X00418849Y00488886D02*
Y00494728D01*
X00429263Y00470344D02*
Y00476186D01*
X00418849Y00470344D02*
X00429263D01*
X00418849D02*
Y00476186D01*
X00440693Y00488886D02*
Y00494728D01*
X00430279D02*
X00440693D01*
X00430279Y00488886D02*
Y00494728D01*
X00440693Y00470344D02*
Y00476186D01*
X00430279Y00470344D02*
X00440693D01*
X00430279D02*
Y00476186D01*
X00452693Y00488886D02*
Y00494728D01*
X00442279D02*
X00452693D01*
X00442279Y00488886D02*
Y00494728D01*
X00452693Y00470344D02*
Y00476186D01*
X00442279Y00470344D02*
X00452693D01*
X00442279D02*
Y00476186D01*
X00464693Y00488886D02*
Y00494728D01*
X00454279D02*
X00464693D01*
X00454279Y00488886D02*
Y00494728D01*
X00464693Y00470344D02*
Y00476186D01*
X00454279Y00470344D02*
X00464693D01*
X00454279D02*
Y00476186D01*
X00476750Y00488886D02*
Y00494728D01*
X00466336D02*
X00476750D01*
X00466336Y00488886D02*
Y00494728D01*
X00476750Y00470344D02*
Y00476186D01*
X00466336Y00470344D02*
X00476750D01*
X00466336D02*
Y00476186D01*
X00488180Y00488886D02*
Y00494728D01*
X00477766D02*
X00488180D01*
X00477766Y00488886D02*
Y00494728D01*
X00488180Y00470344D02*
Y00476186D01*
X00477766Y00470344D02*
X00488180D01*
X00477766D02*
Y00476186D01*
X00499610Y00488886D02*
Y00494728D01*
X00489196D02*
X00499610D01*
X00489196Y00488886D02*
Y00494728D01*
X00499610Y00470344D02*
Y00476186D01*
X00489196Y00470344D02*
X00499610D01*
X00489196D02*
Y00476186D01*
X00511040Y00488886D02*
Y00494728D01*
X00500626D02*
X00511040D01*
X00500626Y00488886D02*
Y00494728D01*
X00511040Y00470344D02*
Y00476186D01*
X00500626Y00470344D02*
X00511040D01*
X00500626D02*
Y00476186D01*
X00522470Y00488886D02*
Y00494728D01*
X00512056D02*
X00522470D01*
X00512056Y00488886D02*
Y00494728D01*
X00522470Y00470344D02*
Y00476186D01*
X00512056Y00470344D02*
X00522470D01*
X00512056D02*
Y00476186D01*
X00533900Y00488886D02*
Y00494728D01*
X00523486D02*
X00533900D01*
X00523486Y00488886D02*
Y00494728D01*
X00533900Y00470344D02*
Y00476186D01*
X00523486Y00470344D02*
X00533900D01*
X00523486D02*
Y00476186D01*
X00453136Y00469773D02*
X00458978D01*
X00453136Y00459359D02*
Y00469773D01*
Y00459359D02*
X00458978D01*
X00471678Y00469773D02*
X00477520D01*
Y00459359D02*
Y00469773D01*
X00471678Y00459359D02*
X00477520D01*
X00440916Y00458343D02*
X00446758D01*
X00440916Y00447929D02*
Y00458343D01*
Y00447929D02*
X00446758D01*
X00459458Y00458343D02*
X00465300D01*
Y00447929D02*
Y00458343D01*
X00459458Y00447929D02*
X00465300D01*
X00841248Y00783590D02*
Y00792226D01*
Y00783590D02*
X00851408D01*
X00861568D01*
Y00792226D01*
Y00812546D02*
Y00821182D01*
X00851408D02*
X00861568D01*
X00841248D02*
X00851408D01*
X00841248Y00812546D02*
Y00821182D01*
X00862838Y00783590D02*
Y00792226D01*
Y00783590D02*
X00872998D01*
X00883158D01*
Y00792226D01*
Y00812546D02*
Y00821182D01*
X00872998D02*
X00883158D01*
X00862838D02*
X00872998D01*
X00862838Y00812546D02*
Y00821182D01*
X00884428Y00783590D02*
Y00792226D01*
Y00783590D02*
X00894588D01*
X00904748D01*
Y00792226D01*
Y00812546D02*
Y00821182D01*
X00894588D02*
X00904748D01*
X00884428D02*
X00894588D01*
X00884428Y00812546D02*
Y00821182D01*
X00904748Y00783590D02*
Y00792226D01*
Y00783590D02*
X00914908D01*
X00925068D01*
Y00792226D01*
Y00812546D02*
Y00821182D01*
X00914908D02*
X00925068D01*
X00904748D02*
X00914908D01*
X00904748Y00812546D02*
Y00821182D01*
X00926338Y00783590D02*
Y00792226D01*
Y00783590D02*
X00936498D01*
X00946658D01*
Y00792226D01*
Y00812546D02*
Y00821182D01*
X00936498D02*
X00946658D01*
X00926338D02*
X00936498D01*
X00926338Y00812546D02*
Y00821182D01*
X00947928Y00783590D02*
Y00792226D01*
Y00783590D02*
X00958088D01*
X00968248D01*
Y00792226D01*
Y00812546D02*
Y00821182D01*
X00958088D02*
X00968248D01*
X00947928D02*
X00958088D01*
X00947928Y00812546D02*
Y00821182D01*
X00969373Y00783590D02*
Y00792226D01*
Y00783590D02*
X00979533D01*
X00989693D01*
Y00792226D01*
Y00812546D02*
Y00821182D01*
X00979533D02*
X00989693D01*
X00969373D02*
X00979533D01*
X00969373Y00812546D02*
Y00821182D01*
X00991108Y00783590D02*
Y00792226D01*
Y00783590D02*
X01001268D01*
X01011428D01*
Y00792226D01*
Y00812546D02*
Y00821182D01*
X01001268D02*
X01011428D01*
X00991108D02*
X01001268D01*
X00991108Y00812546D02*
Y00821182D01*
X00372618Y00815086D02*
Y00823722D01*
X00382778D01*
X00392938D01*
Y00815086D02*
Y00823722D01*
Y00786130D02*
Y00794766D01*
X00382778Y00786130D02*
X00392938D01*
X00372618D02*
X00382778D01*
X00372618D02*
Y00794766D01*
X00392938Y00786130D02*
Y00794766D01*
Y00786130D02*
X00403098D01*
X00413258D01*
Y00794766D01*
Y00815086D02*
Y00823722D01*
X00403098D02*
X00413258D01*
X00392938D02*
X00403098D01*
X00392938Y00815086D02*
Y00823722D01*
X00414528Y00786130D02*
Y00794766D01*
Y00786130D02*
X00424688D01*
X00434848D01*
Y00794766D01*
Y00815086D02*
Y00823722D01*
X00424688D02*
X00434848D01*
X00414528D02*
X00424688D01*
X00414528Y00815086D02*
Y00823722D01*
X00434848Y00786130D02*
Y00794766D01*
Y00786130D02*
X00445008D01*
X00455168D01*
Y00794766D01*
Y00815086D02*
Y00823722D01*
X00445008D02*
X00455168D01*
X00434848D02*
X00445008D01*
X00434848Y00815086D02*
Y00823722D01*
X00455168Y00786130D02*
Y00794766D01*
Y00786130D02*
X00465328D01*
X00475488D01*
Y00794766D01*
Y00815086D02*
Y00823722D01*
X00465328D02*
X00475488D01*
X00455168D02*
X00465328D01*
X00455168Y00815086D02*
Y00823722D01*
X00475488Y00786130D02*
Y00794766D01*
Y00786130D02*
X00485648D01*
X00495808D01*
Y00794766D01*
Y00815086D02*
Y00823722D01*
X00485648D02*
X00495808D01*
X00475488D02*
X00485648D01*
X00475488Y00815086D02*
Y00823722D01*
X00495808Y00786130D02*
Y00794766D01*
Y00786130D02*
X00505968D01*
X00516128D01*
Y00794766D01*
Y00815086D02*
Y00823722D01*
X00505968D02*
X00516128D01*
X00495808D02*
X00505968D01*
X00495808Y00815086D02*
Y00823722D01*
X00517398Y00786130D02*
Y00794766D01*
Y00786130D02*
X00527558D01*
X00537718D01*
Y00794766D01*
Y00815086D02*
Y00823722D01*
X00527558D02*
X00537718D01*
X00517398D02*
X00527558D01*
X00517398Y00815086D02*
Y00823722D01*
X00252095Y01179576D02*
Y01185418D01*
X00241681D02*
X00252095D01*
X00241681Y01179576D02*
Y01185418D01*
X00252095Y01161034D02*
Y01166876D01*
X00241681Y01161034D02*
X00252095D01*
X00241681D02*
Y01166876D01*
X00240665Y01192276D02*
Y01198118D01*
X00230251D02*
X00240665D01*
X00230251Y01192276D02*
Y01198118D01*
X00240665Y01173734D02*
Y01179576D01*
X00230251Y01173734D02*
X00240665D01*
X00230251D02*
Y01179576D01*
X00272288Y01105789D02*
X00278130D01*
Y01116203D01*
X00272288D02*
X00278130D01*
X00253746Y01105789D02*
X00259588D01*
X00253746D02*
Y01116203D01*
X00259588D01*
X00272288Y01117219D02*
X00278130D01*
Y01127633D01*
X00272288D02*
X00278130D01*
X00253746Y01117219D02*
X00259588D01*
X00253746D02*
Y01127633D01*
X00259588D01*
X00272288Y01128649D02*
X00278130D01*
Y01139063D01*
X00272288D02*
X00278130D01*
X00253746Y01128649D02*
X00259588D01*
X00253746D02*
Y01139063D01*
X00259588D01*
X00272288Y01140079D02*
X00278130D01*
Y01150493D01*
X00272288D02*
X00278130D01*
X00253746Y01140079D02*
X00259588D01*
X00253746D02*
Y01150493D01*
X00259588D01*
X00272288Y01151509D02*
X00278130D01*
Y01161923D01*
X00272288D02*
X00278130D01*
X00253746Y01151509D02*
X00259588D01*
X00253746D02*
Y01161923D01*
X00259588D01*
X00272288Y01162939D02*
X00278130D01*
Y01173353D01*
X00272288D02*
X00278130D01*
X00253746Y01162939D02*
X00259588D01*
X00253746D02*
Y01173353D01*
X00259588D01*
X00272288Y01174369D02*
X00278130D01*
Y01184783D01*
X00272288D02*
X00278130D01*
X00253746Y01174369D02*
X00259588D01*
X00253746D02*
Y01184783D01*
X00259588D01*
X00272288Y01186369D02*
X00278130D01*
Y01196783D01*
X00272288D02*
X00278130D01*
X00253746Y01186369D02*
X00259588D01*
X00253746D02*
Y01196783D01*
X00259588D01*
X00272288Y01198369D02*
X00278130D01*
Y01208783D01*
X00272288D02*
X00278130D01*
X00253746Y01198369D02*
X00259588D01*
X00253746D02*
Y01208783D01*
X00259588D01*
X00272288Y01210369D02*
X00278130D01*
Y01220783D01*
X00272288D02*
X00278130D01*
X00253746Y01210369D02*
X00259588D01*
X00253746D02*
Y01220783D01*
X00259588D01*
X00272288Y01222629D02*
X00278130D01*
Y01233043D01*
X00272288D02*
X00278130D01*
X00253746Y01222629D02*
X00259588D01*
X00253746D02*
Y01233043D01*
X00259588D01*
X00272288Y01234059D02*
X00278130D01*
Y01244473D01*
X00272288D02*
X00278130D01*
X00253746Y01234059D02*
X00259588D01*
X00253746D02*
Y01244473D01*
X00259588D01*
X00272288Y01245334D02*
X00278130D01*
Y01255748D01*
X00272288D02*
X00278130D01*
X00253746Y01245334D02*
X00259588D01*
X00253746D02*
Y01255748D01*
X00259588D01*
X00434848Y01235710D02*
Y01244346D01*
Y01235710D02*
X00445008D01*
X00455168D01*
Y01244346D01*
Y01264666D02*
Y01273302D01*
X00445008D02*
X00455168D01*
X00434848D02*
X00445008D01*
X00434848Y01264666D02*
Y01273302D01*
X00456438Y01235710D02*
Y01244346D01*
Y01235710D02*
X00466598D01*
X00476758D01*
Y01244346D01*
Y01264666D02*
Y01273302D01*
X00466598D02*
X00476758D01*
X00456438D02*
X00466598D01*
X00456438Y01264666D02*
Y01273302D01*
X00478028Y01235710D02*
Y01244346D01*
Y01235710D02*
X00488188D01*
X00498348D01*
Y01244346D01*
Y01264666D02*
Y01273302D01*
X00488188D02*
X00498348D01*
X00478028D02*
X00488188D01*
X00478028Y01264666D02*
Y01273302D01*
X00499618Y01235710D02*
Y01244346D01*
Y01235710D02*
X00509778D01*
X00519938D01*
Y01244346D01*
Y01264666D02*
Y01273302D01*
X00509778D02*
X00519938D01*
X00499618D02*
X00509778D01*
X00499618Y01264666D02*
Y01273302D01*
X00519938Y01235710D02*
Y01244346D01*
Y01235710D02*
X00530098D01*
X00540258D01*
Y01244346D01*
Y01264666D02*
Y01273302D01*
X00530098D02*
X00540258D01*
X00519938D02*
X00530098D01*
X00519938Y01264666D02*
Y01273302D01*
X00540258Y01235710D02*
Y01244346D01*
Y01235710D02*
X00550418D01*
X00560578D01*
Y01244346D01*
Y01264666D02*
Y01273302D01*
X00550418D02*
X00560578D01*
X00540258D02*
X00550418D01*
X00540258Y01264666D02*
Y01273302D01*
X00560578Y01235710D02*
Y01244346D01*
Y01235710D02*
X00570738D01*
X00580898D01*
Y01244346D01*
Y01264666D02*
Y01273302D01*
X00570738D02*
X00580898D01*
X00560578D02*
X00570738D01*
X00560578Y01264666D02*
Y01273302D01*
X00580898Y01235710D02*
Y01244346D01*
Y01235710D02*
X00591058D01*
X00601218D01*
Y01244346D01*
Y01264666D02*
Y01273302D01*
X00591058D02*
X00601218D01*
X00580898D02*
X00591058D01*
X00580898Y01264666D02*
Y01273302D01*
X01511808Y01427226D02*
Y01435862D01*
X01501648D02*
X01511808D01*
X01491488D02*
X01501648D01*
X01491488Y01427226D02*
Y01435862D01*
Y01398270D02*
Y01406906D01*
Y01398270D02*
X01501648D01*
X01511808D01*
Y01406906D01*
X01533398Y01427226D02*
Y01435862D01*
X01523238D02*
X01533398D01*
X01513078D02*
X01523238D01*
X01513078Y01427226D02*
Y01435862D01*
Y01398270D02*
Y01406906D01*
Y01398270D02*
X01523238D01*
X01533398D01*
Y01406906D01*
X01555878Y01427226D02*
Y01435862D01*
X01545718D02*
X01555878D01*
X01535558D02*
X01545718D01*
X01535558Y01427226D02*
Y01435862D01*
Y01398270D02*
Y01406906D01*
Y01398270D02*
X01545718D01*
X01555878D01*
Y01406906D01*
X01577848Y01427226D02*
Y01435862D01*
X01567688D02*
X01577848D01*
X01557528D02*
X01567688D01*
X01557528Y01427226D02*
Y01435862D01*
Y01398270D02*
Y01406906D01*
Y01398270D02*
X01567688D01*
X01577848D01*
Y01406906D01*
X01599438Y01427226D02*
Y01435862D01*
X01589278D02*
X01599438D01*
X01579118D02*
X01589278D01*
X01579118Y01427226D02*
Y01435862D01*
Y01398270D02*
Y01406906D01*
Y01398270D02*
X01589278D01*
X01599438D01*
Y01406906D01*
X01621028Y01427226D02*
Y01435862D01*
X01610868D02*
X01621028D01*
X01600708D02*
X01610868D01*
X01600708Y01427226D02*
Y01435862D01*
Y01398270D02*
Y01406906D01*
Y01398270D02*
X01610868D01*
X01621028D01*
Y01406906D01*
X01642618Y01427226D02*
Y01435862D01*
X01632458D02*
X01642618D01*
X01622298D02*
X01632458D01*
X01622298Y01427226D02*
Y01435862D01*
Y01398270D02*
Y01406906D01*
Y01398270D02*
X01632458D01*
X01642618D01*
Y01406906D01*
X01664208Y01427226D02*
Y01435862D01*
X01654048D02*
X01664208D01*
X01643888D02*
X01654048D01*
X01643888Y01427226D02*
Y01435862D01*
Y01398270D02*
Y01406906D01*
Y01398270D02*
X01654048D01*
X01664208D01*
Y01406906D01*
X00898398Y01428496D02*
Y01437132D01*
X00888238D02*
X00898398D01*
X00878078D02*
X00888238D01*
X00878078Y01428496D02*
Y01437132D01*
Y01399540D02*
Y01408176D01*
Y01399540D02*
X00888238D01*
X00898398D01*
Y01408176D01*
X00919418Y01428496D02*
Y01437132D01*
X00909258D02*
X00919418D01*
X00899098D02*
X00909258D01*
X00899098Y01428496D02*
Y01437132D01*
Y01399540D02*
Y01408176D01*
Y01399540D02*
X00909258D01*
X00919418D01*
Y01408176D01*
X00940308Y01428496D02*
Y01437132D01*
X00930148D02*
X00940308D01*
X00919988D02*
X00930148D01*
X00919988Y01428496D02*
Y01437132D01*
Y01399540D02*
Y01408176D01*
Y01399540D02*
X00930148D01*
X00940308D01*
Y01408176D01*
X00961898Y01428496D02*
Y01437132D01*
X00951738D02*
X00961898D01*
X00941578D02*
X00951738D01*
X00941578Y01428496D02*
Y01437132D01*
Y01399540D02*
Y01408176D01*
Y01399540D02*
X00951738D01*
X00961898D01*
Y01408176D01*
X00983488Y01428496D02*
Y01437132D01*
X00973328D02*
X00983488D01*
X00963168D02*
X00973328D01*
X00963168Y01428496D02*
Y01437132D01*
Y01399540D02*
Y01408176D01*
Y01399540D02*
X00973328D01*
X00983488D01*
Y01408176D01*
X01003808Y01428496D02*
Y01437132D01*
X00993648D02*
X01003808D01*
X00983488D02*
X00993648D01*
X00983488Y01428496D02*
Y01437132D01*
Y01399540D02*
Y01408176D01*
Y01399540D02*
X00993648D01*
X01003808D01*
Y01408176D01*
X01024128Y01399540D02*
Y01408176D01*
X01013968Y01399540D02*
X01024128D01*
X01003808D02*
X01013968D01*
X01003808D02*
Y01408176D01*
Y01428496D02*
Y01437132D01*
X01013968D01*
X01024128D01*
Y01428496D02*
Y01437132D01*
X01479931Y01646174D02*
Y01652016D01*
Y01646174D02*
X01490345D01*
Y01652016D01*
X01479931Y01664716D02*
Y01670558D01*
X01490345D01*
Y01664716D02*
Y01670558D01*
X01491361Y01646174D02*
Y01652016D01*
Y01646174D02*
X01501775D01*
Y01652016D01*
X01491361Y01664716D02*
Y01670558D01*
X01501775D01*
Y01664716D02*
Y01670558D01*
X01502791Y01646174D02*
Y01652016D01*
Y01646174D02*
X01513205D01*
Y01652016D01*
X01502791Y01664716D02*
Y01670558D01*
X01513205D01*
Y01664716D02*
Y01670558D01*
X01514221Y01646174D02*
Y01652016D01*
Y01646174D02*
X01524635D01*
Y01652016D01*
X01514221Y01664716D02*
Y01670558D01*
X01524635D01*
Y01664716D02*
Y01670558D01*
X01525651Y01646174D02*
Y01652016D01*
Y01646174D02*
X01536065D01*
Y01652016D01*
X01525651Y01664716D02*
Y01670558D01*
X01536065D01*
Y01664716D02*
Y01670558D01*
X01537081Y01646174D02*
Y01652016D01*
Y01646174D02*
X01547495D01*
Y01652016D01*
X01537081Y01664716D02*
Y01670558D01*
X01547495D01*
Y01664716D02*
Y01670558D01*
X01548511Y01646174D02*
Y01652016D01*
Y01646174D02*
X01558925D01*
Y01652016D01*
X01548511Y01664716D02*
Y01670558D01*
X01558925D01*
Y01664716D02*
Y01670558D01*
X01559941Y01646174D02*
Y01652016D01*
Y01646174D02*
X01570355D01*
Y01652016D01*
X01559941Y01664716D02*
Y01670558D01*
X01570355D01*
Y01664716D02*
Y01670558D01*
X01571371Y01646174D02*
Y01652016D01*
Y01646174D02*
X01581785D01*
Y01652016D01*
X01571371Y01664716D02*
Y01670558D01*
X01581785D01*
Y01664716D02*
Y01670558D01*
X01582801Y01646174D02*
Y01652016D01*
Y01646174D02*
X01593215D01*
Y01652016D01*
X01582801Y01664716D02*
Y01670558D01*
X01593215D01*
Y01664716D02*
Y01670558D01*
X01554615Y01679829D02*
X01560457D01*
Y01690243D01*
X01554615D02*
X01560457D01*
X01536073Y01679829D02*
X01541915D01*
X01536073D02*
Y01690243D01*
X01541915D01*
X01579958Y01679829D02*
X01585800D01*
Y01690243D01*
X01579958D02*
X01585800D01*
X01561416Y01679829D02*
X01567258D01*
X01561416D02*
Y01690243D01*
X01567258D01*
X01594231Y01646174D02*
Y01652016D01*
Y01646174D02*
X01604645D01*
Y01652016D01*
X01594231Y01664716D02*
Y01670558D01*
X01604645D01*
Y01664716D02*
Y01670558D01*
X01605661Y01646174D02*
Y01652016D01*
Y01646174D02*
X01616075D01*
Y01652016D01*
X01605661Y01664716D02*
Y01670558D01*
X01616075D01*
Y01664716D02*
Y01670558D01*
X01617105Y01646174D02*
Y01652016D01*
Y01646174D02*
X01627519D01*
Y01652016D01*
X01617105Y01664716D02*
Y01670558D01*
X01627519D01*
Y01664716D02*
Y01670558D01*
X00941528Y01679829D02*
X00947370D01*
Y01690243D01*
X00941528D02*
X00947370D01*
X00922986Y01679829D02*
X00928828D01*
X00922986D02*
Y01690243D01*
X00928828D01*
X00917338Y01679829D02*
X00923180D01*
Y01690243D01*
X00917338D02*
X00923180D01*
X00898796Y01679829D02*
X00904638D01*
X00898796D02*
Y01690243D01*
X00904638D01*
X00852335Y01664716D02*
Y01670558D01*
X00841921D02*
X00852335D01*
X00841921Y01664716D02*
Y01670558D01*
X00852335Y01646174D02*
Y01652016D01*
X00841921Y01646174D02*
X00852335D01*
X00841921D02*
Y01652016D01*
X00863665Y01664716D02*
Y01670558D01*
X00853251D02*
X00863665D01*
X00853251Y01664716D02*
Y01670558D01*
X00863665Y01646174D02*
Y01652016D01*
X00853251Y01646174D02*
X00863665D01*
X00853251D02*
Y01652016D01*
X00865251Y01646174D02*
Y01652016D01*
Y01646174D02*
X00875665D01*
Y01652016D01*
X00865251Y01664716D02*
Y01670558D01*
X00875665D01*
Y01664716D02*
Y01670558D01*
X00876681Y01646174D02*
Y01652016D01*
Y01646174D02*
X00887095D01*
Y01652016D01*
X00876681Y01664716D02*
Y01670558D01*
X00887095D01*
Y01664716D02*
Y01670558D01*
X00888111Y01646174D02*
Y01652016D01*
Y01646174D02*
X00898525D01*
Y01652016D01*
X00888111Y01664716D02*
Y01670558D01*
X00898525D01*
Y01664716D02*
Y01670558D01*
X00899541Y01646174D02*
Y01652016D01*
Y01646174D02*
X00909955D01*
Y01652016D01*
X00899541Y01664716D02*
Y01670558D01*
X00909955D01*
Y01664716D02*
Y01670558D01*
X00911671Y01646174D02*
Y01652016D01*
Y01646174D02*
X00922085D01*
Y01652016D01*
X00911671Y01664716D02*
Y01670558D01*
X00922085D01*
Y01664716D02*
Y01670558D01*
X00923671Y01646174D02*
Y01652016D01*
Y01646174D02*
X00934085D01*
Y01652016D01*
X00923671Y01664716D02*
Y01670558D01*
X00934085D01*
Y01664716D02*
Y01670558D01*
X00935101Y01646174D02*
Y01652016D01*
Y01646174D02*
X00945515D01*
Y01652016D01*
X00935101Y01664716D02*
Y01670558D01*
X00945515D01*
Y01664716D02*
Y01670558D01*
X00946531Y01646174D02*
Y01652016D01*
Y01646174D02*
X00956945D01*
Y01652016D01*
X00946531Y01664716D02*
Y01670558D01*
X00956945D01*
Y01664716D02*
Y01670558D01*
X00957961Y01646174D02*
Y01652016D01*
Y01646174D02*
X00968375D01*
Y01652016D01*
X00957961Y01664716D02*
Y01670558D01*
X00968375D01*
Y01664716D02*
Y01670558D01*
X00999998Y01659159D02*
X01005840D01*
Y01669573D01*
X00999998D02*
X01005840D01*
X00981456Y01659159D02*
X00987298D01*
X00981456D02*
Y01669573D01*
X00987298D01*
X00969391Y01646174D02*
Y01652016D01*
Y01646174D02*
X00979805D01*
Y01652016D01*
X00969391Y01664716D02*
Y01670558D01*
X00979805D01*
Y01664716D02*
Y01670558D01*
G54D11*
X00699268Y00615686D02*
G03*
X00699268Y00615686I-00001250J00000000D01*
G01*
G54D12*
X00375936Y01343686D02*
G03*
X00375936Y01343686I-00017168J00000000D01*
G01*
X01671436Y00938686D02*
G03*
X01671436Y00938686I-00017168J00000000D01*
G01*
X01201436D02*
G03*
X01201436Y00938686I-00017168J00000000D01*
G01*
X00731436Y01013686D02*
G03*
X00731436Y01013686I-00017168J00000000D01*
G01*
X01048436Y01343686D02*
G03*
X01048436Y01343686I-00017168J00000000D01*
G01*
X00435936Y00860686D02*
G03*
X00435936Y00860686I-00017168J00000000D01*
G01*
X01315936Y01343686D02*
G03*
X01315936Y01343686I-00017168J00000000D01*
G01*
X01335436Y00860686D02*
G03*
X01335436Y00860686I-00017168J00000000D01*
G01*
X00731436Y00938686D02*
G03*
X00731436Y00938686I-00017168J00000000D01*
G01*
X01201436Y01013686D02*
G03*
X01201436Y01013686I-00017168J00000000D01*
G01*
X01007936Y01343686D02*
G03*
X01007936Y01343686I-00017168J00000000D01*
G01*
X00395436Y00860686D02*
G03*
X00395436Y00860686I-00017168J00000000D01*
G01*
X00905936D02*
G03*
X00905936Y00860686I-00017168J00000000D01*
G01*
X00717436Y00833686D02*
G03*
X00717436Y00833686I-00017168J00000000D01*
G01*
X01657436D02*
G03*
X01657436Y00833686I-00017168J00000000D01*
G01*
X01477936Y01343686D02*
G03*
X01477936Y01343686I-00017168J00000000D01*
G01*
X01671436Y01013686D02*
G03*
X01671436Y01013686I-00017168J00000000D01*
G01*
X00578436Y01343686D02*
G03*
X00578436Y01343686I-00017168J00000000D01*
G01*
X00865436Y00860686D02*
G03*
X00865436Y00860686I-00017168J00000000D01*
G01*
X00845936Y01343686D02*
G03*
X00845936Y01343686I-00017168J00000000D01*
G01*
X01518436D02*
G03*
X01518436Y01343686I-00017168J00000000D01*
G01*
X01375936Y00860686D02*
G03*
X01375936Y00860686I-00017168J00000000D01*
G01*
X00537936Y01343686D02*
G03*
X00537936Y01343686I-00017168J00000000D01*
G01*
X01187436Y00833686D02*
G03*
X01187436Y00833686I-00017168J00000000D01*
G01*
X00214268Y00620686D02*
X01767268D01*
Y01633686D01*
X00214268D02*
X01767268D01*
X00214268Y00620686D02*
Y01633686D01*
G54D15*
X00322326Y00179196D02*
Y00171579D01*
X00326135D01*
X00327404Y00172848D01*
Y00174118D01*
X00326135Y00175387D01*
X00322326D01*
X00326135D01*
X00327404Y00176657D01*
Y00177927D01*
X00326135Y00179196D01*
X00322326D01*
X00331213Y00171579D02*
X00333752D01*
X00335022Y00172848D01*
Y00175387D01*
X00333752Y00176657D01*
X00331213D01*
X00329944Y00175387D01*
Y00172848D01*
X00331213Y00171579D01*
X00338831Y00177927D02*
Y00176657D01*
X00337561D01*
X00340100D01*
X00338831D01*
Y00172848D01*
X00340100Y00171579D01*
X00345179Y00177927D02*
Y00176657D01*
X00343909D01*
X00346448D01*
X00345179D01*
Y00172848D01*
X00346448Y00171579D01*
X00351527D02*
X00354066D01*
X00355335Y00172848D01*
Y00175387D01*
X00354066Y00176657D01*
X00351527D01*
X00350257Y00175387D01*
Y00172848D01*
X00351527Y00171579D01*
X00357874D02*
Y00176657D01*
X00359144D01*
X00360414Y00175387D01*
Y00171579D01*
Y00175387D01*
X00361683Y00176657D01*
X00362953Y00175387D01*
Y00171579D01*
X00376918Y00179196D02*
X00374379D01*
X00373110Y00177927D01*
Y00172848D01*
X00374379Y00171579D01*
X00376918D01*
X00378188Y00172848D01*
Y00177927D01*
X00376918Y00179196D01*
X00380727Y00176657D02*
X00383266Y00171579D01*
X00385806Y00176657D01*
X00392153Y00171579D02*
X00389614D01*
X00388345Y00172848D01*
Y00175387D01*
X00389614Y00176657D01*
X00392153D01*
X00393423Y00175387D01*
Y00174118D01*
X00388345D01*
X00395962Y00176657D02*
Y00171579D01*
Y00174118D01*
X00397232Y00175387D01*
X00398501Y00176657D01*
X00399771D01*
X00403580Y00171579D02*
X00406119D01*
X00404849D01*
Y00179196D01*
X00403580D01*
X00411197Y00176657D02*
X00413736D01*
X00415006Y00175387D01*
Y00171579D01*
X00411197D01*
X00409928Y00172848D01*
X00411197Y00174118D01*
X00415006D01*
X00417545Y00176657D02*
Y00172848D01*
X00418815Y00171579D01*
X00422623D01*
Y00170309D01*
X00421354Y00169039D01*
X00420084D01*
X00422623Y00171579D02*
Y00176657D01*
X00885317Y00171450D02*
Y00179067D01*
X00890395Y00171450D01*
Y00179067D01*
X00892934Y00171450D02*
X00898013Y00176528D01*
X00900552Y00171450D02*
Y00176528D01*
X00903091Y00179067D01*
X00905630Y00176528D01*
Y00171450D01*
Y00175259D01*
X00900552D01*
X00746760Y00179067D02*
X00751838D01*
X00749299D01*
Y00171450D01*
X00754378Y00179067D02*
X00756917D01*
X00755647D01*
Y00171450D01*
X00754378D01*
X00756917D01*
X00760725Y00179067D02*
Y00171450D01*
X00764534D01*
X00765804Y00172720D01*
Y00177798D01*
X00764534Y00179067D01*
X00760725D01*
X00777230Y00171450D02*
Y00179067D01*
X00779769D02*
Y00171450D01*
X00775961Y00176528D02*
X00779769D01*
X00781039D01*
X00775961Y00173989D02*
X00781039D01*
X00783578Y00176528D02*
X00784848D01*
Y00175259D01*
X00783578D01*
Y00176528D01*
Y00172720D02*
X00784848D01*
Y00171450D01*
X00783578D01*
Y00172720D01*
X01474470Y00126912D02*
X01479548D01*
X01477009D01*
Y00119295D01*
X01487166Y00126912D02*
X01482088D01*
Y00119295D01*
X01487166D01*
X01482088Y00123104D02*
X01484627D01*
X01489705Y00126912D02*
X01494783Y00119295D01*
Y00126912D02*
X01489705Y00119295D01*
X01497323D02*
Y00124373D01*
X01499862Y00126912D01*
X01502401Y00124373D01*
Y00119295D01*
Y00123104D01*
X01497323D01*
X01510018Y00125643D02*
X01508749Y00126912D01*
X01506210D01*
X01504940Y00125643D01*
Y00124373D01*
X01506210Y00123104D01*
X01508749D01*
X01510018Y00121834D01*
Y00120564D01*
X01508749Y00119295D01*
X01506210D01*
X01504940Y00120564D01*
X01520175Y00126912D02*
X01522714D01*
X01521445D01*
Y00119295D01*
X01520175D01*
X01522714D01*
X01526523D02*
Y00126912D01*
X01531602Y00119295D01*
Y00126912D01*
X01539219Y00125643D02*
X01537950Y00126912D01*
X01535410D01*
X01534141Y00125643D01*
Y00124373D01*
X01535410Y00123104D01*
X01537950D01*
X01539219Y00121834D01*
Y00120564D01*
X01537950Y00119295D01*
X01535410D01*
X01534141Y00120564D01*
X01541758Y00126912D02*
X01546837D01*
X01544297D01*
Y00119295D01*
X01549376D02*
Y00126912D01*
X01553185D01*
X01554454Y00125643D01*
Y00123104D01*
X01553185Y00121834D01*
X01549376D01*
X01551915D02*
X01554454Y00119295D01*
X01556993Y00126912D02*
Y00120564D01*
X01558263Y00119295D01*
X01560802D01*
X01562072Y00120564D01*
Y00126912D01*
X01564611Y00119295D02*
Y00126912D01*
X01567150Y00124373D01*
X01569689Y00126912D01*
Y00119295D01*
X01577307Y00126912D02*
X01572228D01*
Y00119295D01*
X01577307D01*
X01572228Y00123104D02*
X01574768D01*
X01579846Y00119295D02*
Y00126912D01*
X01584924Y00119295D01*
Y00126912D01*
X01587463D02*
X01592542D01*
X01590003D01*
Y00119295D01*
X01600159Y00125643D02*
X01598890Y00126912D01*
X01596351D01*
X01595081Y00125643D01*
Y00124373D01*
X01596351Y00123104D01*
X01598890D01*
X01600159Y00121834D01*
Y00120564D01*
X01598890Y00119295D01*
X01596351D01*
X01595081Y00120564D01*
X01153287Y00125643D02*
X01154557Y00126912D01*
X01157096D01*
X01158365Y00125643D01*
Y00124373D01*
X01157096Y00123104D01*
X01158365Y00121834D01*
Y00120564D01*
X01157096Y00119295D01*
X01154557D01*
X01153287Y00120564D01*
Y00121834D01*
X01154557Y00123104D01*
X01153287Y00124373D01*
Y00125643D01*
X01154557Y00123104D02*
X01157096D01*
X01160904Y00124373D02*
X01162174D01*
Y00123104D01*
X01160904D01*
Y00124373D01*
Y00120564D02*
X01162174D01*
Y00119295D01*
X01160904D01*
Y00120564D01*
X01172331Y00126912D02*
X01167253D01*
Y00123104D01*
X01169792Y00124373D01*
X01171061D01*
X01172331Y00123104D01*
Y00120564D01*
X01171061Y00119295D01*
X01168522D01*
X01167253Y00120564D01*
X01174870Y00126912D02*
X01179948D01*
Y00125643D01*
X01174870Y00120564D01*
Y00119295D01*
X01182488Y00124373D02*
X01183757D01*
Y00123104D01*
X01182488D01*
Y00124373D01*
Y00120564D02*
X01183757D01*
Y00119295D01*
X01182488D01*
Y00120564D01*
X01188836Y00119295D02*
X01191375D01*
X01190105D01*
Y00126912D01*
X01188836Y00125643D01*
X01200262Y00126912D02*
X01195183D01*
Y00123104D01*
X01197723Y00124373D01*
X01198992D01*
X01200262Y00123104D01*
Y00120564D01*
X01198992Y00119295D01*
X01196453D01*
X01195183Y00120564D01*
X01210418Y00119295D02*
Y00124373D01*
X01212958Y00126912D01*
X01215497Y00124373D01*
Y00119295D01*
Y00123104D01*
X01210418D01*
X01218036Y00119295D02*
Y00126912D01*
X01220575Y00124373D01*
X01223114Y00126912D01*
Y00119295D01*
X00117729D02*
Y00126912D01*
X00121538D01*
X00122807Y00125643D01*
Y00123104D01*
X00121538Y00121834D01*
X00117729D01*
X00125346Y00126912D02*
Y00119295D01*
X00130425D01*
X00136773Y00126912D02*
X00134234D01*
X00132964Y00125643D01*
Y00120564D01*
X00134234Y00119295D01*
X00136773D01*
X00138042Y00120564D01*
Y00125643D01*
X00136773Y00126912D01*
X00140582D02*
X00145660D01*
X00143121D01*
Y00119295D01*
X00155817D02*
Y00126912D01*
X00160895Y00119295D01*
Y00126912D01*
X00163434Y00119295D02*
Y00124373D01*
X00165973Y00126912D01*
X00168513Y00124373D01*
Y00119295D01*
Y00123104D01*
X00163434D01*
X00171052Y00119295D02*
Y00126912D01*
X00173591Y00124373D01*
X00176130Y00126912D01*
Y00119295D01*
X00183748Y00126912D02*
X00178669D01*
Y00119295D01*
X00183748D01*
X00178669Y00123104D02*
X00181208D01*
X00193904Y00121834D02*
X00198983D01*
X00193904Y00124373D02*
X00198983D01*
X00117729Y00179196D02*
Y00171579D01*
X00122807D01*
X00125346D02*
Y00176657D01*
X00127886Y00179196D01*
X00130425Y00176657D01*
Y00171579D01*
Y00175387D01*
X00125346D01*
X00132964Y00179196D02*
Y00177927D01*
X00135503Y00175387D01*
X00138042Y00177927D01*
Y00179196D01*
X00135503Y00175387D02*
Y00171579D01*
X00145660Y00179196D02*
X00140582D01*
Y00171579D01*
X00145660D01*
X00140582Y00175387D02*
X00143121D01*
X00148199Y00171579D02*
Y00179196D01*
X00152008D01*
X00153278Y00177927D01*
Y00175387D01*
X00152008Y00174118D01*
X00148199D01*
X00150738D02*
X00153278Y00171579D01*
X00163434D02*
Y00179196D01*
X00168513Y00171579D01*
Y00179196D01*
X00171052Y00171579D02*
Y00176657D01*
X00173591Y00179196D01*
X00176130Y00176657D01*
Y00171579D01*
Y00175387D01*
X00171052D01*
X00178669Y00171579D02*
Y00179196D01*
X00181208Y00176657D01*
X00183748Y00179196D01*
Y00171579D01*
X00191365Y00179196D02*
X00186287D01*
Y00171579D01*
X00191365D01*
X00186287Y00175387D02*
X00188826D01*
X00201522Y00174118D02*
X00206600D01*
X00201522Y00176657D02*
X00206600D01*
X00746760Y00230714D02*
Y00223097D01*
X00750569D01*
X00751838Y00224366D01*
Y00225636D01*
X00750569Y00226905D01*
X00746760D01*
X00750569D01*
X00751838Y00228175D01*
Y00229445D01*
X00750569Y00230714D01*
X00746760D01*
X00758186D02*
X00755647D01*
X00754378Y00229445D01*
Y00224366D01*
X00755647Y00223097D01*
X00758186D01*
X00759456Y00224366D01*
Y00229445D01*
X00758186Y00230714D01*
X00761995Y00223097D02*
Y00228175D01*
X00764534Y00230714D01*
X00767073Y00228175D01*
Y00223097D01*
Y00226905D01*
X00761995D01*
X00769613Y00223097D02*
Y00230714D01*
X00773421D01*
X00774691Y00229445D01*
Y00226905D01*
X00773421Y00225636D01*
X00769613D01*
X00772152D02*
X00774691Y00223097D01*
X00777230Y00230714D02*
Y00223097D01*
X00781039D01*
X00782309Y00224366D01*
Y00229445D01*
X00781039Y00230714D01*
X00777230D01*
X00793735Y00223097D02*
Y00230714D01*
X00796274D02*
Y00223097D01*
X00792465Y00228175D02*
X00796274D01*
X00797544D01*
X00792465Y00225636D02*
X00797544D01*
X00800083Y00228175D02*
X00801352D01*
Y00226905D01*
X00800083D01*
Y00228175D01*
Y00224366D02*
X00801352D01*
Y00223097D01*
X00800083D01*
Y00224366D01*
X00885317Y00223097D02*
Y00230714D01*
X00889126D01*
X00890395Y00229445D01*
Y00226905D01*
X00889126Y00225636D01*
X00885317D01*
X00892934Y00223097D02*
Y00230714D01*
X00895474Y00228175D01*
X00898013Y00230714D01*
Y00223097D01*
X00900552D02*
Y00230714D01*
X00904361D01*
X00905630Y00229445D01*
Y00226905D01*
X00904361Y00225636D01*
X00900552D01*
X00908170Y00229445D02*
X00909439Y00230714D01*
X00911978D01*
X00913248Y00229445D01*
Y00228175D01*
X00911978Y00226905D01*
X00910709D01*
X00911978D01*
X00913248Y00225636D01*
Y00224366D01*
X00911978Y00223097D01*
X00909439D01*
X00908170Y00224366D01*
X00915787Y00223097D02*
X00918326D01*
X00917057D01*
Y00230714D01*
X00915787Y00229445D01*
X00927213Y00223097D02*
X00922135D01*
X00927213Y00228175D01*
Y00229445D01*
X00925944Y00230714D01*
X00923405D01*
X00922135Y00229445D01*
X00929753D02*
X00931022Y00230714D01*
X00933561D01*
X00934831Y00229445D01*
Y00228175D01*
X00933561Y00226905D01*
X00932292D01*
X00933561D01*
X00934831Y00225636D01*
Y00224366D01*
X00933561Y00223097D01*
X00931022D01*
X00929753Y00224366D01*
X00942449Y00230714D02*
X00939909Y00229445D01*
X00937370Y00226905D01*
Y00224366D01*
X00938640Y00223097D01*
X00941179D01*
X00942449Y00224366D01*
Y00225636D01*
X00941179Y00226905D01*
X00937370D01*
X01173861Y00223097D02*
Y00224366D01*
X01175131D01*
Y00223097D01*
X01173861D01*
X01180209D02*
Y00230714D01*
X01184018D01*
X01185287Y00229445D01*
Y00226905D01*
X01184018Y00225636D01*
X01180209D01*
X01192905Y00229445D02*
X01191635Y00230714D01*
X01189096D01*
X01187827Y00229445D01*
Y00224366D01*
X01189096Y00223097D01*
X01191635D01*
X01192905Y00224366D01*
X01195444Y00230714D02*
Y00223097D01*
X01199253D01*
X01200522Y00224366D01*
Y00225636D01*
X01199253Y00226905D01*
X01195444D01*
X01199253D01*
X01200522Y00228175D01*
Y00229445D01*
X01199253Y00230714D01*
X01195444D01*
X01203062Y00221827D02*
X01208140D01*
X01210679Y00223097D02*
Y00230714D01*
X01214488D01*
X01215757Y00229445D01*
Y00226905D01*
X01214488Y00225636D01*
X01210679D01*
X01213218D02*
X01215757Y00223097D01*
X01222105D02*
X01219566D01*
X01218297Y00224366D01*
Y00226905D01*
X01219566Y00228175D01*
X01222105D01*
X01223375Y00226905D01*
Y00225636D01*
X01218297D01*
X01225914Y00228175D02*
X01228453Y00223097D01*
X01230993Y00228175D01*
X00117729Y00223097D02*
Y00228175D01*
X00120268Y00230714D01*
X00122807Y00228175D01*
Y00223097D01*
Y00226905D01*
X00117729D01*
X00125346Y00230714D02*
Y00223097D01*
X00130425D01*
X00132964Y00230714D02*
Y00223097D01*
X00138042D01*
X00148199D02*
Y00228175D01*
X00150738Y00230714D01*
X00153278Y00228175D01*
Y00223097D01*
Y00226905D01*
X00148199D01*
X00155817Y00223097D02*
Y00230714D01*
X00159626D01*
X00160895Y00229445D01*
Y00226905D01*
X00159626Y00225636D01*
X00155817D01*
X00158356D02*
X00160895Y00223097D01*
X00163434Y00230714D02*
X00168513D01*
X00165973D01*
Y00223097D01*
X00171052Y00230714D02*
Y00223097D01*
X00173591Y00225636D01*
X00176130Y00223097D01*
Y00230714D01*
X00182478D02*
X00179939D01*
X00178669Y00229445D01*
Y00224366D01*
X00179939Y00223097D01*
X00182478D01*
X00183748Y00224366D01*
Y00229445D01*
X00182478Y00230714D01*
X00186287Y00223097D02*
Y00230714D01*
X00190096D01*
X00191365Y00229445D01*
Y00226905D01*
X00190096Y00225636D01*
X00186287D01*
X00188826D02*
X00191365Y00223097D01*
X00193904Y00230714D02*
Y00223097D01*
Y00225636D01*
X00198983Y00230714D01*
X00195174Y00226905D01*
X00198983Y00223097D01*
X00209139Y00230714D02*
Y00225636D01*
X00211679Y00223097D01*
X00214218Y00225636D01*
Y00230714D01*
X00216757D02*
X00219296D01*
X00218027D01*
Y00223097D01*
X00216757D01*
X00219296D01*
X00228183Y00230714D02*
X00223105D01*
Y00223097D01*
X00228183D01*
X00223105Y00226905D02*
X00225644D01*
X00230722Y00230714D02*
Y00223097D01*
X00233262Y00225636D01*
X00235801Y00223097D01*
Y00230714D01*
X00243418D02*
X00238340D01*
Y00223097D01*
X00243418D01*
X00238340Y00226905D02*
X00240879D01*
X00245958Y00230714D02*
Y00223097D01*
X00249766D01*
X00251036Y00224366D01*
Y00229445D01*
X00249766Y00230714D01*
X00245958D01*
X00266271D02*
X00261193D01*
Y00226905D01*
X00263732D01*
X00261193D01*
Y00223097D01*
X00268810D02*
Y00230714D01*
X00272619D01*
X00273888Y00229445D01*
Y00226905D01*
X00272619Y00225636D01*
X00268810D01*
X00271349D02*
X00273888Y00223097D01*
X00280236Y00230714D02*
X00277697D01*
X00276428Y00229445D01*
Y00224366D01*
X00277697Y00223097D01*
X00280236D01*
X00281506Y00224366D01*
Y00229445D01*
X00280236Y00230714D01*
X00284045Y00223097D02*
Y00230714D01*
X00286584Y00228175D01*
X00289124Y00230714D01*
Y00223097D01*
X00299280Y00230714D02*
X00304359D01*
X00301819D01*
Y00223097D01*
X00310707Y00230714D02*
X00308167D01*
X00306898Y00229445D01*
Y00224366D01*
X00308167Y00223097D01*
X00310707D01*
X00311976Y00224366D01*
Y00229445D01*
X00310707Y00230714D01*
X00314515Y00223097D02*
Y00230714D01*
X00318324D01*
X00319594Y00229445D01*
Y00226905D01*
X00318324Y00225636D01*
X00314515D01*
X00334829Y00229445D02*
X00333559Y00230714D01*
X00331020D01*
X00329750Y00229445D01*
Y00228175D01*
X00331020Y00226905D01*
X00333559D01*
X00334829Y00225636D01*
Y00224366D01*
X00333559Y00223097D01*
X00331020D01*
X00329750Y00224366D01*
X00337368Y00230714D02*
X00339907D01*
X00338638D01*
Y00223097D01*
X00337368D01*
X00339907D01*
X00343716Y00230714D02*
Y00223097D01*
X00347525D01*
X00348794Y00224366D01*
Y00229445D01*
X00347525Y00230714D01*
X00343716D01*
X00356412D02*
X00351333D01*
Y00223097D01*
X00356412D01*
X00351333Y00226905D02*
X00353873D01*
X00752346Y00125643D02*
X00751077Y00126912D01*
X00748538D01*
X00747268Y00125643D01*
Y00120564D01*
X00748538Y00119295D01*
X00751077D01*
X00752346Y00120564D01*
Y00123104D01*
X00749807D01*
X00759964Y00126912D02*
X00754885D01*
Y00119295D01*
X00759964D01*
X00754885Y00123104D02*
X00757425D01*
X00762503Y00119295D02*
Y00126912D01*
X00767581Y00119295D01*
Y00126912D01*
X00775199D02*
X00770121D01*
Y00119295D01*
X00775199D01*
X00770121Y00123104D02*
X00772660D01*
X00777738Y00119295D02*
Y00126912D01*
X00781547D01*
X00782816Y00125643D01*
Y00123104D01*
X00781547Y00121834D01*
X00777738D01*
X00780277D02*
X00782816Y00119295D01*
X00785356D02*
Y00124373D01*
X00787895Y00126912D01*
X00790434Y00124373D01*
Y00119295D01*
Y00123104D01*
X00785356D01*
X00792973Y00126912D02*
X00798052D01*
X00795512D01*
Y00119295D01*
X00805669Y00126912D02*
X00800591D01*
Y00119295D01*
X00805669D01*
X00800591Y00123104D02*
X00803130D01*
X00808208Y00126912D02*
Y00119295D01*
X00812017D01*
X00813287Y00120564D01*
Y00125643D01*
X00812017Y00126912D01*
X00808208D01*
X00846296Y00124373D02*
X00847566D01*
Y00123104D01*
X00846296D01*
Y00124373D01*
Y00120564D02*
X00847566D01*
Y00119295D01*
X00846296D01*
Y00120564D01*
X00968121Y00126912D02*
X00973199D01*
Y00125643D01*
X00968121Y00120564D01*
Y00119295D01*
X00975739D02*
X00980817Y00124373D01*
X00988434Y00119295D02*
X00983356D01*
X00988434Y00124373D01*
Y00125643D01*
X00987165Y00126912D01*
X00984626D01*
X00983356Y00125643D01*
X00990974Y00119295D02*
X00993513D01*
X00992243D01*
Y00126912D01*
X00990974Y00125643D01*
X00997322Y00119295D02*
X01002400Y00124373D01*
X01010017Y00119295D02*
X01004939D01*
X01010017Y00124373D01*
Y00125643D01*
X01008748Y00126912D01*
X01006209D01*
X01004939Y00125643D01*
X01012557D02*
X01013826Y00126912D01*
X01016365D01*
X01017635Y00125643D01*
Y00120564D01*
X01016365Y00119295D01*
X01013826D01*
X01012557Y00120564D01*
Y00125643D01*
X01025253Y00119295D02*
X01020174D01*
X01025253Y00124373D01*
Y00125643D01*
X01023983Y00126912D01*
X01021444D01*
X01020174Y00125643D01*
X01027792D02*
X01029061Y00126912D01*
X01031600D01*
X01032870Y00125643D01*
Y00124373D01*
X01031600Y00123104D01*
X01030331D01*
X01031600D01*
X01032870Y00121834D01*
Y00120564D01*
X01031600Y00119295D01*
X01029061D01*
X01027792Y00120564D01*
X00322326Y00119295D02*
Y00126912D01*
X00326135D01*
X00327404Y00125643D01*
Y00123104D01*
X00326135Y00121834D01*
X00322326D01*
X00329944Y00119295D02*
Y00126912D01*
X00332483Y00124373D01*
X00335022Y00126912D01*
Y00119295D01*
X00337561D02*
Y00126912D01*
X00341370D01*
X00342639Y00125643D01*
Y00123104D01*
X00341370Y00121834D01*
X00337561D01*
X00345179Y00125643D02*
X00346448Y00126912D01*
X00348987D01*
X00350257Y00125643D01*
Y00124373D01*
X00348987Y00123104D01*
X00347718D01*
X00348987D01*
X00350257Y00121834D01*
Y00120564D01*
X00348987Y00119295D01*
X00346448D01*
X00345179Y00120564D01*
X00352796Y00119295D02*
X00355335D01*
X00354066D01*
Y00126912D01*
X00352796Y00125643D01*
X00364222Y00119295D02*
X00359144D01*
X00364222Y00124373D01*
Y00125643D01*
X00362953Y00126912D01*
X00360414D01*
X00359144Y00125643D01*
X00366762D02*
X00368031Y00126912D01*
X00370570D01*
X00371840Y00125643D01*
Y00124373D01*
X00370570Y00123104D01*
X00369301D01*
X00370570D01*
X00371840Y00121834D01*
Y00120564D01*
X00370570Y00119295D01*
X00368031D01*
X00366762Y00120564D01*
X00379458Y00126912D02*
X00376918Y00125643D01*
X00374379Y00123104D01*
Y00120564D01*
X00375649Y00119295D01*
X00378188D01*
X00379458Y00120564D01*
Y00121834D01*
X00378188Y00123104D01*
X00374379D01*
X00381997Y00119295D02*
Y00126912D01*
X00385806D01*
X00387075Y00125643D01*
Y00123104D01*
X00385806Y00121834D01*
X00381997D01*
X00394693Y00125643D02*
X00393423Y00126912D01*
X00390884D01*
X00389614Y00125643D01*
Y00120564D01*
X00390884Y00119295D01*
X00393423D01*
X00394693Y00120564D01*
X00397232Y00126912D02*
Y00119295D01*
X00401040D01*
X00402310Y00120564D01*
Y00121834D01*
X00401040Y00123104D01*
X00397232D01*
X00401040D01*
X00402310Y00124373D01*
Y00125643D01*
X00401040Y00126912D01*
X00397232D01*
X00404849Y00118025D02*
X00409928D01*
X00412467Y00119295D02*
Y00126912D01*
X00416276D01*
X00417545Y00125643D01*
Y00123104D01*
X00416276Y00121834D01*
X00412467D01*
X00415006D02*
X00417545Y00119295D01*
X00423893D02*
X00421354D01*
X00420084Y00120564D01*
Y00123104D01*
X00421354Y00124373D01*
X00423893D01*
X00425163Y00123104D01*
Y00121834D01*
X00420084D01*
X00427702Y00124373D02*
X00430241Y00119295D01*
X00432780Y00124373D01*
X00435319Y00119295D02*
Y00120564D01*
X00436589D01*
Y00119295D01*
X00435319D01*
X00446746Y00125643D02*
X00445476Y00126912D01*
X00442937D01*
X00441667Y00125643D01*
Y00120564D01*
X00442937Y00119295D01*
X00445476D01*
X00446746Y00120564D01*
Y00123104D01*
X00444207D01*
X00449285Y00126912D02*
Y00119295D01*
X00453094D01*
X00454363Y00120564D01*
Y00121834D01*
X00453094Y00123104D01*
X00449285D01*
X00453094D01*
X00454363Y00124373D01*
Y00125643D01*
X00453094Y00126912D01*
X00449285D01*
X00460711D02*
X00458172D01*
X00456903Y00125643D01*
Y00120564D01*
X00458172Y00119295D01*
X00460711D01*
X00461981Y00120564D01*
Y00125643D01*
X00460711Y00126912D01*
X01099820Y00223097D02*
Y00230714D01*
X01103629D01*
X01104898Y00229445D01*
Y00226905D01*
X01103629Y00225636D01*
X01099820D01*
X01102359D02*
X01104898Y00223097D01*
X01112516Y00230714D02*
X01107438D01*
Y00223097D01*
X01112516D01*
X01107438Y00226905D02*
X01109977D01*
X01115055Y00230714D02*
Y00225636D01*
X01117594Y00223097D01*
X01120133Y00225636D01*
Y00230714D01*
X01122673Y00228175D02*
X01123942D01*
Y00226905D01*
X01122673D01*
Y00228175D01*
Y00224366D02*
X01123942D01*
Y00223097D01*
X01122673D01*
Y00224366D01*
X01317750Y00229445D02*
X01316481Y00230714D01*
X01313942D01*
X01312672Y00229445D01*
Y00228175D01*
X01313942Y00226905D01*
X01316481D01*
X01317750Y00225636D01*
Y00224366D01*
X01316481Y00223097D01*
X01313942D01*
X01312672Y00224366D01*
X01320289Y00230714D02*
Y00225636D01*
X01322829Y00223097D01*
X01325368Y00225636D01*
Y00230714D01*
X01327907Y00223097D02*
Y00230714D01*
X01332985Y00223097D01*
Y00230714D01*
X01343142Y00223097D02*
Y00230714D01*
X01346951D01*
X01348221Y00229445D01*
Y00226905D01*
X01346951Y00225636D01*
X01343142D01*
X01345681D02*
X01348221Y00223097D01*
X01355838Y00230714D02*
X01350760D01*
Y00223097D01*
X01355838D01*
X01350760Y00226905D02*
X01353299D01*
X01358377Y00230714D02*
Y00225636D01*
X01360916Y00223097D01*
X01363456Y00225636D01*
Y00230714D01*
X01365995Y00228175D02*
X01367264D01*
Y00226905D01*
X01365995D01*
Y00228175D01*
Y00224366D02*
X01367264D01*
Y00223097D01*
X01365995D01*
Y00224366D01*
X01441196Y00223097D02*
Y00230714D01*
X01446274Y00223097D01*
Y00230714D01*
X01450083Y00223097D02*
X01452622D01*
X01453892Y00224366D01*
Y00226905D01*
X01452622Y00228175D01*
X01450083D01*
X01448813Y00226905D01*
Y00224366D01*
X01450083Y00223097D01*
X01457701Y00229445D02*
Y00228175D01*
X01456431D01*
X01458970D01*
X01457701D01*
Y00224366D01*
X01458970Y00223097D01*
X01470397D02*
X01472936D01*
X01471666D01*
Y00228175D01*
X01470397D01*
X01476745Y00223097D02*
Y00228175D01*
X01480553D01*
X01481823Y00226905D01*
Y00223097D01*
X01491980Y00228175D02*
X01494519Y00223097D01*
X01497058Y00228175D01*
X01503406Y00223097D02*
X01500867D01*
X01499597Y00224366D01*
Y00226905D01*
X01500867Y00228175D01*
X01503406D01*
X01504675Y00226905D01*
Y00225636D01*
X01499597D01*
X01507215Y00228175D02*
Y00223097D01*
Y00225636D01*
X01508484Y00226905D01*
X01509754Y00228175D01*
X01511023D01*
X01514832Y00223097D02*
X01518641D01*
X01519910Y00224366D01*
X01518641Y00225636D01*
X01516102D01*
X01514832Y00226905D01*
X01516102Y00228175D01*
X01519910D01*
X01522450Y00223097D02*
X01524989D01*
X01523719D01*
Y00228175D01*
X01522450D01*
X01530067Y00223097D02*
X01532606D01*
X01533876Y00224366D01*
Y00226905D01*
X01532606Y00228175D01*
X01530067D01*
X01528798Y00226905D01*
Y00224366D01*
X01530067Y00223097D01*
X01536415D02*
Y00228175D01*
X01540224D01*
X01541494Y00226905D01*
Y00223097D01*
X01556729Y00228175D02*
X01552920D01*
X01551650Y00226905D01*
Y00224366D01*
X01552920Y00223097D01*
X01556729D01*
X01560537D02*
X01563077D01*
X01564346Y00224366D01*
Y00226905D01*
X01563077Y00228175D01*
X01560537D01*
X01559268Y00226905D01*
Y00224366D01*
X01560537Y00223097D01*
X01566885D02*
Y00228175D01*
X01570694D01*
X01571964Y00226905D01*
Y00223097D01*
X01575773Y00229445D02*
Y00228175D01*
X01574503D01*
X01577042D01*
X01575773D01*
Y00224366D01*
X01577042Y00223097D01*
X01580851Y00228175D02*
Y00223097D01*
Y00225636D01*
X01582120Y00226905D01*
X01583390Y00228175D01*
X01584660D01*
X01589738Y00223097D02*
X01592277D01*
X01593547Y00224366D01*
Y00226905D01*
X01592277Y00228175D01*
X01589738D01*
X01588468Y00226905D01*
Y00224366D01*
X01589738Y00223097D01*
X01596086D02*
X01598625D01*
X01597355D01*
Y00230714D01*
X01596086D01*
G54D16*
X01313945Y01384549D02*
X01319024D01*
X01316485D01*
Y01371853D01*
X01319024Y01369314D01*
X01321563D01*
X01324102Y01371853D01*
X01298710Y01369314D02*
X01308867D01*
X01298710Y01379471D01*
Y01382010D01*
X01301249Y01384549D01*
X01306328D01*
X01308867Y01382010D01*
X01283475Y01384549D02*
X01288553Y01382010D01*
X01293632Y01376931D01*
Y01371853D01*
X01291093Y01369314D01*
X01286014D01*
X01283475Y01371853D01*
Y01374392D01*
X01286014Y01376931D01*
X01293632D01*
X01333249Y00901441D02*
X01338328D01*
X01335789D01*
Y00888745D01*
X01338328Y00886206D01*
X01340867D01*
X01343406Y00888745D01*
X01318014Y00886206D02*
X01328171D01*
X01318014Y00896363D01*
Y00898902D01*
X01320553Y00901441D01*
X01325632D01*
X01328171Y00898902D01*
X01302779Y00901441D02*
X01312936D01*
Y00893823D01*
X01307858Y00896363D01*
X01305318D01*
X01302779Y00893823D01*
Y00888745D01*
X01305318Y00886206D01*
X01310397D01*
X01312936Y00888745D01*
X00729237Y00979419D02*
X00734316D01*
X00731777D01*
Y00966723D01*
X00734316Y00964184D01*
X00736855D01*
X00739394Y00966723D01*
X00714002Y00964184D02*
X00724159D01*
X00714002Y00974341D01*
Y00976880D01*
X00716541Y00979419D01*
X00721620D01*
X00724159Y00976880D01*
X00701306Y00964184D02*
Y00979419D01*
X00708924Y00971802D01*
X00698767D01*
X01199391Y01054349D02*
X01204470D01*
X01201930D01*
Y01041653D01*
X01204470Y01039114D01*
X01207009D01*
X01209548Y01041653D01*
X01184156Y01039114D02*
X01194313D01*
X01184156Y01049271D01*
Y01051810D01*
X01186695Y01054349D01*
X01191774D01*
X01194313Y01051810D01*
X01179078D02*
X01176539Y01054349D01*
X01171460D01*
X01168921Y01051810D01*
Y01049271D01*
X01171460Y01046731D01*
X01173999D01*
X01171460D01*
X01168921Y01044192D01*
Y01041653D01*
X01171460Y01039114D01*
X01176539D01*
X01179078Y01041653D01*
X01005843Y01384549D02*
X01010922D01*
X01008382D01*
Y01371853D01*
X01010922Y01369314D01*
X01013461D01*
X01016000Y01371853D01*
X00990608Y01369314D02*
X01000765D01*
X00990608Y01379471D01*
Y01382010D01*
X00993147Y01384549D01*
X00998226D01*
X01000765Y01382010D01*
X00975373Y01369314D02*
X00985530D01*
X00975373Y01379471D01*
Y01382010D01*
X00977912Y01384549D01*
X00982991D01*
X00985530Y01382010D01*
X00388369Y00901441D02*
X00393448D01*
X00390909D01*
Y00888745D01*
X00393448Y00886206D01*
X00395987D01*
X00398526Y00888745D01*
X00373134Y00886206D02*
X00383291D01*
X00373134Y00896363D01*
Y00898902D01*
X00375673Y00901441D01*
X00380752D01*
X00383291Y00898902D01*
X00368056Y00886206D02*
X00362977D01*
X00365517D01*
Y00901441D01*
X00368056Y00898902D01*
X00373891Y01384549D02*
X00378970D01*
X00376431D01*
Y01371853D01*
X00378970Y01369314D01*
X00381509D01*
X00384048Y01371853D01*
X00358656Y01369314D02*
X00368813D01*
X00358656Y01379471D01*
Y01382010D01*
X00361195Y01384549D01*
X00366274D01*
X00368813Y01382010D01*
X00353578D02*
X00351039Y01384549D01*
X00345960D01*
X00343421Y01382010D01*
Y01371853D01*
X00345960Y01369314D01*
X00351039D01*
X00353578Y01371853D01*
Y01382010D01*
X01666751Y00979419D02*
X01671830D01*
X01669290D01*
Y00966723D01*
X01671830Y00964184D01*
X01674369D01*
X01676908Y00966723D01*
X01661673Y00964184D02*
X01656595D01*
X01659134D01*
Y00979419D01*
X01661673Y00976880D01*
X01648977Y00966723D02*
X01646438Y00964184D01*
X01641360D01*
X01638820Y00966723D01*
Y00976880D01*
X01641360Y00979419D01*
X01646438D01*
X01648977Y00976880D01*
Y00974341D01*
X01646438Y00971802D01*
X01638820D01*
X01196851Y00979419D02*
X01201930D01*
X01199390D01*
Y00966723D01*
X01201930Y00964184D01*
X01204469D01*
X01207008Y00966723D01*
X01191773Y00964184D02*
X01186695D01*
X01189234D01*
Y00979419D01*
X01191773Y00976880D01*
X01179077D02*
X01176538Y00979419D01*
X01171460D01*
X01168920Y00976880D01*
Y00974341D01*
X01171460Y00971802D01*
X01168920Y00969262D01*
Y00966723D01*
X01171460Y00964184D01*
X01176538D01*
X01179077Y00966723D01*
Y00969262D01*
X01176538Y00971802D01*
X01179077Y00974341D01*
Y00976880D01*
X01176538Y00971802D02*
X01171460D01*
X00726697Y01054349D02*
X00731776D01*
X00729237D01*
Y01041653D01*
X00731776Y01039114D01*
X00734315D01*
X00736854Y01041653D01*
X00721619Y01039114D02*
X00716541D01*
X00719080D01*
Y01054349D01*
X00721619Y01051810D01*
X00708923Y01054349D02*
X00698766D01*
Y01051810D01*
X00708923Y01041653D01*
Y01039114D01*
X01043943Y01384549D02*
X01049022D01*
X01046482D01*
Y01371853D01*
X01049022Y01369314D01*
X01051561D01*
X01054100Y01371853D01*
X01038865Y01369314D02*
X01033787D01*
X01036326D01*
Y01384549D01*
X01038865Y01382010D01*
X01016012Y01384549D02*
X01021091Y01382010D01*
X01026169Y01376931D01*
Y01371853D01*
X01023630Y01369314D01*
X01018551D01*
X01016012Y01371853D01*
Y01374392D01*
X01018551Y01376931D01*
X01026169D01*
X00431295Y00901441D02*
X00436374D01*
X00433834D01*
Y00888745D01*
X00436374Y00886206D01*
X00438913D01*
X00441452Y00888745D01*
X00426217Y00886206D02*
X00421139D01*
X00423678D01*
Y00901441D01*
X00426217Y00898902D01*
X00403364Y00901441D02*
X00413521D01*
Y00893823D01*
X00408443Y00896363D01*
X00405904D01*
X00403364Y00893823D01*
Y00888745D01*
X00405904Y00886206D01*
X00410982D01*
X00413521Y00888745D01*
X00841251Y01384549D02*
X00846330D01*
X00843791D01*
Y01371853D01*
X00846330Y01369314D01*
X00848869D01*
X00851408Y01371853D01*
X00836173Y01369314D02*
X00831095D01*
X00833634D01*
Y01384549D01*
X00836173Y01382010D01*
X00815860Y01369314D02*
Y01384549D01*
X00823477Y01376931D01*
X00813320D01*
X01513843Y01384549D02*
X01518922D01*
X01516382D01*
Y01371853D01*
X01518922Y01369314D01*
X01521461D01*
X01524000Y01371853D01*
X01508765Y01369314D02*
X01503687D01*
X01506226D01*
Y01384549D01*
X01508765Y01382010D01*
X01496069D02*
X01493530Y01384549D01*
X01488452D01*
X01485912Y01382010D01*
Y01379471D01*
X01488452Y01376931D01*
X01490991D01*
X01488452D01*
X01485912Y01374392D01*
Y01371853D01*
X01488452Y01369314D01*
X01493530D01*
X01496069Y01371853D01*
X01371349Y00901441D02*
X01376428D01*
X01373889D01*
Y00888745D01*
X01376428Y00886206D01*
X01378967D01*
X01381506Y00888745D01*
X01366271Y00886206D02*
X01361193D01*
X01363732D01*
Y00901441D01*
X01366271Y00898902D01*
X01343418Y00886206D02*
X01353575D01*
X01343418Y00896363D01*
Y00898902D01*
X01345957Y00901441D01*
X01351036D01*
X01353575Y00898902D01*
X00528323Y01384549D02*
X00533402D01*
X00530863D01*
Y01371853D01*
X00533402Y01369314D01*
X00535941D01*
X00538480Y01371853D01*
X00523245Y01369314D02*
X00518167D01*
X00520706D01*
Y01384549D01*
X00523245Y01382010D01*
X00510549Y01369314D02*
X00505471D01*
X00508010D01*
Y01384549D01*
X00510549Y01382010D01*
X00901195Y00901441D02*
X00906274D01*
X00903735D01*
Y00888745D01*
X00906274Y00886206D01*
X00908813D01*
X00911352Y00888745D01*
X00896117Y00886206D02*
X00891039D01*
X00893578D01*
Y00901441D01*
X00896117Y00898902D01*
X00883421D02*
X00880882Y00901441D01*
X00875804D01*
X00873264Y00898902D01*
Y00888745D01*
X00875804Y00886206D01*
X00880882D01*
X00883421Y00888745D01*
Y00898902D01*
X00700027Y00874517D02*
X00705106D01*
X00702567D01*
Y00861821D01*
X00705106Y00859282D01*
X00707645D01*
X00710184Y00861821D01*
X00694949D02*
X00692410Y00859282D01*
X00687331D01*
X00684792Y00861821D01*
Y00871978D01*
X00687331Y00874517D01*
X00692410D01*
X00694949Y00871978D01*
Y00869439D01*
X00692410Y00866899D01*
X00684792D01*
X01640081Y00874517D02*
X01645160D01*
X01642621D01*
Y00861821D01*
X01645160Y00859282D01*
X01647699D01*
X01650238Y00861821D01*
X01635003Y00871978D02*
X01632464Y00874517D01*
X01627385D01*
X01624846Y00871978D01*
Y00869439D01*
X01627385Y00866899D01*
X01624846Y00864360D01*
Y00861821D01*
X01627385Y00859282D01*
X01632464D01*
X01635003Y00861821D01*
Y00864360D01*
X01632464Y00866899D01*
X01635003Y00869439D01*
Y00871978D01*
X01632464Y00866899D02*
X01627385D01*
X01460503Y01384549D02*
X01465582D01*
X01463042D01*
Y01371853D01*
X01465582Y01369314D01*
X01468121D01*
X01470660Y01371853D01*
X01455425Y01384549D02*
X01445268D01*
Y01382010D01*
X01455425Y01371853D01*
Y01369314D01*
X01654051Y01054349D02*
X01659130D01*
X01656591D01*
Y01041653D01*
X01659130Y01039114D01*
X01661669D01*
X01664208Y01041653D01*
X01638816Y01054349D02*
X01643895Y01051810D01*
X01648973Y01046731D01*
Y01041653D01*
X01646434Y01039114D01*
X01641355D01*
X01638816Y01041653D01*
Y01044192D01*
X01641355Y01046731D01*
X01648973D01*
X00561089Y01384549D02*
X00566168D01*
X00563629D01*
Y01371853D01*
X00566168Y01369314D01*
X00568707D01*
X00571246Y01371853D01*
X00545854Y01384549D02*
X00556011D01*
Y01376931D01*
X00550933Y01379471D01*
X00548393D01*
X00545854Y01376931D01*
Y01371853D01*
X00548393Y01369314D01*
X00553472D01*
X00556011Y01371853D01*
X00848109Y00901441D02*
X00853188D01*
X00850648D01*
Y00888745D01*
X00853188Y00886206D01*
X00855727D01*
X00858266Y00888745D01*
X00835413Y00886206D02*
Y00901441D01*
X00843031Y00893823D01*
X00832874D01*
X01170181Y00874517D02*
X01175260D01*
X01172720D01*
Y00861821D01*
X01175260Y00859282D01*
X01177799D01*
X01180338Y00861821D01*
X01165103Y00871978D02*
X01162564Y00874517D01*
X01157485D01*
X01154946Y00871978D01*
Y00869439D01*
X01157485Y00866899D01*
X01160025D01*
X01157485D01*
X01154946Y00864360D01*
Y00861821D01*
X01157485Y00859282D01*
X01162564D01*
X01165103Y00861821D01*
X01650239Y01354841D02*
X01657857D01*
Y01358649D01*
X01656587Y01359919D01*
X01654048D01*
X01652778Y01358649D01*
Y01354841D01*
Y01357380D02*
X01650239Y01359919D01*
Y01367536D02*
Y01362458D01*
X01655318Y01367536D01*
X01656587D01*
X01657857Y01366267D01*
Y01363728D01*
X01656587Y01362458D01*
X01650239Y01375154D02*
Y01370076D01*
X01655318Y01375154D01*
X01656587D01*
X01657857Y01373884D01*
Y01371345D01*
X01656587Y01370076D01*
Y01377693D02*
X01657857Y01378963D01*
Y01381502D01*
X01656587Y01382771D01*
X01655318D01*
X01654048Y01381502D01*
Y01380232D01*
Y01381502D01*
X01652778Y01382771D01*
X01651509D01*
X01650239Y01381502D01*
Y01378963D01*
X01651509Y01377693D01*
X01608329Y01355475D02*
X01615947D01*
Y01359284D01*
X01614677Y01360554D01*
X01612138D01*
X01610868Y01359284D01*
Y01355475D01*
Y01358015D02*
X01608329Y01360554D01*
Y01368171D02*
Y01363093D01*
X01613408Y01368171D01*
X01614677D01*
X01615947Y01366902D01*
Y01364362D01*
X01614677Y01363093D01*
X01608329Y01370710D02*
Y01373250D01*
Y01371980D01*
X01615947D01*
X01614677Y01370710D01*
X01609599Y01377058D02*
X01608329Y01378328D01*
Y01380867D01*
X01609599Y01382137D01*
X01614677D01*
X01615947Y01380867D01*
Y01378328D01*
X01614677Y01377058D01*
X01613408D01*
X01612138Y01378328D01*
Y01382137D01*
X01563879Y01355475D02*
X01571497D01*
Y01359284D01*
X01570227Y01360554D01*
X01567688D01*
X01566418Y01359284D01*
Y01355475D01*
Y01358015D02*
X01563879Y01360554D01*
Y01368171D02*
Y01363093D01*
X01568958Y01368171D01*
X01570227D01*
X01571497Y01366902D01*
Y01364362D01*
X01570227Y01363093D01*
X01563879Y01370710D02*
Y01373250D01*
Y01371980D01*
X01571497D01*
X01570227Y01370710D01*
Y01377058D02*
X01571497Y01378328D01*
Y01380867D01*
X01570227Y01382137D01*
X01568958D01*
X01567688Y01380867D01*
Y01379597D01*
Y01380867D01*
X01566418Y01382137D01*
X01565149D01*
X01563879Y01380867D01*
Y01378328D01*
X01565149Y01377058D01*
X01520412Y01355475D02*
X01528030D01*
Y01359284D01*
X01526760Y01360554D01*
X01524221D01*
X01522951Y01359284D01*
Y01355475D01*
Y01358015D02*
X01520412Y01360554D01*
Y01368171D02*
Y01363093D01*
X01525490Y01368171D01*
X01526760D01*
X01528030Y01366902D01*
Y01364362D01*
X01526760Y01363093D01*
X01520412Y01370710D02*
Y01373250D01*
Y01371980D01*
X01528030D01*
X01526760Y01370710D01*
Y01377058D02*
X01528030Y01378328D01*
Y01380867D01*
X01526760Y01382137D01*
X01521682D01*
X01520412Y01380867D01*
Y01378328D01*
X01521682Y01377058D01*
X01526760D01*
X00989839Y01359285D02*
X00997457D01*
Y01363094D01*
X00996187Y01364364D01*
X00993648D01*
X00992378Y01363094D01*
Y01359285D01*
Y01361824D02*
X00989839Y01364364D01*
Y01366903D02*
Y01369442D01*
Y01368172D01*
X00997457D01*
X00996187Y01366903D01*
Y01373251D02*
X00997457Y01374520D01*
Y01377060D01*
X00996187Y01378329D01*
X00994918D01*
X00993648Y01377060D01*
X00992378Y01378329D01*
X00991109D01*
X00989839Y01377060D01*
Y01374520D01*
X00991109Y01373251D01*
X00992378D01*
X00993648Y01374520D01*
X00994918Y01373251D01*
X00996187D01*
X00993648Y01374520D02*
Y01377060D01*
X00996187Y01380868D02*
X00997457Y01382138D01*
Y01384677D01*
X00996187Y01385947D01*
X00991109D01*
X00989839Y01384677D01*
Y01382138D01*
X00991109Y01380868D01*
X00996187D01*
X00948556Y01359285D02*
X00956174D01*
Y01363094D01*
X00954904Y01364364D01*
X00952365D01*
X00951095Y01363094D01*
Y01359285D01*
Y01361824D02*
X00948556Y01364364D01*
Y01366903D02*
Y01369442D01*
Y01368172D01*
X00956174D01*
X00954904Y01366903D01*
X00956174Y01373251D02*
Y01378329D01*
X00954904D01*
X00949826Y01373251D01*
X00948556D01*
X00956174Y01385947D02*
X00954904Y01383407D01*
X00952365Y01380868D01*
X00949826D01*
X00948556Y01382138D01*
Y01384677D01*
X00949826Y01385947D01*
X00951095D01*
X00952365Y01384677D01*
Y01380868D01*
X00906249Y01359285D02*
X00913867D01*
Y01363094D01*
X00912597Y01364364D01*
X00910058D01*
X00908789Y01363094D01*
Y01359285D01*
Y01361824D02*
X00906249Y01364364D01*
Y01366903D02*
Y01369442D01*
Y01368172D01*
X00913867D01*
X00912597Y01366903D01*
X00913867Y01373251D02*
Y01378329D01*
X00912597D01*
X00907519Y01373251D01*
X00906249D01*
X00912597Y01380868D02*
X00913867Y01382138D01*
Y01384677D01*
X00912597Y01385947D01*
X00907519D01*
X00906249Y01384677D01*
Y01382138D01*
X00907519Y01380868D01*
X00912597D01*
X00862509Y01359285D02*
X00870127D01*
Y01363094D01*
X00868857Y01364364D01*
X00866318D01*
X00865048Y01363094D01*
Y01359285D01*
Y01361824D02*
X00862509Y01364364D01*
Y01366903D02*
Y01369442D01*
Y01368172D01*
X00870127D01*
X00868857Y01366903D01*
X00870127Y01378329D02*
X00868857Y01375790D01*
X00866318Y01373251D01*
X00863779D01*
X00862509Y01374520D01*
Y01377060D01*
X00863779Y01378329D01*
X00865048D01*
X00866318Y01377060D01*
Y01373251D01*
X00870127Y01380868D02*
Y01385947D01*
X00868857D01*
X00863779Y01380868D01*
X00862509D01*
X00462789Y01290705D02*
X00470407D01*
Y01294514D01*
X00469137Y01295784D01*
X00466598D01*
X00465328Y01294514D01*
Y01290705D01*
Y01293244D02*
X00462789Y01295784D01*
Y01298323D02*
Y01300862D01*
Y01299592D01*
X00470407D01*
X00469137Y01298323D01*
Y01304671D02*
X00470407Y01305940D01*
Y01308480D01*
X00469137Y01309749D01*
X00467868D01*
X00466598Y01308480D01*
Y01307210D01*
Y01308480D01*
X00465328Y01309749D01*
X00464059D01*
X00462789Y01308480D01*
Y01305940D01*
X00464059Y01304671D01*
X00470407Y01312288D02*
Y01317367D01*
X00469137D01*
X00464059Y01312288D01*
X00462789D01*
X00505969Y01290705D02*
X00513587D01*
Y01294514D01*
X00512317Y01295784D01*
X00509778D01*
X00508508Y01294514D01*
Y01290705D01*
Y01293244D02*
X00505969Y01295784D01*
Y01298323D02*
Y01300862D01*
Y01299592D01*
X00513587D01*
X00512317Y01298323D01*
Y01304671D02*
X00513587Y01305940D01*
Y01308480D01*
X00512317Y01309749D01*
X00511048D01*
X00509778Y01308480D01*
Y01307210D01*
Y01308480D01*
X00508508Y01309749D01*
X00507239D01*
X00505969Y01308480D01*
Y01305940D01*
X00507239Y01304671D01*
X00512317Y01312288D02*
X00513587Y01313558D01*
Y01316097D01*
X00512317Y01317367D01*
X00511048D01*
X00509778Y01316097D01*
Y01314828D01*
Y01316097D01*
X00508508Y01317367D01*
X00507239D01*
X00505969Y01316097D01*
Y01313558D01*
X00507239Y01312288D01*
X00547449Y01290705D02*
X00555067D01*
Y01294514D01*
X00553797Y01295784D01*
X00551258D01*
X00549988Y01294514D01*
Y01290705D01*
Y01293244D02*
X00547449Y01295784D01*
Y01298323D02*
Y01300862D01*
Y01299592D01*
X00555067D01*
X00553797Y01298323D01*
X00547449Y01309749D02*
Y01304671D01*
X00552528Y01309749D01*
X00553797D01*
X00555067Y01308480D01*
Y01305940D01*
X00553797Y01304671D01*
X00555067Y01312288D02*
Y01317367D01*
X00553797D01*
X00548719Y01312288D01*
X00547449D01*
X00566929Y01291975D02*
X00574547D01*
Y01295784D01*
X00573277Y01297054D01*
X00570738D01*
X00569468Y01295784D01*
Y01291975D01*
Y01294514D02*
X00566929Y01297054D01*
Y01299593D02*
Y01302132D01*
Y01300862D01*
X00574547D01*
X00573277Y01299593D01*
X00566929Y01311019D02*
Y01305941D01*
X00572008Y01311019D01*
X00573277D01*
X00574547Y01309750D01*
Y01307210D01*
X00573277Y01305941D01*
X00566929Y01317367D02*
X00574547D01*
X00570738Y01313558D01*
Y01318637D01*
X00379778Y00753229D02*
X00387395D01*
Y00757038D01*
X00386126Y00758308D01*
X00383587D01*
X00382317Y00757038D01*
Y00753229D01*
Y00755769D02*
X00379778Y00758308D01*
Y00765925D02*
Y00760847D01*
X00384856Y00765925D01*
X00386126D01*
X00387395Y00764656D01*
Y00762116D01*
X00386126Y00760847D01*
Y00768464D02*
X00387395Y00769734D01*
Y00772273D01*
X00386126Y00773543D01*
X00384856D01*
X00383587Y00772273D01*
Y00771004D01*
Y00772273D01*
X00382317Y00773543D01*
X00381047D01*
X00379778Y00772273D01*
Y00769734D01*
X00381047Y00768464D01*
X00421822Y00753671D02*
X00429439D01*
Y00757479D01*
X00428170Y00758749D01*
X00425630D01*
X00424361Y00757479D01*
Y00753671D01*
Y00756210D02*
X00421822Y00758749D01*
Y00761288D02*
Y00763827D01*
Y00762558D01*
X00429439D01*
X00428170Y00761288D01*
X00429439Y00767636D02*
Y00772714D01*
X00428170D01*
X00423091Y00767636D01*
X00421822D01*
X00461519Y00753494D02*
X00469137D01*
Y00757303D01*
X00467867Y00758572D01*
X00465328D01*
X00464058Y00757303D01*
Y00753494D01*
Y00756033D02*
X00461519Y00758572D01*
Y00761112D02*
Y00763651D01*
Y00762381D01*
X00469137D01*
X00467867Y00761112D01*
Y00767460D02*
X00469137Y00768729D01*
Y00771268D01*
X00467867Y00772538D01*
X00466598D01*
X00465328Y00771268D01*
Y00769999D01*
Y00771268D01*
X00464058Y00772538D01*
X00462789D01*
X00461519Y00771268D01*
Y00768729D01*
X00462789Y00767460D01*
X00501981Y00750792D02*
X00509598D01*
Y00754601D01*
X00508328Y00755871D01*
X00505789D01*
X00504520Y00754601D01*
Y00750792D01*
Y00753332D02*
X00501981Y00755871D01*
Y00758410D02*
Y00760949D01*
Y00759680D01*
X00509598D01*
X00508328Y00758410D01*
Y00764758D02*
X00509598Y00766028D01*
Y00768567D01*
X00508328Y00769836D01*
X00503250D01*
X00501981Y00768567D01*
Y00766028D01*
X00503250Y00764758D01*
X00508328D01*
X00848599Y00749711D02*
X00856217D01*
Y00753520D01*
X00854947Y00754789D01*
X00852408D01*
X00851138Y00753520D01*
Y00749711D01*
Y00752250D02*
X00848599Y00754789D01*
X00856217Y00762407D02*
X00854947Y00759868D01*
X00852408Y00757329D01*
X00849869D01*
X00848599Y00758598D01*
Y00761137D01*
X00849869Y00762407D01*
X00851138D01*
X00852408Y00761137D01*
Y00757329D01*
X00848599Y00764946D02*
Y00767485D01*
Y00766216D01*
X00856217D01*
X00854947Y00764946D01*
X00891155Y00748012D02*
X00898772D01*
Y00751820D01*
X00897503Y00753090D01*
X00894964D01*
X00893694Y00751820D01*
Y00748012D01*
Y00750551D02*
X00891155Y00753090D01*
X00898772Y00760707D02*
Y00755629D01*
X00894964D01*
X00896233Y00758168D01*
Y00759438D01*
X00894964Y00760707D01*
X00892424D01*
X00891155Y00759438D01*
Y00756899D01*
X00892424Y00755629D01*
X00898772Y00768325D02*
Y00763247D01*
X00894964D01*
X00896233Y00765786D01*
Y00767056D01*
X00894964Y00768325D01*
X00892424D01*
X00891155Y00767056D01*
Y00764516D01*
X00892424Y00763247D01*
X00933940Y00749711D02*
X00941558D01*
Y00753520D01*
X00940288Y00754789D01*
X00937749D01*
X00936479Y00753520D01*
Y00749711D01*
Y00752250D02*
X00933940Y00754789D01*
X00941558Y00762407D02*
Y00757329D01*
X00937749D01*
X00939019Y00759868D01*
Y00761137D01*
X00937749Y00762407D01*
X00935210D01*
X00933940Y00761137D01*
Y00758598D01*
X00935210Y00757329D01*
X00933940Y00764946D02*
Y00767485D01*
Y00766216D01*
X00941558D01*
X00940288Y00764946D01*
X00975724Y00748441D02*
X00983342D01*
Y00752250D01*
X00982072Y00753520D01*
X00979533D01*
X00978264Y00752250D01*
Y00748441D01*
Y00750981D02*
X00975724Y00753520D01*
Y00759868D02*
X00983342D01*
X00979533Y00756059D01*
Y00761137D01*
X00982072Y00763677D02*
X00983342Y00764946D01*
Y00767485D01*
X00982072Y00768755D01*
X00980803D01*
X00979533Y00767485D01*
X00978264Y00768755D01*
X00976994D01*
X00975724Y00767485D01*
Y00764946D01*
X00976994Y00763677D01*
X00978264D01*
X00979533Y00764946D01*
X00980803Y00763677D01*
X00982072D01*
X00979533Y00764946D02*
Y00767485D01*
X01379642Y00745298D02*
X01387260D01*
Y00749107D01*
X01385990Y00750377D01*
X01383451D01*
X01382182Y00749107D01*
Y00745298D01*
Y00747838D02*
X01379642Y00750377D01*
X01380912Y00752916D02*
X01379642Y00754185D01*
Y00756725D01*
X01380912Y00757994D01*
X01385990D01*
X01387260Y00756725D01*
Y00754185D01*
X01385990Y00752916D01*
X01384721D01*
X01383451Y00754185D01*
Y00757994D01*
X01380912Y00760534D02*
X01379642Y00761803D01*
Y00764342D01*
X01380912Y00765612D01*
X01385990D01*
X01387260Y00764342D01*
Y00761803D01*
X01385990Y00760534D01*
X01384721D01*
X01383451Y00761803D01*
Y00765612D01*
X01420728Y00745035D02*
X01428345D01*
Y00748844D01*
X01427075Y00750113D01*
X01424536D01*
X01423267Y00748844D01*
Y00745035D01*
Y00747574D02*
X01420728Y00750113D01*
X01421997Y00752652D02*
X01420728Y00753922D01*
Y00756461D01*
X01421997Y00757731D01*
X01427075D01*
X01428345Y00756461D01*
Y00753922D01*
X01427075Y00752652D01*
X01425806D01*
X01424536Y00753922D01*
Y00757731D01*
X01427075Y00760270D02*
X01428345Y00761539D01*
Y00764079D01*
X01427075Y00765348D01*
X01425806D01*
X01424536Y00764079D01*
Y00762809D01*
Y00764079D01*
X01423267Y00765348D01*
X01421997D01*
X01420728Y00764079D01*
Y00761539D01*
X01421997Y00760270D01*
X01482585Y00745298D02*
X01490203D01*
Y00749107D01*
X01488933Y00750377D01*
X01486394D01*
X01485125Y00749107D01*
Y00745298D01*
Y00747838D02*
X01482585Y00750377D01*
X01488933Y00752916D02*
X01490203Y00754186D01*
Y00756725D01*
X01488933Y00757994D01*
X01487664D01*
X01486394Y00756725D01*
X01485125Y00757994D01*
X01483855D01*
X01482585Y00756725D01*
Y00754186D01*
X01483855Y00752916D01*
X01485125D01*
X01486394Y00754186D01*
X01487664Y00752916D01*
X01488933D01*
X01486394Y00754186D02*
Y00756725D01*
X01483855Y00760534D02*
X01482585Y00761803D01*
Y00764342D01*
X01483855Y00765612D01*
X01488933D01*
X01490203Y00764342D01*
Y00761803D01*
X01488933Y00760534D01*
X01487664D01*
X01486394Y00761803D01*
Y00765612D01*
X01527825Y00745562D02*
X01535442D01*
Y00749371D01*
X01534173Y00750641D01*
X01531633D01*
X01530364Y00749371D01*
Y00745562D01*
Y00748101D02*
X01527825Y00750641D01*
X01534173Y00753180D02*
X01535442Y00754449D01*
Y00756989D01*
X01534173Y00758258D01*
X01532903D01*
X01531633Y00756989D01*
X01530364Y00758258D01*
X01529094D01*
X01527825Y00756989D01*
Y00754449D01*
X01529094Y00753180D01*
X01530364D01*
X01531633Y00754449D01*
X01532903Y00753180D01*
X01534173D01*
X01531633Y00754449D02*
Y00756989D01*
X01535442Y00765876D02*
X01534173Y00763336D01*
X01531633Y00760797D01*
X01529094D01*
X01527825Y00762067D01*
Y00764606D01*
X01529094Y00765876D01*
X01530364D01*
X01531633Y00764606D01*
Y00760797D01*
X01759458Y01640587D02*
Y01645665D01*
X01760727Y01646935D01*
X01763266D01*
X01764536Y01645665D01*
Y01640587D01*
X01763266Y01639317D01*
X01760727D01*
X01761997Y01641856D02*
X01759458Y01639317D01*
X01760727D02*
X01759458Y01640587D01*
X01756918Y01646935D02*
X01751840D01*
Y01645665D01*
X01756918Y01640587D01*
Y01639317D01*
X01430529Y01692784D02*
X01438147D01*
Y01696593D01*
X01436877Y01697863D01*
X01434338D01*
X01433068Y01696593D01*
Y01692784D01*
Y01695323D02*
X01430529Y01697863D01*
Y01705480D02*
Y01700402D01*
X01435608Y01705480D01*
X01436877D01*
X01438147Y01704211D01*
Y01701671D01*
X01436877Y01700402D01*
Y01708019D02*
X01438147Y01709289D01*
Y01711828D01*
X01436877Y01713098D01*
X01435608D01*
X01434338Y01711828D01*
Y01710558D01*
Y01711828D01*
X01433068Y01713098D01*
X01431799D01*
X01430529Y01711828D01*
Y01709289D01*
X01431799Y01708019D01*
X01430529Y01719445D02*
X01438147D01*
X01434338Y01715637D01*
Y01720715D01*
X01405798Y01692784D02*
X01413416D01*
Y01696593D01*
X01412146Y01697863D01*
X01409607D01*
X01408338Y01696593D01*
Y01692784D01*
Y01695323D02*
X01405798Y01697863D01*
Y01705480D02*
Y01700402D01*
X01410877Y01705480D01*
X01412146D01*
X01413416Y01704211D01*
Y01701671D01*
X01412146Y01700402D01*
Y01708019D02*
X01413416Y01709289D01*
Y01711828D01*
X01412146Y01713098D01*
X01410877D01*
X01409607Y01711828D01*
Y01710558D01*
Y01711828D01*
X01408338Y01713098D01*
X01407068D01*
X01405798Y01711828D01*
Y01709289D01*
X01407068Y01708019D01*
X01412146Y01715637D02*
X01413416Y01716906D01*
Y01719445D01*
X01412146Y01720715D01*
X01410877D01*
X01409607Y01719445D01*
Y01718176D01*
Y01719445D01*
X01408338Y01720715D01*
X01407068D01*
X01405798Y01719445D01*
Y01716906D01*
X01407068Y01715637D01*
X01418006Y01694054D02*
X01425624D01*
Y01697863D01*
X01424354Y01699132D01*
X01421815D01*
X01420545Y01697863D01*
Y01694054D01*
Y01696593D02*
X01418006Y01699132D01*
Y01706750D02*
Y01701671D01*
X01423084Y01706750D01*
X01424354D01*
X01425624Y01705480D01*
Y01702941D01*
X01424354Y01701671D01*
Y01709289D02*
X01425624Y01710558D01*
Y01713098D01*
X01424354Y01714367D01*
X01423084D01*
X01421815Y01713098D01*
Y01711828D01*
Y01713098D01*
X01420545Y01714367D01*
X01419276D01*
X01418006Y01713098D01*
Y01710558D01*
X01419276Y01709289D01*
X01418006Y01716906D02*
Y01719445D01*
Y01718176D01*
X01425624D01*
X01424354Y01716906D01*
X01557909Y01706750D02*
Y01714367D01*
X01554100D01*
X01552830Y01713098D01*
Y01710558D01*
X01554100Y01709289D01*
X01557909D01*
X01555370D02*
X01552830Y01706750D01*
X01545213D02*
X01550291D01*
X01545213Y01711828D01*
Y01713098D01*
X01546483Y01714367D01*
X01549022D01*
X01550291Y01713098D01*
X01542674D02*
X01541404Y01714367D01*
X01538865D01*
X01537595Y01713098D01*
Y01711828D01*
X01538865Y01710558D01*
X01540134D01*
X01538865D01*
X01537595Y01709289D01*
Y01708019D01*
X01538865Y01706750D01*
X01541404D01*
X01542674Y01708019D01*
X01535056Y01713098D02*
X01533787Y01714367D01*
X01531247D01*
X01529978Y01713098D01*
Y01708019D01*
X01531247Y01706750D01*
X01533787D01*
X01535056Y01708019D01*
Y01713098D01*
X01443229Y01691391D02*
X01450847D01*
Y01695199D01*
X01449577Y01696469D01*
X01447038D01*
X01445768Y01695199D01*
Y01691391D01*
Y01693930D02*
X01443229Y01696469D01*
Y01704086D02*
Y01699008D01*
X01448308Y01704086D01*
X01449577D01*
X01450847Y01702817D01*
Y01700278D01*
X01449577Y01699008D01*
X01443229Y01711704D02*
Y01706626D01*
X01448308Y01711704D01*
X01449577D01*
X01450847Y01710434D01*
Y01707895D01*
X01449577Y01706626D01*
Y01714243D02*
X01450847Y01715513D01*
Y01718052D01*
X01449577Y01719321D01*
X01448308D01*
X01447038Y01718052D01*
X01445768Y01719321D01*
X01444499D01*
X01443229Y01718052D01*
Y01715513D01*
X01444499Y01714243D01*
X01445768D01*
X01447038Y01715513D01*
X01448308Y01714243D01*
X01449577D01*
X01447038Y01715513D02*
Y01718052D01*
X01478789Y01691391D02*
X01486407D01*
Y01695199D01*
X01485137Y01696469D01*
X01482598D01*
X01481328Y01695199D01*
Y01691391D01*
Y01693930D02*
X01478789Y01696469D01*
Y01704086D02*
Y01699008D01*
X01483868Y01704086D01*
X01485137D01*
X01486407Y01702817D01*
Y01700278D01*
X01485137Y01699008D01*
X01478789Y01711704D02*
Y01706626D01*
X01483868Y01711704D01*
X01485137D01*
X01486407Y01710434D01*
Y01707895D01*
X01485137Y01706626D01*
X01486407Y01719321D02*
X01485137Y01716782D01*
X01482598Y01714243D01*
X01480059D01*
X01478789Y01715513D01*
Y01718052D01*
X01480059Y01719321D01*
X01481328D01*
X01482598Y01718052D01*
Y01714243D01*
X01631157Y01354906D02*
X01638775D01*
Y01358715D01*
X01637505Y01359984D01*
X01634966D01*
X01633697Y01358715D01*
Y01354906D01*
Y01357445D02*
X01631157Y01359984D01*
Y01367602D02*
Y01362523D01*
X01636236Y01367602D01*
X01637505D01*
X01638775Y01366332D01*
Y01363793D01*
X01637505Y01362523D01*
X01631157Y01375219D02*
Y01370141D01*
X01636236Y01375219D01*
X01637505D01*
X01638775Y01373950D01*
Y01371411D01*
X01637505Y01370141D01*
X01631157Y01377758D02*
Y01380298D01*
Y01379028D01*
X01638775D01*
X01637505Y01377758D01*
X01490219Y01691391D02*
X01497837D01*
Y01695199D01*
X01496567Y01696469D01*
X01494028D01*
X01492758Y01695199D01*
Y01691391D01*
Y01693930D02*
X01490219Y01696469D01*
Y01704086D02*
Y01699008D01*
X01495298Y01704086D01*
X01496567D01*
X01497837Y01702817D01*
Y01700278D01*
X01496567Y01699008D01*
X01490219Y01711704D02*
Y01706626D01*
X01495298Y01711704D01*
X01496567D01*
X01497837Y01710434D01*
Y01707895D01*
X01496567Y01706626D01*
Y01714243D02*
X01497837Y01715513D01*
Y01718052D01*
X01496567Y01719321D01*
X01491489D01*
X01490219Y01718052D01*
Y01715513D01*
X01491489Y01714243D01*
X01496567D01*
X01592449Y01706750D02*
Y01714367D01*
X01588640D01*
X01587370Y01713098D01*
Y01710558D01*
X01588640Y01709289D01*
X01592449D01*
X01589910D02*
X01587370Y01706750D01*
X01579753D02*
X01584831D01*
X01579753Y01711828D01*
Y01713098D01*
X01581022Y01714367D01*
X01583562D01*
X01584831Y01713098D01*
X01577214Y01706750D02*
X01574674D01*
X01575944D01*
Y01714367D01*
X01577214Y01713098D01*
X01570866Y01714367D02*
X01565787D01*
Y01713098D01*
X01570866Y01708019D01*
Y01706750D01*
X01586459Y01354726D02*
X01594076D01*
Y01358535D01*
X01592807Y01359804D01*
X01590268D01*
X01588998Y01358535D01*
Y01354726D01*
Y01357265D02*
X01586459Y01359804D01*
Y01367422D02*
Y01362343D01*
X01591537Y01367422D01*
X01592807D01*
X01594076Y01366152D01*
Y01363613D01*
X01592807Y01362343D01*
X01586459Y01369961D02*
Y01372500D01*
Y01371230D01*
X01594076D01*
X01592807Y01369961D01*
Y01376309D02*
X01594076Y01377578D01*
Y01380117D01*
X01592807Y01381387D01*
X01591537D01*
X01590268Y01380117D01*
X01588998Y01381387D01*
X01587728D01*
X01586459Y01380117D01*
Y01377578D01*
X01587728Y01376309D01*
X01588998D01*
X01590268Y01377578D01*
X01591537Y01376309D01*
X01592807D01*
X01590268Y01377578D02*
Y01380117D01*
X01501649Y01690725D02*
X01509267D01*
Y01694534D01*
X01507997Y01695803D01*
X01505458D01*
X01504188Y01694534D01*
Y01690725D01*
Y01693264D02*
X01501649Y01695803D01*
Y01703421D02*
Y01698342D01*
X01506728Y01703421D01*
X01507997D01*
X01509267Y01702151D01*
Y01699612D01*
X01507997Y01698342D01*
X01501649Y01705960D02*
Y01708499D01*
Y01707229D01*
X01509267D01*
X01507997Y01705960D01*
X01509267Y01717386D02*
X01507997Y01714847D01*
X01505458Y01712308D01*
X01502919D01*
X01501649Y01713577D01*
Y01716117D01*
X01502919Y01717386D01*
X01504188D01*
X01505458Y01716117D01*
Y01712308D01*
X01600153Y01689230D02*
X01607771D01*
Y01693039D01*
X01606501Y01694308D01*
X01603962D01*
X01602693Y01693039D01*
Y01689230D01*
Y01691769D02*
X01600153Y01694308D01*
Y01701926D02*
Y01696848D01*
X01605232Y01701926D01*
X01606501D01*
X01607771Y01700656D01*
Y01698117D01*
X01606501Y01696848D01*
X01600153Y01704465D02*
Y01707004D01*
Y01705735D01*
X01607771D01*
X01606501Y01704465D01*
X01607771Y01715891D02*
Y01710813D01*
X01603962D01*
X01605232Y01713352D01*
Y01714622D01*
X01603962Y01715891D01*
X01601423D01*
X01600153Y01714622D01*
Y01712083D01*
X01601423Y01710813D01*
X01611794Y01689230D02*
X01619411D01*
Y01693039D01*
X01618142Y01694308D01*
X01615603D01*
X01614333Y01693039D01*
Y01689230D01*
Y01691769D02*
X01611794Y01694308D01*
Y01701926D02*
Y01696848D01*
X01616872Y01701926D01*
X01618142D01*
X01619411Y01700656D01*
Y01698117D01*
X01618142Y01696848D01*
X01611794Y01704465D02*
Y01707004D01*
Y01705735D01*
X01619411D01*
X01618142Y01704465D01*
X01611794Y01714622D02*
X01619411D01*
X01615603Y01710813D01*
Y01715891D01*
X01541943Y01354271D02*
X01549560D01*
Y01358080D01*
X01548291Y01359349D01*
X01545752D01*
X01544482Y01358080D01*
Y01354271D01*
Y01356810D02*
X01541943Y01359349D01*
Y01366967D02*
Y01361889D01*
X01547021Y01366967D01*
X01548291D01*
X01549560Y01365697D01*
Y01363158D01*
X01548291Y01361889D01*
X01541943Y01369506D02*
Y01372045D01*
Y01370776D01*
X01549560D01*
X01548291Y01369506D01*
X01541943Y01380932D02*
Y01375854D01*
X01547021Y01380932D01*
X01548291D01*
X01549560Y01379663D01*
Y01377124D01*
X01548291Y01375854D01*
X01454863Y01402769D02*
X01462481D01*
Y01406578D01*
X01461211Y01407848D01*
X01458672D01*
X01457403Y01406578D01*
Y01402769D01*
Y01405309D02*
X01454863Y01407848D01*
Y01415465D02*
Y01410387D01*
X01459942Y01415465D01*
X01461211D01*
X01462481Y01414196D01*
Y01411657D01*
X01461211Y01410387D01*
Y01418004D02*
X01462481Y01419274D01*
Y01421813D01*
X01461211Y01423083D01*
X01456133D01*
X01454863Y01421813D01*
Y01419274D01*
X01456133Y01418004D01*
X01461211D01*
X01456133Y01425622D02*
X01454863Y01426892D01*
Y01429431D01*
X01456133Y01430700D01*
X01461211D01*
X01462481Y01429431D01*
Y01426892D01*
X01461211Y01425622D01*
X01459942D01*
X01458672Y01426892D01*
Y01430700D01*
X01623710Y01688595D02*
X01631328D01*
Y01692404D01*
X01630058Y01693674D01*
X01627519D01*
X01626250Y01692404D01*
Y01688595D01*
Y01691134D02*
X01623710Y01693674D01*
Y01701291D02*
Y01696213D01*
X01628789Y01701291D01*
X01630058D01*
X01631328Y01700022D01*
Y01697482D01*
X01630058Y01696213D01*
Y01703830D02*
X01631328Y01705100D01*
Y01707639D01*
X01630058Y01708909D01*
X01624980D01*
X01623710Y01707639D01*
Y01705100D01*
X01624980Y01703830D01*
X01630058D01*
Y01711448D02*
X01631328Y01712717D01*
Y01715257D01*
X01630058Y01716526D01*
X01628789D01*
X01627519Y01715257D01*
X01626250Y01716526D01*
X01624980D01*
X01623710Y01715257D01*
Y01712717D01*
X01624980Y01711448D01*
X01626250D01*
X01627519Y01712717D01*
X01628789Y01711448D01*
X01630058D01*
X01627519Y01712717D02*
Y01715257D01*
X01467359Y01691391D02*
X01474977D01*
Y01695199D01*
X01473707Y01696469D01*
X01471168D01*
X01469898Y01695199D01*
Y01691391D01*
Y01693930D02*
X01467359Y01696469D01*
Y01704086D02*
Y01699008D01*
X01472438Y01704086D01*
X01473707D01*
X01474977Y01702817D01*
Y01700278D01*
X01473707Y01699008D01*
Y01706626D02*
X01474977Y01707895D01*
Y01710434D01*
X01473707Y01711704D01*
X01468629D01*
X01467359Y01710434D01*
Y01707895D01*
X01468629Y01706626D01*
X01473707D01*
X01474977Y01714243D02*
Y01719321D01*
X01473707D01*
X01468629Y01714243D01*
X01467359D01*
X01455139Y01691391D02*
X01462756D01*
Y01695199D01*
X01461487Y01696469D01*
X01458947D01*
X01457678Y01695199D01*
Y01691391D01*
Y01693930D02*
X01455139Y01696469D01*
Y01704086D02*
Y01699008D01*
X01460217Y01704086D01*
X01461487D01*
X01462756Y01702817D01*
Y01700278D01*
X01461487Y01699008D01*
Y01706626D02*
X01462756Y01707895D01*
Y01710434D01*
X01461487Y01711704D01*
X01456408D01*
X01455139Y01710434D01*
Y01707895D01*
X01456408Y01706626D01*
X01461487D01*
X01462756Y01719321D02*
Y01714243D01*
X01458947D01*
X01460217Y01716782D01*
Y01718052D01*
X01458947Y01719321D01*
X01456408D01*
X01455139Y01718052D01*
Y01715513D01*
X01456408Y01714243D01*
X01635939Y01688595D02*
X01643557D01*
Y01692404D01*
X01642287Y01693674D01*
X01639748D01*
X01638478Y01692404D01*
Y01688595D01*
Y01691134D02*
X01635939Y01693674D01*
Y01701291D02*
Y01696213D01*
X01641018Y01701291D01*
X01642287D01*
X01643557Y01700022D01*
Y01697482D01*
X01642287Y01696213D01*
Y01703830D02*
X01643557Y01705100D01*
Y01707639D01*
X01642287Y01708909D01*
X01637209D01*
X01635939Y01707639D01*
Y01705100D01*
X01637209Y01703830D01*
X01642287D01*
X01635939Y01716526D02*
Y01711448D01*
X01641018Y01716526D01*
X01642287D01*
X01643557Y01715257D01*
Y01712717D01*
X01642287Y01711448D01*
X00805689Y01690226D02*
X00813307D01*
Y01694035D01*
X00812037Y01695305D01*
X00809498D01*
X00808228Y01694035D01*
Y01690226D01*
Y01692766D02*
X00805689Y01695305D01*
Y01697844D02*
Y01700383D01*
Y01699114D01*
X00813307D01*
X00812037Y01697844D01*
X00806959Y01704192D02*
X00805689Y01705462D01*
Y01708001D01*
X00806959Y01709270D01*
X00812037D01*
X00813307Y01708001D01*
Y01705462D01*
X00812037Y01704192D01*
X00810768D01*
X00809498Y01705462D01*
Y01709270D01*
X00805689Y01711810D02*
Y01714349D01*
Y01713079D01*
X00813307D01*
X00812037Y01711810D01*
X00780289Y01689230D02*
X00787907D01*
Y01693039D01*
X00786637Y01694308D01*
X00784098D01*
X00782828Y01693039D01*
Y01689230D01*
Y01691769D02*
X00780289Y01694308D01*
Y01696848D02*
Y01699387D01*
Y01698117D01*
X00787907D01*
X00786637Y01696848D01*
X00781559Y01703195D02*
X00780289Y01704465D01*
Y01707004D01*
X00781559Y01708274D01*
X00786637D01*
X00787907Y01707004D01*
Y01704465D01*
X00786637Y01703195D01*
X00785368D01*
X00784098Y01704465D01*
Y01708274D01*
X00786637Y01710813D02*
X00787907Y01712083D01*
Y01714622D01*
X00786637Y01715891D01*
X00781559D01*
X00780289Y01714622D01*
Y01712083D01*
X00781559Y01710813D01*
X00786637D01*
X00792989Y01688957D02*
X00800607D01*
Y01692766D01*
X00799337Y01694035D01*
X00796798D01*
X00795528Y01692766D01*
Y01688957D01*
Y01691496D02*
X00792989Y01694035D01*
Y01696574D02*
Y01699114D01*
Y01697844D01*
X00800607D01*
X00799337Y01696574D01*
Y01702922D02*
X00800607Y01704192D01*
Y01706731D01*
X00799337Y01708001D01*
X00798068D01*
X00796798Y01706731D01*
X00795528Y01708001D01*
X00794259D01*
X00792989Y01706731D01*
Y01704192D01*
X00794259Y01702922D01*
X00795528D01*
X00796798Y01704192D01*
X00798068Y01702922D01*
X00799337D01*
X00796798Y01704192D02*
Y01706731D01*
X00799337Y01710540D02*
X00800607Y01711810D01*
Y01714349D01*
X00799337Y01715618D01*
X00798068D01*
X00796798Y01714349D01*
X00795528Y01715618D01*
X00794259D01*
X00792989Y01714349D01*
Y01711810D01*
X00794259Y01710540D01*
X00795528D01*
X00796798Y01711810D01*
X00798068Y01710540D01*
X00799337D01*
X00796798Y01711810D02*
Y01714349D01*
X00918758Y01711319D02*
Y01718937D01*
X00914950D01*
X00913680Y01717668D01*
Y01715128D01*
X00914950Y01713859D01*
X00918758D01*
X00916219D02*
X00913680Y01711319D01*
X00911141D02*
X00908602D01*
X00909871D01*
Y01718937D01*
X00911141Y01717668D01*
X00904793D02*
X00903523Y01718937D01*
X00900984D01*
X00899715Y01717668D01*
Y01716398D01*
X00900984Y01715128D01*
X00899715Y01713859D01*
Y01712589D01*
X00900984Y01711319D01*
X00903523D01*
X00904793Y01712589D01*
Y01713859D01*
X00903523Y01715128D01*
X00904793Y01716398D01*
Y01717668D01*
X00903523Y01715128D02*
X00900984D01*
X00897175Y01718937D02*
X00892097D01*
Y01717668D01*
X00897175Y01712589D01*
Y01711319D01*
X00818389Y01688957D02*
X00826007D01*
Y01692766D01*
X00824737Y01694035D01*
X00822198D01*
X00820928Y01692766D01*
Y01688957D01*
Y01691496D02*
X00818389Y01694035D01*
Y01696574D02*
Y01699114D01*
Y01697844D01*
X00826007D01*
X00824737Y01696574D01*
Y01702922D02*
X00826007Y01704192D01*
Y01706731D01*
X00824737Y01708001D01*
X00823468D01*
X00822198Y01706731D01*
X00820928Y01708001D01*
X00819659D01*
X00818389Y01706731D01*
Y01704192D01*
X00819659Y01702922D01*
X00820928D01*
X00822198Y01704192D01*
X00823468Y01702922D01*
X00824737D01*
X00822198Y01704192D02*
Y01706731D01*
X00826007Y01715618D02*
Y01710540D01*
X00822198D01*
X00823468Y01713079D01*
Y01714349D01*
X00822198Y01715618D01*
X00819659D01*
X00818389Y01714349D01*
Y01711810D01*
X00819659Y01710540D01*
X00853379Y01688957D02*
X00860997D01*
Y01692766D01*
X00859727Y01694035D01*
X00857188D01*
X00855918Y01692766D01*
Y01688957D01*
Y01691496D02*
X00853379Y01694035D01*
Y01696574D02*
Y01699114D01*
Y01697844D01*
X00860997D01*
X00859727Y01696574D01*
Y01702922D02*
X00860997Y01704192D01*
Y01706731D01*
X00859727Y01708001D01*
X00858458D01*
X00857188Y01706731D01*
X00855918Y01708001D01*
X00854649D01*
X00853379Y01706731D01*
Y01704192D01*
X00854649Y01702922D01*
X00855918D01*
X00857188Y01704192D01*
X00858458Y01702922D01*
X00859727D01*
X00857188Y01704192D02*
Y01706731D01*
X00859727Y01710540D02*
X00860997Y01711810D01*
Y01714349D01*
X00859727Y01715618D01*
X00858458D01*
X00857188Y01714349D01*
Y01713079D01*
Y01714349D01*
X00855918Y01715618D01*
X00854649D01*
X00853379Y01714349D01*
Y01711810D01*
X00854649Y01710540D01*
X01010159Y01357912D02*
X01017777D01*
Y01361721D01*
X01016507Y01362990D01*
X01013968D01*
X01012698Y01361721D01*
Y01357912D01*
Y01360451D02*
X01010159Y01362990D01*
Y01365529D02*
Y01368069D01*
Y01366799D01*
X01017777D01*
X01016507Y01365529D01*
X01017777Y01371877D02*
Y01376956D01*
X01016507D01*
X01011429Y01371877D01*
X01010159D01*
X01016507Y01379495D02*
X01017777Y01380764D01*
Y01383304D01*
X01016507Y01384573D01*
X01015238D01*
X01013968Y01383304D01*
X01012698Y01384573D01*
X01011429D01*
X01010159Y01383304D01*
Y01380764D01*
X01011429Y01379495D01*
X01012698D01*
X01013968Y01380764D01*
X01015238Y01379495D01*
X01016507D01*
X01013968Y01380764D02*
Y01383304D01*
X00866150Y01689230D02*
X00873768D01*
Y01693039D01*
X00872498Y01694308D01*
X00869959D01*
X00868689Y01693039D01*
Y01689230D01*
Y01691769D02*
X00866150Y01694308D01*
Y01696848D02*
Y01699387D01*
Y01698117D01*
X00873768D01*
X00872498Y01696848D01*
X00873768Y01703195D02*
Y01708274D01*
X00872498D01*
X00867420Y01703195D01*
X00866150D01*
X00873768Y01710813D02*
Y01715891D01*
X00872498D01*
X00867420Y01710813D01*
X00866150D01*
X00950341Y01711319D02*
Y01718937D01*
X00946533D01*
X00945263Y01717668D01*
Y01715128D01*
X00946533Y01713859D01*
X00950341D01*
X00947802D02*
X00945263Y01711319D01*
X00942724D02*
X00940185D01*
X00941454D01*
Y01718937D01*
X00942724Y01717668D01*
X00936376Y01718937D02*
X00931298D01*
Y01717668D01*
X00936376Y01712589D01*
Y01711319D01*
X00924950D02*
Y01718937D01*
X00928758Y01715128D01*
X00923680D01*
X00970679Y01357912D02*
X00978297D01*
Y01361721D01*
X00977027Y01362990D01*
X00974488D01*
X00973218Y01361721D01*
Y01357912D01*
Y01360451D02*
X00970679Y01362990D01*
Y01365529D02*
Y01368069D01*
Y01366799D01*
X00978297D01*
X00977027Y01365529D01*
X00978297Y01371877D02*
Y01376956D01*
X00977027D01*
X00971949Y01371877D01*
X00970679D01*
X00978297Y01384573D02*
Y01379495D01*
X00974488D01*
X00975758Y01382034D01*
Y01383304D01*
X00974488Y01384573D01*
X00971949D01*
X00970679Y01383304D01*
Y01380764D01*
X00971949Y01379495D01*
X00878971Y01688957D02*
X00886589D01*
Y01692766D01*
X00885320Y01694035D01*
X00882780D01*
X00881511Y01692766D01*
Y01688957D01*
Y01691496D02*
X00878971Y01694035D01*
Y01696575D02*
Y01699114D01*
Y01697844D01*
X00886589D01*
X00885320Y01696575D01*
X00886589Y01702922D02*
Y01708001D01*
X00885320D01*
X00880241Y01702922D01*
X00878971D01*
X00885320Y01710540D02*
X00886589Y01711810D01*
Y01714349D01*
X00885320Y01715618D01*
X00884050D01*
X00882780Y01714349D01*
Y01713079D01*
Y01714349D01*
X00881511Y01715618D01*
X00880241D01*
X00878971Y01714349D01*
Y01711810D01*
X00880241Y01710540D01*
X00958477Y01686945D02*
X00966094D01*
Y01690754D01*
X00964825Y01692024D01*
X00962285D01*
X00961016Y01690754D01*
Y01686945D01*
Y01689485D02*
X00958477Y01692024D01*
Y01694563D02*
Y01697102D01*
Y01695832D01*
X00966094D01*
X00964825Y01694563D01*
X00966094Y01700911D02*
Y01705989D01*
X00964825D01*
X00959746Y01700911D01*
X00958477D01*
Y01713607D02*
Y01708528D01*
X00963555Y01713607D01*
X00964825D01*
X00966094Y01712337D01*
Y01709798D01*
X00964825Y01708528D01*
X00970887Y01690226D02*
X00978504D01*
Y01694035D01*
X00977235Y01695305D01*
X00974696D01*
X00973426Y01694035D01*
Y01690226D01*
Y01692766D02*
X00970887Y01695305D01*
Y01697844D02*
Y01700383D01*
Y01699114D01*
X00978504D01*
X00977235Y01697844D01*
X00978504Y01704192D02*
Y01709270D01*
X00977235D01*
X00972156Y01704192D01*
X00970887D01*
Y01711810D02*
Y01714349D01*
Y01713079D01*
X00978504D01*
X00977235Y01711810D01*
X00926340Y01358492D02*
X00933958D01*
Y01362300D01*
X00932688Y01363570D01*
X00930149D01*
X00928879Y01362300D01*
Y01358492D01*
Y01361031D02*
X00926340Y01363570D01*
Y01366109D02*
Y01368648D01*
Y01367379D01*
X00933958D01*
X00932688Y01366109D01*
X00933958Y01377535D02*
X00932688Y01374996D01*
X00930149Y01372457D01*
X00927610D01*
X00926340Y01373727D01*
Y01376266D01*
X00927610Y01377535D01*
X00928879D01*
X00930149Y01376266D01*
Y01372457D01*
X00927610Y01380074D02*
X00926340Y01381344D01*
Y01383883D01*
X00927610Y01385153D01*
X00932688D01*
X00933958Y01383883D01*
Y01381344D01*
X00932688Y01380074D01*
X00931419D01*
X00930149Y01381344D01*
Y01385153D01*
X00893249Y01357912D02*
X00900867D01*
Y01361721D01*
X00899597Y01362990D01*
X00897058D01*
X00895788Y01361721D01*
Y01357912D01*
Y01360451D02*
X00893249Y01362990D01*
Y01365529D02*
Y01368069D01*
Y01366799D01*
X00900867D01*
X00899597Y01365529D01*
X00900867Y01376956D02*
X00899597Y01374417D01*
X00897058Y01371877D01*
X00894519D01*
X00893249Y01373147D01*
Y01375686D01*
X00894519Y01376956D01*
X00895788D01*
X00897058Y01375686D01*
Y01371877D01*
X00900867Y01384573D02*
X00899597Y01382034D01*
X00897058Y01379495D01*
X00894519D01*
X00893249Y01380764D01*
Y01383304D01*
X00894519Y01384573D01*
X00895788D01*
X00897058Y01383304D01*
Y01379495D01*
X00983489Y01688957D02*
X00991107D01*
Y01692766D01*
X00989837Y01694035D01*
X00987298D01*
X00986028Y01692766D01*
Y01688957D01*
Y01691496D02*
X00983489Y01694035D01*
Y01696575D02*
Y01699114D01*
Y01697844D01*
X00991107D01*
X00989837Y01696575D01*
X00991107Y01708001D02*
X00989837Y01705462D01*
X00987298Y01702922D01*
X00984759D01*
X00983489Y01704192D01*
Y01706731D01*
X00984759Y01708001D01*
X00986028D01*
X00987298Y01706731D01*
Y01702922D01*
X00991107Y01715618D02*
Y01710540D01*
X00987298D01*
X00988568Y01713079D01*
Y01714349D01*
X00987298Y01715618D01*
X00984759D01*
X00983489Y01714349D01*
Y01711810D01*
X00984759Y01710540D01*
X00841249Y01688957D02*
X00848867D01*
Y01692766D01*
X00847597Y01694035D01*
X00845058D01*
X00843788Y01692766D01*
Y01688957D01*
Y01691496D02*
X00841249Y01694035D01*
Y01696574D02*
Y01699114D01*
Y01697844D01*
X00848867D01*
X00847597Y01696574D01*
X00848867Y01708001D02*
X00847597Y01705462D01*
X00845058Y01702922D01*
X00842519D01*
X00841249Y01704192D01*
Y01706731D01*
X00842519Y01708001D01*
X00843788D01*
X00845058Y01706731D01*
Y01702922D01*
X00841249Y01714349D02*
X00848867D01*
X00845058Y01710540D01*
Y01715618D01*
X00829819Y01688957D02*
X00837437D01*
Y01692766D01*
X00836167Y01694035D01*
X00833628D01*
X00832358Y01692766D01*
Y01688957D01*
Y01691496D02*
X00829819Y01694035D01*
Y01696574D02*
Y01699114D01*
Y01697844D01*
X00837437D01*
X00836167Y01696574D01*
X00837437Y01708001D02*
X00836167Y01705462D01*
X00833628Y01702922D01*
X00831089D01*
X00829819Y01704192D01*
Y01706731D01*
X00831089Y01708001D01*
X00832358D01*
X00833628Y01706731D01*
Y01702922D01*
X00829819Y01715618D02*
Y01710540D01*
X00834898Y01715618D01*
X00836167D01*
X00837437Y01714349D01*
Y01711810D01*
X00836167Y01710540D01*
X01037747Y01660907D02*
Y01668525D01*
X01033939D01*
X01032669Y01667255D01*
Y01664716D01*
X01033939Y01663446D01*
X01037747D01*
X01035208D02*
X01032669Y01660907D01*
X01030130D02*
X01027591D01*
X01028860D01*
Y01668525D01*
X01030130Y01667255D01*
X01018704Y01668525D02*
X01023782D01*
Y01664716D01*
X01021243Y01665986D01*
X01019973D01*
X01018704Y01664716D01*
Y01662177D01*
X01019973Y01660907D01*
X01022512D01*
X01023782Y01662177D01*
X01016164D02*
X01014895Y01660907D01*
X01012356D01*
X01011086Y01662177D01*
Y01667255D01*
X01012356Y01668525D01*
X01014895D01*
X01016164Y01667255D01*
Y01665986D01*
X01014895Y01664716D01*
X01011086D01*
X00312659Y01129709D02*
Y01137326D01*
X00308850D01*
X00307580Y01136057D01*
Y01133517D01*
X00308850Y01132248D01*
X00312659D01*
X00310119D02*
X00307580Y01129709D01*
X00305041D02*
X00302502D01*
X00303771D01*
Y01137326D01*
X00305041Y01136057D01*
X00294884Y01129709D02*
Y01137326D01*
X00298693Y01133517D01*
X00293615D01*
X00291076Y01136057D02*
X00289806Y01137326D01*
X00287267D01*
X00285997Y01136057D01*
Y01134787D01*
X00287267Y01133517D01*
X00285997Y01132248D01*
Y01130978D01*
X00287267Y01129709D01*
X00289806D01*
X00291076Y01130978D01*
Y01132248D01*
X00289806Y01133517D01*
X00291076Y01134787D01*
Y01136057D01*
X00289806Y01133517D02*
X00287267D01*
X00312659Y01107187D02*
Y01114805D01*
X00308850D01*
X00307580Y01113535D01*
Y01110996D01*
X00308850Y01109726D01*
X00312659D01*
X00310119D02*
X00307580Y01107187D01*
X00305041D02*
X00302502D01*
X00303771D01*
Y01114805D01*
X00305041Y01113535D01*
X00294884Y01107187D02*
Y01114805D01*
X00298693Y01110996D01*
X00293615D01*
X00291076Y01114805D02*
X00285997D01*
Y01113535D01*
X00291076Y01108457D01*
Y01107187D01*
X00312659Y01118617D02*
Y01126235D01*
X00308850D01*
X00307580Y01124965D01*
Y01122426D01*
X00308850Y01121156D01*
X00312659D01*
X00310119D02*
X00307580Y01118617D01*
X00305041D02*
X00302502D01*
X00303771D01*
Y01126235D01*
X00305041Y01124965D01*
X00294884Y01118617D02*
Y01126235D01*
X00298693Y01122426D01*
X00293615D01*
X00285997Y01126235D02*
X00291076D01*
Y01122426D01*
X00288536Y01123696D01*
X00287267D01*
X00285997Y01122426D01*
Y01119887D01*
X00287267Y01118617D01*
X00289806D01*
X00291076Y01119887D01*
X00230379Y01140845D02*
X00237997D01*
Y01144654D01*
X00236727Y01145924D01*
X00234188D01*
X00232918Y01144654D01*
Y01140845D01*
Y01143384D02*
X00230379Y01145924D01*
Y01148463D02*
Y01151002D01*
Y01149732D01*
X00237997D01*
X00236727Y01148463D01*
X00230379Y01158620D02*
X00237997D01*
X00234188Y01154811D01*
Y01159889D01*
X00230379Y01166237D02*
X00237997D01*
X00234188Y01162428D01*
Y01167507D01*
X00312629Y01141797D02*
Y01149415D01*
X00308820D01*
X00307551Y01148145D01*
Y01145606D01*
X00308820Y01144336D01*
X00312629D01*
X00310090D02*
X00307551Y01141797D01*
X00305011D02*
X00302472D01*
X00303742D01*
Y01149415D01*
X00305011Y01148145D01*
X00294855Y01141797D02*
Y01149415D01*
X00298663Y01145606D01*
X00293585D01*
X00285968Y01141797D02*
X00291046D01*
X00285968Y01146875D01*
Y01148145D01*
X00287237Y01149415D01*
X00289776D01*
X00291046Y01148145D01*
X00313753Y01175566D02*
Y01183184D01*
X00309944D01*
X00308675Y01181914D01*
Y01179375D01*
X00309944Y01178105D01*
X00313753D01*
X00311214D02*
X00308675Y01175566D01*
X00306135D02*
X00303596D01*
X00304866D01*
Y01183184D01*
X00306135Y01181914D01*
X00295979Y01175566D02*
Y01183184D01*
X00299787Y01179375D01*
X00294709D01*
X00292170Y01181914D02*
X00290900Y01183184D01*
X00288361D01*
X00287092Y01181914D01*
Y01176836D01*
X00288361Y01175566D01*
X00290900D01*
X00292170Y01176836D01*
Y01181914D01*
X00441199Y01289625D02*
X00448817D01*
Y01293434D01*
X00447547Y01294704D01*
X00445008D01*
X00443738Y01293434D01*
Y01289625D01*
Y01292164D02*
X00441199Y01294704D01*
Y01297243D02*
Y01299782D01*
Y01298512D01*
X00448817D01*
X00447547Y01297243D01*
Y01303591D02*
X00448817Y01304860D01*
Y01307400D01*
X00447547Y01308669D01*
X00446278D01*
X00445008Y01307400D01*
Y01306130D01*
Y01307400D01*
X00443738Y01308669D01*
X00442469D01*
X00441199Y01307400D01*
Y01304860D01*
X00442469Y01303591D01*
X00448817Y01316287D02*
Y01311208D01*
X00445008D01*
X00446278Y01313748D01*
Y01315017D01*
X00445008Y01316287D01*
X00442469D01*
X00441199Y01315017D01*
Y01312478D01*
X00442469Y01311208D01*
X00312659Y01187307D02*
Y01194925D01*
X00308850D01*
X00307580Y01193655D01*
Y01191116D01*
X00308850Y01189846D01*
X00312659D01*
X00310119D02*
X00307580Y01187307D01*
X00305041D02*
X00302502D01*
X00303771D01*
Y01194925D01*
X00305041Y01193655D01*
X00298693D02*
X00297424Y01194925D01*
X00294884D01*
X00293615Y01193655D01*
Y01192386D01*
X00294884Y01191116D01*
X00296154D01*
X00294884D01*
X00293615Y01189846D01*
Y01188577D01*
X00294884Y01187307D01*
X00297424D01*
X00298693Y01188577D01*
X00287267Y01187307D02*
Y01194925D01*
X00291076Y01191116D01*
X00285997D01*
X00218495Y01174308D02*
X00226113D01*
Y01178117D01*
X00224843Y01179386D01*
X00222304D01*
X00221034Y01178117D01*
Y01174308D01*
Y01176847D02*
X00218495Y01179386D01*
Y01181925D02*
Y01184465D01*
Y01183195D01*
X00226113D01*
X00224843Y01181925D01*
Y01188273D02*
X00226113Y01189543D01*
Y01192082D01*
X00224843Y01193352D01*
X00223574D01*
X00222304Y01192082D01*
Y01190813D01*
Y01192082D01*
X00221034Y01193352D01*
X00219765D01*
X00218495Y01192082D01*
Y01189543D01*
X00219765Y01188273D01*
X00218495Y01195891D02*
Y01198430D01*
Y01197160D01*
X00226113D01*
X00224843Y01195891D01*
X00485194Y01289625D02*
X00492812D01*
Y01293434D01*
X00491542Y01294704D01*
X00489003D01*
X00487733Y01293434D01*
Y01289625D01*
Y01292164D02*
X00485194Y01294704D01*
Y01297243D02*
Y01299782D01*
Y01298512D01*
X00492812D01*
X00491542Y01297243D01*
Y01303591D02*
X00492812Y01304860D01*
Y01307400D01*
X00491542Y01308669D01*
X00490272D01*
X00489003Y01307400D01*
Y01306130D01*
Y01307400D01*
X00487733Y01308669D01*
X00486464D01*
X00485194Y01307400D01*
Y01304860D01*
X00486464Y01303591D01*
X00485194Y01316287D02*
Y01311208D01*
X00490272Y01316287D01*
X00491542D01*
X00492812Y01315017D01*
Y01312478D01*
X00491542Y01311208D01*
X00312659Y01198695D02*
Y01206313D01*
X00308850D01*
X00307580Y01205043D01*
Y01202504D01*
X00308850Y01201234D01*
X00312659D01*
X00310119D02*
X00307580Y01198695D01*
X00305041D02*
X00302502D01*
X00303771D01*
Y01206313D01*
X00305041Y01205043D01*
X00298693D02*
X00297424Y01206313D01*
X00294884D01*
X00293615Y01205043D01*
Y01203774D01*
X00294884Y01202504D01*
X00296154D01*
X00294884D01*
X00293615Y01201234D01*
Y01199965D01*
X00294884Y01198695D01*
X00297424D01*
X00298693Y01199965D01*
X00291076Y01205043D02*
X00289806Y01206313D01*
X00287267D01*
X00285997Y01205043D01*
Y01199965D01*
X00287267Y01198695D01*
X00289806D01*
X00291076Y01199965D01*
Y01205043D01*
X00312659Y01211535D02*
Y01219152D01*
X00308850D01*
X00307580Y01217883D01*
Y01215344D01*
X00308850Y01214074D01*
X00312659D01*
X00310119D02*
X00307580Y01211535D01*
X00305041D02*
X00302502D01*
X00303771D01*
Y01219152D01*
X00305041Y01217883D01*
X00293615Y01211535D02*
X00298693D01*
X00293615Y01216613D01*
Y01217883D01*
X00294884Y01219152D01*
X00297424D01*
X00298693Y01217883D01*
X00291076Y01212804D02*
X00289806Y01211535D01*
X00287267D01*
X00285997Y01212804D01*
Y01217883D01*
X00287267Y01219152D01*
X00289806D01*
X00291076Y01217883D01*
Y01216613D01*
X00289806Y01215344D01*
X00285997D01*
X00313929Y01223508D02*
Y01231126D01*
X00310120D01*
X00308850Y01229856D01*
Y01227317D01*
X00310120Y01226048D01*
X00313929D01*
X00311390D02*
X00308850Y01223508D01*
X00306311D02*
X00303772D01*
X00305042D01*
Y01231126D01*
X00306311Y01229856D01*
X00294885Y01223508D02*
X00299963D01*
X00294885Y01228587D01*
Y01229856D01*
X00296154Y01231126D01*
X00298694D01*
X00299963Y01229856D01*
X00292346D02*
X00291076Y01231126D01*
X00288537D01*
X00287267Y01229856D01*
Y01228587D01*
X00288537Y01227317D01*
X00287267Y01226048D01*
Y01224778D01*
X00288537Y01223508D01*
X00291076D01*
X00292346Y01224778D01*
Y01226048D01*
X00291076Y01227317D01*
X00292346Y01228587D01*
Y01229856D01*
X00291076Y01227317D02*
X00288537D01*
X00528449Y01289625D02*
X00536067D01*
Y01293434D01*
X00534797Y01294704D01*
X00532258D01*
X00530988Y01293434D01*
Y01289625D01*
Y01292164D02*
X00528449Y01294704D01*
Y01297243D02*
Y01299782D01*
Y01298512D01*
X00536067D01*
X00534797Y01297243D01*
X00528449Y01308669D02*
Y01303591D01*
X00533528Y01308669D01*
X00534797D01*
X00536067Y01307400D01*
Y01304860D01*
X00534797Y01303591D01*
X00536067Y01316287D02*
X00534797Y01313748D01*
X00532258Y01311208D01*
X00529719D01*
X00528449Y01312478D01*
Y01315017D01*
X00529719Y01316287D01*
X00530988D01*
X00532258Y01315017D01*
Y01311208D01*
X00586919Y01289625D02*
X00594537D01*
Y01293434D01*
X00593267Y01294704D01*
X00590728D01*
X00589458Y01293434D01*
Y01289625D01*
Y01292164D02*
X00586919Y01294704D01*
Y01297243D02*
Y01299782D01*
Y01298512D01*
X00594537D01*
X00593267Y01297243D01*
X00586919Y01308669D02*
Y01303591D01*
X00591998Y01308669D01*
X00593267D01*
X00594537Y01307400D01*
Y01304860D01*
X00593267Y01303591D01*
Y01311208D02*
X00594537Y01312478D01*
Y01315017D01*
X00593267Y01316287D01*
X00591998D01*
X00590728Y01315017D01*
Y01313748D01*
Y01315017D01*
X00589458Y01316287D01*
X00588189D01*
X00586919Y01315017D01*
Y01312478D01*
X00588189Y01311208D01*
X00312366Y01234726D02*
Y01242344D01*
X00308557D01*
X00307287Y01241074D01*
Y01238535D01*
X00308557Y01237265D01*
X00312366D01*
X00309827D02*
X00307287Y01234726D01*
X00304748D02*
X00302209D01*
X00303479D01*
Y01242344D01*
X00304748Y01241074D01*
X00293322Y01234726D02*
X00298400D01*
X00293322Y01239805D01*
Y01241074D01*
X00294591Y01242344D01*
X00297131D01*
X00298400Y01241074D01*
X00285704Y01234726D02*
X00290783D01*
X00285704Y01239805D01*
Y01241074D01*
X00286974Y01242344D01*
X00289513D01*
X00290783Y01241074D01*
X00311389Y01164243D02*
Y01171860D01*
X00307580D01*
X00306311Y01170591D01*
Y01168052D01*
X00307580Y01166782D01*
X00311389D01*
X00308850D02*
X00306311Y01164243D01*
X00303771D02*
X00301232D01*
X00302502D01*
Y01171860D01*
X00303771Y01170591D01*
X00292345Y01164243D02*
X00297424D01*
X00292345Y01169321D01*
Y01170591D01*
X00293615Y01171860D01*
X00296154D01*
X00297424Y01170591D01*
X00289806Y01164243D02*
X00287267D01*
X00288536D01*
Y01171860D01*
X00289806Y01170591D01*
X00312024Y01152907D02*
Y01160525D01*
X00308215D01*
X00306945Y01159255D01*
Y01156716D01*
X00308215Y01155446D01*
X00312024D01*
X00309485D02*
X00306945Y01152907D01*
X00304406D02*
X00301867D01*
X00303137D01*
Y01160525D01*
X00304406Y01159255D01*
X00298058Y01152907D02*
X00295519D01*
X00296789D01*
Y01160525D01*
X00298058Y01159255D01*
X00291710Y01154177D02*
X00290441Y01152907D01*
X00287902D01*
X00286632Y01154177D01*
Y01159255D01*
X00287902Y01160525D01*
X00290441D01*
X00291710Y01159255D01*
Y01157986D01*
X00290441Y01156716D01*
X00286632D01*
X00313294Y01248157D02*
Y01255775D01*
X00309485D01*
X00308216Y01254505D01*
Y01251966D01*
X00309485Y01250696D01*
X00313294D01*
X00310755D02*
X00308216Y01248157D01*
X00305676D02*
X00303137D01*
X00304407D01*
Y01255775D01*
X00305676Y01254505D01*
X00299328Y01248157D02*
X00296789D01*
X00298059D01*
Y01255775D01*
X00299328Y01254505D01*
X00287902Y01255775D02*
X00290441Y01254505D01*
X00292980Y01251966D01*
Y01249427D01*
X00291711Y01248157D01*
X00289172D01*
X00287902Y01249427D01*
Y01250696D01*
X00289172Y01251966D01*
X00292980D01*
X01522131Y00510171D02*
X01529748D01*
Y00513979D01*
X01528479Y00515249D01*
X01525939D01*
X01524670Y00513979D01*
Y00510171D01*
Y00512710D02*
X01522131Y00515249D01*
Y00517788D02*
Y00520327D01*
Y00519058D01*
X01529748D01*
X01528479Y00517788D01*
X01522131Y00524136D02*
Y00526675D01*
Y00525406D01*
X01529748D01*
X01528479Y00524136D01*
X01522131Y00530484D02*
Y00533023D01*
Y00531754D01*
X01529748D01*
X01528479Y00530484D01*
X01545132Y00508901D02*
X01552749D01*
Y00512710D01*
X01551479Y00513979D01*
X01548940D01*
X01547671Y00512710D01*
Y00508901D01*
Y00511440D02*
X01545132Y00513979D01*
Y00516519D02*
Y00519058D01*
Y00517788D01*
X01552749D01*
X01551479Y00516519D01*
X01545132Y00522867D02*
Y00525406D01*
Y00524136D01*
X01552749D01*
X01551479Y00522867D01*
Y00529215D02*
X01552749Y00530484D01*
Y00533023D01*
X01551479Y00534293D01*
X01546401D01*
X01545132Y00533023D01*
Y00530484D01*
X01546401Y00529215D01*
X01551479D01*
X01533435Y00508423D02*
X01541052D01*
Y00512232D01*
X01539783Y00513502D01*
X01537244D01*
X01535974Y00512232D01*
Y00508423D01*
Y00510962D02*
X01533435Y00513502D01*
Y00516041D02*
Y00518580D01*
Y00517310D01*
X01541052D01*
X01539783Y00516041D01*
Y00522389D02*
X01541052Y00523658D01*
Y00526198D01*
X01539783Y00527467D01*
X01534704D01*
X01533435Y00526198D01*
Y00523658D01*
X01534704Y00522389D01*
X01539783D01*
X01541052Y00530006D02*
Y00535085D01*
X01539783D01*
X01534704Y00530006D01*
X01533435D01*
X01516249Y00455677D02*
Y00463295D01*
X01512440D01*
X01511170Y00462025D01*
Y00459486D01*
X01512440Y00458216D01*
X01516249D01*
X01513710D02*
X01511170Y00455677D01*
X01508631D02*
X01506092D01*
X01507362D01*
Y00463295D01*
X01508631Y00462025D01*
X01502283D02*
X01501014Y00463295D01*
X01498474D01*
X01497205Y00462025D01*
Y00456947D01*
X01498474Y00455677D01*
X01501014D01*
X01502283Y00456947D01*
Y00462025D01*
X01489587Y00463295D02*
X01492126Y00462025D01*
X01494666Y00459486D01*
Y00456947D01*
X01493396Y00455677D01*
X01490857D01*
X01489587Y00456947D01*
Y00458216D01*
X01490857Y00459486D01*
X01494666D01*
X01510905Y00508580D02*
X01518522D01*
Y00512389D01*
X01517253Y00513659D01*
X01514714D01*
X01513444Y00512389D01*
Y00508580D01*
Y00511119D02*
X01510905Y00513659D01*
Y00516198D02*
Y00518737D01*
Y00517467D01*
X01518522D01*
X01517253Y00516198D01*
Y00522546D02*
X01518522Y00523815D01*
Y00526355D01*
X01517253Y00527624D01*
X01512175D01*
X01510905Y00526355D01*
Y00523815D01*
X01512175Y00522546D01*
X01517253D01*
X01510905Y00533972D02*
X01518522D01*
X01514714Y00530163D01*
Y00535242D01*
X01475831Y00508485D02*
X01483449D01*
Y00512294D01*
X01482179Y00513564D01*
X01479640D01*
X01478370Y00512294D01*
Y00508485D01*
Y00511025D02*
X01475831Y00513564D01*
Y00516103D02*
Y00518642D01*
Y00517372D01*
X01483449D01*
X01482179Y00516103D01*
Y00522451D02*
X01483449Y00523720D01*
Y00526260D01*
X01482179Y00527529D01*
X01477101D01*
X01475831Y00526260D01*
Y00523720D01*
X01477101Y00522451D01*
X01482179D01*
X01475831Y00535147D02*
Y00530068D01*
X01480909Y00535147D01*
X01482179D01*
X01483449Y00533877D01*
Y00531338D01*
X01482179Y00530068D01*
X01463558Y00511659D02*
X01471175D01*
Y00515468D01*
X01469906Y00516738D01*
X01467366D01*
X01466097Y00515468D01*
Y00511659D01*
Y00514198D02*
X01463558Y00516738D01*
X01464827Y00519277D02*
X01463558Y00520546D01*
Y00523086D01*
X01464827Y00524355D01*
X01469906D01*
X01471175Y00523086D01*
Y00520546D01*
X01469906Y00519277D01*
X01468636D01*
X01467366Y00520546D01*
Y00524355D01*
X01469906Y00526894D02*
X01471175Y00528164D01*
Y00530703D01*
X01469906Y00531973D01*
X01468636D01*
X01467366Y00530703D01*
X01466097Y00531973D01*
X01464827D01*
X01463558Y00530703D01*
Y00528164D01*
X01464827Y00526894D01*
X01466097D01*
X01467366Y00528164D01*
X01468636Y00526894D01*
X01469906D01*
X01467366Y00528164D02*
Y00530703D01*
X01398779Y00744229D02*
X01406397D01*
Y00748038D01*
X01405127Y00749308D01*
X01402588D01*
X01401318Y00748038D01*
Y00744229D01*
Y00746768D02*
X01398779Y00749308D01*
X01400049Y00751847D02*
X01398779Y00753116D01*
Y00755656D01*
X01400049Y00756925D01*
X01405127D01*
X01406397Y00755656D01*
Y00753116D01*
X01405127Y00751847D01*
X01403858D01*
X01402588Y00753116D01*
Y00756925D01*
X01406397Y00764543D02*
X01405127Y00762004D01*
X01402588Y00759464D01*
X01400049D01*
X01398779Y00760734D01*
Y00763273D01*
X01400049Y00764543D01*
X01401318D01*
X01402588Y00763273D01*
Y00759464D01*
X01485008Y00442850D02*
Y00450468D01*
X01481199D01*
X01479929Y00449198D01*
Y00446659D01*
X01481199Y00445389D01*
X01485008D01*
X01482469D02*
X01479929Y00442850D01*
X01477390Y00444120D02*
X01476121Y00442850D01*
X01473581D01*
X01472312Y00444120D01*
Y00449198D01*
X01473581Y00450468D01*
X01476121D01*
X01477390Y00449198D01*
Y00447929D01*
X01476121Y00446659D01*
X01472312D01*
X01464694Y00450468D02*
X01469773D01*
Y00446659D01*
X01467233Y00447929D01*
X01465964D01*
X01464694Y00446659D01*
Y00444120D01*
X01465964Y00442850D01*
X01468503D01*
X01469773Y00444120D01*
X01452061Y00510295D02*
X01459679D01*
Y00514104D01*
X01458409Y00515373D01*
X01455870D01*
X01454600Y00514104D01*
Y00510295D01*
Y00512834D02*
X01452061Y00515373D01*
X01453331Y00517913D02*
X01452061Y00519182D01*
Y00521721D01*
X01453331Y00522991D01*
X01458409D01*
X01459679Y00521721D01*
Y00519182D01*
X01458409Y00517913D01*
X01457139D01*
X01455870Y00519182D01*
Y00522991D01*
X01452061Y00529339D02*
X01459679D01*
X01455870Y00525530D01*
Y00530608D01*
X01440577Y00512929D02*
X01448195D01*
Y00516738D01*
X01446925Y00518007D01*
X01444386D01*
X01443117Y00516738D01*
Y00512929D01*
Y00515468D02*
X01440577Y00518007D01*
X01441847Y00520546D02*
X01440577Y00521816D01*
Y00524355D01*
X01441847Y00525625D01*
X01446925D01*
X01448195Y00524355D01*
Y00521816D01*
X01446925Y00520546D01*
X01445656D01*
X01444386Y00521816D01*
Y00525625D01*
X01440577Y00528164D02*
Y00530703D01*
Y00529434D01*
X01448195D01*
X01446925Y00528164D01*
X01440577Y00744045D02*
X01448195D01*
Y00747854D01*
X01446925Y00749124D01*
X01444386D01*
X01443117Y00747854D01*
Y00744045D01*
Y00746585D02*
X01440577Y00749124D01*
X01441847Y00751663D02*
X01440577Y00752933D01*
Y00755472D01*
X01441847Y00756741D01*
X01446925D01*
X01448195Y00755472D01*
Y00752933D01*
X01446925Y00751663D01*
X01445656D01*
X01444386Y00752933D01*
Y00756741D01*
X01440577Y00764359D02*
Y00759281D01*
X01445656Y00764359D01*
X01446925D01*
X01448195Y00763089D01*
Y00760550D01*
X01446925Y00759281D01*
X01429033Y00511540D02*
X01436650D01*
Y00515349D01*
X01435381Y00516618D01*
X01432842D01*
X01431572Y00515349D01*
Y00511540D01*
Y00514079D02*
X01429033Y00516618D01*
X01430302Y00519157D02*
X01429033Y00520427D01*
Y00522966D01*
X01430302Y00524236D01*
X01435381D01*
X01436650Y00522966D01*
Y00520427D01*
X01435381Y00519157D01*
X01434111D01*
X01432842Y00520427D01*
Y00524236D01*
X01435381Y00526775D02*
X01436650Y00528045D01*
Y00530584D01*
X01435381Y00531853D01*
X01430302D01*
X01429033Y00530584D01*
Y00528045D01*
X01430302Y00526775D01*
X01435381D01*
X01465967Y00744375D02*
X01473584D01*
Y00748184D01*
X01472315Y00749454D01*
X01469776D01*
X01468506Y00748184D01*
Y00744375D01*
Y00746914D02*
X01465967Y00749454D01*
X01472315Y00751993D02*
X01473584Y00753262D01*
Y00755802D01*
X01472315Y00757071D01*
X01471045D01*
X01469776Y00755802D01*
X01468506Y00757071D01*
X01467236D01*
X01465967Y00755802D01*
Y00753262D01*
X01467236Y00751993D01*
X01468506D01*
X01469776Y00753262D01*
X01471045Y00751993D01*
X01472315D01*
X01469776Y00753262D02*
Y00755802D01*
X01472315Y00759610D02*
X01473584Y00760880D01*
Y00763419D01*
X01472315Y00764689D01*
X01471045D01*
X01469776Y00763419D01*
X01468506Y00764689D01*
X01467236D01*
X01465967Y00763419D01*
Y00760880D01*
X01467236Y00759610D01*
X01468506D01*
X01469776Y00760880D01*
X01471045Y00759610D01*
X01472315D01*
X01469776Y00760880D02*
Y00763419D01*
X01508173Y00744045D02*
X01515790D01*
Y00747854D01*
X01514521Y00749124D01*
X01511982D01*
X01510712Y00747854D01*
Y00744045D01*
Y00746585D02*
X01508173Y00749124D01*
X01514521Y00751663D02*
X01515790Y00752933D01*
Y00755472D01*
X01514521Y00756741D01*
X01513251D01*
X01511982Y00755472D01*
X01510712Y00756741D01*
X01509442D01*
X01508173Y00755472D01*
Y00752933D01*
X01509442Y00751663D01*
X01510712D01*
X01511982Y00752933D01*
X01513251Y00751663D01*
X01514521D01*
X01511982Y00752933D02*
Y00755472D01*
X01515790Y00764359D02*
Y00759281D01*
X01511982D01*
X01513251Y00761820D01*
Y00763089D01*
X01511982Y00764359D01*
X01509442D01*
X01508173Y00763089D01*
Y00760550D01*
X01509442Y00759281D01*
X01417554Y00511540D02*
X01425171D01*
Y00515349D01*
X01423902Y00516618D01*
X01421362D01*
X01420093Y00515349D01*
Y00511540D01*
Y00514079D02*
X01417554Y00516618D01*
X01423902Y00519157D02*
X01425171Y00520427D01*
Y00522966D01*
X01423902Y00524236D01*
X01422632D01*
X01421362Y00522966D01*
X01420093Y00524236D01*
X01418823D01*
X01417554Y00522966D01*
Y00520427D01*
X01418823Y00519157D01*
X01420093D01*
X01421362Y00520427D01*
X01422632Y00519157D01*
X01423902D01*
X01421362Y00520427D02*
Y00522966D01*
X01417554Y00530584D02*
X01425171D01*
X01421362Y00526775D01*
Y00531853D01*
X01487391Y00511659D02*
X01495009D01*
Y00515468D01*
X01493739Y00516738D01*
X01491200D01*
X01489930Y00515468D01*
Y00511659D01*
Y00514198D02*
X01487391Y00516738D01*
X01493739Y00519277D02*
X01495009Y00520546D01*
Y00523086D01*
X01493739Y00524355D01*
X01492470D01*
X01491200Y00523086D01*
X01489930Y00524355D01*
X01488661D01*
X01487391Y00523086D01*
Y00520546D01*
X01488661Y00519277D01*
X01489930D01*
X01491200Y00520546D01*
X01492470Y00519277D01*
X01493739D01*
X01491200Y00520546D02*
Y00523086D01*
X01493739Y00526894D02*
X01495009Y00528164D01*
Y00530703D01*
X01493739Y00531973D01*
X01492470D01*
X01491200Y00530703D01*
Y00529434D01*
Y00530703D01*
X01489930Y00531973D01*
X01488661D01*
X01487391Y00530703D01*
Y00528164D01*
X01488661Y00526894D01*
X01499109Y00511565D02*
X01506727D01*
Y00515373D01*
X01505457Y00516643D01*
X01502918D01*
X01501648Y00515373D01*
Y00511565D01*
Y00514104D02*
X01499109Y00516643D01*
X01505457Y00519182D02*
X01506727Y00520452D01*
Y00522991D01*
X01505457Y00524260D01*
X01504188D01*
X01502918Y00522991D01*
X01501648Y00524260D01*
X01500379D01*
X01499109Y00522991D01*
Y00520452D01*
X01500379Y00519182D01*
X01501648D01*
X01502918Y00520452D01*
X01504188Y00519182D01*
X01505457D01*
X01502918Y00520452D02*
Y00522991D01*
X01499109Y00526800D02*
Y00529339D01*
Y00528069D01*
X01506727D01*
X01505457Y00526800D01*
X01406819Y00511540D02*
X01414437D01*
Y00515349D01*
X01413167Y00516618D01*
X01410628D01*
X01409358Y00515349D01*
Y00511540D01*
Y00514079D02*
X01406819Y00516618D01*
X01414437Y00519157D02*
Y00524236D01*
X01413167D01*
X01408089Y00519157D01*
X01406819D01*
X01413167Y00526775D02*
X01414437Y00528045D01*
Y00530584D01*
X01413167Y00531853D01*
X01411898D01*
X01410628Y00530584D01*
X01409358Y00531853D01*
X01408089D01*
X01406819Y00530584D01*
Y00528045D01*
X01408089Y00526775D01*
X01409358D01*
X01410628Y00528045D01*
X01411898Y00526775D01*
X01413167D01*
X01410628Y00528045D02*
Y00530584D01*
X00945389Y00496319D02*
X00953007D01*
Y00500128D01*
X00951737Y00501398D01*
X00949198D01*
X00947928Y00500128D01*
Y00496319D01*
Y00498858D02*
X00945389Y00501398D01*
X00953007Y00503937D02*
Y00509015D01*
X00951737D01*
X00946659Y00503937D01*
X00945389D01*
X00951737Y00511554D02*
X00953007Y00512824D01*
Y00515363D01*
X00951737Y00516633D01*
X00950468D01*
X00949198Y00515363D01*
Y00514094D01*
Y00515363D01*
X00947928Y00516633D01*
X00946659D01*
X00945389Y00515363D01*
Y00512824D01*
X00946659Y00511554D01*
X00969519Y00496319D02*
X00977137D01*
Y00500128D01*
X00975867Y00501398D01*
X00973328D01*
X00972058Y00500128D01*
Y00496319D01*
Y00498858D02*
X00969519Y00501398D01*
X00977137Y00503937D02*
Y00509015D01*
X00975867D01*
X00970789Y00503937D01*
X00969519D01*
Y00516633D02*
Y00511554D01*
X00974598Y00516633D01*
X00975867D01*
X00977137Y00515363D01*
Y00512824D01*
X00975867Y00511554D01*
X00956819Y00496319D02*
X00964437D01*
Y00500128D01*
X00963167Y00501398D01*
X00960628D01*
X00959358Y00500128D01*
Y00496319D01*
Y00498858D02*
X00956819Y00501398D01*
X00964437Y00509015D02*
X00963167Y00506476D01*
X00960628Y00503937D01*
X00958089D01*
X00956819Y00505206D01*
Y00507746D01*
X00958089Y00509015D01*
X00959358D01*
X00960628Y00507746D01*
Y00503937D01*
X00958089Y00511554D02*
X00956819Y00512824D01*
Y00515363D01*
X00958089Y00516633D01*
X00963167D01*
X00964437Y00515363D01*
Y00512824D01*
X00963167Y00511554D01*
X00961898D01*
X00960628Y00512824D01*
Y00516633D01*
X00921255Y00439167D02*
Y00446785D01*
X00917446D01*
X00916176Y00445515D01*
Y00442976D01*
X00917446Y00441706D01*
X00921255D01*
X00918716D02*
X00916176Y00439167D01*
X00908559Y00446785D02*
X00911098Y00445515D01*
X00913637Y00442976D01*
Y00440437D01*
X00912368Y00439167D01*
X00909828D01*
X00908559Y00440437D01*
Y00441706D01*
X00909828Y00442976D01*
X00913637D01*
X00906020Y00445515D02*
X00904750Y00446785D01*
X00902211D01*
X00900941Y00445515D01*
Y00444246D01*
X00902211Y00442976D01*
X00900941Y00441706D01*
Y00440437D01*
X00902211Y00439167D01*
X00904750D01*
X00906020Y00440437D01*
Y00441706D01*
X00904750Y00442976D01*
X00906020Y00444246D01*
Y00445515D01*
X00904750Y00442976D02*
X00902211D01*
X00932958Y00496135D02*
X00940576D01*
Y00499943D01*
X00939306Y00501213D01*
X00936767D01*
X00935498Y00499943D01*
Y00496135D01*
Y00498674D02*
X00932958Y00501213D01*
X00940576Y00508830D02*
X00939306Y00506291D01*
X00936767Y00503752D01*
X00934228D01*
X00932958Y00505022D01*
Y00507561D01*
X00934228Y00508830D01*
X00935498D01*
X00936767Y00507561D01*
Y00503752D01*
X00940576Y00516448D02*
X00939306Y00513909D01*
X00936767Y00511370D01*
X00934228D01*
X00932958Y00512639D01*
Y00515178D01*
X00934228Y00516448D01*
X00935498D01*
X00936767Y00515178D01*
Y00511370D01*
X00886066Y00496135D02*
X00893683D01*
Y00499943D01*
X00892414Y00501213D01*
X00889875D01*
X00888605Y00499943D01*
Y00496135D01*
Y00498674D02*
X00886066Y00501213D01*
X00893683Y00508830D02*
X00892414Y00506291D01*
X00889875Y00503752D01*
X00887336D01*
X00886066Y00505022D01*
Y00507561D01*
X00887336Y00508830D01*
X00888605D01*
X00889875Y00507561D01*
Y00503752D01*
X00886066Y00515178D02*
X00893683D01*
X00889875Y00511370D01*
Y00516448D01*
X00873727Y00496135D02*
X00881344D01*
Y00499943D01*
X00880075Y00501213D01*
X00877535D01*
X00876266Y00499943D01*
Y00496135D01*
Y00498674D02*
X00873727Y00501213D01*
X00881344Y00508830D02*
X00880075Y00506291D01*
X00877535Y00503752D01*
X00874996D01*
X00873727Y00505022D01*
Y00507561D01*
X00874996Y00508830D01*
X00876266D01*
X00877535Y00507561D01*
Y00503752D01*
X00880075Y00511370D02*
X00881344Y00512639D01*
Y00515178D01*
X00880075Y00516448D01*
X00874996D01*
X00873727Y00515178D01*
Y00512639D01*
X00874996Y00511370D01*
X00880075D01*
X00870704Y00746720D02*
X00878322D01*
Y00750528D01*
X00877052Y00751798D01*
X00874513D01*
X00873244Y00750528D01*
Y00746720D01*
Y00749259D02*
X00870704Y00751798D01*
X00878322Y00759416D02*
Y00754337D01*
X00874513D01*
X00875783Y00756876D01*
Y00758146D01*
X00874513Y00759416D01*
X00871974D01*
X00870704Y00758146D01*
Y00755607D01*
X00871974Y00754337D01*
X00877052Y00761955D02*
X00878322Y00763224D01*
Y00765763D01*
X00877052Y00767033D01*
X00875783D01*
X00874513Y00765763D01*
X00873244Y00767033D01*
X00871974D01*
X00870704Y00765763D01*
Y00763224D01*
X00871974Y00761955D01*
X00873244D01*
X00874513Y00763224D01*
X00875783Y00761955D01*
X00877052D01*
X00874513Y00763224D02*
Y00765763D01*
X00894217Y00424757D02*
Y00432375D01*
X00890408D01*
X00889139Y00431105D01*
Y00428566D01*
X00890408Y00427296D01*
X00894217D01*
X00891678D02*
X00889139Y00424757D01*
X00881521Y00432375D02*
X00886599D01*
Y00428566D01*
X00884060Y00429836D01*
X00882791D01*
X00881521Y00428566D01*
Y00426027D01*
X00882791Y00424757D01*
X00885330D01*
X00886599Y00426027D01*
X00878982Y00432375D02*
X00873904D01*
Y00431105D01*
X00878982Y00426027D01*
Y00424757D01*
X00861596Y00496135D02*
X00869213D01*
Y00499943D01*
X00867944Y00501213D01*
X00865405D01*
X00864135Y00499943D01*
Y00496135D01*
Y00498674D02*
X00861596Y00501213D01*
X00869213Y00508830D02*
Y00503752D01*
X00865405D01*
X00866674Y00506291D01*
Y00507561D01*
X00865405Y00508830D01*
X00862865D01*
X00861596Y00507561D01*
Y00505022D01*
X00862865Y00503752D01*
X00869213Y00516448D02*
X00867944Y00513909D01*
X00865405Y00511370D01*
X00862865D01*
X00861596Y00512639D01*
Y00515178D01*
X00862865Y00516448D01*
X00864135D01*
X00865405Y00515178D01*
Y00511370D01*
X00849869Y00496135D02*
X00857487D01*
Y00499943D01*
X00856217Y00501213D01*
X00853678D01*
X00852409Y00499943D01*
Y00496135D01*
Y00498674D02*
X00849869Y00501213D01*
X00857487Y00508830D02*
Y00503752D01*
X00853678D01*
X00854948Y00506291D01*
Y00507561D01*
X00853678Y00508830D01*
X00851139D01*
X00849869Y00507561D01*
Y00505022D01*
X00851139Y00503752D01*
X00856217Y00511370D02*
X00857487Y00512639D01*
Y00515178D01*
X00856217Y00516448D01*
X00854948D01*
X00853678Y00515178D01*
Y00513909D01*
Y00515178D01*
X00852409Y00516448D01*
X00851139D01*
X00849869Y00515178D01*
Y00512639D01*
X00851139Y00511370D01*
X00911099Y00746720D02*
X00918717D01*
Y00750528D01*
X00917447Y00751798D01*
X00914908D01*
X00913638Y00750528D01*
Y00746720D01*
Y00749259D02*
X00911099Y00751798D01*
X00918717Y00759416D02*
Y00754337D01*
X00914908D01*
X00916178Y00756876D01*
Y00758146D01*
X00914908Y00759416D01*
X00912369D01*
X00911099Y00758146D01*
Y00755607D01*
X00912369Y00754337D01*
X00911099Y00765763D02*
X00918717D01*
X00914908Y00761955D01*
Y00767033D01*
X00837122Y00496135D02*
X00844739D01*
Y00499943D01*
X00843470Y00501213D01*
X00840930D01*
X00839661Y00499943D01*
Y00496135D01*
Y00498674D02*
X00837122Y00501213D01*
X00844739Y00508830D02*
Y00503752D01*
X00840930D01*
X00842200Y00506291D01*
Y00507561D01*
X00840930Y00508830D01*
X00838391D01*
X00837122Y00507561D01*
Y00505022D01*
X00838391Y00503752D01*
X00837122Y00516448D02*
Y00511370D01*
X00842200Y00516448D01*
X00843470D01*
X00844739Y00515178D01*
Y00512639D01*
X00843470Y00511370D01*
X00956819Y00746720D02*
X00964437D01*
Y00750528D01*
X00963167Y00751798D01*
X00960628D01*
X00959358Y00750528D01*
Y00746720D01*
Y00749259D02*
X00956819Y00751798D01*
X00964437Y00759416D02*
Y00754337D01*
X00960628D01*
X00961898Y00756876D01*
Y00758146D01*
X00960628Y00759416D01*
X00958089D01*
X00956819Y00758146D01*
Y00755607D01*
X00958089Y00754337D01*
X00963167Y00761955D02*
X00964437Y00763224D01*
Y00765763D01*
X00963167Y00767033D01*
X00958089D01*
X00956819Y00765763D01*
Y00763224D01*
X00958089Y00761955D01*
X00963167D01*
X00997459Y00746720D02*
X01005077D01*
Y00750528D01*
X01003807Y00751798D01*
X01001268D01*
X00999998Y00750528D01*
Y00746720D01*
Y00749259D02*
X00997459Y00751798D01*
Y00758146D02*
X01005077D01*
X01001268Y00754337D01*
Y00759416D01*
X01005077Y00761955D02*
Y00767033D01*
X01003807D01*
X00998729Y00761955D01*
X00997459D01*
X00898512Y00496135D02*
X00906129D01*
Y00499943D01*
X00904859Y00501213D01*
X00902320D01*
X00901051Y00499943D01*
Y00496135D01*
Y00498674D02*
X00898512Y00501213D01*
Y00507561D02*
X00906129D01*
X00902320Y00503752D01*
Y00508830D01*
X00906129Y00516448D02*
Y00511370D01*
X00902320D01*
X00903590Y00513909D01*
Y00515178D01*
X00902320Y00516448D01*
X00899781D01*
X00898512Y00515178D01*
Y00512639D01*
X00899781Y00511370D01*
X00501341Y00502083D02*
X00508959D01*
Y00505891D01*
X00507689Y00507161D01*
X00505150D01*
X00503880Y00505891D01*
Y00502083D01*
Y00504622D02*
X00501341Y00507161D01*
X00507689Y00509700D02*
X00508959Y00510970D01*
Y00513509D01*
X00507689Y00514779D01*
X00506419D01*
X00505150Y00513509D01*
Y00512239D01*
Y00513509D01*
X00503880Y00514779D01*
X00502611D01*
X00501341Y00513509D01*
Y00510970D01*
X00502611Y00509700D01*
X00508959Y00522396D02*
Y00517318D01*
X00505150D01*
X00506419Y00519857D01*
Y00521126D01*
X00505150Y00522396D01*
X00502611D01*
X00501341Y00521126D01*
Y00518587D01*
X00502611Y00517318D01*
X00524123Y00502083D02*
X00531740D01*
Y00505891D01*
X00530471Y00507161D01*
X00527931D01*
X00526662Y00505891D01*
Y00502083D01*
Y00504622D02*
X00524123Y00507161D01*
X00530471Y00509700D02*
X00531740Y00510970D01*
Y00513509D01*
X00530471Y00514779D01*
X00529201D01*
X00527931Y00513509D01*
Y00512239D01*
Y00513509D01*
X00526662Y00514779D01*
X00525392D01*
X00524123Y00513509D01*
Y00510970D01*
X00525392Y00509700D01*
X00524123Y00521126D02*
X00531740D01*
X00527931Y00517318D01*
Y00522396D01*
X00512319Y00503352D02*
X00519937D01*
Y00507161D01*
X00518667Y00508430D01*
X00516128D01*
X00514858Y00507161D01*
Y00503352D01*
Y00505891D02*
X00512319Y00508430D01*
X00518667Y00510970D02*
X00519937Y00512239D01*
Y00514779D01*
X00518667Y00516048D01*
X00517398D01*
X00516128Y00514779D01*
Y00513509D01*
Y00514779D01*
X00514858Y00516048D01*
X00513589D01*
X00512319Y00514779D01*
Y00512239D01*
X00513589Y00510970D01*
X00512319Y00518587D02*
Y00521126D01*
Y00519857D01*
X00519937D01*
X00518667Y00518587D01*
X00491299Y00448671D02*
Y00456289D01*
X00487490D01*
X00486221Y00455019D01*
Y00452480D01*
X00487490Y00451211D01*
X00491299D01*
X00488760D02*
X00486221Y00448671D01*
X00483682Y00455019D02*
X00482412Y00456289D01*
X00479873D01*
X00478603Y00455019D01*
Y00453750D01*
X00479873Y00452480D01*
X00481142D01*
X00479873D01*
X00478603Y00451211D01*
Y00449941D01*
X00479873Y00448671D01*
X00482412D01*
X00483682Y00449941D01*
X00476064Y00455019D02*
X00474795Y00456289D01*
X00472255D01*
X00470986Y00455019D01*
Y00449941D01*
X00472255Y00448671D01*
X00474795D01*
X00476064Y00449941D01*
Y00455019D01*
X00490026Y00502132D02*
X00497643D01*
Y00505941D01*
X00496374Y00507210D01*
X00493834D01*
X00492565Y00505941D01*
Y00502132D01*
Y00504671D02*
X00490026Y00507210D01*
Y00514828D02*
Y00509749D01*
X00495104Y00514828D01*
X00496374D01*
X00497643Y00513558D01*
Y00511019D01*
X00496374Y00509749D01*
Y00517367D02*
X00497643Y00518636D01*
Y00521176D01*
X00496374Y00522445D01*
X00495104D01*
X00493834Y00521176D01*
X00492565Y00522445D01*
X00491295D01*
X00490026Y00521176D01*
Y00518636D01*
X00491295Y00517367D01*
X00492565D01*
X00493834Y00518636D01*
X00495104Y00517367D01*
X00496374D01*
X00493834Y00518636D02*
Y00521176D01*
X00455169Y00502083D02*
X00462787D01*
Y00505891D01*
X00461517Y00507161D01*
X00458978D01*
X00457708Y00505891D01*
Y00502083D01*
Y00504622D02*
X00455169Y00507161D01*
Y00514779D02*
Y00509700D01*
X00460248Y00514779D01*
X00461517D01*
X00462787Y00513509D01*
Y00510970D01*
X00461517Y00509700D01*
X00462787Y00522396D02*
X00461517Y00519857D01*
X00458978Y00517318D01*
X00456439D01*
X00455169Y00518587D01*
Y00521126D01*
X00456439Y00522396D01*
X00457708D01*
X00458978Y00521126D01*
Y00517318D01*
X00443242Y00501154D02*
X00450859D01*
Y00504963D01*
X00449590Y00506232D01*
X00447051D01*
X00445781Y00504963D01*
Y00501154D01*
Y00503693D02*
X00443242Y00506232D01*
Y00513850D02*
Y00508772D01*
X00448320Y00513850D01*
X00449590D01*
X00450859Y00512580D01*
Y00510041D01*
X00449590Y00508772D01*
X00443242Y00521468D02*
Y00516389D01*
X00448320Y00521468D01*
X00449590D01*
X00450859Y00520198D01*
Y00517659D01*
X00449590Y00516389D01*
X00399487Y00751845D02*
X00407105D01*
Y00755654D01*
X00405835Y00756923D01*
X00403296D01*
X00402026Y00755654D01*
Y00751845D01*
Y00754384D02*
X00399487Y00756923D01*
Y00764541D02*
Y00759462D01*
X00404565Y00764541D01*
X00405835D01*
X00407105Y00763271D01*
Y00760732D01*
X00405835Y00759462D01*
Y00767080D02*
X00407105Y00768349D01*
Y00770889D01*
X00405835Y00772158D01*
X00400757D01*
X00399487Y00770889D01*
Y00768349D01*
X00400757Y00767080D01*
X00405835D01*
X00462658Y00433881D02*
Y00441499D01*
X00458849D01*
X00457580Y00440229D01*
Y00437690D01*
X00458849Y00436420D01*
X00462658D01*
X00460119D02*
X00457580Y00433881D01*
X00455040D02*
X00452501D01*
X00453771D01*
Y00441499D01*
X00455040Y00440229D01*
X00448692Y00435151D02*
X00447423Y00433881D01*
X00444884D01*
X00443614Y00435151D01*
Y00440229D01*
X00444884Y00441499D01*
X00447423D01*
X00448692Y00440229D01*
Y00438960D01*
X00447423Y00437690D01*
X00443614D01*
X00431758Y00501351D02*
X00439375D01*
Y00505160D01*
X00438106Y00506430D01*
X00435567D01*
X00434297Y00505160D01*
Y00501351D01*
Y00503891D02*
X00431758Y00506430D01*
Y00508969D02*
Y00511508D01*
Y00510239D01*
X00439375D01*
X00438106Y00508969D01*
Y00515317D02*
X00439375Y00516586D01*
Y00519126D01*
X00438106Y00520395D01*
X00436836D01*
X00435567Y00519126D01*
X00434297Y00520395D01*
X00433027D01*
X00431758Y00519126D01*
Y00516586D01*
X00433027Y00515317D01*
X00434297D01*
X00435567Y00516586D01*
X00436836Y00515317D01*
X00438106D01*
X00435567Y00516586D02*
Y00519126D01*
X00420081Y00501461D02*
X00427698D01*
Y00505270D01*
X00426429Y00506539D01*
X00423890D01*
X00422620Y00505270D01*
Y00501461D01*
Y00504000D02*
X00420081Y00506539D01*
Y00509079D02*
Y00511618D01*
Y00510348D01*
X00427698D01*
X00426429Y00509079D01*
X00427698Y00520505D02*
Y00515427D01*
X00423890D01*
X00425159Y00517966D01*
Y00519235D01*
X00423890Y00520505D01*
X00421350D01*
X00420081Y00519235D01*
Y00516696D01*
X00421350Y00515427D01*
X00441575Y00752380D02*
X00449193D01*
Y00756189D01*
X00447923Y00757459D01*
X00445384D01*
X00444114Y00756189D01*
Y00752380D01*
Y00754919D02*
X00441575Y00757459D01*
Y00759998D02*
Y00762537D01*
Y00761267D01*
X00449193D01*
X00447923Y00759998D01*
X00449193Y00771424D02*
X00447923Y00768885D01*
X00445384Y00766346D01*
X00442845D01*
X00441575Y00767615D01*
Y00770154D01*
X00442845Y00771424D01*
X00444114D01*
X00445384Y00770154D01*
Y00766346D01*
X00408306Y00501461D02*
X00415923D01*
Y00505270D01*
X00414654Y00506539D01*
X00412114D01*
X00410845Y00505270D01*
Y00501461D01*
Y00504000D02*
X00408306Y00506539D01*
Y00509079D02*
Y00511618D01*
Y00510348D01*
X00415923D01*
X00414654Y00509079D01*
X00408306Y00519235D02*
X00415923D01*
X00412114Y00515427D01*
Y00520505D01*
X00480932Y00752016D02*
X00488550D01*
Y00755825D01*
X00487280Y00757094D01*
X00484741D01*
X00483471Y00755825D01*
Y00752016D01*
Y00754555D02*
X00480932Y00757094D01*
Y00759634D02*
Y00762173D01*
Y00760903D01*
X00488550D01*
X00487280Y00759634D01*
X00480932Y00771060D02*
Y00765982D01*
X00486011Y00771060D01*
X00487280D01*
X00488550Y00769790D01*
Y00767251D01*
X00487280Y00765982D01*
X00523270Y00753569D02*
X00530888D01*
Y00757378D01*
X00529618Y00758647D01*
X00527079D01*
X00525810Y00757378D01*
Y00753569D01*
Y00756108D02*
X00523270Y00758647D01*
X00524540Y00761186D02*
X00523270Y00762456D01*
Y00764995D01*
X00524540Y00766265D01*
X00529618D01*
X00530888Y00764995D01*
Y00762456D01*
X00529618Y00761186D01*
X00528349D01*
X00527079Y00762456D01*
Y00766265D01*
X00467299Y00502607D02*
X00474916D01*
Y00506415D01*
X00473647Y00507685D01*
X00471108D01*
X00469838Y00506415D01*
Y00502607D01*
Y00505146D02*
X00467299Y00507685D01*
X00474916Y00510224D02*
Y00515302D01*
X00473647D01*
X00468568Y00510224D01*
X00467299D01*
X00478785Y00502181D02*
X00486402D01*
Y00505990D01*
X00485133Y00507259D01*
X00482594D01*
X00481324Y00505990D01*
Y00502181D01*
Y00504720D02*
X00478785Y00507259D01*
X00486402Y00514877D02*
Y00509799D01*
X00482594D01*
X00483863Y00512338D01*
Y00513607D01*
X00482594Y00514877D01*
X00480055D01*
X00478785Y00513607D01*
Y00511068D01*
X00480055Y00509799D01*
X01585412Y01498625D02*
X01586682Y01499895D01*
X01589221D01*
X01590490Y01498625D01*
Y01493547D01*
X01589221Y01492277D01*
X01586682D01*
X01585412Y01493547D01*
X01582873Y01492277D02*
X01580334D01*
X01581603D01*
Y01499895D01*
X01582873Y01498625D01*
X01571446Y01499895D02*
X01576525D01*
Y01496086D01*
X01573986Y01497355D01*
X01572716D01*
X01571446Y01496086D01*
Y01493547D01*
X01572716Y01492277D01*
X01575255D01*
X01576525Y01493547D01*
X01568907Y01498625D02*
X01567638Y01499895D01*
X01565098D01*
X01563829Y01498625D01*
Y01497355D01*
X01565098Y01496086D01*
X01566368D01*
X01565098D01*
X01563829Y01494816D01*
Y01493547D01*
X01565098Y01492277D01*
X01567638D01*
X01568907Y01493547D01*
X00947236Y01502161D02*
X00948506Y01503431D01*
X00951045D01*
X00952315Y01502161D01*
Y01497083D01*
X00951045Y01495813D01*
X00948506D01*
X00947236Y01497083D01*
X00944697Y01495813D02*
X00942158D01*
X00943428D01*
Y01503431D01*
X00944697Y01502161D01*
X00933271Y01495813D02*
X00938349D01*
X00933271Y01500892D01*
Y01502161D01*
X00934540Y01503431D01*
X00937080D01*
X00938349Y01502161D01*
X00930732D02*
X00929462Y01503431D01*
X00926923D01*
X00925653Y01502161D01*
Y01500892D01*
X00926923Y01499622D01*
X00928193D01*
X00926923D01*
X00925653Y01498353D01*
Y01497083D01*
X00926923Y01495813D01*
X00929462D01*
X00930732Y01497083D01*
X00443735Y01191705D02*
X00445004Y01190435D01*
Y01187896D01*
X00443735Y01186626D01*
X00438656D01*
X00437387Y01187896D01*
Y01190435D01*
X00438656Y01191705D01*
Y01194244D02*
X00437387Y01195513D01*
Y01198053D01*
X00438656Y01199322D01*
X00443735D01*
X00445004Y01198053D01*
Y01195513D01*
X00443735Y01194244D01*
X00442465D01*
X00441196Y01195513D01*
Y01199322D01*
X00443735Y01201861D02*
X00445004Y01203131D01*
Y01205670D01*
X00443735Y01206940D01*
X00442465D01*
X00441196Y01205670D01*
Y01204401D01*
Y01205670D01*
X00439926Y01206940D01*
X00438656D01*
X00437387Y01205670D01*
Y01203131D01*
X00438656Y01201861D01*
X01496062Y00656588D02*
X01497331Y00657858D01*
X01499870D01*
X01501140Y00656588D01*
Y00651510D01*
X01499870Y00650240D01*
X01497331D01*
X01496062Y00651510D01*
X01488444Y00657858D02*
X01490983Y00656588D01*
X01493522Y00654049D01*
Y00651510D01*
X01492253Y00650240D01*
X01489714D01*
X01488444Y00651510D01*
Y00652779D01*
X01489714Y00654049D01*
X01493522D01*
X01485905Y00656588D02*
X01484635Y00657858D01*
X01482096D01*
X01480827Y00656588D01*
Y00655318D01*
X01482096Y00654049D01*
X01483366D01*
X01482096D01*
X01480827Y00652779D01*
Y00651510D01*
X01482096Y00650240D01*
X01484635D01*
X01485905Y00651510D01*
X00871436Y00634822D02*
X00870167Y00633552D01*
X00867627D01*
X00866358Y00634822D01*
Y00639900D01*
X00867627Y00641170D01*
X00870167D01*
X00871436Y00639900D01*
X00873975Y00634822D02*
X00875245Y00633552D01*
X00877784D01*
X00879054Y00634822D01*
Y00636091D01*
X00877784Y00637361D01*
X00876515D01*
X00877784D01*
X00879054Y00638631D01*
Y00639900D01*
X00877784Y00641170D01*
X00875245D01*
X00873975Y00639900D01*
X00881593Y00634822D02*
X00882862Y00633552D01*
X00885402D01*
X00886671Y00634822D01*
Y00636091D01*
X00885402Y00637361D01*
X00884132D01*
X00885402D01*
X00886671Y00638631D01*
Y00639900D01*
X00885402Y00641170D01*
X00882862D01*
X00881593Y00639900D01*
X00449290Y00661874D02*
X00450560Y00663144D01*
X00453099D01*
X00454368Y00661874D01*
Y00656796D01*
X00453099Y00655526D01*
X00450560D01*
X00449290Y00656796D01*
X00446751Y00661874D02*
X00445481Y00663144D01*
X00442942D01*
X00441672Y00661874D01*
Y00660604D01*
X00442942Y00659335D01*
X00444212D01*
X00442942D01*
X00441672Y00658065D01*
Y00656796D01*
X00442942Y00655526D01*
X00445481D01*
X00446751Y00656796D01*
X01420876Y00100076D02*
Y00151596D01*
X01118870Y00101727D02*
X01778508D01*
Y00256667D01*
X00727710Y00101727D02*
Y00256667D01*
X00101600Y00101727D02*
Y00256667D01*
X00101727Y00101727D02*
X00501904D01*
X00101727D02*
Y00256667D01*
Y00256667D02*
X01778508D01*
X00101600Y00101727D02*
X01118870D01*
X00101600Y00153374D02*
X01778000D01*
X00101600Y00205020D02*
X01778508D01*
X01049528D02*
Y00256667D01*
X01262888Y00205020D02*
Y00256667D01*
M02*
