G04*
G04 #@! TF.GenerationSoftware,Altium Limited,Altium Designer,23.6.0 (18)*
G04*
G04 Layer_Physical_Order=6*
G04 Layer_Color=16711680*
%FSAX44Y44*%
%MOMM*%
G71*
G04*
G04 #@! TF.SameCoordinates,B6B15AAD-09C2-4985-A1E0-6DBEE0027C76*
G04*
G04*
G04 #@! TF.FilePolarity,Positive*
G04*
G01*
G75*
%ADD15C,0.2032*%
%ADD16C,0.2540*%
%ADD31R,0.6000X0.8000*%
%ADD32R,0.8000X0.6000*%
%ADD43R,1.6002X1.2700*%
%ADD95C,2.5400*%
G04:AMPARAMS|DCode=96|XSize=1.66mm|YSize=1.66mm|CornerRadius=0.0498mm|HoleSize=0mm|Usage=FLASHONLY|Rotation=0.000|XOffset=0mm|YOffset=0mm|HoleType=Round|Shape=RoundedRectangle|*
%AMROUNDEDRECTD96*
21,1,1.6600,1.5604,0,0,0.0*
21,1,1.5604,1.6600,0,0,0.0*
1,1,0.0996,0.7802,-0.7802*
1,1,0.0996,-0.7802,-0.7802*
1,1,0.0996,-0.7802,0.7802*
1,1,0.0996,0.7802,0.7802*
%
%ADD96ROUNDEDRECTD96*%
%ADD97C,1.6600*%
%ADD98C,4.5000*%
%ADD99C,5.3000*%
%ADD100C,4.3000*%
%ADD101C,1.6000*%
%ADD104C,0.3048*%
%ADD112C,0.5080*%
%ADD114C,0.3810*%
%ADD117C,2.0320*%
%ADD118C,1.5500*%
%ADD119R,1.5500X1.5500*%
%ADD120C,0.4000*%
%ADD121C,0.6000*%
%ADD122C,0.5000*%
G36*
X01782277Y01128712D02*
X01666946Y01128711D01*
X01666946Y01128711D01*
X01666722Y01128701D01*
X01666282Y01128614D01*
X01665868Y01128442D01*
X01665495Y01128193D01*
X01665329Y01128042D01*
X01595910Y01058623D01*
X01538659D01*
X01527542Y01069806D01*
X01426264D01*
X01393403Y01102766D01*
Y01198900D01*
X01411114Y01216610D01*
X01702267D01*
X01702713Y01216654D01*
X01703537Y01216996D01*
X01704167Y01217626D01*
X01704509Y01218450D01*
X01704553Y01218896D01*
Y01228752D01*
X01704552Y01506147D01*
X01706929Y01506524D01*
X01710867Y01507804D01*
X01714557Y01509684D01*
X01717908Y01512118D01*
X01720836Y01515046D01*
X01723270Y01518397D01*
X01725150Y01522086D01*
X01726430Y01526025D01*
X01727078Y01530115D01*
Y01534257D01*
X01726430Y01538347D01*
X01725150Y01542286D01*
X01723270Y01545975D01*
X01720836Y01549326D01*
X01717908Y01552254D01*
X01714557Y01554688D01*
X01710867Y01556568D01*
X01706929Y01557848D01*
X01702839Y01558496D01*
X01698697D01*
X01694607Y01557848D01*
X01690668Y01556568D01*
X01686978Y01554688D01*
X01683628Y01552254D01*
X01680700Y01549326D01*
X01678266Y01545975D01*
X01676514Y01542538D01*
X01675191Y01542064D01*
X01635529Y01581726D01*
X01635529Y01581726D01*
X01635363Y01581877D01*
X01634991Y01582126D01*
X01634577Y01582298D01*
X01634137Y01582385D01*
X01633913Y01582396D01*
X01414529Y01582396D01*
X01404513Y01592185D01*
X01300517D01*
X01290728Y01582396D01*
X01162217D01*
X01152354Y01592185D01*
X01050386D01*
X01040597Y01582396D01*
X00770087Y01582396D01*
X00770087Y01582396D01*
X00769863Y01582385D01*
X00769423Y01582298D01*
X00769009Y01582126D01*
X00768636Y01581877D01*
X00768470Y01581726D01*
X00742631Y01555887D01*
X00740278Y01554688D01*
X00736928Y01552254D01*
X00734000Y01549326D01*
X00731566Y01545975D01*
X00730367Y01543623D01*
X00721190Y01534446D01*
X00708804Y01522060D01*
X00511149Y01522059D01*
X00510057Y01522489D01*
X00509650Y01522990D01*
X00510332Y01525088D01*
X00511078Y01529801D01*
Y01534572D01*
X00510332Y01539284D01*
X00508857Y01543821D01*
X00506691Y01548072D01*
X00503887Y01551932D01*
X00500514Y01555305D01*
X00496654Y01558109D01*
X00492403Y01560275D01*
X00487866Y01561750D01*
X00483153Y01562496D01*
X00478383D01*
X00473670Y01561750D01*
X00469133Y01560275D01*
X00464882Y01558109D01*
X00461022Y01555305D01*
X00457649Y01551932D01*
X00454845Y01548072D01*
X00452679Y01543821D01*
X00451204Y01539284D01*
X00450458Y01534572D01*
Y01529801D01*
X00451204Y01525088D01*
X00452679Y01520551D01*
X00454845Y01516300D01*
X00457649Y01512440D01*
X00461022Y01509067D01*
X00464882Y01506263D01*
X00469133Y01504097D01*
X00473670Y01502622D01*
X00478383Y01501876D01*
X00483153D01*
X00487866Y01502622D01*
X00489500Y01503154D01*
X00489564Y01503049D01*
X00490019Y01501876D01*
X00489143Y01501000D01*
X00489143Y01501000D01*
Y01501000D01*
X00485373Y01497231D01*
X00485373Y01497231D01*
Y01497231D01*
X00483409Y01495266D01*
X00483409Y01495266D01*
X00483409Y01495266D01*
X00476443Y01488300D01*
X00476443Y01488300D01*
Y01488300D01*
X00472673Y01484531D01*
X00472673Y01484531D01*
X00472364Y01484221D01*
X00472364Y01484221D01*
X00468595Y01480452D01*
X00468595Y01480452D01*
Y01480452D01*
X00462513Y01474371D01*
X00462513Y01474371D01*
Y01474371D01*
X00461629Y01473486D01*
X00461629Y01473486D01*
Y01473486D01*
X00452718Y01464575D01*
X00452718Y01464575D01*
Y01464575D01*
X00390489Y01402346D01*
X00322674D01*
X00299814Y01379486D01*
X00299322D01*
Y01312995D01*
X00328045Y01284273D01*
X00352420Y01284215D01*
Y01270648D01*
Y01264666D01*
Y01246076D01*
X00352420Y01234341D01*
Y01222671D01*
Y01210650D01*
Y01198052D01*
Y01188285D01*
Y01176231D01*
Y01169126D01*
X00352420Y01159580D01*
X00352420Y01062196D01*
Y01057542D01*
Y01004430D01*
Y01002527D01*
X00352419Y00955998D01*
X00302333Y00905911D01*
Y00729321D01*
X00301125Y00728929D01*
X00300836Y00729326D01*
X00297908Y00732254D01*
X00294557Y00734688D01*
X00290868Y00736569D01*
X00286929Y00737848D01*
X00282839Y00738496D01*
X00278697D01*
X00274607Y00737848D01*
X00270668Y00736569D01*
X00266978Y00734688D01*
X00263628Y00732254D01*
X00260700Y00729326D01*
X00258266Y00725975D01*
X00256385Y00722286D01*
X00255106Y00718347D01*
X00254458Y00714257D01*
Y00710115D01*
X00255106Y00706025D01*
X00256385Y00702086D01*
X00258266Y00698397D01*
X00260700Y00695046D01*
X00263628Y00692118D01*
X00266978Y00689684D01*
X00270668Y00687804D01*
X00274607Y00686524D01*
X00278697Y00685876D01*
X00282839D01*
X00286929Y00686524D01*
X00290868Y00687804D01*
X00294557Y00689684D01*
X00297908Y00692118D01*
X00300836Y00695046D01*
X00301125Y00695443D01*
X00302333Y00695051D01*
Y00625945D01*
X00366454Y00561824D01*
X00532331D01*
X00532762Y00560554D01*
X00531050Y00557588D01*
X00530098Y00554035D01*
Y00550357D01*
X00531050Y00546804D01*
X00532889Y00543618D01*
X00535490Y00541017D01*
X00538676Y00539178D01*
X00542229Y00538226D01*
X00545907D01*
X00549460Y00539178D01*
X00552646Y00541017D01*
X00555247Y00543618D01*
X00557086Y00546804D01*
X00558038Y00550357D01*
Y00554035D01*
X00557086Y00557588D01*
X00555373Y00560554D01*
X00555805Y00561824D01*
X00568856D01*
X00575217Y00555463D01*
X00681090D01*
X00687750Y00561824D01*
X00828121D01*
X00837734Y00552211D01*
X00990581D01*
X00990748Y00550941D01*
X00989526Y00550613D01*
X00986340Y00548774D01*
X00983739Y00546173D01*
X00981900Y00542987D01*
X00980948Y00539434D01*
Y00535756D01*
X00981900Y00532203D01*
X00983739Y00529017D01*
X00986340Y00526416D01*
X00989526Y00524577D01*
X00993079Y00523625D01*
X00996757D01*
X01000310Y00524577D01*
X01003496Y00526416D01*
X01006097Y00529017D01*
X01007936Y00532203D01*
X01008888Y00535756D01*
Y00539434D01*
X01007936Y00542987D01*
X01006097Y00546173D01*
X01003496Y00548774D01*
X01000310Y00550613D01*
X00999088Y00550941D01*
X00999255Y00552211D01*
X01019488D01*
X01027172Y00544526D01*
X01129487D01*
X01137072Y00552211D01*
X01584031D01*
X01781103Y00749283D01*
X01782277Y00748797D01*
Y00593276D01*
X01598734Y00409733D01*
X00384752D01*
X00195865Y00598620D01*
Y01721368D01*
X00598624D01*
X00598791Y01720098D01*
X00597096Y01719644D01*
X00593910Y01717805D01*
X00591309Y01715204D01*
X00589470Y01712018D01*
X00588518Y01708465D01*
Y01704787D01*
X00589470Y01701234D01*
X00591309Y01698048D01*
X00593910Y01695447D01*
X00597096Y01693608D01*
X00600649Y01692656D01*
X00604327D01*
X00607880Y01693608D01*
X00611066Y01695447D01*
X00613667Y01698048D01*
X00615506Y01701234D01*
X00616458Y01704787D01*
Y01708465D01*
X00615506Y01712018D01*
X00613667Y01715204D01*
X00611066Y01717805D01*
X00607880Y01719644D01*
X00606185Y01720098D01*
X00606352Y01721368D01*
X00654504D01*
X00654671Y01720098D01*
X00652976Y01719644D01*
X00649790Y01717805D01*
X00647189Y01715204D01*
X00645350Y01712018D01*
X00644398Y01708465D01*
Y01704787D01*
X00645350Y01701234D01*
X00647189Y01698048D01*
X00649790Y01695447D01*
X00652976Y01693608D01*
X00656529Y01692656D01*
X00660207D01*
X00663760Y01693608D01*
X00666946Y01695447D01*
X00669547Y01698048D01*
X00671386Y01701234D01*
X00672338Y01704787D01*
Y01708465D01*
X00671386Y01712018D01*
X00669547Y01715204D01*
X00666946Y01717805D01*
X00663760Y01719644D01*
X00662065Y01720098D01*
X00662232Y01721368D01*
X01782277D01*
Y01128712D01*
D02*
G37*
G36*
X01567688Y01480586D02*
Y01479212D01*
X01567547Y01479130D01*
X01566346Y01478809D01*
X01566117Y01478695D01*
X01565865Y01478645D01*
X01565443Y01478363D01*
X01564987Y01478138D01*
X01564818Y01477946D01*
X01564605Y01477803D01*
X01554102Y01467300D01*
X01553671Y01466655D01*
X01553371Y01466780D01*
X01551060D01*
X01549467Y01466120D01*
X01547875Y01466780D01*
X01545563D01*
X01543428Y01465895D01*
X01541794Y01464261D01*
X01540909Y01462125D01*
Y01460594D01*
X01539975Y01459661D01*
X01539091Y01457525D01*
Y01456469D01*
X01538929D01*
X01536793Y01455585D01*
X01535159Y01453951D01*
X01534557Y01452498D01*
X01533652Y01452123D01*
X01532018Y01450488D01*
X01531133Y01448353D01*
Y01447518D01*
X01529742Y01446127D01*
X01528858Y01443992D01*
Y01441680D01*
X01529378Y01440424D01*
X01528858Y01439169D01*
Y01436857D01*
X01529742Y01434722D01*
X01531377Y01433087D01*
X01533058Y01432391D01*
Y01419592D01*
X01491488D01*
X01491488Y01448816D01*
X01499245Y01456573D01*
X01500410D01*
X01502545Y01457457D01*
X01504180Y01459092D01*
X01505064Y01461227D01*
Y01462392D01*
X01525798Y01483126D01*
X01538872D01*
X01539940Y01481528D01*
X01542040Y01480124D01*
X01544518Y01479632D01*
X01546996Y01480124D01*
X01549096Y01481528D01*
X01550164Y01483126D01*
X01565148D01*
X01567688Y01480586D01*
D02*
G37*
G36*
X00927697Y01481836D02*
X00919838Y01473978D01*
X00919640Y01473991D01*
X00919159Y01473828D01*
X00918661Y01473728D01*
X00918447Y01473586D01*
X00918205Y01473504D01*
X00917823Y01473169D01*
X00917400Y01472886D01*
X00911197Y01466683D01*
X00909131Y01467538D01*
X00906820D01*
X00904685Y01466654D01*
X00903050Y01465020D01*
X00902166Y01462884D01*
Y01460573D01*
X00903021Y01458507D01*
X00900995Y01456481D01*
X00899554Y01457077D01*
X00897242D01*
X00895107Y01456193D01*
X00893473Y01454559D01*
X00892588Y01452423D01*
Y01450112D01*
X00893329Y01448322D01*
X00892588Y01446532D01*
Y01444220D01*
X00893238Y01442651D01*
X00892588Y01441082D01*
Y01438770D01*
X00893473Y01436635D01*
X00895107Y01435000D01*
X00896209Y01434544D01*
X00896164Y01434321D01*
Y01422146D01*
X00857758D01*
Y01446456D01*
X00873335Y01462032D01*
X00874152Y01461215D01*
X00876287Y01460331D01*
X00878599D01*
X00880734Y01461215D01*
X00882368Y01462849D01*
X00883253Y01464985D01*
Y01467296D01*
X00882368Y01469432D01*
X00881551Y01470249D01*
X00897128Y01485826D01*
X00923707D01*
X00927697Y01481836D01*
D02*
G37*
G36*
X00939038Y01479244D02*
Y01466423D01*
X00937697Y01465867D01*
X00936062Y01464233D01*
X00935178Y01462097D01*
Y01459786D01*
X00936062Y01457651D01*
X00936294Y01457419D01*
X00936062Y01457187D01*
X00935178Y01455052D01*
Y01452740D01*
X00936014Y01450721D01*
X00935178Y01448702D01*
Y01446390D01*
X00936014Y01444371D01*
X00935178Y01442352D01*
Y01440040D01*
X00936062Y01437905D01*
X00937697Y01436270D01*
X00939038Y01435715D01*
Y01422146D01*
X00900049D01*
Y01434321D01*
X00901689Y01435000D01*
X00903324Y01436635D01*
X00904208Y01438770D01*
Y01441082D01*
X00903558Y01442651D01*
X00904208Y01444220D01*
Y01446532D01*
X00903466Y01448322D01*
X00904208Y01450112D01*
Y01452423D01*
X00903688Y01453680D01*
X00906188Y01456180D01*
X00906820Y01455918D01*
X00909131D01*
X00911267Y01456803D01*
X00912901Y01458437D01*
X00913786Y01460573D01*
Y01462884D01*
X00913524Y01463516D01*
X00920147Y01470139D01*
X00920435Y01470062D01*
X00922228D01*
X00923960Y01470526D01*
X00925513Y01471423D01*
X00926781Y01472691D01*
X00927356Y01473686D01*
X00927666D01*
X00929398Y01474150D01*
X00930951Y01475047D01*
X00932219Y01476315D01*
X00933116Y01477868D01*
X00933580Y01479600D01*
Y01481393D01*
X00934218Y01482224D01*
X00937011D01*
X00939038Y01479244D01*
D02*
G37*
G36*
X01577160Y01479657D02*
Y01471177D01*
X01576133Y01470752D01*
X01574499Y01469117D01*
X01573614Y01466982D01*
Y01464671D01*
X01574342Y01462913D01*
X01573461Y01460786D01*
Y01458474D01*
X01574346Y01456339D01*
X01575980Y01454704D01*
X01577160Y01454216D01*
Y01443530D01*
X01575827Y01442978D01*
X01574193Y01441344D01*
X01573308Y01439208D01*
Y01436897D01*
X01574193Y01434761D01*
X01575827Y01433127D01*
X01577160Y01432575D01*
Y01419606D01*
X01537208D01*
Y01432776D01*
X01537959Y01433087D01*
X01539594Y01434722D01*
X01540478Y01436857D01*
Y01439169D01*
X01539958Y01440424D01*
X01540478Y01441680D01*
Y01442516D01*
X01541868Y01443906D01*
X01542470Y01445359D01*
X01543376Y01445734D01*
X01545010Y01447368D01*
X01545894Y01449504D01*
Y01450560D01*
X01546057D01*
X01547019Y01450958D01*
X01548523Y01450335D01*
X01550835D01*
X01552970Y01451220D01*
X01554605Y01452854D01*
X01555489Y01454989D01*
Y01456037D01*
X01555506Y01456044D01*
X01557141Y01457679D01*
X01558025Y01459814D01*
Y01462125D01*
X01557141Y01464261D01*
X01556848Y01464553D01*
X01567352Y01475056D01*
X01569047Y01475511D01*
X01570599Y01476407D01*
X01571867Y01477675D01*
X01572764Y01479228D01*
X01573111Y01480522D01*
X01576257Y01480551D01*
X01577160Y01479657D01*
D02*
G37*
G36*
X01024128Y01443736D02*
Y01422146D01*
X00985694D01*
Y01449009D01*
X00985398Y01450496D01*
X00984556Y01451756D01*
X00979362Y01456950D01*
X00980058Y01458630D01*
Y01460942D01*
X00979174Y01463077D01*
X00977539Y01464711D01*
X00975404Y01465596D01*
X00973092D01*
X00971412Y01464900D01*
X00961011Y01475302D01*
X00960588Y01475584D01*
X00960206Y01475919D01*
X00959964Y01476001D01*
X00959751Y01476144D01*
X00959252Y01476243D01*
X00958771Y01476406D01*
X00958515Y01476389D01*
X00958264Y01476440D01*
X00957766Y01476340D01*
X00957434Y01476319D01*
X00956531D01*
X00955787Y01476518D01*
X00955120Y01476903D01*
X00954576Y01477448D01*
X00954190Y01478115D01*
X00953997Y01478837D01*
Y01479853D01*
X00954013Y01480093D01*
X00954112Y01480592D01*
X00954062Y01480843D01*
X00954079Y01481099D01*
X00953971Y01481415D01*
X00956916Y01484360D01*
X00983504D01*
X01024128Y01443736D01*
D02*
G37*
G36*
X00950227Y01480592D02*
X00950106Y01480141D01*
Y01478347D01*
X00950570Y01476615D01*
X00951467Y01475063D01*
X00952735Y01473795D01*
X00954288Y01472898D01*
X00956020Y01472434D01*
X00957813D01*
X00958264Y01472555D01*
X00968859Y01461959D01*
X00968438Y01460942D01*
Y01458630D01*
X00969323Y01456495D01*
X00970957Y01454861D01*
X00973092Y01453976D01*
X00975404D01*
X00976421Y01454397D01*
X00981810Y01449009D01*
Y01422146D01*
X00942923D01*
Y01435709D01*
X00944279Y01436270D01*
X00945913Y01437905D01*
X00946798Y01440040D01*
Y01442352D01*
X00945962Y01444371D01*
X00946798Y01446390D01*
Y01448702D01*
X00945962Y01450721D01*
X00946798Y01452740D01*
Y01455052D01*
X00945913Y01457187D01*
X00945682Y01457419D01*
X00945913Y01457651D01*
X00946798Y01459786D01*
Y01462097D01*
X00945913Y01464233D01*
X00944279Y01465867D01*
X00942923Y01466429D01*
Y01479244D01*
X00942874Y01479490D01*
X00945220Y01481836D01*
X00948983D01*
X00950227Y01480592D01*
D02*
G37*
G36*
X01588253Y01480321D02*
X01590010Y01478564D01*
X01590212Y01477811D01*
X01591109Y01476258D01*
X01592377Y01474990D01*
X01593929Y01474093D01*
X01594683Y01473891D01*
X01598975Y01469599D01*
X01598788Y01469147D01*
Y01466836D01*
X01599673Y01464701D01*
X01601307Y01463066D01*
X01603442Y01462182D01*
X01603514D01*
Y01461561D01*
X01604398Y01459425D01*
X01606033Y01457791D01*
X01608168Y01456906D01*
X01610480D01*
X01610557Y01456938D01*
X01611142Y01456494D01*
X01611603Y01455997D01*
Y01453834D01*
X01612487Y01451698D01*
X01614122Y01450064D01*
X01615518Y01449486D01*
Y01447587D01*
X01616402Y01445452D01*
X01616746Y01445108D01*
X01616402Y01444764D01*
X01615518Y01442628D01*
Y01440317D01*
X01616402Y01438182D01*
X01618037Y01436547D01*
X01619743Y01435841D01*
Y01420490D01*
X01618844Y01419592D01*
X01581045Y01419605D01*
X01581044Y01419606D01*
Y01432562D01*
X01582409Y01433127D01*
X01584043Y01434761D01*
X01584928Y01436897D01*
Y01439208D01*
X01584043Y01441344D01*
X01582409Y01442978D01*
X01581044Y01443543D01*
Y01454076D01*
X01582562Y01454704D01*
X01584197Y01456339D01*
X01585081Y01458474D01*
Y01460786D01*
X01584353Y01462543D01*
X01585234Y01464671D01*
Y01466982D01*
X01584350Y01469117D01*
X01582715Y01470752D01*
X01581044Y01471444D01*
Y01478424D01*
X01581162Y01478863D01*
X01584169Y01481870D01*
X01588253D01*
Y01480321D01*
D02*
G37*
G36*
X01664208Y01450731D02*
X01664208Y01419592D01*
X01624744D01*
X01623629Y01420488D01*
X01623627Y01420490D01*
Y01435841D01*
X01623573Y01436114D01*
X01624619Y01436547D01*
X01626254Y01438182D01*
X01627138Y01440317D01*
Y01442628D01*
X01626254Y01444764D01*
X01625910Y01445108D01*
X01626254Y01445452D01*
X01627138Y01447587D01*
Y01449899D01*
X01626254Y01452034D01*
X01624619Y01453668D01*
X01623223Y01454247D01*
Y01456145D01*
X01622338Y01458281D01*
X01620704Y01459915D01*
X01618569Y01460800D01*
X01616257D01*
X01616054Y01460715D01*
X01615134Y01461709D01*
Y01463872D01*
X01614250Y01466007D01*
X01612615Y01467642D01*
X01610480Y01468526D01*
X01610408D01*
Y01469147D01*
X01609523Y01471283D01*
X01607889Y01472917D01*
X01605754Y01473802D01*
X01603442D01*
X01601307Y01472917D01*
X01601229Y01472839D01*
X01597430Y01476638D01*
X01597216Y01476781D01*
X01597048Y01476973D01*
X01596592Y01477198D01*
X01596169Y01477480D01*
X01595918Y01477530D01*
X01595688Y01477644D01*
X01595429Y01477713D01*
X01594762Y01478098D01*
X01594217Y01478643D01*
X01593929Y01479141D01*
Y01479344D01*
X01596417Y01483126D01*
X01631813D01*
X01664208Y01450731D01*
D02*
G37*
G36*
X01664208Y01385316D02*
X01612138Y01333246D01*
X01497838D01*
X01491488Y01339596D01*
Y01393891D01*
X01492621Y01394361D01*
X01494255Y01395995D01*
X01495140Y01398130D01*
Y01400442D01*
X01494255Y01402577D01*
X01492621Y01404211D01*
X01491488Y01404681D01*
Y01413256D01*
X01664208D01*
Y01385316D01*
D02*
G37*
G36*
X01022656Y01414526D02*
X01049528Y01387654D01*
Y01339596D01*
X01040638Y01330706D01*
X01026668D01*
X01004455Y01352919D01*
X01003592Y01354211D01*
X01001292Y01356510D01*
X01000001Y01357373D01*
X00999998Y01357376D01*
X00999997D01*
X00998588Y01358317D01*
X00995584Y01359561D01*
X00992394Y01360196D01*
X00989142D01*
X00985952Y01359561D01*
X00982948Y01358317D01*
X00981539Y01357376D01*
X00889474D01*
X00888359Y01358492D01*
X00886248Y01359366D01*
X00885534Y01360080D01*
X00885134Y01361047D01*
X00883499Y01362681D01*
X00882532Y01363082D01*
X00880617Y01364997D01*
X00880463Y01365367D01*
X00878829Y01367001D01*
X00878459Y01367155D01*
X00857758Y01387856D01*
Y01414526D01*
X01022656Y01414526D01*
D02*
G37*
G36*
X00595465Y01328839D02*
X00595408Y01328702D01*
Y01326390D01*
X00596292Y01324255D01*
X00597927Y01322621D01*
X00599948Y01321783D01*
Y01257046D01*
X00434848D01*
Y01280286D01*
X00480188Y01325626D01*
X00526288Y01325626D01*
X00556768Y01356106D01*
X00568198D01*
X00595465Y01328839D01*
D02*
G37*
G36*
X00518287Y01234186D02*
X00518383D01*
Y01230091D01*
X00515417Y01227125D01*
X00514315Y01227581D01*
X00512003D01*
X00509868Y01226696D01*
X00508234Y01225062D01*
X00507349Y01222927D01*
Y01222061D01*
X00507078D01*
X00504942Y01221177D01*
X00503308Y01219543D01*
X00502424Y01217407D01*
Y01217136D01*
X00502272D01*
X00500137Y01216252D01*
X00498503Y01214617D01*
X00497685Y01212643D01*
X00495781Y01211855D01*
X00494146Y01210220D01*
X00493262Y01208085D01*
Y01206246D01*
X00460299D01*
X00459447Y01207188D01*
X00459821Y01210866D01*
X00460765D01*
X00462497Y01211330D01*
X00464049Y01212227D01*
X00465317Y01213495D01*
X00466214Y01215047D01*
X00466419Y01215813D01*
X00474638Y01224032D01*
X00474638Y01224032D01*
X00475336Y01225077D01*
X00477155D01*
X00479290Y01225962D01*
X00480925Y01227596D01*
X00481809Y01229732D01*
Y01232043D01*
X00480925Y01234178D01*
X00479639Y01235464D01*
X00479884Y01236697D01*
Y01251966D01*
X00518287D01*
Y01234186D01*
D02*
G37*
G36*
X00475999Y01236697D02*
X00474843D01*
X00472708Y01235813D01*
X00471074Y01234178D01*
X00470189Y01232043D01*
Y01229732D01*
X00471074Y01227596D01*
X00471891Y01226779D01*
X00461217Y01216105D01*
X00461144Y01216125D01*
X00459352D01*
X00457619Y01215661D01*
X00457070Y01215344D01*
X00453690D01*
X00434848Y01234186D01*
Y01251966D01*
X00475999D01*
Y01236697D01*
D02*
G37*
G36*
X00558746Y01236417D02*
X00557287Y01235813D01*
X00555653Y01234178D01*
X00554768Y01232043D01*
Y01229732D01*
X00555653Y01227596D01*
X00557287Y01225962D01*
X00558746Y01225357D01*
Y01213326D01*
X00558660D01*
X00556525Y01212441D01*
X00554891Y01210807D01*
X00554006Y01208672D01*
Y01206360D01*
X00554891Y01204225D01*
X00555454Y01203662D01*
X00549478Y01197686D01*
X00547617Y01198457D01*
X00545306D01*
X00543171Y01197573D01*
X00541536Y01195939D01*
X00540652Y01193803D01*
Y01191576D01*
X00470805D01*
X00470186Y01192647D01*
X00468918Y01193915D01*
X00467365Y01194812D01*
X00465634Y01195276D01*
X00463840D01*
X00463090Y01195075D01*
X00462742Y01195424D01*
X00461189Y01196320D01*
X00460002Y01196638D01*
X00459868Y01199896D01*
X00462333Y01202361D01*
X00493262D01*
X00494748Y01202657D01*
X00494976Y01202809D01*
X00495781Y01202004D01*
X00497916Y01201119D01*
X00500228D01*
X00502363Y01202004D01*
X00503997Y01203638D01*
X00504815Y01205612D01*
X00506719Y01206401D01*
X00508354Y01208035D01*
X00509238Y01210170D01*
Y01210442D01*
X00509389D01*
X00511525Y01211326D01*
X00513159Y01212960D01*
X00514044Y01215096D01*
Y01215961D01*
X00514315D01*
X00516450Y01216845D01*
X00518084Y01218480D01*
X00518969Y01220615D01*
Y01222927D01*
X00518308Y01224522D01*
X00521129Y01227344D01*
X00521972Y01228604D01*
X00522267Y01230091D01*
Y01234186D01*
X00522172Y01234667D01*
Y01251966D01*
X00558746D01*
Y01236417D01*
D02*
G37*
G36*
X00601218Y01200790D02*
X00599630Y01198040D01*
X00598678Y01194487D01*
Y01190808D01*
X00599630Y01187255D01*
X00601163Y01184601D01*
X00577088Y01160526D01*
X00528409D01*
X00527444Y01160926D01*
X00525132D01*
X00524167Y01160526D01*
X00519519D01*
X00518554Y01160926D01*
X00516242D01*
X00515277Y01160526D01*
X00510629D01*
X00509664Y01160926D01*
X00507352D01*
X00506387Y01160526D01*
X00501739D01*
X00500774Y01160926D01*
X00498462D01*
X00497497Y01160526D01*
X00482473D01*
X00474444Y01168555D01*
X00474821Y01169466D01*
Y01171778D01*
X00473937Y01173913D01*
X00472302Y01175547D01*
X00470167Y01176432D01*
X00469113D01*
X00468028Y01177516D01*
X00465893Y01178401D01*
X00464598D01*
X00464076Y01178923D01*
X00463494Y01180327D01*
X00461860Y01181962D01*
X00460456Y01182543D01*
X00456928Y01186071D01*
Y01188466D01*
X00459107Y01190531D01*
X00460867D01*
X00462599Y01190995D01*
X00462753Y01191084D01*
X00463934Y01190402D01*
X00465666Y01189938D01*
X00467265D01*
X00467441Y01189634D01*
X00467776Y01189251D01*
X00468058Y01188829D01*
X00468271Y01188687D01*
X00468440Y01188494D01*
X00468896Y01188269D01*
X00469318Y01187987D01*
X00469570Y01187937D01*
X00469799Y01187824D01*
X00470306Y01187791D01*
X00470805Y01187691D01*
X00540652D01*
X00542138Y01187987D01*
X00542598Y01188294D01*
X00543171Y01187722D01*
X00545306Y01186837D01*
X00547617D01*
X00549753Y01187722D01*
X00551387Y01189356D01*
X00552272Y01191492D01*
Y01193803D01*
X00551893Y01194717D01*
X00552225Y01194940D01*
X00552225Y01194940D01*
X00558200Y01200915D01*
X00558200Y01200915D01*
X00558729Y01201706D01*
X00560972D01*
X00563107Y01202590D01*
X00564742Y01204225D01*
X00565626Y01206360D01*
Y01208672D01*
X00564742Y01210807D01*
X00563107Y01212441D01*
X00562504Y01212691D01*
X00562631Y01213326D01*
Y01225357D01*
X00562614Y01225442D01*
X00563869Y01225962D01*
X00565504Y01227596D01*
X00566388Y01229732D01*
Y01232043D01*
X00565504Y01234178D01*
X00563869Y01235813D01*
X00562614Y01236333D01*
X00562631Y01236417D01*
Y01251966D01*
X00601218D01*
Y01200790D01*
D02*
G37*
G36*
X00402562Y00857532D02*
X00402892Y00855870D01*
X00404137Y00852866D01*
X00405944Y00850162D01*
X00408243Y00847862D01*
X00410948Y00846055D01*
X00413952Y00844810D01*
X00417142Y00844176D01*
X00420394D01*
X00423584Y00844810D01*
X00426588Y00846055D01*
X00429292Y00847862D01*
X00430807Y00849376D01*
X00523748D01*
X00537718Y00835406D01*
Y00809810D01*
X00534026Y00806117D01*
X00374452Y00806889D01*
X00362458Y00818883D01*
Y00867156D01*
X00368808Y00873506D01*
X00386588D01*
X00402562Y00857532D01*
D02*
G37*
G36*
X01342325Y00862649D02*
X01342258Y00862312D01*
Y00859060D01*
X01342892Y00855870D01*
X01344137Y00852866D01*
X01345944Y00850162D01*
X01348244Y00847862D01*
X01350948Y00846055D01*
X01353952Y00844810D01*
X01357142Y00844176D01*
X01360394D01*
X01363584Y00844810D01*
X01366588Y00846055D01*
X01369292Y00847862D01*
X01371592Y00850162D01*
X01371916Y00850646D01*
X01527048D01*
X01539748Y00837946D01*
Y00803656D01*
X01321308D01*
X01294638Y00830326D01*
Y00867156D01*
X01304798Y00877316D01*
X01327658D01*
X01342325Y00862649D01*
D02*
G37*
G36*
X00872258Y00861546D02*
Y00859060D01*
X00872893Y00855870D01*
X00874137Y00852866D01*
X00875944Y00850162D01*
X00878243Y00847862D01*
X00880948Y00846055D01*
X00883952Y00844810D01*
X00887142Y00844176D01*
X00890394D01*
X00893584Y00844810D01*
X00896588Y00846055D01*
X00899293Y00847862D01*
X00899537Y00848106D01*
X01006451D01*
X01012801Y00841756D01*
Y00808354D01*
X01006833Y00802386D01*
X00846328D01*
X00832358Y00816356D01*
Y00865886D01*
X00842518Y00876046D01*
X00857758D01*
X00872258Y00861546D01*
D02*
G37*
G36*
X00537718Y00727456D02*
X00474327Y00664065D01*
X00431890D01*
X00429768Y00666187D01*
Y00669036D01*
X00441382Y00680650D01*
X00441692Y00680341D01*
X00443827Y00679456D01*
X00446139D01*
X00447155Y00679877D01*
X00448170Y00679456D01*
X00450482D01*
X00452617Y00680341D01*
X00454252Y00681975D01*
X00455136Y00684111D01*
Y00686422D01*
X00454621Y00687666D01*
X00455136Y00688911D01*
Y00691222D01*
X00454252Y00693357D01*
X00454170Y00693438D01*
X00462677Y00701945D01*
X00464172Y00701326D01*
X00466484D01*
X00468619Y00702210D01*
X00470253Y00703845D01*
X00471138Y00705980D01*
Y00708266D01*
X00472699D01*
X00474834Y00709150D01*
X00476469Y00710785D01*
X00477353Y00712920D01*
Y00714284D01*
X00478509D01*
X00480644Y00715168D01*
X00482279Y00716803D01*
X00483163Y00718938D01*
Y00721249D01*
X00483428Y00721646D01*
X00484379D01*
X00486514Y00722531D01*
X00488148Y00724165D01*
X00489033Y00726300D01*
Y00728301D01*
X00497078Y00736346D01*
Y00763553D01*
X00498134Y00764259D01*
X00498793Y00763986D01*
X00501104D01*
X00503240Y00764871D01*
X00504874Y00766505D01*
X00505758Y00768640D01*
Y00770952D01*
X00504874Y00773087D01*
X00503240Y00774722D01*
X00501104Y00775606D01*
X00498793D01*
X00498134Y00775333D01*
X00497078Y00776039D01*
Y00784606D01*
X00497459D01*
Y00801116D01*
X00537718D01*
Y00727456D01*
D02*
G37*
G36*
X00846328Y00798501D02*
X00880924D01*
Y00783540D01*
X00880631Y00782066D01*
Y00776143D01*
X00866703Y00762215D01*
X00866703Y00762215D01*
X00866665Y00762158D01*
X00865391Y00762686D01*
X00863079D01*
X00860944Y00761802D01*
X00859309Y00760167D01*
X00858425Y00758032D01*
Y00756876D01*
X00856602D01*
X00854467Y00755992D01*
X00852832Y00754357D01*
X00851948Y00752222D01*
Y00751011D01*
X00850626D01*
X00848490Y00750126D01*
X00846856Y00748492D01*
X00845972Y00746356D01*
Y00745199D01*
X00844025D01*
X00841889Y00744314D01*
X00840255Y00742680D01*
X00839371Y00740544D01*
Y00738233D01*
X00840255Y00736097D01*
X00841889Y00734463D01*
X00842125Y00734365D01*
X00841969Y00733579D01*
Y00712671D01*
X00840497Y00712061D01*
X00838863Y00710427D01*
X00837978Y00708292D01*
Y00705980D01*
X00838863Y00703845D01*
X00839381Y00703326D01*
X00838863Y00702807D01*
X00837978Y00700672D01*
Y00698360D01*
X00838863Y00696225D01*
X00839381Y00695706D01*
X00838863Y00695187D01*
X00837978Y00693052D01*
Y00690740D01*
X00838863Y00688605D01*
X00839917Y00687550D01*
X00838876Y00686509D01*
X00837992Y00684374D01*
Y00682063D01*
X00838876Y00679927D01*
X00840511Y00678293D01*
X00841969Y00677689D01*
Y00665611D01*
X00842264Y00664124D01*
X00843106Y00662864D01*
X00845181Y00660790D01*
X00845394Y00660647D01*
X00845563Y00660455D01*
X00846019Y00660230D01*
X00846031Y00660221D01*
X00846132Y00660133D01*
X00846363Y00659999D01*
X00846441Y00659948D01*
X00846459Y00659944D01*
X00847242Y00659492D01*
X00847786Y00658948D01*
X00847804Y00658917D01*
X00847973Y00658724D01*
X00848086Y00658495D01*
X00848468Y00658160D01*
X00848803Y00657778D01*
X00849033Y00657664D01*
X00849226Y00657495D01*
X00849707Y00657332D01*
X00850163Y00657107D01*
X00850418Y00657090D01*
X00850661Y00657008D01*
X00851168Y00657041D01*
X00851675Y00657008D01*
X00851918Y00657090D01*
X00852174Y00657107D01*
X00852655Y00657236D01*
X00853425D01*
X00854169Y00657037D01*
X00854836Y00656652D01*
X00855380Y00656107D01*
X00855518Y00655868D01*
X00855179Y00654603D01*
Y00652810D01*
X00855303Y00652346D01*
X00854217Y00651260D01*
X00838704Y00651260D01*
X00829162Y00660802D01*
X00828393Y00662657D01*
X00826759Y00664292D01*
X00824903Y00665061D01*
X00821818Y00668146D01*
X00821664Y00668519D01*
X00820029Y00670153D01*
X00819656Y00670308D01*
X00808228Y00681736D01*
X00808228Y00771081D01*
X00835723Y00798576D01*
X00845953D01*
X00846328Y00798501D01*
D02*
G37*
G36*
X00493574Y00786220D02*
X00493489Y00786093D01*
X00493193Y00784606D01*
Y00776039D01*
X00493268Y00775663D01*
Y00775281D01*
X00493414Y00774927D01*
X00493489Y00774552D01*
X00493702Y00774234D01*
X00493848Y00773880D01*
X00494119Y00773610D01*
X00494331Y00773292D01*
X00494649Y00773079D01*
X00494911Y00772817D01*
X00494138Y00770952D01*
Y00768640D01*
X00494911Y00766775D01*
X00494649Y00766513D01*
X00494331Y00766300D01*
X00494119Y00765982D01*
X00493848Y00765712D01*
X00493702Y00765358D01*
X00493489Y00765040D01*
X00493414Y00764665D01*
X00493268Y00764311D01*
Y00763929D01*
X00493193Y00763553D01*
Y00737955D01*
X00487067Y00731829D01*
X00486514Y00732382D01*
X00484379Y00733266D01*
X00482067D01*
X00479932Y00732382D01*
X00478298Y00730747D01*
X00477413Y00728612D01*
Y00726300D01*
X00477148Y00725904D01*
X00476197D01*
X00474062Y00725019D01*
X00472427Y00723385D01*
X00471543Y00721249D01*
Y00719886D01*
X00470387D01*
X00468252Y00719001D01*
X00466618Y00717367D01*
X00465733Y00715232D01*
Y00712946D01*
X00464172D01*
X00462037Y00712061D01*
X00460402Y00710427D01*
X00459518Y00708292D01*
Y00705980D01*
X00460025Y00704756D01*
X00459930Y00704692D01*
X00451424Y00696185D01*
X00451423Y00696185D01*
X00451423Y00696185D01*
X00451058Y00695638D01*
X00450482Y00695876D01*
X00448170D01*
X00447154Y00695456D01*
X00446139Y00695876D01*
X00443827D01*
X00441692Y00694992D01*
X00440057Y00693357D01*
X00439173Y00691222D01*
Y00688911D01*
X00439688Y00687666D01*
X00439173Y00686422D01*
Y00684111D01*
X00439288Y00683833D01*
X00438636Y00683397D01*
X00433065Y00677827D01*
X00431621Y00677440D01*
X00430069Y00676544D01*
X00428801Y00675276D01*
X00427904Y00673723D01*
X00427620Y00672661D01*
X00427139Y00672532D01*
X00425587Y00671636D01*
X00424319Y00670368D01*
X00423422Y00668815D01*
X00422958Y00667083D01*
Y00665290D01*
X00422832Y00665126D01*
X00418768D01*
Y00695241D01*
X00456438Y00732911D01*
Y00784606D01*
X00456819D01*
Y00801116D01*
X00493574D01*
Y00786220D01*
D02*
G37*
G36*
X00966903Y00746810D02*
X00940384Y00720291D01*
X00939307Y00721010D01*
X00939823Y00722255D01*
Y00724567D01*
X00938939Y00726702D01*
X00937304Y00728336D01*
X00935169Y00729221D01*
X00932858D01*
X00930722Y00728336D01*
X00929088Y00726702D01*
X00928203Y00724567D01*
Y00722255D01*
X00929088Y00720120D01*
X00930722Y00718485D01*
X00932858Y00717601D01*
X00935169D01*
X00936414Y00718117D01*
X00937134Y00717040D01*
X00902944Y00682850D01*
X00901348Y00684446D01*
X00899213Y00685330D01*
X00896901D01*
X00895508Y00684753D01*
X00894115Y00685330D01*
X00891804D01*
X00889668Y00684446D01*
X00888034Y00682812D01*
X00887149Y00680676D01*
Y00678365D01*
X00887558Y00677378D01*
X00887149Y00676392D01*
Y00674080D01*
X00888034Y00671945D01*
X00889138Y00670841D01*
X00889290Y00669197D01*
X00880255Y00660161D01*
X00879847Y00660052D01*
X00878294Y00659155D01*
X00877026Y00657887D01*
X00876129Y00656335D01*
X00875665Y00654603D01*
Y00652810D01*
X00875454Y00652535D01*
X00870452D01*
Y00687935D01*
X00924483Y00741966D01*
X00926224D01*
X00928359Y00742850D01*
X00929994Y00744485D01*
X00930878Y00746620D01*
Y00748932D01*
X00929994Y00751067D01*
X00928734Y00752326D01*
X00929994Y00753585D01*
X00930878Y00755721D01*
Y00758032D01*
X00929994Y00760167D01*
X00929139Y00761021D01*
X00928403Y00761851D01*
X00929139Y00762681D01*
X00929994Y00763535D01*
X00930878Y00765670D01*
Y00767982D01*
X00929994Y00770117D01*
X00928626Y00771484D01*
X00929994Y00772852D01*
X00930878Y00774987D01*
Y00777299D01*
X00929994Y00779434D01*
X00928359Y00781068D01*
X00927691Y00781345D01*
X00926719Y00782066D01*
Y00798501D01*
X00966903D01*
Y00746810D01*
D02*
G37*
G36*
X01495604Y00784144D02*
X01495209Y00783553D01*
X01494913Y00782066D01*
Y00778706D01*
X01493309Y00778041D01*
X01491675Y00776407D01*
X01490790Y00774272D01*
Y00771960D01*
X01491675Y00769825D01*
X01492616Y00768884D01*
X01493229Y00768079D01*
X01492616Y00767224D01*
X01491699Y00766307D01*
X01490815Y00764172D01*
Y00761860D01*
X01491699Y00759725D01*
X01492500Y00758924D01*
X01491675Y00758099D01*
X01490790Y00755964D01*
Y00753652D01*
X01491675Y00751517D01*
X01492489Y00750703D01*
X01491675Y00749888D01*
X01490790Y00747753D01*
Y00745441D01*
X01491675Y00743306D01*
X01493309Y00741672D01*
X01494913Y00741007D01*
Y00696925D01*
X01493399Y00695410D01*
X01492943Y00694728D01*
X01491485Y00694466D01*
X01491378Y00694498D01*
X01491212Y00694663D01*
X01489077Y00695548D01*
X01486765D01*
X01484630Y00694663D01*
X01482995Y00693029D01*
X01482111Y00690893D01*
Y00688582D01*
X01481324Y00687164D01*
X01480279Y00686731D01*
X01478645Y00685097D01*
X01477760Y00682962D01*
Y00680650D01*
X01478064Y00679919D01*
X01477591Y00679603D01*
X01469132Y00671143D01*
X01468290Y00669883D01*
X01467994Y00668397D01*
Y00664413D01*
X01467909Y00664327D01*
X01467012Y00662775D01*
X01466548Y00661042D01*
Y00660280D01*
X01461968Y00660169D01*
X01461059Y00661056D01*
Y00676870D01*
X01461206Y00676931D01*
X01462841Y00678565D01*
X01463725Y00680701D01*
Y00683012D01*
X01462841Y00685147D01*
X01462404Y00685583D01*
X01462886Y00686065D01*
X01463770Y00688200D01*
Y00690512D01*
X01462886Y00692647D01*
X01462367Y00693166D01*
X01462886Y00693685D01*
X01463770Y00695820D01*
Y00698132D01*
X01462886Y00700267D01*
X01462367Y00700786D01*
X01462886Y00701305D01*
X01463770Y00703440D01*
Y00705752D01*
X01462886Y00707887D01*
X01462367Y00708406D01*
X01462886Y00708925D01*
X01463770Y00711060D01*
Y00713372D01*
X01462886Y00715507D01*
X01461251Y00717141D01*
X01459116Y00718026D01*
X01457401D01*
Y00722318D01*
X01457915Y00722531D01*
X01459549Y00724165D01*
X01460434Y00726300D01*
Y00728612D01*
X01459549Y00730747D01*
X01459406Y00730890D01*
X01459549Y00731034D01*
X01460434Y00733169D01*
Y00735481D01*
X01459549Y00737616D01*
X01460434Y00739751D01*
Y00742063D01*
X01459549Y00744198D01*
X01459406Y00744342D01*
X01459549Y00744485D01*
X01460434Y00746620D01*
Y00748932D01*
X01459549Y00751067D01*
X01457915Y00752701D01*
X01457401Y00752914D01*
X01457401Y00799457D01*
X01495604D01*
Y00784144D01*
D02*
G37*
G36*
X01540258Y00798672D02*
Y00738722D01*
X01539902Y00738367D01*
X01539018Y00736232D01*
Y00733920D01*
X01539902Y00731785D01*
X01540258Y00731430D01*
Y00731102D01*
X01539902Y00730747D01*
X01539018Y00728612D01*
Y00726300D01*
X01539902Y00724165D01*
X01540258Y00723810D01*
Y00723482D01*
X01539902Y00723127D01*
X01539018Y00720992D01*
Y00718680D01*
X01539902Y00716545D01*
X01540258Y00716190D01*
Y00715862D01*
X01539902Y00715507D01*
X01539018Y00713372D01*
Y00711060D01*
X01539902Y00708925D01*
X01540258Y00708570D01*
Y00708242D01*
X01539902Y00707887D01*
X01539018Y00705752D01*
Y00703440D01*
X01539902Y00701305D01*
X01540258Y00700950D01*
Y00692406D01*
X01505458Y00657606D01*
X01502497D01*
X01500944Y00658249D01*
X01498632D01*
X01497079Y00657606D01*
X01471879D01*
X01471879Y00668397D01*
X01480338Y00676856D01*
X01482415Y00675996D01*
X01484726D01*
X01486862Y00676880D01*
X01488496Y00678515D01*
X01488649Y00678886D01*
X01489141D01*
X01491276Y00679770D01*
X01492910Y00681404D01*
X01493197Y00682096D01*
X01493842D01*
X01495978Y00682980D01*
X01497612Y00684615D01*
X01498497Y00686750D01*
Y00689062D01*
X01497612Y00691197D01*
X01496146Y00692663D01*
X01498798Y00695316D01*
Y00741219D01*
X01499892Y00741672D01*
X01501526Y00743306D01*
X01502410Y00745441D01*
Y00747753D01*
X01501526Y00749888D01*
X01500712Y00750703D01*
X01501526Y00751517D01*
X01502410Y00753652D01*
Y00755964D01*
X01501526Y00758099D01*
X01500725Y00758900D01*
X01501550Y00759725D01*
X01502435Y00761860D01*
Y00764172D01*
X01501550Y00766307D01*
X01500609Y00767249D01*
X01499996Y00768053D01*
X01500609Y00768908D01*
X01501526Y00769825D01*
X01502410Y00771960D01*
Y00774272D01*
X01501526Y00776407D01*
X01499892Y00778041D01*
X01498798Y00778494D01*
Y00782066D01*
X01499489D01*
Y00799771D01*
X01539748D01*
X01540258Y00798672D01*
D02*
G37*
G36*
X01011087Y00715177D02*
X00947170Y00651260D01*
X00881332Y00651260D01*
Y00655745D01*
X00895530Y00669942D01*
X00896901Y00669374D01*
X00899213D01*
X00901348Y00670259D01*
X00902982Y00671893D01*
X00903867Y00674028D01*
Y00676340D01*
X00903448Y00677352D01*
X00903807Y00678220D01*
X00970788Y00745201D01*
Y00798501D01*
X01006833D01*
X01007208Y00798576D01*
X01011087D01*
Y00715177D01*
D02*
G37*
G36*
X00452934Y00786220D02*
X00452849Y00786093D01*
X00452553Y00784606D01*
Y00734520D01*
X00416021Y00697988D01*
X00415179Y00696728D01*
X00414883Y00695241D01*
Y00670374D01*
X00411174Y00666665D01*
Y00666496D01*
X00406908D01*
X00404716Y00668688D01*
X00404599Y00669125D01*
X00403702Y00670677D01*
X00402435Y00671945D01*
X00400882Y00672842D01*
X00400558Y00672929D01*
Y00691074D01*
X00401944Y00691648D01*
X00403578Y00693283D01*
X00404463Y00695418D01*
Y00697730D01*
X00403578Y00699865D01*
X00403185Y00700258D01*
X00403578Y00700652D01*
X00404463Y00702787D01*
Y00705099D01*
X00403578Y00707234D01*
X00402733Y00708080D01*
X00403578Y00708925D01*
X00404463Y00711060D01*
Y00713372D01*
X00403578Y00715507D01*
X00403060Y00716026D01*
X00403578Y00716545D01*
X00404463Y00718680D01*
Y00720992D01*
X00403578Y00723127D01*
X00401944Y00724762D01*
X00400558Y00725336D01*
Y00755290D01*
X00411737Y00766469D01*
X00413941D01*
X00416076Y00767354D01*
X00417710Y00768988D01*
X00418595Y00771123D01*
Y00773435D01*
X00417715Y00775558D01*
X00418470Y00775871D01*
X00420104Y00777505D01*
X00420989Y00779640D01*
Y00781952D01*
X00420104Y00784087D01*
X00418470Y00785722D01*
X00417438Y00786149D01*
Y00801116D01*
X00452934D01*
Y00786220D01*
D02*
G37*
G36*
X00412877Y00786131D02*
X00411888Y00785722D01*
X00410254Y00784087D01*
X00409369Y00781952D01*
Y00779640D01*
X00410248Y00777517D01*
X00409494Y00777205D01*
X00407859Y00775570D01*
X00406975Y00773435D01*
Y00771123D01*
X00407859Y00768988D01*
X00408311Y00768537D01*
X00397811Y00758037D01*
X00396969Y00756777D01*
X00396673Y00755290D01*
Y00725336D01*
X00396679Y00725307D01*
X00395362Y00724762D01*
X00393727Y00723127D01*
X00392843Y00720992D01*
Y00718680D01*
X00393727Y00716545D01*
X00394246Y00716026D01*
X00393727Y00715507D01*
X00392843Y00713372D01*
Y00711060D01*
X00393727Y00708925D01*
X00394573Y00708080D01*
X00393727Y00707234D01*
X00392843Y00705099D01*
Y00702787D01*
X00393727Y00700652D01*
X00394121Y00700258D01*
X00393727Y00699865D01*
X00392843Y00697730D01*
Y00695418D01*
X00393727Y00693283D01*
X00395362Y00691648D01*
X00396679Y00691103D01*
X00396673Y00691074D01*
Y00672929D01*
X00396723Y00672677D01*
X00396707Y00672421D01*
X00396870Y00671941D01*
X00396969Y00671442D01*
X00397112Y00671229D01*
X00397194Y00670986D01*
X00397529Y00670604D01*
X00397811Y00670182D01*
X00398024Y00670039D01*
X00398193Y00669847D01*
X00398649Y00669622D01*
X00399071Y00669340D01*
X00399235Y00669307D01*
X00399256Y00669295D01*
X00399485Y00667728D01*
X00398254Y00666497D01*
X00398253Y00666496D01*
X00397969Y00666100D01*
X00397969Y00666099D01*
X00397969Y00665338D01*
Y00663863D01*
X00392694D01*
X00363256Y00693300D01*
X00363477Y00693521D01*
X00364362Y00695656D01*
Y00697968D01*
X00363477Y00700103D01*
X00361843Y00701737D01*
X00359708Y00702622D01*
X00357396D01*
X00357378Y00702634D01*
Y00785876D01*
X00372618Y00801116D01*
X00412877D01*
Y00786131D01*
D02*
G37*
G36*
X01453517Y00785358D02*
X01453517Y00753586D01*
X01453468D01*
X01451333Y00752701D01*
X01449698Y00751067D01*
X01448814Y00748932D01*
Y00746620D01*
X01449698Y00744485D01*
X01449842Y00744342D01*
X01449698Y00744198D01*
X01448814Y00742063D01*
Y00739751D01*
X01449698Y00737616D01*
X01448814Y00735481D01*
Y00733169D01*
X01449698Y00731034D01*
X01449842Y00730890D01*
X01449698Y00730747D01*
X01448814Y00728612D01*
Y00726300D01*
X01449698Y00724165D01*
X01451333Y00722531D01*
X01453468Y00721646D01*
X01453517D01*
Y00718026D01*
X01453812Y00716539D01*
X01453914Y00716387D01*
X01453035Y00715507D01*
X01452150Y00713372D01*
Y00711060D01*
X01453035Y00708925D01*
X01453554Y00708406D01*
X01453035Y00707887D01*
X01452150Y00705752D01*
Y00703440D01*
X01453035Y00701305D01*
X01453554Y00700786D01*
X01453035Y00700267D01*
X01452150Y00698132D01*
Y00695820D01*
X01453035Y00693685D01*
X01453554Y00693166D01*
X01453035Y00692647D01*
X01452150Y00690512D01*
Y00688200D01*
X01453035Y00686065D01*
X01453471Y00685629D01*
X01452990Y00685147D01*
X01452105Y00683012D01*
Y00680701D01*
X01452990Y00678565D01*
X01454624Y00676931D01*
Y00658768D01*
X01449691D01*
X01449578Y00660280D01*
Y00660604D01*
X01448396Y00661786D01*
X01448131Y00662775D01*
X01447235Y00664327D01*
X01445967Y00665595D01*
X01444414Y00666492D01*
X01443425Y00666757D01*
X01441939Y00668243D01*
X01441785Y00668509D01*
X01440518Y00669777D01*
X01440252Y00669930D01*
X01413207Y00696975D01*
Y00725601D01*
X01414074Y00725960D01*
X01415708Y00727595D01*
X01416593Y00729730D01*
Y00732042D01*
X01415708Y00734177D01*
X01414074Y00735811D01*
X01413207Y00736171D01*
Y00782066D01*
X01414399D01*
Y00799457D01*
X01439418D01*
X01453517Y00785358D01*
D02*
G37*
G36*
X01409797Y00785898D02*
X01410460Y00784813D01*
X01409618Y00783553D01*
X01409322Y00782066D01*
Y00736570D01*
X01407492Y00735811D01*
X01405858Y00734177D01*
X01404973Y00732042D01*
Y00729730D01*
X01405858Y00727595D01*
X01407492Y00725960D01*
X01409322Y00725202D01*
Y00696975D01*
X01409618Y00695489D01*
X01410460Y00694228D01*
X01437505Y00667183D01*
X01437843Y00666957D01*
X01438966Y00665835D01*
X01439192Y00665496D01*
X01440678Y00664010D01*
X01440891Y00663868D01*
X01441060Y00663675D01*
X01441516Y00663450D01*
X01441939Y00663168D01*
X01442190Y00663118D01*
X01442420Y00663005D01*
X01442915Y00662872D01*
X01443425Y00662577D01*
Y00659246D01*
X01441707Y00657527D01*
X01407747D01*
X01370838Y00694436D01*
Y00696666D01*
X01373197Y00700197D01*
X01375105Y00704803D01*
X01376078Y00709693D01*
Y00714679D01*
X01375105Y00719569D01*
X01373197Y00724175D01*
X01370838Y00727706D01*
Y00799651D01*
X01396043D01*
X01409797Y00785898D01*
D02*
G37*
G36*
X00922834Y00782066D02*
X00922890Y00781784D01*
X00922878Y00781524D01*
X00921777Y00781068D01*
X00920143Y00779434D01*
X00919258Y00777299D01*
Y00774987D01*
X00920143Y00772852D01*
X00921510Y00771484D01*
X00920143Y00770117D01*
X00919258Y00767982D01*
Y00765670D01*
X00920143Y00763535D01*
X00920997Y00762681D01*
X00921733Y00761851D01*
X00920997Y00761021D01*
X00920143Y00760167D01*
X00919258Y00758032D01*
Y00755721D01*
X00920143Y00753585D01*
X00921402Y00752326D01*
X00920143Y00751067D01*
X00919258Y00748932D01*
Y00746620D01*
X00920143Y00744485D01*
X00920825Y00743802D01*
X00867705Y00690682D01*
X00866863Y00689421D01*
X00866567Y00687935D01*
Y00653664D01*
X00865405Y00652502D01*
X00860550D01*
X00859850Y00653414D01*
Y00655207D01*
X00859386Y00656939D01*
X00858489Y00658492D01*
X00857221Y00659760D01*
X00855668Y00660657D01*
X00853936Y00661121D01*
X00852143D01*
X00851168Y00660859D01*
X00850895Y00661333D01*
X00849627Y00662601D01*
X00848074Y00663497D01*
X00847927Y00663537D01*
X00845853Y00665611D01*
Y00677779D01*
X00847093Y00678293D01*
X00848727Y00679927D01*
X00849612Y00682063D01*
Y00684374D01*
X00848727Y00686509D01*
X00847673Y00687564D01*
X00848714Y00688605D01*
X00849598Y00690740D01*
Y00693052D01*
X00848714Y00695187D01*
X00848195Y00695706D01*
X00848714Y00696225D01*
X00849598Y00698360D01*
Y00700672D01*
X00848714Y00702807D01*
X00848195Y00703326D01*
X00848714Y00703845D01*
X00849598Y00705980D01*
Y00708292D01*
X00848714Y00710427D01*
X00847079Y00712061D01*
X00845853Y00712569D01*
Y00733579D01*
X00846336D01*
X00848472Y00734463D01*
X00850106Y00736097D01*
X00850991Y00738233D01*
Y00739391D01*
X00852937D01*
X00855073Y00740275D01*
X00856707Y00741910D01*
X00857591Y00744045D01*
Y00745256D01*
X00858914D01*
X00861049Y00746141D01*
X00862683Y00747775D01*
X00863568Y00749911D01*
Y00751066D01*
X00865391D01*
X00867526Y00751951D01*
X00869161Y00753585D01*
X00870045Y00755721D01*
Y00758032D01*
X00869450Y00759468D01*
X00884516Y00774534D01*
Y00782066D01*
X00884809D01*
Y00798501D01*
X00922834D01*
Y00782066D01*
D02*
G37*
%LPC*%
G36*
X00428125Y01719786D02*
X00426331D01*
X00424599Y01719322D01*
X00423047Y01718425D01*
X00421779Y01717157D01*
X00420882Y01715605D01*
X00420418Y01713873D01*
Y01712079D01*
X00420882Y01710347D01*
X00421779Y01708795D01*
X00423047Y01707527D01*
X00424599Y01706630D01*
X00426331Y01706166D01*
X00428125D01*
X00429857Y01706630D01*
X00431409Y01707527D01*
X00432677Y01708795D01*
X00433574Y01710347D01*
X00434038Y01712079D01*
Y01713873D01*
X00433574Y01715605D01*
X00432677Y01717157D01*
X00431409Y01718425D01*
X00429857Y01719322D01*
X00428125Y01719786D01*
D02*
G37*
G36*
X00402685D02*
X00400891D01*
X00399159Y01719322D01*
X00397607Y01718425D01*
X00396339Y01717157D01*
X00395442Y01715605D01*
X00394978Y01713873D01*
Y01712079D01*
X00395442Y01710347D01*
X00396339Y01708795D01*
X00397607Y01707527D01*
X00399159Y01706630D01*
X00400891Y01706166D01*
X00402685D01*
X00404417Y01706630D01*
X00405969Y01707527D01*
X00407237Y01708795D01*
X00408134Y01710347D01*
X00408598Y01712079D01*
Y01713873D01*
X00408134Y01715605D01*
X00407237Y01717157D01*
X00405969Y01718425D01*
X00404417Y01719322D01*
X00402685Y01719786D01*
D02*
G37*
G36*
X00377324D02*
X00375532D01*
X00373799Y01719322D01*
X00372247Y01718425D01*
X00370979Y01717157D01*
X00370082Y01715605D01*
X00369618Y01713873D01*
Y01712079D01*
X00370082Y01710347D01*
X00370979Y01708795D01*
X00372247Y01707527D01*
X00373799Y01706630D01*
X00375532Y01706166D01*
X00377324D01*
X00379057Y01706630D01*
X00380609Y01707527D01*
X00381877Y01708795D01*
X00382774Y01710347D01*
X00383238Y01712079D01*
Y01713873D01*
X00382774Y01715605D01*
X00381877Y01717157D01*
X00380609Y01718425D01*
X00379057Y01719322D01*
X00377324Y01719786D01*
D02*
G37*
G36*
X00351925D02*
X00350131D01*
X00348399Y01719322D01*
X00346847Y01718425D01*
X00345579Y01717157D01*
X00344682Y01715605D01*
X00344218Y01713873D01*
Y01712079D01*
X00344682Y01710347D01*
X00345579Y01708795D01*
X00346847Y01707527D01*
X00348399Y01706630D01*
X00350131Y01706166D01*
X00351925D01*
X00353657Y01706630D01*
X00355209Y01707527D01*
X00356477Y01708795D01*
X00357374Y01710347D01*
X00357838Y01712079D01*
Y01713873D01*
X00357374Y01715605D01*
X00356477Y01717157D01*
X00355209Y01718425D01*
X00353657Y01719322D01*
X00351925Y01719786D01*
D02*
G37*
G36*
X00288424D02*
X00286632D01*
X00284899Y01719322D01*
X00283347Y01718425D01*
X00282079Y01717157D01*
X00281182Y01715605D01*
X00280718Y01713873D01*
Y01712079D01*
X00281182Y01710347D01*
X00282079Y01708795D01*
X00283347Y01707527D01*
X00284899Y01706630D01*
X00286632Y01706166D01*
X00288424D01*
X00290157Y01706630D01*
X00291709Y01707527D01*
X00292977Y01708795D01*
X00293874Y01710347D01*
X00294338Y01712079D01*
Y01713873D01*
X00293874Y01715605D01*
X00292977Y01717157D01*
X00291709Y01718425D01*
X00290157Y01719322D01*
X00288424Y01719786D01*
D02*
G37*
G36*
X01066994Y01715206D02*
X01064682D01*
X01062547Y01714321D01*
X01060912Y01712687D01*
X01060028Y01710552D01*
Y01708240D01*
X01060912Y01706105D01*
X01062547Y01704471D01*
X01064682Y01703586D01*
X01066994D01*
X01069129Y01704471D01*
X01070763Y01706105D01*
X01071648Y01708240D01*
Y01710552D01*
X01070763Y01712687D01*
X01069129Y01714321D01*
X01066994Y01715206D01*
D02*
G37*
G36*
X01091644Y01715164D02*
X01089332D01*
X01087197Y01714279D01*
X01085562Y01712645D01*
X01084678Y01710509D01*
Y01708198D01*
X01085562Y01706062D01*
X01087197Y01704428D01*
X01089332Y01703544D01*
X01091644D01*
X01093779Y01704428D01*
X01095413Y01706062D01*
X01096298Y01708198D01*
Y01710509D01*
X01095413Y01712645D01*
X01093779Y01714279D01*
X01091644Y01715164D01*
D02*
G37*
G36*
X01347734Y01714976D02*
X01345422D01*
X01343287Y01714091D01*
X01341653Y01712457D01*
X01340768Y01710322D01*
Y01708010D01*
X01341653Y01705875D01*
X01343287Y01704241D01*
X01345422Y01703356D01*
X01347734D01*
X01349869Y01704241D01*
X01351503Y01705875D01*
X01352388Y01708010D01*
Y01710322D01*
X01351503Y01712457D01*
X01349869Y01714091D01*
X01347734Y01714976D01*
D02*
G37*
G36*
X01322734Y01714666D02*
X01320422D01*
X01318287Y01713781D01*
X01316653Y01712147D01*
X01315768Y01710012D01*
Y01707700D01*
X01316653Y01705565D01*
X01318287Y01703931D01*
X01320422Y01703046D01*
X01322734D01*
X01324869Y01703931D01*
X01326503Y01705565D01*
X01327388Y01707700D01*
Y01710012D01*
X01326503Y01712147D01*
X01324869Y01713781D01*
X01322734Y01714666D01*
D02*
G37*
G36*
X00930034Y01709896D02*
X00927722D01*
X00925587Y01709012D01*
X00923952Y01707377D01*
X00923068Y01705242D01*
Y01702930D01*
X00923952Y01700795D01*
X00925587Y01699160D01*
X00927722Y01698276D01*
X00930034D01*
X00932169Y01699160D01*
X00933803Y01700795D01*
X00934688Y01702930D01*
Y01705242D01*
X00933803Y01707377D01*
X00932169Y01709012D01*
X00930034Y01709896D01*
D02*
G37*
G36*
X00791848Y01719456D02*
X00768728D01*
Y01696336D01*
X00791848D01*
Y01719456D01*
D02*
G37*
G36*
X00756410D02*
X00753366D01*
X00750426Y01718668D01*
X00747790Y01717146D01*
X00745638Y01714994D01*
X00744116Y01712358D01*
X00743328Y01709418D01*
Y01706374D01*
X00744116Y01703434D01*
X00745638Y01700798D01*
X00747790Y01698646D01*
X00750426Y01697124D01*
X00753366Y01696336D01*
X00756410D01*
X00759350Y01697124D01*
X00761986Y01698646D01*
X00764138Y01700798D01*
X00765660Y01703434D01*
X00766448Y01706374D01*
Y01709418D01*
X00765660Y01712358D01*
X00764138Y01714994D01*
X00761986Y01717146D01*
X00759350Y01718668D01*
X00756410Y01719456D01*
D02*
G37*
G36*
X00731010D02*
X00727966D01*
X00725026Y01718668D01*
X00722390Y01717146D01*
X00720238Y01714994D01*
X00718716Y01712358D01*
X00717928Y01709418D01*
Y01706374D01*
X00718716Y01703434D01*
X00720238Y01700798D01*
X00722390Y01698646D01*
X00725026Y01697124D01*
X00727966Y01696336D01*
X00731010D01*
X00733950Y01697124D01*
X00736586Y01698646D01*
X00738738Y01700798D01*
X00740260Y01703434D01*
X00741048Y01706374D01*
Y01709418D01*
X00740260Y01712358D01*
X00738738Y01714994D01*
X00736586Y01717146D01*
X00733950Y01718668D01*
X00731010Y01719456D01*
D02*
G37*
G36*
X00326525Y01696926D02*
X00324731D01*
X00322999Y01696462D01*
X00321447Y01695565D01*
X00320179Y01694297D01*
X00319282Y01692745D01*
X00318818Y01691013D01*
Y01689220D01*
X00319282Y01687487D01*
X00320179Y01685935D01*
X00321447Y01684667D01*
X00322999Y01683770D01*
X00324731Y01683306D01*
X00326525D01*
X00328257Y01683770D01*
X00329809Y01684667D01*
X00331077Y01685935D01*
X00331974Y01687487D01*
X00332438Y01689220D01*
Y01691013D01*
X00331974Y01692745D01*
X00331077Y01694297D01*
X00329809Y01695565D01*
X00328257Y01696462D01*
X00326525Y01696926D01*
D02*
G37*
G36*
X00301124D02*
X00299331D01*
X00297599Y01696462D01*
X00296047Y01695565D01*
X00294779Y01694297D01*
X00293882Y01692745D01*
X00293418Y01691013D01*
Y01689220D01*
X00293882Y01687487D01*
X00294779Y01685935D01*
X00296047Y01684667D01*
X00297599Y01683770D01*
X00299331Y01683306D01*
X00301124D01*
X00302857Y01683770D01*
X00304409Y01684667D01*
X00305677Y01685935D01*
X00306574Y01687487D01*
X00307038Y01689220D01*
Y01691013D01*
X00306574Y01692745D01*
X00305677Y01694297D01*
X00304409Y01695565D01*
X00302857Y01696462D01*
X00301124Y01696926D01*
D02*
G37*
G36*
X00351925Y01694386D02*
X00350131D01*
X00348399Y01693922D01*
X00346847Y01693025D01*
X00345579Y01691757D01*
X00344682Y01690205D01*
X00344218Y01688472D01*
Y01686680D01*
X00344682Y01684947D01*
X00345579Y01683395D01*
X00346847Y01682127D01*
X00348399Y01681230D01*
X00350131Y01680766D01*
X00351925D01*
X00353657Y01681230D01*
X00355209Y01682127D01*
X00356477Y01683395D01*
X00357374Y01684947D01*
X00357838Y01686680D01*
Y01688472D01*
X00357374Y01690205D01*
X00356477Y01691757D01*
X00355209Y01693025D01*
X00353657Y01693922D01*
X00351925Y01694386D01*
D02*
G37*
G36*
X00603644Y01688362D02*
X00601332D01*
X00599197Y01687478D01*
X00597562Y01685843D01*
X00596678Y01683708D01*
Y01681396D01*
X00597562Y01679261D01*
X00599197Y01677626D01*
X00601332Y01676742D01*
X00603644D01*
X00605779Y01677626D01*
X00607413Y01679261D01*
X00608298Y01681396D01*
Y01683708D01*
X00607413Y01685843D01*
X00605779Y01687478D01*
X00603644Y01688362D01*
D02*
G37*
G36*
X00815734Y01683338D02*
X00813422D01*
X00811287Y01682453D01*
X00809652Y01680819D01*
X00808768Y01678684D01*
Y01676372D01*
X00809652Y01674237D01*
X00811287Y01672603D01*
X00813422Y01671718D01*
X00815734D01*
X00817869Y01672603D01*
X00819503Y01674237D01*
X00820388Y01676372D01*
Y01678684D01*
X00819503Y01680819D01*
X00817869Y01682453D01*
X00815734Y01683338D01*
D02*
G37*
G36*
X01402094Y01671960D02*
X01399782D01*
X01397647Y01671075D01*
X01396688Y01670116D01*
X01395858Y01669547D01*
X01395028Y01670116D01*
X01394069Y01671075D01*
X01391934Y01671960D01*
X01389622D01*
X01387487Y01671075D01*
X01386528Y01670116D01*
X01385698Y01669547D01*
X01384868Y01670116D01*
X01383909Y01671075D01*
X01381774Y01671960D01*
X01379462D01*
X01377327Y01671075D01*
X01375692Y01669441D01*
X01374808Y01667306D01*
Y01664994D01*
X01375692Y01662859D01*
X01377327Y01661225D01*
X01379462Y01660340D01*
X01381774D01*
X01383909Y01661225D01*
X01384868Y01662184D01*
X01385698Y01662753D01*
X01386528Y01662184D01*
X01387487Y01661225D01*
X01389622Y01660340D01*
X01391934D01*
X01394069Y01661225D01*
X01395028Y01662184D01*
X01395858Y01662753D01*
X01396688Y01662184D01*
X01397647Y01661225D01*
X01399782Y01660340D01*
X01402094D01*
X01404229Y01661225D01*
X01405863Y01662859D01*
X01406748Y01664994D01*
Y01667306D01*
X01405863Y01669441D01*
X01404229Y01671075D01*
X01402094Y01671960D01*
D02*
G37*
G36*
X01153554Y01669826D02*
X01151242D01*
X01149107Y01668941D01*
X01148148Y01667982D01*
X01147318Y01667413D01*
X01146488Y01667982D01*
X01145529Y01668941D01*
X01143394Y01669826D01*
X01141082D01*
X01138947Y01668941D01*
X01137988Y01667982D01*
X01137158Y01667413D01*
X01136328Y01667982D01*
X01135369Y01668941D01*
X01133234Y01669826D01*
X01130922D01*
X01128787Y01668941D01*
X01127152Y01667307D01*
X01126268Y01665172D01*
Y01662860D01*
X01127152Y01660725D01*
X01128787Y01659091D01*
X01130922Y01658206D01*
X01133234D01*
X01135369Y01659091D01*
X01136328Y01660050D01*
X01137158Y01660619D01*
X01137988Y01660050D01*
X01138947Y01659091D01*
X01141082Y01658206D01*
X01143394D01*
X01145529Y01659091D01*
X01146488Y01660050D01*
X01147318Y01660619D01*
X01148148Y01660050D01*
X01149107Y01659091D01*
X01151242Y01658206D01*
X01153554D01*
X01155689Y01659091D01*
X01157324Y01660725D01*
X01158208Y01662860D01*
Y01665172D01*
X01157324Y01667307D01*
X01155689Y01668941D01*
X01153554Y01669826D01*
D02*
G37*
G36*
X00377324Y01677876D02*
X00375532D01*
X00373799Y01677412D01*
X00372247Y01676515D01*
X00370979Y01675247D01*
X00370082Y01673695D01*
X00369618Y01671962D01*
Y01670170D01*
X00370082Y01668437D01*
X00370979Y01666885D01*
X00372247Y01665617D01*
X00373799Y01664720D01*
X00375532Y01664256D01*
X00377324D01*
X00379057Y01664720D01*
X00380609Y01665617D01*
X00381877Y01666885D01*
X00382774Y01668437D01*
X00383238Y01670170D01*
Y01671962D01*
X00382774Y01673695D01*
X00381877Y01675247D01*
X00380609Y01676515D01*
X00379057Y01677412D01*
X00377324Y01677876D01*
D02*
G37*
G36*
X00463583Y01686246D02*
X00460473D01*
X00457469Y01685441D01*
X00454776Y01683886D01*
X00452578Y01681687D01*
X00451023Y01678994D01*
X00450218Y01675991D01*
Y01672881D01*
X00451023Y01669877D01*
X00452578Y01667184D01*
X00454776Y01664986D01*
X00457469Y01663431D01*
X00460473Y01662626D01*
X00463583D01*
X00466586Y01663431D01*
X00469280Y01664986D01*
X00471478Y01667184D01*
X00473033Y01669877D01*
X00473838Y01672881D01*
Y01675991D01*
X00473033Y01678994D01*
X00471478Y01681687D01*
X00469280Y01683886D01*
X00466586Y01685441D01*
X00463583Y01686246D01*
D02*
G37*
G36*
X00228883D02*
X00225773D01*
X00222770Y01685441D01*
X00220077Y01683886D01*
X00217878Y01681687D01*
X00216323Y01678994D01*
X00215518Y01675991D01*
Y01672881D01*
X00216323Y01669877D01*
X00217878Y01667184D01*
X00220077Y01664986D01*
X00222770Y01663431D01*
X00225773Y01662626D01*
X00228883D01*
X00231887Y01663431D01*
X00234580Y01664986D01*
X00236778Y01667184D01*
X00238333Y01669877D01*
X00239138Y01672881D01*
Y01675991D01*
X00238333Y01678994D01*
X00236778Y01681687D01*
X00234580Y01683886D01*
X00231887Y01685441D01*
X00228883Y01686246D01*
D02*
G37*
G36*
X01587418Y01691846D02*
X01546455D01*
Y01678226D01*
X01548553D01*
Y01672176D01*
X01546908D01*
Y01660176D01*
X01537668D01*
Y01672176D01*
X01537403D01*
X01536554Y01673446D01*
X01536668Y01673720D01*
Y01676032D01*
X01535784Y01678167D01*
X01534149Y01679801D01*
X01532014Y01680686D01*
X01529702D01*
X01527567Y01679801D01*
X01525932Y01678167D01*
X01525778Y01677794D01*
X01524508D01*
X01524353Y01678167D01*
X01522719Y01679801D01*
X01520584Y01680686D01*
X01518272D01*
X01516137Y01679801D01*
X01514503Y01678167D01*
X01514348Y01677794D01*
X01513078D01*
X01512923Y01678167D01*
X01511289Y01679801D01*
X01509154Y01680686D01*
X01506842D01*
X01504707Y01679801D01*
X01503073Y01678167D01*
X01502918Y01677794D01*
X01501648D01*
X01501494Y01678167D01*
X01499859Y01679801D01*
X01497724Y01680686D01*
X01495412D01*
X01493277Y01679801D01*
X01491642Y01678167D01*
X01491488Y01677794D01*
X01490218D01*
X01490063Y01678167D01*
X01488429Y01679801D01*
X01486294Y01680686D01*
X01483982D01*
X01481847Y01679801D01*
X01480213Y01678167D01*
X01479328Y01676032D01*
Y01673720D01*
X01479442Y01673446D01*
X01478593Y01672176D01*
X01478328D01*
Y01656556D01*
Y01644556D01*
X01478736D01*
X01479328Y01643671D01*
Y01641359D01*
X01480213Y01639224D01*
X01481847Y01637589D01*
X01483982Y01636705D01*
X01486294D01*
X01488429Y01637589D01*
X01490063Y01639224D01*
X01490218Y01639597D01*
X01491488D01*
X01491642Y01639224D01*
X01493277Y01637589D01*
X01495412Y01636705D01*
X01497724D01*
X01499859Y01637589D01*
X01501494Y01639224D01*
X01501648Y01639597D01*
X01502918D01*
X01503073Y01639224D01*
X01504707Y01637589D01*
X01506842Y01636705D01*
X01509154D01*
X01511289Y01637589D01*
X01512923Y01639224D01*
X01513051Y01639530D01*
X01514321D01*
X01514503Y01639091D01*
X01516137Y01637457D01*
X01518272Y01636572D01*
X01520584D01*
X01522719Y01637457D01*
X01524353Y01639091D01*
X01525238Y01641226D01*
X01526508Y01641286D01*
X01526748Y01641226D01*
X01527632Y01639091D01*
X01529267Y01637457D01*
X01531402Y01636572D01*
X01533714D01*
X01535849Y01637457D01*
X01537484Y01639091D01*
X01537660Y01639517D01*
X01538930D01*
X01539106Y01639091D01*
X01540741Y01637457D01*
X01542876Y01636572D01*
X01545188D01*
X01547323Y01637457D01*
X01548741Y01638875D01*
X01548793Y01638865D01*
X01550427Y01637231D01*
X01552562Y01636346D01*
X01554874D01*
X01557009Y01637231D01*
X01558643Y01638865D01*
X01558746Y01639113D01*
X01560016D01*
X01560222Y01638615D01*
X01561857Y01636981D01*
X01563992Y01636096D01*
X01566304D01*
X01568439Y01636981D01*
X01569378Y01637919D01*
X01570317Y01636981D01*
X01572452Y01636096D01*
X01574764D01*
X01576899Y01636981D01*
X01578533Y01638615D01*
X01579873D01*
X01581507Y01636981D01*
X01583642Y01636096D01*
X01585954D01*
X01588089Y01636981D01*
X01589154Y01638046D01*
X01589984Y01638479D01*
X01590814Y01638046D01*
X01591879Y01636981D01*
X01594014Y01636096D01*
X01596326D01*
X01598461Y01636981D01*
X01600096Y01638615D01*
X01600483Y01639550D01*
X01601857D01*
X01602245Y01638615D01*
X01603879Y01636981D01*
X01606014Y01636096D01*
X01608326D01*
X01610461Y01636981D01*
X01612095Y01638615D01*
X01612726Y01640137D01*
X01614530Y01641942D01*
X01615653Y01643622D01*
X01615839Y01644556D01*
X01629122D01*
Y01645892D01*
X01632499D01*
X01633751Y01645556D01*
X01635544D01*
X01637277Y01646020D01*
X01638829Y01646917D01*
X01640097Y01648185D01*
X01640994Y01649737D01*
X01641458Y01651469D01*
Y01653262D01*
X01640994Y01654995D01*
X01640097Y01656547D01*
X01638829Y01657815D01*
X01637277Y01658712D01*
X01635544Y01659176D01*
X01633751D01*
X01632499Y01658840D01*
X01629122D01*
Y01672176D01*
X01617413D01*
X01616564Y01673446D01*
X01616678Y01673720D01*
Y01676032D01*
X01615793Y01678167D01*
X01614159Y01679801D01*
X01612024Y01680686D01*
X01609712D01*
X01607577Y01679801D01*
X01605943Y01678167D01*
X01605788Y01677794D01*
X01604518D01*
X01604364Y01678167D01*
X01602729Y01679801D01*
X01600594Y01680686D01*
X01598282D01*
X01596147Y01679801D01*
X01594512Y01678167D01*
X01594358Y01677794D01*
X01593088D01*
X01592934Y01678167D01*
X01592227Y01678874D01*
X01592351Y01680138D01*
X01592831Y01680458D01*
X01594234Y01682558D01*
X01594727Y01685036D01*
X01594234Y01687514D01*
X01592831Y01689614D01*
X01590730Y01691018D01*
X01588253Y01691510D01*
X01587418D01*
Y01691846D01*
D02*
G37*
G36*
X00948988D02*
X00909178D01*
Y01678226D01*
X00911495D01*
Y01672176D01*
X00910068D01*
Y01660176D01*
X00900128D01*
Y01672176D01*
X00899422D01*
Y01674136D01*
X00898537Y01676271D01*
X00896903Y01677905D01*
X00894768Y01678790D01*
X00892456D01*
X00890321Y01677905D01*
X00888687Y01676271D01*
X00888437Y01675670D01*
X00887063D01*
X00886814Y01676271D01*
X00885179Y01677905D01*
X00883044Y01678790D01*
X00880732D01*
X00878597Y01677905D01*
X00876963Y01676271D01*
X00876611Y01675422D01*
X00875236D01*
X00874884Y01676271D01*
X00873250Y01677905D01*
X00871115Y01678790D01*
X00868803D01*
X00866668Y01677905D01*
X00865034Y01676271D01*
X00864844Y01675812D01*
X00863574D01*
X00863383Y01676271D01*
X00861749Y01677905D01*
X00859614Y01678790D01*
X00857302D01*
X00855167Y01677905D01*
X00853532Y01676271D01*
X00853428Y01676019D01*
X00852158D01*
X00852054Y01676271D01*
X00850419Y01677905D01*
X00848284Y01678790D01*
X00845972D01*
X00843837Y01677905D01*
X00842203Y01676271D01*
X00841318Y01674136D01*
Y01672176D01*
X00840318D01*
Y01656556D01*
Y01644556D01*
X00846613D01*
X00848138Y01643031D01*
Y01642940D01*
X00849023Y01640805D01*
X00850657Y01639171D01*
X00852792Y01638286D01*
X00855104D01*
X00857239Y01639171D01*
X00858874Y01640805D01*
X00859028Y01641178D01*
X00860298D01*
X00860452Y01640805D01*
X00862087Y01639171D01*
X00864222Y01638286D01*
X00866534D01*
X00868669Y01639171D01*
X00870303Y01640805D01*
X00870770Y01641932D01*
X00872269Y01642230D01*
X00872770Y01641729D01*
X00873152Y01640805D01*
X00874787Y01639171D01*
X00876922Y01638286D01*
X00879234D01*
X00881369Y01639171D01*
X00882503Y01640305D01*
X00883333Y01640663D01*
X00884163Y01640305D01*
X00885297Y01639171D01*
X00887432Y01638286D01*
X00889744D01*
X00891879Y01639171D01*
X00893513Y01640805D01*
X00893878Y01641685D01*
X00893976Y01641740D01*
X00895275D01*
X00895663Y01640805D01*
X00897297Y01639171D01*
X00899432Y01638286D01*
X00901744D01*
X00903879Y01639171D01*
X00904958Y01640250D01*
X00905788Y01640667D01*
X00906618Y01640250D01*
X00907697Y01639171D01*
X00909832Y01638286D01*
X00912144D01*
X00913960Y01639039D01*
X00915777Y01638286D01*
X00918089D01*
X00919960Y01639061D01*
X00921832Y01638286D01*
X00924144D01*
X00926279Y01639171D01*
X00927513Y01640404D01*
X00928747Y01639171D01*
X00930882Y01638286D01*
X00933194D01*
X00935329Y01639171D01*
X00936963Y01640805D01*
X00937566Y01642259D01*
X00937695Y01642304D01*
X00939052Y01641989D01*
X00939542Y01640805D01*
X00941177Y01639171D01*
X00943312Y01638286D01*
X00945624D01*
X00947759Y01639171D01*
X00949393Y01640805D01*
X00949496Y01641052D01*
X00950870D01*
X00950973Y01640805D01*
X00952607Y01639171D01*
X00954742Y01638286D01*
X00957054D01*
X00959189Y01639171D01*
X00960824Y01640805D01*
X00960926Y01641052D01*
X00962300D01*
X00962402Y01640805D01*
X00964037Y01639171D01*
X00966172Y01638286D01*
X00968484D01*
X00970619Y01639171D01*
X00972253Y01640805D01*
X00972884Y01642327D01*
X00975113Y01644556D01*
X00981408D01*
Y01657556D01*
X00998302D01*
X01001918Y01653940D01*
Y01648124D01*
X01001758Y01647529D01*
Y01645735D01*
X01002222Y01644003D01*
X01003119Y01642451D01*
X01004387Y01641183D01*
X01005939Y01640286D01*
X01007671Y01639822D01*
X01009464D01*
X01011197Y01640286D01*
X01012749Y01641183D01*
X01014017Y01642451D01*
X01014914Y01644003D01*
X01015378Y01645735D01*
Y01647529D01*
X01014914Y01649261D01*
X01014866Y01649343D01*
Y01656622D01*
X01014373Y01659100D01*
X01012970Y01661200D01*
X01007458Y01666712D01*
Y01671176D01*
X00981408D01*
Y01672176D01*
X00981048D01*
X00980294Y01673446D01*
X00980408Y01673720D01*
Y01676032D01*
X00979523Y01678167D01*
X00977889Y01679801D01*
X00975754Y01680686D01*
X00973442D01*
X00971307Y01679801D01*
X00969672Y01678167D01*
X00969518Y01677794D01*
X00968248D01*
X00968093Y01678167D01*
X00966459Y01679801D01*
X00964324Y01680686D01*
X00962012D01*
X00959877Y01679801D01*
X00958242Y01678167D01*
X00958088Y01677794D01*
X00956818D01*
X00956664Y01678167D01*
X00955892Y01678939D01*
X00956016Y01680203D01*
X00956316Y01680403D01*
X00957720Y01682503D01*
X00958212Y01684981D01*
X00957720Y01687459D01*
X00956316Y01689559D01*
X00956261Y01689614D01*
X00954161Y01691018D01*
X00951683Y01691510D01*
X00948988D01*
Y01691846D01*
D02*
G37*
G36*
X00390024Y01668986D02*
X00388232D01*
X00386499Y01668522D01*
X00384947Y01667625D01*
X00383679Y01666357D01*
X00382782Y01664805D01*
X00382318Y01663073D01*
Y01661279D01*
X00382782Y01659547D01*
X00383679Y01657995D01*
X00384947Y01656727D01*
X00386499Y01655830D01*
X00388232Y01655366D01*
X00390024D01*
X00391757Y01655830D01*
X00393309Y01656727D01*
X00394577Y01657995D01*
X00395474Y01659547D01*
X00395938Y01661279D01*
Y01663073D01*
X00395474Y01664805D01*
X00394577Y01666357D01*
X00393309Y01667625D01*
X00391757Y01668522D01*
X00390024Y01668986D01*
D02*
G37*
G36*
X00800113Y01666566D02*
X00797801D01*
X00795666Y01665681D01*
X00794032Y01664047D01*
X00793147Y01661912D01*
Y01659600D01*
X00794032Y01657465D01*
X00795666Y01655831D01*
X00797801Y01654946D01*
X00800113D01*
X00802248Y01655831D01*
X00803883Y01657465D01*
X00804767Y01659600D01*
Y01661912D01*
X00803883Y01664047D01*
X00802248Y01665681D01*
X00800113Y01666566D01*
D02*
G37*
G36*
X00440825Y01665176D02*
X00439031D01*
X00437299Y01664712D01*
X00435747Y01663815D01*
X00434479Y01662547D01*
X00433582Y01660995D01*
X00433118Y01659263D01*
Y01657469D01*
X00433582Y01655737D01*
X00434479Y01654185D01*
X00435747Y01652917D01*
X00437299Y01652020D01*
X00439031Y01651556D01*
X00440825D01*
X00442557Y01652020D01*
X00444109Y01652917D01*
X00445377Y01654185D01*
X00446274Y01655737D01*
X00446738Y01657469D01*
Y01659263D01*
X00446274Y01660995D01*
X00445377Y01662547D01*
X00444109Y01663815D01*
X00442557Y01664712D01*
X00440825Y01665176D01*
D02*
G37*
G36*
X00326525D02*
X00324731D01*
X00322999Y01664712D01*
X00321447Y01663815D01*
X00320179Y01662547D01*
X00319282Y01660995D01*
X00318818Y01659263D01*
Y01657469D01*
X00319282Y01655737D01*
X00320179Y01654185D01*
X00321447Y01652917D01*
X00322999Y01652020D01*
X00324731Y01651556D01*
X00326525D01*
X00328257Y01652020D01*
X00329809Y01652917D01*
X00331077Y01654185D01*
X00331974Y01655737D01*
X00332438Y01657469D01*
Y01659263D01*
X00331974Y01660995D01*
X00331077Y01662547D01*
X00329809Y01663815D01*
X00328257Y01664712D01*
X00326525Y01665176D01*
D02*
G37*
G36*
X01100344Y01655636D02*
X01098032D01*
X01095897Y01654751D01*
X01094263Y01653117D01*
X01093378Y01650982D01*
Y01648670D01*
X01094263Y01646535D01*
X01095897Y01644901D01*
X01098032Y01644016D01*
X01100344D01*
X01102479Y01644901D01*
X01104113Y01646535D01*
X01104998Y01648670D01*
Y01650982D01*
X01104113Y01653117D01*
X01102479Y01654751D01*
X01100344Y01655636D01*
D02*
G37*
G36*
X01351674Y01655336D02*
X01349362D01*
X01347227Y01654451D01*
X01345592Y01652817D01*
X01344708Y01650682D01*
Y01648370D01*
X01345592Y01646235D01*
X01347227Y01644601D01*
X01349362Y01643716D01*
X01351674D01*
X01353809Y01644601D01*
X01355444Y01646235D01*
X01356328Y01648370D01*
Y01650682D01*
X01355444Y01652817D01*
X01353809Y01654451D01*
X01351674Y01655336D01*
D02*
G37*
G36*
X00428125Y01640496D02*
X00426331D01*
X00424599Y01640032D01*
X00423047Y01639135D01*
X00421779Y01637867D01*
X00421611Y01637578D01*
X00420145D01*
X00419977Y01637867D01*
X00418709Y01639135D01*
X00417157Y01640032D01*
X00415424Y01640496D01*
X00413632D01*
X00411899Y01640032D01*
X00410347Y01639135D01*
X00409079Y01637867D01*
X00408891Y01637543D01*
X00407425D01*
X00407237Y01637867D01*
X00405969Y01639135D01*
X00404417Y01640032D01*
X00402685Y01640496D01*
X00400891D01*
X00399159Y01640032D01*
X00397607Y01639135D01*
X00396339Y01637867D01*
X00395442Y01636315D01*
X00394978Y01634583D01*
Y01632789D01*
X00395442Y01631057D01*
X00396339Y01629505D01*
X00397607Y01628237D01*
X00399159Y01627340D01*
X00400891Y01626876D01*
X00402685D01*
X00404417Y01627340D01*
X00405969Y01628237D01*
X00407237Y01629505D01*
X00407425Y01629829D01*
X00408891D01*
X00409079Y01629505D01*
X00410347Y01628237D01*
X00411899Y01627340D01*
X00413632Y01626876D01*
X00415424D01*
X00417157Y01627340D01*
X00418709Y01628237D01*
X00419977Y01629505D01*
X00420145Y01629794D01*
X00421611D01*
X00421779Y01629505D01*
X00423047Y01628237D01*
X00424599Y01627340D01*
X00426331Y01626876D01*
X00428125D01*
X00429857Y01627340D01*
X00431409Y01628237D01*
X00432677Y01629505D01*
X00433574Y01631057D01*
X00434038Y01632789D01*
Y01634583D01*
X00433574Y01636315D01*
X00432677Y01637867D01*
X00431409Y01639135D01*
X00429857Y01640032D01*
X00428125Y01640496D01*
D02*
G37*
G36*
X00288424D02*
X00286632D01*
X00284899Y01640032D01*
X00283347Y01639135D01*
X00282079Y01637867D01*
X00281911Y01637578D01*
X00280445D01*
X00280277Y01637867D01*
X00279009Y01639135D01*
X00277457Y01640032D01*
X00275725Y01640496D01*
X00273932D01*
X00272199Y01640032D01*
X00270647Y01639135D01*
X00269379Y01637867D01*
X00269211Y01637578D01*
X00267745D01*
X00267577Y01637867D01*
X00266309Y01639135D01*
X00264757Y01640032D01*
X00263025Y01640496D01*
X00261231D01*
X00259499Y01640032D01*
X00257947Y01639135D01*
X00256679Y01637867D01*
X00256511Y01637578D01*
X00255045D01*
X00254877Y01637867D01*
X00253609Y01639135D01*
X00252057Y01640032D01*
X00250324Y01640496D01*
X00248531D01*
X00246799Y01640032D01*
X00245247Y01639135D01*
X00243979Y01637867D01*
X00243082Y01636315D01*
X00242618Y01634583D01*
Y01632789D01*
X00243082Y01631057D01*
X00243979Y01629505D01*
X00245247Y01628237D01*
X00246799Y01627340D01*
X00248531Y01626876D01*
X00250324D01*
X00252057Y01627340D01*
X00253609Y01628237D01*
X00254877Y01629505D01*
X00255045Y01629794D01*
X00256511D01*
X00256679Y01629505D01*
X00257937Y01628246D01*
X00256679Y01626987D01*
X00255782Y01625435D01*
X00255318Y01623703D01*
Y01621909D01*
X00255782Y01620177D01*
X00256679Y01618625D01*
X00257947Y01617357D01*
X00259499Y01616460D01*
X00261231Y01615996D01*
X00263025D01*
X00264757Y01616460D01*
X00266309Y01617357D01*
X00267577Y01618625D01*
X00267745Y01618914D01*
X00269211D01*
X00269379Y01618625D01*
X00270647Y01617357D01*
X00272199Y01616460D01*
X00273932Y01615996D01*
X00275725D01*
X00277457Y01616460D01*
X00279009Y01617357D01*
X00280277Y01618625D01*
X00280445Y01618914D01*
X00281911D01*
X00282079Y01618625D01*
X00283347Y01617357D01*
X00284899Y01616460D01*
X00286632Y01615996D01*
X00288424D01*
X00290157Y01616460D01*
X00291709Y01617357D01*
X00292977Y01618625D01*
X00293874Y01620177D01*
X00294338Y01621909D01*
Y01623703D01*
X00293874Y01625435D01*
X00292977Y01626987D01*
X00291719Y01628246D01*
X00292977Y01629505D01*
X00293874Y01631057D01*
X00294338Y01632789D01*
Y01634583D01*
X00293874Y01636315D01*
X00292977Y01637867D01*
X00291709Y01639135D01*
X00290157Y01640032D01*
X00288424Y01640496D01*
D02*
G37*
G36*
X00377324D02*
X00375532D01*
X00373799Y01640032D01*
X00372247Y01639135D01*
X00370979Y01637867D01*
X00370770Y01637506D01*
X00369500D01*
X00369292Y01637867D01*
X00368024Y01639135D01*
X00366471Y01640032D01*
X00364739Y01640496D01*
X00362946D01*
X00361214Y01640032D01*
X00359661Y01639135D01*
X00358393Y01637867D01*
X00357496Y01636315D01*
X00357032Y01634583D01*
Y01632789D01*
X00357496Y01631057D01*
X00358393Y01629505D01*
X00359661Y01628237D01*
X00361214Y01627340D01*
X00362946Y01626876D01*
X00364739D01*
X00366471Y01627340D01*
X00368024Y01628237D01*
X00369292Y01629505D01*
X00369500Y01629866D01*
X00370770D01*
X00370979Y01629505D01*
X00372247Y01628237D01*
X00373799Y01627340D01*
X00375532Y01626876D01*
X00377324D01*
X00379057Y01627340D01*
X00380609Y01628237D01*
X00381877Y01629505D01*
X00382774Y01631057D01*
X00383238Y01632789D01*
Y01634583D01*
X00382774Y01636315D01*
X00381877Y01637867D01*
X00380609Y01639135D01*
X00379057Y01640032D01*
X00377324Y01640496D01*
D02*
G37*
G36*
X01250074Y01637506D02*
X01247762D01*
X01245627Y01636622D01*
X01244668Y01635662D01*
X01243838Y01635093D01*
X01243008Y01635662D01*
X01242049Y01636622D01*
X01239914Y01637506D01*
X01237602D01*
X01235467Y01636622D01*
X01233832Y01634987D01*
X01232948Y01632852D01*
Y01630540D01*
X01233832Y01628405D01*
X01235467Y01626770D01*
X01237602Y01625886D01*
X01239914D01*
X01242049Y01626770D01*
X01243008Y01627730D01*
X01243838Y01628299D01*
X01244668Y01627730D01*
X01245627Y01626770D01*
X01247762Y01625886D01*
X01250074D01*
X01252209Y01626770D01*
X01253844Y01628405D01*
X01254728Y01630540D01*
Y01632852D01*
X01253844Y01634987D01*
X01252209Y01636622D01*
X01250074Y01637506D01*
D02*
G37*
G36*
X00339184Y01640496D02*
X00337392D01*
X00335659Y01640032D01*
X00334106Y01639135D01*
X00332839Y01637867D01*
X00331942Y01636315D01*
X00331478Y01634583D01*
Y01632789D01*
X00331942Y01631057D01*
X00332839Y01629505D01*
X00334106Y01628237D01*
X00335659Y01627340D01*
X00337392Y01626876D01*
X00339184D01*
X00340917Y01627340D01*
X00342469Y01628237D01*
X00343737Y01629505D01*
X00344634Y01631057D01*
X00345098Y01632789D01*
Y01634583D01*
X00344634Y01636315D01*
X00343737Y01637867D01*
X00342469Y01639135D01*
X00340917Y01640032D01*
X00339184Y01640496D01*
D02*
G37*
G36*
X00313825D02*
X00312031D01*
X00310299Y01640032D01*
X00308747Y01639135D01*
X00307479Y01637867D01*
X00306582Y01636315D01*
X00306118Y01634583D01*
Y01632789D01*
X00306582Y01631057D01*
X00307479Y01629505D01*
X00308747Y01628237D01*
X00310299Y01627340D01*
X00312031Y01626876D01*
X00313825D01*
X00315557Y01627340D01*
X00317109Y01628237D01*
X00318377Y01629505D01*
X00319274Y01631057D01*
X00319738Y01632789D01*
Y01634583D01*
X00319274Y01636315D01*
X00318377Y01637867D01*
X00317109Y01639135D01*
X00315557Y01640032D01*
X00313825Y01640496D01*
D02*
G37*
G36*
X01441257Y01645666D02*
X01437579D01*
X01434026Y01644714D01*
X01430840Y01642875D01*
X01428239Y01640274D01*
X01426400Y01637088D01*
X01425448Y01633535D01*
Y01629857D01*
X01426400Y01626304D01*
X01428239Y01623118D01*
X01430840Y01620517D01*
X01434026Y01618678D01*
X01437579Y01617726D01*
X01441257D01*
X01444810Y01618678D01*
X01447996Y01620517D01*
X01450597Y01623118D01*
X01452436Y01626304D01*
X01453388Y01629857D01*
Y01633535D01*
X01452436Y01637088D01*
X01450597Y01640274D01*
X01447996Y01642875D01*
X01444810Y01644714D01*
X01441257Y01645666D01*
D02*
G37*
G36*
X01649166Y01621543D02*
X01646855D01*
X01644719Y01620659D01*
X01643085Y01619024D01*
X01642200Y01616889D01*
Y01614577D01*
X01643085Y01612442D01*
X01644719Y01610807D01*
X01646855Y01609923D01*
X01649166D01*
X01651301Y01610807D01*
X01652936Y01612442D01*
X01653820Y01614577D01*
Y01616889D01*
X01652936Y01619024D01*
X01651301Y01620659D01*
X01649166Y01621543D01*
D02*
G37*
G36*
X01012584Y01614296D02*
X01010272D01*
X01008137Y01613412D01*
X01006503Y01611777D01*
X01005618Y01609642D01*
Y01607330D01*
X01006503Y01605195D01*
X01008137Y01603560D01*
X01010272Y01602676D01*
X01012584D01*
X01014719Y01603560D01*
X01016354Y01605195D01*
X01017238Y01607330D01*
Y01609642D01*
X01016354Y01611777D01*
X01014719Y01613412D01*
X01012584Y01614296D01*
D02*
G37*
G36*
X00434734Y01610836D02*
X00432422D01*
X00430287Y01609951D01*
X00428652Y01608317D01*
X00427768Y01606182D01*
Y01603870D01*
X00428652Y01601735D01*
X00430287Y01600101D01*
X00432422Y01599216D01*
X00434734D01*
X00436869Y01600101D01*
X00438503Y01601735D01*
X00439388Y01603870D01*
Y01606182D01*
X00438503Y01608317D01*
X00436869Y01609951D01*
X00434734Y01610836D01*
D02*
G37*
G36*
X00642094Y01607026D02*
X00639782D01*
X00637647Y01606142D01*
X00636012Y01604507D01*
X00635128Y01602372D01*
Y01600060D01*
X00636012Y01597925D01*
X00637647Y01596290D01*
X00639782Y01595406D01*
X00642094D01*
X00644229Y01596290D01*
X00645863Y01597925D01*
X00646748Y01600060D01*
Y01602372D01*
X00645863Y01604507D01*
X00644229Y01606142D01*
X00642094Y01607026D01*
D02*
G37*
G36*
X00589674D02*
X00587362D01*
X00585227Y01606142D01*
X00583592Y01604507D01*
X00582708Y01602372D01*
Y01600060D01*
X00583592Y01597925D01*
X00585227Y01596290D01*
X00587362Y01595406D01*
X00589674D01*
X00591809Y01596290D01*
X00593443Y01597925D01*
X00594328Y01600060D01*
Y01602372D01*
X00593443Y01604507D01*
X00591809Y01606142D01*
X00589674Y01607026D01*
D02*
G37*
G36*
X00402984Y01601946D02*
X00400672D01*
X00398537Y01601062D01*
X00396903Y01599427D01*
X00396018Y01597292D01*
Y01594980D01*
X00396903Y01592845D01*
X00398537Y01591210D01*
X00400672Y01590326D01*
X00402984D01*
X00405119Y01591210D01*
X00406754Y01592845D01*
X00407638Y01594980D01*
Y01597292D01*
X00406754Y01599427D01*
X00405119Y01601062D01*
X00402984Y01601946D01*
D02*
G37*
G36*
X01224087Y01614646D02*
X01220409D01*
X01216856Y01613694D01*
X01213670Y01611855D01*
X01211069Y01609254D01*
X01209230Y01606068D01*
X01208278Y01602515D01*
Y01598837D01*
X01209230Y01595284D01*
X01211069Y01592098D01*
X01213670Y01589497D01*
X01216856Y01587658D01*
X01220409Y01586706D01*
X01224087D01*
X01227640Y01587658D01*
X01230826Y01589497D01*
X01233427Y01592098D01*
X01235266Y01595284D01*
X01236218Y01598837D01*
Y01602515D01*
X01235266Y01606068D01*
X01233427Y01609254D01*
X01230826Y01611855D01*
X01227640Y01613694D01*
X01224087Y01614646D01*
D02*
G37*
G36*
X00312227Y01602486D02*
X00308549D01*
X00304996Y01601534D01*
X00301810Y01599695D01*
X00299209Y01597094D01*
X00297370Y01593908D01*
X00296418Y01590355D01*
Y01586677D01*
X00297370Y01583124D01*
X00299209Y01579938D01*
X00301810Y01577337D01*
X00304996Y01575498D01*
X00308549Y01574546D01*
X00312227D01*
X00315780Y01575498D01*
X00318966Y01577337D01*
X00321567Y01579938D01*
X00323406Y01583124D01*
X00324358Y01586677D01*
Y01590355D01*
X00323406Y01593908D01*
X00321567Y01597094D01*
X00318966Y01599695D01*
X00315780Y01601534D01*
X00312227Y01602486D01*
D02*
G37*
G36*
X00256347D02*
X00252669D01*
X00249116Y01601534D01*
X00245930Y01599695D01*
X00243329Y01597094D01*
X00241490Y01593908D01*
X00240538Y01590355D01*
Y01586677D01*
X00241490Y01583124D01*
X00243329Y01579938D01*
X00245930Y01577337D01*
X00249116Y01575498D01*
X00252669Y01574546D01*
X00256347D01*
X00259900Y01575498D01*
X00263086Y01577337D01*
X00265687Y01579938D01*
X00267526Y01583124D01*
X00268478Y01586677D01*
Y01590355D01*
X00267526Y01593908D01*
X00265687Y01597094D01*
X00263086Y01599695D01*
X00259900Y01601534D01*
X00256347Y01602486D01*
D02*
G37*
G36*
X00598564Y01585696D02*
X00596252D01*
X00594117Y01584812D01*
X00592482Y01583177D01*
X00591598Y01581042D01*
Y01578730D01*
X00592482Y01576595D01*
X00594117Y01574960D01*
X00596252Y01574076D01*
X00598564D01*
X00600699Y01574960D01*
X00602333Y01576595D01*
X00603218Y01578730D01*
Y01581042D01*
X00602333Y01583177D01*
X00600699Y01584812D01*
X00598564Y01585696D01*
D02*
G37*
G36*
X00618884Y01580196D02*
X00616572D01*
X00614437Y01579312D01*
X00612803Y01577677D01*
X00611918Y01575542D01*
Y01573230D01*
X00612803Y01571095D01*
X00613241Y01570656D01*
X00612803Y01570217D01*
X00612164Y01568675D01*
X00610754Y01568300D01*
X00610740Y01568303D01*
X00609731Y01569312D01*
X00607596Y01570196D01*
X00605285D01*
X00603149Y01569312D01*
X00601515Y01567677D01*
X00600630Y01565542D01*
Y01563230D01*
X00601515Y01561095D01*
X00603149Y01559460D01*
X00605285Y01558576D01*
X00607596D01*
X00609731Y01559460D01*
X00611366Y01561095D01*
X00612004Y01562637D01*
X00613415Y01563011D01*
X00613428Y01563009D01*
X00614437Y01562000D01*
X00616572Y01561116D01*
X00618884D01*
X00621019Y01562000D01*
X00622654Y01563635D01*
X00623538Y01565770D01*
Y01568082D01*
X00622654Y01570217D01*
X00622215Y01570656D01*
X00622654Y01571095D01*
X00623538Y01573230D01*
Y01575542D01*
X00622654Y01577677D01*
X00621019Y01579312D01*
X00618884Y01580196D01*
D02*
G37*
G36*
X00228484Y01576546D02*
X00226172D01*
X00224037Y01575661D01*
X00222402Y01574027D01*
X00221518Y01571892D01*
Y01569580D01*
X00222402Y01567445D01*
X00224037Y01565811D01*
X00226172Y01564926D01*
X00228484D01*
X00230619Y01565811D01*
X00232253Y01567445D01*
X00233138Y01569580D01*
Y01571892D01*
X00232253Y01574027D01*
X00230619Y01575661D01*
X00228484Y01576546D01*
D02*
G37*
G36*
X00366837Y01584706D02*
X00363159D01*
X00359606Y01583754D01*
X00356420Y01581915D01*
X00353819Y01579314D01*
X00351980Y01576128D01*
X00351028Y01572575D01*
Y01568897D01*
X00351980Y01565344D01*
X00353819Y01562158D01*
X00356420Y01559557D01*
X00359606Y01557718D01*
X00363159Y01556766D01*
X00366837D01*
X00370390Y01557718D01*
X00373576Y01559557D01*
X00376177Y01562158D01*
X00378016Y01565344D01*
X00378968Y01568897D01*
Y01572575D01*
X00378016Y01576128D01*
X00376177Y01579314D01*
X00373576Y01581915D01*
X00370390Y01583754D01*
X00366837Y01584706D01*
D02*
G37*
G36*
X00204864Y01567656D02*
X00202552D01*
X00200417Y01566772D01*
X00198783Y01565137D01*
X00197898Y01563002D01*
Y01560690D01*
X00198783Y01558555D01*
X00200417Y01556920D01*
X00202552Y01556036D01*
X00204864D01*
X00206999Y01556920D01*
X00208633Y01558555D01*
X00209518Y01560690D01*
Y01563002D01*
X00208633Y01565137D01*
X00206999Y01566772D01*
X00204864Y01567656D01*
D02*
G37*
G36*
X00569354Y01584196D02*
X00567042D01*
X00564907Y01583311D01*
X00563273Y01581677D01*
X00562388Y01579542D01*
Y01577230D01*
X00563273Y01575095D01*
X00564481Y01573886D01*
X00563273Y01572677D01*
X00562388Y01570542D01*
Y01568230D01*
X00563273Y01566095D01*
X00564152Y01565216D01*
X00564845Y01564386D01*
X00564152Y01563556D01*
X00563273Y01562677D01*
X00562388Y01560542D01*
Y01558230D01*
X00563273Y01556095D01*
X00564907Y01554460D01*
X00567042Y01553576D01*
X00569085D01*
X00569586Y01552807D01*
X00569708Y01552403D01*
X00569482Y01552177D01*
X00568598Y01550042D01*
Y01547730D01*
X00569482Y01545595D01*
X00571117Y01543961D01*
X00573252Y01543076D01*
X00575564D01*
X00577699Y01543961D01*
X00579333Y01545595D01*
X00580218Y01547730D01*
Y01550042D01*
X00579333Y01552177D01*
X00577699Y01553811D01*
X00575564Y01554696D01*
X00573521D01*
X00573020Y01555464D01*
X00572898Y01555869D01*
X00573124Y01556095D01*
X00574008Y01558230D01*
Y01560542D01*
X00573124Y01562677D01*
X00572244Y01563556D01*
X00571551Y01564386D01*
X00572244Y01565216D01*
X00573124Y01566095D01*
X00574008Y01568230D01*
Y01570542D01*
X00573124Y01572677D01*
X00571915Y01573886D01*
X00573124Y01575095D01*
X00574008Y01577230D01*
Y01579542D01*
X00573124Y01581677D01*
X00571489Y01583311D01*
X00569354Y01584196D01*
D02*
G37*
G36*
X00641634Y01546066D02*
X00639322D01*
X00637187Y01545181D01*
X00635552Y01543547D01*
X00634668Y01541412D01*
Y01539100D01*
X00635552Y01536965D01*
X00637187Y01535331D01*
X00639322Y01534446D01*
X00641634D01*
X00643769Y01535331D01*
X00645404Y01536965D01*
X00646288Y01539100D01*
Y01541412D01*
X00645404Y01543547D01*
X00643769Y01545181D01*
X00641634Y01546066D01*
D02*
G37*
G36*
X00282839Y01558496D02*
X00278697D01*
X00274607Y01557848D01*
X00270668Y01556568D01*
X00266978Y01554688D01*
X00263628Y01552254D01*
X00260700Y01549326D01*
X00258266Y01545975D01*
X00256385Y01542286D01*
X00255106Y01538347D01*
X00254458Y01534257D01*
Y01530115D01*
X00255106Y01526025D01*
X00256385Y01522086D01*
X00258266Y01518397D01*
X00260700Y01515046D01*
X00263628Y01512118D01*
X00266978Y01509684D01*
X00270668Y01507804D01*
X00274607Y01506524D01*
X00278697Y01505876D01*
X00282839D01*
X00286929Y01506524D01*
X00290868Y01507804D01*
X00294557Y01509684D01*
X00297908Y01512118D01*
X00300836Y01515046D01*
X00303270Y01518397D01*
X00305150Y01522086D01*
X00306430Y01526025D01*
X00307078Y01530115D01*
Y01534257D01*
X00306430Y01538347D01*
X00305150Y01542286D01*
X00303270Y01545975D01*
X00300836Y01549326D01*
X00297908Y01552254D01*
X00294557Y01554688D01*
X00290868Y01556568D01*
X00286929Y01557848D01*
X00282839Y01558496D01*
D02*
G37*
G36*
X00366837Y01528826D02*
X00363159D01*
X00359606Y01527874D01*
X00356420Y01526035D01*
X00353819Y01523434D01*
X00351980Y01520248D01*
X00351028Y01516695D01*
Y01513017D01*
X00351980Y01509464D01*
X00353819Y01506278D01*
X00356420Y01503677D01*
X00359606Y01501838D01*
X00363159Y01500886D01*
X00366837D01*
X00370390Y01501838D01*
X00373576Y01503677D01*
X00376177Y01506278D01*
X00378016Y01509464D01*
X00378968Y01513017D01*
Y01516695D01*
X00378016Y01520248D01*
X00376177Y01523434D01*
X00373576Y01526035D01*
X00370390Y01527874D01*
X00366837Y01528826D01*
D02*
G37*
G36*
X00217564Y01507966D02*
X00215252D01*
X00213117Y01507081D01*
X00211483Y01505447D01*
X00210598Y01503312D01*
Y01501000D01*
X00211483Y01498865D01*
X00213117Y01497231D01*
X00215252Y01496346D01*
X00217564D01*
X00219699Y01497231D01*
X00221334Y01498865D01*
X00222218Y01501000D01*
Y01503312D01*
X00221334Y01505447D01*
X00219699Y01507081D01*
X00217564Y01507966D01*
D02*
G37*
G36*
X00385204Y01495266D02*
X00382892D01*
X00380757Y01494382D01*
X00379123Y01492747D01*
X00378238Y01490612D01*
Y01488300D01*
X00379123Y01486165D01*
X00380757Y01484530D01*
X00382892Y01483646D01*
X00385204D01*
X00387339Y01484530D01*
X00388974Y01486165D01*
X00389858Y01488300D01*
Y01490612D01*
X00388974Y01492747D01*
X00387339Y01494382D01*
X00385204Y01495266D01*
D02*
G37*
G36*
X00375044Y01485106D02*
X00372732D01*
X00370597Y01484221D01*
X00368963Y01482587D01*
X00368078Y01480452D01*
Y01478140D01*
X00368963Y01476005D01*
X00370597Y01474371D01*
X00372732Y01473486D01*
X00375044D01*
X00377179Y01474371D01*
X00378814Y01476005D01*
X00379698Y01478140D01*
Y01480452D01*
X00378814Y01482587D01*
X00377179Y01484221D01*
X00375044Y01485106D01*
D02*
G37*
G36*
X00411874Y01495266D02*
X00409562D01*
X00407427Y01494382D01*
X00405793Y01492747D01*
X00404908Y01490612D01*
Y01488300D01*
X00405793Y01486165D01*
X00406752Y01485206D01*
X00407321Y01484376D01*
X00406752Y01483546D01*
X00405793Y01482587D01*
X00404908Y01480452D01*
Y01478140D01*
X00405793Y01476005D01*
X00407427Y01474371D01*
X00407800Y01474216D01*
Y01472946D01*
X00407427Y01472791D01*
X00405793Y01471157D01*
X00404908Y01469022D01*
Y01466710D01*
X00405793Y01464575D01*
X00407427Y01462941D01*
X00409562Y01462056D01*
X00411874D01*
X00414009Y01462941D01*
X00415644Y01464575D01*
X00416528Y01466710D01*
Y01469022D01*
X00415644Y01471157D01*
X00414009Y01472791D01*
X00413636Y01472946D01*
Y01474216D01*
X00414009Y01474371D01*
X00415644Y01476005D01*
X00416528Y01478140D01*
Y01480452D01*
X00415644Y01482587D01*
X00414684Y01483546D01*
X00414115Y01484376D01*
X00414684Y01485206D01*
X00415644Y01486165D01*
X00416528Y01488300D01*
Y01490612D01*
X00415644Y01492747D01*
X00414009Y01494382D01*
X00411874Y01495266D01*
D02*
G37*
G36*
X00366154Y01473676D02*
X00363842D01*
X00361707Y01472791D01*
X00360073Y01471157D01*
X00359188Y01469022D01*
Y01466710D01*
X00360073Y01464575D01*
X00361707Y01462941D01*
X00363842Y01462056D01*
X00366154D01*
X00368289Y01462941D01*
X00369924Y01464575D01*
X00370808Y01466710D01*
Y01469022D01*
X00369924Y01471157D01*
X00368289Y01472791D01*
X00366154Y01473676D01*
D02*
G37*
G36*
X00293828Y01271140D02*
X00292943Y01270964D01*
X00286887D01*
X00284409Y01270472D01*
X00282309Y01269068D01*
X00270592Y01257351D01*
X00252128D01*
Y01245602D01*
X00251072Y01244897D01*
X00250640Y01245076D01*
X00248328D01*
X00246193Y01244192D01*
X00244559Y01242557D01*
X00243674Y01240422D01*
Y01238110D01*
X00244559Y01235975D01*
X00246193Y01234341D01*
X00246729Y01234118D01*
Y01232744D01*
X00246193Y01232522D01*
X00244559Y01230887D01*
X00243674Y01228752D01*
Y01226440D01*
X00244559Y01224305D01*
X00246193Y01222671D01*
X00247261Y01222228D01*
Y01220854D01*
X00246193Y01220411D01*
X00244559Y01218777D01*
X00243674Y01216642D01*
Y01214330D01*
X00244559Y01212195D01*
X00246193Y01210560D01*
X00247112Y01210180D01*
Y01208805D01*
X00246193Y01208425D01*
X00244559Y01206790D01*
X00244162Y01205834D01*
X00242268Y01206210D01*
X00239790Y01205718D01*
X00237690Y01204314D01*
X00236286Y01202214D01*
X00236096Y01201255D01*
X00234577Y01199736D01*
X00228648D01*
Y01184116D01*
Y01172116D01*
X00240078D01*
Y01171416D01*
X00253698D01*
Y01172766D01*
X00264128D01*
Y01163526D01*
X00252128D01*
Y01162709D01*
X00251854Y01162526D01*
X00249542D01*
X00247407Y01161641D01*
X00245772Y01160007D01*
X00244888Y01157872D01*
Y01155560D01*
X00245772Y01153425D01*
X00247407Y01151790D01*
X00247780Y01151636D01*
Y01150366D01*
X00247407Y01150211D01*
X00245772Y01148577D01*
X00244888Y01146442D01*
Y01144130D01*
X00245772Y01141995D01*
X00247407Y01140360D01*
X00247780Y01140206D01*
Y01138936D01*
X00247407Y01138782D01*
X00245772Y01137147D01*
X00244888Y01135012D01*
Y01132700D01*
X00245772Y01130565D01*
X00247407Y01128931D01*
X00247780Y01128776D01*
Y01127506D01*
X00247407Y01127352D01*
X00245772Y01125717D01*
X00244888Y01123582D01*
Y01121270D01*
X00245772Y01119135D01*
X00247407Y01117501D01*
X00247780Y01117346D01*
Y01116076D01*
X00247407Y01115921D01*
X00245772Y01114287D01*
X00244888Y01112152D01*
Y01109840D01*
X00245772Y01107705D01*
X00247407Y01106070D01*
X00249542Y01105186D01*
X00251854D01*
X00252128Y01105003D01*
Y01104186D01*
X00279748D01*
Y01110481D01*
X00283127Y01113860D01*
X00284649Y01114491D01*
X00286283Y01116125D01*
X00287168Y01118260D01*
Y01120572D01*
X00286283Y01122707D01*
X00284649Y01124342D01*
X00284402Y01124444D01*
Y01125818D01*
X00284649Y01125920D01*
X00286283Y01127555D01*
X00287168Y01129690D01*
Y01132002D01*
X00286283Y01134137D01*
X00284649Y01135771D01*
X00284402Y01135874D01*
Y01137248D01*
X00284649Y01137350D01*
X00286283Y01138985D01*
X00287168Y01141120D01*
Y01143432D01*
X00286283Y01145567D01*
X00284649Y01147202D01*
X00284491Y01147267D01*
Y01148642D01*
X00284649Y01148707D01*
X00286284Y01150342D01*
X00287168Y01152477D01*
Y01154788D01*
X00286284Y01156924D01*
X00284649Y01158558D01*
X00284314Y01158697D01*
Y01160072D01*
X00284649Y01160210D01*
X00286283Y01161845D01*
X00287168Y01163980D01*
Y01166292D01*
X00286283Y01168427D01*
X00285585Y01169126D01*
X00286283Y01169825D01*
X00287168Y01171960D01*
Y01174272D01*
X00286356Y01176231D01*
X00287168Y01178190D01*
Y01180502D01*
X00286283Y01182637D01*
X00284649Y01184271D01*
X00283992Y01184544D01*
Y01185918D01*
X00284649Y01186190D01*
X00286284Y01187825D01*
X00287168Y01189960D01*
Y01192272D01*
X00286284Y01194407D01*
X00284649Y01196041D01*
X00283159Y01196659D01*
Y01198033D01*
X00284649Y01198651D01*
X00286283Y01200285D01*
X00287168Y01202420D01*
Y01204732D01*
X00286283Y01206867D01*
X00284649Y01208502D01*
X00283714Y01208889D01*
Y01210263D01*
X00284649Y01210650D01*
X00286284Y01212285D01*
X00287168Y01214420D01*
Y01216732D01*
X00286284Y01218867D01*
X00285170Y01219981D01*
X00286283Y01221095D01*
X00287168Y01223230D01*
Y01225542D01*
X00286283Y01227677D01*
X00284649Y01229312D01*
X00283763Y01229679D01*
Y01231053D01*
X00284649Y01231421D01*
X00286283Y01233055D01*
X00287168Y01235190D01*
Y01237502D01*
X00286283Y01239637D01*
X00284649Y01241272D01*
X00283127Y01241902D01*
X00282101Y01242928D01*
X00280420Y01244051D01*
X00279748Y01244185D01*
Y01248195D01*
X00289569Y01258016D01*
X00293652D01*
X00296130Y01258508D01*
X00298230Y01259912D01*
X00298406Y01260088D01*
X00299809Y01262188D01*
X00300302Y01264666D01*
X00299809Y01267144D01*
X00298406Y01269244D01*
X00296306Y01270648D01*
X00293828Y01271140D01*
D02*
G37*
G36*
X01454824Y01199229D02*
X01452512D01*
X01450377Y01198344D01*
X01448743Y01196710D01*
X01447858Y01194575D01*
Y01192263D01*
X01448743Y01190128D01*
X01450377Y01188493D01*
X01452512Y01187609D01*
X01454824D01*
X01456959Y01188493D01*
X01458593Y01190128D01*
X01459478Y01192263D01*
Y01194575D01*
X01458593Y01196710D01*
X01456959Y01198344D01*
X01454824Y01199229D01*
D02*
G37*
G36*
X01473329Y01198936D02*
X01471017D01*
X01468882Y01198052D01*
X01467247Y01196417D01*
X01466363Y01194282D01*
Y01191970D01*
X01467247Y01189835D01*
X01468882Y01188201D01*
X01471017Y01187316D01*
X01473329D01*
X01475464Y01188201D01*
X01477099Y01189835D01*
X01477983Y01191970D01*
Y01194282D01*
X01477099Y01196417D01*
X01475464Y01198052D01*
X01473329Y01198936D01*
D02*
G37*
G36*
X01528204Y01147286D02*
X01525892D01*
X01523757Y01146402D01*
X01522798Y01145442D01*
X01521968Y01144873D01*
X01521138Y01145442D01*
X01520179Y01146402D01*
X01518044Y01147286D01*
X01515732D01*
X01513597Y01146402D01*
X01512638Y01145442D01*
X01511808Y01144873D01*
X01510978Y01145442D01*
X01510019Y01146402D01*
X01507884Y01147286D01*
X01505572D01*
X01503437Y01146402D01*
X01501803Y01144767D01*
X01500918Y01142632D01*
Y01140320D01*
X01501803Y01138185D01*
X01503437Y01136551D01*
X01505572Y01135666D01*
X01507884D01*
X01510019Y01136551D01*
X01510978Y01137510D01*
X01511808Y01138079D01*
X01512638Y01137510D01*
X01513597Y01136551D01*
X01515732Y01135666D01*
X01518044D01*
X01520179Y01136551D01*
X01521138Y01137510D01*
X01521968Y01138079D01*
X01522798Y01137510D01*
X01523757Y01136551D01*
X01525892Y01135666D01*
X01528204D01*
X01530339Y01136551D01*
X01531974Y01138185D01*
X01532858Y01140320D01*
Y01142632D01*
X01531974Y01144767D01*
X01530339Y01146402D01*
X01528204Y01147286D01*
D02*
G37*
G36*
X01477654Y01135856D02*
X01475342D01*
X01473207Y01134971D01*
X01471573Y01133337D01*
X01470688Y01131202D01*
Y01128890D01*
X01471573Y01126755D01*
X01473207Y01125120D01*
X01475342Y01124236D01*
X01477654D01*
X01479789Y01125120D01*
X01481423Y01126755D01*
X01482308Y01128890D01*
Y01131202D01*
X01481423Y01133337D01*
X01479789Y01134971D01*
X01477654Y01135856D01*
D02*
G37*
G36*
X01569827Y01138606D02*
X01566149D01*
X01562596Y01137654D01*
X01559410Y01135815D01*
X01556809Y01133214D01*
X01554970Y01130028D01*
X01554018Y01126475D01*
Y01122797D01*
X01554970Y01119244D01*
X01556809Y01116058D01*
X01559410Y01113457D01*
X01562596Y01111618D01*
X01566149Y01110666D01*
X01569827D01*
X01573380Y01111618D01*
X01576566Y01113457D01*
X01579167Y01116058D01*
X01581006Y01119244D01*
X01581958Y01122797D01*
Y01126475D01*
X01581006Y01130028D01*
X01579167Y01133214D01*
X01576566Y01135815D01*
X01573380Y01137654D01*
X01569827Y01138606D01*
D02*
G37*
G36*
X00279794Y01062196D02*
X00277482D01*
X00275347Y01061311D01*
X00273713Y01059677D01*
X00272828Y01057542D01*
Y01055230D01*
X00273713Y01053095D01*
X00274672Y01052136D01*
X00275241Y01051306D01*
X00274672Y01050476D01*
X00273713Y01049517D01*
X00272828Y01047382D01*
Y01045070D01*
X00273713Y01042935D01*
X00274672Y01041976D01*
X00275241Y01041146D01*
X00274672Y01040316D01*
X00273713Y01039357D01*
X00272828Y01037222D01*
Y01034910D01*
X00273713Y01032775D01*
X00275347Y01031141D01*
X00277482Y01030256D01*
X00279794D01*
X00281929Y01031141D01*
X00283563Y01032775D01*
X00284448Y01034910D01*
Y01037222D01*
X00283563Y01039357D01*
X00282604Y01040316D01*
X00282035Y01041146D01*
X00282604Y01041976D01*
X00283563Y01042935D01*
X00284448Y01045070D01*
Y01047382D01*
X00283563Y01049517D01*
X00282604Y01050476D01*
X00282035Y01051306D01*
X00282604Y01052136D01*
X00283563Y01053095D01*
X00284448Y01055230D01*
Y01057542D01*
X00283563Y01059677D01*
X00281929Y01061311D01*
X00279794Y01062196D01*
D02*
G37*
G36*
X00294984Y01011396D02*
X00292672D01*
X00290537Y01010511D01*
X00288902Y01008877D01*
X00288018Y01006742D01*
Y01004430D01*
X00288902Y01002295D01*
X00290537Y01000660D01*
X00292672Y00999776D01*
X00294984D01*
X00297119Y01000660D01*
X00298754Y01002295D01*
X00299638Y01004430D01*
Y01006742D01*
X00298754Y01008877D01*
X00297119Y01010511D01*
X00294984Y01011396D01*
D02*
G37*
G36*
X00223460Y01005046D02*
X00221148D01*
X00219013Y01004162D01*
X00217379Y01002527D01*
X00216494Y01000392D01*
Y00998080D01*
X00217379Y00995945D01*
X00219013Y00994311D01*
X00220026Y00993891D01*
Y00992516D01*
X00219013Y00992096D01*
X00217379Y00990462D01*
X00216494Y00988327D01*
Y00986015D01*
X00217379Y00983880D01*
X00219013Y00982245D01*
X00221148Y00981361D01*
X00223460D01*
X00225595Y00982245D01*
X00227229Y00983880D01*
X00228114Y00986015D01*
Y00988327D01*
X00227229Y00990462D01*
X00225595Y00992096D01*
X00224582Y00992516D01*
Y00993891D01*
X00225595Y00994311D01*
X00227229Y00995945D01*
X00228114Y00998080D01*
Y01000392D01*
X00227229Y01002527D01*
X00225595Y01004162D01*
X00223460Y01005046D01*
D02*
G37*
G36*
X00284287Y00909066D02*
X00280609D01*
X00277056Y00908114D01*
X00273870Y00906275D01*
X00271269Y00903674D01*
X00269430Y00900488D01*
X00268478Y00896935D01*
Y00893257D01*
X00269430Y00889704D01*
X00271269Y00886518D01*
X00273870Y00883917D01*
X00277056Y00882078D01*
X00280609Y00881126D01*
X00284287D01*
X00287840Y00882078D01*
X00291026Y00883917D01*
X00293627Y00886518D01*
X00295466Y00889704D01*
X00296418Y00893257D01*
Y00896935D01*
X00295466Y00900488D01*
X00293627Y00903674D01*
X00291026Y00906275D01*
X00287840Y00908114D01*
X00284287Y00909066D01*
D02*
G37*
G36*
X00254322Y00603708D02*
X00252011D01*
X00249876Y00602824D01*
X00248820Y00601769D01*
X00247991Y00601324D01*
X00247161Y00601769D01*
X00246106Y00602824D01*
X00243970Y00603708D01*
X00241659D01*
X00239524Y00602824D01*
X00237889Y00601190D01*
X00237005Y00599054D01*
Y00596743D01*
X00237889Y00594607D01*
X00239524Y00592973D01*
X00241659Y00592089D01*
X00243970D01*
X00246106Y00592973D01*
X00247161Y00594028D01*
X00247991Y00594473D01*
X00248820Y00594028D01*
X00249876Y00592973D01*
X00252011Y00592089D01*
X00254322D01*
X00256458Y00592973D01*
X00258092Y00594607D01*
X00258977Y00596743D01*
Y00599054D01*
X00258092Y00601190D01*
X00256458Y00602824D01*
X00254322Y00603708D01*
D02*
G37*
G36*
X00269634Y00589166D02*
X00267322D01*
X00265303Y00588329D01*
X00263284Y00589166D01*
X00260972D01*
X00258837Y00588281D01*
X00257202Y00586647D01*
X00256318Y00584511D01*
Y00582200D01*
X00257202Y00580065D01*
X00258837Y00578430D01*
X00260972Y00577546D01*
X00263284D01*
X00265303Y00578382D01*
X00267322Y00577546D01*
X00269634D01*
X00271769Y00578430D01*
X00273403Y00580065D01*
X00274288Y00582200D01*
Y00584511D01*
X00273403Y00586647D01*
X00271769Y00588281D01*
X00269634Y00589166D01*
D02*
G37*
G36*
X00342939Y00538987D02*
X00340628D01*
X00338492Y00538102D01*
X00336858Y00536468D01*
X00335974Y00534332D01*
Y00532021D01*
X00336858Y00529885D01*
X00338492Y00528251D01*
X00340628Y00527367D01*
X00342939D01*
X00345075Y00528251D01*
X00346709Y00529885D01*
X00347593Y00532021D01*
Y00534332D01*
X00346709Y00536468D01*
X00345075Y00538102D01*
X00342939Y00538987D01*
D02*
G37*
G36*
X00395182Y00520484D02*
X00392870D01*
X00390735Y00519599D01*
X00389100Y00517965D01*
X00388216Y00515830D01*
Y00513518D01*
X00389100Y00511383D01*
X00390735Y00509748D01*
X00392870Y00508864D01*
X00395182D01*
X00397317Y00509748D01*
X00398951Y00511383D01*
X00399836Y00513518D01*
Y00515830D01*
X00398951Y00517965D01*
X00397317Y00519599D01*
X00395182Y00520484D01*
D02*
G37*
G36*
X01541554Y00511016D02*
X01539242D01*
X01537107Y00510131D01*
X01535473Y00508497D01*
X01535370Y00508250D01*
X01533996D01*
X01533893Y00508497D01*
X01532259Y00510131D01*
X01530124Y00511016D01*
X01527812D01*
X01525677Y00510131D01*
X01524043Y00508497D01*
X01523940Y00508250D01*
X01522566D01*
X01522464Y00508497D01*
X01520829Y00510131D01*
X01518694Y00511016D01*
X01516382D01*
X01514247Y00510131D01*
X01513733Y00509617D01*
X01513218Y00510131D01*
X01511083Y00511016D01*
X01508772D01*
X01506636Y00510131D01*
X01505728Y00509224D01*
X01504899Y00508577D01*
X01504069Y00509224D01*
X01503161Y00510131D01*
X01501026Y00511016D01*
X01498714D01*
X01496579Y00510131D01*
X01494944Y00508497D01*
X01494746Y00508019D01*
X01493372D01*
X01493174Y00508497D01*
X01491539Y00510131D01*
X01489404Y00511016D01*
X01487092D01*
X01484957Y00510131D01*
X01484788Y00509963D01*
X01484619Y00510131D01*
X01482484Y00511016D01*
X01480172D01*
X01478037Y00510131D01*
X01476402Y00508497D01*
X01476328Y00508317D01*
X01475058D01*
X01474984Y00508497D01*
X01473349Y00510131D01*
X01471214Y00511016D01*
X01468902D01*
X01466767Y00510131D01*
X01466593Y00509958D01*
X01466420Y00510131D01*
X01464285Y00511016D01*
X01461973D01*
X01459838Y00510131D01*
X01458568Y00508862D01*
X01457299Y00510131D01*
X01455164Y00511016D01*
X01452852D01*
X01450717Y00510131D01*
X01449082Y00508497D01*
X01448980Y00508250D01*
X01447632Y00508186D01*
X01447504Y00508497D01*
X01445869Y00510131D01*
X01443734Y00511016D01*
X01441422D01*
X01439287Y00510131D01*
X01437652Y00508497D01*
X01437240Y00507502D01*
X01435989D01*
X01435833Y00507582D01*
X01435453Y00508497D01*
X01433819Y00510131D01*
X01431684Y00511016D01*
X01429372D01*
X01427237Y00510131D01*
X01425603Y00508497D01*
X01424831Y00506634D01*
X01421973Y00503776D01*
X01415678D01*
Y00503776D01*
X01404484D01*
Y00488156D01*
Y00476156D01*
X01404819D01*
Y00470352D01*
X01405312Y00467874D01*
X01406716Y00465774D01*
X01408816Y00464370D01*
X01411294Y00463877D01*
X01413771Y00464370D01*
X01415872Y00465774D01*
X01417275Y00467874D01*
X01417616Y00469586D01*
X01418994Y00470004D01*
X01419197Y00469800D01*
X01421332Y00468916D01*
X01423644D01*
X01425779Y00469800D01*
X01427413Y00471435D01*
X01427726Y00472189D01*
X01429100D01*
X01429413Y00471435D01*
X01431047Y00469800D01*
X01433182Y00468916D01*
X01435494D01*
X01437629Y00469800D01*
X01439263Y00471435D01*
X01439418Y00471808D01*
X01440688D01*
X01440842Y00471435D01*
X01442477Y00469800D01*
X01444612Y00468916D01*
X01446924D01*
X01449059Y00469800D01*
X01450694Y00471435D01*
X01450848Y00471808D01*
X01452118D01*
X01452272Y00471435D01*
X01453907Y00469800D01*
X01456042Y00468916D01*
X01458354D01*
X01460489Y00469800D01*
X01462124Y00471435D01*
X01462401Y00472104D01*
X01463775D01*
X01464052Y00471435D01*
X01465687Y00469800D01*
X01467822Y00468916D01*
X01470134D01*
X01471046Y00469294D01*
X01472090Y00468514D01*
X01471803Y00467566D01*
X01461168D01*
Y00467230D01*
X01457960D01*
X01455483Y00466738D01*
X01453382Y00465334D01*
X01451979Y00463234D01*
X01451486Y00460756D01*
X01451979Y00458278D01*
X01453382Y00456178D01*
X01455483Y00454774D01*
X01457960Y00454282D01*
X01461168D01*
Y00453946D01*
X01488788D01*
Y00467566D01*
X01488218D01*
Y00478996D01*
X01486868D01*
Y00488156D01*
X01496108D01*
Y00476156D01*
X01496925D01*
X01497108Y00475882D01*
Y00473570D01*
X01497993Y00471435D01*
X01499627Y00469800D01*
X01501762Y00468916D01*
X01504074D01*
X01506209Y00469800D01*
X01507843Y00471435D01*
X01507998Y00471808D01*
X01509268D01*
X01509422Y00471435D01*
X01511057Y00469800D01*
X01513192Y00468916D01*
X01515504D01*
X01517639Y00469800D01*
X01519274Y00471435D01*
X01519428Y00471808D01*
X01520698D01*
X01520853Y00471435D01*
X01522487Y00469800D01*
X01524622Y00468916D01*
X01526934D01*
X01529069Y00469800D01*
X01530703Y00471435D01*
X01530858Y00471808D01*
X01532128D01*
X01532283Y00471435D01*
X01533917Y00469800D01*
X01536052Y00468916D01*
X01538364D01*
X01540499Y00469800D01*
X01542133Y00471435D01*
X01542288Y00471808D01*
X01543558D01*
X01543712Y00471435D01*
X01545347Y00469800D01*
X01547482Y00468916D01*
X01549794D01*
X01551929Y00469800D01*
X01553564Y00471435D01*
X01554448Y00473570D01*
Y00475882D01*
X01554631Y00476156D01*
X01555448D01*
Y00488156D01*
Y00503776D01*
X01549153D01*
X01545954Y00506975D01*
X01545323Y00508497D01*
X01543689Y00510131D01*
X01541554Y00511016D01*
D02*
G37*
G36*
X00520785Y00503569D02*
X00518474D01*
X00516338Y00502685D01*
X00514970Y00501316D01*
X00513601Y00502685D01*
X00511465Y00503569D01*
X00509154D01*
X00507018Y00502685D01*
X00505384Y00501050D01*
X00505282Y00500804D01*
X00503907D01*
X00503805Y00501050D01*
X00502171Y00502685D01*
X00500035Y00503569D01*
X00497724D01*
X00495588Y00502685D01*
X00493954Y00501050D01*
X00493852Y00500804D01*
X00492477D01*
X00492375Y00501050D01*
X00490741Y00502685D01*
X00488605Y00503569D01*
X00486294D01*
X00484158Y00502685D01*
X00482524Y00501050D01*
X00482422Y00500804D01*
X00481047D01*
X00480945Y00501050D01*
X00479311Y00502685D01*
X00477175Y00503569D01*
X00474864D01*
X00472729Y00502685D01*
X00471094Y00501050D01*
X00470992Y00500804D01*
X00469617D01*
X00469515Y00501050D01*
X00467881Y00502685D01*
X00465745Y00503569D01*
X00463434D01*
X00461298Y00502685D01*
X00459664Y00501050D01*
X00458911Y00499232D01*
X00457606Y00498741D01*
X00456341Y00500006D01*
X00455909Y00501050D01*
X00454274Y00502685D01*
X00452139Y00503569D01*
X00449827D01*
X00447692Y00502685D01*
X00446091Y00501083D01*
X00444489Y00502685D01*
X00442354Y00503569D01*
X00440042D01*
X00437907Y00502685D01*
X00437179Y00501957D01*
X00436451Y00502685D01*
X00434315Y00503569D01*
X00432004D01*
X00429869Y00502685D01*
X00428648Y00501465D01*
X00427840Y00501186D01*
X00427031Y00501465D01*
X00425811Y00502685D01*
X00423675Y00503569D01*
X00421364D01*
X00419228Y00502685D01*
X00418402Y00501859D01*
X00417573Y00501071D01*
X00416743Y00501859D01*
X00415917Y00502685D01*
X00413782Y00503569D01*
X00411470D01*
X00409335Y00502685D01*
X00407701Y00501050D01*
X00406816Y00498915D01*
Y00496604D01*
X00406644Y00496346D01*
X00405816D01*
Y00480726D01*
Y00468726D01*
X00406506D01*
X00406816Y00468262D01*
Y00465950D01*
X00407701Y00463815D01*
X00409335Y00462180D01*
X00411470Y00461296D01*
X00413782D01*
X00415917Y00462180D01*
X00417551Y00463815D01*
X00417566Y00463850D01*
X00418836D01*
X00418851Y00463815D01*
X00420485Y00462180D01*
X00422620Y00461296D01*
X00424932D01*
X00427067Y00462180D01*
X00428702Y00463815D01*
X00428944Y00464400D01*
X00430318D01*
X00430560Y00463815D01*
X00432195Y00462180D01*
X00434330Y00461296D01*
X00436642D01*
X00438777Y00462180D01*
X00440411Y00463815D01*
X00441005Y00465247D01*
X00442379D01*
X00442972Y00463815D01*
X00444607Y00462180D01*
X00446742Y00461296D01*
X00449054D01*
X00449966Y00461674D01*
X00451010Y00460894D01*
X00450723Y00459946D01*
X00439298D01*
Y00459799D01*
X00434315D01*
X00431838Y00459306D01*
X00429737Y00457903D01*
X00428334Y00455802D01*
X00427841Y00453325D01*
X00428334Y00450847D01*
X00429737Y00448747D01*
X00431838Y00447343D01*
X00434315Y00446851D01*
X00439298D01*
Y00446326D01*
X00466918D01*
Y00457756D01*
X00467138D01*
Y00471376D01*
X00466296D01*
Y00480726D01*
X00476163D01*
Y00468726D01*
X00476853D01*
X00477163Y00468262D01*
Y00465950D01*
X00478047Y00463815D01*
X00479682Y00462180D01*
X00481817Y00461296D01*
X00484129D01*
X00486264Y00462180D01*
X00487898Y00463815D01*
X00488053Y00464188D01*
X00489323D01*
X00489478Y00463815D01*
X00491112Y00462180D01*
X00493247Y00461296D01*
X00495559D01*
X00497694Y00462180D01*
X00499328Y00463815D01*
X00499578Y00464417D01*
X00500848D01*
X00501097Y00463815D01*
X00502731Y00462180D01*
X00504867Y00461296D01*
X00507178D01*
X00509314Y00462180D01*
X00510948Y00463815D01*
X00511051Y00464063D01*
X00512321D01*
X00512337Y00464023D01*
X00513972Y00462388D01*
X00516107Y00461504D01*
X00518419D01*
X00520554Y00462388D01*
X00522188Y00464023D01*
X00522343Y00464396D01*
X00523613D01*
X00523768Y00464023D01*
X00525402Y00462388D01*
X00527537Y00461504D01*
X00529849D01*
X00531984Y00462388D01*
X00533619Y00464023D01*
X00534503Y00466158D01*
Y00468470D01*
X00534674Y00468726D01*
X00535503D01*
Y00480726D01*
Y00496346D01*
X00528368D01*
X00525186Y00499528D01*
X00524555Y00501050D01*
X00522921Y00502685D01*
X00520785Y00503569D01*
D02*
G37*
G36*
X00901019Y00497256D02*
X00898708D01*
X00896572Y00496371D01*
X00895648Y00495448D01*
X00895304Y00495792D01*
X00893169Y00496676D01*
X00890858D01*
X00889012Y00495911D01*
X00887018Y00496737D01*
X00884707D01*
X00882571Y00495853D01*
X00881983Y00495265D01*
X00881396Y00495853D01*
X00879260Y00496737D01*
X00876949D01*
X00874814Y00495853D01*
X00873179Y00494218D01*
X00872719Y00493106D01*
X00872505Y00492893D01*
X00871279Y00493137D01*
X00869644Y00494771D01*
X00867509Y00495656D01*
X00865198D01*
X00863062Y00494771D01*
X00861738Y00493447D01*
X00861411Y00493229D01*
X00860830Y00492648D01*
X00860372Y00492739D01*
X00859451Y00493065D01*
X00857994Y00494521D01*
X00855859Y00495406D01*
X00853548D01*
X00851412Y00494521D01*
X00850148Y00493258D01*
X00849731Y00492979D01*
X00844048Y00487296D01*
X00837753D01*
Y00471676D01*
Y00459676D01*
X00838753D01*
Y00457410D01*
X00839638Y00455275D01*
X00841272Y00453641D01*
X00843408Y00452756D01*
X00845719D01*
X00847854Y00453641D01*
X00849489Y00455275D01*
X00849643Y00455648D01*
X00850913D01*
X00851068Y00455275D01*
X00852702Y00453641D01*
X00854838Y00452756D01*
X00857149D01*
X00859284Y00453641D01*
X00860919Y00455275D01*
X00861073Y00455648D01*
X00862343D01*
X00862498Y00455275D01*
X00864132Y00453641D01*
X00866268Y00452756D01*
X00868579D01*
X00870714Y00453641D01*
X00872349Y00455275D01*
X00872485Y00455604D01*
X00873755D01*
X00873891Y00455275D01*
X00875526Y00453641D01*
X00877661Y00452756D01*
X00879972D01*
X00882108Y00453641D01*
X00882145Y00453677D01*
X00883318Y00453191D01*
Y00451056D01*
X00869715D01*
Y00450720D01*
X00868693D01*
X00866216Y00450228D01*
X00864115Y00448824D01*
X00862712Y00446724D01*
X00862219Y00444246D01*
X00862712Y00441768D01*
X00864115Y00439668D01*
X00866216Y00438264D01*
X00868693Y00437772D01*
X00869715D01*
Y00437436D01*
X00897335D01*
Y00448866D01*
X00898938D01*
Y00462486D01*
X00897093D01*
Y00471676D01*
X00908523D01*
Y00487296D01*
X00906893D01*
Y00489201D01*
X00906498Y00491183D01*
X00905673Y00492418D01*
Y00492602D01*
X00904789Y00494737D01*
X00903154Y00496371D01*
X00901019Y00497256D01*
D02*
G37*
G36*
X00629459Y00505106D02*
X00627147D01*
X00625012Y00504221D01*
X00623378Y00502587D01*
X00622493Y00500452D01*
Y00498140D01*
X00623378Y00496005D01*
X00625012Y00494370D01*
X00627147Y00493486D01*
X00629459D01*
X00631594Y00494370D01*
X00633228Y00496005D01*
X00634113Y00498140D01*
Y00500452D01*
X00633228Y00502587D01*
X00631594Y00504221D01*
X00629459Y00505106D01*
D02*
G37*
G36*
X00966334Y00494471D02*
X00964022D01*
X00961887Y00493587D01*
X00960253Y00491952D01*
X00959865Y00491017D01*
X00958491D01*
X00958103Y00491952D01*
X00956469Y00493587D01*
X00954334Y00494471D01*
X00952022D01*
X00949887Y00493587D01*
X00948253Y00491952D01*
X00948160Y00491730D01*
X00946786D01*
X00946693Y00491952D01*
X00945059Y00493587D01*
X00942924Y00494471D01*
X00940612D01*
X00938477Y00493587D01*
X00936843Y00491952D01*
X00936740Y00491706D01*
X00935366D01*
X00935264Y00491952D01*
X00933629Y00493587D01*
X00931494Y00494471D01*
X00929182D01*
X00927047Y00493587D01*
X00925413Y00491952D01*
X00924528Y00489817D01*
Y00487506D01*
X00925413Y00485370D01*
X00927047Y00483736D01*
X00928620Y00483084D01*
X00931733Y00479971D01*
Y00471676D01*
Y00463183D01*
X00930463Y00462657D01*
X00929629Y00463492D01*
X00927494Y00464376D01*
X00925182D01*
X00923047Y00463492D01*
X00921413Y00461857D01*
X00920528Y00459722D01*
Y00457410D01*
X00921413Y00455275D01*
X00923047Y00453641D01*
X00925182Y00452756D01*
X00927494D01*
X00929629Y00453641D01*
X00931264Y00455275D01*
X00931753Y00456457D01*
X00933128D01*
X00933618Y00455275D01*
X00935252Y00453641D01*
X00937388Y00452756D01*
X00939699D01*
X00941834Y00453641D01*
X00943469Y00455275D01*
X00943623Y00455648D01*
X00944893D01*
X00945048Y00455275D01*
X00946682Y00453641D01*
X00948818Y00452756D01*
X00951129D01*
X00953264Y00453641D01*
X00954899Y00455275D01*
X00955043Y00455624D01*
X00956313D01*
X00956458Y00455275D01*
X00958092Y00453641D01*
X00960228Y00452756D01*
X00962539D01*
X00964674Y00453641D01*
X00966309Y00455275D01*
X00966696Y00456210D01*
X00968071D01*
X00968458Y00455275D01*
X00970092Y00453641D01*
X00972228Y00452756D01*
X00974539D01*
X00976674Y00453641D01*
X00978309Y00455275D01*
X00979193Y00457410D01*
Y00459676D01*
X00980193D01*
Y00471676D01*
Y00487296D01*
X00973898D01*
X00970713Y00490481D01*
X00970104Y00491952D01*
X00968469Y00493587D01*
X00966334Y00494471D01*
D02*
G37*
G36*
X00376988Y00501110D02*
X00374677D01*
X00372541Y00500226D01*
X00370907Y00498591D01*
X00370022Y00496456D01*
Y00494145D01*
X00370907Y00492009D01*
X00372541Y00490375D01*
X00374677Y00489490D01*
X00376988D01*
X00379123Y00490375D01*
X00380758Y00492009D01*
X00381642Y00494145D01*
Y00496456D01*
X00380758Y00498591D01*
X00379123Y00500226D01*
X00376988Y00501110D01*
D02*
G37*
G36*
X00601029Y00489696D02*
X00598718D01*
X00596582Y00488811D01*
X00595623Y00487852D01*
X00594793Y00487283D01*
X00593964Y00487852D01*
X00593004Y00488811D01*
X00590869Y00489696D01*
X00588558D01*
X00586422Y00488811D01*
X00585463Y00487852D01*
X00584633Y00487283D01*
X00583804Y00487852D01*
X00582845Y00488811D01*
X00580709Y00489696D01*
X00578398D01*
X00576262Y00488811D01*
X00574628Y00487177D01*
X00573743Y00485042D01*
Y00482730D01*
X00574628Y00480595D01*
X00576262Y00478960D01*
X00578398Y00478076D01*
X00580709D01*
X00582845Y00478960D01*
X00583804Y00479920D01*
X00584633Y00480489D01*
X00585463Y00479920D01*
X00586422Y00478960D01*
X00588558Y00478076D01*
X00590869D01*
X00593004Y00478960D01*
X00593964Y00479920D01*
X00594793Y00480489D01*
X00595623Y00479920D01*
X00596582Y00478960D01*
X00598718Y00478076D01*
X00601029D01*
X00603164Y00478960D01*
X00604799Y00480595D01*
X00605683Y00482730D01*
Y00485042D01*
X00604799Y00487177D01*
X00603164Y00488811D01*
X00601029Y00489696D01*
D02*
G37*
G36*
X01082434Y00493706D02*
X01080122D01*
X01077987Y00492822D01*
X01076352Y00491187D01*
X01075468Y00489052D01*
Y00486740D01*
X01076352Y00484605D01*
X01077987Y00482971D01*
X01080122Y00482086D01*
X01082434D01*
X01084569Y00482971D01*
X01086204Y00484605D01*
X01087088Y00486740D01*
Y00489052D01*
X01086204Y00491187D01*
X01084569Y00492822D01*
X01082434Y00493706D01*
D02*
G37*
G36*
X01049414Y00482586D02*
X01047102D01*
X01044967Y00481702D01*
X01044008Y00480742D01*
X01043178Y00480173D01*
X01042348Y00480742D01*
X01041389Y00481702D01*
X01039254Y00482586D01*
X01036942D01*
X01034807Y00481702D01*
X01033848Y00480742D01*
X01033018Y00480173D01*
X01032188Y00480742D01*
X01031229Y00481702D01*
X01029094Y00482586D01*
X01026782D01*
X01024647Y00481702D01*
X01023012Y00480067D01*
X01022128Y00477932D01*
Y00475620D01*
X01023012Y00473485D01*
X01024647Y00471851D01*
X01026782Y00470966D01*
X01029094D01*
X01031229Y00471851D01*
X01032188Y00472810D01*
X01033018Y00473379D01*
X01033848Y00472810D01*
X01034807Y00471851D01*
X01036942Y00470966D01*
X01039254D01*
X01041389Y00471851D01*
X01042348Y00472810D01*
X01043178Y00473379D01*
X01044008Y00472810D01*
X01044967Y00471851D01*
X01047102Y00470966D01*
X01049414D01*
X01051549Y00471851D01*
X01053184Y00473485D01*
X01054068Y00475620D01*
Y00477932D01*
X01053184Y00480067D01*
X01051549Y00481702D01*
X01049414Y00482586D01*
D02*
G37*
G36*
X00809384Y00496676D02*
X00807072D01*
X00804937Y00495792D01*
X00803303Y00494157D01*
X00802418Y00492022D01*
Y00489710D01*
X00803303Y00487575D01*
X00804092Y00486786D01*
X00803566Y00485516D01*
X00801992D01*
X00799857Y00484631D01*
X00798223Y00482997D01*
X00797338Y00480861D01*
Y00478550D01*
X00798223Y00476415D01*
X00799857Y00474780D01*
X00801992Y00473896D01*
X00804304D01*
X00806439Y00474780D01*
X00808074Y00476415D01*
X00808958Y00478550D01*
Y00480861D01*
X00808074Y00482997D01*
X00807284Y00483786D01*
X00807810Y00485056D01*
X00809384D01*
X00811519Y00485941D01*
X00813153Y00487575D01*
X00814038Y00489710D01*
Y00492022D01*
X00813153Y00494157D01*
X00811519Y00495792D01*
X00809384Y00496676D01*
D02*
G37*
G36*
X00823354Y00464316D02*
X00821042D01*
X00818907Y00463432D01*
X00817272Y00461797D01*
X00816388Y00459662D01*
Y00457351D01*
X00817272Y00455215D01*
X00818907Y00453581D01*
X00821042Y00452696D01*
X00823354D01*
X00825489Y00453581D01*
X00827123Y00455215D01*
X00828008Y00457351D01*
Y00459662D01*
X00827123Y00461797D01*
X00825489Y00463432D01*
X00823354Y00464316D01*
D02*
G37*
G36*
X00654523Y00444489D02*
X00652212D01*
X00650077Y00443605D01*
X00648442Y00441970D01*
X00647940Y00440757D01*
X00646565D01*
X00646062Y00441970D01*
X00644428Y00443605D01*
X00642293Y00444489D01*
X00639981D01*
X00637846Y00443605D01*
X00636212Y00441970D01*
X00635327Y00439835D01*
Y00437524D01*
X00636212Y00435388D01*
X00637846Y00433754D01*
X00639981Y00432869D01*
X00642293D01*
X00644428Y00433754D01*
X00646062Y00435388D01*
X00646565Y00436601D01*
X00647940D01*
X00648442Y00435388D01*
X00650077Y00433754D01*
X00652212Y00432869D01*
X00654523D01*
X00656659Y00433754D01*
X00658293Y00435388D01*
X00659178Y00437524D01*
Y00439835D01*
X00658293Y00441970D01*
X00656659Y00443605D01*
X00654523Y00444489D01*
D02*
G37*
G36*
X01079284Y00432617D02*
X01076973D01*
X01074837Y00431732D01*
X01073203Y00430098D01*
X01072318Y00427962D01*
Y00425651D01*
X01073203Y00423516D01*
X01074837Y00421881D01*
X01076973Y00420997D01*
X01079284D01*
X01081419Y00421881D01*
X01083054Y00423516D01*
X01083938Y00425651D01*
Y00427962D01*
X01083054Y00430098D01*
X01081419Y00431732D01*
X01079284Y00432617D01*
D02*
G37*
G36*
X01101334Y00432403D02*
X01099022D01*
X01096887Y00431519D01*
X01095253Y00429884D01*
X01094368Y00427749D01*
Y00425437D01*
X01095253Y00423302D01*
X01096887Y00421668D01*
X01099022Y00420783D01*
X01101334D01*
X01103469Y00421668D01*
X01105104Y00423302D01*
X01105988Y00425437D01*
Y00427749D01*
X01105104Y00429884D01*
X01103469Y00431519D01*
X01101334Y00432403D01*
D02*
G37*
G36*
X00503286Y00728036D02*
X00500975D01*
X00498839Y00727151D01*
X00497205Y00725517D01*
X00496320Y00723382D01*
Y00721070D01*
X00497205Y00718935D01*
X00498839Y00717300D01*
X00500975Y00716416D01*
X00503286D01*
X00505421Y00717300D01*
X00507056Y00718935D01*
X00507940Y00721070D01*
Y00723382D01*
X00507056Y00725517D01*
X00505421Y00727151D01*
X00503286Y00728036D01*
D02*
G37*
%LPD*%
G54D15*
X00322326Y00179196D02*
Y00171579D01*
X00326135D01*
X00327404Y00172848D01*
Y00174118D01*
X00326135Y00175387D01*
X00322326D01*
X00326135D01*
X00327404Y00176657D01*
Y00177927D01*
X00326135Y00179196D01*
X00322326D01*
X00331213Y00171579D02*
X00333752D01*
X00335022Y00172848D01*
Y00175387D01*
X00333752Y00176657D01*
X00331213D01*
X00329944Y00175387D01*
Y00172848D01*
X00331213Y00171579D01*
X00338831Y00177927D02*
Y00176657D01*
X00337561D01*
X00340100D01*
X00338831D01*
Y00172848D01*
X00340100Y00171579D01*
X00345179Y00177927D02*
Y00176657D01*
X00343909D01*
X00346448D01*
X00345179D01*
Y00172848D01*
X00346448Y00171579D01*
X00351527D02*
X00354066D01*
X00355335Y00172848D01*
Y00175387D01*
X00354066Y00176657D01*
X00351527D01*
X00350257Y00175387D01*
Y00172848D01*
X00351527Y00171579D01*
X00357874D02*
Y00176657D01*
X00359144D01*
X00360414Y00175387D01*
Y00171579D01*
Y00175387D01*
X00361683Y00176657D01*
X00362953Y00175387D01*
Y00171579D01*
X00373110Y00179196D02*
Y00171579D01*
X00378188D01*
X00381997Y00176657D02*
X00384536D01*
X00385806Y00175387D01*
Y00171579D01*
X00381997D01*
X00380727Y00172848D01*
X00381997Y00174118D01*
X00385806D01*
X00388345Y00176657D02*
Y00172848D01*
X00389614Y00171579D01*
X00393423D01*
Y00170309D01*
X00392153Y00169039D01*
X00390884D01*
X00393423Y00171579D02*
Y00176657D01*
X00399771Y00171579D02*
X00397232D01*
X00395962Y00172848D01*
Y00175387D01*
X00397232Y00176657D01*
X00399771D01*
X00401040Y00175387D01*
Y00174118D01*
X00395962D01*
X00403580Y00176657D02*
Y00171579D01*
Y00174118D01*
X00404849Y00175387D01*
X00406119Y00176657D01*
X00407388D01*
X00885317Y00171450D02*
Y00179067D01*
X00890395Y00171450D01*
Y00179067D01*
X00892934Y00171450D02*
X00898013Y00176528D01*
X00900552Y00171450D02*
Y00176528D01*
X00903091Y00179067D01*
X00905630Y00176528D01*
Y00171450D01*
Y00175259D01*
X00900552D01*
X00746760Y00179067D02*
X00751838D01*
X00749299D01*
Y00171450D01*
X00754378Y00179067D02*
X00756917D01*
X00755647D01*
Y00171450D01*
X00754378D01*
X00756917D01*
X00760725Y00179067D02*
Y00171450D01*
X00764534D01*
X00765804Y00172720D01*
Y00177798D01*
X00764534Y00179067D01*
X00760725D01*
X00777230Y00171450D02*
Y00179067D01*
X00779769D02*
Y00171450D01*
X00775961Y00176528D02*
X00779769D01*
X00781039D01*
X00775961Y00173989D02*
X00781039D01*
X00783578Y00176528D02*
X00784848D01*
Y00175259D01*
X00783578D01*
Y00176528D01*
Y00172720D02*
X00784848D01*
Y00171450D01*
X00783578D01*
Y00172720D01*
X01474470Y00126912D02*
X01479548D01*
X01477009D01*
Y00119295D01*
X01487166Y00126912D02*
X01482088D01*
Y00119295D01*
X01487166D01*
X01482088Y00123104D02*
X01484627D01*
X01489705Y00126912D02*
X01494783Y00119295D01*
Y00126912D02*
X01489705Y00119295D01*
X01497323D02*
Y00124373D01*
X01499862Y00126912D01*
X01502401Y00124373D01*
Y00119295D01*
Y00123104D01*
X01497323D01*
X01510018Y00125643D02*
X01508749Y00126912D01*
X01506210D01*
X01504940Y00125643D01*
Y00124373D01*
X01506210Y00123104D01*
X01508749D01*
X01510018Y00121834D01*
Y00120564D01*
X01508749Y00119295D01*
X01506210D01*
X01504940Y00120564D01*
X01520175Y00126912D02*
X01522714D01*
X01521445D01*
Y00119295D01*
X01520175D01*
X01522714D01*
X01526523D02*
Y00126912D01*
X01531602Y00119295D01*
Y00126912D01*
X01539219Y00125643D02*
X01537950Y00126912D01*
X01535410D01*
X01534141Y00125643D01*
Y00124373D01*
X01535410Y00123104D01*
X01537950D01*
X01539219Y00121834D01*
Y00120564D01*
X01537950Y00119295D01*
X01535410D01*
X01534141Y00120564D01*
X01541758Y00126912D02*
X01546837D01*
X01544297D01*
Y00119295D01*
X01549376D02*
Y00126912D01*
X01553185D01*
X01554454Y00125643D01*
Y00123104D01*
X01553185Y00121834D01*
X01549376D01*
X01551915D02*
X01554454Y00119295D01*
X01556993Y00126912D02*
Y00120564D01*
X01558263Y00119295D01*
X01560802D01*
X01562072Y00120564D01*
Y00126912D01*
X01564611Y00119295D02*
Y00126912D01*
X01567150Y00124373D01*
X01569689Y00126912D01*
Y00119295D01*
X01577307Y00126912D02*
X01572228D01*
Y00119295D01*
X01577307D01*
X01572228Y00123104D02*
X01574768D01*
X01579846Y00119295D02*
Y00126912D01*
X01584924Y00119295D01*
Y00126912D01*
X01587463D02*
X01592542D01*
X01590003D01*
Y00119295D01*
X01600159Y00125643D02*
X01598890Y00126912D01*
X01596351D01*
X01595081Y00125643D01*
Y00124373D01*
X01596351Y00123104D01*
X01598890D01*
X01600159Y00121834D01*
Y00120564D01*
X01598890Y00119295D01*
X01596351D01*
X01595081Y00120564D01*
X01153287Y00125643D02*
X01154557Y00126912D01*
X01157096D01*
X01158365Y00125643D01*
Y00124373D01*
X01157096Y00123104D01*
X01158365Y00121834D01*
Y00120564D01*
X01157096Y00119295D01*
X01154557D01*
X01153287Y00120564D01*
Y00121834D01*
X01154557Y00123104D01*
X01153287Y00124373D01*
Y00125643D01*
X01154557Y00123104D02*
X01157096D01*
X01160904Y00124373D02*
X01162174D01*
Y00123104D01*
X01160904D01*
Y00124373D01*
Y00120564D02*
X01162174D01*
Y00119295D01*
X01160904D01*
Y00120564D01*
X01172331Y00126912D02*
X01167253D01*
Y00123104D01*
X01169792Y00124373D01*
X01171061D01*
X01172331Y00123104D01*
Y00120564D01*
X01171061Y00119295D01*
X01168522D01*
X01167253Y00120564D01*
X01174870Y00126912D02*
X01179948D01*
Y00125643D01*
X01174870Y00120564D01*
Y00119295D01*
X01182488Y00124373D02*
X01183757D01*
Y00123104D01*
X01182488D01*
Y00124373D01*
Y00120564D02*
X01183757D01*
Y00119295D01*
X01182488D01*
Y00120564D01*
X01188836Y00119295D02*
X01191375D01*
X01190105D01*
Y00126912D01*
X01188836Y00125643D01*
X01200262Y00126912D02*
X01195183D01*
Y00123104D01*
X01197723Y00124373D01*
X01198992D01*
X01200262Y00123104D01*
Y00120564D01*
X01198992Y00119295D01*
X01196453D01*
X01195183Y00120564D01*
X01210418Y00119295D02*
Y00124373D01*
X01212958Y00126912D01*
X01215497Y00124373D01*
Y00119295D01*
Y00123104D01*
X01210418D01*
X01218036Y00119295D02*
Y00126912D01*
X01220575Y00124373D01*
X01223114Y00126912D01*
Y00119295D01*
X00117729D02*
Y00126912D01*
X00121538D01*
X00122807Y00125643D01*
Y00123104D01*
X00121538Y00121834D01*
X00117729D01*
X00125346Y00126912D02*
Y00119295D01*
X00130425D01*
X00136773Y00126912D02*
X00134234D01*
X00132964Y00125643D01*
Y00120564D01*
X00134234Y00119295D01*
X00136773D01*
X00138042Y00120564D01*
Y00125643D01*
X00136773Y00126912D01*
X00140582D02*
X00145660D01*
X00143121D01*
Y00119295D01*
X00155817D02*
Y00126912D01*
X00160895Y00119295D01*
Y00126912D01*
X00163434Y00119295D02*
Y00124373D01*
X00165973Y00126912D01*
X00168513Y00124373D01*
Y00119295D01*
Y00123104D01*
X00163434D01*
X00171052Y00119295D02*
Y00126912D01*
X00173591Y00124373D01*
X00176130Y00126912D01*
Y00119295D01*
X00183748Y00126912D02*
X00178669D01*
Y00119295D01*
X00183748D01*
X00178669Y00123104D02*
X00181208D01*
X00193904Y00121834D02*
X00198983D01*
X00193904Y00124373D02*
X00198983D01*
X00117729Y00179196D02*
Y00171579D01*
X00122807D01*
X00125346D02*
Y00176657D01*
X00127886Y00179196D01*
X00130425Y00176657D01*
Y00171579D01*
Y00175387D01*
X00125346D01*
X00132964Y00179196D02*
Y00177927D01*
X00135503Y00175387D01*
X00138042Y00177927D01*
Y00179196D01*
X00135503Y00175387D02*
Y00171579D01*
X00145660Y00179196D02*
X00140582D01*
Y00171579D01*
X00145660D01*
X00140582Y00175387D02*
X00143121D01*
X00148199Y00171579D02*
Y00179196D01*
X00152008D01*
X00153278Y00177927D01*
Y00175387D01*
X00152008Y00174118D01*
X00148199D01*
X00150738D02*
X00153278Y00171579D01*
X00163434D02*
Y00179196D01*
X00168513Y00171579D01*
Y00179196D01*
X00171052Y00171579D02*
Y00176657D01*
X00173591Y00179196D01*
X00176130Y00176657D01*
Y00171579D01*
Y00175387D01*
X00171052D01*
X00178669Y00171579D02*
Y00179196D01*
X00181208Y00176657D01*
X00183748Y00179196D01*
Y00171579D01*
X00191365Y00179196D02*
X00186287D01*
Y00171579D01*
X00191365D01*
X00186287Y00175387D02*
X00188826D01*
X00201522Y00174118D02*
X00206600D01*
X00201522Y00176657D02*
X00206600D01*
X00746760Y00230714D02*
Y00223097D01*
X00750569D01*
X00751838Y00224366D01*
Y00225636D01*
X00750569Y00226905D01*
X00746760D01*
X00750569D01*
X00751838Y00228175D01*
Y00229445D01*
X00750569Y00230714D01*
X00746760D01*
X00758186D02*
X00755647D01*
X00754378Y00229445D01*
Y00224366D01*
X00755647Y00223097D01*
X00758186D01*
X00759456Y00224366D01*
Y00229445D01*
X00758186Y00230714D01*
X00761995Y00223097D02*
Y00228175D01*
X00764534Y00230714D01*
X00767073Y00228175D01*
Y00223097D01*
Y00226905D01*
X00761995D01*
X00769613Y00223097D02*
Y00230714D01*
X00773421D01*
X00774691Y00229445D01*
Y00226905D01*
X00773421Y00225636D01*
X00769613D01*
X00772152D02*
X00774691Y00223097D01*
X00777230Y00230714D02*
Y00223097D01*
X00781039D01*
X00782309Y00224366D01*
Y00229445D01*
X00781039Y00230714D01*
X00777230D01*
X00793735Y00223097D02*
Y00230714D01*
X00796274D02*
Y00223097D01*
X00792465Y00228175D02*
X00796274D01*
X00797544D01*
X00792465Y00225636D02*
X00797544D01*
X00800083Y00228175D02*
X00801352D01*
Y00226905D01*
X00800083D01*
Y00228175D01*
Y00224366D02*
X00801352D01*
Y00223097D01*
X00800083D01*
Y00224366D01*
X00885317Y00223097D02*
Y00230714D01*
X00889126D01*
X00890395Y00229445D01*
Y00226905D01*
X00889126Y00225636D01*
X00885317D01*
X00892934Y00223097D02*
Y00230714D01*
X00895474Y00228175D01*
X00898013Y00230714D01*
Y00223097D01*
X00900552D02*
Y00230714D01*
X00904361D01*
X00905630Y00229445D01*
Y00226905D01*
X00904361Y00225636D01*
X00900552D01*
X00908170Y00229445D02*
X00909439Y00230714D01*
X00911978D01*
X00913248Y00229445D01*
Y00228175D01*
X00911978Y00226905D01*
X00910709D01*
X00911978D01*
X00913248Y00225636D01*
Y00224366D01*
X00911978Y00223097D01*
X00909439D01*
X00908170Y00224366D01*
X00915787Y00223097D02*
X00918326D01*
X00917057D01*
Y00230714D01*
X00915787Y00229445D01*
X00927213Y00223097D02*
X00922135D01*
X00927213Y00228175D01*
Y00229445D01*
X00925944Y00230714D01*
X00923405D01*
X00922135Y00229445D01*
X00929753D02*
X00931022Y00230714D01*
X00933561D01*
X00934831Y00229445D01*
Y00228175D01*
X00933561Y00226905D01*
X00932292D01*
X00933561D01*
X00934831Y00225636D01*
Y00224366D01*
X00933561Y00223097D01*
X00931022D01*
X00929753Y00224366D01*
X00942449Y00230714D02*
X00939909Y00229445D01*
X00937370Y00226905D01*
Y00224366D01*
X00938640Y00223097D01*
X00941179D01*
X00942449Y00224366D01*
Y00225636D01*
X00941179Y00226905D01*
X00937370D01*
X01173861Y00223097D02*
Y00224366D01*
X01175131D01*
Y00223097D01*
X01173861D01*
X01180209D02*
Y00230714D01*
X01184018D01*
X01185287Y00229445D01*
Y00226905D01*
X01184018Y00225636D01*
X01180209D01*
X01192905Y00229445D02*
X01191635Y00230714D01*
X01189096D01*
X01187827Y00229445D01*
Y00224366D01*
X01189096Y00223097D01*
X01191635D01*
X01192905Y00224366D01*
X01195444Y00230714D02*
Y00223097D01*
X01199253D01*
X01200522Y00224366D01*
Y00225636D01*
X01199253Y00226905D01*
X01195444D01*
X01199253D01*
X01200522Y00228175D01*
Y00229445D01*
X01199253Y00230714D01*
X01195444D01*
X01203062Y00221827D02*
X01208140D01*
X01210679Y00223097D02*
Y00230714D01*
X01214488D01*
X01215757Y00229445D01*
Y00226905D01*
X01214488Y00225636D01*
X01210679D01*
X01213218D02*
X01215757Y00223097D01*
X01222105D02*
X01219566D01*
X01218297Y00224366D01*
Y00226905D01*
X01219566Y00228175D01*
X01222105D01*
X01223375Y00226905D01*
Y00225636D01*
X01218297D01*
X01225914Y00228175D02*
X01228453Y00223097D01*
X01230993Y00228175D01*
X00117729Y00223097D02*
Y00228175D01*
X00120268Y00230714D01*
X00122807Y00228175D01*
Y00223097D01*
Y00226905D01*
X00117729D01*
X00125346Y00230714D02*
Y00223097D01*
X00130425D01*
X00132964Y00230714D02*
Y00223097D01*
X00138042D01*
X00148199D02*
Y00228175D01*
X00150738Y00230714D01*
X00153278Y00228175D01*
Y00223097D01*
Y00226905D01*
X00148199D01*
X00155817Y00223097D02*
Y00230714D01*
X00159626D01*
X00160895Y00229445D01*
Y00226905D01*
X00159626Y00225636D01*
X00155817D01*
X00158356D02*
X00160895Y00223097D01*
X00163434Y00230714D02*
X00168513D01*
X00165973D01*
Y00223097D01*
X00171052Y00230714D02*
Y00223097D01*
X00173591Y00225636D01*
X00176130Y00223097D01*
Y00230714D01*
X00182478D02*
X00179939D01*
X00178669Y00229445D01*
Y00224366D01*
X00179939Y00223097D01*
X00182478D01*
X00183748Y00224366D01*
Y00229445D01*
X00182478Y00230714D01*
X00186287Y00223097D02*
Y00230714D01*
X00190096D01*
X00191365Y00229445D01*
Y00226905D01*
X00190096Y00225636D01*
X00186287D01*
X00188826D02*
X00191365Y00223097D01*
X00193904Y00230714D02*
Y00223097D01*
Y00225636D01*
X00198983Y00230714D01*
X00195174Y00226905D01*
X00198983Y00223097D01*
X00209139Y00230714D02*
Y00225636D01*
X00211679Y00223097D01*
X00214218Y00225636D01*
Y00230714D01*
X00216757D02*
X00219296D01*
X00218027D01*
Y00223097D01*
X00216757D01*
X00219296D01*
X00228183Y00230714D02*
X00223105D01*
Y00223097D01*
X00228183D01*
X00223105Y00226905D02*
X00225644D01*
X00230722Y00230714D02*
Y00223097D01*
X00233262Y00225636D01*
X00235801Y00223097D01*
Y00230714D01*
X00243418D02*
X00238340D01*
Y00223097D01*
X00243418D01*
X00238340Y00226905D02*
X00240879D01*
X00245958Y00230714D02*
Y00223097D01*
X00249766D01*
X00251036Y00224366D01*
Y00229445D01*
X00249766Y00230714D01*
X00245958D01*
X00266271D02*
X00261193D01*
Y00226905D01*
X00263732D01*
X00261193D01*
Y00223097D01*
X00268810D02*
Y00230714D01*
X00272619D01*
X00273888Y00229445D01*
Y00226905D01*
X00272619Y00225636D01*
X00268810D01*
X00271349D02*
X00273888Y00223097D01*
X00280236Y00230714D02*
X00277697D01*
X00276428Y00229445D01*
Y00224366D01*
X00277697Y00223097D01*
X00280236D01*
X00281506Y00224366D01*
Y00229445D01*
X00280236Y00230714D01*
X00284045Y00223097D02*
Y00230714D01*
X00286584Y00228175D01*
X00289124Y00230714D01*
Y00223097D01*
X00299280Y00230714D02*
X00304359D01*
X00301819D01*
Y00223097D01*
X00310707Y00230714D02*
X00308167D01*
X00306898Y00229445D01*
Y00224366D01*
X00308167Y00223097D01*
X00310707D01*
X00311976Y00224366D01*
Y00229445D01*
X00310707Y00230714D01*
X00314515Y00223097D02*
Y00230714D01*
X00318324D01*
X00319594Y00229445D01*
Y00226905D01*
X00318324Y00225636D01*
X00314515D01*
X00334829Y00229445D02*
X00333559Y00230714D01*
X00331020D01*
X00329750Y00229445D01*
Y00228175D01*
X00331020Y00226905D01*
X00333559D01*
X00334829Y00225636D01*
Y00224366D01*
X00333559Y00223097D01*
X00331020D01*
X00329750Y00224366D01*
X00337368Y00230714D02*
X00339907D01*
X00338638D01*
Y00223097D01*
X00337368D01*
X00339907D01*
X00343716Y00230714D02*
Y00223097D01*
X00347525D01*
X00348794Y00224366D01*
Y00229445D01*
X00347525Y00230714D01*
X00343716D01*
X00356412D02*
X00351333D01*
Y00223097D01*
X00356412D01*
X00351333Y00226905D02*
X00353873D01*
X00752346Y00125643D02*
X00751077Y00126912D01*
X00748538D01*
X00747268Y00125643D01*
Y00120564D01*
X00748538Y00119295D01*
X00751077D01*
X00752346Y00120564D01*
Y00123104D01*
X00749807D01*
X00759964Y00126912D02*
X00754885D01*
Y00119295D01*
X00759964D01*
X00754885Y00123104D02*
X00757425D01*
X00762503Y00119295D02*
Y00126912D01*
X00767581Y00119295D01*
Y00126912D01*
X00775199D02*
X00770121D01*
Y00119295D01*
X00775199D01*
X00770121Y00123104D02*
X00772660D01*
X00777738Y00119295D02*
Y00126912D01*
X00781547D01*
X00782816Y00125643D01*
Y00123104D01*
X00781547Y00121834D01*
X00777738D01*
X00780277D02*
X00782816Y00119295D01*
X00785356D02*
Y00124373D01*
X00787895Y00126912D01*
X00790434Y00124373D01*
Y00119295D01*
Y00123104D01*
X00785356D01*
X00792973Y00126912D02*
X00798052D01*
X00795512D01*
Y00119295D01*
X00805669Y00126912D02*
X00800591D01*
Y00119295D01*
X00805669D01*
X00800591Y00123104D02*
X00803130D01*
X00808208Y00126912D02*
Y00119295D01*
X00812017D01*
X00813287Y00120564D01*
Y00125643D01*
X00812017Y00126912D01*
X00808208D01*
X00846296Y00124373D02*
X00847566D01*
Y00123104D01*
X00846296D01*
Y00124373D01*
Y00120564D02*
X00847566D01*
Y00119295D01*
X00846296D01*
Y00120564D01*
X00968121Y00126912D02*
X00973199D01*
Y00125643D01*
X00968121Y00120564D01*
Y00119295D01*
X00975739D02*
X00980817Y00124373D01*
X00988434Y00119295D02*
X00983356D01*
X00988434Y00124373D01*
Y00125643D01*
X00987165Y00126912D01*
X00984626D01*
X00983356Y00125643D01*
X00990974Y00119295D02*
X00993513D01*
X00992243D01*
Y00126912D01*
X00990974Y00125643D01*
X00997322Y00119295D02*
X01002400Y00124373D01*
X01010017Y00119295D02*
X01004939D01*
X01010017Y00124373D01*
Y00125643D01*
X01008748Y00126912D01*
X01006209D01*
X01004939Y00125643D01*
X01012557D02*
X01013826Y00126912D01*
X01016365D01*
X01017635Y00125643D01*
Y00120564D01*
X01016365Y00119295D01*
X01013826D01*
X01012557Y00120564D01*
Y00125643D01*
X01025253Y00119295D02*
X01020174D01*
X01025253Y00124373D01*
Y00125643D01*
X01023983Y00126912D01*
X01021444D01*
X01020174Y00125643D01*
X01027792D02*
X01029061Y00126912D01*
X01031600D01*
X01032870Y00125643D01*
Y00124373D01*
X01031600Y00123104D01*
X01030331D01*
X01031600D01*
X01032870Y00121834D01*
Y00120564D01*
X01031600Y00119295D01*
X01029061D01*
X01027792Y00120564D01*
X00322326Y00119295D02*
Y00126912D01*
X00326135D01*
X00327404Y00125643D01*
Y00123104D01*
X00326135Y00121834D01*
X00322326D01*
X00329944Y00119295D02*
Y00126912D01*
X00332483Y00124373D01*
X00335022Y00126912D01*
Y00119295D01*
X00337561D02*
Y00126912D01*
X00341370D01*
X00342639Y00125643D01*
Y00123104D01*
X00341370Y00121834D01*
X00337561D01*
X00345179Y00125643D02*
X00346448Y00126912D01*
X00348987D01*
X00350257Y00125643D01*
Y00124373D01*
X00348987Y00123104D01*
X00347718D01*
X00348987D01*
X00350257Y00121834D01*
Y00120564D01*
X00348987Y00119295D01*
X00346448D01*
X00345179Y00120564D01*
X00352796Y00119295D02*
X00355335D01*
X00354066D01*
Y00126912D01*
X00352796Y00125643D01*
X00364222Y00119295D02*
X00359144D01*
X00364222Y00124373D01*
Y00125643D01*
X00362953Y00126912D01*
X00360414D01*
X00359144Y00125643D01*
X00366762D02*
X00368031Y00126912D01*
X00370570D01*
X00371840Y00125643D01*
Y00124373D01*
X00370570Y00123104D01*
X00369301D01*
X00370570D01*
X00371840Y00121834D01*
Y00120564D01*
X00370570Y00119295D01*
X00368031D01*
X00366762Y00120564D01*
X00379458Y00126912D02*
X00376918Y00125643D01*
X00374379Y00123104D01*
Y00120564D01*
X00375649Y00119295D01*
X00378188D01*
X00379458Y00120564D01*
Y00121834D01*
X00378188Y00123104D01*
X00374379D01*
X00381997Y00119295D02*
Y00126912D01*
X00385806D01*
X00387075Y00125643D01*
Y00123104D01*
X00385806Y00121834D01*
X00381997D01*
X00394693Y00125643D02*
X00393423Y00126912D01*
X00390884D01*
X00389614Y00125643D01*
Y00120564D01*
X00390884Y00119295D01*
X00393423D01*
X00394693Y00120564D01*
X00397232Y00126912D02*
Y00119295D01*
X00401040D01*
X00402310Y00120564D01*
Y00121834D01*
X00401040Y00123104D01*
X00397232D01*
X00401040D01*
X00402310Y00124373D01*
Y00125643D01*
X00401040Y00126912D01*
X00397232D01*
X00404849Y00118025D02*
X00409928D01*
X00412467Y00119295D02*
Y00126912D01*
X00416276D01*
X00417545Y00125643D01*
Y00123104D01*
X00416276Y00121834D01*
X00412467D01*
X00415006D02*
X00417545Y00119295D01*
X00423893D02*
X00421354D01*
X00420084Y00120564D01*
Y00123104D01*
X00421354Y00124373D01*
X00423893D01*
X00425163Y00123104D01*
Y00121834D01*
X00420084D01*
X00427702Y00124373D02*
X00430241Y00119295D01*
X00432780Y00124373D01*
X00435319Y00119295D02*
Y00120564D01*
X00436589D01*
Y00119295D01*
X00435319D01*
X00446746Y00125643D02*
X00445476Y00126912D01*
X00442937D01*
X00441667Y00125643D01*
Y00120564D01*
X00442937Y00119295D01*
X00445476D01*
X00446746Y00120564D01*
Y00123104D01*
X00444207D01*
X00449285Y00126912D02*
Y00119295D01*
X00453094D01*
X00454363Y00120564D01*
Y00121834D01*
X00453094Y00123104D01*
X00449285D01*
X00453094D01*
X00454363Y00124373D01*
Y00125643D01*
X00453094Y00126912D01*
X00449285D01*
X00456903D02*
Y00119295D01*
X00461981D01*
X01099820Y00223097D02*
Y00230714D01*
X01103629D01*
X01104898Y00229445D01*
Y00226905D01*
X01103629Y00225636D01*
X01099820D01*
X01102359D02*
X01104898Y00223097D01*
X01112516Y00230714D02*
X01107438D01*
Y00223097D01*
X01112516D01*
X01107438Y00226905D02*
X01109977D01*
X01115055Y00230714D02*
Y00225636D01*
X01117594Y00223097D01*
X01120133Y00225636D01*
Y00230714D01*
X01122673Y00228175D02*
X01123942D01*
Y00226905D01*
X01122673D01*
Y00228175D01*
Y00224366D02*
X01123942D01*
Y00223097D01*
X01122673D01*
Y00224366D01*
X01317750Y00229445D02*
X01316481Y00230714D01*
X01313942D01*
X01312672Y00229445D01*
Y00228175D01*
X01313942Y00226905D01*
X01316481D01*
X01317750Y00225636D01*
Y00224366D01*
X01316481Y00223097D01*
X01313942D01*
X01312672Y00224366D01*
X01320289Y00230714D02*
Y00225636D01*
X01322829Y00223097D01*
X01325368Y00225636D01*
Y00230714D01*
X01327907Y00223097D02*
Y00230714D01*
X01332985Y00223097D01*
Y00230714D01*
X01343142Y00223097D02*
Y00230714D01*
X01346951D01*
X01348221Y00229445D01*
Y00226905D01*
X01346951Y00225636D01*
X01343142D01*
X01345681D02*
X01348221Y00223097D01*
X01355838Y00230714D02*
X01350760D01*
Y00223097D01*
X01355838D01*
X01350760Y00226905D02*
X01353299D01*
X01358377Y00230714D02*
Y00225636D01*
X01360916Y00223097D01*
X01363456Y00225636D01*
Y00230714D01*
X01365995Y00228175D02*
X01367264D01*
Y00226905D01*
X01365995D01*
Y00228175D01*
Y00224366D02*
X01367264D01*
Y00223097D01*
X01365995D01*
Y00224366D01*
X01441196Y00223097D02*
Y00230714D01*
X01446274Y00223097D01*
Y00230714D01*
X01450083Y00223097D02*
X01452622D01*
X01453892Y00224366D01*
Y00226905D01*
X01452622Y00228175D01*
X01450083D01*
X01448813Y00226905D01*
Y00224366D01*
X01450083Y00223097D01*
X01457701Y00229445D02*
Y00228175D01*
X01456431D01*
X01458970D01*
X01457701D01*
Y00224366D01*
X01458970Y00223097D01*
X01470397D02*
X01472936D01*
X01471666D01*
Y00228175D01*
X01470397D01*
X01476745Y00223097D02*
Y00228175D01*
X01480553D01*
X01481823Y00226905D01*
Y00223097D01*
X01491980Y00228175D02*
X01494519Y00223097D01*
X01497058Y00228175D01*
X01503406Y00223097D02*
X01500867D01*
X01499597Y00224366D01*
Y00226905D01*
X01500867Y00228175D01*
X01503406D01*
X01504675Y00226905D01*
Y00225636D01*
X01499597D01*
X01507215Y00228175D02*
Y00223097D01*
Y00225636D01*
X01508484Y00226905D01*
X01509754Y00228175D01*
X01511023D01*
X01514832Y00223097D02*
X01518641D01*
X01519910Y00224366D01*
X01518641Y00225636D01*
X01516102D01*
X01514832Y00226905D01*
X01516102Y00228175D01*
X01519910D01*
X01522450Y00223097D02*
X01524989D01*
X01523719D01*
Y00228175D01*
X01522450D01*
X01530067Y00223097D02*
X01532606D01*
X01533876Y00224366D01*
Y00226905D01*
X01532606Y00228175D01*
X01530067D01*
X01528798Y00226905D01*
Y00224366D01*
X01530067Y00223097D01*
X01536415D02*
Y00228175D01*
X01540224D01*
X01541494Y00226905D01*
Y00223097D01*
X01556729Y00228175D02*
X01552920D01*
X01551650Y00226905D01*
Y00224366D01*
X01552920Y00223097D01*
X01556729D01*
X01560537D02*
X01563077D01*
X01564346Y00224366D01*
Y00226905D01*
X01563077Y00228175D01*
X01560537D01*
X01559268Y00226905D01*
Y00224366D01*
X01560537Y00223097D01*
X01566885D02*
Y00228175D01*
X01570694D01*
X01571964Y00226905D01*
Y00223097D01*
X01575773Y00229445D02*
Y00228175D01*
X01574503D01*
X01577042D01*
X01575773D01*
Y00224366D01*
X01577042Y00223097D01*
X01580851Y00228175D02*
Y00223097D01*
Y00225636D01*
X01582120Y00226905D01*
X01583390Y00228175D01*
X01584660D01*
X01589738Y00223097D02*
X01592277D01*
X01593547Y00224366D01*
Y00226905D01*
X01592277Y00228175D01*
X01589738D01*
X01588468Y00226905D01*
Y00224366D01*
X01589738Y00223097D01*
X01596086D02*
X01598625D01*
X01597355D01*
Y00230714D01*
X01596086D01*
G54D16*
X01485338Y00636581D02*
X01486338D01*
X01488068Y00634851D01*
X00912976Y01499622D02*
X00913976D01*
X00280963Y01224386D02*
X00281358D01*
X00278260Y01227089D02*
X00280963Y01224386D01*
X00271938Y01227836D02*
X00272685Y01227089D01*
X00278260D01*
X00272168Y01191346D02*
X00281128D01*
X00271938Y01191576D02*
X00272168Y01191346D01*
X00281128D02*
X00281358Y01191116D01*
X00249484Y01227596D02*
X00249604Y01227716D01*
X00249484Y01215486D02*
X00249529Y01215531D01*
X00249522Y01203538D02*
X00259900D01*
X00249484Y01203499D02*
X00249522Y01203538D01*
X00249484Y01239266D02*
X00259938D01*
X00249604Y01227716D02*
X00259818D01*
X00249529Y01215531D02*
X00259893D01*
X00249484Y01191576D02*
X00259938D01*
X01519428Y01664366D02*
Y01674876D01*
X01480058Y00461676D02*
Y00483966D01*
Y00461676D02*
X01480978Y00460756D01*
X00447692Y00467312D02*
Y00476330D01*
Y00467312D02*
X00447898Y00467106D01*
X00855993Y00458566D02*
Y00467486D01*
X00878835Y00467468D02*
X00878853Y00467486D01*
X00878835Y00458584D02*
Y00467468D01*
X00878817Y00458566D02*
X00878835Y00458584D01*
X01576578Y01664366D02*
Y01674876D01*
X01565148Y01664366D02*
Y01674876D01*
X00865378Y01644096D02*
Y01644446D01*
X00858458Y01651366D02*
X00865378Y01644446D01*
X00435486Y00467106D02*
Y00476536D01*
X00412626Y00467106D02*
Y00476536D01*
X00482973Y00467106D02*
Y00476536D01*
X00423776Y00467106D02*
X00423916Y00467246D01*
Y00476396D01*
X00528693Y00467314D02*
Y00476536D01*
X00517263Y00467314D02*
Y00476536D01*
X00844563Y00458566D02*
Y00467486D01*
X00961383Y00458566D02*
Y00467486D01*
X00949973Y00458566D02*
Y00467486D01*
X00973383Y00458566D02*
Y00467486D01*
X00867423Y00458566D02*
Y00467486D01*
X01507998Y01664366D02*
Y01674876D01*
X01485138Y01642515D02*
Y01652366D01*
X01496568Y01642515D02*
Y01652366D01*
X01507998Y01642515D02*
Y01652366D01*
X00235808Y01179576D02*
X00259938D01*
X00235458Y01179926D02*
X00235808Y01179576D01*
X00259818Y01227716D02*
X00259938Y01227836D01*
X00259893Y01215531D02*
X00259938Y01215576D01*
X00259900Y01203538D02*
X00259938Y01203576D01*
X00250698Y01156716D02*
X00259938D01*
X00250698Y01145286D02*
X00259938D01*
X00250698Y01133856D02*
X00259938D01*
X00250698Y01122426D02*
X00259938D01*
X00250698Y01110996D02*
X00259938D01*
X00889525Y00444246D02*
X00890283Y00445005D01*
X01610868Y01664366D02*
Y01674876D01*
X01599438Y01664366D02*
Y01674876D01*
X01588008Y01664366D02*
Y01674876D01*
X01553691Y01664393D02*
X01553718Y01664366D01*
X01530858D02*
Y01674876D01*
X01496568Y01664366D02*
Y01674876D01*
X01485138Y01664366D02*
Y01674876D01*
X01548638Y00474726D02*
Y00483966D01*
X01537208Y00474726D02*
Y00483966D01*
X01525778Y00474726D02*
Y00483966D01*
X01514348Y00474726D02*
Y00483966D01*
X01502918Y00474726D02*
Y00483966D01*
X01468628D02*
X01468803Y00483791D01*
Y00474901D02*
Y00483791D01*
Y00474901D02*
X01468978Y00474726D01*
X01457198D02*
Y00483966D01*
X01445768Y00474726D02*
Y00484466D01*
X01434338Y00474726D02*
Y00483966D01*
X01422488Y00474726D02*
Y00483966D01*
X01411294Y00494966D02*
Y00495966D01*
Y00494966D02*
X01419564Y00486696D01*
X01420758D01*
X01422488Y00484966D01*
Y00483966D02*
Y00484966D01*
X00938543Y00458566D02*
Y00467486D01*
X00505833Y00476536D02*
X00505928Y00476441D01*
Y00467201D02*
Y00476441D01*
Y00467201D02*
X00506022Y00467106D01*
X00494403D02*
Y00476536D01*
X00447486D02*
X00447692Y00476330D01*
X00423916Y00476396D02*
X00424056Y00476536D01*
X01548638Y00495966D02*
Y00496966D01*
X01540398Y00505206D02*
X01548638Y00496966D01*
X01540398Y00505206D02*
X01540398D01*
X01537208Y00495966D02*
Y00496966D01*
X01528968Y00505206D02*
X01537208Y00496966D01*
X01528968Y00505206D02*
X01528968D01*
X01525778Y00495966D02*
Y00496966D01*
X01517538Y00505206D02*
X01525778Y00496966D01*
X01517538Y00505206D02*
X01517538D01*
X01512667Y00497647D02*
X01514348Y00495966D01*
X01512667Y00497647D02*
Y00502466D01*
X01509927Y00505206D02*
X01512667Y00502466D01*
X01502610Y00496274D02*
X01502918Y00495966D01*
X01502610Y00496274D02*
Y00502466D01*
X01499870Y00505206D02*
X01502610Y00502466D01*
X01490988Y00496466D02*
X01491488Y00495966D01*
X01490988Y00496466D02*
Y00502466D01*
X01488248Y00505206D02*
X01490988Y00502466D01*
X01480058Y00495966D02*
Y00503541D01*
X01481328Y00504811D01*
Y00505206D01*
X01468628Y00495966D02*
Y00503381D01*
X01470058Y00504811D01*
Y00505206D01*
X01458928Y00501005D02*
X01463129Y00505206D01*
X01458928Y00497696D02*
Y00501005D01*
X01457198Y00495966D02*
X01458928Y00497696D01*
X01445768Y00496466D02*
Y00497466D01*
X01453229Y00504927D01*
X01453729D01*
X01454008Y00505206D01*
X01434338Y00495966D02*
Y00496966D01*
X01442578Y00505206D01*
X01442578D01*
X01422488Y00495966D02*
Y00496966D01*
X01430528Y00505006D01*
Y00505206D01*
X00973383Y00479486D02*
Y00480486D01*
X00965208Y00488661D02*
X00973383Y00480486D01*
X00965178Y00488661D02*
X00965208D01*
X00961383Y00479486D02*
Y00480486D01*
X00953208Y00488661D02*
X00961383Y00480486D01*
X00953178Y00488661D02*
X00953208D01*
X00949973Y00479486D02*
Y00480486D01*
X00941798Y00488661D02*
X00949973Y00480486D01*
X00941768Y00488661D02*
X00941798D01*
X00938543Y00479486D02*
Y00480486D01*
X00930368Y00488661D02*
X00938543Y00480486D01*
X00930338Y00488661D02*
X00930368D01*
X00901713Y00479486D02*
Y00489201D01*
X00899863Y00491051D02*
X00901713Y00489201D01*
X00899863Y00491051D02*
Y00491446D01*
X00890283Y00479486D02*
Y00488741D01*
X00892013Y00490471D01*
Y00490866D01*
X00885583Y00490648D02*
X00885862Y00490927D01*
X00885583Y00487216D02*
Y00490648D01*
X00878853Y00480486D02*
X00885583Y00487216D01*
X00878853Y00479486D02*
Y00480486D01*
X00867423Y00479486D02*
Y00480486D01*
X00877864Y00490927D01*
X00878105D01*
X00855993Y00479486D02*
Y00480486D01*
X00865074Y00489567D01*
X00866074D01*
X00866353Y00489846D01*
X00844563Y00479486D02*
Y00480486D01*
X00853394Y00489317D01*
X00854424D01*
X00854703Y00489596D01*
X00528693Y00488696D02*
Y00489536D01*
X00519630Y00497759D02*
X00526123Y00491266D01*
X00526963D02*
X00528693Y00489536D01*
X00526123Y00491266D02*
X00526963D01*
X00515533Y00490266D02*
X00517263Y00488536D01*
X00515533Y00490266D02*
Y00492536D01*
X00510309Y00497759D02*
X00515533Y00492536D01*
X00498880Y00497759D02*
X00504103Y00492536D01*
Y00490266D02*
X00505833Y00488536D01*
X00504103Y00490266D02*
Y00492536D01*
X00492673Y00490266D02*
X00494403Y00488536D01*
X00492673Y00490266D02*
Y00492536D01*
X00487449Y00497759D02*
X00492673Y00492536D01*
X00481243Y00490266D02*
X00482973Y00488536D01*
X00476020Y00497759D02*
X00481243Y00492536D01*
Y00490266D02*
Y00492536D01*
X00464590Y00497759D02*
X00469813Y00492536D01*
Y00490266D02*
X00471543Y00488536D01*
X00469813Y00490266D02*
Y00492536D01*
X00459486Y00488536D02*
Y00489536D01*
X00451263Y00497759D02*
X00459486Y00489536D01*
X00450983Y00497759D02*
X00451263D01*
X00445756Y00490266D02*
X00447486Y00488536D01*
X00445756Y00490266D02*
Y00493201D01*
X00441198Y00497759D02*
X00445756Y00493201D01*
X00435486Y00488536D02*
Y00495433D01*
X00433160Y00497759D02*
X00435486Y00495433D01*
X00424056Y00488536D02*
Y00495828D01*
X00422519Y00497364D02*
X00424056Y00495828D01*
X00422519Y00497364D02*
Y00497759D01*
X00412626Y00488536D02*
Y00497759D01*
X00271938Y01110996D02*
X00272938D01*
X00281358Y01119416D01*
Y01119416D01*
X00271938Y01122426D02*
X00272938D01*
X00281358Y01130846D01*
Y01130846D01*
X00271938Y01133856D02*
X00272938D01*
X00281358Y01142276D01*
Y01142276D01*
X00271938Y01145286D02*
X00272938D01*
X00281285Y01153633D01*
X00281358D01*
X00271938Y01156716D02*
X00272938D01*
X00281358Y01165136D01*
X00271938Y01168146D02*
X00272938D01*
X00277629Y01172837D01*
X00281079D01*
X00281358Y01173116D01*
X00271938Y01179576D02*
X00272053Y01179461D01*
X00281243D01*
X00281358Y01179346D01*
X00271938Y01203576D02*
X00281358D01*
X00271938Y01215576D02*
X00281358D01*
X00271938Y01239266D02*
X00278438D01*
X00281358Y01236346D01*
X01610868Y01645604D02*
Y01652366D01*
X01607170Y01641906D02*
X01610868Y01645604D01*
X01595170Y01642301D02*
X01598913Y01646044D01*
Y01651841D02*
X01599438Y01652366D01*
X01598913Y01646044D02*
Y01651841D01*
X01595170Y01641906D02*
Y01642301D01*
X01588008Y01645116D02*
Y01652366D01*
X01584798Y01641906D02*
X01588008Y01645116D01*
X01576578Y01644876D02*
Y01652366D01*
X01573608Y01641906D02*
X01576578Y01644876D01*
X01565148Y01641906D02*
Y01652366D01*
X01553718Y01642156D02*
Y01652366D01*
X01542288Y01644521D02*
Y01652366D01*
Y01644521D02*
X01544032Y01642777D01*
Y01642382D02*
Y01642777D01*
X01530858Y01644477D02*
Y01652366D01*
Y01644477D02*
X01532558Y01642777D01*
Y01642382D02*
Y01642777D01*
X01519428Y01642382D02*
Y01652366D01*
X00974598Y01651366D02*
Y01652366D01*
X00967328Y01644096D02*
X00974598Y01651366D01*
X00963168D02*
Y01652366D01*
X00955898Y01644096D02*
X00963168Y01651366D01*
X00955898Y01644096D02*
X00955898D01*
X00951738Y01651366D02*
Y01652366D01*
X00944468Y01644096D02*
X00951738Y01651366D01*
X00944468Y01644096D02*
X00944468D01*
X00938578Y01649636D02*
X00940308Y01651366D01*
X00937578Y01649636D02*
X00938578D01*
X00932038Y01644096D02*
X00937578Y01649636D01*
X00940308Y01651366D02*
Y01652366D01*
X00932038Y01644096D02*
X00932038D01*
X00928878Y01651366D02*
Y01652366D01*
X00923267Y01645755D02*
X00928878Y01651366D01*
X00923267Y01644375D02*
Y01645755D01*
X00922988Y01644096D02*
X00923267Y01644375D01*
X00916878Y01652366D02*
X00916906Y01652339D01*
Y01644124D02*
Y01652339D01*
Y01644124D02*
X00916933Y01644096D01*
X00904748Y01651366D02*
Y01652366D01*
Y01651366D02*
X00910709Y01645405D01*
Y01644375D02*
Y01645405D01*
Y01644375D02*
X00910988Y01644096D01*
X00893318Y01651366D02*
Y01652366D01*
Y01651366D02*
X00900588Y01644096D01*
X00881888Y01651366D02*
Y01652366D01*
Y01651366D02*
X00888309Y01644945D01*
Y01644375D02*
Y01644945D01*
Y01644375D02*
X00888588Y01644096D01*
X00870458Y01651366D02*
Y01652366D01*
Y01651366D02*
X00877728Y01644096D01*
X00878078D01*
X00858458Y01651366D02*
Y01652366D01*
X00847128Y01651366D02*
Y01652366D01*
Y01651366D02*
X00853669Y01644825D01*
Y01644375D02*
Y01644825D01*
Y01644375D02*
X00853948Y01644096D01*
X01420876Y00100076D02*
Y00151596D01*
X01118870Y00101727D02*
X01778508D01*
Y00256667D01*
X00727710Y00101727D02*
Y00256667D01*
X00101600Y00101727D02*
Y00256667D01*
X00101727Y00101727D02*
X00501904D01*
X00101727D02*
Y00256667D01*
Y00256667D02*
X01778508D01*
X00101600Y00101727D02*
X01118870D01*
X00101600Y00153374D02*
X01778000D01*
X00101600Y00205020D02*
X01778508D01*
X01049528D02*
Y00256667D01*
X01262888Y00205020D02*
Y00256667D01*
G54D31*
X00441639Y01174901D02*
D03*
Y01162901D02*
D03*
X01411294Y00483966D02*
D03*
Y00495966D02*
D03*
X01422488Y00495966D02*
D03*
Y00483966D02*
D03*
X01434338Y00495966D02*
D03*
Y00483966D02*
D03*
X01445768Y00496466D02*
D03*
Y00484466D02*
D03*
X01457198Y00495966D02*
D03*
Y00483966D02*
D03*
X01468628Y00495966D02*
D03*
Y00483966D02*
D03*
X01480058Y00495966D02*
D03*
Y00483966D02*
D03*
X01491488Y00495966D02*
D03*
Y00483966D02*
D03*
X01502918Y00495966D02*
D03*
Y00483966D02*
D03*
X01514348Y00495966D02*
D03*
Y00483966D02*
D03*
X01525778Y00495966D02*
D03*
Y00483966D02*
D03*
X01537208Y00495966D02*
D03*
Y00483966D02*
D03*
X01548638Y00495966D02*
D03*
Y00483966D02*
D03*
X00844563Y00479486D02*
D03*
Y00467486D02*
D03*
X00855993Y00479486D02*
D03*
Y00467486D02*
D03*
X00867423Y00479486D02*
D03*
Y00467486D02*
D03*
X00878853Y00479486D02*
D03*
Y00467486D02*
D03*
X00890283D02*
D03*
Y00479486D02*
D03*
X00901713D02*
D03*
Y00467486D02*
D03*
X00938543Y00479486D02*
D03*
Y00467486D02*
D03*
X00949973Y00479486D02*
D03*
Y00467486D02*
D03*
X00961383Y00479486D02*
D03*
Y00467486D02*
D03*
X00973383Y00479486D02*
D03*
Y00467486D02*
D03*
X00412626Y00488536D02*
D03*
Y00476536D02*
D03*
X00424056Y00488536D02*
D03*
Y00476536D02*
D03*
X00435486Y00488536D02*
D03*
Y00476536D02*
D03*
X00447486Y00488536D02*
D03*
Y00476536D02*
D03*
X00459486Y00488536D02*
D03*
Y00476536D02*
D03*
X00471543Y00488536D02*
D03*
Y00476536D02*
D03*
X00482973Y00488536D02*
D03*
Y00476536D02*
D03*
X00494403Y00488536D02*
D03*
Y00476536D02*
D03*
X00505833Y00488536D02*
D03*
Y00476536D02*
D03*
X00517263Y00488536D02*
D03*
Y00476536D02*
D03*
X00528693Y00488536D02*
D03*
Y00476536D02*
D03*
X00246888Y01179226D02*
D03*
Y01167226D02*
D03*
X00235458Y01191926D02*
D03*
Y01179926D02*
D03*
X01485138Y01652366D02*
D03*
Y01664366D02*
D03*
X01496568Y01652366D02*
D03*
Y01664366D02*
D03*
X01507998Y01652366D02*
D03*
Y01664366D02*
D03*
X01519428Y01652366D02*
D03*
Y01664366D02*
D03*
X01530858Y01652366D02*
D03*
Y01664366D02*
D03*
X01542288Y01652366D02*
D03*
Y01664366D02*
D03*
X01553718Y01652366D02*
D03*
Y01664366D02*
D03*
X01565148Y01652366D02*
D03*
Y01664366D02*
D03*
X01576578Y01652366D02*
D03*
Y01664366D02*
D03*
X01588008Y01652366D02*
D03*
Y01664366D02*
D03*
X01599438Y01652366D02*
D03*
Y01664366D02*
D03*
X01610868Y01652366D02*
D03*
Y01664366D02*
D03*
X01622312Y01652366D02*
D03*
Y01664366D02*
D03*
X00847128D02*
D03*
Y01652366D02*
D03*
X00858458Y01664366D02*
D03*
Y01652366D02*
D03*
X00870458D02*
D03*
Y01664366D02*
D03*
X00881888Y01652366D02*
D03*
Y01664366D02*
D03*
X00893318Y01652366D02*
D03*
Y01664366D02*
D03*
X00904748Y01652366D02*
D03*
Y01664366D02*
D03*
X00916878Y01652366D02*
D03*
Y01664366D02*
D03*
X00928878Y01652366D02*
D03*
Y01664366D02*
D03*
X00940308Y01652366D02*
D03*
Y01664366D02*
D03*
X00951738Y01652366D02*
D03*
Y01664366D02*
D03*
X00963168Y01652366D02*
D03*
Y01664366D02*
D03*
X00974598Y01652366D02*
D03*
Y01664366D02*
D03*
G54D32*
X00441898Y00646581D02*
D03*
X00453898D02*
D03*
X01485338Y00636581D02*
D03*
X01497338D02*
D03*
X00908944Y00637046D02*
D03*
X00896944D02*
D03*
X01541323Y01495806D02*
D03*
X01553323D02*
D03*
X00901976Y01499622D02*
D03*
X00913976D02*
D03*
X01468978Y00460756D02*
D03*
X01480978D02*
D03*
X01480408Y00472186D02*
D03*
X01492408D02*
D03*
X00877525Y00444246D02*
D03*
X00889525D02*
D03*
X00891128Y00455676D02*
D03*
X00903128D02*
D03*
X00459328Y00464566D02*
D03*
X00471328D02*
D03*
X00447108Y00453136D02*
D03*
X00459108D02*
D03*
X00271938Y01110996D02*
D03*
X00259938D02*
D03*
X00271938Y01122426D02*
D03*
X00259938D02*
D03*
X00271938Y01133856D02*
D03*
X00259938D02*
D03*
X00271938Y01145286D02*
D03*
X00259938D02*
D03*
X00271938Y01156716D02*
D03*
X00259938D02*
D03*
X00271938Y01168146D02*
D03*
X00259938D02*
D03*
X00271938Y01179576D02*
D03*
X00259938D02*
D03*
X00271938Y01191576D02*
D03*
X00259938D02*
D03*
X00271938Y01203576D02*
D03*
X00259938D02*
D03*
X00271938Y01215576D02*
D03*
X00259938D02*
D03*
X00271938Y01227836D02*
D03*
X00259938D02*
D03*
X00271938Y01239266D02*
D03*
X00259938D02*
D03*
X00271938Y01250541D02*
D03*
X00259938D02*
D03*
X01554265Y01685036D02*
D03*
X01542265D02*
D03*
X01579608D02*
D03*
X01567608D02*
D03*
X00941178D02*
D03*
X00929178D02*
D03*
X00916988D02*
D03*
X00904988D02*
D03*
X00999648Y01664366D02*
D03*
X00987648D02*
D03*
G54D43*
X00867918Y01408176D02*
D03*
Y01428496D02*
D03*
X01380998Y00792226D02*
D03*
Y00812546D02*
D03*
X01402588Y00792226D02*
D03*
Y00812546D02*
D03*
X01424178Y00792226D02*
D03*
Y00812546D02*
D03*
X01444498Y00792226D02*
D03*
Y00812546D02*
D03*
X01467358Y00792226D02*
D03*
Y00812546D02*
D03*
X01487678Y00792226D02*
D03*
Y00812546D02*
D03*
X01509268Y00792226D02*
D03*
Y00812546D02*
D03*
X01530858Y00792226D02*
D03*
Y00812546D02*
D03*
X00851408Y00792226D02*
D03*
Y00812546D02*
D03*
X00872998Y00792226D02*
D03*
Y00812546D02*
D03*
X00894588Y00792226D02*
D03*
Y00812546D02*
D03*
X00914908Y00792226D02*
D03*
Y00812546D02*
D03*
X00936498Y00792226D02*
D03*
Y00812546D02*
D03*
X00958088Y00792226D02*
D03*
Y00812546D02*
D03*
X00979533Y00792226D02*
D03*
Y00812546D02*
D03*
X01001268Y00792226D02*
D03*
Y00812546D02*
D03*
X00382778Y00815086D02*
D03*
Y00794766D02*
D03*
X00403098D02*
D03*
Y00815086D02*
D03*
X00424688Y00794766D02*
D03*
Y00815086D02*
D03*
X00445008Y00794766D02*
D03*
Y00815086D02*
D03*
X00465328Y00794766D02*
D03*
Y00815086D02*
D03*
X00485648Y00794766D02*
D03*
Y00815086D02*
D03*
X00505968Y00794766D02*
D03*
Y00815086D02*
D03*
X00527558Y00794766D02*
D03*
Y00815086D02*
D03*
X00445008Y01244346D02*
D03*
Y01264666D02*
D03*
X00466598Y01244346D02*
D03*
Y01264666D02*
D03*
X00488188Y01244346D02*
D03*
Y01264666D02*
D03*
X00509778Y01244346D02*
D03*
Y01264666D02*
D03*
X00530098Y01244346D02*
D03*
Y01264666D02*
D03*
X00550418Y01244346D02*
D03*
Y01264666D02*
D03*
X00570738Y01244346D02*
D03*
Y01264666D02*
D03*
X00591058Y01244346D02*
D03*
Y01264666D02*
D03*
X01501648Y01427226D02*
D03*
Y01406906D02*
D03*
X01523238Y01427226D02*
D03*
Y01406906D02*
D03*
X01545718Y01427226D02*
D03*
Y01406906D02*
D03*
X01567688Y01427226D02*
D03*
Y01406906D02*
D03*
X01589278Y01427226D02*
D03*
Y01406906D02*
D03*
X01610868Y01427226D02*
D03*
Y01406906D02*
D03*
X01632458Y01427226D02*
D03*
Y01406906D02*
D03*
X01654048Y01427226D02*
D03*
Y01406906D02*
D03*
X00888238Y01428496D02*
D03*
Y01408176D02*
D03*
X00909258Y01428496D02*
D03*
Y01408176D02*
D03*
X00930148Y01428496D02*
D03*
Y01408176D02*
D03*
X00951738Y01428496D02*
D03*
Y01408176D02*
D03*
X00973328Y01428496D02*
D03*
Y01408176D02*
D03*
X00993648Y01428496D02*
D03*
Y01408176D02*
D03*
X01013968D02*
D03*
Y01428496D02*
D03*
G54D95*
X00358768Y01343686D02*
D03*
X01654268Y00938686D02*
D03*
X01184268D02*
D03*
X00714268Y01013686D02*
D03*
X01031268Y01343686D02*
D03*
X00418768Y00860686D02*
D03*
X01298768Y01343686D02*
D03*
X01318268Y00860686D02*
D03*
X00714268Y00938686D02*
D03*
X01184268Y01013686D02*
D03*
X00990768Y01343686D02*
D03*
X00378268Y00860686D02*
D03*
X00888768D02*
D03*
X00700268Y00833686D02*
D03*
X01640268D02*
D03*
X01460768Y01343686D02*
D03*
X01654268Y01013686D02*
D03*
X00561268Y01343686D02*
D03*
X00848268Y00860686D02*
D03*
X00828768Y01343686D02*
D03*
X01501268D02*
D03*
X01358768Y00860686D02*
D03*
X00520768Y01343686D02*
D03*
X01170268Y00833686D02*
D03*
G54D96*
X00700268D02*
D03*
G54D97*
X01170268D02*
D03*
X01640268D02*
D03*
X00378268Y00860686D02*
D03*
X00418768D02*
D03*
X00848268D02*
D03*
X00888768D02*
D03*
X01318268D02*
D03*
X01358768D02*
D03*
X00714268Y00938686D02*
D03*
X01184268D02*
D03*
X01654268D02*
D03*
X00714268Y01013686D02*
D03*
X01184268D02*
D03*
X01654268D02*
D03*
X00358768Y01343686D02*
D03*
X00520768D02*
D03*
X00561268D02*
D03*
X00828768D02*
D03*
X00990768D02*
D03*
X01031268D02*
D03*
X01298768D02*
D03*
X01460768D02*
D03*
X01501268D02*
D03*
G54D98*
X00280768Y01532186D02*
D03*
Y00712186D02*
D03*
X00754068Y01532186D02*
D03*
Y00712186D02*
D03*
X01227468Y01532186D02*
D03*
Y00712186D02*
D03*
X01700768Y01532186D02*
D03*
Y00712186D02*
D03*
G54D99*
X00480768Y01532186D02*
D03*
G54D100*
X01350768Y00712186D02*
D03*
G54D101*
X00227328Y01674436D02*
D03*
X00462028D02*
D03*
G54D104*
X00910948Y01507078D02*
Y01507336D01*
Y01507078D02*
X00911500Y01506527D01*
Y01501098D02*
X00912976Y01499622D01*
X00907944Y00637046D02*
X00908944D01*
X00444374Y00647915D02*
X00444983Y00647306D01*
X00450983Y00647476D02*
X00451422Y00647915D01*
X00963168Y01664366D02*
Y01674876D01*
X00858458Y01664366D02*
Y01672980D01*
X00847128Y01664366D02*
Y01672980D01*
X00893465Y01672833D02*
X00893612Y01672980D01*
X00893465Y01664513D02*
Y01672833D01*
X00893318Y01664366D02*
X00893465Y01664513D01*
X00869959Y01672722D02*
Y01672980D01*
X00870458Y01664366D02*
Y01672224D01*
X00869959Y01672722D02*
X00870458Y01672224D01*
X00881888Y01664366D02*
Y01672980D01*
X00951738Y01664366D02*
Y01674876D01*
X00928878Y01664366D02*
Y01674876D01*
X00940308Y01664366D02*
Y01674876D01*
X00235458Y01192926D02*
X00242268Y01199736D01*
X00974598Y01664366D02*
Y01674876D01*
X01553718Y01664366D02*
X01553992Y01664640D01*
Y01684762D01*
X01554265Y01685036D01*
X00916878Y01664366D02*
X00916933Y01664421D01*
Y01684981D01*
X00916988Y01685036D01*
G54D112*
X00897788Y00637046D02*
X00898248Y00636586D01*
X00896944Y00637046D02*
X00897788D01*
X00432351Y01173441D02*
X00441179D01*
X00441639Y01173901D02*
Y01174901D01*
X00432208Y01173298D02*
X00432351Y01173441D01*
X00431384Y01166770D02*
X00433793Y01164361D01*
X00441179Y01173441D02*
X00441639Y01173901D01*
X00433793Y01164361D02*
X00441179D01*
X00441639Y01163901D01*
Y01162901D02*
Y01163901D01*
X01541323Y01495806D02*
X01542323D01*
X01542783Y01495346D01*
Y01494346D02*
Y01495346D01*
Y01494346D02*
X01544518Y01492611D01*
Y01486106D02*
Y01492611D01*
X01552323Y01495806D02*
X01553323D01*
X01551863Y01496266D02*
X01552323Y01495806D01*
X01551863Y01496266D02*
Y01497266D01*
X01550558Y01498571D02*
X01551863Y01497266D01*
X01550558Y01498571D02*
Y01507336D01*
X01622312Y01652366D02*
X01634648D01*
X00434315Y00453325D02*
X00446919D01*
X00447108Y00453136D01*
X00999648Y01664366D02*
X01000648D01*
X01008392Y01656622D01*
Y01646808D02*
Y01656622D01*
Y01646808D02*
X01008568Y01646632D01*
X01411294Y00470352D02*
Y00483966D01*
X00868693Y00444246D02*
X00877525D01*
X01457960Y00460756D02*
X01468978D01*
X00271938Y01250541D02*
X00272398Y01251001D01*
X00293652Y01264490D02*
X00293828Y01264666D01*
X00272398Y01251001D02*
X00273398D01*
X00286887Y01264490D01*
X00293652D01*
X00235458Y01191926D02*
Y01192926D01*
X00242268Y01199736D02*
X00242268D01*
X00459297Y00453325D02*
Y00476347D01*
X00459108Y00453136D02*
X00459297Y00453325D01*
Y00476347D02*
X00459486Y00476536D01*
X01610868Y01664366D02*
X01622312D01*
X01554265Y01685036D02*
X01567608D01*
X00974598Y01664366D02*
X00987648D01*
X00941178Y01685036D02*
X00951683D01*
X00951738Y01684981D01*
X01579608Y01685036D02*
X01588253D01*
X00916988D02*
X00929178D01*
X00259938Y01239266D02*
Y01250541D01*
X00890283Y00445005D02*
Y00467486D01*
G54D114*
X01495243Y00632293D02*
Y00635486D01*
X01493867Y00630917D02*
X01495243Y00632293D01*
X01493867Y00630866D02*
Y00630917D01*
X01496338Y00636581D02*
X01497338D01*
X01495243Y00635486D02*
X01496338Y00636581D01*
X01487824Y00630902D02*
Y00634607D01*
X01487788Y00630866D02*
X01487824Y00630902D01*
X00911500Y01501098D02*
Y01506527D01*
X00904288Y00633390D02*
X00907944Y00637046D01*
X00904288Y00625856D02*
Y00633390D01*
X00898248Y00625856D02*
Y00636586D01*
X00444983Y00639916D02*
Y00647306D01*
X00450983Y00639916D02*
Y00647476D01*
X00901976Y01499622D02*
Y01504324D01*
X00904988Y01507336D01*
G54D117*
X00817118Y01132586D02*
D03*
X00544068Y00552196D02*
D03*
X00612648Y01192647D02*
D03*
X00922528Y01297686D02*
D03*
X00800608Y01392936D02*
D03*
X00569665Y00960875D02*
D03*
X01596898Y00796036D02*
D03*
X00634238Y01243506D02*
D03*
X01567988Y01182116D02*
D03*
Y01124636D02*
D03*
X00994918Y00432816D02*
D03*
X00210058Y00923036D02*
D03*
X01439418Y01631696D02*
D03*
X01222248Y01600676D02*
D03*
X01675638Y01695196D02*
D03*
X00658368Y01706626D02*
D03*
X00602488D02*
D03*
X01222248Y01705356D02*
D03*
X01063527Y00789686D02*
D03*
X00282448Y00895096D02*
D03*
X00310388Y01588516D02*
D03*
X00551688Y00425196D02*
D03*
X00254508Y01588516D02*
D03*
X00364998Y01570736D02*
D03*
X01585768Y01283716D02*
D03*
X00531368Y00910336D02*
D03*
X01318268Y00954756D02*
D03*
X01138428Y01102106D02*
D03*
X00831088Y00973836D02*
D03*
X00827278Y01050776D02*
D03*
X00994918Y00537595D02*
D03*
X01641348Y01283716D02*
D03*
X01218438Y01366266D02*
D03*
X01369053Y01283716D02*
D03*
X01529888D02*
D03*
X01751838Y00977646D02*
D03*
X01424178Y01283716D02*
D03*
X01138428Y01196066D02*
D03*
X01147318Y01286256D02*
D03*
X01053338Y01259586D02*
D03*
X01100328Y00953516D02*
D03*
X00966988Y01259586D02*
D03*
X00754068Y01283946D02*
D03*
X00692658Y01392936D02*
D03*
X00582168Y01417066D02*
D03*
X00517398D02*
D03*
X01706118Y00938686D02*
D03*
X01707388Y00850646D02*
D03*
X01742948Y00896366D02*
D03*
X01706118Y01013686D02*
D03*
X01318268Y01009946D02*
D03*
X00996188Y00928116D02*
D03*
Y01005586D02*
D03*
X00942594Y01065508D02*
D03*
X00937768Y01005586D02*
D03*
X00364998Y01514856D02*
D03*
X00937768Y00928116D02*
D03*
X00608838Y00910336D02*
D03*
X00886018Y00973836D02*
D03*
X00657098Y00938276D02*
D03*
X00525018Y01600406D02*
D03*
G54D118*
X00754888Y01707896D02*
D03*
X00729488D02*
D03*
G54D119*
X00780288D02*
D03*
G54D120*
X00502130Y00722226D02*
D03*
X00971858Y00653113D02*
D03*
Y00658583D02*
D03*
Y00646816D02*
D03*
X01457960Y00704596D02*
D03*
Y00712216D02*
D03*
X01493867Y00630866D02*
D03*
X01487788D02*
D03*
X00892013Y00628326D02*
D03*
X00910013D02*
D03*
X00898248Y00625856D02*
D03*
X00904288D02*
D03*
X00450983Y00639916D02*
D03*
X00444983D02*
D03*
X00456819D02*
D03*
X00499949Y00769796D02*
D03*
X00432208Y01173298D02*
D03*
X00431384Y01166770D02*
D03*
X00469011Y01170622D02*
D03*
X01544518Y01486106D02*
D03*
X01537274Y01507336D02*
D03*
X01489330Y01399286D02*
D03*
X00910948Y01507336D02*
D03*
X00916988Y01507336D02*
D03*
X00904988D02*
D03*
X00843733Y01404961D02*
D03*
X01534668Y01438013D02*
D03*
X01540085Y01450659D02*
D03*
X01544901Y01456369D02*
D03*
X01454624Y00747776D02*
D03*
X01395121Y00654094D02*
D03*
X01395121Y00661469D02*
D03*
X01483571Y00681806D02*
D03*
X01492687Y00687906D02*
D03*
X01487985Y00684696D02*
D03*
X01509476Y01495806D02*
D03*
Y01501806D02*
D03*
X00863120Y01493840D02*
D03*
Y01500340D02*
D03*
X00898398Y01451267D02*
D03*
X00940988Y01460942D02*
D03*
X01579271Y01459630D02*
D03*
X01579118Y01438052D02*
D03*
X01617413Y01454989D02*
D03*
X01552215Y01460970D02*
D03*
X01549679Y01456145D02*
D03*
X01533793Y00639138D02*
D03*
X01533793Y00645769D02*
D03*
X00943013Y00635343D02*
D03*
X00943253Y00641736D02*
D03*
X00490200Y00646699D02*
D03*
X00490199Y00653251D02*
D03*
X00441761Y01128167D02*
D03*
X00448197Y01128167D02*
D03*
X00464737Y01172591D02*
D03*
X00444983Y00685266D02*
D03*
X00444983Y00690066D02*
D03*
X00449326Y00690066D02*
D03*
X00898057Y00679520D02*
D03*
X00892959D02*
D03*
X00845181Y00739389D02*
D03*
X00898057Y00675184D02*
D03*
X00843802Y00683218D02*
D03*
X00449326Y00685266D02*
D03*
X00499072Y01206929D02*
D03*
X00974248Y01459786D02*
D03*
X01457915Y00681856D02*
D03*
X01550558Y01507336D02*
D03*
X01579424Y01465826D02*
D03*
X01536943Y01447197D02*
D03*
X01496600Y00773116D02*
D03*
X00925068Y00776143D02*
D03*
X00483223Y00727456D02*
D03*
X00398653Y00696574D02*
D03*
X00513159Y01221771D02*
D03*
X01003808Y01618520D02*
D03*
X01008580Y01629186D02*
D03*
X00543368Y01102826D02*
D03*
X00552597Y01120107D02*
D03*
X00619125Y01131235D02*
D03*
X00394026Y00514674D02*
D03*
X00823468Y00517366D02*
D03*
X00535671Y00709765D02*
D03*
X00501833Y00674986D02*
D03*
X00486918Y00664065D02*
D03*
X00563681Y00705683D02*
D03*
X01459532Y01488828D02*
D03*
X01465031Y01468259D02*
D03*
X01498980Y01486259D02*
D03*
X01502056Y01469375D02*
D03*
X01454624Y00740907D02*
D03*
X00938939Y00540456D02*
D03*
Y00547432D02*
D03*
X00834956Y00544576D02*
D03*
X00838863Y00540456D02*
D03*
X00838704Y00548620D02*
D03*
X00943262Y00543667D02*
D03*
X00486918Y00547116D02*
D03*
X00385298D02*
D03*
Y00552793D02*
D03*
X00486918D02*
D03*
Y00559131D02*
D03*
X00385298D02*
D03*
X00812038Y00508986D02*
D03*
X00366495Y00803656D02*
D03*
X00358552Y00696812D02*
D03*
X01384808Y00502030D02*
D03*
X01426718Y00548753D02*
D03*
X00281358Y01224386D02*
D03*
X00364998Y01467866D02*
D03*
X00384048Y01489456D02*
D03*
X00373888Y01479296D02*
D03*
X00410718Y01467866D02*
D03*
Y01489456D02*
D03*
Y01479296D02*
D03*
X00606440Y01564386D02*
D03*
X00314198Y01263396D02*
D03*
X00305058D02*
D03*
X00321818Y01257576D02*
D03*
X00268478Y00583356D02*
D03*
X00262128D02*
D03*
X00253167Y00597898D02*
D03*
X00242815D02*
D03*
X00360028Y00525087D02*
D03*
X00375832Y00495300D02*
D03*
X00360028Y00517696D02*
D03*
Y00509759D02*
D03*
X00341783Y00533177D02*
D03*
X00434315Y00453325D02*
D03*
X00281358Y01191116D02*
D03*
X00346498Y01132096D02*
D03*
X00340688D02*
D03*
X00248468Y01046226D02*
D03*
Y01036066D02*
D03*
Y01056386D02*
D03*
X00249484Y01239266D02*
D03*
Y01215486D02*
D03*
Y01227596D02*
D03*
Y01203499D02*
D03*
Y01191576D02*
D03*
X00653368Y00438679D02*
D03*
X00641137D02*
D03*
X00928878Y01704086D02*
D03*
X01321578Y01708856D02*
D03*
X01380618Y01695128D02*
D03*
X01390778D02*
D03*
X01400938D02*
D03*
X01519428Y01674876D02*
D03*
X01152398Y01693924D02*
D03*
X01132078D02*
D03*
X01142238D02*
D03*
X01380618Y01666150D02*
D03*
X01390778D02*
D03*
X01400938D02*
D03*
X00447898Y00467106D02*
D03*
X00855993Y00458566D02*
D03*
X00822198Y00458506D02*
D03*
X00878817Y00458566D02*
D03*
X00814228Y01464176D02*
D03*
Y01495316D02*
D03*
X00864235Y00756876D02*
D03*
X00857758Y00751066D02*
D03*
X00829158Y00808354D02*
D03*
X00880208Y01357756D02*
D03*
X00875538Y01362076D02*
D03*
X01011428Y01155446D02*
D03*
X00861568Y01351026D02*
D03*
X00401828Y01596136D02*
D03*
X01411294Y00470352D02*
D03*
X00293828Y01005586D02*
D03*
X00867918Y01599946D02*
D03*
Y01594086D02*
D03*
Y01587956D02*
D03*
X01248918Y01631696D02*
D03*
X00278638Y01056386D02*
D03*
Y01046226D02*
D03*
X01238758Y01631696D02*
D03*
X00798957Y01660756D02*
D03*
X01384808Y00509016D02*
D03*
X00814578Y01677528D02*
D03*
X00963168Y01674876D02*
D03*
X00501789Y00987171D02*
D03*
Y00994876D02*
D03*
X01402228Y01333246D02*
D03*
X01436323Y01337056D02*
D03*
X00216408Y01502156D02*
D03*
X00790448Y00772796D02*
D03*
X00858458Y01672980D02*
D03*
X00847128D02*
D03*
X00893612D02*
D03*
X00869959D02*
D03*
X00640938Y01601216D02*
D03*
X00652938D02*
D03*
X01078128Y00426807D02*
D03*
X01027938Y00449326D02*
D03*
X01100178Y00426593D02*
D03*
X00803148Y00479706D02*
D03*
X00227328Y01570736D02*
D03*
X00881888Y01672980D02*
D03*
X00602488Y01682552D02*
D03*
X00345458Y01233046D02*
D03*
X00951738Y01674876D02*
D03*
X00940308D02*
D03*
X00928878D02*
D03*
X00905161Y01672980D02*
D03*
X00773938Y00888746D02*
D03*
X00875538Y01334386D02*
D03*
X01060958Y01302766D02*
D03*
X01248178Y01283186D02*
D03*
X01499254Y01462383D02*
D03*
X00480573Y01144244D02*
D03*
X00451358Y01131316D02*
D03*
X00523851Y01125671D02*
D03*
X00460418Y01172590D02*
D03*
X00499618Y01155116D02*
D03*
X00526288D02*
D03*
X00517398D02*
D03*
X00508508D02*
D03*
X00396983Y00639916D02*
D03*
X00501789Y00944316D02*
D03*
X00531368Y00835406D02*
D03*
X00868693Y00444246D02*
D03*
X01457960Y00460756D02*
D03*
X00293828Y01264666D02*
D03*
X00242268Y01199736D02*
D03*
X01406398Y01438013D02*
D03*
X01416178D02*
D03*
X01396238D02*
D03*
X01504460Y01498727D02*
D03*
Y01504726D02*
D03*
Y01492876D02*
D03*
X01534668Y01442836D02*
D03*
X01386078Y01438013D02*
D03*
X01373498D02*
D03*
X01410783Y00730886D02*
D03*
X01336548Y00782066D02*
D03*
X01358768Y00814461D02*
D03*
X01499788Y00652439D02*
D03*
X01576578Y01674876D02*
D03*
X01565148D02*
D03*
X01346578Y01709166D02*
D03*
X01065838Y01709396D02*
D03*
X00974598Y01674876D02*
D03*
X00865378Y01644096D02*
D03*
X00654558Y01269746D02*
D03*
X01598018Y01507336D02*
D03*
X01621328Y01448743D02*
D03*
X01609324Y01462716D02*
D03*
X01604598Y01507336D02*
D03*
X01354328Y01345056D02*
D03*
X01331118Y01222756D02*
D03*
X00758698Y01172591D02*
D03*
X00356728Y00675466D02*
D03*
X00916988Y01512316D02*
D03*
X00800608Y00680685D02*
D03*
X00808228Y00664983D02*
D03*
X00823468Y00659366D02*
D03*
X00203708Y01561846D02*
D03*
X00433578Y01605026D02*
D03*
X00222304Y00987171D02*
D03*
Y00999236D02*
D03*
X00617728Y01574386D02*
D03*
X00600518Y01601216D02*
D03*
X00588518D02*
D03*
X00568198Y01578386D02*
D03*
X00597408Y01579886D02*
D03*
X00574408Y01548886D02*
D03*
X00568198Y01559386D02*
D03*
Y01569386D02*
D03*
X00640478Y01540256D02*
D03*
X00617728Y01566926D02*
D03*
X00951738Y01684981D02*
D03*
X01588253Y01685036D02*
D03*
X01011428Y01608486D02*
D03*
X01634998Y01616026D02*
D03*
X01648010Y01615733D02*
D03*
X00367623Y00653778D02*
D03*
X00800798Y00694228D02*
D03*
X00601218Y01327546D02*
D03*
X00423776Y00467106D02*
D03*
X00482973D02*
D03*
X00435486D02*
D03*
X00412626D02*
D03*
X00579493Y00454756D02*
D03*
X00528693Y00467314D02*
D03*
X00517263D02*
D03*
X00949973Y00458566D02*
D03*
X00973383D02*
D03*
X00844563D02*
D03*
X00867423D02*
D03*
X00926338D02*
D03*
X00961383D02*
D03*
X01099188Y01649826D02*
D03*
X01142238Y01664016D02*
D03*
X01132078D02*
D03*
X01152398D02*
D03*
X01350518Y01649526D02*
D03*
X01507998Y01674876D02*
D03*
X01496568Y01642515D02*
D03*
X01485138D02*
D03*
X01507998D02*
D03*
X01472173Y01193126D02*
D03*
X01090488Y01709354D02*
D03*
X01560147Y00678441D02*
D03*
X00934013Y00723411D02*
D03*
X01596169Y01326186D02*
D03*
X01391158Y00640256D02*
D03*
X01407747Y00859996D02*
D03*
X00947293Y00883666D02*
D03*
X00431038Y01221116D02*
D03*
Y01227306D02*
D03*
X01610868Y01599946D02*
D03*
X01453668Y01193419D02*
D03*
X00589653Y00454756D02*
D03*
X00599813D02*
D03*
X01038098Y00449326D02*
D03*
X01048258D02*
D03*
X01506728Y01171839D02*
D03*
X01516888D02*
D03*
X01527048D02*
D03*
X00628303Y00499296D02*
D03*
X00589713Y00483886D02*
D03*
X00599873D02*
D03*
X00579553D02*
D03*
X00855018Y01482960D02*
D03*
Y01472922D02*
D03*
X00854710Y01454852D02*
D03*
X01008580Y01636776D02*
D03*
X01640151Y01633686D02*
D03*
Y01627294D02*
D03*
X01391158Y00519176D02*
D03*
X00812038Y00500387D02*
D03*
X00938543Y00458566D02*
D03*
X01422488Y00474726D02*
D03*
X01542288Y01674876D02*
D03*
X01610868D02*
D03*
X01599438D02*
D03*
X01588008D02*
D03*
X01530858D02*
D03*
X01496568D02*
D03*
X01485138D02*
D03*
X00250698Y01110996D02*
D03*
Y01122426D02*
D03*
Y01133856D02*
D03*
Y01145286D02*
D03*
Y01156716D02*
D03*
X00506022Y00467106D02*
D03*
X00494403D02*
D03*
X01548638Y00474726D02*
D03*
X01537208D02*
D03*
X01525778D02*
D03*
X01514348D02*
D03*
X01502918D02*
D03*
X01468978D02*
D03*
X01457198D02*
D03*
X01445768D02*
D03*
X01434338D02*
D03*
X01546719Y01460970D02*
D03*
X01604598Y01467992D02*
D03*
X00488188Y01277686D02*
D03*
X00804418Y00639181D02*
D03*
X00486918Y00867156D02*
D03*
X00485648Y00649986D02*
D03*
Y00656336D02*
D03*
X00920828Y01360546D02*
D03*
X00885068Y01353566D02*
D03*
X00940988Y01453896D02*
D03*
Y01447546D02*
D03*
Y01441196D02*
D03*
X00877443Y01466141D02*
D03*
X01469763Y01418336D02*
D03*
Y01428256D02*
D03*
X01621328Y01441473D02*
D03*
X01069278Y01213866D02*
D03*
X00907976Y01461729D02*
D03*
X00898398Y01439926D02*
D03*
Y01445376D02*
D03*
X00559816Y01207516D02*
D03*
X00546462Y01192647D02*
D03*
X00560578Y01230887D02*
D03*
X01454624Y00734325D02*
D03*
X01391158Y00665226D02*
D03*
X00278638Y01036066D02*
D03*
X01506728Y01141476D02*
D03*
X01516888D02*
D03*
X01527048D02*
D03*
X01048258Y00476776D02*
D03*
X01038098D02*
D03*
X01027938D02*
D03*
X00866353Y00489846D02*
D03*
X00878105Y00490927D02*
D03*
X00892013Y00490866D02*
D03*
X00885862Y00490927D02*
D03*
X00808228Y00490866D02*
D03*
X00415179Y00780796D02*
D03*
X01391158Y00649986D02*
D03*
Y00657606D02*
D03*
X00281358Y01215576D02*
D03*
Y01153633D02*
D03*
X00281358Y01119416D02*
D03*
Y01130846D02*
D03*
Y01142276D02*
D03*
Y01165136D02*
D03*
Y01173116D02*
D03*
Y01179346D02*
D03*
Y01203576D02*
D03*
Y01236346D02*
D03*
X00853948Y01644096D02*
D03*
X00878078D02*
D03*
X00888588D02*
D03*
X00967328D02*
D03*
X00955898D02*
D03*
X00944468D02*
D03*
X00932038D02*
D03*
X00922988D02*
D03*
X00916933D02*
D03*
X00910988D02*
D03*
X00900588D02*
D03*
X01607170Y01641906D02*
D03*
X01595170D02*
D03*
X01584798D02*
D03*
X01573608D02*
D03*
X01565148D02*
D03*
X01553718Y01642156D02*
D03*
X01544032Y01642382D02*
D03*
X01532558D02*
D03*
X01519428D02*
D03*
X00351028Y01233046D02*
D03*
X00339598D02*
D03*
X00352298Y01132096D02*
D03*
X01426718Y00538226D02*
D03*
Y00544116D02*
D03*
X01528968Y00538226D02*
D03*
Y00544116D02*
D03*
Y00549656D02*
D03*
X01610868Y01587956D02*
D03*
Y01594086D02*
D03*
X01508643Y01587956D02*
D03*
Y01594086D02*
D03*
Y01599946D02*
D03*
X00970788Y01587956D02*
D03*
Y01594086D02*
D03*
Y01599946D02*
D03*
X00958988Y01507336D02*
D03*
X00867918Y01490726D02*
D03*
Y01497076D02*
D03*
Y01503426D02*
D03*
X01365378Y01438013D02*
D03*
X01357323D02*
D03*
X01347978D02*
D03*
X01339588D02*
D03*
X01331118D02*
D03*
X01316485D02*
D03*
X01307338D02*
D03*
X01297178D02*
D03*
X01287907D02*
D03*
X01161103Y01443736D02*
D03*
X01152398D02*
D03*
X01143508D02*
D03*
X01134268Y01443736D02*
D03*
X01040638D02*
D03*
X01049528D02*
D03*
X01058903D02*
D03*
X01067818D02*
D03*
X01096498D02*
D03*
X01107123D02*
D03*
X01114848D02*
D03*
X01122438D02*
D03*
X01088208D02*
D03*
X01079818D02*
D03*
X00501789Y00953516D02*
D03*
Y00964731D02*
D03*
Y00975106D02*
D03*
Y01073327D02*
D03*
Y01064006D02*
D03*
Y01053846D02*
D03*
Y01044748D02*
D03*
Y01003171D02*
D03*
Y01014178D02*
D03*
Y01022096D02*
D03*
Y01029783D02*
D03*
X01541528Y00923036D02*
D03*
X01531922D02*
D03*
X01522858D02*
D03*
X01513588D02*
D03*
X01443738D02*
D03*
X01435238D02*
D03*
X01424788D02*
D03*
X01415288D02*
D03*
X01141003Y00697026D02*
D03*
X01132078D02*
D03*
X01123828D02*
D03*
X01114889D02*
D03*
X01019025D02*
D03*
X01026668D02*
D03*
X01034445D02*
D03*
X01041803Y00696976D02*
D03*
X00687791Y00704596D02*
D03*
X00679958Y00704266D02*
D03*
X00672338D02*
D03*
X00664039D02*
D03*
X00588688Y00705866D02*
D03*
X00580898D02*
D03*
X00572008D02*
D03*
X00621538Y00704266D02*
D03*
X00628643D02*
D03*
X00636398D02*
D03*
X00643003D02*
D03*
X00649598D02*
D03*
X00614033D02*
D03*
X00606343D02*
D03*
X01100448Y00696976D02*
D03*
X01092003D02*
D03*
X01083818D02*
D03*
X01074771D02*
D03*
X01065733D02*
D03*
X01056638D02*
D03*
X01496600Y00923036D02*
D03*
X01489958D02*
D03*
X01483571D02*
D03*
X01477088D02*
D03*
X01470248D02*
D03*
X01463571D02*
D03*
X01456848D02*
D03*
X00800608Y00710946D02*
D03*
X00412785Y00772279D02*
D03*
X00475999Y01230887D02*
D03*
X00368808Y00669036D02*
D03*
X00445008Y01131316D02*
D03*
X00438658D02*
D03*
X00485648Y00643636D02*
D03*
X00939193Y00632053D02*
D03*
X00939038Y00638556D02*
D03*
Y00644906D02*
D03*
X01528788Y00648716D02*
D03*
Y00642142D02*
D03*
X01528968Y00636016D02*
D03*
X01454624Y00727456D02*
D03*
X01496600Y00754808D02*
D03*
Y00746597D02*
D03*
X01496625Y00763016D02*
D03*
X00477353Y00720094D02*
D03*
X00398653Y00719836D02*
D03*
Y00712216D02*
D03*
Y00703943D02*
D03*
X00465328Y00707136D02*
D03*
X00471543Y00714076D02*
D03*
X00851781Y00745201D02*
D03*
X00892013Y00623316D02*
D03*
X00458569Y01177036D02*
D03*
X00508234Y01216252D02*
D03*
X00503428Y01211326D02*
D03*
X00892959Y00675236D02*
D03*
X01487921Y00689738D02*
D03*
X00925068Y00766826D02*
D03*
Y00756876D02*
D03*
Y00747776D02*
D03*
X00843788Y00707136D02*
D03*
Y00691896D02*
D03*
Y00699516D02*
D03*
X00816738Y00665228D02*
D03*
X01544828Y00704596D02*
D03*
Y00735076D02*
D03*
Y00712216D02*
D03*
Y00727456D02*
D03*
Y00719836D02*
D03*
X01457960Y00696976D02*
D03*
Y00689356D02*
D03*
X01476498Y01130046D02*
D03*
X01081278Y00487896D02*
D03*
X01540398Y00505206D02*
D03*
X01528968D02*
D03*
X01517538D02*
D03*
X01509927D02*
D03*
X01499870D02*
D03*
X01481328D02*
D03*
X01488248D02*
D03*
X01470058D02*
D03*
X01463129D02*
D03*
X01454008D02*
D03*
X01442578D02*
D03*
X01430528D02*
D03*
X00412626Y00497759D02*
D03*
X00519630D02*
D03*
X00510309D02*
D03*
X00498880D02*
D03*
X00487449D02*
D03*
X00476020D02*
D03*
X00464590D02*
D03*
X00450983D02*
D03*
X00441198D02*
D03*
X00433160D02*
D03*
X00422519D02*
D03*
X00965178Y00488661D02*
D03*
X00941768D02*
D03*
X00930338D02*
D03*
X00953178D02*
D03*
X00899863Y00491446D02*
D03*
X00854703Y00489596D02*
D03*
G54D121*
X01561238Y01478621D02*
D03*
X00434250Y00671094D02*
D03*
X00887715Y00657299D02*
D03*
X00874278Y00661696D02*
D03*
X00882475Y00653706D02*
D03*
X00845446Y00657151D02*
D03*
X00853040Y00654311D02*
D03*
X00861093Y00660516D02*
D03*
X00429768Y00666187D02*
D03*
X00423618Y00672929D02*
D03*
X00407281Y00673306D02*
D03*
X00392870Y00672677D02*
D03*
X01476960Y00664974D02*
D03*
X01464782Y00666788D02*
D03*
X01436336Y00664327D02*
D03*
X01450867Y00666956D02*
D03*
X01566418Y01481856D02*
D03*
X01574534Y01480439D02*
D03*
X01586582D02*
D03*
X01603223Y01477901D02*
D03*
X01587478Y01473629D02*
D03*
X01572815Y01474093D02*
D03*
X00460248Y01209315D02*
D03*
X00457518Y01224906D02*
D03*
X00948354Y01472096D02*
D03*
X00947187Y01479244D02*
D03*
X00956916D02*
D03*
X00926770Y01480496D02*
D03*
X00921332Y01476872D02*
D03*
X00964018Y01478836D02*
D03*
X00934068Y01472434D02*
D03*
X00458560Y01189975D02*
D03*
X00459971Y01197341D02*
D03*
X00464737Y01188466D02*
D03*
X00466562Y01196748D02*
D03*
X00459868Y01217676D02*
D03*
X00467058Y01210036D02*
D03*
X00376428Y01633686D02*
D03*
X00363842D02*
D03*
X01309878Y01075426D02*
D03*
Y01269746D02*
D03*
X00650748Y00983481D02*
D03*
X00401788Y01633686D02*
D03*
X00376428Y01671066D02*
D03*
X01069278Y01002533D02*
D03*
X00414528Y01712976D02*
D03*
X00389128D02*
D03*
X00312928D02*
D03*
X00351028Y01687576D02*
D03*
X00439928Y01658366D02*
D03*
X00389128Y01662176D02*
D03*
X00414528Y01633686D02*
D03*
X01248178Y00956866D02*
D03*
X01114848Y01371499D02*
D03*
X00338328Y01712976D02*
D03*
X00376428D02*
D03*
X00363728D02*
D03*
X00351028D02*
D03*
X00401788D02*
D03*
X00439928D02*
D03*
X00427228D02*
D03*
X01634648Y01652366D02*
D03*
X01008568Y01646632D02*
D03*
X00249428Y01633686D02*
D03*
X00427228D02*
D03*
X00338288D02*
D03*
X00325628Y01658366D02*
D03*
X00312928Y01633686D02*
D03*
X00262128Y01712976D02*
D03*
X00274828D02*
D03*
X00325628Y01690116D02*
D03*
X00300228D02*
D03*
X00287528Y01712976D02*
D03*
Y01622806D02*
D03*
X00274828D02*
D03*
X00262128D02*
D03*
X00287528Y01633686D02*
D03*
X00274828D02*
D03*
X00262128D02*
D03*
X01029002Y01396734D02*
D03*
X01104138Y00765186D02*
D03*
X00934964Y01479244D02*
D03*
X00398253Y00666496D02*
D03*
X01473358Y00660146D02*
D03*
X01463812D02*
D03*
X01451764D02*
D03*
X01596558Y01480439D02*
D03*
X01441785Y00660146D02*
D03*
X00874037Y00653949D02*
D03*
X00861989Y00653706D02*
D03*
X00421250Y00666496D02*
D03*
X00408178D02*
D03*
G54D122*
X01471668Y01149046D02*
D03*
X01446668D02*
D03*
X01459168Y01156446D02*
D03*
Y01141646D02*
D03*
X00646613Y00487696D02*
D03*
Y00472896D02*
D03*
X00659113Y00480296D02*
D03*
X00634113D02*
D03*
X01086398Y00469376D02*
D03*
X01111398D02*
D03*
X01098898Y00461976D02*
D03*
Y00476776D02*
D03*
X00274828Y01001226D02*
D03*
Y00976226D02*
D03*
X00267428Y00988726D02*
D03*
X00282228D02*
D03*
X01346578Y01668526D02*
D03*
X01321578D02*
D03*
X01334078Y01675926D02*
D03*
Y01661126D02*
D03*
X01095048Y01668526D02*
D03*
X01070048D02*
D03*
X01082548Y01675926D02*
D03*
Y01661126D02*
D03*
X00637978Y01559386D02*
D03*
Y01569386D02*
D03*
X00585908Y01559386D02*
D03*
Y01569386D02*
D03*
M02*
