G04*
G04 #@! TF.GenerationSoftware,Altium Limited,Altium Designer,23.6.0 (18)*
G04*
G04 Layer_Physical_Order=4*
G04 Layer_Color=16440176*
%FSAX44Y44*%
%MOMM*%
G71*
G04*
G04 #@! TF.SameCoordinates,B6B15AAD-09C2-4985-A1E0-6DBEE0027C76*
G04*
G04*
G04 #@! TF.FilePolarity,Positive*
G04*
G01*
G75*
%ADD15C,0.2032*%
%ADD16C,0.2540*%
%ADD95C,2.5400*%
%ADD97C,1.6600*%
%ADD104C,0.3048*%
%ADD112C,0.5080*%
%ADD115C,1.2700*%
%ADD117C,2.0320*%
%ADD120C,0.4000*%
%ADD121C,0.6000*%
G54D15*
X00569665Y00960875D02*
X00600209D01*
X00632968Y00928116D01*
X00551838Y00818883D02*
X00632968Y00900013D01*
Y00928116D01*
X00456671Y00762450D02*
X00513103Y00818883D01*
X00551838D01*
X00456671Y00670619D02*
Y00762450D01*
X00425968Y00639916D02*
X00456671Y00670619D01*
X00396983Y00639916D02*
X00425968D01*
X00885317Y00171450D02*
Y00179067D01*
X00890395Y00171450D01*
Y00179067D01*
X00892934Y00171450D02*
X00898013Y00176528D01*
X00900552Y00171450D02*
Y00176528D01*
X00903091Y00179067D01*
X00905630Y00176528D01*
Y00171450D01*
Y00175259D01*
X00900552D01*
X00746760Y00179067D02*
X00751838D01*
X00749299D01*
Y00171450D01*
X00754378Y00179067D02*
X00756917D01*
X00755647D01*
Y00171450D01*
X00754378D01*
X00756917D01*
X00760725Y00179067D02*
Y00171450D01*
X00764534D01*
X00765804Y00172720D01*
Y00177798D01*
X00764534Y00179067D01*
X00760725D01*
X00777230Y00171450D02*
Y00179067D01*
X00779769D02*
Y00171450D01*
X00775961Y00176528D02*
X00779769D01*
X00781039D01*
X00775961Y00173989D02*
X00781039D01*
X00783578Y00176528D02*
X00784848D01*
Y00175259D01*
X00783578D01*
Y00176528D01*
Y00172720D02*
X00784848D01*
Y00171450D01*
X00783578D01*
Y00172720D01*
X01474470Y00126912D02*
X01479548D01*
X01477009D01*
Y00119295D01*
X01487166Y00126912D02*
X01482088D01*
Y00119295D01*
X01487166D01*
X01482088Y00123104D02*
X01484627D01*
X01489705Y00126912D02*
X01494783Y00119295D01*
Y00126912D02*
X01489705Y00119295D01*
X01497323D02*
Y00124373D01*
X01499862Y00126912D01*
X01502401Y00124373D01*
Y00119295D01*
Y00123104D01*
X01497323D01*
X01510018Y00125643D02*
X01508749Y00126912D01*
X01506210D01*
X01504940Y00125643D01*
Y00124373D01*
X01506210Y00123104D01*
X01508749D01*
X01510018Y00121834D01*
Y00120564D01*
X01508749Y00119295D01*
X01506210D01*
X01504940Y00120564D01*
X01520175Y00126912D02*
X01522714D01*
X01521445D01*
Y00119295D01*
X01520175D01*
X01522714D01*
X01526523D02*
Y00126912D01*
X01531602Y00119295D01*
Y00126912D01*
X01539219Y00125643D02*
X01537950Y00126912D01*
X01535410D01*
X01534141Y00125643D01*
Y00124373D01*
X01535410Y00123104D01*
X01537950D01*
X01539219Y00121834D01*
Y00120564D01*
X01537950Y00119295D01*
X01535410D01*
X01534141Y00120564D01*
X01541758Y00126912D02*
X01546837D01*
X01544297D01*
Y00119295D01*
X01549376D02*
Y00126912D01*
X01553185D01*
X01554454Y00125643D01*
Y00123104D01*
X01553185Y00121834D01*
X01549376D01*
X01551915D02*
X01554454Y00119295D01*
X01556993Y00126912D02*
Y00120564D01*
X01558263Y00119295D01*
X01560802D01*
X01562072Y00120564D01*
Y00126912D01*
X01564611Y00119295D02*
Y00126912D01*
X01567150Y00124373D01*
X01569689Y00126912D01*
Y00119295D01*
X01577307Y00126912D02*
X01572228D01*
Y00119295D01*
X01577307D01*
X01572228Y00123104D02*
X01574768D01*
X01579846Y00119295D02*
Y00126912D01*
X01584924Y00119295D01*
Y00126912D01*
X01587463D02*
X01592542D01*
X01590003D01*
Y00119295D01*
X01600159Y00125643D02*
X01598890Y00126912D01*
X01596351D01*
X01595081Y00125643D01*
Y00124373D01*
X01596351Y00123104D01*
X01598890D01*
X01600159Y00121834D01*
Y00120564D01*
X01598890Y00119295D01*
X01596351D01*
X01595081Y00120564D01*
X01153287Y00125643D02*
X01154557Y00126912D01*
X01157096D01*
X01158365Y00125643D01*
Y00124373D01*
X01157096Y00123104D01*
X01158365Y00121834D01*
Y00120564D01*
X01157096Y00119295D01*
X01154557D01*
X01153287Y00120564D01*
Y00121834D01*
X01154557Y00123104D01*
X01153287Y00124373D01*
Y00125643D01*
X01154557Y00123104D02*
X01157096D01*
X01160904Y00124373D02*
X01162174D01*
Y00123104D01*
X01160904D01*
Y00124373D01*
Y00120564D02*
X01162174D01*
Y00119295D01*
X01160904D01*
Y00120564D01*
X01172331Y00126912D02*
X01167253D01*
Y00123104D01*
X01169792Y00124373D01*
X01171061D01*
X01172331Y00123104D01*
Y00120564D01*
X01171061Y00119295D01*
X01168522D01*
X01167253Y00120564D01*
X01174870Y00126912D02*
X01179948D01*
Y00125643D01*
X01174870Y00120564D01*
Y00119295D01*
X01182488Y00124373D02*
X01183757D01*
Y00123104D01*
X01182488D01*
Y00124373D01*
Y00120564D02*
X01183757D01*
Y00119295D01*
X01182488D01*
Y00120564D01*
X01188836Y00119295D02*
X01191375D01*
X01190105D01*
Y00126912D01*
X01188836Y00125643D01*
X01200262Y00126912D02*
X01195183D01*
Y00123104D01*
X01197723Y00124373D01*
X01198992D01*
X01200262Y00123104D01*
Y00120564D01*
X01198992Y00119295D01*
X01196453D01*
X01195183Y00120564D01*
X01210418Y00119295D02*
Y00124373D01*
X01212958Y00126912D01*
X01215497Y00124373D01*
Y00119295D01*
Y00123104D01*
X01210418D01*
X01218036Y00119295D02*
Y00126912D01*
X01220575Y00124373D01*
X01223114Y00126912D01*
Y00119295D01*
X00117729D02*
Y00126912D01*
X00121538D01*
X00122807Y00125643D01*
Y00123104D01*
X00121538Y00121834D01*
X00117729D01*
X00125346Y00126912D02*
Y00119295D01*
X00130425D01*
X00136773Y00126912D02*
X00134234D01*
X00132964Y00125643D01*
Y00120564D01*
X00134234Y00119295D01*
X00136773D01*
X00138042Y00120564D01*
Y00125643D01*
X00136773Y00126912D01*
X00140582D02*
X00145660D01*
X00143121D01*
Y00119295D01*
X00155817D02*
Y00126912D01*
X00160895Y00119295D01*
Y00126912D01*
X00163434Y00119295D02*
Y00124373D01*
X00165973Y00126912D01*
X00168513Y00124373D01*
Y00119295D01*
Y00123104D01*
X00163434D01*
X00171052Y00119295D02*
Y00126912D01*
X00173591Y00124373D01*
X00176130Y00126912D01*
Y00119295D01*
X00183748Y00126912D02*
X00178669D01*
Y00119295D01*
X00183748D01*
X00178669Y00123104D02*
X00181208D01*
X00193904Y00121834D02*
X00198983D01*
X00193904Y00124373D02*
X00198983D01*
X00117729Y00179196D02*
Y00171579D01*
X00122807D01*
X00125346D02*
Y00176657D01*
X00127886Y00179196D01*
X00130425Y00176657D01*
Y00171579D01*
Y00175387D01*
X00125346D01*
X00132964Y00179196D02*
Y00177927D01*
X00135503Y00175387D01*
X00138042Y00177927D01*
Y00179196D01*
X00135503Y00175387D02*
Y00171579D01*
X00145660Y00179196D02*
X00140582D01*
Y00171579D01*
X00145660D01*
X00140582Y00175387D02*
X00143121D01*
X00148199Y00171579D02*
Y00179196D01*
X00152008D01*
X00153278Y00177927D01*
Y00175387D01*
X00152008Y00174118D01*
X00148199D01*
X00150738D02*
X00153278Y00171579D01*
X00163434D02*
Y00179196D01*
X00168513Y00171579D01*
Y00179196D01*
X00171052Y00171579D02*
Y00176657D01*
X00173591Y00179196D01*
X00176130Y00176657D01*
Y00171579D01*
Y00175387D01*
X00171052D01*
X00178669Y00171579D02*
Y00179196D01*
X00181208Y00176657D01*
X00183748Y00179196D01*
Y00171579D01*
X00191365Y00179196D02*
X00186287D01*
Y00171579D01*
X00191365D01*
X00186287Y00175387D02*
X00188826D01*
X00201522Y00174118D02*
X00206600D01*
X00201522Y00176657D02*
X00206600D01*
X00746760Y00230714D02*
Y00223097D01*
X00750569D01*
X00751838Y00224366D01*
Y00225636D01*
X00750569Y00226905D01*
X00746760D01*
X00750569D01*
X00751838Y00228175D01*
Y00229445D01*
X00750569Y00230714D01*
X00746760D01*
X00758186D02*
X00755647D01*
X00754378Y00229445D01*
Y00224366D01*
X00755647Y00223097D01*
X00758186D01*
X00759456Y00224366D01*
Y00229445D01*
X00758186Y00230714D01*
X00761995Y00223097D02*
Y00228175D01*
X00764534Y00230714D01*
X00767073Y00228175D01*
Y00223097D01*
Y00226905D01*
X00761995D01*
X00769613Y00223097D02*
Y00230714D01*
X00773421D01*
X00774691Y00229445D01*
Y00226905D01*
X00773421Y00225636D01*
X00769613D01*
X00772152D02*
X00774691Y00223097D01*
X00777230Y00230714D02*
Y00223097D01*
X00781039D01*
X00782309Y00224366D01*
Y00229445D01*
X00781039Y00230714D01*
X00777230D01*
X00793735Y00223097D02*
Y00230714D01*
X00796274D02*
Y00223097D01*
X00792465Y00228175D02*
X00796274D01*
X00797544D01*
X00792465Y00225636D02*
X00797544D01*
X00800083Y00228175D02*
X00801352D01*
Y00226905D01*
X00800083D01*
Y00228175D01*
Y00224366D02*
X00801352D01*
Y00223097D01*
X00800083D01*
Y00224366D01*
X00885317Y00223097D02*
Y00230714D01*
X00889126D01*
X00890395Y00229445D01*
Y00226905D01*
X00889126Y00225636D01*
X00885317D01*
X00892934Y00223097D02*
Y00230714D01*
X00895474Y00228175D01*
X00898013Y00230714D01*
Y00223097D01*
X00900552D02*
Y00230714D01*
X00904361D01*
X00905630Y00229445D01*
Y00226905D01*
X00904361Y00225636D01*
X00900552D01*
X00908170Y00229445D02*
X00909439Y00230714D01*
X00911978D01*
X00913248Y00229445D01*
Y00228175D01*
X00911978Y00226905D01*
X00910709D01*
X00911978D01*
X00913248Y00225636D01*
Y00224366D01*
X00911978Y00223097D01*
X00909439D01*
X00908170Y00224366D01*
X00915787Y00223097D02*
X00918326D01*
X00917057D01*
Y00230714D01*
X00915787Y00229445D01*
X00927213Y00223097D02*
X00922135D01*
X00927213Y00228175D01*
Y00229445D01*
X00925944Y00230714D01*
X00923405D01*
X00922135Y00229445D01*
X00929753D02*
X00931022Y00230714D01*
X00933561D01*
X00934831Y00229445D01*
Y00228175D01*
X00933561Y00226905D01*
X00932292D01*
X00933561D01*
X00934831Y00225636D01*
Y00224366D01*
X00933561Y00223097D01*
X00931022D01*
X00929753Y00224366D01*
X00942449Y00230714D02*
X00939909Y00229445D01*
X00937370Y00226905D01*
Y00224366D01*
X00938640Y00223097D01*
X00941179D01*
X00942449Y00224366D01*
Y00225636D01*
X00941179Y00226905D01*
X00937370D01*
X01173861Y00223097D02*
Y00224366D01*
X01175131D01*
Y00223097D01*
X01173861D01*
X01180209D02*
Y00230714D01*
X01184018D01*
X01185287Y00229445D01*
Y00226905D01*
X01184018Y00225636D01*
X01180209D01*
X01192905Y00229445D02*
X01191635Y00230714D01*
X01189096D01*
X01187827Y00229445D01*
Y00224366D01*
X01189096Y00223097D01*
X01191635D01*
X01192905Y00224366D01*
X01195444Y00230714D02*
Y00223097D01*
X01199253D01*
X01200522Y00224366D01*
Y00225636D01*
X01199253Y00226905D01*
X01195444D01*
X01199253D01*
X01200522Y00228175D01*
Y00229445D01*
X01199253Y00230714D01*
X01195444D01*
X01203062Y00221827D02*
X01208140D01*
X01210679Y00223097D02*
Y00230714D01*
X01214488D01*
X01215757Y00229445D01*
Y00226905D01*
X01214488Y00225636D01*
X01210679D01*
X01213218D02*
X01215757Y00223097D01*
X01222105D02*
X01219566D01*
X01218297Y00224366D01*
Y00226905D01*
X01219566Y00228175D01*
X01222105D01*
X01223375Y00226905D01*
Y00225636D01*
X01218297D01*
X01225914Y00228175D02*
X01228453Y00223097D01*
X01230993Y00228175D01*
X00117729Y00223097D02*
Y00228175D01*
X00120268Y00230714D01*
X00122807Y00228175D01*
Y00223097D01*
Y00226905D01*
X00117729D01*
X00125346Y00230714D02*
Y00223097D01*
X00130425D01*
X00132964Y00230714D02*
Y00223097D01*
X00138042D01*
X00148199D02*
Y00228175D01*
X00150738Y00230714D01*
X00153278Y00228175D01*
Y00223097D01*
Y00226905D01*
X00148199D01*
X00155817Y00223097D02*
Y00230714D01*
X00159626D01*
X00160895Y00229445D01*
Y00226905D01*
X00159626Y00225636D01*
X00155817D01*
X00158356D02*
X00160895Y00223097D01*
X00163434Y00230714D02*
X00168513D01*
X00165973D01*
Y00223097D01*
X00171052Y00230714D02*
Y00223097D01*
X00173591Y00225636D01*
X00176130Y00223097D01*
Y00230714D01*
X00182478D02*
X00179939D01*
X00178669Y00229445D01*
Y00224366D01*
X00179939Y00223097D01*
X00182478D01*
X00183748Y00224366D01*
Y00229445D01*
X00182478Y00230714D01*
X00186287Y00223097D02*
Y00230714D01*
X00190096D01*
X00191365Y00229445D01*
Y00226905D01*
X00190096Y00225636D01*
X00186287D01*
X00188826D02*
X00191365Y00223097D01*
X00193904Y00230714D02*
Y00223097D01*
Y00225636D01*
X00198983Y00230714D01*
X00195174Y00226905D01*
X00198983Y00223097D01*
X00209139Y00230714D02*
Y00225636D01*
X00211679Y00223097D01*
X00214218Y00225636D01*
Y00230714D01*
X00216757D02*
X00219296D01*
X00218027D01*
Y00223097D01*
X00216757D01*
X00219296D01*
X00228183Y00230714D02*
X00223105D01*
Y00223097D01*
X00228183D01*
X00223105Y00226905D02*
X00225644D01*
X00230722Y00230714D02*
Y00223097D01*
X00233262Y00225636D01*
X00235801Y00223097D01*
Y00230714D01*
X00243418D02*
X00238340D01*
Y00223097D01*
X00243418D01*
X00238340Y00226905D02*
X00240879D01*
X00245958Y00230714D02*
Y00223097D01*
X00249766D01*
X00251036Y00224366D01*
Y00229445D01*
X00249766Y00230714D01*
X00245958D01*
X00266271D02*
X00261193D01*
Y00226905D01*
X00263732D01*
X00261193D01*
Y00223097D01*
X00268810D02*
Y00230714D01*
X00272619D01*
X00273888Y00229445D01*
Y00226905D01*
X00272619Y00225636D01*
X00268810D01*
X00271349D02*
X00273888Y00223097D01*
X00280236Y00230714D02*
X00277697D01*
X00276428Y00229445D01*
Y00224366D01*
X00277697Y00223097D01*
X00280236D01*
X00281506Y00224366D01*
Y00229445D01*
X00280236Y00230714D01*
X00284045Y00223097D02*
Y00230714D01*
X00286584Y00228175D01*
X00289124Y00230714D01*
Y00223097D01*
X00299280Y00230714D02*
X00304359D01*
X00301819D01*
Y00223097D01*
X00310707Y00230714D02*
X00308167D01*
X00306898Y00229445D01*
Y00224366D01*
X00308167Y00223097D01*
X00310707D01*
X00311976Y00224366D01*
Y00229445D01*
X00310707Y00230714D01*
X00314515Y00223097D02*
Y00230714D01*
X00318324D01*
X00319594Y00229445D01*
Y00226905D01*
X00318324Y00225636D01*
X00314515D01*
X00334829Y00229445D02*
X00333559Y00230714D01*
X00331020D01*
X00329750Y00229445D01*
Y00228175D01*
X00331020Y00226905D01*
X00333559D01*
X00334829Y00225636D01*
Y00224366D01*
X00333559Y00223097D01*
X00331020D01*
X00329750Y00224366D01*
X00337368Y00230714D02*
X00339907D01*
X00338638D01*
Y00223097D01*
X00337368D01*
X00339907D01*
X00343716Y00230714D02*
Y00223097D01*
X00347525D01*
X00348794Y00224366D01*
Y00229445D01*
X00347525Y00230714D01*
X00343716D01*
X00356412D02*
X00351333D01*
Y00223097D01*
X00356412D01*
X00351333Y00226905D02*
X00353873D01*
X00752346Y00125643D02*
X00751077Y00126912D01*
X00748538D01*
X00747268Y00125643D01*
Y00120564D01*
X00748538Y00119295D01*
X00751077D01*
X00752346Y00120564D01*
Y00123104D01*
X00749807D01*
X00759964Y00126912D02*
X00754885D01*
Y00119295D01*
X00759964D01*
X00754885Y00123104D02*
X00757425D01*
X00762503Y00119295D02*
Y00126912D01*
X00767581Y00119295D01*
Y00126912D01*
X00775199D02*
X00770121D01*
Y00119295D01*
X00775199D01*
X00770121Y00123104D02*
X00772660D01*
X00777738Y00119295D02*
Y00126912D01*
X00781547D01*
X00782816Y00125643D01*
Y00123104D01*
X00781547Y00121834D01*
X00777738D01*
X00780277D02*
X00782816Y00119295D01*
X00785356D02*
Y00124373D01*
X00787895Y00126912D01*
X00790434Y00124373D01*
Y00119295D01*
Y00123104D01*
X00785356D01*
X00792973Y00126912D02*
X00798052D01*
X00795512D01*
Y00119295D01*
X00805669Y00126912D02*
X00800591D01*
Y00119295D01*
X00805669D01*
X00800591Y00123104D02*
X00803130D01*
X00808208Y00126912D02*
Y00119295D01*
X00812017D01*
X00813287Y00120564D01*
Y00125643D01*
X00812017Y00126912D01*
X00808208D01*
X00846296Y00124373D02*
X00847566D01*
Y00123104D01*
X00846296D01*
Y00124373D01*
Y00120564D02*
X00847566D01*
Y00119295D01*
X00846296D01*
Y00120564D01*
X00968121Y00126912D02*
X00973199D01*
Y00125643D01*
X00968121Y00120564D01*
Y00119295D01*
X00975739D02*
X00980817Y00124373D01*
X00988434Y00119295D02*
X00983356D01*
X00988434Y00124373D01*
Y00125643D01*
X00987165Y00126912D01*
X00984626D01*
X00983356Y00125643D01*
X00990974Y00119295D02*
X00993513D01*
X00992243D01*
Y00126912D01*
X00990974Y00125643D01*
X00997322Y00119295D02*
X01002400Y00124373D01*
X01010017Y00119295D02*
X01004939D01*
X01010017Y00124373D01*
Y00125643D01*
X01008748Y00126912D01*
X01006209D01*
X01004939Y00125643D01*
X01012557D02*
X01013826Y00126912D01*
X01016365D01*
X01017635Y00125643D01*
Y00120564D01*
X01016365Y00119295D01*
X01013826D01*
X01012557Y00120564D01*
Y00125643D01*
X01025253Y00119295D02*
X01020174D01*
X01025253Y00124373D01*
Y00125643D01*
X01023983Y00126912D01*
X01021444D01*
X01020174Y00125643D01*
X01027792D02*
X01029061Y00126912D01*
X01031600D01*
X01032870Y00125643D01*
Y00124373D01*
X01031600Y00123104D01*
X01030331D01*
X01031600D01*
X01032870Y00121834D01*
Y00120564D01*
X01031600Y00119295D01*
X01029061D01*
X01027792Y00120564D01*
X00322326Y00119295D02*
Y00126912D01*
X00326135D01*
X00327404Y00125643D01*
Y00123104D01*
X00326135Y00121834D01*
X00322326D01*
X00329944Y00119295D02*
Y00126912D01*
X00332483Y00124373D01*
X00335022Y00126912D01*
Y00119295D01*
X00337561D02*
Y00126912D01*
X00341370D01*
X00342639Y00125643D01*
Y00123104D01*
X00341370Y00121834D01*
X00337561D01*
X00345179Y00125643D02*
X00346448Y00126912D01*
X00348987D01*
X00350257Y00125643D01*
Y00124373D01*
X00348987Y00123104D01*
X00347718D01*
X00348987D01*
X00350257Y00121834D01*
Y00120564D01*
X00348987Y00119295D01*
X00346448D01*
X00345179Y00120564D01*
X00352796Y00119295D02*
X00355335D01*
X00354066D01*
Y00126912D01*
X00352796Y00125643D01*
X00364222Y00119295D02*
X00359144D01*
X00364222Y00124373D01*
Y00125643D01*
X00362953Y00126912D01*
X00360414D01*
X00359144Y00125643D01*
X00366762D02*
X00368031Y00126912D01*
X00370570D01*
X00371840Y00125643D01*
Y00124373D01*
X00370570Y00123104D01*
X00369301D01*
X00370570D01*
X00371840Y00121834D01*
Y00120564D01*
X00370570Y00119295D01*
X00368031D01*
X00366762Y00120564D01*
X00379458Y00126912D02*
X00376918Y00125643D01*
X00374379Y00123104D01*
Y00120564D01*
X00375649Y00119295D01*
X00378188D01*
X00379458Y00120564D01*
Y00121834D01*
X00378188Y00123104D01*
X00374379D01*
X00381997Y00119295D02*
Y00126912D01*
X00385806D01*
X00387075Y00125643D01*
Y00123104D01*
X00385806Y00121834D01*
X00381997D01*
X00394693Y00125643D02*
X00393423Y00126912D01*
X00390884D01*
X00389614Y00125643D01*
Y00120564D01*
X00390884Y00119295D01*
X00393423D01*
X00394693Y00120564D01*
X00397232Y00126912D02*
Y00119295D01*
X00401040D01*
X00402310Y00120564D01*
Y00121834D01*
X00401040Y00123104D01*
X00397232D01*
X00401040D01*
X00402310Y00124373D01*
Y00125643D01*
X00401040Y00126912D01*
X00397232D01*
X00404849Y00118025D02*
X00409928D01*
X00412467Y00119295D02*
Y00126912D01*
X00416276D01*
X00417545Y00125643D01*
Y00123104D01*
X00416276Y00121834D01*
X00412467D01*
X00415006D02*
X00417545Y00119295D01*
X00423893D02*
X00421354D01*
X00420084Y00120564D01*
Y00123104D01*
X00421354Y00124373D01*
X00423893D01*
X00425163Y00123104D01*
Y00121834D01*
X00420084D01*
X00427702Y00124373D02*
X00430241Y00119295D01*
X00432780Y00124373D01*
X00435319Y00119295D02*
Y00120564D01*
X00436589D01*
Y00119295D01*
X00435319D01*
X00446746Y00125643D02*
X00445476Y00126912D01*
X00442937D01*
X00441667Y00125643D01*
Y00120564D01*
X00442937Y00119295D01*
X00445476D01*
X00446746Y00120564D01*
Y00123104D01*
X00444207D01*
X00449285Y00125643D02*
X00450555Y00126912D01*
X00453094D01*
X00454363Y00125643D01*
Y00124373D01*
X00453094Y00123104D01*
X00451824D01*
X00453094D01*
X00454363Y00121834D01*
Y00120564D01*
X00453094Y00119295D01*
X00450555D01*
X00449285Y00120564D01*
X01099820Y00223097D02*
Y00230714D01*
X01103629D01*
X01104898Y00229445D01*
Y00226905D01*
X01103629Y00225636D01*
X01099820D01*
X01102359D02*
X01104898Y00223097D01*
X01112516Y00230714D02*
X01107438D01*
Y00223097D01*
X01112516D01*
X01107438Y00226905D02*
X01109977D01*
X01115055Y00230714D02*
Y00225636D01*
X01117594Y00223097D01*
X01120133Y00225636D01*
Y00230714D01*
X01122673Y00228175D02*
X01123942D01*
Y00226905D01*
X01122673D01*
Y00228175D01*
Y00224366D02*
X01123942D01*
Y00223097D01*
X01122673D01*
Y00224366D01*
X01317750Y00229445D02*
X01316481Y00230714D01*
X01313942D01*
X01312672Y00229445D01*
Y00228175D01*
X01313942Y00226905D01*
X01316481D01*
X01317750Y00225636D01*
Y00224366D01*
X01316481Y00223097D01*
X01313942D01*
X01312672Y00224366D01*
X01320289Y00230714D02*
Y00225636D01*
X01322829Y00223097D01*
X01325368Y00225636D01*
Y00230714D01*
X01327907Y00223097D02*
Y00230714D01*
X01332985Y00223097D01*
Y00230714D01*
X01343142Y00223097D02*
Y00230714D01*
X01346951D01*
X01348221Y00229445D01*
Y00226905D01*
X01346951Y00225636D01*
X01343142D01*
X01345681D02*
X01348221Y00223097D01*
X01355838Y00230714D02*
X01350760D01*
Y00223097D01*
X01355838D01*
X01350760Y00226905D02*
X01353299D01*
X01358377Y00230714D02*
Y00225636D01*
X01360916Y00223097D01*
X01363456Y00225636D01*
Y00230714D01*
X01365995Y00228175D02*
X01367264D01*
Y00226905D01*
X01365995D01*
Y00228175D01*
Y00224366D02*
X01367264D01*
Y00223097D01*
X01365995D01*
Y00224366D01*
X01441196Y00223097D02*
Y00230714D01*
X01446274Y00223097D01*
Y00230714D01*
X01450083Y00223097D02*
X01452622D01*
X01453892Y00224366D01*
Y00226905D01*
X01452622Y00228175D01*
X01450083D01*
X01448813Y00226905D01*
Y00224366D01*
X01450083Y00223097D01*
X01457701Y00229445D02*
Y00228175D01*
X01456431D01*
X01458970D01*
X01457701D01*
Y00224366D01*
X01458970Y00223097D01*
X01470397D02*
X01472936D01*
X01471666D01*
Y00228175D01*
X01470397D01*
X01476745Y00223097D02*
Y00228175D01*
X01480553D01*
X01481823Y00226905D01*
Y00223097D01*
X01491980Y00228175D02*
X01494519Y00223097D01*
X01497058Y00228175D01*
X01503406Y00223097D02*
X01500867D01*
X01499597Y00224366D01*
Y00226905D01*
X01500867Y00228175D01*
X01503406D01*
X01504675Y00226905D01*
Y00225636D01*
X01499597D01*
X01507215Y00228175D02*
Y00223097D01*
Y00225636D01*
X01508484Y00226905D01*
X01509754Y00228175D01*
X01511023D01*
X01514832Y00223097D02*
X01518641D01*
X01519910Y00224366D01*
X01518641Y00225636D01*
X01516102D01*
X01514832Y00226905D01*
X01516102Y00228175D01*
X01519910D01*
X01522450Y00223097D02*
X01524989D01*
X01523719D01*
Y00228175D01*
X01522450D01*
X01530067Y00223097D02*
X01532606D01*
X01533876Y00224366D01*
Y00226905D01*
X01532606Y00228175D01*
X01530067D01*
X01528798Y00226905D01*
Y00224366D01*
X01530067Y00223097D01*
X01536415D02*
Y00228175D01*
X01540224D01*
X01541494Y00226905D01*
Y00223097D01*
X01556729Y00228175D02*
X01552920D01*
X01551650Y00226905D01*
Y00224366D01*
X01552920Y00223097D01*
X01556729D01*
X01560537D02*
X01563077D01*
X01564346Y00224366D01*
Y00226905D01*
X01563077Y00228175D01*
X01560537D01*
X01559268Y00226905D01*
Y00224366D01*
X01560537Y00223097D01*
X01566885D02*
Y00228175D01*
X01570694D01*
X01571964Y00226905D01*
Y00223097D01*
X01575773Y00229445D02*
Y00228175D01*
X01574503D01*
X01577042D01*
X01575773D01*
Y00224366D01*
X01577042Y00223097D01*
X01580851Y00228175D02*
Y00223097D01*
Y00225636D01*
X01582120Y00226905D01*
X01583390Y00228175D01*
X01584660D01*
X01589738Y00223097D02*
X01592277D01*
X01593547Y00224366D01*
Y00226905D01*
X01592277Y00228175D01*
X01589738D01*
X01588468Y00226905D01*
Y00224366D01*
X01589738Y00223097D01*
X01596086D02*
X01598625D01*
X01597355D01*
Y00230714D01*
X01596086D01*
G54D16*
X01487788Y00630866D02*
Y00665576D01*
X01465538Y00687826D02*
Y00712216D01*
Y00687826D02*
X01487788Y00665576D01*
X00482533Y00670216D02*
X00511921D01*
X00456819Y00639916D02*
Y00644502D01*
X00444983Y00644428D02*
X00483223Y00682668D01*
X00456819Y00644502D02*
X00482533Y00670216D01*
X00444983Y00639916D02*
Y00644428D01*
X00483223Y00682668D02*
X00501828D01*
X00488805Y00683738D02*
Y00758652D01*
X00499949Y00769796D01*
X00843733Y01416291D02*
X00910948Y01483506D01*
Y01507336D01*
X01037600Y01623290D02*
X01046006Y01631696D01*
X00836423Y01623290D02*
X01037600D01*
X00798957Y01660756D02*
X00836423Y01623290D01*
X00501833Y00674986D02*
X00535391Y00708545D01*
Y00709486D01*
X00535671Y00709765D01*
X00501828Y00682668D02*
X00792996Y00973836D01*
X00831088D01*
X00779981Y00938276D02*
X00850458D01*
X00511921Y00670216D02*
X00779981Y00938276D01*
X00364998Y01467866D02*
X00410718D01*
X00384048Y01489456D02*
X00410718D01*
X00262128Y00583356D02*
Y00583946D01*
Y00569815D02*
Y00583356D01*
X00268478Y00572516D02*
X00364738Y00476256D01*
X00268478Y00572516D02*
Y00583356D01*
X00262128Y00569815D02*
X00372037Y00459907D01*
X00364738Y00476256D02*
X00403476D01*
X00412626Y00467106D01*
X00253167Y00571508D02*
Y00597898D01*
X00242815Y00575423D02*
Y00597898D01*
Y00575423D02*
X00367102Y00451136D01*
X00253167Y00571508D02*
X00368808Y00455867D01*
X00416577Y00459907D02*
X00423776Y00467106D01*
X00372037Y00459907D02*
X00416577D01*
X00424247Y00455867D02*
X00435486Y00467106D01*
X00368808Y00455867D02*
X00424247D01*
X00439823Y00458636D02*
X00447898Y00466711D01*
X00432881Y00458636D02*
X00439823D01*
X00447898Y00466711D02*
Y00467106D01*
X00425381Y00451136D02*
X00432881Y00458636D01*
X00367102Y00451136D02*
X00425381D01*
X00237998Y00852316D02*
X00251182Y00865500D01*
Y00972502D01*
X00326898Y00522461D02*
X00369063Y00480296D01*
X00481213D01*
X00368897Y00486175D02*
X00486953D01*
X00331992Y00523081D02*
X00368897Y00486175D01*
X00337014Y00524617D02*
X00371101Y00490530D01*
X00494047D02*
X00517263Y00467314D01*
X00371101Y00490530D02*
X00494047D01*
X00486953Y00486175D02*
X00506022Y00467106D01*
X00326898Y00522461D02*
Y00554736D01*
X00331992Y00523081D02*
Y00558532D01*
X00337014Y00524617D02*
Y00534616D01*
X00231648Y00649986D02*
X00326898Y00554736D01*
X00231648Y00649986D02*
Y00855726D01*
X00237998Y00652526D02*
X00331992Y00558532D01*
X00237998Y00652526D02*
Y00852316D01*
X00244348Y00653796D02*
Y00847424D01*
Y00653796D02*
X00337058Y00561086D01*
Y00534660D02*
Y00561086D01*
X00337014Y00534616D02*
X00337058Y00534660D01*
X00258318Y00861394D02*
Y00974320D01*
X00253799Y00978839D02*
Y01107895D01*
Y00978839D02*
X00258318Y00974320D01*
X00250698Y01110996D02*
X00253799Y01107895D01*
X00242228Y00981456D02*
X00251182Y00972502D01*
X00242228Y01125386D02*
X00250698Y01133856D01*
X00242228Y00981456D02*
Y01125386D01*
X00231648Y00855726D02*
X00244981Y00869060D01*
Y00968972D01*
X00244348Y00847424D02*
X00258318Y00861394D01*
X00836518Y01383696D02*
X00922528Y01297686D01*
X00836518Y01383696D02*
Y01425216D01*
X00877443Y01466141D01*
X00269748Y01141476D02*
Y01399286D01*
X00427228Y01556766D02*
Y01633686D01*
X00269748Y01399286D02*
X00427228Y01556766D01*
X00250698Y01122426D02*
X00269748Y01141476D01*
X01046006Y01631696D02*
X01238758D01*
X00850458Y00938276D02*
X00886018Y00973836D01*
X00843733Y01404961D02*
Y01416291D01*
X00606178Y01585936D02*
X00617728Y01574386D01*
X00575748Y01585936D02*
X00606178D01*
X00568198Y01578386D02*
X00575748Y01585936D01*
X00574408Y01548886D02*
Y01568531D01*
X00585763Y01579886D01*
X00597408D01*
X00568198Y01559386D02*
Y01569386D01*
X01420876Y00100076D02*
Y00151596D01*
X01118870Y00101727D02*
X01778508D01*
Y00256667D01*
X00727710Y00101727D02*
Y00256667D01*
X00101600Y00101727D02*
Y00256667D01*
X00101727Y00101727D02*
X00501904D01*
X00101727D02*
Y00256667D01*
Y00256667D02*
X01778508D01*
X00101600Y00101727D02*
X01118870D01*
X00101600Y00153374D02*
X01778000D01*
X00101600Y00205020D02*
X01778508D01*
X01049528D02*
Y00256667D01*
X01262888Y00205020D02*
Y00256667D01*
G54D95*
X00714268Y01013686D02*
D03*
X01184268D02*
D03*
X01640268Y00833686D02*
D03*
X01654268Y01013686D02*
D03*
X00561268Y01343686D02*
D03*
X00848268Y00860686D02*
D03*
X01501268Y01343686D02*
D03*
X00520768D02*
D03*
G54D97*
X01640268Y00833686D02*
D03*
X00848268Y00860686D02*
D03*
X00714268Y01013686D02*
D03*
X01184268D02*
D03*
X01654268D02*
D03*
X00520768Y01343686D02*
D03*
X00561268D02*
D03*
X01501268D02*
D03*
G54D104*
X01450173Y01361829D02*
X01483125D01*
X01501268Y01343686D01*
X01436323Y01347979D02*
X01450173Y01361829D01*
X00790448Y00772796D02*
Y00827665D01*
X00968369Y01005586D01*
X00996188D01*
X00910013Y00628326D02*
X01012300Y00730613D01*
X00555418Y01164686D02*
X00634238Y01243506D01*
X00445854Y01164686D02*
X00555418D01*
X01530143Y01502836D02*
X01532516D01*
X01537016Y01507336D01*
X01537274D01*
X01508542Y01481235D02*
X01530143Y01502836D01*
X01470902Y01481235D02*
X01508542D01*
X01560147Y00678441D02*
X01610113D01*
X00439702Y01221116D02*
X00452352Y01233766D01*
X00475999Y01230887D02*
X00504559D01*
X00473120Y01233766D02*
X00475999Y01230887D01*
X00452352Y01233766D02*
X00473120D01*
X00431038Y01221116D02*
X00439702D01*
X00376428Y01633686D02*
Y01660906D01*
X00386588Y01671066D01*
X00372618Y01615186D02*
X00386588Y01629156D01*
X00351661Y01615186D02*
X00372618D01*
X00386588Y01629156D02*
Y01658914D01*
X00497078Y01618996D02*
X00987298D01*
X01003808Y01602486D01*
X00281358Y01403276D02*
X00497078Y01618996D01*
X00523851Y01125671D02*
X00711778D01*
X00758698Y01172591D01*
X01355933Y01366266D02*
X01470902Y01481235D01*
X01218438Y01366266D02*
X01355933D01*
X00250335Y00654416D02*
X00365618Y00539133D01*
X00385681D02*
X00406391Y00518423D01*
X00365618Y00539133D02*
X00385681D01*
X00811061Y00518423D02*
X00850638Y00478846D01*
X00406391Y00518423D02*
X00811061D01*
X00778700Y00512239D02*
X00817453Y00473486D01*
X00404509Y00512239D02*
X00778700D01*
X00383572Y00533177D02*
X00404509Y00512239D01*
X00414528Y01633686D02*
X00431588Y01650746D01*
X00373888Y01479296D02*
X00410718D01*
X00207518Y00589026D02*
X00358854Y00437690D01*
X00221488Y00590677D02*
X00365379Y00446786D01*
X00214268Y00589690D02*
X00361720Y00442238D01*
X00341783Y00533177D02*
X00383572D01*
X00481213Y00480296D02*
X00494403Y00467106D01*
X00250335Y00654416D02*
Y00844157D01*
X00464537Y00442238D02*
X00465227Y00442928D01*
X00358854Y00437690D02*
X00466421D01*
X00637293Y00442928D02*
X00645501Y00451136D01*
X00466421Y00437690D02*
X00467111Y00438380D01*
X00365379Y00446786D02*
X00462653D01*
X00563527Y00438380D02*
X00590144Y00411763D01*
X00467111Y00438380D02*
X00563527D01*
X00462653Y00446786D02*
X00482973Y00467106D01*
X00361720Y00442238D02*
X00464537D01*
X00465227Y00442928D02*
X00637293D01*
X00214268Y00589690D02*
Y00865016D01*
X00221488Y00590677D02*
Y00860806D01*
X00207518Y00589026D02*
Y00868426D01*
X00264668Y00858490D02*
Y00976504D01*
X00259716Y00981456D02*
Y01044569D01*
Y00981456D02*
X00264668Y00976504D01*
X00259716Y01044569D02*
X00292666Y01077518D01*
X00255647Y01401695D02*
X00333248Y01479296D01*
X00255647Y01197739D02*
Y01401695D01*
X00249484Y01191576D02*
X00255647Y01197739D01*
X00249302Y01239448D02*
X00249484Y01239266D01*
X00249302Y01239448D02*
Y01244948D01*
X00234188Y00979766D02*
X00244981Y00968972D01*
X00234188Y01128776D02*
X00250698Y01145286D01*
X00234188Y00979766D02*
Y01128776D01*
X00250335Y00844157D02*
X00264668Y00858490D01*
X00494403Y00467106D02*
X00500753Y00460756D01*
X00928878Y01704086D02*
X00944733Y01719941D01*
X01520083D01*
X01565148Y01674876D01*
X01154605Y01689026D02*
X01526868D01*
X01129997Y01688900D02*
X01154479D01*
X01154605Y01689026D01*
X01526868D02*
X01530858Y01685036D01*
X01108526Y01693291D02*
X01112791Y01689026D01*
X00658368Y01693291D02*
X01108526D01*
X01520183Y01681226D02*
X01524635Y01676774D01*
X01426765Y01675926D02*
X01476028D01*
X01568110Y01666150D02*
X01576578Y01674618D01*
X01524635Y01668920D02*
Y01676774D01*
X01025920Y01685036D02*
X01099795D01*
X01114228Y01670602D01*
X01527405Y01666150D02*
X01568110D01*
X01020841Y01679957D02*
X01025920Y01685036D01*
X01524635Y01668920D02*
X01527405Y01666150D01*
X01505678Y01661126D02*
X01519428Y01674876D01*
X01481328Y01681226D02*
X01520183D01*
X01406441Y01655602D02*
X01426765Y01675926D01*
X01476028D02*
X01481328Y01681226D01*
X00945389Y01679957D02*
X01020841D01*
X01576578Y01674618D02*
Y01674876D01*
X01530858D02*
Y01685036D01*
X01112791Y01689026D02*
X01129871D01*
X01129997Y01688900D01*
X00484378Y01701546D02*
X00492633Y01693291D01*
X00658368D01*
X01114228Y01670602D02*
X01294831D01*
X01309832Y01655602D02*
X01406441D01*
X01294831Y01670602D02*
X01309832Y01655602D01*
X00940308Y01674876D02*
X00945389Y01679957D01*
X00942594Y01065508D02*
X00965476D01*
X01126835Y00904149D01*
X01104138Y00730613D02*
X01126835Y00753309D01*
Y00904149D01*
X01012300Y00730613D02*
X01104138D01*
X01465538Y00712216D02*
X01522223D01*
X01457960D02*
X01465538D01*
X00281358Y01264666D02*
Y01403276D01*
X00262128Y01156806D02*
Y01399286D01*
X00339598Y01476756D02*
Y01591461D01*
X00262128Y01399286D02*
X00339598Y01476756D01*
X00246888Y01247362D02*
X00249302Y01244948D01*
X00246888Y01247362D02*
Y01400556D01*
X00387138Y01606296D02*
X00414528Y01633686D01*
X00386588Y01658914D02*
X00389128Y01661454D01*
Y01662176D01*
X00339598Y01591461D02*
X00354433Y01606296D01*
X00387138D01*
X00333248Y01596773D02*
X00351661Y01615186D01*
X00333248Y01479296D02*
Y01596773D01*
X01003808Y01602486D02*
X01026092D01*
X01048459Y01624853D02*
X01242075D01*
X01026092Y01602486D02*
X01048459Y01624853D01*
X01242075D02*
X01248918Y01631696D01*
X00281358Y01264666D02*
X00292666Y01253359D01*
Y01077518D02*
Y01253359D01*
X00214268Y00865016D02*
X00232918Y00883666D01*
X00216408Y00968756D02*
X00232918Y00952246D01*
Y00883666D02*
Y00952246D01*
X00239268Y00878586D02*
Y00958596D01*
X00221488Y00860806D02*
X00239268Y00878586D01*
X00227328Y00970536D02*
X00239268Y00958596D01*
X00207518Y00868426D02*
X00227100Y00888008D01*
X00203708Y00963130D02*
X00227100Y00939738D01*
Y00888008D02*
Y00939738D01*
X00953103Y00478846D02*
X00973383Y00458566D01*
X00850638Y00478846D02*
X00953103D01*
X00946463Y00473486D02*
X00961383Y00458566D01*
X00817453Y00473486D02*
X00946463D01*
X00489458Y01665986D02*
X00827278D01*
X00832358Y01660906D01*
X00474218Y01650746D02*
X00489458Y01665986D01*
X00839597Y01667637D02*
X00864358D01*
X00834898Y01672336D02*
X00839597Y01667637D01*
X00467868Y01658366D02*
X00481838Y01672336D01*
X00834898D01*
X00869959Y01672980D02*
X00874983Y01678004D01*
X00869701Y01672980D02*
X00869959D01*
X00864358Y01667637D02*
X00869701Y01672980D01*
X00427228Y01671066D02*
X00439928Y01658366D01*
X00386588Y01671066D02*
X00427228D01*
X00490872Y01682552D02*
X00891756D01*
X00893612Y01680696D01*
X01436323Y01337056D02*
Y01347979D01*
X00216408Y00968756D02*
Y01502156D01*
X00325628Y01479296D02*
Y01658366D01*
X00246888Y01400556D02*
X00325628Y01479296D01*
X00832358Y01660906D02*
X00881888D01*
X00893612Y01672980D02*
Y01680696D01*
X00888588Y01669422D02*
Y01675796D01*
X00886380Y01678004D02*
X00888588Y01675796D01*
Y01669422D02*
X00890374Y01667637D01*
X01054257D01*
X00874983Y01678004D02*
X00886380D01*
X01044165Y00416311D02*
X01432653D01*
X01498689Y00482346D02*
X01506728D01*
X01432653Y00416311D02*
X01498689Y00482346D01*
X01510538Y00489966D02*
X01525778Y00474726D01*
X01495468Y00489966D02*
X01510538D01*
X01506728Y00482346D02*
X01514348Y00474726D01*
X01426888Y00421386D02*
X01495468Y00489966D01*
X01045718Y00421386D02*
X01426888D01*
X00957403Y00451136D02*
X01015968D01*
X01045718Y00421386D01*
X00949973Y00458566D02*
X00957403Y00451136D01*
X01013888Y00446588D02*
X01044165Y00416311D01*
X00950521Y00446588D02*
X01013888D01*
X00938543Y00458566D02*
X00950521Y00446588D01*
X00590144Y00411763D02*
X01439955D01*
X01502918Y00474726D01*
X00931273Y00465836D02*
X00938543Y00458566D01*
X00618998Y00465836D02*
X00931273D01*
X00227328Y00970536D02*
Y01570736D01*
X00250698Y01145376D02*
X00262128Y01156806D01*
X00881888Y01660906D02*
Y01672980D01*
X00480768Y01692656D02*
X00490872Y01682552D01*
X00431588Y01650746D02*
X00474218D01*
X00439928Y01658366D02*
X00467868D01*
X00838708Y00888746D02*
X00909828Y00959866D01*
X00817118Y01132586D02*
X00909828Y01039876D01*
Y00959866D02*
Y01039876D01*
X00773938Y00888746D02*
X00838708D01*
X00480573Y01144244D02*
X00564245D01*
X00612648Y01192647D01*
X00918908Y00451136D02*
X00926338Y00458566D01*
X00645501Y00451136D02*
X00918908D01*
X00216408Y01502156D02*
Y01635506D01*
X01751838Y00977646D02*
Y01003046D01*
X01716278Y01038606D02*
X01751838Y01003046D01*
X01580128Y00976116D02*
X01642618Y01038606D01*
X01716278D01*
X01580128Y00893826D02*
Y00976116D01*
X01647698Y00806196D02*
X01661668Y00820166D01*
Y00894236D02*
X01706118Y00938686D01*
X01661668Y00820166D02*
Y00894236D01*
X01594358Y00696976D02*
X01686018Y00788636D01*
Y00862296D01*
X01720088Y00896366D01*
X01631188Y00806196D02*
X01647698D01*
X01400688Y00872236D02*
X01565148D01*
X01631188Y00806196D01*
X01391158Y00750511D02*
Y00862706D01*
X01400688Y00872236D01*
X01391158Y00750511D02*
X01410783Y00730886D01*
X01720088Y00896366D02*
X01742948D01*
X01537463Y00696976D02*
X01594358D01*
X01522223Y00712216D02*
X01537463Y00696976D01*
X01535816Y00688467D02*
X01602359D01*
X01499788Y00652439D02*
X01535816Y00688467D01*
X01707388Y00793496D02*
Y00850646D01*
X01602359Y00688467D02*
X01707388Y00793496D01*
X01684192Y00993586D02*
X01686018D01*
X01674368D02*
X01684192D01*
X01764538Y00913240D01*
Y00832866D02*
Y00913240D01*
X01610113Y00678441D02*
X01764538Y00832866D01*
X00561268Y01343686D02*
Y01396166D01*
X00582168Y01417066D01*
X00519083Y01345371D02*
X00520768Y01343686D01*
X00519083Y01345371D02*
Y01415381D01*
X00517398Y01417066D02*
X00519083Y01415381D01*
X01472173Y01193126D02*
X01506728Y01158571D01*
Y01141476D02*
Y01158571D01*
X01476498Y01130046D02*
X01484386Y01137934D01*
X01453668Y01193419D02*
X01484386Y01162701D01*
Y01137934D02*
Y01162701D01*
X00203708Y00963130D02*
Y01561846D01*
X00227328Y01570736D02*
Y01633726D01*
X00236728Y01170686D02*
X00250698Y01156716D01*
X00236728Y01170686D02*
Y01632966D01*
X00203708Y01561846D02*
Y01674876D01*
X00227328Y01633726D02*
X00283718Y01690116D01*
X00216408Y01635506D02*
X00282448Y01701546D01*
X00236728Y01588516D02*
X00255778D01*
X00376428Y01712976D02*
X00396748Y01692656D01*
X00427228Y01712976D02*
X00438658Y01701546D01*
X00339598D02*
X00351028Y01712976D01*
X00396748Y01692656D02*
X00480768D01*
X00394823Y01719941D02*
X00401788Y01712976D01*
X00438658Y01701546D02*
X00484378D01*
X00282448D02*
X00339598D01*
X00658368Y01693291D02*
Y01706626D01*
X01686018Y00993586D02*
X01706118Y01013686D01*
X01654268D02*
X01674368Y00993586D01*
X00666608Y01392936D02*
X00692658D01*
X00601218Y01327546D02*
X00666608Y01392936D01*
X00504559Y01230887D02*
X00601218Y01327546D01*
X00500753Y00460756D02*
X00613918D01*
X00618998Y00465836D01*
X00250698Y01145286D02*
Y01145376D01*
X01052488Y01660906D02*
X01076104Y01637290D01*
X01408182D02*
X01432018Y01661126D01*
X01076104Y01637290D02*
X01408182D01*
X01054257Y01667637D02*
X01079379Y01642515D01*
X01403204D01*
X01428326Y01667637D01*
X01501017D01*
X01507998Y01674618D01*
Y01674876D01*
X00881888Y01660906D02*
X01052488D01*
X01432018Y01661126D02*
X01505678D01*
X00248773Y01719941D02*
X00394823D01*
X00203708Y01674876D02*
X00248773Y01719941D01*
X00283718Y01690116D02*
X00300228D01*
X00281178Y01677416D02*
X00312928D01*
X00236728Y01632966D02*
X00281178Y01677416D01*
X00312928D02*
X00325628Y01690116D01*
G54D112*
X00827278Y01372888D02*
Y01427420D01*
X00865780Y01334386D02*
X00875538D01*
X00827278Y01372888D02*
X00865780Y01334386D01*
X00970788Y01456326D02*
X00974248Y01459786D01*
X00970788Y01312356D02*
X01069278Y01213866D01*
X00970788Y01312356D02*
Y01456326D01*
X00531915Y00722226D02*
X00687578Y00877889D01*
X00502130Y00722226D02*
X00531915D01*
X00687578Y00877889D02*
Y00986996D01*
X00898248Y00625856D02*
Y00632349D01*
X00437241Y01173298D02*
X00445854Y01164686D01*
X00432208Y01173298D02*
X00437241D01*
X00475854Y01134686D02*
X00615674D01*
X00445854Y01164686D02*
X00475854Y01134686D01*
X01550558Y01479344D02*
Y01507336D01*
Y01479344D02*
X01562032Y01467870D01*
X01457115Y01399286D02*
X01518575D01*
X01369053Y01311225D02*
X01457115Y01399286D01*
X01518575D02*
X01562032Y01442743D01*
X01491064Y00796036D02*
X01596898D01*
X01481385Y00786358D02*
X01491064Y00796036D01*
X01425078Y00674176D02*
Y00730050D01*
X01481385Y00786358D01*
X01407747Y00859996D02*
X01481385Y00786358D01*
X01562032Y01442743D02*
Y01467870D01*
X01514505Y01475414D02*
X01543314Y01504223D01*
X01484686Y01475414D02*
X01514505D01*
X01591438Y01513916D02*
X01598018Y01507336D01*
X01547832Y01513916D02*
X01591438D01*
X01543314Y01509397D02*
X01547832Y01513916D01*
X01543314Y01504223D02*
Y01509397D01*
X00958988Y01499918D02*
Y01507336D01*
X01060958Y01302766D02*
Y01397948D01*
X00958988Y01499918D02*
X01060958Y01397948D01*
X00543368Y01102826D02*
X00552597Y01112055D01*
Y01120107D01*
X00615674Y01134686D02*
X00619125Y01131235D01*
X01354328Y01345056D02*
X01484686Y01475414D01*
X00827278Y01427420D02*
X00854710Y01454852D01*
X01490529Y01462383D02*
X01499254D01*
X01311332Y01283186D02*
X01490529Y01462383D01*
X01248178Y01283186D02*
X01311332D01*
X01369053Y01283716D02*
Y01311225D01*
X00486918Y00828980D02*
Y00845566D01*
X00383587Y00725648D02*
X00486918Y00828980D01*
X00383587Y00669742D02*
Y00725648D01*
X00544068Y00845566D02*
X00608838Y00910336D01*
X00486918Y00845566D02*
X00544068D01*
X00486918D02*
Y00867156D01*
X00367623Y00653778D02*
X00383587Y00669742D01*
X00848268Y00860686D02*
X00915698Y00928116D01*
X00937768D01*
X01391158Y00640256D02*
X01425078Y00674176D01*
X00687578Y00986996D02*
X00714268Y01013686D01*
X01184268D02*
Y01056266D01*
X01138428Y01102106D02*
X01184268Y01056266D01*
X01596169Y01326186D02*
X01631813Y01361829D01*
Y01480121D01*
X01604598Y01507336D02*
X01631813Y01480121D01*
X01335888Y01222756D02*
X01390498Y01277366D01*
X01331118Y01222756D02*
X01335888D01*
X01390498Y01277366D02*
Y01297026D01*
X01419658Y01326186D02*
X01596169D01*
X01390498Y01297026D02*
X01419658Y01326186D01*
X00893551Y00637046D02*
X00898248Y00632349D01*
X00824818Y00637046D02*
X00893551D01*
X00790448Y00671416D02*
X00824818Y00637046D01*
X00790448Y00671416D02*
Y00700786D01*
X00800608Y00710946D01*
X01598878Y01326186D02*
X01641348Y01283716D01*
X01596169Y01326186D02*
X01598878D01*
X00714268Y01013686D02*
X00751358Y01050776D01*
X00827278D01*
X00800798Y00694228D02*
X00837183Y00730613D01*
X00926580D01*
X00961153Y00765186D02*
X01104138D01*
X00926580Y00730613D02*
X00961153Y00765186D01*
X00951738Y00883666D02*
X00996188Y00928116D01*
X00947293Y00883666D02*
X00951738D01*
G54D115*
X01580128Y00893826D02*
X01640268Y00833686D01*
X01248178Y00956866D02*
X01311218Y00893826D01*
X01580128D01*
G54D117*
X00817118Y01132586D02*
D03*
X00612648Y01192647D02*
D03*
X00922528Y01297686D02*
D03*
X00569665Y00960875D02*
D03*
X01596898Y00796036D02*
D03*
X00634238Y01243506D02*
D03*
X00658368Y01706626D02*
D03*
X00254508Y01588516D02*
D03*
X01138428Y01102106D02*
D03*
X00831088Y00973836D02*
D03*
X00827278Y01050776D02*
D03*
X01641348Y01283716D02*
D03*
X01218438Y01366266D02*
D03*
X01369053Y01283716D02*
D03*
X01751838Y00977646D02*
D03*
X00692658Y01392936D02*
D03*
X00582168Y01417066D02*
D03*
X00517398D02*
D03*
X01706118Y00938686D02*
D03*
X01707388Y00850646D02*
D03*
X01742948Y00896366D02*
D03*
X01706118Y01013686D02*
D03*
X00996188Y00928116D02*
D03*
Y01005586D02*
D03*
X00942594Y01065508D02*
D03*
X00937768Y00928116D02*
D03*
X00608838Y00910336D02*
D03*
X00886018Y00973836D02*
D03*
G54D120*
X00502130Y00722226D02*
D03*
X01457960Y00712216D02*
D03*
X01487788Y00630866D02*
D03*
X00910013Y00628326D02*
D03*
X00898248Y00625856D02*
D03*
X00444983Y00639916D02*
D03*
X00456819D02*
D03*
X00499949Y00769796D02*
D03*
X00432208Y01173298D02*
D03*
X01537274Y01507336D02*
D03*
X01489330Y01399286D02*
D03*
X00910948Y01507336D02*
D03*
X00843733Y01404961D02*
D03*
X00974248Y01459786D02*
D03*
X01550558Y01507336D02*
D03*
X00543368Y01102826D02*
D03*
X00552597Y01120107D02*
D03*
X00619125Y01131235D02*
D03*
X00535671Y00709765D02*
D03*
X00501833Y00674986D02*
D03*
X00364998Y01467866D02*
D03*
X00384048Y01489456D02*
D03*
X00373888Y01479296D02*
D03*
X00410718Y01467866D02*
D03*
Y01489456D02*
D03*
Y01479296D02*
D03*
X00268478Y00583356D02*
D03*
X00262128D02*
D03*
X00253167Y00597898D02*
D03*
X00242815D02*
D03*
X00341783Y00533177D02*
D03*
X00249484Y01239266D02*
D03*
Y01191576D02*
D03*
X00928878Y01704086D02*
D03*
X01519428Y01674876D02*
D03*
X00447898Y00467106D02*
D03*
X01248918Y01631696D02*
D03*
X01238758D02*
D03*
X00798957Y01660756D02*
D03*
X01436323Y01337056D02*
D03*
X00216408Y01502156D02*
D03*
X00790448Y00772796D02*
D03*
X00893612Y01672980D02*
D03*
X00869959D02*
D03*
X00227328Y01570736D02*
D03*
X00881888Y01672980D02*
D03*
X00602488Y01682552D02*
D03*
X00940308Y01674876D02*
D03*
X00773938Y00888746D02*
D03*
X00875538Y01334386D02*
D03*
X01060958Y01302766D02*
D03*
X01248178Y01283186D02*
D03*
X01499254Y01462383D02*
D03*
X00480573Y01144244D02*
D03*
X00523851Y01125671D02*
D03*
X00396983Y00639916D02*
D03*
X01410783Y00730886D02*
D03*
X01499788Y00652439D02*
D03*
X01576578Y01674876D02*
D03*
X01565148D02*
D03*
X01598018Y01507336D02*
D03*
X01604598D02*
D03*
X01354328Y01345056D02*
D03*
X01331118Y01222756D02*
D03*
X00758698Y01172591D02*
D03*
X00203708Y01561846D02*
D03*
X00617728Y01574386D02*
D03*
X00568198Y01578386D02*
D03*
X00597408Y01579886D02*
D03*
X00574408Y01548886D02*
D03*
X00568198Y01559386D02*
D03*
Y01569386D02*
D03*
X00367623Y00653778D02*
D03*
X00800798Y00694228D02*
D03*
X00601218Y01327546D02*
D03*
X00423776Y00467106D02*
D03*
X00482973D02*
D03*
X00435486D02*
D03*
X00412626D02*
D03*
X00517263Y00467314D02*
D03*
X00949973Y00458566D02*
D03*
X00973383D02*
D03*
X00926338D02*
D03*
X00961383D02*
D03*
X01507998Y01674876D02*
D03*
X01472173Y01193126D02*
D03*
X01560147Y00678441D02*
D03*
X01596169Y01326186D02*
D03*
X01391158Y00640256D02*
D03*
X01407747Y00859996D02*
D03*
X00947293Y00883666D02*
D03*
X00431038Y01221116D02*
D03*
X01453668Y01193419D02*
D03*
X00854710Y01454852D02*
D03*
X00938543Y00458566D02*
D03*
X01530858Y01674876D02*
D03*
X00250698Y01110996D02*
D03*
Y01122426D02*
D03*
Y01133856D02*
D03*
Y01145286D02*
D03*
Y01156716D02*
D03*
X00506022Y00467106D02*
D03*
X00494403D02*
D03*
X01525778Y00474726D02*
D03*
X01514348D02*
D03*
X01502918D02*
D03*
X00486918Y00867156D02*
D03*
X00877443Y01466141D02*
D03*
X01069278Y01213866D02*
D03*
X01506728Y01141476D02*
D03*
X00958988Y01507336D02*
D03*
X00800608Y00710946D02*
D03*
X00475999Y01230887D02*
D03*
X01476498Y01130046D02*
D03*
G54D121*
X00376428Y01633686D02*
D03*
X00439928Y01658366D02*
D03*
X00389128Y01662176D02*
D03*
X00414528Y01633686D02*
D03*
X01248178Y00956866D02*
D03*
X00376428Y01712976D02*
D03*
X00351028D02*
D03*
X00401788D02*
D03*
X00427228D02*
D03*
Y01633686D02*
D03*
X00325628Y01658366D02*
D03*
Y01690116D02*
D03*
X00300228D02*
D03*
X01104138Y00765186D02*
D03*
M02*
